M48
; DRILL file {KiCad 9.0.2+dfsg-1} date 2026-09-14T14:01:20+0700
; FORMAT={-:-/ absolute / metric / decimal}
; #@! TF.CreationDate,2026-09-14T14:01:20+07:00
; #@! TF.GenerationSoftware,Kicad,Pcbnew,9.0.2+dfsg-1
; #@! TF.FileFunction,Plated,1,2,PTH
FMAT,2
METRIC
; #@! TA.AperFunction,Plated,PTH,ViaDrill
T1C0.300
; #@! TA.AperFunction,Plated,PTH,ComponentDrill
T2C0.700
; #@! TA.AperFunction,Plated,PTH,ComponentDrill
T3C0.800
; #@! TA.AperFunction,Plated,PTH,ComponentDrill
T4C0.900
; #@! TA.AperFunction,Plated,PTH,ComponentDrill
T5C1.000
; #@! TA.AperFunction,Plated,PTH,ComponentDrill
T6C1.300
; #@! TA.AperFunction,Plated,PTH,ComponentDrill
T7C1.800
%
G90
G05
T1
X12.769Y-55.863
X13.836Y-56.568
X15.657Y-29.883
X22.065Y-29.316
X46.481Y-16.414
X46.5Y-39.45
X56.9Y-18.352
X59.835Y-10.872
X66.035Y-55.786
X69.112Y-30.238
X69.12Y-32.414
T2
X7.0Y-25.5
X7.0Y-29.5
X7.0Y-37.5
X12.08Y-25.5
X12.08Y-29.5
X12.08Y-37.5
X16.0Y-21.0
X16.0Y-24.5
X16.0Y-28.0
X16.0Y-31.5
X16.0Y-35.0
X21.08Y-21.0
X21.08Y-24.5
X21.08Y-28.0
X21.08Y-31.5
X21.08Y-35.0
X26.0Y-28.0
X28.0Y-54.0
X31.08Y-28.0
X33.08Y-54.0
X35.0Y-42.0
X40.08Y-42.0
X45.0Y-42.0
X50.08Y-42.0
X52.0Y-28.0
X57.08Y-28.0
X62.0Y-21.0
X62.0Y-24.5
X62.0Y-28.0
X62.0Y-31.5
X62.0Y-35.0
X67.08Y-21.0
X67.08Y-24.5
X67.08Y-28.0
X67.08Y-31.5
X67.08Y-35.0
X72.0Y-25.5
X72.0Y-29.5
X72.0Y-37.5
X77.08Y-25.5
X77.08Y-29.5
X77.08Y-37.5
T3
X7.0Y-21.0
X7.0Y-33.5
X9.0Y-21.0
X9.5Y-33.5
X26.0Y-21.0
X26.0Y-24.5
X26.0Y-31.5
X26.0Y-35.0
X28.5Y-21.0
X28.5Y-24.5
X28.5Y-31.5
X28.5Y-35.0
X36.0Y-47.0
X38.0Y-47.0
X40.19Y-22.0
X40.19Y-24.54
X40.19Y-27.08
X40.19Y-29.62
X40.19Y-32.16
X40.19Y-34.7
X40.19Y-37.24
X46.0Y-47.0
X47.81Y-22.0
X47.81Y-24.54
X47.81Y-27.08
X47.81Y-29.62
X47.81Y-32.16
X47.81Y-34.7
X47.81Y-37.24
X48.5Y-47.0
X52.0Y-21.0
X52.0Y-24.5
X52.0Y-31.5
X52.0Y-35.0
X52.0Y-54.0
X54.0Y-54.0
X54.5Y-21.0
X54.5Y-24.5
X54.5Y-31.5
X54.5Y-35.0
X59.0Y-54.0
X61.5Y-54.0
X72.0Y-21.0
X72.0Y-33.5
X74.0Y-21.0
X74.5Y-33.5
T4
X36.0Y-54.0
X38.54Y-54.0
T5
X14.0Y-12.5
X14.0Y-15.0
X16.5Y-12.5
X16.5Y-15.0
X19.0Y-12.5
X19.0Y-15.0
X28.0Y-12.5
X28.0Y-15.0
X30.5Y-12.5
X30.5Y-15.0
X33.0Y-12.5
X33.0Y-15.0
X42.0Y-12.5
X42.0Y-15.0
X44.0Y-54.0
X44.0Y-56.54
X44.5Y-12.5
X44.5Y-15.0
X47.0Y-12.5
X47.0Y-15.0
X56.0Y-12.5
X56.0Y-15.0
X58.5Y-12.5
X58.5Y-15.0
X61.0Y-12.5
X61.0Y-15.0
X70.0Y-12.5
X70.0Y-15.0
X72.5Y-12.5
X72.5Y-15.0
X75.0Y-12.5
X75.0Y-15.0
T6
X10.2Y-45.9
X12.9Y-47.1
X15.4Y-53.9
X19.5Y-42.7
X20.0Y-50.0
X64.2Y-45.9
X66.9Y-47.1
X69.4Y-53.9
X73.5Y-42.7
X74.0Y-50.0
T7
X11.75Y-5.0
X21.25Y-5.0
X25.75Y-5.0
X35.25Y-5.0
X39.75Y-5.0
X49.25Y-5.0
X53.75Y-5.0
X63.25Y-5.0
X67.75Y-5.0
X77.25Y-5.0
M30
