G04 #@! TF.GenerationSoftware,KiCad,Pcbnew,9.0.2+dfsg-1*
G04 #@! TF.CreationDate,2026-09-14T14:01:19+07:00*
G04 #@! TF.ProjectId,tht_opamp_eq,7468745f-6f70-4616-9d70-5f65712e6b69,rev?*
G04 #@! TF.SameCoordinates,Original*
G04 #@! TF.FileFunction,Legend,Top*
G04 #@! TF.FilePolarity,Positive*
%FSLAX46Y46*%
G04 Gerber Fmt 4.6, Leading zero omitted, Abs format (unit mm)*
G04 Created by KiCad (PCBNEW 9.0.2+dfsg-1) date 2026-09-14 14:01:19*
%MOMM*%
%LPD*%
G01*
G04 APERTURE LIST*
%ADD10C,0.100000*%
%ADD11C,0.150000*%
%ADD12C,0.120000*%
G04 APERTURE END LIST*
D10*
X54609523Y-16764895D02*
X55066666Y-16764895D01*
X54838094Y-17564895D02*
X54838094Y-16764895D01*
X55790476Y-17564895D02*
X55523809Y-17183942D01*
X55333333Y-17564895D02*
X55333333Y-16764895D01*
X55333333Y-16764895D02*
X55638095Y-16764895D01*
X55638095Y-16764895D02*
X55714285Y-16802990D01*
X55714285Y-16802990D02*
X55752380Y-16841085D01*
X55752380Y-16841085D02*
X55790476Y-16917276D01*
X55790476Y-16917276D02*
X55790476Y-17031561D01*
X55790476Y-17031561D02*
X55752380Y-17107752D01*
X55752380Y-17107752D02*
X55714285Y-17145847D01*
X55714285Y-17145847D02*
X55638095Y-17183942D01*
X55638095Y-17183942D02*
X55333333Y-17183942D01*
X56133333Y-17145847D02*
X56399999Y-17145847D01*
X56514285Y-17564895D02*
X56133333Y-17564895D01*
X56133333Y-17564895D02*
X56133333Y-16764895D01*
X56133333Y-16764895D02*
X56514285Y-16764895D01*
X57123809Y-17145847D02*
X57238095Y-17183942D01*
X57238095Y-17183942D02*
X57276190Y-17222038D01*
X57276190Y-17222038D02*
X57314286Y-17298228D01*
X57314286Y-17298228D02*
X57314286Y-17412514D01*
X57314286Y-17412514D02*
X57276190Y-17488704D01*
X57276190Y-17488704D02*
X57238095Y-17526800D01*
X57238095Y-17526800D02*
X57161905Y-17564895D01*
X57161905Y-17564895D02*
X56857143Y-17564895D01*
X56857143Y-17564895D02*
X56857143Y-16764895D01*
X56857143Y-16764895D02*
X57123809Y-16764895D01*
X57123809Y-16764895D02*
X57200000Y-16802990D01*
X57200000Y-16802990D02*
X57238095Y-16841085D01*
X57238095Y-16841085D02*
X57276190Y-16917276D01*
X57276190Y-16917276D02*
X57276190Y-16993466D01*
X57276190Y-16993466D02*
X57238095Y-17069657D01*
X57238095Y-17069657D02*
X57200000Y-17107752D01*
X57200000Y-17107752D02*
X57123809Y-17145847D01*
X57123809Y-17145847D02*
X56857143Y-17145847D01*
X13580953Y-39364895D02*
X13580953Y-38564895D01*
X13961905Y-39364895D02*
X13961905Y-38564895D01*
X13961905Y-38564895D02*
X14419048Y-39364895D01*
X14419048Y-39364895D02*
X14419048Y-38564895D01*
X41142857Y-17564895D02*
X41142857Y-16764895D01*
X41142857Y-16764895D02*
X41409523Y-17336323D01*
X41409523Y-17336323D02*
X41676190Y-16764895D01*
X41676190Y-16764895D02*
X41676190Y-17564895D01*
X42057143Y-17564895D02*
X42057143Y-16764895D01*
X42438095Y-17564895D02*
X42438095Y-16764895D01*
X42438095Y-16764895D02*
X42628571Y-16764895D01*
X42628571Y-16764895D02*
X42742857Y-16802990D01*
X42742857Y-16802990D02*
X42819047Y-16879180D01*
X42819047Y-16879180D02*
X42857142Y-16955371D01*
X42857142Y-16955371D02*
X42895238Y-17107752D01*
X42895238Y-17107752D02*
X42895238Y-17222038D01*
X42895238Y-17222038D02*
X42857142Y-17374419D01*
X42857142Y-17374419D02*
X42819047Y-17450609D01*
X42819047Y-17450609D02*
X42742857Y-17526800D01*
X42742857Y-17526800D02*
X42628571Y-17564895D01*
X42628571Y-17564895D02*
X42438095Y-17564895D01*
X69390476Y-17145847D02*
X69504762Y-17183942D01*
X69504762Y-17183942D02*
X69542857Y-17222038D01*
X69542857Y-17222038D02*
X69580953Y-17298228D01*
X69580953Y-17298228D02*
X69580953Y-17412514D01*
X69580953Y-17412514D02*
X69542857Y-17488704D01*
X69542857Y-17488704D02*
X69504762Y-17526800D01*
X69504762Y-17526800D02*
X69428572Y-17564895D01*
X69428572Y-17564895D02*
X69123810Y-17564895D01*
X69123810Y-17564895D02*
X69123810Y-16764895D01*
X69123810Y-16764895D02*
X69390476Y-16764895D01*
X69390476Y-16764895D02*
X69466667Y-16802990D01*
X69466667Y-16802990D02*
X69504762Y-16841085D01*
X69504762Y-16841085D02*
X69542857Y-16917276D01*
X69542857Y-16917276D02*
X69542857Y-16993466D01*
X69542857Y-16993466D02*
X69504762Y-17069657D01*
X69504762Y-17069657D02*
X69466667Y-17107752D01*
X69466667Y-17107752D02*
X69390476Y-17145847D01*
X69390476Y-17145847D02*
X69123810Y-17145847D01*
X69885714Y-17336323D02*
X70266667Y-17336323D01*
X69809524Y-17564895D02*
X70076191Y-16764895D01*
X70076191Y-16764895D02*
X70342857Y-17564895D01*
X70990476Y-17564895D02*
X70609524Y-17564895D01*
X70609524Y-17564895D02*
X70609524Y-16764895D01*
X41195238Y-56060133D02*
X41804762Y-56060133D01*
X31933333Y-56364895D02*
X31933333Y-55564895D01*
X31933333Y-55564895D02*
X32238095Y-55564895D01*
X32238095Y-55564895D02*
X32314285Y-55602990D01*
X32314285Y-55602990D02*
X32352380Y-55641085D01*
X32352380Y-55641085D02*
X32390476Y-55717276D01*
X32390476Y-55717276D02*
X32390476Y-55831561D01*
X32390476Y-55831561D02*
X32352380Y-55907752D01*
X32352380Y-55907752D02*
X32314285Y-55945847D01*
X32314285Y-55945847D02*
X32238095Y-55983942D01*
X32238095Y-55983942D02*
X31933333Y-55983942D01*
X32657142Y-55564895D02*
X32847618Y-56364895D01*
X32847618Y-56364895D02*
X32999999Y-55793466D01*
X32999999Y-55793466D02*
X33152380Y-56364895D01*
X33152380Y-56364895D02*
X33342857Y-55564895D01*
X34104762Y-56364895D02*
X33838095Y-55983942D01*
X33647619Y-56364895D02*
X33647619Y-55564895D01*
X33647619Y-55564895D02*
X33952381Y-55564895D01*
X33952381Y-55564895D02*
X34028571Y-55602990D01*
X34028571Y-55602990D02*
X34066666Y-55641085D01*
X34066666Y-55641085D02*
X34104762Y-55717276D01*
X34104762Y-55717276D02*
X34104762Y-55831561D01*
X34104762Y-55831561D02*
X34066666Y-55907752D01*
X34066666Y-55907752D02*
X34028571Y-55945847D01*
X34028571Y-55945847D02*
X33952381Y-55983942D01*
X33952381Y-55983942D02*
X33647619Y-55983942D01*
X67200000Y-38564895D02*
X67352381Y-38564895D01*
X67352381Y-38564895D02*
X67428571Y-38602990D01*
X67428571Y-38602990D02*
X67504762Y-38679180D01*
X67504762Y-38679180D02*
X67542857Y-38831561D01*
X67542857Y-38831561D02*
X67542857Y-39098228D01*
X67542857Y-39098228D02*
X67504762Y-39250609D01*
X67504762Y-39250609D02*
X67428571Y-39326800D01*
X67428571Y-39326800D02*
X67352381Y-39364895D01*
X67352381Y-39364895D02*
X67200000Y-39364895D01*
X67200000Y-39364895D02*
X67123809Y-39326800D01*
X67123809Y-39326800D02*
X67047619Y-39250609D01*
X67047619Y-39250609D02*
X67009523Y-39098228D01*
X67009523Y-39098228D02*
X67009523Y-38831561D01*
X67009523Y-38831561D02*
X67047619Y-38679180D01*
X67047619Y-38679180D02*
X67123809Y-38602990D01*
X67123809Y-38602990D02*
X67200000Y-38564895D01*
X67885714Y-38564895D02*
X67885714Y-39212514D01*
X67885714Y-39212514D02*
X67923809Y-39288704D01*
X67923809Y-39288704D02*
X67961904Y-39326800D01*
X67961904Y-39326800D02*
X68038095Y-39364895D01*
X68038095Y-39364895D02*
X68190476Y-39364895D01*
X68190476Y-39364895D02*
X68266666Y-39326800D01*
X68266666Y-39326800D02*
X68304761Y-39288704D01*
X68304761Y-39288704D02*
X68342857Y-39212514D01*
X68342857Y-39212514D02*
X68342857Y-38564895D01*
X68609523Y-38564895D02*
X69066666Y-38564895D01*
X68838094Y-39364895D02*
X68838094Y-38564895D01*
X26952380Y-17145847D02*
X27066666Y-17183942D01*
X27066666Y-17183942D02*
X27104761Y-17222038D01*
X27104761Y-17222038D02*
X27142857Y-17298228D01*
X27142857Y-17298228D02*
X27142857Y-17412514D01*
X27142857Y-17412514D02*
X27104761Y-17488704D01*
X27104761Y-17488704D02*
X27066666Y-17526800D01*
X27066666Y-17526800D02*
X26990476Y-17564895D01*
X26990476Y-17564895D02*
X26685714Y-17564895D01*
X26685714Y-17564895D02*
X26685714Y-16764895D01*
X26685714Y-16764895D02*
X26952380Y-16764895D01*
X26952380Y-16764895D02*
X27028571Y-16802990D01*
X27028571Y-16802990D02*
X27066666Y-16841085D01*
X27066666Y-16841085D02*
X27104761Y-16917276D01*
X27104761Y-16917276D02*
X27104761Y-16993466D01*
X27104761Y-16993466D02*
X27066666Y-17069657D01*
X27066666Y-17069657D02*
X27028571Y-17107752D01*
X27028571Y-17107752D02*
X26952380Y-17145847D01*
X26952380Y-17145847D02*
X26685714Y-17145847D01*
X27447618Y-17336323D02*
X27828571Y-17336323D01*
X27371428Y-17564895D02*
X27638095Y-16764895D01*
X27638095Y-16764895D02*
X27904761Y-17564895D01*
X28133332Y-17526800D02*
X28247618Y-17564895D01*
X28247618Y-17564895D02*
X28438094Y-17564895D01*
X28438094Y-17564895D02*
X28514285Y-17526800D01*
X28514285Y-17526800D02*
X28552380Y-17488704D01*
X28552380Y-17488704D02*
X28590475Y-17412514D01*
X28590475Y-17412514D02*
X28590475Y-17336323D01*
X28590475Y-17336323D02*
X28552380Y-17260133D01*
X28552380Y-17260133D02*
X28514285Y-17222038D01*
X28514285Y-17222038D02*
X28438094Y-17183942D01*
X28438094Y-17183942D02*
X28285713Y-17145847D01*
X28285713Y-17145847D02*
X28209523Y-17107752D01*
X28209523Y-17107752D02*
X28171428Y-17069657D01*
X28171428Y-17069657D02*
X28133332Y-16993466D01*
X28133332Y-16993466D02*
X28133332Y-16917276D01*
X28133332Y-16917276D02*
X28171428Y-16841085D01*
X28171428Y-16841085D02*
X28209523Y-16802990D01*
X28209523Y-16802990D02*
X28285713Y-16764895D01*
X28285713Y-16764895D02*
X28476190Y-16764895D01*
X28476190Y-16764895D02*
X28590475Y-16802990D01*
X28895237Y-17526800D02*
X29009523Y-17564895D01*
X29009523Y-17564895D02*
X29199999Y-17564895D01*
X29199999Y-17564895D02*
X29276190Y-17526800D01*
X29276190Y-17526800D02*
X29314285Y-17488704D01*
X29314285Y-17488704D02*
X29352380Y-17412514D01*
X29352380Y-17412514D02*
X29352380Y-17336323D01*
X29352380Y-17336323D02*
X29314285Y-17260133D01*
X29314285Y-17260133D02*
X29276190Y-17222038D01*
X29276190Y-17222038D02*
X29199999Y-17183942D01*
X29199999Y-17183942D02*
X29047618Y-17145847D01*
X29047618Y-17145847D02*
X28971428Y-17107752D01*
X28971428Y-17107752D02*
X28933333Y-17069657D01*
X28933333Y-17069657D02*
X28895237Y-16993466D01*
X28895237Y-16993466D02*
X28895237Y-16917276D01*
X28895237Y-16917276D02*
X28933333Y-16841085D01*
X28933333Y-16841085D02*
X28971428Y-16802990D01*
X28971428Y-16802990D02*
X29047618Y-16764895D01*
X29047618Y-16764895D02*
X29238095Y-16764895D01*
X29238095Y-16764895D02*
X29352380Y-16802990D01*
X41195238Y-53560133D02*
X41804762Y-53560133D01*
X41500000Y-53864895D02*
X41500000Y-53255371D01*
X12990476Y-16764895D02*
X13257143Y-17564895D01*
X13257143Y-17564895D02*
X13523809Y-16764895D01*
X13942857Y-16764895D02*
X14095238Y-16764895D01*
X14095238Y-16764895D02*
X14171428Y-16802990D01*
X14171428Y-16802990D02*
X14247619Y-16879180D01*
X14247619Y-16879180D02*
X14285714Y-17031561D01*
X14285714Y-17031561D02*
X14285714Y-17298228D01*
X14285714Y-17298228D02*
X14247619Y-17450609D01*
X14247619Y-17450609D02*
X14171428Y-17526800D01*
X14171428Y-17526800D02*
X14095238Y-17564895D01*
X14095238Y-17564895D02*
X13942857Y-17564895D01*
X13942857Y-17564895D02*
X13866666Y-17526800D01*
X13866666Y-17526800D02*
X13790476Y-17450609D01*
X13790476Y-17450609D02*
X13752380Y-17298228D01*
X13752380Y-17298228D02*
X13752380Y-17031561D01*
X13752380Y-17031561D02*
X13790476Y-16879180D01*
X13790476Y-16879180D02*
X13866666Y-16802990D01*
X13866666Y-16802990D02*
X13942857Y-16764895D01*
X15009523Y-17564895D02*
X14628571Y-17564895D01*
X14628571Y-17564895D02*
X14628571Y-16764895D01*
D11*
X43238095Y-19454819D02*
X43238095Y-20264342D01*
X43238095Y-20264342D02*
X43285714Y-20359580D01*
X43285714Y-20359580D02*
X43333333Y-20407200D01*
X43333333Y-20407200D02*
X43428571Y-20454819D01*
X43428571Y-20454819D02*
X43619047Y-20454819D01*
X43619047Y-20454819D02*
X43714285Y-20407200D01*
X43714285Y-20407200D02*
X43761904Y-20359580D01*
X43761904Y-20359580D02*
X43809523Y-20264342D01*
X43809523Y-20264342D02*
X43809523Y-19454819D01*
X44809523Y-20454819D02*
X44238095Y-20454819D01*
X44523809Y-20454819D02*
X44523809Y-19454819D01*
X44523809Y-19454819D02*
X44428571Y-19597676D01*
X44428571Y-19597676D02*
X44333333Y-19692914D01*
X44333333Y-19692914D02*
X44238095Y-19740533D01*
D12*
G04 #@! TO.C,C_IN_L*
X6230000Y-32080000D02*
X6230000Y-32801000D01*
X6230000Y-32080000D02*
X10270000Y-32080000D01*
X6230000Y-34199000D02*
X6230000Y-34920000D01*
X6230000Y-34920000D02*
X10270000Y-34920000D01*
X10270000Y-32080000D02*
X10270000Y-32801000D01*
X10270000Y-34199000D02*
X10270000Y-34920000D01*
G04 #@! TO.C,C_BIAS2*
X45230000Y-45580000D02*
X45230000Y-46301000D01*
X45230000Y-45580000D02*
X49270000Y-45580000D01*
X45230000Y-47699000D02*
X45230000Y-48420000D01*
X45230000Y-48420000D02*
X49270000Y-48420000D01*
X49270000Y-45580000D02*
X49270000Y-46301000D01*
X49270000Y-47699000D02*
X49270000Y-48420000D01*
G04 #@! TO.C,R_IN_EQ_L*
X16620000Y-23580000D02*
X20460000Y-23580000D01*
X16620000Y-25420000D02*
X20460000Y-25420000D01*
G04 #@! TO.C,RV2*
X25630000Y-3090000D02*
X25630000Y-30000D01*
X25630000Y-11620000D02*
X25630000Y-6900000D01*
X26810000Y-11620000D02*
X25630000Y-11620000D01*
X29710000Y-11620000D02*
X29180000Y-11620000D01*
X32160000Y-11620000D02*
X31330000Y-11620000D01*
X35370000Y-30000D02*
X25630000Y-30000D01*
X35370000Y-3090000D02*
X35370000Y-30000D01*
X35370000Y-11620000D02*
X33880000Y-11620000D01*
X35370000Y-11620000D02*
X35370000Y-6900000D01*
G04 #@! TO.C,C_PWR1*
X50195225Y-52525000D02*
X50695225Y-52525000D01*
X50445225Y-52275000D02*
X50445225Y-52775000D01*
X53000000Y-51420000D02*
X53000000Y-52960000D01*
X53000000Y-55040000D02*
X53000000Y-56580000D01*
X53040000Y-51420000D02*
X53040000Y-52960000D01*
X53040000Y-55040000D02*
X53040000Y-56580000D01*
X53080000Y-51421000D02*
X53080000Y-52960000D01*
X53080000Y-55040000D02*
X53080000Y-56579000D01*
X53120000Y-51423000D02*
X53120000Y-52960000D01*
X53120000Y-55040000D02*
X53120000Y-56577000D01*
X53160000Y-51425000D02*
X53160000Y-52960000D01*
X53160000Y-55040000D02*
X53160000Y-56575000D01*
X53200000Y-51428000D02*
X53200000Y-52960000D01*
X53200000Y-55040000D02*
X53200000Y-56572000D01*
X53240000Y-51431000D02*
X53240000Y-52960000D01*
X53240000Y-55040000D02*
X53240000Y-56569000D01*
X53280000Y-51435000D02*
X53280000Y-52960000D01*
X53280000Y-55040000D02*
X53280000Y-56565000D01*
X53320000Y-51440000D02*
X53320000Y-52960000D01*
X53320000Y-55040000D02*
X53320000Y-56560000D01*
X53360000Y-51445000D02*
X53360000Y-52960000D01*
X53360000Y-55040000D02*
X53360000Y-56555000D01*
X53400000Y-51451000D02*
X53400000Y-52960000D01*
X53400000Y-55040000D02*
X53400000Y-56549000D01*
X53440000Y-51457000D02*
X53440000Y-52960000D01*
X53440000Y-55040000D02*
X53440000Y-56543000D01*
X53480000Y-51464000D02*
X53480000Y-52960000D01*
X53480000Y-55040000D02*
X53480000Y-56536000D01*
X53520000Y-51472000D02*
X53520000Y-52960000D01*
X53520000Y-55040000D02*
X53520000Y-56528000D01*
X53560000Y-51481000D02*
X53560000Y-52960000D01*
X53560000Y-55040000D02*
X53560000Y-56519000D01*
X53600000Y-51490000D02*
X53600000Y-52960000D01*
X53600000Y-55040000D02*
X53600000Y-56510000D01*
X53640000Y-51499000D02*
X53640000Y-52960000D01*
X53640000Y-55040000D02*
X53640000Y-56501000D01*
X53680000Y-51510000D02*
X53680000Y-52960000D01*
X53680000Y-55040000D02*
X53680000Y-56490000D01*
X53720000Y-51521000D02*
X53720000Y-52960000D01*
X53720000Y-55040000D02*
X53720000Y-56479000D01*
X53760000Y-51533000D02*
X53760000Y-52960000D01*
X53760000Y-55040000D02*
X53760000Y-56467000D01*
X53800000Y-51545000D02*
X53800000Y-52960000D01*
X53800000Y-55040000D02*
X53800000Y-56455000D01*
X53840000Y-51558000D02*
X53840000Y-52960000D01*
X53840000Y-55040000D02*
X53840000Y-56442000D01*
X53880000Y-51572000D02*
X53880000Y-52960000D01*
X53880000Y-55040000D02*
X53880000Y-56428000D01*
X53920000Y-51587000D02*
X53920000Y-52960000D01*
X53920000Y-55040000D02*
X53920000Y-56413000D01*
X53960000Y-51602000D02*
X53960000Y-52960000D01*
X53960000Y-55040000D02*
X53960000Y-56398000D01*
X54000000Y-51618000D02*
X54000000Y-52960000D01*
X54000000Y-55040000D02*
X54000000Y-56382000D01*
X54040000Y-51635000D02*
X54040000Y-52960000D01*
X54040000Y-55040000D02*
X54040000Y-56365000D01*
X54080000Y-51653000D02*
X54080000Y-52960000D01*
X54080000Y-55040000D02*
X54080000Y-56347000D01*
X54120000Y-51671000D02*
X54120000Y-52960000D01*
X54120000Y-55040000D02*
X54120000Y-56329000D01*
X54160000Y-51691000D02*
X54160000Y-52960000D01*
X54160000Y-55040000D02*
X54160000Y-56309000D01*
X54200000Y-51711000D02*
X54200000Y-52960000D01*
X54200000Y-55040000D02*
X54200000Y-56289000D01*
X54240000Y-51732000D02*
X54240000Y-52960000D01*
X54240000Y-55040000D02*
X54240000Y-56268000D01*
X54280000Y-51754000D02*
X54280000Y-52960000D01*
X54280000Y-55040000D02*
X54280000Y-56246000D01*
X54320000Y-51777000D02*
X54320000Y-52960000D01*
X54320000Y-55040000D02*
X54320000Y-56223000D01*
X54360000Y-51801000D02*
X54360000Y-52960000D01*
X54360000Y-55040000D02*
X54360000Y-56199000D01*
X54400000Y-51825000D02*
X54400000Y-52960000D01*
X54400000Y-55040000D02*
X54400000Y-56175000D01*
X54440000Y-51851000D02*
X54440000Y-52960000D01*
X54440000Y-55040000D02*
X54440000Y-56149000D01*
X54480000Y-51878000D02*
X54480000Y-52960000D01*
X54480000Y-55040000D02*
X54480000Y-56122000D01*
X54520000Y-51906000D02*
X54520000Y-52960000D01*
X54520000Y-55040000D02*
X54520000Y-56094000D01*
X54560000Y-51935000D02*
X54560000Y-52960000D01*
X54560000Y-55040000D02*
X54560000Y-56065000D01*
X54600000Y-51965000D02*
X54600000Y-52960000D01*
X54600000Y-55040000D02*
X54600000Y-56035000D01*
X54640000Y-51997000D02*
X54640000Y-52960000D01*
X54640000Y-55040000D02*
X54640000Y-56003000D01*
X54680000Y-52030000D02*
X54680000Y-52960000D01*
X54680000Y-55040000D02*
X54680000Y-55970000D01*
X54720000Y-52064000D02*
X54720000Y-52960000D01*
X54720000Y-55040000D02*
X54720000Y-55936000D01*
X54760000Y-52099000D02*
X54760000Y-52960000D01*
X54760000Y-55040000D02*
X54760000Y-55901000D01*
X54800000Y-52136000D02*
X54800000Y-52960000D01*
X54800000Y-55040000D02*
X54800000Y-55864000D01*
X54840000Y-52175000D02*
X54840000Y-52960000D01*
X54840000Y-55040000D02*
X54840000Y-55825000D01*
X54880000Y-52215000D02*
X54880000Y-52960000D01*
X54880000Y-55040000D02*
X54880000Y-55785000D01*
X54920000Y-52257000D02*
X54920000Y-52960000D01*
X54920000Y-55040000D02*
X54920000Y-55743000D01*
X54960000Y-52301000D02*
X54960000Y-52960000D01*
X54960000Y-55040000D02*
X54960000Y-55699000D01*
X55000000Y-52348000D02*
X55000000Y-52960000D01*
X55000000Y-55040000D02*
X55000000Y-55652000D01*
X55040000Y-52396000D02*
X55040000Y-55604000D01*
X55080000Y-52447000D02*
X55080000Y-55553000D01*
X55120000Y-52501000D02*
X55120000Y-55499000D01*
X55160000Y-52557000D02*
X55160000Y-55443000D01*
X55200000Y-52617000D02*
X55200000Y-55383000D01*
X55240000Y-52681000D02*
X55240000Y-55319000D01*
X55280000Y-52749000D02*
X55280000Y-55251000D01*
X55320000Y-52823000D02*
X55320000Y-55177000D01*
X55360000Y-52902000D02*
X55360000Y-55098000D01*
X55400000Y-52989000D02*
X55400000Y-55011000D01*
X55440000Y-53086000D02*
X55440000Y-54914000D01*
X55480000Y-53195000D02*
X55480000Y-54805000D01*
X55520000Y-53323000D02*
X55520000Y-54677000D01*
X55560000Y-53483000D02*
X55560000Y-54517000D01*
X55600000Y-53717000D02*
X55600000Y-54283000D01*
X55620000Y-54000000D02*
G75*
G02*
X50380000Y-54000000I-2620000J0D01*
G01*
X50380000Y-54000000D02*
G75*
G02*
X55620000Y-54000000I2620000J0D01*
G01*
G04 #@! TO.C,C_MID_L1*
X25230000Y-30080000D02*
X25230000Y-30801000D01*
X25230000Y-30080000D02*
X29270000Y-30080000D01*
X25230000Y-32199000D02*
X25230000Y-32920000D01*
X25230000Y-32920000D02*
X29270000Y-32920000D01*
X29270000Y-30080000D02*
X29270000Y-30801000D01*
X29270000Y-32199000D02*
X29270000Y-32920000D01*
G04 #@! TO.C,R_STAB_R*
X72620000Y-24580000D02*
X76460000Y-24580000D01*
X72620000Y-26420000D02*
X76460000Y-26420000D01*
G04 #@! TO.C,C_BASS_L1*
X25230000Y-33580000D02*
X25230000Y-34301000D01*
X25230000Y-33580000D02*
X29270000Y-33580000D01*
X25230000Y-35699000D02*
X25230000Y-36420000D01*
X25230000Y-36420000D02*
X29270000Y-36420000D01*
X29270000Y-33580000D02*
X29270000Y-34301000D01*
X29270000Y-35699000D02*
X29270000Y-36420000D01*
G04 #@! TO.C,R_IN_L*
X16620000Y-20080000D02*
X20460000Y-20080000D01*
X16620000Y-21920000D02*
X20460000Y-21920000D01*
G04 #@! TO.C,R_BIAS1*
X35620000Y-41080000D02*
X39460000Y-41080000D01*
X35620000Y-42920000D02*
X39460000Y-42920000D01*
G04 #@! TO.C,R_FB_L*
X16620000Y-30580000D02*
X20460000Y-30580000D01*
X16620000Y-32420000D02*
X20460000Y-32420000D01*
G04 #@! TO.C,R_IN_R*
X62620000Y-20080000D02*
X66460000Y-20080000D01*
X62620000Y-21920000D02*
X66460000Y-21920000D01*
G04 #@! TO.C,C_PWR2*
X58230000Y-52580000D02*
X58230000Y-53301000D01*
X58230000Y-52580000D02*
X62270000Y-52580000D01*
X58230000Y-54699000D02*
X58230000Y-55420000D01*
X58230000Y-55420000D02*
X62270000Y-55420000D01*
X62270000Y-52580000D02*
X62270000Y-53301000D01*
X62270000Y-54699000D02*
X62270000Y-55420000D01*
G04 #@! TO.C,C_MID_R1*
X51230000Y-30080000D02*
X51230000Y-30801000D01*
X51230000Y-30080000D02*
X55270000Y-30080000D01*
X51230000Y-32199000D02*
X51230000Y-32920000D01*
X51230000Y-32920000D02*
X55270000Y-32920000D01*
X55270000Y-30080000D02*
X55270000Y-30801000D01*
X55270000Y-32199000D02*
X55270000Y-32920000D01*
G04 #@! TO.C,R_PULL_R*
X72620000Y-28580000D02*
X76460000Y-28580000D01*
X72620000Y-30420000D02*
X76460000Y-30420000D01*
G04 #@! TO.C,RV5*
X67630000Y-3090000D02*
X67630000Y-30000D01*
X67630000Y-11620000D02*
X67630000Y-6900000D01*
X68810000Y-11620000D02*
X67630000Y-11620000D01*
X71710000Y-11620000D02*
X71180000Y-11620000D01*
X74160000Y-11620000D02*
X73330000Y-11620000D01*
X77370000Y-30000D02*
X67630000Y-30000D01*
X77370000Y-3090000D02*
X77370000Y-30000D01*
X77370000Y-11620000D02*
X75880000Y-11620000D01*
X77370000Y-11620000D02*
X77370000Y-6900000D01*
G04 #@! TO.C,R_STAB_L*
X7620000Y-24580000D02*
X11460000Y-24580000D01*
X7620000Y-26420000D02*
X11460000Y-26420000D01*
G04 #@! TO.C,U1*
X41350000Y-20670000D02*
X41350000Y-38570000D01*
X41350000Y-38570000D02*
X46650000Y-38570000D01*
X43000000Y-20670000D02*
X41350000Y-20670000D01*
X46650000Y-20670000D02*
X45000000Y-20670000D01*
X46650000Y-38570000D02*
X46650000Y-20670000D01*
X45000000Y-20670000D02*
G75*
G02*
X43000000Y-20670000I-1000000J0D01*
G01*
G04 #@! TO.C,C_IN_R*
X71230000Y-32080000D02*
X71230000Y-32801000D01*
X71230000Y-32080000D02*
X75270000Y-32080000D01*
X71230000Y-34199000D02*
X71230000Y-34920000D01*
X71230000Y-34920000D02*
X75270000Y-34920000D01*
X75270000Y-32080000D02*
X75270000Y-32801000D01*
X75270000Y-34199000D02*
X75270000Y-34920000D01*
G04 #@! TO.C,R_GND_L*
X16620000Y-34080000D02*
X20460000Y-34080000D01*
X16620000Y-35920000D02*
X20460000Y-35920000D01*
G04 #@! TO.C,R_IN_EQ_R*
X62620000Y-23580000D02*
X66460000Y-23580000D01*
X62620000Y-25420000D02*
X66460000Y-25420000D01*
G04 #@! TO.C,R_FB_EQ_R*
X62620000Y-27080000D02*
X66460000Y-27080000D01*
X62620000Y-28920000D02*
X66460000Y-28920000D01*
G04 #@! TO.C,RV1*
X11630000Y-3090000D02*
X11630000Y-30000D01*
X11630000Y-11620000D02*
X11630000Y-6900000D01*
X12810000Y-11620000D02*
X11630000Y-11620000D01*
X15710000Y-11620000D02*
X15180000Y-11620000D01*
X18160000Y-11620000D02*
X17330000Y-11620000D01*
X21370000Y-30000D02*
X11630000Y-30000D01*
X21370000Y-3090000D02*
X21370000Y-30000D01*
X21370000Y-11620000D02*
X19880000Y-11620000D01*
X21370000Y-11620000D02*
X21370000Y-6900000D01*
D11*
G04 #@! TO.C,J2*
X63200000Y-41300000D02*
X75000000Y-41300000D01*
X63200000Y-43700000D02*
X63200000Y-41300000D01*
X63200000Y-55800000D02*
X63200000Y-48050000D01*
X66300000Y-55800000D02*
X66300000Y-59400000D01*
X66300000Y-59400000D02*
X72500000Y-59400000D01*
X72500000Y-59400000D02*
X72500000Y-55800000D01*
X75000000Y-41300000D02*
X75000000Y-41400000D01*
X75000000Y-44000000D02*
X75000000Y-47750000D01*
X75000000Y-52250000D02*
X75000000Y-55800000D01*
X75000000Y-55800000D02*
X63200000Y-55800000D01*
D12*
X75500000Y-50000000D02*
X76050000Y-50500000D01*
X76050000Y-49500000D02*
X75500000Y-50000000D01*
X76050000Y-50500000D02*
X76050000Y-49500000D01*
G04 #@! TO.C,R_BIAS2*
X45620000Y-41080000D02*
X49460000Y-41080000D01*
X45620000Y-42920000D02*
X49460000Y-42920000D01*
G04 #@! TO.C,C_TREB_R2*
X51230000Y-23080000D02*
X51230000Y-23801000D01*
X51230000Y-23080000D02*
X55270000Y-23080000D01*
X51230000Y-25199000D02*
X51230000Y-25920000D01*
X51230000Y-25920000D02*
X55270000Y-25920000D01*
X55270000Y-23080000D02*
X55270000Y-23801000D01*
X55270000Y-25199000D02*
X55270000Y-25920000D01*
G04 #@! TO.C,R_FB_EQ_L*
X16620000Y-27080000D02*
X20460000Y-27080000D01*
X16620000Y-28920000D02*
X20460000Y-28920000D01*
G04 #@! TO.C,R_BASS_R*
X72620000Y-36580000D02*
X76460000Y-36580000D01*
X72620000Y-38420000D02*
X76460000Y-38420000D01*
G04 #@! TO.C,J3*
X42620000Y-52620000D02*
X44000000Y-52620000D01*
X42620000Y-54000000D02*
X42620000Y-52620000D01*
X42620000Y-55270000D02*
X42620000Y-57920000D01*
X42620000Y-55270000D02*
X45380000Y-55270000D01*
X42620000Y-57920000D02*
X45380000Y-57920000D01*
X45380000Y-55270000D02*
X45380000Y-57920000D01*
G04 #@! TO.C,C_TREB_L2*
X25230000Y-23080000D02*
X25230000Y-23801000D01*
X25230000Y-23080000D02*
X29270000Y-23080000D01*
X25230000Y-25199000D02*
X25230000Y-25920000D01*
X25230000Y-25920000D02*
X29270000Y-25920000D01*
X29270000Y-23080000D02*
X29270000Y-23801000D01*
X29270000Y-25199000D02*
X29270000Y-25920000D01*
G04 #@! TO.C,C_OUT_L*
X5195225Y-19525000D02*
X5695225Y-19525000D01*
X5445225Y-19275000D02*
X5445225Y-19775000D01*
X8000000Y-18420000D02*
X8000000Y-19960000D01*
X8000000Y-22040000D02*
X8000000Y-23580000D01*
X8040000Y-18420000D02*
X8040000Y-19960000D01*
X8040000Y-22040000D02*
X8040000Y-23580000D01*
X8080000Y-18421000D02*
X8080000Y-19960000D01*
X8080000Y-22040000D02*
X8080000Y-23579000D01*
X8120000Y-18423000D02*
X8120000Y-19960000D01*
X8120000Y-22040000D02*
X8120000Y-23577000D01*
X8160000Y-18425000D02*
X8160000Y-19960000D01*
X8160000Y-22040000D02*
X8160000Y-23575000D01*
X8200000Y-18428000D02*
X8200000Y-19960000D01*
X8200000Y-22040000D02*
X8200000Y-23572000D01*
X8240000Y-18431000D02*
X8240000Y-19960000D01*
X8240000Y-22040000D02*
X8240000Y-23569000D01*
X8280000Y-18435000D02*
X8280000Y-19960000D01*
X8280000Y-22040000D02*
X8280000Y-23565000D01*
X8320000Y-18440000D02*
X8320000Y-19960000D01*
X8320000Y-22040000D02*
X8320000Y-23560000D01*
X8360000Y-18445000D02*
X8360000Y-19960000D01*
X8360000Y-22040000D02*
X8360000Y-23555000D01*
X8400000Y-18451000D02*
X8400000Y-19960000D01*
X8400000Y-22040000D02*
X8400000Y-23549000D01*
X8440000Y-18457000D02*
X8440000Y-19960000D01*
X8440000Y-22040000D02*
X8440000Y-23543000D01*
X8480000Y-18464000D02*
X8480000Y-19960000D01*
X8480000Y-22040000D02*
X8480000Y-23536000D01*
X8520000Y-18472000D02*
X8520000Y-19960000D01*
X8520000Y-22040000D02*
X8520000Y-23528000D01*
X8560000Y-18481000D02*
X8560000Y-19960000D01*
X8560000Y-22040000D02*
X8560000Y-23519000D01*
X8600000Y-18490000D02*
X8600000Y-19960000D01*
X8600000Y-22040000D02*
X8600000Y-23510000D01*
X8640000Y-18499000D02*
X8640000Y-19960000D01*
X8640000Y-22040000D02*
X8640000Y-23501000D01*
X8680000Y-18510000D02*
X8680000Y-19960000D01*
X8680000Y-22040000D02*
X8680000Y-23490000D01*
X8720000Y-18521000D02*
X8720000Y-19960000D01*
X8720000Y-22040000D02*
X8720000Y-23479000D01*
X8760000Y-18533000D02*
X8760000Y-19960000D01*
X8760000Y-22040000D02*
X8760000Y-23467000D01*
X8800000Y-18545000D02*
X8800000Y-19960000D01*
X8800000Y-22040000D02*
X8800000Y-23455000D01*
X8840000Y-18558000D02*
X8840000Y-19960000D01*
X8840000Y-22040000D02*
X8840000Y-23442000D01*
X8880000Y-18572000D02*
X8880000Y-19960000D01*
X8880000Y-22040000D02*
X8880000Y-23428000D01*
X8920000Y-18587000D02*
X8920000Y-19960000D01*
X8920000Y-22040000D02*
X8920000Y-23413000D01*
X8960000Y-18602000D02*
X8960000Y-19960000D01*
X8960000Y-22040000D02*
X8960000Y-23398000D01*
X9000000Y-18618000D02*
X9000000Y-19960000D01*
X9000000Y-22040000D02*
X9000000Y-23382000D01*
X9040000Y-18635000D02*
X9040000Y-19960000D01*
X9040000Y-22040000D02*
X9040000Y-23365000D01*
X9080000Y-18653000D02*
X9080000Y-19960000D01*
X9080000Y-22040000D02*
X9080000Y-23347000D01*
X9120000Y-18671000D02*
X9120000Y-19960000D01*
X9120000Y-22040000D02*
X9120000Y-23329000D01*
X9160000Y-18691000D02*
X9160000Y-19960000D01*
X9160000Y-22040000D02*
X9160000Y-23309000D01*
X9200000Y-18711000D02*
X9200000Y-19960000D01*
X9200000Y-22040000D02*
X9200000Y-23289000D01*
X9240000Y-18732000D02*
X9240000Y-19960000D01*
X9240000Y-22040000D02*
X9240000Y-23268000D01*
X9280000Y-18754000D02*
X9280000Y-19960000D01*
X9280000Y-22040000D02*
X9280000Y-23246000D01*
X9320000Y-18777000D02*
X9320000Y-19960000D01*
X9320000Y-22040000D02*
X9320000Y-23223000D01*
X9360000Y-18801000D02*
X9360000Y-19960000D01*
X9360000Y-22040000D02*
X9360000Y-23199000D01*
X9400000Y-18825000D02*
X9400000Y-19960000D01*
X9400000Y-22040000D02*
X9400000Y-23175000D01*
X9440000Y-18851000D02*
X9440000Y-19960000D01*
X9440000Y-22040000D02*
X9440000Y-23149000D01*
X9480000Y-18878000D02*
X9480000Y-19960000D01*
X9480000Y-22040000D02*
X9480000Y-23122000D01*
X9520000Y-18906000D02*
X9520000Y-19960000D01*
X9520000Y-22040000D02*
X9520000Y-23094000D01*
X9560000Y-18935000D02*
X9560000Y-19960000D01*
X9560000Y-22040000D02*
X9560000Y-23065000D01*
X9600000Y-18965000D02*
X9600000Y-19960000D01*
X9600000Y-22040000D02*
X9600000Y-23035000D01*
X9640000Y-18997000D02*
X9640000Y-19960000D01*
X9640000Y-22040000D02*
X9640000Y-23003000D01*
X9680000Y-19030000D02*
X9680000Y-19960000D01*
X9680000Y-22040000D02*
X9680000Y-22970000D01*
X9720000Y-19064000D02*
X9720000Y-19960000D01*
X9720000Y-22040000D02*
X9720000Y-22936000D01*
X9760000Y-19099000D02*
X9760000Y-19960000D01*
X9760000Y-22040000D02*
X9760000Y-22901000D01*
X9800000Y-19136000D02*
X9800000Y-19960000D01*
X9800000Y-22040000D02*
X9800000Y-22864000D01*
X9840000Y-19175000D02*
X9840000Y-19960000D01*
X9840000Y-22040000D02*
X9840000Y-22825000D01*
X9880000Y-19215000D02*
X9880000Y-19960000D01*
X9880000Y-22040000D02*
X9880000Y-22785000D01*
X9920000Y-19257000D02*
X9920000Y-19960000D01*
X9920000Y-22040000D02*
X9920000Y-22743000D01*
X9960000Y-19301000D02*
X9960000Y-19960000D01*
X9960000Y-22040000D02*
X9960000Y-22699000D01*
X10000000Y-19348000D02*
X10000000Y-19960000D01*
X10000000Y-22040000D02*
X10000000Y-22652000D01*
X10040000Y-19396000D02*
X10040000Y-22604000D01*
X10080000Y-19447000D02*
X10080000Y-22553000D01*
X10120000Y-19501000D02*
X10120000Y-22499000D01*
X10160000Y-19557000D02*
X10160000Y-22443000D01*
X10200000Y-19617000D02*
X10200000Y-22383000D01*
X10240000Y-19681000D02*
X10240000Y-22319000D01*
X10280000Y-19749000D02*
X10280000Y-22251000D01*
X10320000Y-19823000D02*
X10320000Y-22177000D01*
X10360000Y-19902000D02*
X10360000Y-22098000D01*
X10400000Y-19989000D02*
X10400000Y-22011000D01*
X10440000Y-20086000D02*
X10440000Y-21914000D01*
X10480000Y-20195000D02*
X10480000Y-21805000D01*
X10520000Y-20323000D02*
X10520000Y-21677000D01*
X10560000Y-20483000D02*
X10560000Y-21517000D01*
X10600000Y-20717000D02*
X10600000Y-21283000D01*
X10620000Y-21000000D02*
G75*
G02*
X5380000Y-21000000I-2620000J0D01*
G01*
X5380000Y-21000000D02*
G75*
G02*
X10620000Y-21000000I2620000J0D01*
G01*
G04 #@! TO.C,RV4*
X53630000Y-3090000D02*
X53630000Y-30000D01*
X53630000Y-11620000D02*
X53630000Y-6900000D01*
X54810000Y-11620000D02*
X53630000Y-11620000D01*
X57710000Y-11620000D02*
X57180000Y-11620000D01*
X60160000Y-11620000D02*
X59330000Y-11620000D01*
X63370000Y-30000D02*
X53630000Y-30000D01*
X63370000Y-3090000D02*
X63370000Y-30000D01*
X63370000Y-11620000D02*
X61880000Y-11620000D01*
X63370000Y-11620000D02*
X63370000Y-6900000D01*
G04 #@! TO.C,R_TREB_R*
X52620000Y-27080000D02*
X56460000Y-27080000D01*
X52620000Y-28920000D02*
X56460000Y-28920000D01*
G04 #@! TO.C,C_BIAS1*
X34195225Y-45525000D02*
X34695225Y-45525000D01*
X34445225Y-45275000D02*
X34445225Y-45775000D01*
X37000000Y-44420000D02*
X37000000Y-45960000D01*
X37000000Y-48040000D02*
X37000000Y-49580000D01*
X37040000Y-44420000D02*
X37040000Y-45960000D01*
X37040000Y-48040000D02*
X37040000Y-49580000D01*
X37080000Y-44421000D02*
X37080000Y-45960000D01*
X37080000Y-48040000D02*
X37080000Y-49579000D01*
X37120000Y-44423000D02*
X37120000Y-45960000D01*
X37120000Y-48040000D02*
X37120000Y-49577000D01*
X37160000Y-44425000D02*
X37160000Y-45960000D01*
X37160000Y-48040000D02*
X37160000Y-49575000D01*
X37200000Y-44428000D02*
X37200000Y-45960000D01*
X37200000Y-48040000D02*
X37200000Y-49572000D01*
X37240000Y-44431000D02*
X37240000Y-45960000D01*
X37240000Y-48040000D02*
X37240000Y-49569000D01*
X37280000Y-44435000D02*
X37280000Y-45960000D01*
X37280000Y-48040000D02*
X37280000Y-49565000D01*
X37320000Y-44440000D02*
X37320000Y-45960000D01*
X37320000Y-48040000D02*
X37320000Y-49560000D01*
X37360000Y-44445000D02*
X37360000Y-45960000D01*
X37360000Y-48040000D02*
X37360000Y-49555000D01*
X37400000Y-44451000D02*
X37400000Y-45960000D01*
X37400000Y-48040000D02*
X37400000Y-49549000D01*
X37440000Y-44457000D02*
X37440000Y-45960000D01*
X37440000Y-48040000D02*
X37440000Y-49543000D01*
X37480000Y-44464000D02*
X37480000Y-45960000D01*
X37480000Y-48040000D02*
X37480000Y-49536000D01*
X37520000Y-44472000D02*
X37520000Y-45960000D01*
X37520000Y-48040000D02*
X37520000Y-49528000D01*
X37560000Y-44481000D02*
X37560000Y-45960000D01*
X37560000Y-48040000D02*
X37560000Y-49519000D01*
X37600000Y-44490000D02*
X37600000Y-45960000D01*
X37600000Y-48040000D02*
X37600000Y-49510000D01*
X37640000Y-44499000D02*
X37640000Y-45960000D01*
X37640000Y-48040000D02*
X37640000Y-49501000D01*
X37680000Y-44510000D02*
X37680000Y-45960000D01*
X37680000Y-48040000D02*
X37680000Y-49490000D01*
X37720000Y-44521000D02*
X37720000Y-45960000D01*
X37720000Y-48040000D02*
X37720000Y-49479000D01*
X37760000Y-44533000D02*
X37760000Y-45960000D01*
X37760000Y-48040000D02*
X37760000Y-49467000D01*
X37800000Y-44545000D02*
X37800000Y-45960000D01*
X37800000Y-48040000D02*
X37800000Y-49455000D01*
X37840000Y-44558000D02*
X37840000Y-45960000D01*
X37840000Y-48040000D02*
X37840000Y-49442000D01*
X37880000Y-44572000D02*
X37880000Y-45960000D01*
X37880000Y-48040000D02*
X37880000Y-49428000D01*
X37920000Y-44587000D02*
X37920000Y-45960000D01*
X37920000Y-48040000D02*
X37920000Y-49413000D01*
X37960000Y-44602000D02*
X37960000Y-45960000D01*
X37960000Y-48040000D02*
X37960000Y-49398000D01*
X38000000Y-44618000D02*
X38000000Y-45960000D01*
X38000000Y-48040000D02*
X38000000Y-49382000D01*
X38040000Y-44635000D02*
X38040000Y-45960000D01*
X38040000Y-48040000D02*
X38040000Y-49365000D01*
X38080000Y-44653000D02*
X38080000Y-45960000D01*
X38080000Y-48040000D02*
X38080000Y-49347000D01*
X38120000Y-44671000D02*
X38120000Y-45960000D01*
X38120000Y-48040000D02*
X38120000Y-49329000D01*
X38160000Y-44691000D02*
X38160000Y-45960000D01*
X38160000Y-48040000D02*
X38160000Y-49309000D01*
X38200000Y-44711000D02*
X38200000Y-45960000D01*
X38200000Y-48040000D02*
X38200000Y-49289000D01*
X38240000Y-44732000D02*
X38240000Y-45960000D01*
X38240000Y-48040000D02*
X38240000Y-49268000D01*
X38280000Y-44754000D02*
X38280000Y-45960000D01*
X38280000Y-48040000D02*
X38280000Y-49246000D01*
X38320000Y-44777000D02*
X38320000Y-45960000D01*
X38320000Y-48040000D02*
X38320000Y-49223000D01*
X38360000Y-44801000D02*
X38360000Y-45960000D01*
X38360000Y-48040000D02*
X38360000Y-49199000D01*
X38400000Y-44825000D02*
X38400000Y-45960000D01*
X38400000Y-48040000D02*
X38400000Y-49175000D01*
X38440000Y-44851000D02*
X38440000Y-45960000D01*
X38440000Y-48040000D02*
X38440000Y-49149000D01*
X38480000Y-44878000D02*
X38480000Y-45960000D01*
X38480000Y-48040000D02*
X38480000Y-49122000D01*
X38520000Y-44906000D02*
X38520000Y-45960000D01*
X38520000Y-48040000D02*
X38520000Y-49094000D01*
X38560000Y-44935000D02*
X38560000Y-45960000D01*
X38560000Y-48040000D02*
X38560000Y-49065000D01*
X38600000Y-44965000D02*
X38600000Y-45960000D01*
X38600000Y-48040000D02*
X38600000Y-49035000D01*
X38640000Y-44997000D02*
X38640000Y-45960000D01*
X38640000Y-48040000D02*
X38640000Y-49003000D01*
X38680000Y-45030000D02*
X38680000Y-45960000D01*
X38680000Y-48040000D02*
X38680000Y-48970000D01*
X38720000Y-45064000D02*
X38720000Y-45960000D01*
X38720000Y-48040000D02*
X38720000Y-48936000D01*
X38760000Y-45099000D02*
X38760000Y-45960000D01*
X38760000Y-48040000D02*
X38760000Y-48901000D01*
X38800000Y-45136000D02*
X38800000Y-45960000D01*
X38800000Y-48040000D02*
X38800000Y-48864000D01*
X38840000Y-45175000D02*
X38840000Y-45960000D01*
X38840000Y-48040000D02*
X38840000Y-48825000D01*
X38880000Y-45215000D02*
X38880000Y-45960000D01*
X38880000Y-48040000D02*
X38880000Y-48785000D01*
X38920000Y-45257000D02*
X38920000Y-45960000D01*
X38920000Y-48040000D02*
X38920000Y-48743000D01*
X38960000Y-45301000D02*
X38960000Y-45960000D01*
X38960000Y-48040000D02*
X38960000Y-48699000D01*
X39000000Y-45348000D02*
X39000000Y-45960000D01*
X39000000Y-48040000D02*
X39000000Y-48652000D01*
X39040000Y-45396000D02*
X39040000Y-48604000D01*
X39080000Y-45447000D02*
X39080000Y-48553000D01*
X39120000Y-45501000D02*
X39120000Y-48499000D01*
X39160000Y-45557000D02*
X39160000Y-48443000D01*
X39200000Y-45617000D02*
X39200000Y-48383000D01*
X39240000Y-45681000D02*
X39240000Y-48319000D01*
X39280000Y-45749000D02*
X39280000Y-48251000D01*
X39320000Y-45823000D02*
X39320000Y-48177000D01*
X39360000Y-45902000D02*
X39360000Y-48098000D01*
X39400000Y-45989000D02*
X39400000Y-48011000D01*
X39440000Y-46086000D02*
X39440000Y-47914000D01*
X39480000Y-46195000D02*
X39480000Y-47805000D01*
X39520000Y-46323000D02*
X39520000Y-47677000D01*
X39560000Y-46483000D02*
X39560000Y-47517000D01*
X39600000Y-46717000D02*
X39600000Y-47283000D01*
X39620000Y-47000000D02*
G75*
G02*
X34380000Y-47000000I-2620000J0D01*
G01*
X34380000Y-47000000D02*
G75*
G02*
X39620000Y-47000000I2620000J0D01*
G01*
G04 #@! TO.C,R_FB_R*
X62620000Y-30580000D02*
X66460000Y-30580000D01*
X62620000Y-32420000D02*
X66460000Y-32420000D01*
G04 #@! TO.C,R_PWR*
X28620000Y-53080000D02*
X32460000Y-53080000D01*
X28620000Y-54920000D02*
X32460000Y-54920000D01*
G04 #@! TO.C,D1*
X35710000Y-52764000D02*
X35710000Y-52920000D01*
X35710000Y-55080000D02*
X35710000Y-55236000D01*
X35710000Y-52764484D02*
G75*
G02*
X38941437Y-52920000I1560000J-1235516D01*
G01*
X36229039Y-52920000D02*
G75*
G02*
X38310961Y-52920000I1040961J-1080000D01*
G01*
X38310961Y-55080000D02*
G75*
G02*
X36229039Y-55080000I-1040961J1080000D01*
G01*
X38941437Y-55080000D02*
G75*
G02*
X35710000Y-55235516I-1671437J1080000D01*
G01*
G04 #@! TO.C,R_PULL_L*
X7620000Y-28580000D02*
X11460000Y-28580000D01*
X7620000Y-30420000D02*
X11460000Y-30420000D01*
G04 #@! TO.C,C_TREB_R1*
X51230000Y-19580000D02*
X51230000Y-20301000D01*
X51230000Y-19580000D02*
X55270000Y-19580000D01*
X51230000Y-21699000D02*
X51230000Y-22420000D01*
X51230000Y-22420000D02*
X55270000Y-22420000D01*
X55270000Y-19580000D02*
X55270000Y-20301000D01*
X55270000Y-21699000D02*
X55270000Y-22420000D01*
G04 #@! TO.C,C_BASS_R1*
X51230000Y-33580000D02*
X51230000Y-34301000D01*
X51230000Y-33580000D02*
X55270000Y-33580000D01*
X51230000Y-35699000D02*
X51230000Y-36420000D01*
X51230000Y-36420000D02*
X55270000Y-36420000D01*
X55270000Y-33580000D02*
X55270000Y-34301000D01*
X55270000Y-35699000D02*
X55270000Y-36420000D01*
G04 #@! TO.C,R_BASS_L*
X7620000Y-36580000D02*
X11460000Y-36580000D01*
X7620000Y-38420000D02*
X11460000Y-38420000D01*
G04 #@! TO.C,R_TREB_L*
X26620000Y-27080000D02*
X30460000Y-27080000D01*
X26620000Y-28920000D02*
X30460000Y-28920000D01*
G04 #@! TO.C,RV3*
X39630000Y-3090000D02*
X39630000Y-30000D01*
X39630000Y-11620000D02*
X39630000Y-6900000D01*
X40810000Y-11620000D02*
X39630000Y-11620000D01*
X43710000Y-11620000D02*
X43180000Y-11620000D01*
X46160000Y-11620000D02*
X45330000Y-11620000D01*
X49370000Y-30000D02*
X39630000Y-30000D01*
X49370000Y-3090000D02*
X49370000Y-30000D01*
X49370000Y-11620000D02*
X47880000Y-11620000D01*
X49370000Y-11620000D02*
X49370000Y-6900000D01*
G04 #@! TO.C,R_GND_R*
X62620000Y-34080000D02*
X66460000Y-34080000D01*
X62620000Y-35920000D02*
X66460000Y-35920000D01*
D11*
G04 #@! TO.C,J1*
X9200000Y-41300000D02*
X21000000Y-41300000D01*
X9200000Y-43700000D02*
X9200000Y-41300000D01*
X9200000Y-55800000D02*
X9200000Y-48050000D01*
X12300000Y-55800000D02*
X12300000Y-59400000D01*
X12300000Y-59400000D02*
X18500000Y-59400000D01*
X18500000Y-59400000D02*
X18500000Y-55800000D01*
X21000000Y-41300000D02*
X21000000Y-41400000D01*
X21000000Y-44000000D02*
X21000000Y-47750000D01*
X21000000Y-52250000D02*
X21000000Y-55800000D01*
X21000000Y-55800000D02*
X9200000Y-55800000D01*
D12*
X21500000Y-50000000D02*
X22050000Y-50500000D01*
X22050000Y-49500000D02*
X21500000Y-50000000D01*
X22050000Y-50500000D02*
X22050000Y-49500000D01*
G04 #@! TO.C,C_OUT_R*
X70195225Y-19525000D02*
X70695225Y-19525000D01*
X70445225Y-19275000D02*
X70445225Y-19775000D01*
X73000000Y-18420000D02*
X73000000Y-19960000D01*
X73000000Y-22040000D02*
X73000000Y-23580000D01*
X73040000Y-18420000D02*
X73040000Y-19960000D01*
X73040000Y-22040000D02*
X73040000Y-23580000D01*
X73080000Y-18421000D02*
X73080000Y-19960000D01*
X73080000Y-22040000D02*
X73080000Y-23579000D01*
X73120000Y-18423000D02*
X73120000Y-19960000D01*
X73120000Y-22040000D02*
X73120000Y-23577000D01*
X73160000Y-18425000D02*
X73160000Y-19960000D01*
X73160000Y-22040000D02*
X73160000Y-23575000D01*
X73200000Y-18428000D02*
X73200000Y-19960000D01*
X73200000Y-22040000D02*
X73200000Y-23572000D01*
X73240000Y-18431000D02*
X73240000Y-19960000D01*
X73240000Y-22040000D02*
X73240000Y-23569000D01*
X73280000Y-18435000D02*
X73280000Y-19960000D01*
X73280000Y-22040000D02*
X73280000Y-23565000D01*
X73320000Y-18440000D02*
X73320000Y-19960000D01*
X73320000Y-22040000D02*
X73320000Y-23560000D01*
X73360000Y-18445000D02*
X73360000Y-19960000D01*
X73360000Y-22040000D02*
X73360000Y-23555000D01*
X73400000Y-18451000D02*
X73400000Y-19960000D01*
X73400000Y-22040000D02*
X73400000Y-23549000D01*
X73440000Y-18457000D02*
X73440000Y-19960000D01*
X73440000Y-22040000D02*
X73440000Y-23543000D01*
X73480000Y-18464000D02*
X73480000Y-19960000D01*
X73480000Y-22040000D02*
X73480000Y-23536000D01*
X73520000Y-18472000D02*
X73520000Y-19960000D01*
X73520000Y-22040000D02*
X73520000Y-23528000D01*
X73560000Y-18481000D02*
X73560000Y-19960000D01*
X73560000Y-22040000D02*
X73560000Y-23519000D01*
X73600000Y-18490000D02*
X73600000Y-19960000D01*
X73600000Y-22040000D02*
X73600000Y-23510000D01*
X73640000Y-18499000D02*
X73640000Y-19960000D01*
X73640000Y-22040000D02*
X73640000Y-23501000D01*
X73680000Y-18510000D02*
X73680000Y-19960000D01*
X73680000Y-22040000D02*
X73680000Y-23490000D01*
X73720000Y-18521000D02*
X73720000Y-19960000D01*
X73720000Y-22040000D02*
X73720000Y-23479000D01*
X73760000Y-18533000D02*
X73760000Y-19960000D01*
X73760000Y-22040000D02*
X73760000Y-23467000D01*
X73800000Y-18545000D02*
X73800000Y-19960000D01*
X73800000Y-22040000D02*
X73800000Y-23455000D01*
X73840000Y-18558000D02*
X73840000Y-19960000D01*
X73840000Y-22040000D02*
X73840000Y-23442000D01*
X73880000Y-18572000D02*
X73880000Y-19960000D01*
X73880000Y-22040000D02*
X73880000Y-23428000D01*
X73920000Y-18587000D02*
X73920000Y-19960000D01*
X73920000Y-22040000D02*
X73920000Y-23413000D01*
X73960000Y-18602000D02*
X73960000Y-19960000D01*
X73960000Y-22040000D02*
X73960000Y-23398000D01*
X74000000Y-18618000D02*
X74000000Y-19960000D01*
X74000000Y-22040000D02*
X74000000Y-23382000D01*
X74040000Y-18635000D02*
X74040000Y-19960000D01*
X74040000Y-22040000D02*
X74040000Y-23365000D01*
X74080000Y-18653000D02*
X74080000Y-19960000D01*
X74080000Y-22040000D02*
X74080000Y-23347000D01*
X74120000Y-18671000D02*
X74120000Y-19960000D01*
X74120000Y-22040000D02*
X74120000Y-23329000D01*
X74160000Y-18691000D02*
X74160000Y-19960000D01*
X74160000Y-22040000D02*
X74160000Y-23309000D01*
X74200000Y-18711000D02*
X74200000Y-19960000D01*
X74200000Y-22040000D02*
X74200000Y-23289000D01*
X74240000Y-18732000D02*
X74240000Y-19960000D01*
X74240000Y-22040000D02*
X74240000Y-23268000D01*
X74280000Y-18754000D02*
X74280000Y-19960000D01*
X74280000Y-22040000D02*
X74280000Y-23246000D01*
X74320000Y-18777000D02*
X74320000Y-19960000D01*
X74320000Y-22040000D02*
X74320000Y-23223000D01*
X74360000Y-18801000D02*
X74360000Y-19960000D01*
X74360000Y-22040000D02*
X74360000Y-23199000D01*
X74400000Y-18825000D02*
X74400000Y-19960000D01*
X74400000Y-22040000D02*
X74400000Y-23175000D01*
X74440000Y-18851000D02*
X74440000Y-19960000D01*
X74440000Y-22040000D02*
X74440000Y-23149000D01*
X74480000Y-18878000D02*
X74480000Y-19960000D01*
X74480000Y-22040000D02*
X74480000Y-23122000D01*
X74520000Y-18906000D02*
X74520000Y-19960000D01*
X74520000Y-22040000D02*
X74520000Y-23094000D01*
X74560000Y-18935000D02*
X74560000Y-19960000D01*
X74560000Y-22040000D02*
X74560000Y-23065000D01*
X74600000Y-18965000D02*
X74600000Y-19960000D01*
X74600000Y-22040000D02*
X74600000Y-23035000D01*
X74640000Y-18997000D02*
X74640000Y-19960000D01*
X74640000Y-22040000D02*
X74640000Y-23003000D01*
X74680000Y-19030000D02*
X74680000Y-19960000D01*
X74680000Y-22040000D02*
X74680000Y-22970000D01*
X74720000Y-19064000D02*
X74720000Y-19960000D01*
X74720000Y-22040000D02*
X74720000Y-22936000D01*
X74760000Y-19099000D02*
X74760000Y-19960000D01*
X74760000Y-22040000D02*
X74760000Y-22901000D01*
X74800000Y-19136000D02*
X74800000Y-19960000D01*
X74800000Y-22040000D02*
X74800000Y-22864000D01*
X74840000Y-19175000D02*
X74840000Y-19960000D01*
X74840000Y-22040000D02*
X74840000Y-22825000D01*
X74880000Y-19215000D02*
X74880000Y-19960000D01*
X74880000Y-22040000D02*
X74880000Y-22785000D01*
X74920000Y-19257000D02*
X74920000Y-19960000D01*
X74920000Y-22040000D02*
X74920000Y-22743000D01*
X74960000Y-19301000D02*
X74960000Y-19960000D01*
X74960000Y-22040000D02*
X74960000Y-22699000D01*
X75000000Y-19348000D02*
X75000000Y-19960000D01*
X75000000Y-22040000D02*
X75000000Y-22652000D01*
X75040000Y-19396000D02*
X75040000Y-22604000D01*
X75080000Y-19447000D02*
X75080000Y-22553000D01*
X75120000Y-19501000D02*
X75120000Y-22499000D01*
X75160000Y-19557000D02*
X75160000Y-22443000D01*
X75200000Y-19617000D02*
X75200000Y-22383000D01*
X75240000Y-19681000D02*
X75240000Y-22319000D01*
X75280000Y-19749000D02*
X75280000Y-22251000D01*
X75320000Y-19823000D02*
X75320000Y-22177000D01*
X75360000Y-19902000D02*
X75360000Y-22098000D01*
X75400000Y-19989000D02*
X75400000Y-22011000D01*
X75440000Y-20086000D02*
X75440000Y-21914000D01*
X75480000Y-20195000D02*
X75480000Y-21805000D01*
X75520000Y-20323000D02*
X75520000Y-21677000D01*
X75560000Y-20483000D02*
X75560000Y-21517000D01*
X75600000Y-20717000D02*
X75600000Y-21283000D01*
X75620000Y-21000000D02*
G75*
G02*
X70380000Y-21000000I-2620000J0D01*
G01*
X70380000Y-21000000D02*
G75*
G02*
X75620000Y-21000000I2620000J0D01*
G01*
G04 #@! TO.C,C_TREB_L1*
X25230000Y-19580000D02*
X25230000Y-20301000D01*
X25230000Y-19580000D02*
X29270000Y-19580000D01*
X25230000Y-21699000D02*
X25230000Y-22420000D01*
X25230000Y-22420000D02*
X29270000Y-22420000D01*
X29270000Y-19580000D02*
X29270000Y-20301000D01*
X29270000Y-21699000D02*
X29270000Y-22420000D01*
G04 #@! TD*
%LPC*%
G36*
X4373513Y-54444208D02*
G01*
X4612293Y-54521793D01*
X4835998Y-54635776D01*
X5039117Y-54783350D01*
X5216650Y-54960883D01*
X5364224Y-55164002D01*
X5478207Y-55387707D01*
X5555792Y-55626487D01*
X5595068Y-55874465D01*
X5595068Y-56125535D01*
X5555792Y-56373513D01*
X5478207Y-56612293D01*
X5364224Y-56835998D01*
X5216650Y-57039117D01*
X5039117Y-57216650D01*
X4835998Y-57364224D01*
X4612293Y-57478207D01*
X4373513Y-57555792D01*
X4125535Y-57595068D01*
X3874465Y-57595068D01*
X3626487Y-57555792D01*
X3387707Y-57478207D01*
X3164002Y-57364224D01*
X2960883Y-57216650D01*
X2783350Y-57039117D01*
X2635776Y-56835998D01*
X2521793Y-56612293D01*
X2444208Y-56373513D01*
X2404932Y-56125535D01*
X2404932Y-55874465D01*
X2444208Y-55626487D01*
X2521793Y-55387707D01*
X2635776Y-55164002D01*
X2783350Y-54960883D01*
X2960883Y-54783350D01*
X3164002Y-54635776D01*
X3387707Y-54521793D01*
X3626487Y-54444208D01*
X3874465Y-54404932D01*
X4125535Y-54404932D01*
X4373513Y-54444208D01*
G37*
G36*
X84373513Y-54444208D02*
G01*
X84612293Y-54521793D01*
X84835998Y-54635776D01*
X85039117Y-54783350D01*
X85216650Y-54960883D01*
X85364224Y-55164002D01*
X85478207Y-55387707D01*
X85555792Y-55626487D01*
X85595068Y-55874465D01*
X85595068Y-56125535D01*
X85555792Y-56373513D01*
X85478207Y-56612293D01*
X85364224Y-56835998D01*
X85216650Y-57039117D01*
X85039117Y-57216650D01*
X84835998Y-57364224D01*
X84612293Y-57478207D01*
X84373513Y-57555792D01*
X84125535Y-57595068D01*
X83874465Y-57595068D01*
X83626487Y-57555792D01*
X83387707Y-57478207D01*
X83164002Y-57364224D01*
X82960883Y-57216650D01*
X82783350Y-57039117D01*
X82635776Y-56835998D01*
X82521793Y-56612293D01*
X82444208Y-56373513D01*
X82404932Y-56125535D01*
X82404932Y-55874465D01*
X82444208Y-55626487D01*
X82521793Y-55387707D01*
X82635776Y-55164002D01*
X82783350Y-54960883D01*
X82960883Y-54783350D01*
X83164002Y-54635776D01*
X83387707Y-54521793D01*
X83626487Y-54444208D01*
X83874465Y-54404932D01*
X84125535Y-54404932D01*
X84373513Y-54444208D01*
G37*
G36*
X44246742Y-55726601D02*
G01*
X44400687Y-55790367D01*
X44539234Y-55882941D01*
X44657059Y-56000766D01*
X44749633Y-56139313D01*
X44813399Y-56293258D01*
X44845907Y-56456685D01*
X44845907Y-56623315D01*
X44813399Y-56786742D01*
X44749633Y-56940687D01*
X44657059Y-57079234D01*
X44539234Y-57197059D01*
X44400687Y-57289633D01*
X44246742Y-57353399D01*
X44083315Y-57385907D01*
X43916685Y-57385907D01*
X43753258Y-57353399D01*
X43599313Y-57289633D01*
X43460766Y-57197059D01*
X43342941Y-57079234D01*
X43250367Y-56940687D01*
X43186601Y-56786742D01*
X43154093Y-56623315D01*
X43154093Y-56456685D01*
X43186601Y-56293258D01*
X43250367Y-56139313D01*
X43342941Y-56000766D01*
X43460766Y-55882941D01*
X43599313Y-55790367D01*
X43753258Y-55726601D01*
X43916685Y-55694093D01*
X44083315Y-55694093D01*
X44246742Y-55726601D01*
G37*
G36*
X16386305Y-52803391D02*
G01*
X16556790Y-52830393D01*
X16720952Y-52883733D01*
X16874748Y-52962096D01*
X17014393Y-53063553D01*
X17136447Y-53185607D01*
X17237904Y-53325252D01*
X17316267Y-53479048D01*
X17369607Y-53643210D01*
X17396609Y-53813695D01*
X17396609Y-53986305D01*
X17369607Y-54156790D01*
X17316267Y-54320952D01*
X17237904Y-54474748D01*
X17136447Y-54614393D01*
X17014393Y-54736447D01*
X16874748Y-54837904D01*
X16720952Y-54916267D01*
X16556790Y-54969607D01*
X16386305Y-54996609D01*
X16300000Y-55000000D01*
X16299219Y-55000000D01*
X14500781Y-55000000D01*
X14500000Y-55000000D01*
X14413695Y-54996609D01*
X14243210Y-54969607D01*
X14079048Y-54916267D01*
X13925252Y-54837904D01*
X13785607Y-54736447D01*
X13663553Y-54614393D01*
X13562096Y-54474748D01*
X13483733Y-54320952D01*
X13430393Y-54156790D01*
X13403391Y-53986305D01*
X13403391Y-53813695D01*
X13430393Y-53643210D01*
X13483733Y-53479048D01*
X13562096Y-53325252D01*
X13663553Y-53185607D01*
X13785607Y-53063553D01*
X13925252Y-52962096D01*
X14079048Y-52883733D01*
X14243210Y-52830393D01*
X14413695Y-52803391D01*
X14500000Y-52800000D01*
X16300000Y-52800000D01*
X16386305Y-52803391D01*
G37*
G36*
X70386305Y-52803391D02*
G01*
X70556790Y-52830393D01*
X70720952Y-52883733D01*
X70874748Y-52962096D01*
X71014393Y-53063553D01*
X71136447Y-53185607D01*
X71237904Y-53325252D01*
X71316267Y-53479048D01*
X71369607Y-53643210D01*
X71396609Y-53813695D01*
X71396609Y-53986305D01*
X71369607Y-54156790D01*
X71316267Y-54320952D01*
X71237904Y-54474748D01*
X71136447Y-54614393D01*
X71014393Y-54736447D01*
X70874748Y-54837904D01*
X70720952Y-54916267D01*
X70556790Y-54969607D01*
X70386305Y-54996609D01*
X70300000Y-55000000D01*
X70299219Y-55000000D01*
X68500781Y-55000000D01*
X68500000Y-55000000D01*
X68413695Y-54996609D01*
X68243210Y-54969607D01*
X68079048Y-54916267D01*
X67925252Y-54837904D01*
X67785607Y-54736447D01*
X67663553Y-54614393D01*
X67562096Y-54474748D01*
X67483733Y-54320952D01*
X67430393Y-54156790D01*
X67403391Y-53986305D01*
X67403391Y-53813695D01*
X67430393Y-53643210D01*
X67483733Y-53479048D01*
X67562096Y-53325252D01*
X67663553Y-53185607D01*
X67785607Y-53063553D01*
X67925252Y-52962096D01*
X68079048Y-52883733D01*
X68243210Y-52830393D01*
X68413695Y-52803391D01*
X68500000Y-52800000D01*
X70300000Y-52800000D01*
X70386305Y-52803391D01*
G37*
G36*
X36900000Y-54900000D02*
G01*
X35100000Y-54900000D01*
X35100000Y-53100000D01*
X36900000Y-53100000D01*
X36900000Y-54900000D01*
G37*
G36*
X38801256Y-53138754D02*
G01*
X38964257Y-53206271D01*
X39110954Y-53304291D01*
X39235709Y-53429046D01*
X39333729Y-53575743D01*
X39401246Y-53738744D01*
X39435666Y-53911785D01*
X39435666Y-54088215D01*
X39401246Y-54261256D01*
X39333729Y-54424257D01*
X39235709Y-54570954D01*
X39110954Y-54695709D01*
X38964257Y-54793729D01*
X38801256Y-54861246D01*
X38628215Y-54895666D01*
X38451785Y-54895666D01*
X38278744Y-54861246D01*
X38115743Y-54793729D01*
X37969046Y-54695709D01*
X37844291Y-54570954D01*
X37746271Y-54424257D01*
X37678754Y-54261256D01*
X37644334Y-54088215D01*
X37644334Y-53911785D01*
X37678754Y-53738744D01*
X37746271Y-53575743D01*
X37844291Y-53429046D01*
X37969046Y-53304291D01*
X38115743Y-53206271D01*
X38278744Y-53138754D01*
X38451785Y-53104334D01*
X38628215Y-53104334D01*
X38801256Y-53138754D01*
G37*
G36*
X44850000Y-54850000D02*
G01*
X43150000Y-54850000D01*
X43150000Y-53150000D01*
X44850000Y-53150000D01*
X44850000Y-54850000D01*
G37*
G36*
X52553231Y-53200642D02*
G01*
X52605772Y-53206738D01*
X52623723Y-53214664D01*
X52645671Y-53219030D01*
X52669166Y-53234729D01*
X52690890Y-53244321D01*
X52705726Y-53259157D01*
X52726777Y-53273223D01*
X52740842Y-53294273D01*
X52755678Y-53309109D01*
X52765269Y-53330830D01*
X52780970Y-53354329D01*
X52785335Y-53376277D01*
X52793260Y-53394224D01*
X52799352Y-53446747D01*
X52800000Y-53450000D01*
X52800000Y-54550000D01*
X52799354Y-54553243D01*
X52793261Y-54605772D01*
X52785336Y-54623719D01*
X52780970Y-54645671D01*
X52765267Y-54669171D01*
X52755678Y-54690890D01*
X52740844Y-54705723D01*
X52726777Y-54726777D01*
X52705723Y-54740844D01*
X52690890Y-54755678D01*
X52669170Y-54765267D01*
X52645671Y-54780970D01*
X52623720Y-54785336D01*
X52605775Y-54793260D01*
X52553254Y-54799352D01*
X52550000Y-54800000D01*
X51450000Y-54800000D01*
X51446758Y-54799355D01*
X51394227Y-54793261D01*
X51376278Y-54785335D01*
X51354329Y-54780970D01*
X51330830Y-54765268D01*
X51309109Y-54755678D01*
X51294273Y-54740842D01*
X51273223Y-54726777D01*
X51259157Y-54705726D01*
X51244321Y-54690890D01*
X51234729Y-54669166D01*
X51219030Y-54645671D01*
X51214664Y-54623724D01*
X51206739Y-54605775D01*
X51200644Y-54553242D01*
X51200000Y-54550000D01*
X51200000Y-53450000D01*
X51200642Y-53446770D01*
X51206738Y-53394227D01*
X51214664Y-53376274D01*
X51219030Y-53354329D01*
X51234728Y-53330835D01*
X51244321Y-53309109D01*
X51259159Y-53294270D01*
X51273223Y-53273223D01*
X51294270Y-53259159D01*
X51309109Y-53244321D01*
X51330835Y-53234727D01*
X51354329Y-53219030D01*
X51376273Y-53214665D01*
X51394224Y-53206739D01*
X51446759Y-53200644D01*
X51450000Y-53200000D01*
X52550000Y-53200000D01*
X52553231Y-53200642D01*
G37*
G36*
X54232228Y-53234448D02*
G01*
X54377117Y-53294463D01*
X54507515Y-53381592D01*
X54618408Y-53492485D01*
X54705537Y-53622883D01*
X54765552Y-53767772D01*
X54796148Y-53921586D01*
X54796148Y-54078414D01*
X54765552Y-54232228D01*
X54705537Y-54377117D01*
X54618408Y-54507515D01*
X54507515Y-54618408D01*
X54377117Y-54705537D01*
X54232228Y-54765552D01*
X54078414Y-54796148D01*
X53921586Y-54796148D01*
X53767772Y-54765552D01*
X53622883Y-54705537D01*
X53492485Y-54618408D01*
X53381592Y-54507515D01*
X53294463Y-54377117D01*
X53234448Y-54232228D01*
X53203852Y-54078414D01*
X53203852Y-53921586D01*
X53234448Y-53767772D01*
X53294463Y-53622883D01*
X53381592Y-53492485D01*
X53492485Y-53381592D01*
X53622883Y-53294463D01*
X53767772Y-53234448D01*
X53921586Y-53203852D01*
X54078414Y-53203852D01*
X54232228Y-53234448D01*
G37*
G36*
X59232228Y-53234448D02*
G01*
X59377117Y-53294463D01*
X59507515Y-53381592D01*
X59618408Y-53492485D01*
X59705537Y-53622883D01*
X59765552Y-53767772D01*
X59796148Y-53921586D01*
X59796148Y-54078414D01*
X59765552Y-54232228D01*
X59705537Y-54377117D01*
X59618408Y-54507515D01*
X59507515Y-54618408D01*
X59377117Y-54705537D01*
X59232228Y-54765552D01*
X59078414Y-54796148D01*
X58921586Y-54796148D01*
X58767772Y-54765552D01*
X58622883Y-54705537D01*
X58492485Y-54618408D01*
X58381592Y-54507515D01*
X58294463Y-54377117D01*
X58234448Y-54232228D01*
X58203852Y-54078414D01*
X58203852Y-53921586D01*
X58234448Y-53767772D01*
X58294463Y-53622883D01*
X58381592Y-53492485D01*
X58492485Y-53381592D01*
X58622883Y-53294463D01*
X58767772Y-53234448D01*
X58921586Y-53203852D01*
X59078414Y-53203852D01*
X59232228Y-53234448D01*
G37*
G36*
X61732228Y-53234448D02*
G01*
X61877117Y-53294463D01*
X62007515Y-53381592D01*
X62118408Y-53492485D01*
X62205537Y-53622883D01*
X62265552Y-53767772D01*
X62296148Y-53921586D01*
X62296148Y-54078414D01*
X62265552Y-54232228D01*
X62205537Y-54377117D01*
X62118408Y-54507515D01*
X62007515Y-54618408D01*
X61877117Y-54705537D01*
X61732228Y-54765552D01*
X61578414Y-54796148D01*
X61421586Y-54796148D01*
X61267772Y-54765552D01*
X61122883Y-54705537D01*
X60992485Y-54618408D01*
X60881592Y-54507515D01*
X60794463Y-54377117D01*
X60734448Y-54232228D01*
X60703852Y-54078414D01*
X60703852Y-53921586D01*
X60734448Y-53767772D01*
X60794463Y-53622883D01*
X60881592Y-53492485D01*
X60992485Y-53381592D01*
X61122883Y-53294463D01*
X61267772Y-53234448D01*
X61421586Y-53203852D01*
X61578414Y-53203852D01*
X61732228Y-53234448D01*
G37*
G36*
X28203199Y-53330142D02*
G01*
X28329978Y-53382655D01*
X28444075Y-53458893D01*
X28541107Y-53555925D01*
X28617345Y-53670022D01*
X28669858Y-53796801D01*
X28696629Y-53931388D01*
X28696629Y-54068612D01*
X28669858Y-54203199D01*
X28617345Y-54329978D01*
X28541107Y-54444075D01*
X28444075Y-54541107D01*
X28329978Y-54617345D01*
X28203199Y-54669858D01*
X28068612Y-54696629D01*
X27931388Y-54696629D01*
X27796801Y-54669858D01*
X27670022Y-54617345D01*
X27555925Y-54541107D01*
X27458893Y-54444075D01*
X27382655Y-54329978D01*
X27330142Y-54203199D01*
X27303371Y-54068612D01*
X27303371Y-53931388D01*
X27330142Y-53796801D01*
X27382655Y-53670022D01*
X27458893Y-53555925D01*
X27555925Y-53458893D01*
X27670022Y-53382655D01*
X27796801Y-53330142D01*
X27931388Y-53303371D01*
X28068612Y-53303371D01*
X28203199Y-53330142D01*
G37*
G36*
X33283199Y-53330142D02*
G01*
X33409978Y-53382655D01*
X33524075Y-53458893D01*
X33621107Y-53555925D01*
X33697345Y-53670022D01*
X33749858Y-53796801D01*
X33776629Y-53931388D01*
X33776629Y-54068612D01*
X33749858Y-54203199D01*
X33697345Y-54329978D01*
X33621107Y-54444075D01*
X33524075Y-54541107D01*
X33409978Y-54617345D01*
X33283199Y-54669858D01*
X33148612Y-54696629D01*
X33011388Y-54696629D01*
X32876801Y-54669858D01*
X32750022Y-54617345D01*
X32635925Y-54541107D01*
X32538893Y-54444075D01*
X32462655Y-54329978D01*
X32410142Y-54203199D01*
X32383371Y-54068612D01*
X32383371Y-53931388D01*
X32410142Y-53796801D01*
X32462655Y-53670022D01*
X32538893Y-53555925D01*
X32635925Y-53458893D01*
X32750022Y-53382655D01*
X32876801Y-53330142D01*
X33011388Y-53303371D01*
X33148612Y-53303371D01*
X33283199Y-53330142D01*
G37*
G36*
X21100000Y-52000000D02*
G01*
X18900000Y-52000000D01*
X18900000Y-48000000D01*
X21100000Y-48000000D01*
X21100000Y-52000000D01*
G37*
G36*
X75100000Y-52000000D02*
G01*
X72900000Y-52000000D01*
X72900000Y-48000000D01*
X75100000Y-48000000D01*
X75100000Y-52000000D01*
G37*
G36*
X13156790Y-45130393D02*
G01*
X13320952Y-45183733D01*
X13474748Y-45262096D01*
X13614393Y-45363553D01*
X13736447Y-45485607D01*
X13837904Y-45625252D01*
X13916267Y-45779048D01*
X13969607Y-45943210D01*
X13996609Y-46113695D01*
X14000000Y-46200000D01*
X14000000Y-48000000D01*
X13996609Y-48086305D01*
X13969607Y-48256790D01*
X13916267Y-48420952D01*
X13837904Y-48574748D01*
X13736447Y-48714393D01*
X13614393Y-48836447D01*
X13474748Y-48937904D01*
X13320952Y-49016267D01*
X13156790Y-49069607D01*
X12986305Y-49096609D01*
X12813695Y-49096609D01*
X12643210Y-49069607D01*
X12479048Y-49016267D01*
X12325252Y-48937904D01*
X12185607Y-48836447D01*
X12063553Y-48714393D01*
X11962096Y-48574748D01*
X11883733Y-48420952D01*
X11830393Y-48256790D01*
X11803391Y-48086305D01*
X11800000Y-48000000D01*
X11800000Y-46200000D01*
X11803391Y-46113695D01*
X11830393Y-45943210D01*
X11883733Y-45779048D01*
X11962096Y-45625252D01*
X12063553Y-45485607D01*
X12185607Y-45363553D01*
X12325252Y-45262096D01*
X12479048Y-45183733D01*
X12643210Y-45130393D01*
X12813695Y-45103391D01*
X12986305Y-45103391D01*
X13156790Y-45130393D01*
G37*
G36*
X67156790Y-45130393D02*
G01*
X67320952Y-45183733D01*
X67474748Y-45262096D01*
X67614393Y-45363553D01*
X67736447Y-45485607D01*
X67837904Y-45625252D01*
X67916267Y-45779048D01*
X67969607Y-45943210D01*
X67996609Y-46113695D01*
X68000000Y-46200000D01*
X68000000Y-48000000D01*
X67996609Y-48086305D01*
X67969607Y-48256790D01*
X67916267Y-48420952D01*
X67837904Y-48574748D01*
X67736447Y-48714393D01*
X67614393Y-48836447D01*
X67474748Y-48937904D01*
X67320952Y-49016267D01*
X67156790Y-49069607D01*
X66986305Y-49096609D01*
X66813695Y-49096609D01*
X66643210Y-49069607D01*
X66479048Y-49016267D01*
X66325252Y-48937904D01*
X66185607Y-48836447D01*
X66063553Y-48714393D01*
X65962096Y-48574748D01*
X65883733Y-48420952D01*
X65830393Y-48256790D01*
X65803391Y-48086305D01*
X65800000Y-48000000D01*
X65800000Y-46200000D01*
X65803391Y-46113695D01*
X65830393Y-45943210D01*
X65883733Y-45779048D01*
X65962096Y-45625252D01*
X66063553Y-45485607D01*
X66185607Y-45363553D01*
X66325252Y-45262096D01*
X66479048Y-45183733D01*
X66643210Y-45130393D01*
X66813695Y-45103391D01*
X66986305Y-45103391D01*
X67156790Y-45130393D01*
G37*
G36*
X10456790Y-43930393D02*
G01*
X10620952Y-43983733D01*
X10774748Y-44062096D01*
X10914393Y-44163553D01*
X11036447Y-44285607D01*
X11137904Y-44425252D01*
X11216267Y-44579048D01*
X11269607Y-44743210D01*
X11296609Y-44913695D01*
X11300000Y-45000000D01*
X11300000Y-46800000D01*
X11296609Y-46886305D01*
X11269607Y-47056790D01*
X11216267Y-47220952D01*
X11137904Y-47374748D01*
X11036447Y-47514393D01*
X10914393Y-47636447D01*
X10774748Y-47737904D01*
X10620952Y-47816267D01*
X10456790Y-47869607D01*
X10286305Y-47896609D01*
X10113695Y-47896609D01*
X9943210Y-47869607D01*
X9779048Y-47816267D01*
X9625252Y-47737904D01*
X9485607Y-47636447D01*
X9363553Y-47514393D01*
X9262096Y-47374748D01*
X9183733Y-47220952D01*
X9130393Y-47056790D01*
X9103391Y-46886305D01*
X9100000Y-46800000D01*
X9100000Y-45000000D01*
X9103391Y-44913695D01*
X9130393Y-44743210D01*
X9183733Y-44579048D01*
X9262096Y-44425252D01*
X9363553Y-44285607D01*
X9485607Y-44163553D01*
X9625252Y-44062096D01*
X9779048Y-43983733D01*
X9943210Y-43930393D01*
X10113695Y-43903391D01*
X10286305Y-43903391D01*
X10456790Y-43930393D01*
G37*
G36*
X64456790Y-43930393D02*
G01*
X64620952Y-43983733D01*
X64774748Y-44062096D01*
X64914393Y-44163553D01*
X65036447Y-44285607D01*
X65137904Y-44425252D01*
X65216267Y-44579048D01*
X65269607Y-44743210D01*
X65296609Y-44913695D01*
X65300000Y-45000000D01*
X65300000Y-46800000D01*
X65296609Y-46886305D01*
X65269607Y-47056790D01*
X65216267Y-47220952D01*
X65137904Y-47374748D01*
X65036447Y-47514393D01*
X64914393Y-47636447D01*
X64774748Y-47737904D01*
X64620952Y-47816267D01*
X64456790Y-47869607D01*
X64286305Y-47896609D01*
X64113695Y-47896609D01*
X63943210Y-47869607D01*
X63779048Y-47816267D01*
X63625252Y-47737904D01*
X63485607Y-47636447D01*
X63363553Y-47514393D01*
X63262096Y-47374748D01*
X63183733Y-47220952D01*
X63130393Y-47056790D01*
X63103391Y-46886305D01*
X63100000Y-46800000D01*
X63100000Y-45000000D01*
X63103391Y-44913695D01*
X63130393Y-44743210D01*
X63183733Y-44579048D01*
X63262096Y-44425252D01*
X63363553Y-44285607D01*
X63485607Y-44163553D01*
X63625252Y-44062096D01*
X63779048Y-43983733D01*
X63943210Y-43930393D01*
X64113695Y-43903391D01*
X64286305Y-43903391D01*
X64456790Y-43930393D01*
G37*
G36*
X36553231Y-46200642D02*
G01*
X36605772Y-46206738D01*
X36623723Y-46214664D01*
X36645671Y-46219030D01*
X36669166Y-46234729D01*
X36690890Y-46244321D01*
X36705726Y-46259157D01*
X36726777Y-46273223D01*
X36740842Y-46294273D01*
X36755678Y-46309109D01*
X36765269Y-46330830D01*
X36780970Y-46354329D01*
X36785335Y-46376277D01*
X36793260Y-46394224D01*
X36799352Y-46446747D01*
X36800000Y-46450000D01*
X36800000Y-47550000D01*
X36799354Y-47553243D01*
X36793261Y-47605772D01*
X36785336Y-47623719D01*
X36780970Y-47645671D01*
X36765267Y-47669171D01*
X36755678Y-47690890D01*
X36740844Y-47705723D01*
X36726777Y-47726777D01*
X36705723Y-47740844D01*
X36690890Y-47755678D01*
X36669170Y-47765267D01*
X36645671Y-47780970D01*
X36623720Y-47785336D01*
X36605775Y-47793260D01*
X36553254Y-47799352D01*
X36550000Y-47800000D01*
X35450000Y-47800000D01*
X35446758Y-47799355D01*
X35394227Y-47793261D01*
X35376278Y-47785335D01*
X35354329Y-47780970D01*
X35330830Y-47765268D01*
X35309109Y-47755678D01*
X35294273Y-47740842D01*
X35273223Y-47726777D01*
X35259157Y-47705726D01*
X35244321Y-47690890D01*
X35234729Y-47669166D01*
X35219030Y-47645671D01*
X35214664Y-47623724D01*
X35206739Y-47605775D01*
X35200644Y-47553242D01*
X35200000Y-47550000D01*
X35200000Y-46450000D01*
X35200642Y-46446770D01*
X35206738Y-46394227D01*
X35214664Y-46376274D01*
X35219030Y-46354329D01*
X35234728Y-46330835D01*
X35244321Y-46309109D01*
X35259159Y-46294270D01*
X35273223Y-46273223D01*
X35294270Y-46259159D01*
X35309109Y-46244321D01*
X35330835Y-46234727D01*
X35354329Y-46219030D01*
X35376273Y-46214665D01*
X35394224Y-46206739D01*
X35446759Y-46200644D01*
X35450000Y-46200000D01*
X36550000Y-46200000D01*
X36553231Y-46200642D01*
G37*
G36*
X38232228Y-46234448D02*
G01*
X38377117Y-46294463D01*
X38507515Y-46381592D01*
X38618408Y-46492485D01*
X38705537Y-46622883D01*
X38765552Y-46767772D01*
X38796148Y-46921586D01*
X38796148Y-47078414D01*
X38765552Y-47232228D01*
X38705537Y-47377117D01*
X38618408Y-47507515D01*
X38507515Y-47618408D01*
X38377117Y-47705537D01*
X38232228Y-47765552D01*
X38078414Y-47796148D01*
X37921586Y-47796148D01*
X37767772Y-47765552D01*
X37622883Y-47705537D01*
X37492485Y-47618408D01*
X37381592Y-47507515D01*
X37294463Y-47377117D01*
X37234448Y-47232228D01*
X37203852Y-47078414D01*
X37203852Y-46921586D01*
X37234448Y-46767772D01*
X37294463Y-46622883D01*
X37381592Y-46492485D01*
X37492485Y-46381592D01*
X37622883Y-46294463D01*
X37767772Y-46234448D01*
X37921586Y-46203852D01*
X38078414Y-46203852D01*
X38232228Y-46234448D01*
G37*
G36*
X46232228Y-46234448D02*
G01*
X46377117Y-46294463D01*
X46507515Y-46381592D01*
X46618408Y-46492485D01*
X46705537Y-46622883D01*
X46765552Y-46767772D01*
X46796148Y-46921586D01*
X46796148Y-47078414D01*
X46765552Y-47232228D01*
X46705537Y-47377117D01*
X46618408Y-47507515D01*
X46507515Y-47618408D01*
X46377117Y-47705537D01*
X46232228Y-47765552D01*
X46078414Y-47796148D01*
X45921586Y-47796148D01*
X45767772Y-47765552D01*
X45622883Y-47705537D01*
X45492485Y-47618408D01*
X45381592Y-47507515D01*
X45294463Y-47377117D01*
X45234448Y-47232228D01*
X45203852Y-47078414D01*
X45203852Y-46921586D01*
X45234448Y-46767772D01*
X45294463Y-46622883D01*
X45381592Y-46492485D01*
X45492485Y-46381592D01*
X45622883Y-46294463D01*
X45767772Y-46234448D01*
X45921586Y-46203852D01*
X46078414Y-46203852D01*
X46232228Y-46234448D01*
G37*
G36*
X48732228Y-46234448D02*
G01*
X48877117Y-46294463D01*
X49007515Y-46381592D01*
X49118408Y-46492485D01*
X49205537Y-46622883D01*
X49265552Y-46767772D01*
X49296148Y-46921586D01*
X49296148Y-47078414D01*
X49265552Y-47232228D01*
X49205537Y-47377117D01*
X49118408Y-47507515D01*
X49007515Y-47618408D01*
X48877117Y-47705537D01*
X48732228Y-47765552D01*
X48578414Y-47796148D01*
X48421586Y-47796148D01*
X48267772Y-47765552D01*
X48122883Y-47705537D01*
X47992485Y-47618408D01*
X47881592Y-47507515D01*
X47794463Y-47377117D01*
X47734448Y-47232228D01*
X47703852Y-47078414D01*
X47703852Y-46921586D01*
X47734448Y-46767772D01*
X47794463Y-46622883D01*
X47881592Y-46492485D01*
X47992485Y-46381592D01*
X48122883Y-46294463D01*
X48267772Y-46234448D01*
X48421586Y-46203852D01*
X48578414Y-46203852D01*
X48732228Y-46234448D01*
G37*
G36*
X20486305Y-41603391D02*
G01*
X20656790Y-41630393D01*
X20820952Y-41683733D01*
X20974748Y-41762096D01*
X21114393Y-41863553D01*
X21236447Y-41985607D01*
X21337904Y-42125252D01*
X21416267Y-42279048D01*
X21469607Y-42443210D01*
X21496609Y-42613695D01*
X21496609Y-42786305D01*
X21469607Y-42956790D01*
X21416267Y-43120952D01*
X21337904Y-43274748D01*
X21236447Y-43414393D01*
X21114393Y-43536447D01*
X20974748Y-43637904D01*
X20820952Y-43716267D01*
X20656790Y-43769607D01*
X20486305Y-43796609D01*
X20400000Y-43800000D01*
X20399219Y-43800000D01*
X18600781Y-43800000D01*
X18600000Y-43800000D01*
X18513695Y-43796609D01*
X18343210Y-43769607D01*
X18179048Y-43716267D01*
X18025252Y-43637904D01*
X17885607Y-43536447D01*
X17763553Y-43414393D01*
X17662096Y-43274748D01*
X17583733Y-43120952D01*
X17530393Y-42956790D01*
X17503391Y-42786305D01*
X17503391Y-42613695D01*
X17530393Y-42443210D01*
X17583733Y-42279048D01*
X17662096Y-42125252D01*
X17763553Y-41985607D01*
X17885607Y-41863553D01*
X18025252Y-41762096D01*
X18179048Y-41683733D01*
X18343210Y-41630393D01*
X18513695Y-41603391D01*
X18600000Y-41600000D01*
X20400000Y-41600000D01*
X20486305Y-41603391D01*
G37*
G36*
X74486305Y-41603391D02*
G01*
X74656790Y-41630393D01*
X74820952Y-41683733D01*
X74974748Y-41762096D01*
X75114393Y-41863553D01*
X75236447Y-41985607D01*
X75337904Y-42125252D01*
X75416267Y-42279048D01*
X75469607Y-42443210D01*
X75496609Y-42613695D01*
X75496609Y-42786305D01*
X75469607Y-42956790D01*
X75416267Y-43120952D01*
X75337904Y-43274748D01*
X75236447Y-43414393D01*
X75114393Y-43536447D01*
X74974748Y-43637904D01*
X74820952Y-43716267D01*
X74656790Y-43769607D01*
X74486305Y-43796609D01*
X74400000Y-43800000D01*
X74399219Y-43800000D01*
X72600781Y-43800000D01*
X72600000Y-43800000D01*
X72513695Y-43796609D01*
X72343210Y-43769607D01*
X72179048Y-43716267D01*
X72025252Y-43637904D01*
X71885607Y-43536447D01*
X71763553Y-43414393D01*
X71662096Y-43274748D01*
X71583733Y-43120952D01*
X71530393Y-42956790D01*
X71503391Y-42786305D01*
X71503391Y-42613695D01*
X71530393Y-42443210D01*
X71583733Y-42279048D01*
X71662096Y-42125252D01*
X71763553Y-41985607D01*
X71885607Y-41863553D01*
X72025252Y-41762096D01*
X72179048Y-41683733D01*
X72343210Y-41630393D01*
X72513695Y-41603391D01*
X72600000Y-41600000D01*
X74400000Y-41600000D01*
X74486305Y-41603391D01*
G37*
G36*
X35203199Y-41330142D02*
G01*
X35329978Y-41382655D01*
X35444075Y-41458893D01*
X35541107Y-41555925D01*
X35617345Y-41670022D01*
X35669858Y-41796801D01*
X35696629Y-41931388D01*
X35696629Y-42068612D01*
X35669858Y-42203199D01*
X35617345Y-42329978D01*
X35541107Y-42444075D01*
X35444075Y-42541107D01*
X35329978Y-42617345D01*
X35203199Y-42669858D01*
X35068612Y-42696629D01*
X34931388Y-42696629D01*
X34796801Y-42669858D01*
X34670022Y-42617345D01*
X34555925Y-42541107D01*
X34458893Y-42444075D01*
X34382655Y-42329978D01*
X34330142Y-42203199D01*
X34303371Y-42068612D01*
X34303371Y-41931388D01*
X34330142Y-41796801D01*
X34382655Y-41670022D01*
X34458893Y-41555925D01*
X34555925Y-41458893D01*
X34670022Y-41382655D01*
X34796801Y-41330142D01*
X34931388Y-41303371D01*
X35068612Y-41303371D01*
X35203199Y-41330142D01*
G37*
G36*
X40283199Y-41330142D02*
G01*
X40409978Y-41382655D01*
X40524075Y-41458893D01*
X40621107Y-41555925D01*
X40697345Y-41670022D01*
X40749858Y-41796801D01*
X40776629Y-41931388D01*
X40776629Y-42068612D01*
X40749858Y-42203199D01*
X40697345Y-42329978D01*
X40621107Y-42444075D01*
X40524075Y-42541107D01*
X40409978Y-42617345D01*
X40283199Y-42669858D01*
X40148612Y-42696629D01*
X40011388Y-42696629D01*
X39876801Y-42669858D01*
X39750022Y-42617345D01*
X39635925Y-42541107D01*
X39538893Y-42444075D01*
X39462655Y-42329978D01*
X39410142Y-42203199D01*
X39383371Y-42068612D01*
X39383371Y-41931388D01*
X39410142Y-41796801D01*
X39462655Y-41670022D01*
X39538893Y-41555925D01*
X39635925Y-41458893D01*
X39750022Y-41382655D01*
X39876801Y-41330142D01*
X40011388Y-41303371D01*
X40148612Y-41303371D01*
X40283199Y-41330142D01*
G37*
G36*
X45203199Y-41330142D02*
G01*
X45329978Y-41382655D01*
X45444075Y-41458893D01*
X45541107Y-41555925D01*
X45617345Y-41670022D01*
X45669858Y-41796801D01*
X45696629Y-41931388D01*
X45696629Y-42068612D01*
X45669858Y-42203199D01*
X45617345Y-42329978D01*
X45541107Y-42444075D01*
X45444075Y-42541107D01*
X45329978Y-42617345D01*
X45203199Y-42669858D01*
X45068612Y-42696629D01*
X44931388Y-42696629D01*
X44796801Y-42669858D01*
X44670022Y-42617345D01*
X44555925Y-42541107D01*
X44458893Y-42444075D01*
X44382655Y-42329978D01*
X44330142Y-42203199D01*
X44303371Y-42068612D01*
X44303371Y-41931388D01*
X44330142Y-41796801D01*
X44382655Y-41670022D01*
X44458893Y-41555925D01*
X44555925Y-41458893D01*
X44670022Y-41382655D01*
X44796801Y-41330142D01*
X44931388Y-41303371D01*
X45068612Y-41303371D01*
X45203199Y-41330142D01*
G37*
G36*
X50283199Y-41330142D02*
G01*
X50409978Y-41382655D01*
X50524075Y-41458893D01*
X50621107Y-41555925D01*
X50697345Y-41670022D01*
X50749858Y-41796801D01*
X50776629Y-41931388D01*
X50776629Y-42068612D01*
X50749858Y-42203199D01*
X50697345Y-42329978D01*
X50621107Y-42444075D01*
X50524075Y-42541107D01*
X50409978Y-42617345D01*
X50283199Y-42669858D01*
X50148612Y-42696629D01*
X50011388Y-42696629D01*
X49876801Y-42669858D01*
X49750022Y-42617345D01*
X49635925Y-42541107D01*
X49538893Y-42444075D01*
X49462655Y-42329978D01*
X49410142Y-42203199D01*
X49383371Y-42068612D01*
X49383371Y-41931388D01*
X49410142Y-41796801D01*
X49462655Y-41670022D01*
X49538893Y-41555925D01*
X49635925Y-41458893D01*
X49750022Y-41382655D01*
X49876801Y-41330142D01*
X50011388Y-41303371D01*
X50148612Y-41303371D01*
X50283199Y-41330142D01*
G37*
G36*
X7203199Y-36830142D02*
G01*
X7329978Y-36882655D01*
X7444075Y-36958893D01*
X7541107Y-37055925D01*
X7617345Y-37170022D01*
X7669858Y-37296801D01*
X7696629Y-37431388D01*
X7696629Y-37568612D01*
X7669858Y-37703199D01*
X7617345Y-37829978D01*
X7541107Y-37944075D01*
X7444075Y-38041107D01*
X7329978Y-38117345D01*
X7203199Y-38169858D01*
X7068612Y-38196629D01*
X6931388Y-38196629D01*
X6796801Y-38169858D01*
X6670022Y-38117345D01*
X6555925Y-38041107D01*
X6458893Y-37944075D01*
X6382655Y-37829978D01*
X6330142Y-37703199D01*
X6303371Y-37568612D01*
X6303371Y-37431388D01*
X6330142Y-37296801D01*
X6382655Y-37170022D01*
X6458893Y-37055925D01*
X6555925Y-36958893D01*
X6670022Y-36882655D01*
X6796801Y-36830142D01*
X6931388Y-36803371D01*
X7068612Y-36803371D01*
X7203199Y-36830142D01*
G37*
G36*
X12283199Y-36830142D02*
G01*
X12409978Y-36882655D01*
X12524075Y-36958893D01*
X12621107Y-37055925D01*
X12697345Y-37170022D01*
X12749858Y-37296801D01*
X12776629Y-37431388D01*
X12776629Y-37568612D01*
X12749858Y-37703199D01*
X12697345Y-37829978D01*
X12621107Y-37944075D01*
X12524075Y-38041107D01*
X12409978Y-38117345D01*
X12283199Y-38169858D01*
X12148612Y-38196629D01*
X12011388Y-38196629D01*
X11876801Y-38169858D01*
X11750022Y-38117345D01*
X11635925Y-38041107D01*
X11538893Y-37944075D01*
X11462655Y-37829978D01*
X11410142Y-37703199D01*
X11383371Y-37568612D01*
X11383371Y-37431388D01*
X11410142Y-37296801D01*
X11462655Y-37170022D01*
X11538893Y-37055925D01*
X11635925Y-36958893D01*
X11750022Y-36882655D01*
X11876801Y-36830142D01*
X12011388Y-36803371D01*
X12148612Y-36803371D01*
X12283199Y-36830142D01*
G37*
G36*
X72203199Y-36830142D02*
G01*
X72329978Y-36882655D01*
X72444075Y-36958893D01*
X72541107Y-37055925D01*
X72617345Y-37170022D01*
X72669858Y-37296801D01*
X72696629Y-37431388D01*
X72696629Y-37568612D01*
X72669858Y-37703199D01*
X72617345Y-37829978D01*
X72541107Y-37944075D01*
X72444075Y-38041107D01*
X72329978Y-38117345D01*
X72203199Y-38169858D01*
X72068612Y-38196629D01*
X71931388Y-38196629D01*
X71796801Y-38169858D01*
X71670022Y-38117345D01*
X71555925Y-38041107D01*
X71458893Y-37944075D01*
X71382655Y-37829978D01*
X71330142Y-37703199D01*
X71303371Y-37568612D01*
X71303371Y-37431388D01*
X71330142Y-37296801D01*
X71382655Y-37170022D01*
X71458893Y-37055925D01*
X71555925Y-36958893D01*
X71670022Y-36882655D01*
X71796801Y-36830142D01*
X71931388Y-36803371D01*
X72068612Y-36803371D01*
X72203199Y-36830142D01*
G37*
G36*
X77283199Y-36830142D02*
G01*
X77409978Y-36882655D01*
X77524075Y-36958893D01*
X77621107Y-37055925D01*
X77697345Y-37170022D01*
X77749858Y-37296801D01*
X77776629Y-37431388D01*
X77776629Y-37568612D01*
X77749858Y-37703199D01*
X77697345Y-37829978D01*
X77621107Y-37944075D01*
X77524075Y-38041107D01*
X77409978Y-38117345D01*
X77283199Y-38169858D01*
X77148612Y-38196629D01*
X77011388Y-38196629D01*
X76876801Y-38169858D01*
X76750022Y-38117345D01*
X76635925Y-38041107D01*
X76538893Y-37944075D01*
X76462655Y-37829978D01*
X76410142Y-37703199D01*
X76383371Y-37568612D01*
X76383371Y-37431388D01*
X76410142Y-37296801D01*
X76462655Y-37170022D01*
X76538893Y-37055925D01*
X76635925Y-36958893D01*
X76750022Y-36882655D01*
X76876801Y-36830142D01*
X77011388Y-36803371D01*
X77148612Y-36803371D01*
X77283199Y-36830142D01*
G37*
G36*
X40422228Y-36474448D02*
G01*
X40567117Y-36534463D01*
X40697515Y-36621592D01*
X40808408Y-36732485D01*
X40895537Y-36862883D01*
X40955552Y-37007772D01*
X40986148Y-37161586D01*
X40986148Y-37318414D01*
X40955552Y-37472228D01*
X40895537Y-37617117D01*
X40808408Y-37747515D01*
X40697515Y-37858408D01*
X40567117Y-37945537D01*
X40422228Y-38005552D01*
X40268414Y-38036148D01*
X40111586Y-38036148D01*
X39957772Y-38005552D01*
X39812883Y-37945537D01*
X39682485Y-37858408D01*
X39571592Y-37747515D01*
X39484463Y-37617117D01*
X39424448Y-37472228D01*
X39393852Y-37318414D01*
X39393852Y-37161586D01*
X39424448Y-37007772D01*
X39484463Y-36862883D01*
X39571592Y-36732485D01*
X39682485Y-36621592D01*
X39812883Y-36534463D01*
X39957772Y-36474448D01*
X40111586Y-36443852D01*
X40268414Y-36443852D01*
X40422228Y-36474448D01*
G37*
G36*
X48042228Y-36474448D02*
G01*
X48187117Y-36534463D01*
X48317515Y-36621592D01*
X48428408Y-36732485D01*
X48515537Y-36862883D01*
X48575552Y-37007772D01*
X48606148Y-37161586D01*
X48606148Y-37318414D01*
X48575552Y-37472228D01*
X48515537Y-37617117D01*
X48428408Y-37747515D01*
X48317515Y-37858408D01*
X48187117Y-37945537D01*
X48042228Y-38005552D01*
X47888414Y-38036148D01*
X47731586Y-38036148D01*
X47577772Y-38005552D01*
X47432883Y-37945537D01*
X47302485Y-37858408D01*
X47191592Y-37747515D01*
X47104463Y-37617117D01*
X47044448Y-37472228D01*
X47013852Y-37318414D01*
X47013852Y-37161586D01*
X47044448Y-37007772D01*
X47104463Y-36862883D01*
X47191592Y-36732485D01*
X47302485Y-36621592D01*
X47432883Y-36534463D01*
X47577772Y-36474448D01*
X47731586Y-36443852D01*
X47888414Y-36443852D01*
X48042228Y-36474448D01*
G37*
G36*
X26232228Y-34234448D02*
G01*
X26377117Y-34294463D01*
X26507515Y-34381592D01*
X26618408Y-34492485D01*
X26705537Y-34622883D01*
X26765552Y-34767772D01*
X26796148Y-34921586D01*
X26796148Y-35078414D01*
X26765552Y-35232228D01*
X26705537Y-35377117D01*
X26618408Y-35507515D01*
X26507515Y-35618408D01*
X26377117Y-35705537D01*
X26232228Y-35765552D01*
X26078414Y-35796148D01*
X25921586Y-35796148D01*
X25767772Y-35765552D01*
X25622883Y-35705537D01*
X25492485Y-35618408D01*
X25381592Y-35507515D01*
X25294463Y-35377117D01*
X25234448Y-35232228D01*
X25203852Y-35078414D01*
X25203852Y-34921586D01*
X25234448Y-34767772D01*
X25294463Y-34622883D01*
X25381592Y-34492485D01*
X25492485Y-34381592D01*
X25622883Y-34294463D01*
X25767772Y-34234448D01*
X25921586Y-34203852D01*
X26078414Y-34203852D01*
X26232228Y-34234448D01*
G37*
G36*
X28732228Y-34234448D02*
G01*
X28877117Y-34294463D01*
X29007515Y-34381592D01*
X29118408Y-34492485D01*
X29205537Y-34622883D01*
X29265552Y-34767772D01*
X29296148Y-34921586D01*
X29296148Y-35078414D01*
X29265552Y-35232228D01*
X29205537Y-35377117D01*
X29118408Y-35507515D01*
X29007515Y-35618408D01*
X28877117Y-35705537D01*
X28732228Y-35765552D01*
X28578414Y-35796148D01*
X28421586Y-35796148D01*
X28267772Y-35765552D01*
X28122883Y-35705537D01*
X27992485Y-35618408D01*
X27881592Y-35507515D01*
X27794463Y-35377117D01*
X27734448Y-35232228D01*
X27703852Y-35078414D01*
X27703852Y-34921586D01*
X27734448Y-34767772D01*
X27794463Y-34622883D01*
X27881592Y-34492485D01*
X27992485Y-34381592D01*
X28122883Y-34294463D01*
X28267772Y-34234448D01*
X28421586Y-34203852D01*
X28578414Y-34203852D01*
X28732228Y-34234448D01*
G37*
G36*
X52232228Y-34234448D02*
G01*
X52377117Y-34294463D01*
X52507515Y-34381592D01*
X52618408Y-34492485D01*
X52705537Y-34622883D01*
X52765552Y-34767772D01*
X52796148Y-34921586D01*
X52796148Y-35078414D01*
X52765552Y-35232228D01*
X52705537Y-35377117D01*
X52618408Y-35507515D01*
X52507515Y-35618408D01*
X52377117Y-35705537D01*
X52232228Y-35765552D01*
X52078414Y-35796148D01*
X51921586Y-35796148D01*
X51767772Y-35765552D01*
X51622883Y-35705537D01*
X51492485Y-35618408D01*
X51381592Y-35507515D01*
X51294463Y-35377117D01*
X51234448Y-35232228D01*
X51203852Y-35078414D01*
X51203852Y-34921586D01*
X51234448Y-34767772D01*
X51294463Y-34622883D01*
X51381592Y-34492485D01*
X51492485Y-34381592D01*
X51622883Y-34294463D01*
X51767772Y-34234448D01*
X51921586Y-34203852D01*
X52078414Y-34203852D01*
X52232228Y-34234448D01*
G37*
G36*
X54732228Y-34234448D02*
G01*
X54877117Y-34294463D01*
X55007515Y-34381592D01*
X55118408Y-34492485D01*
X55205537Y-34622883D01*
X55265552Y-34767772D01*
X55296148Y-34921586D01*
X55296148Y-35078414D01*
X55265552Y-35232228D01*
X55205537Y-35377117D01*
X55118408Y-35507515D01*
X55007515Y-35618408D01*
X54877117Y-35705537D01*
X54732228Y-35765552D01*
X54578414Y-35796148D01*
X54421586Y-35796148D01*
X54267772Y-35765552D01*
X54122883Y-35705537D01*
X53992485Y-35618408D01*
X53881592Y-35507515D01*
X53794463Y-35377117D01*
X53734448Y-35232228D01*
X53703852Y-35078414D01*
X53703852Y-34921586D01*
X53734448Y-34767772D01*
X53794463Y-34622883D01*
X53881592Y-34492485D01*
X53992485Y-34381592D01*
X54122883Y-34294463D01*
X54267772Y-34234448D01*
X54421586Y-34203852D01*
X54578414Y-34203852D01*
X54732228Y-34234448D01*
G37*
G36*
X16203199Y-34330142D02*
G01*
X16329978Y-34382655D01*
X16444075Y-34458893D01*
X16541107Y-34555925D01*
X16617345Y-34670022D01*
X16669858Y-34796801D01*
X16696629Y-34931388D01*
X16696629Y-35068612D01*
X16669858Y-35203199D01*
X16617345Y-35329978D01*
X16541107Y-35444075D01*
X16444075Y-35541107D01*
X16329978Y-35617345D01*
X16203199Y-35669858D01*
X16068612Y-35696629D01*
X15931388Y-35696629D01*
X15796801Y-35669858D01*
X15670022Y-35617345D01*
X15555925Y-35541107D01*
X15458893Y-35444075D01*
X15382655Y-35329978D01*
X15330142Y-35203199D01*
X15303371Y-35068612D01*
X15303371Y-34931388D01*
X15330142Y-34796801D01*
X15382655Y-34670022D01*
X15458893Y-34555925D01*
X15555925Y-34458893D01*
X15670022Y-34382655D01*
X15796801Y-34330142D01*
X15931388Y-34303371D01*
X16068612Y-34303371D01*
X16203199Y-34330142D01*
G37*
G36*
X21283199Y-34330142D02*
G01*
X21409978Y-34382655D01*
X21524075Y-34458893D01*
X21621107Y-34555925D01*
X21697345Y-34670022D01*
X21749858Y-34796801D01*
X21776629Y-34931388D01*
X21776629Y-35068612D01*
X21749858Y-35203199D01*
X21697345Y-35329978D01*
X21621107Y-35444075D01*
X21524075Y-35541107D01*
X21409978Y-35617345D01*
X21283199Y-35669858D01*
X21148612Y-35696629D01*
X21011388Y-35696629D01*
X20876801Y-35669858D01*
X20750022Y-35617345D01*
X20635925Y-35541107D01*
X20538893Y-35444075D01*
X20462655Y-35329978D01*
X20410142Y-35203199D01*
X20383371Y-35068612D01*
X20383371Y-34931388D01*
X20410142Y-34796801D01*
X20462655Y-34670022D01*
X20538893Y-34555925D01*
X20635925Y-34458893D01*
X20750022Y-34382655D01*
X20876801Y-34330142D01*
X21011388Y-34303371D01*
X21148612Y-34303371D01*
X21283199Y-34330142D01*
G37*
G36*
X62203199Y-34330142D02*
G01*
X62329978Y-34382655D01*
X62444075Y-34458893D01*
X62541107Y-34555925D01*
X62617345Y-34670022D01*
X62669858Y-34796801D01*
X62696629Y-34931388D01*
X62696629Y-35068612D01*
X62669858Y-35203199D01*
X62617345Y-35329978D01*
X62541107Y-35444075D01*
X62444075Y-35541107D01*
X62329978Y-35617345D01*
X62203199Y-35669858D01*
X62068612Y-35696629D01*
X61931388Y-35696629D01*
X61796801Y-35669858D01*
X61670022Y-35617345D01*
X61555925Y-35541107D01*
X61458893Y-35444075D01*
X61382655Y-35329978D01*
X61330142Y-35203199D01*
X61303371Y-35068612D01*
X61303371Y-34931388D01*
X61330142Y-34796801D01*
X61382655Y-34670022D01*
X61458893Y-34555925D01*
X61555925Y-34458893D01*
X61670022Y-34382655D01*
X61796801Y-34330142D01*
X61931388Y-34303371D01*
X62068612Y-34303371D01*
X62203199Y-34330142D01*
G37*
G36*
X67283199Y-34330142D02*
G01*
X67409978Y-34382655D01*
X67524075Y-34458893D01*
X67621107Y-34555925D01*
X67697345Y-34670022D01*
X67749858Y-34796801D01*
X67776629Y-34931388D01*
X67776629Y-35068612D01*
X67749858Y-35203199D01*
X67697345Y-35329978D01*
X67621107Y-35444075D01*
X67524075Y-35541107D01*
X67409978Y-35617345D01*
X67283199Y-35669858D01*
X67148612Y-35696629D01*
X67011388Y-35696629D01*
X66876801Y-35669858D01*
X66750022Y-35617345D01*
X66635925Y-35541107D01*
X66538893Y-35444075D01*
X66462655Y-35329978D01*
X66410142Y-35203199D01*
X66383371Y-35068612D01*
X66383371Y-34931388D01*
X66410142Y-34796801D01*
X66462655Y-34670022D01*
X66538893Y-34555925D01*
X66635925Y-34458893D01*
X66750022Y-34382655D01*
X66876801Y-34330142D01*
X67011388Y-34303371D01*
X67148612Y-34303371D01*
X67283199Y-34330142D01*
G37*
G36*
X40422228Y-33934448D02*
G01*
X40567117Y-33994463D01*
X40697515Y-34081592D01*
X40808408Y-34192485D01*
X40895537Y-34322883D01*
X40955552Y-34467772D01*
X40986148Y-34621586D01*
X40986148Y-34778414D01*
X40955552Y-34932228D01*
X40895537Y-35077117D01*
X40808408Y-35207515D01*
X40697515Y-35318408D01*
X40567117Y-35405537D01*
X40422228Y-35465552D01*
X40268414Y-35496148D01*
X40111586Y-35496148D01*
X39957772Y-35465552D01*
X39812883Y-35405537D01*
X39682485Y-35318408D01*
X39571592Y-35207515D01*
X39484463Y-35077117D01*
X39424448Y-34932228D01*
X39393852Y-34778414D01*
X39393852Y-34621586D01*
X39424448Y-34467772D01*
X39484463Y-34322883D01*
X39571592Y-34192485D01*
X39682485Y-34081592D01*
X39812883Y-33994463D01*
X39957772Y-33934448D01*
X40111586Y-33903852D01*
X40268414Y-33903852D01*
X40422228Y-33934448D01*
G37*
G36*
X48042228Y-33934448D02*
G01*
X48187117Y-33994463D01*
X48317515Y-34081592D01*
X48428408Y-34192485D01*
X48515537Y-34322883D01*
X48575552Y-34467772D01*
X48606148Y-34621586D01*
X48606148Y-34778414D01*
X48575552Y-34932228D01*
X48515537Y-35077117D01*
X48428408Y-35207515D01*
X48317515Y-35318408D01*
X48187117Y-35405537D01*
X48042228Y-35465552D01*
X47888414Y-35496148D01*
X47731586Y-35496148D01*
X47577772Y-35465552D01*
X47432883Y-35405537D01*
X47302485Y-35318408D01*
X47191592Y-35207515D01*
X47104463Y-35077117D01*
X47044448Y-34932228D01*
X47013852Y-34778414D01*
X47013852Y-34621586D01*
X47044448Y-34467772D01*
X47104463Y-34322883D01*
X47191592Y-34192485D01*
X47302485Y-34081592D01*
X47432883Y-33994463D01*
X47577772Y-33934448D01*
X47731586Y-33903852D01*
X47888414Y-33903852D01*
X48042228Y-33934448D01*
G37*
G36*
X7232228Y-32734448D02*
G01*
X7377117Y-32794463D01*
X7507515Y-32881592D01*
X7618408Y-32992485D01*
X7705537Y-33122883D01*
X7765552Y-33267772D01*
X7796148Y-33421586D01*
X7796148Y-33578414D01*
X7765552Y-33732228D01*
X7705537Y-33877117D01*
X7618408Y-34007515D01*
X7507515Y-34118408D01*
X7377117Y-34205537D01*
X7232228Y-34265552D01*
X7078414Y-34296148D01*
X6921586Y-34296148D01*
X6767772Y-34265552D01*
X6622883Y-34205537D01*
X6492485Y-34118408D01*
X6381592Y-34007515D01*
X6294463Y-33877117D01*
X6234448Y-33732228D01*
X6203852Y-33578414D01*
X6203852Y-33421586D01*
X6234448Y-33267772D01*
X6294463Y-33122883D01*
X6381592Y-32992485D01*
X6492485Y-32881592D01*
X6622883Y-32794463D01*
X6767772Y-32734448D01*
X6921586Y-32703852D01*
X7078414Y-32703852D01*
X7232228Y-32734448D01*
G37*
G36*
X9732228Y-32734448D02*
G01*
X9877117Y-32794463D01*
X10007515Y-32881592D01*
X10118408Y-32992485D01*
X10205537Y-33122883D01*
X10265552Y-33267772D01*
X10296148Y-33421586D01*
X10296148Y-33578414D01*
X10265552Y-33732228D01*
X10205537Y-33877117D01*
X10118408Y-34007515D01*
X10007515Y-34118408D01*
X9877117Y-34205537D01*
X9732228Y-34265552D01*
X9578414Y-34296148D01*
X9421586Y-34296148D01*
X9267772Y-34265552D01*
X9122883Y-34205537D01*
X8992485Y-34118408D01*
X8881592Y-34007515D01*
X8794463Y-33877117D01*
X8734448Y-33732228D01*
X8703852Y-33578414D01*
X8703852Y-33421586D01*
X8734448Y-33267772D01*
X8794463Y-33122883D01*
X8881592Y-32992485D01*
X8992485Y-32881592D01*
X9122883Y-32794463D01*
X9267772Y-32734448D01*
X9421586Y-32703852D01*
X9578414Y-32703852D01*
X9732228Y-32734448D01*
G37*
G36*
X72232228Y-32734448D02*
G01*
X72377117Y-32794463D01*
X72507515Y-32881592D01*
X72618408Y-32992485D01*
X72705537Y-33122883D01*
X72765552Y-33267772D01*
X72796148Y-33421586D01*
X72796148Y-33578414D01*
X72765552Y-33732228D01*
X72705537Y-33877117D01*
X72618408Y-34007515D01*
X72507515Y-34118408D01*
X72377117Y-34205537D01*
X72232228Y-34265552D01*
X72078414Y-34296148D01*
X71921586Y-34296148D01*
X71767772Y-34265552D01*
X71622883Y-34205537D01*
X71492485Y-34118408D01*
X71381592Y-34007515D01*
X71294463Y-33877117D01*
X71234448Y-33732228D01*
X71203852Y-33578414D01*
X71203852Y-33421586D01*
X71234448Y-33267772D01*
X71294463Y-33122883D01*
X71381592Y-32992485D01*
X71492485Y-32881592D01*
X71622883Y-32794463D01*
X71767772Y-32734448D01*
X71921586Y-32703852D01*
X72078414Y-32703852D01*
X72232228Y-32734448D01*
G37*
G36*
X74732228Y-32734448D02*
G01*
X74877117Y-32794463D01*
X75007515Y-32881592D01*
X75118408Y-32992485D01*
X75205537Y-33122883D01*
X75265552Y-33267772D01*
X75296148Y-33421586D01*
X75296148Y-33578414D01*
X75265552Y-33732228D01*
X75205537Y-33877117D01*
X75118408Y-34007515D01*
X75007515Y-34118408D01*
X74877117Y-34205537D01*
X74732228Y-34265552D01*
X74578414Y-34296148D01*
X74421586Y-34296148D01*
X74267772Y-34265552D01*
X74122883Y-34205537D01*
X73992485Y-34118408D01*
X73881592Y-34007515D01*
X73794463Y-33877117D01*
X73734448Y-33732228D01*
X73703852Y-33578414D01*
X73703852Y-33421586D01*
X73734448Y-33267772D01*
X73794463Y-33122883D01*
X73881592Y-32992485D01*
X73992485Y-32881592D01*
X74122883Y-32794463D01*
X74267772Y-32734448D01*
X74421586Y-32703852D01*
X74578414Y-32703852D01*
X74732228Y-32734448D01*
G37*
G36*
X40422228Y-31394448D02*
G01*
X40567117Y-31454463D01*
X40697515Y-31541592D01*
X40808408Y-31652485D01*
X40895537Y-31782883D01*
X40955552Y-31927772D01*
X40986148Y-32081586D01*
X40986148Y-32238414D01*
X40955552Y-32392228D01*
X40895537Y-32537117D01*
X40808408Y-32667515D01*
X40697515Y-32778408D01*
X40567117Y-32865537D01*
X40422228Y-32925552D01*
X40268414Y-32956148D01*
X40111586Y-32956148D01*
X39957772Y-32925552D01*
X39812883Y-32865537D01*
X39682485Y-32778408D01*
X39571592Y-32667515D01*
X39484463Y-32537117D01*
X39424448Y-32392228D01*
X39393852Y-32238414D01*
X39393852Y-32081586D01*
X39424448Y-31927772D01*
X39484463Y-31782883D01*
X39571592Y-31652485D01*
X39682485Y-31541592D01*
X39812883Y-31454463D01*
X39957772Y-31394448D01*
X40111586Y-31363852D01*
X40268414Y-31363852D01*
X40422228Y-31394448D01*
G37*
G36*
X48042228Y-31394448D02*
G01*
X48187117Y-31454463D01*
X48317515Y-31541592D01*
X48428408Y-31652485D01*
X48515537Y-31782883D01*
X48575552Y-31927772D01*
X48606148Y-32081586D01*
X48606148Y-32238414D01*
X48575552Y-32392228D01*
X48515537Y-32537117D01*
X48428408Y-32667515D01*
X48317515Y-32778408D01*
X48187117Y-32865537D01*
X48042228Y-32925552D01*
X47888414Y-32956148D01*
X47731586Y-32956148D01*
X47577772Y-32925552D01*
X47432883Y-32865537D01*
X47302485Y-32778408D01*
X47191592Y-32667515D01*
X47104463Y-32537117D01*
X47044448Y-32392228D01*
X47013852Y-32238414D01*
X47013852Y-32081586D01*
X47044448Y-31927772D01*
X47104463Y-31782883D01*
X47191592Y-31652485D01*
X47302485Y-31541592D01*
X47432883Y-31454463D01*
X47577772Y-31394448D01*
X47731586Y-31363852D01*
X47888414Y-31363852D01*
X48042228Y-31394448D01*
G37*
G36*
X26232228Y-30734448D02*
G01*
X26377117Y-30794463D01*
X26507515Y-30881592D01*
X26618408Y-30992485D01*
X26705537Y-31122883D01*
X26765552Y-31267772D01*
X26796148Y-31421586D01*
X26796148Y-31578414D01*
X26765552Y-31732228D01*
X26705537Y-31877117D01*
X26618408Y-32007515D01*
X26507515Y-32118408D01*
X26377117Y-32205537D01*
X26232228Y-32265552D01*
X26078414Y-32296148D01*
X25921586Y-32296148D01*
X25767772Y-32265552D01*
X25622883Y-32205537D01*
X25492485Y-32118408D01*
X25381592Y-32007515D01*
X25294463Y-31877117D01*
X25234448Y-31732228D01*
X25203852Y-31578414D01*
X25203852Y-31421586D01*
X25234448Y-31267772D01*
X25294463Y-31122883D01*
X25381592Y-30992485D01*
X25492485Y-30881592D01*
X25622883Y-30794463D01*
X25767772Y-30734448D01*
X25921586Y-30703852D01*
X26078414Y-30703852D01*
X26232228Y-30734448D01*
G37*
G36*
X28732228Y-30734448D02*
G01*
X28877117Y-30794463D01*
X29007515Y-30881592D01*
X29118408Y-30992485D01*
X29205537Y-31122883D01*
X29265552Y-31267772D01*
X29296148Y-31421586D01*
X29296148Y-31578414D01*
X29265552Y-31732228D01*
X29205537Y-31877117D01*
X29118408Y-32007515D01*
X29007515Y-32118408D01*
X28877117Y-32205537D01*
X28732228Y-32265552D01*
X28578414Y-32296148D01*
X28421586Y-32296148D01*
X28267772Y-32265552D01*
X28122883Y-32205537D01*
X27992485Y-32118408D01*
X27881592Y-32007515D01*
X27794463Y-31877117D01*
X27734448Y-31732228D01*
X27703852Y-31578414D01*
X27703852Y-31421586D01*
X27734448Y-31267772D01*
X27794463Y-31122883D01*
X27881592Y-30992485D01*
X27992485Y-30881592D01*
X28122883Y-30794463D01*
X28267772Y-30734448D01*
X28421586Y-30703852D01*
X28578414Y-30703852D01*
X28732228Y-30734448D01*
G37*
G36*
X52232228Y-30734448D02*
G01*
X52377117Y-30794463D01*
X52507515Y-30881592D01*
X52618408Y-30992485D01*
X52705537Y-31122883D01*
X52765552Y-31267772D01*
X52796148Y-31421586D01*
X52796148Y-31578414D01*
X52765552Y-31732228D01*
X52705537Y-31877117D01*
X52618408Y-32007515D01*
X52507515Y-32118408D01*
X52377117Y-32205537D01*
X52232228Y-32265552D01*
X52078414Y-32296148D01*
X51921586Y-32296148D01*
X51767772Y-32265552D01*
X51622883Y-32205537D01*
X51492485Y-32118408D01*
X51381592Y-32007515D01*
X51294463Y-31877117D01*
X51234448Y-31732228D01*
X51203852Y-31578414D01*
X51203852Y-31421586D01*
X51234448Y-31267772D01*
X51294463Y-31122883D01*
X51381592Y-30992485D01*
X51492485Y-30881592D01*
X51622883Y-30794463D01*
X51767772Y-30734448D01*
X51921586Y-30703852D01*
X52078414Y-30703852D01*
X52232228Y-30734448D01*
G37*
G36*
X54732228Y-30734448D02*
G01*
X54877117Y-30794463D01*
X55007515Y-30881592D01*
X55118408Y-30992485D01*
X55205537Y-31122883D01*
X55265552Y-31267772D01*
X55296148Y-31421586D01*
X55296148Y-31578414D01*
X55265552Y-31732228D01*
X55205537Y-31877117D01*
X55118408Y-32007515D01*
X55007515Y-32118408D01*
X54877117Y-32205537D01*
X54732228Y-32265552D01*
X54578414Y-32296148D01*
X54421586Y-32296148D01*
X54267772Y-32265552D01*
X54122883Y-32205537D01*
X53992485Y-32118408D01*
X53881592Y-32007515D01*
X53794463Y-31877117D01*
X53734448Y-31732228D01*
X53703852Y-31578414D01*
X53703852Y-31421586D01*
X53734448Y-31267772D01*
X53794463Y-31122883D01*
X53881592Y-30992485D01*
X53992485Y-30881592D01*
X54122883Y-30794463D01*
X54267772Y-30734448D01*
X54421586Y-30703852D01*
X54578414Y-30703852D01*
X54732228Y-30734448D01*
G37*
G36*
X16203199Y-30830142D02*
G01*
X16329978Y-30882655D01*
X16444075Y-30958893D01*
X16541107Y-31055925D01*
X16617345Y-31170022D01*
X16669858Y-31296801D01*
X16696629Y-31431388D01*
X16696629Y-31568612D01*
X16669858Y-31703199D01*
X16617345Y-31829978D01*
X16541107Y-31944075D01*
X16444075Y-32041107D01*
X16329978Y-32117345D01*
X16203199Y-32169858D01*
X16068612Y-32196629D01*
X15931388Y-32196629D01*
X15796801Y-32169858D01*
X15670022Y-32117345D01*
X15555925Y-32041107D01*
X15458893Y-31944075D01*
X15382655Y-31829978D01*
X15330142Y-31703199D01*
X15303371Y-31568612D01*
X15303371Y-31431388D01*
X15330142Y-31296801D01*
X15382655Y-31170022D01*
X15458893Y-31055925D01*
X15555925Y-30958893D01*
X15670022Y-30882655D01*
X15796801Y-30830142D01*
X15931388Y-30803371D01*
X16068612Y-30803371D01*
X16203199Y-30830142D01*
G37*
G36*
X21283199Y-30830142D02*
G01*
X21409978Y-30882655D01*
X21524075Y-30958893D01*
X21621107Y-31055925D01*
X21697345Y-31170022D01*
X21749858Y-31296801D01*
X21776629Y-31431388D01*
X21776629Y-31568612D01*
X21749858Y-31703199D01*
X21697345Y-31829978D01*
X21621107Y-31944075D01*
X21524075Y-32041107D01*
X21409978Y-32117345D01*
X21283199Y-32169858D01*
X21148612Y-32196629D01*
X21011388Y-32196629D01*
X20876801Y-32169858D01*
X20750022Y-32117345D01*
X20635925Y-32041107D01*
X20538893Y-31944075D01*
X20462655Y-31829978D01*
X20410142Y-31703199D01*
X20383371Y-31568612D01*
X20383371Y-31431388D01*
X20410142Y-31296801D01*
X20462655Y-31170022D01*
X20538893Y-31055925D01*
X20635925Y-30958893D01*
X20750022Y-30882655D01*
X20876801Y-30830142D01*
X21011388Y-30803371D01*
X21148612Y-30803371D01*
X21283199Y-30830142D01*
G37*
G36*
X62203199Y-30830142D02*
G01*
X62329978Y-30882655D01*
X62444075Y-30958893D01*
X62541107Y-31055925D01*
X62617345Y-31170022D01*
X62669858Y-31296801D01*
X62696629Y-31431388D01*
X62696629Y-31568612D01*
X62669858Y-31703199D01*
X62617345Y-31829978D01*
X62541107Y-31944075D01*
X62444075Y-32041107D01*
X62329978Y-32117345D01*
X62203199Y-32169858D01*
X62068612Y-32196629D01*
X61931388Y-32196629D01*
X61796801Y-32169858D01*
X61670022Y-32117345D01*
X61555925Y-32041107D01*
X61458893Y-31944075D01*
X61382655Y-31829978D01*
X61330142Y-31703199D01*
X61303371Y-31568612D01*
X61303371Y-31431388D01*
X61330142Y-31296801D01*
X61382655Y-31170022D01*
X61458893Y-31055925D01*
X61555925Y-30958893D01*
X61670022Y-30882655D01*
X61796801Y-30830142D01*
X61931388Y-30803371D01*
X62068612Y-30803371D01*
X62203199Y-30830142D01*
G37*
G36*
X67283199Y-30830142D02*
G01*
X67409978Y-30882655D01*
X67524075Y-30958893D01*
X67621107Y-31055925D01*
X67697345Y-31170022D01*
X67749858Y-31296801D01*
X67776629Y-31431388D01*
X67776629Y-31568612D01*
X67749858Y-31703199D01*
X67697345Y-31829978D01*
X67621107Y-31944075D01*
X67524075Y-32041107D01*
X67409978Y-32117345D01*
X67283199Y-32169858D01*
X67148612Y-32196629D01*
X67011388Y-32196629D01*
X66876801Y-32169858D01*
X66750022Y-32117345D01*
X66635925Y-32041107D01*
X66538893Y-31944075D01*
X66462655Y-31829978D01*
X66410142Y-31703199D01*
X66383371Y-31568612D01*
X66383371Y-31431388D01*
X66410142Y-31296801D01*
X66462655Y-31170022D01*
X66538893Y-31055925D01*
X66635925Y-30958893D01*
X66750022Y-30882655D01*
X66876801Y-30830142D01*
X67011388Y-30803371D01*
X67148612Y-30803371D01*
X67283199Y-30830142D01*
G37*
G36*
X40422228Y-28854448D02*
G01*
X40567117Y-28914463D01*
X40697515Y-29001592D01*
X40808408Y-29112485D01*
X40895537Y-29242883D01*
X40955552Y-29387772D01*
X40986148Y-29541586D01*
X40986148Y-29698414D01*
X40955552Y-29852228D01*
X40895537Y-29997117D01*
X40808408Y-30127515D01*
X40697515Y-30238408D01*
X40567117Y-30325537D01*
X40422228Y-30385552D01*
X40268414Y-30416148D01*
X40111586Y-30416148D01*
X39957772Y-30385552D01*
X39812883Y-30325537D01*
X39682485Y-30238408D01*
X39571592Y-30127515D01*
X39484463Y-29997117D01*
X39424448Y-29852228D01*
X39393852Y-29698414D01*
X39393852Y-29541586D01*
X39424448Y-29387772D01*
X39484463Y-29242883D01*
X39571592Y-29112485D01*
X39682485Y-29001592D01*
X39812883Y-28914463D01*
X39957772Y-28854448D01*
X40111586Y-28823852D01*
X40268414Y-28823852D01*
X40422228Y-28854448D01*
G37*
G36*
X48042228Y-28854448D02*
G01*
X48187117Y-28914463D01*
X48317515Y-29001592D01*
X48428408Y-29112485D01*
X48515537Y-29242883D01*
X48575552Y-29387772D01*
X48606148Y-29541586D01*
X48606148Y-29698414D01*
X48575552Y-29852228D01*
X48515537Y-29997117D01*
X48428408Y-30127515D01*
X48317515Y-30238408D01*
X48187117Y-30325537D01*
X48042228Y-30385552D01*
X47888414Y-30416148D01*
X47731586Y-30416148D01*
X47577772Y-30385552D01*
X47432883Y-30325537D01*
X47302485Y-30238408D01*
X47191592Y-30127515D01*
X47104463Y-29997117D01*
X47044448Y-29852228D01*
X47013852Y-29698414D01*
X47013852Y-29541586D01*
X47044448Y-29387772D01*
X47104463Y-29242883D01*
X47191592Y-29112485D01*
X47302485Y-29001592D01*
X47432883Y-28914463D01*
X47577772Y-28854448D01*
X47731586Y-28823852D01*
X47888414Y-28823852D01*
X48042228Y-28854448D01*
G37*
G36*
X7203199Y-28830142D02*
G01*
X7329978Y-28882655D01*
X7444075Y-28958893D01*
X7541107Y-29055925D01*
X7617345Y-29170022D01*
X7669858Y-29296801D01*
X7696629Y-29431388D01*
X7696629Y-29568612D01*
X7669858Y-29703199D01*
X7617345Y-29829978D01*
X7541107Y-29944075D01*
X7444075Y-30041107D01*
X7329978Y-30117345D01*
X7203199Y-30169858D01*
X7068612Y-30196629D01*
X6931388Y-30196629D01*
X6796801Y-30169858D01*
X6670022Y-30117345D01*
X6555925Y-30041107D01*
X6458893Y-29944075D01*
X6382655Y-29829978D01*
X6330142Y-29703199D01*
X6303371Y-29568612D01*
X6303371Y-29431388D01*
X6330142Y-29296801D01*
X6382655Y-29170022D01*
X6458893Y-29055925D01*
X6555925Y-28958893D01*
X6670022Y-28882655D01*
X6796801Y-28830142D01*
X6931388Y-28803371D01*
X7068612Y-28803371D01*
X7203199Y-28830142D01*
G37*
G36*
X12283199Y-28830142D02*
G01*
X12409978Y-28882655D01*
X12524075Y-28958893D01*
X12621107Y-29055925D01*
X12697345Y-29170022D01*
X12749858Y-29296801D01*
X12776629Y-29431388D01*
X12776629Y-29568612D01*
X12749858Y-29703199D01*
X12697345Y-29829978D01*
X12621107Y-29944075D01*
X12524075Y-30041107D01*
X12409978Y-30117345D01*
X12283199Y-30169858D01*
X12148612Y-30196629D01*
X12011388Y-30196629D01*
X11876801Y-30169858D01*
X11750022Y-30117345D01*
X11635925Y-30041107D01*
X11538893Y-29944075D01*
X11462655Y-29829978D01*
X11410142Y-29703199D01*
X11383371Y-29568612D01*
X11383371Y-29431388D01*
X11410142Y-29296801D01*
X11462655Y-29170022D01*
X11538893Y-29055925D01*
X11635925Y-28958893D01*
X11750022Y-28882655D01*
X11876801Y-28830142D01*
X12011388Y-28803371D01*
X12148612Y-28803371D01*
X12283199Y-28830142D01*
G37*
G36*
X72203199Y-28830142D02*
G01*
X72329978Y-28882655D01*
X72444075Y-28958893D01*
X72541107Y-29055925D01*
X72617345Y-29170022D01*
X72669858Y-29296801D01*
X72696629Y-29431388D01*
X72696629Y-29568612D01*
X72669858Y-29703199D01*
X72617345Y-29829978D01*
X72541107Y-29944075D01*
X72444075Y-30041107D01*
X72329978Y-30117345D01*
X72203199Y-30169858D01*
X72068612Y-30196629D01*
X71931388Y-30196629D01*
X71796801Y-30169858D01*
X71670022Y-30117345D01*
X71555925Y-30041107D01*
X71458893Y-29944075D01*
X71382655Y-29829978D01*
X71330142Y-29703199D01*
X71303371Y-29568612D01*
X71303371Y-29431388D01*
X71330142Y-29296801D01*
X71382655Y-29170022D01*
X71458893Y-29055925D01*
X71555925Y-28958893D01*
X71670022Y-28882655D01*
X71796801Y-28830142D01*
X71931388Y-28803371D01*
X72068612Y-28803371D01*
X72203199Y-28830142D01*
G37*
G36*
X77283199Y-28830142D02*
G01*
X77409978Y-28882655D01*
X77524075Y-28958893D01*
X77621107Y-29055925D01*
X77697345Y-29170022D01*
X77749858Y-29296801D01*
X77776629Y-29431388D01*
X77776629Y-29568612D01*
X77749858Y-29703199D01*
X77697345Y-29829978D01*
X77621107Y-29944075D01*
X77524075Y-30041107D01*
X77409978Y-30117345D01*
X77283199Y-30169858D01*
X77148612Y-30196629D01*
X77011388Y-30196629D01*
X76876801Y-30169858D01*
X76750022Y-30117345D01*
X76635925Y-30041107D01*
X76538893Y-29944075D01*
X76462655Y-29829978D01*
X76410142Y-29703199D01*
X76383371Y-29568612D01*
X76383371Y-29431388D01*
X76410142Y-29296801D01*
X76462655Y-29170022D01*
X76538893Y-29055925D01*
X76635925Y-28958893D01*
X76750022Y-28882655D01*
X76876801Y-28830142D01*
X77011388Y-28803371D01*
X77148612Y-28803371D01*
X77283199Y-28830142D01*
G37*
G36*
X16203199Y-27330142D02*
G01*
X16329978Y-27382655D01*
X16444075Y-27458893D01*
X16541107Y-27555925D01*
X16617345Y-27670022D01*
X16669858Y-27796801D01*
X16696629Y-27931388D01*
X16696629Y-28068612D01*
X16669858Y-28203199D01*
X16617345Y-28329978D01*
X16541107Y-28444075D01*
X16444075Y-28541107D01*
X16329978Y-28617345D01*
X16203199Y-28669858D01*
X16068612Y-28696629D01*
X15931388Y-28696629D01*
X15796801Y-28669858D01*
X15670022Y-28617345D01*
X15555925Y-28541107D01*
X15458893Y-28444075D01*
X15382655Y-28329978D01*
X15330142Y-28203199D01*
X15303371Y-28068612D01*
X15303371Y-27931388D01*
X15330142Y-27796801D01*
X15382655Y-27670022D01*
X15458893Y-27555925D01*
X15555925Y-27458893D01*
X15670022Y-27382655D01*
X15796801Y-27330142D01*
X15931388Y-27303371D01*
X16068612Y-27303371D01*
X16203199Y-27330142D01*
G37*
G36*
X21283199Y-27330142D02*
G01*
X21409978Y-27382655D01*
X21524075Y-27458893D01*
X21621107Y-27555925D01*
X21697345Y-27670022D01*
X21749858Y-27796801D01*
X21776629Y-27931388D01*
X21776629Y-28068612D01*
X21749858Y-28203199D01*
X21697345Y-28329978D01*
X21621107Y-28444075D01*
X21524075Y-28541107D01*
X21409978Y-28617345D01*
X21283199Y-28669858D01*
X21148612Y-28696629D01*
X21011388Y-28696629D01*
X20876801Y-28669858D01*
X20750022Y-28617345D01*
X20635925Y-28541107D01*
X20538893Y-28444075D01*
X20462655Y-28329978D01*
X20410142Y-28203199D01*
X20383371Y-28068612D01*
X20383371Y-27931388D01*
X20410142Y-27796801D01*
X20462655Y-27670022D01*
X20538893Y-27555925D01*
X20635925Y-27458893D01*
X20750022Y-27382655D01*
X20876801Y-27330142D01*
X21011388Y-27303371D01*
X21148612Y-27303371D01*
X21283199Y-27330142D01*
G37*
G36*
X26203199Y-27330142D02*
G01*
X26329978Y-27382655D01*
X26444075Y-27458893D01*
X26541107Y-27555925D01*
X26617345Y-27670022D01*
X26669858Y-27796801D01*
X26696629Y-27931388D01*
X26696629Y-28068612D01*
X26669858Y-28203199D01*
X26617345Y-28329978D01*
X26541107Y-28444075D01*
X26444075Y-28541107D01*
X26329978Y-28617345D01*
X26203199Y-28669858D01*
X26068612Y-28696629D01*
X25931388Y-28696629D01*
X25796801Y-28669858D01*
X25670022Y-28617345D01*
X25555925Y-28541107D01*
X25458893Y-28444075D01*
X25382655Y-28329978D01*
X25330142Y-28203199D01*
X25303371Y-28068612D01*
X25303371Y-27931388D01*
X25330142Y-27796801D01*
X25382655Y-27670022D01*
X25458893Y-27555925D01*
X25555925Y-27458893D01*
X25670022Y-27382655D01*
X25796801Y-27330142D01*
X25931388Y-27303371D01*
X26068612Y-27303371D01*
X26203199Y-27330142D01*
G37*
G36*
X31283199Y-27330142D02*
G01*
X31409978Y-27382655D01*
X31524075Y-27458893D01*
X31621107Y-27555925D01*
X31697345Y-27670022D01*
X31749858Y-27796801D01*
X31776629Y-27931388D01*
X31776629Y-28068612D01*
X31749858Y-28203199D01*
X31697345Y-28329978D01*
X31621107Y-28444075D01*
X31524075Y-28541107D01*
X31409978Y-28617345D01*
X31283199Y-28669858D01*
X31148612Y-28696629D01*
X31011388Y-28696629D01*
X30876801Y-28669858D01*
X30750022Y-28617345D01*
X30635925Y-28541107D01*
X30538893Y-28444075D01*
X30462655Y-28329978D01*
X30410142Y-28203199D01*
X30383371Y-28068612D01*
X30383371Y-27931388D01*
X30410142Y-27796801D01*
X30462655Y-27670022D01*
X30538893Y-27555925D01*
X30635925Y-27458893D01*
X30750022Y-27382655D01*
X30876801Y-27330142D01*
X31011388Y-27303371D01*
X31148612Y-27303371D01*
X31283199Y-27330142D01*
G37*
G36*
X52203199Y-27330142D02*
G01*
X52329978Y-27382655D01*
X52444075Y-27458893D01*
X52541107Y-27555925D01*
X52617345Y-27670022D01*
X52669858Y-27796801D01*
X52696629Y-27931388D01*
X52696629Y-28068612D01*
X52669858Y-28203199D01*
X52617345Y-28329978D01*
X52541107Y-28444075D01*
X52444075Y-28541107D01*
X52329978Y-28617345D01*
X52203199Y-28669858D01*
X52068612Y-28696629D01*
X51931388Y-28696629D01*
X51796801Y-28669858D01*
X51670022Y-28617345D01*
X51555925Y-28541107D01*
X51458893Y-28444075D01*
X51382655Y-28329978D01*
X51330142Y-28203199D01*
X51303371Y-28068612D01*
X51303371Y-27931388D01*
X51330142Y-27796801D01*
X51382655Y-27670022D01*
X51458893Y-27555925D01*
X51555925Y-27458893D01*
X51670022Y-27382655D01*
X51796801Y-27330142D01*
X51931388Y-27303371D01*
X52068612Y-27303371D01*
X52203199Y-27330142D01*
G37*
G36*
X57283199Y-27330142D02*
G01*
X57409978Y-27382655D01*
X57524075Y-27458893D01*
X57621107Y-27555925D01*
X57697345Y-27670022D01*
X57749858Y-27796801D01*
X57776629Y-27931388D01*
X57776629Y-28068612D01*
X57749858Y-28203199D01*
X57697345Y-28329978D01*
X57621107Y-28444075D01*
X57524075Y-28541107D01*
X57409978Y-28617345D01*
X57283199Y-28669858D01*
X57148612Y-28696629D01*
X57011388Y-28696629D01*
X56876801Y-28669858D01*
X56750022Y-28617345D01*
X56635925Y-28541107D01*
X56538893Y-28444075D01*
X56462655Y-28329978D01*
X56410142Y-28203199D01*
X56383371Y-28068612D01*
X56383371Y-27931388D01*
X56410142Y-27796801D01*
X56462655Y-27670022D01*
X56538893Y-27555925D01*
X56635925Y-27458893D01*
X56750022Y-27382655D01*
X56876801Y-27330142D01*
X57011388Y-27303371D01*
X57148612Y-27303371D01*
X57283199Y-27330142D01*
G37*
G36*
X62203199Y-27330142D02*
G01*
X62329978Y-27382655D01*
X62444075Y-27458893D01*
X62541107Y-27555925D01*
X62617345Y-27670022D01*
X62669858Y-27796801D01*
X62696629Y-27931388D01*
X62696629Y-28068612D01*
X62669858Y-28203199D01*
X62617345Y-28329978D01*
X62541107Y-28444075D01*
X62444075Y-28541107D01*
X62329978Y-28617345D01*
X62203199Y-28669858D01*
X62068612Y-28696629D01*
X61931388Y-28696629D01*
X61796801Y-28669858D01*
X61670022Y-28617345D01*
X61555925Y-28541107D01*
X61458893Y-28444075D01*
X61382655Y-28329978D01*
X61330142Y-28203199D01*
X61303371Y-28068612D01*
X61303371Y-27931388D01*
X61330142Y-27796801D01*
X61382655Y-27670022D01*
X61458893Y-27555925D01*
X61555925Y-27458893D01*
X61670022Y-27382655D01*
X61796801Y-27330142D01*
X61931388Y-27303371D01*
X62068612Y-27303371D01*
X62203199Y-27330142D01*
G37*
G36*
X67283199Y-27330142D02*
G01*
X67409978Y-27382655D01*
X67524075Y-27458893D01*
X67621107Y-27555925D01*
X67697345Y-27670022D01*
X67749858Y-27796801D01*
X67776629Y-27931388D01*
X67776629Y-28068612D01*
X67749858Y-28203199D01*
X67697345Y-28329978D01*
X67621107Y-28444075D01*
X67524075Y-28541107D01*
X67409978Y-28617345D01*
X67283199Y-28669858D01*
X67148612Y-28696629D01*
X67011388Y-28696629D01*
X66876801Y-28669858D01*
X66750022Y-28617345D01*
X66635925Y-28541107D01*
X66538893Y-28444075D01*
X66462655Y-28329978D01*
X66410142Y-28203199D01*
X66383371Y-28068612D01*
X66383371Y-27931388D01*
X66410142Y-27796801D01*
X66462655Y-27670022D01*
X66538893Y-27555925D01*
X66635925Y-27458893D01*
X66750022Y-27382655D01*
X66876801Y-27330142D01*
X67011388Y-27303371D01*
X67148612Y-27303371D01*
X67283199Y-27330142D01*
G37*
G36*
X40422228Y-26314448D02*
G01*
X40567117Y-26374463D01*
X40697515Y-26461592D01*
X40808408Y-26572485D01*
X40895537Y-26702883D01*
X40955552Y-26847772D01*
X40986148Y-27001586D01*
X40986148Y-27158414D01*
X40955552Y-27312228D01*
X40895537Y-27457117D01*
X40808408Y-27587515D01*
X40697515Y-27698408D01*
X40567117Y-27785537D01*
X40422228Y-27845552D01*
X40268414Y-27876148D01*
X40111586Y-27876148D01*
X39957772Y-27845552D01*
X39812883Y-27785537D01*
X39682485Y-27698408D01*
X39571592Y-27587515D01*
X39484463Y-27457117D01*
X39424448Y-27312228D01*
X39393852Y-27158414D01*
X39393852Y-27001586D01*
X39424448Y-26847772D01*
X39484463Y-26702883D01*
X39571592Y-26572485D01*
X39682485Y-26461592D01*
X39812883Y-26374463D01*
X39957772Y-26314448D01*
X40111586Y-26283852D01*
X40268414Y-26283852D01*
X40422228Y-26314448D01*
G37*
G36*
X48042228Y-26314448D02*
G01*
X48187117Y-26374463D01*
X48317515Y-26461592D01*
X48428408Y-26572485D01*
X48515537Y-26702883D01*
X48575552Y-26847772D01*
X48606148Y-27001586D01*
X48606148Y-27158414D01*
X48575552Y-27312228D01*
X48515537Y-27457117D01*
X48428408Y-27587515D01*
X48317515Y-27698408D01*
X48187117Y-27785537D01*
X48042228Y-27845552D01*
X47888414Y-27876148D01*
X47731586Y-27876148D01*
X47577772Y-27845552D01*
X47432883Y-27785537D01*
X47302485Y-27698408D01*
X47191592Y-27587515D01*
X47104463Y-27457117D01*
X47044448Y-27312228D01*
X47013852Y-27158414D01*
X47013852Y-27001586D01*
X47044448Y-26847772D01*
X47104463Y-26702883D01*
X47191592Y-26572485D01*
X47302485Y-26461592D01*
X47432883Y-26374463D01*
X47577772Y-26314448D01*
X47731586Y-26283852D01*
X47888414Y-26283852D01*
X48042228Y-26314448D01*
G37*
G36*
X7203199Y-24830142D02*
G01*
X7329978Y-24882655D01*
X7444075Y-24958893D01*
X7541107Y-25055925D01*
X7617345Y-25170022D01*
X7669858Y-25296801D01*
X7696629Y-25431388D01*
X7696629Y-25568612D01*
X7669858Y-25703199D01*
X7617345Y-25829978D01*
X7541107Y-25944075D01*
X7444075Y-26041107D01*
X7329978Y-26117345D01*
X7203199Y-26169858D01*
X7068612Y-26196629D01*
X6931388Y-26196629D01*
X6796801Y-26169858D01*
X6670022Y-26117345D01*
X6555925Y-26041107D01*
X6458893Y-25944075D01*
X6382655Y-25829978D01*
X6330142Y-25703199D01*
X6303371Y-25568612D01*
X6303371Y-25431388D01*
X6330142Y-25296801D01*
X6382655Y-25170022D01*
X6458893Y-25055925D01*
X6555925Y-24958893D01*
X6670022Y-24882655D01*
X6796801Y-24830142D01*
X6931388Y-24803371D01*
X7068612Y-24803371D01*
X7203199Y-24830142D01*
G37*
G36*
X12283199Y-24830142D02*
G01*
X12409978Y-24882655D01*
X12524075Y-24958893D01*
X12621107Y-25055925D01*
X12697345Y-25170022D01*
X12749858Y-25296801D01*
X12776629Y-25431388D01*
X12776629Y-25568612D01*
X12749858Y-25703199D01*
X12697345Y-25829978D01*
X12621107Y-25944075D01*
X12524075Y-26041107D01*
X12409978Y-26117345D01*
X12283199Y-26169858D01*
X12148612Y-26196629D01*
X12011388Y-26196629D01*
X11876801Y-26169858D01*
X11750022Y-26117345D01*
X11635925Y-26041107D01*
X11538893Y-25944075D01*
X11462655Y-25829978D01*
X11410142Y-25703199D01*
X11383371Y-25568612D01*
X11383371Y-25431388D01*
X11410142Y-25296801D01*
X11462655Y-25170022D01*
X11538893Y-25055925D01*
X11635925Y-24958893D01*
X11750022Y-24882655D01*
X11876801Y-24830142D01*
X12011388Y-24803371D01*
X12148612Y-24803371D01*
X12283199Y-24830142D01*
G37*
G36*
X72203199Y-24830142D02*
G01*
X72329978Y-24882655D01*
X72444075Y-24958893D01*
X72541107Y-25055925D01*
X72617345Y-25170022D01*
X72669858Y-25296801D01*
X72696629Y-25431388D01*
X72696629Y-25568612D01*
X72669858Y-25703199D01*
X72617345Y-25829978D01*
X72541107Y-25944075D01*
X72444075Y-26041107D01*
X72329978Y-26117345D01*
X72203199Y-26169858D01*
X72068612Y-26196629D01*
X71931388Y-26196629D01*
X71796801Y-26169858D01*
X71670022Y-26117345D01*
X71555925Y-26041107D01*
X71458893Y-25944075D01*
X71382655Y-25829978D01*
X71330142Y-25703199D01*
X71303371Y-25568612D01*
X71303371Y-25431388D01*
X71330142Y-25296801D01*
X71382655Y-25170022D01*
X71458893Y-25055925D01*
X71555925Y-24958893D01*
X71670022Y-24882655D01*
X71796801Y-24830142D01*
X71931388Y-24803371D01*
X72068612Y-24803371D01*
X72203199Y-24830142D01*
G37*
G36*
X77283199Y-24830142D02*
G01*
X77409978Y-24882655D01*
X77524075Y-24958893D01*
X77621107Y-25055925D01*
X77697345Y-25170022D01*
X77749858Y-25296801D01*
X77776629Y-25431388D01*
X77776629Y-25568612D01*
X77749858Y-25703199D01*
X77697345Y-25829978D01*
X77621107Y-25944075D01*
X77524075Y-26041107D01*
X77409978Y-26117345D01*
X77283199Y-26169858D01*
X77148612Y-26196629D01*
X77011388Y-26196629D01*
X76876801Y-26169858D01*
X76750022Y-26117345D01*
X76635925Y-26041107D01*
X76538893Y-25944075D01*
X76462655Y-25829978D01*
X76410142Y-25703199D01*
X76383371Y-25568612D01*
X76383371Y-25431388D01*
X76410142Y-25296801D01*
X76462655Y-25170022D01*
X76538893Y-25055925D01*
X76635925Y-24958893D01*
X76750022Y-24882655D01*
X76876801Y-24830142D01*
X77011388Y-24803371D01*
X77148612Y-24803371D01*
X77283199Y-24830142D01*
G37*
G36*
X40422228Y-23774448D02*
G01*
X40567117Y-23834463D01*
X40697515Y-23921592D01*
X40808408Y-24032485D01*
X40895537Y-24162883D01*
X40955552Y-24307772D01*
X40986148Y-24461586D01*
X40986148Y-24618414D01*
X40955552Y-24772228D01*
X40895537Y-24917117D01*
X40808408Y-25047515D01*
X40697515Y-25158408D01*
X40567117Y-25245537D01*
X40422228Y-25305552D01*
X40268414Y-25336148D01*
X40111586Y-25336148D01*
X39957772Y-25305552D01*
X39812883Y-25245537D01*
X39682485Y-25158408D01*
X39571592Y-25047515D01*
X39484463Y-24917117D01*
X39424448Y-24772228D01*
X39393852Y-24618414D01*
X39393852Y-24461586D01*
X39424448Y-24307772D01*
X39484463Y-24162883D01*
X39571592Y-24032485D01*
X39682485Y-23921592D01*
X39812883Y-23834463D01*
X39957772Y-23774448D01*
X40111586Y-23743852D01*
X40268414Y-23743852D01*
X40422228Y-23774448D01*
G37*
G36*
X48042228Y-23774448D02*
G01*
X48187117Y-23834463D01*
X48317515Y-23921592D01*
X48428408Y-24032485D01*
X48515537Y-24162883D01*
X48575552Y-24307772D01*
X48606148Y-24461586D01*
X48606148Y-24618414D01*
X48575552Y-24772228D01*
X48515537Y-24917117D01*
X48428408Y-25047515D01*
X48317515Y-25158408D01*
X48187117Y-25245537D01*
X48042228Y-25305552D01*
X47888414Y-25336148D01*
X47731586Y-25336148D01*
X47577772Y-25305552D01*
X47432883Y-25245537D01*
X47302485Y-25158408D01*
X47191592Y-25047515D01*
X47104463Y-24917117D01*
X47044448Y-24772228D01*
X47013852Y-24618414D01*
X47013852Y-24461586D01*
X47044448Y-24307772D01*
X47104463Y-24162883D01*
X47191592Y-24032485D01*
X47302485Y-23921592D01*
X47432883Y-23834463D01*
X47577772Y-23774448D01*
X47731586Y-23743852D01*
X47888414Y-23743852D01*
X48042228Y-23774448D01*
G37*
G36*
X26232228Y-23734448D02*
G01*
X26377117Y-23794463D01*
X26507515Y-23881592D01*
X26618408Y-23992485D01*
X26705537Y-24122883D01*
X26765552Y-24267772D01*
X26796148Y-24421586D01*
X26796148Y-24578414D01*
X26765552Y-24732228D01*
X26705537Y-24877117D01*
X26618408Y-25007515D01*
X26507515Y-25118408D01*
X26377117Y-25205537D01*
X26232228Y-25265552D01*
X26078414Y-25296148D01*
X25921586Y-25296148D01*
X25767772Y-25265552D01*
X25622883Y-25205537D01*
X25492485Y-25118408D01*
X25381592Y-25007515D01*
X25294463Y-24877117D01*
X25234448Y-24732228D01*
X25203852Y-24578414D01*
X25203852Y-24421586D01*
X25234448Y-24267772D01*
X25294463Y-24122883D01*
X25381592Y-23992485D01*
X25492485Y-23881592D01*
X25622883Y-23794463D01*
X25767772Y-23734448D01*
X25921586Y-23703852D01*
X26078414Y-23703852D01*
X26232228Y-23734448D01*
G37*
G36*
X28732228Y-23734448D02*
G01*
X28877117Y-23794463D01*
X29007515Y-23881592D01*
X29118408Y-23992485D01*
X29205537Y-24122883D01*
X29265552Y-24267772D01*
X29296148Y-24421586D01*
X29296148Y-24578414D01*
X29265552Y-24732228D01*
X29205537Y-24877117D01*
X29118408Y-25007515D01*
X29007515Y-25118408D01*
X28877117Y-25205537D01*
X28732228Y-25265552D01*
X28578414Y-25296148D01*
X28421586Y-25296148D01*
X28267772Y-25265552D01*
X28122883Y-25205537D01*
X27992485Y-25118408D01*
X27881592Y-25007515D01*
X27794463Y-24877117D01*
X27734448Y-24732228D01*
X27703852Y-24578414D01*
X27703852Y-24421586D01*
X27734448Y-24267772D01*
X27794463Y-24122883D01*
X27881592Y-23992485D01*
X27992485Y-23881592D01*
X28122883Y-23794463D01*
X28267772Y-23734448D01*
X28421586Y-23703852D01*
X28578414Y-23703852D01*
X28732228Y-23734448D01*
G37*
G36*
X52232228Y-23734448D02*
G01*
X52377117Y-23794463D01*
X52507515Y-23881592D01*
X52618408Y-23992485D01*
X52705537Y-24122883D01*
X52765552Y-24267772D01*
X52796148Y-24421586D01*
X52796148Y-24578414D01*
X52765552Y-24732228D01*
X52705537Y-24877117D01*
X52618408Y-25007515D01*
X52507515Y-25118408D01*
X52377117Y-25205537D01*
X52232228Y-25265552D01*
X52078414Y-25296148D01*
X51921586Y-25296148D01*
X51767772Y-25265552D01*
X51622883Y-25205537D01*
X51492485Y-25118408D01*
X51381592Y-25007515D01*
X51294463Y-24877117D01*
X51234448Y-24732228D01*
X51203852Y-24578414D01*
X51203852Y-24421586D01*
X51234448Y-24267772D01*
X51294463Y-24122883D01*
X51381592Y-23992485D01*
X51492485Y-23881592D01*
X51622883Y-23794463D01*
X51767772Y-23734448D01*
X51921586Y-23703852D01*
X52078414Y-23703852D01*
X52232228Y-23734448D01*
G37*
G36*
X54732228Y-23734448D02*
G01*
X54877117Y-23794463D01*
X55007515Y-23881592D01*
X55118408Y-23992485D01*
X55205537Y-24122883D01*
X55265552Y-24267772D01*
X55296148Y-24421586D01*
X55296148Y-24578414D01*
X55265552Y-24732228D01*
X55205537Y-24877117D01*
X55118408Y-25007515D01*
X55007515Y-25118408D01*
X54877117Y-25205537D01*
X54732228Y-25265552D01*
X54578414Y-25296148D01*
X54421586Y-25296148D01*
X54267772Y-25265552D01*
X54122883Y-25205537D01*
X53992485Y-25118408D01*
X53881592Y-25007515D01*
X53794463Y-24877117D01*
X53734448Y-24732228D01*
X53703852Y-24578414D01*
X53703852Y-24421586D01*
X53734448Y-24267772D01*
X53794463Y-24122883D01*
X53881592Y-23992485D01*
X53992485Y-23881592D01*
X54122883Y-23794463D01*
X54267772Y-23734448D01*
X54421586Y-23703852D01*
X54578414Y-23703852D01*
X54732228Y-23734448D01*
G37*
G36*
X16203199Y-23830142D02*
G01*
X16329978Y-23882655D01*
X16444075Y-23958893D01*
X16541107Y-24055925D01*
X16617345Y-24170022D01*
X16669858Y-24296801D01*
X16696629Y-24431388D01*
X16696629Y-24568612D01*
X16669858Y-24703199D01*
X16617345Y-24829978D01*
X16541107Y-24944075D01*
X16444075Y-25041107D01*
X16329978Y-25117345D01*
X16203199Y-25169858D01*
X16068612Y-25196629D01*
X15931388Y-25196629D01*
X15796801Y-25169858D01*
X15670022Y-25117345D01*
X15555925Y-25041107D01*
X15458893Y-24944075D01*
X15382655Y-24829978D01*
X15330142Y-24703199D01*
X15303371Y-24568612D01*
X15303371Y-24431388D01*
X15330142Y-24296801D01*
X15382655Y-24170022D01*
X15458893Y-24055925D01*
X15555925Y-23958893D01*
X15670022Y-23882655D01*
X15796801Y-23830142D01*
X15931388Y-23803371D01*
X16068612Y-23803371D01*
X16203199Y-23830142D01*
G37*
G36*
X21283199Y-23830142D02*
G01*
X21409978Y-23882655D01*
X21524075Y-23958893D01*
X21621107Y-24055925D01*
X21697345Y-24170022D01*
X21749858Y-24296801D01*
X21776629Y-24431388D01*
X21776629Y-24568612D01*
X21749858Y-24703199D01*
X21697345Y-24829978D01*
X21621107Y-24944075D01*
X21524075Y-25041107D01*
X21409978Y-25117345D01*
X21283199Y-25169858D01*
X21148612Y-25196629D01*
X21011388Y-25196629D01*
X20876801Y-25169858D01*
X20750022Y-25117345D01*
X20635925Y-25041107D01*
X20538893Y-24944075D01*
X20462655Y-24829978D01*
X20410142Y-24703199D01*
X20383371Y-24568612D01*
X20383371Y-24431388D01*
X20410142Y-24296801D01*
X20462655Y-24170022D01*
X20538893Y-24055925D01*
X20635925Y-23958893D01*
X20750022Y-23882655D01*
X20876801Y-23830142D01*
X21011388Y-23803371D01*
X21148612Y-23803371D01*
X21283199Y-23830142D01*
G37*
G36*
X62203199Y-23830142D02*
G01*
X62329978Y-23882655D01*
X62444075Y-23958893D01*
X62541107Y-24055925D01*
X62617345Y-24170022D01*
X62669858Y-24296801D01*
X62696629Y-24431388D01*
X62696629Y-24568612D01*
X62669858Y-24703199D01*
X62617345Y-24829978D01*
X62541107Y-24944075D01*
X62444075Y-25041107D01*
X62329978Y-25117345D01*
X62203199Y-25169858D01*
X62068612Y-25196629D01*
X61931388Y-25196629D01*
X61796801Y-25169858D01*
X61670022Y-25117345D01*
X61555925Y-25041107D01*
X61458893Y-24944075D01*
X61382655Y-24829978D01*
X61330142Y-24703199D01*
X61303371Y-24568612D01*
X61303371Y-24431388D01*
X61330142Y-24296801D01*
X61382655Y-24170022D01*
X61458893Y-24055925D01*
X61555925Y-23958893D01*
X61670022Y-23882655D01*
X61796801Y-23830142D01*
X61931388Y-23803371D01*
X62068612Y-23803371D01*
X62203199Y-23830142D01*
G37*
G36*
X67283199Y-23830142D02*
G01*
X67409978Y-23882655D01*
X67524075Y-23958893D01*
X67621107Y-24055925D01*
X67697345Y-24170022D01*
X67749858Y-24296801D01*
X67776629Y-24431388D01*
X67776629Y-24568612D01*
X67749858Y-24703199D01*
X67697345Y-24829978D01*
X67621107Y-24944075D01*
X67524075Y-25041107D01*
X67409978Y-25117345D01*
X67283199Y-25169858D01*
X67148612Y-25196629D01*
X67011388Y-25196629D01*
X66876801Y-25169858D01*
X66750022Y-25117345D01*
X66635925Y-25041107D01*
X66538893Y-24944075D01*
X66462655Y-24829978D01*
X66410142Y-24703199D01*
X66383371Y-24568612D01*
X66383371Y-24431388D01*
X66410142Y-24296801D01*
X66462655Y-24170022D01*
X66538893Y-24055925D01*
X66635925Y-23958893D01*
X66750022Y-23882655D01*
X66876801Y-23830142D01*
X67011388Y-23803371D01*
X67148612Y-23803371D01*
X67283199Y-23830142D01*
G37*
G36*
X40743231Y-21200642D02*
G01*
X40795772Y-21206738D01*
X40813723Y-21214664D01*
X40835671Y-21219030D01*
X40859166Y-21234729D01*
X40880890Y-21244321D01*
X40895726Y-21259157D01*
X40916777Y-21273223D01*
X40930842Y-21294273D01*
X40945678Y-21309109D01*
X40955269Y-21330830D01*
X40970970Y-21354329D01*
X40975335Y-21376277D01*
X40983260Y-21394224D01*
X40989352Y-21446747D01*
X40990000Y-21450000D01*
X40990000Y-22550000D01*
X40989354Y-22553243D01*
X40983261Y-22605772D01*
X40975336Y-22623719D01*
X40970970Y-22645671D01*
X40955267Y-22669171D01*
X40945678Y-22690890D01*
X40930844Y-22705723D01*
X40916777Y-22726777D01*
X40895723Y-22740844D01*
X40880890Y-22755678D01*
X40859170Y-22765267D01*
X40835671Y-22780970D01*
X40813720Y-22785336D01*
X40795775Y-22793260D01*
X40743254Y-22799352D01*
X40740000Y-22800000D01*
X39640000Y-22800000D01*
X39636758Y-22799355D01*
X39584227Y-22793261D01*
X39566278Y-22785335D01*
X39544329Y-22780970D01*
X39520830Y-22765268D01*
X39499109Y-22755678D01*
X39484273Y-22740842D01*
X39463223Y-22726777D01*
X39449157Y-22705726D01*
X39434321Y-22690890D01*
X39424729Y-22669166D01*
X39409030Y-22645671D01*
X39404664Y-22623724D01*
X39396739Y-22605775D01*
X39390644Y-22553242D01*
X39390000Y-22550000D01*
X39390000Y-21450000D01*
X39390642Y-21446770D01*
X39396738Y-21394227D01*
X39404664Y-21376274D01*
X39409030Y-21354329D01*
X39424728Y-21330835D01*
X39434321Y-21309109D01*
X39449159Y-21294270D01*
X39463223Y-21273223D01*
X39484270Y-21259159D01*
X39499109Y-21244321D01*
X39520835Y-21234727D01*
X39544329Y-21219030D01*
X39566273Y-21214665D01*
X39584224Y-21206739D01*
X39636759Y-21200644D01*
X39640000Y-21200000D01*
X40740000Y-21200000D01*
X40743231Y-21200642D01*
G37*
G36*
X48042228Y-21234448D02*
G01*
X48187117Y-21294463D01*
X48317515Y-21381592D01*
X48428408Y-21492485D01*
X48515537Y-21622883D01*
X48575552Y-21767772D01*
X48606148Y-21921586D01*
X48606148Y-22078414D01*
X48575552Y-22232228D01*
X48515537Y-22377117D01*
X48428408Y-22507515D01*
X48317515Y-22618408D01*
X48187117Y-22705537D01*
X48042228Y-22765552D01*
X47888414Y-22796148D01*
X47731586Y-22796148D01*
X47577772Y-22765552D01*
X47432883Y-22705537D01*
X47302485Y-22618408D01*
X47191592Y-22507515D01*
X47104463Y-22377117D01*
X47044448Y-22232228D01*
X47013852Y-22078414D01*
X47013852Y-21921586D01*
X47044448Y-21767772D01*
X47104463Y-21622883D01*
X47191592Y-21492485D01*
X47302485Y-21381592D01*
X47432883Y-21294463D01*
X47577772Y-21234448D01*
X47731586Y-21203852D01*
X47888414Y-21203852D01*
X48042228Y-21234448D01*
G37*
G36*
X7553231Y-20200642D02*
G01*
X7605772Y-20206738D01*
X7623723Y-20214664D01*
X7645671Y-20219030D01*
X7669166Y-20234729D01*
X7690890Y-20244321D01*
X7705726Y-20259157D01*
X7726777Y-20273223D01*
X7740842Y-20294273D01*
X7755678Y-20309109D01*
X7765269Y-20330830D01*
X7780970Y-20354329D01*
X7785335Y-20376277D01*
X7793260Y-20394224D01*
X7799352Y-20446747D01*
X7800000Y-20450000D01*
X7800000Y-21550000D01*
X7799354Y-21553243D01*
X7793261Y-21605772D01*
X7785336Y-21623719D01*
X7780970Y-21645671D01*
X7765267Y-21669171D01*
X7755678Y-21690890D01*
X7740844Y-21705723D01*
X7726777Y-21726777D01*
X7705723Y-21740844D01*
X7690890Y-21755678D01*
X7669170Y-21765267D01*
X7645671Y-21780970D01*
X7623720Y-21785336D01*
X7605775Y-21793260D01*
X7553254Y-21799352D01*
X7550000Y-21800000D01*
X6450000Y-21800000D01*
X6446758Y-21799355D01*
X6394227Y-21793261D01*
X6376278Y-21785335D01*
X6354329Y-21780970D01*
X6330830Y-21765268D01*
X6309109Y-21755678D01*
X6294273Y-21740842D01*
X6273223Y-21726777D01*
X6259157Y-21705726D01*
X6244321Y-21690890D01*
X6234729Y-21669166D01*
X6219030Y-21645671D01*
X6214664Y-21623724D01*
X6206739Y-21605775D01*
X6200644Y-21553242D01*
X6200000Y-21550000D01*
X6200000Y-20450000D01*
X6200642Y-20446770D01*
X6206738Y-20394227D01*
X6214664Y-20376274D01*
X6219030Y-20354329D01*
X6234728Y-20330835D01*
X6244321Y-20309109D01*
X6259159Y-20294270D01*
X6273223Y-20273223D01*
X6294270Y-20259159D01*
X6309109Y-20244321D01*
X6330835Y-20234727D01*
X6354329Y-20219030D01*
X6376273Y-20214665D01*
X6394224Y-20206739D01*
X6446759Y-20200644D01*
X6450000Y-20200000D01*
X7550000Y-20200000D01*
X7553231Y-20200642D01*
G37*
G36*
X72553231Y-20200642D02*
G01*
X72605772Y-20206738D01*
X72623723Y-20214664D01*
X72645671Y-20219030D01*
X72669166Y-20234729D01*
X72690890Y-20244321D01*
X72705726Y-20259157D01*
X72726777Y-20273223D01*
X72740842Y-20294273D01*
X72755678Y-20309109D01*
X72765269Y-20330830D01*
X72780970Y-20354329D01*
X72785335Y-20376277D01*
X72793260Y-20394224D01*
X72799352Y-20446747D01*
X72800000Y-20450000D01*
X72800000Y-21550000D01*
X72799354Y-21553243D01*
X72793261Y-21605772D01*
X72785336Y-21623719D01*
X72780970Y-21645671D01*
X72765267Y-21669171D01*
X72755678Y-21690890D01*
X72740844Y-21705723D01*
X72726777Y-21726777D01*
X72705723Y-21740844D01*
X72690890Y-21755678D01*
X72669170Y-21765267D01*
X72645671Y-21780970D01*
X72623720Y-21785336D01*
X72605775Y-21793260D01*
X72553254Y-21799352D01*
X72550000Y-21800000D01*
X71450000Y-21800000D01*
X71446758Y-21799355D01*
X71394227Y-21793261D01*
X71376278Y-21785335D01*
X71354329Y-21780970D01*
X71330830Y-21765268D01*
X71309109Y-21755678D01*
X71294273Y-21740842D01*
X71273223Y-21726777D01*
X71259157Y-21705726D01*
X71244321Y-21690890D01*
X71234729Y-21669166D01*
X71219030Y-21645671D01*
X71214664Y-21623724D01*
X71206739Y-21605775D01*
X71200644Y-21553242D01*
X71200000Y-21550000D01*
X71200000Y-20450000D01*
X71200642Y-20446770D01*
X71206738Y-20394227D01*
X71214664Y-20376274D01*
X71219030Y-20354329D01*
X71234728Y-20330835D01*
X71244321Y-20309109D01*
X71259159Y-20294270D01*
X71273223Y-20273223D01*
X71294270Y-20259159D01*
X71309109Y-20244321D01*
X71330835Y-20234727D01*
X71354329Y-20219030D01*
X71376273Y-20214665D01*
X71394224Y-20206739D01*
X71446759Y-20200644D01*
X71450000Y-20200000D01*
X72550000Y-20200000D01*
X72553231Y-20200642D01*
G37*
G36*
X9232228Y-20234448D02*
G01*
X9377117Y-20294463D01*
X9507515Y-20381592D01*
X9618408Y-20492485D01*
X9705537Y-20622883D01*
X9765552Y-20767772D01*
X9796148Y-20921586D01*
X9796148Y-21078414D01*
X9765552Y-21232228D01*
X9705537Y-21377117D01*
X9618408Y-21507515D01*
X9507515Y-21618408D01*
X9377117Y-21705537D01*
X9232228Y-21765552D01*
X9078414Y-21796148D01*
X8921586Y-21796148D01*
X8767772Y-21765552D01*
X8622883Y-21705537D01*
X8492485Y-21618408D01*
X8381592Y-21507515D01*
X8294463Y-21377117D01*
X8234448Y-21232228D01*
X8203852Y-21078414D01*
X8203852Y-20921586D01*
X8234448Y-20767772D01*
X8294463Y-20622883D01*
X8381592Y-20492485D01*
X8492485Y-20381592D01*
X8622883Y-20294463D01*
X8767772Y-20234448D01*
X8921586Y-20203852D01*
X9078414Y-20203852D01*
X9232228Y-20234448D01*
G37*
G36*
X26232228Y-20234448D02*
G01*
X26377117Y-20294463D01*
X26507515Y-20381592D01*
X26618408Y-20492485D01*
X26705537Y-20622883D01*
X26765552Y-20767772D01*
X26796148Y-20921586D01*
X26796148Y-21078414D01*
X26765552Y-21232228D01*
X26705537Y-21377117D01*
X26618408Y-21507515D01*
X26507515Y-21618408D01*
X26377117Y-21705537D01*
X26232228Y-21765552D01*
X26078414Y-21796148D01*
X25921586Y-21796148D01*
X25767772Y-21765552D01*
X25622883Y-21705537D01*
X25492485Y-21618408D01*
X25381592Y-21507515D01*
X25294463Y-21377117D01*
X25234448Y-21232228D01*
X25203852Y-21078414D01*
X25203852Y-20921586D01*
X25234448Y-20767772D01*
X25294463Y-20622883D01*
X25381592Y-20492485D01*
X25492485Y-20381592D01*
X25622883Y-20294463D01*
X25767772Y-20234448D01*
X25921586Y-20203852D01*
X26078414Y-20203852D01*
X26232228Y-20234448D01*
G37*
G36*
X28732228Y-20234448D02*
G01*
X28877117Y-20294463D01*
X29007515Y-20381592D01*
X29118408Y-20492485D01*
X29205537Y-20622883D01*
X29265552Y-20767772D01*
X29296148Y-20921586D01*
X29296148Y-21078414D01*
X29265552Y-21232228D01*
X29205537Y-21377117D01*
X29118408Y-21507515D01*
X29007515Y-21618408D01*
X28877117Y-21705537D01*
X28732228Y-21765552D01*
X28578414Y-21796148D01*
X28421586Y-21796148D01*
X28267772Y-21765552D01*
X28122883Y-21705537D01*
X27992485Y-21618408D01*
X27881592Y-21507515D01*
X27794463Y-21377117D01*
X27734448Y-21232228D01*
X27703852Y-21078414D01*
X27703852Y-20921586D01*
X27734448Y-20767772D01*
X27794463Y-20622883D01*
X27881592Y-20492485D01*
X27992485Y-20381592D01*
X28122883Y-20294463D01*
X28267772Y-20234448D01*
X28421586Y-20203852D01*
X28578414Y-20203852D01*
X28732228Y-20234448D01*
G37*
G36*
X52232228Y-20234448D02*
G01*
X52377117Y-20294463D01*
X52507515Y-20381592D01*
X52618408Y-20492485D01*
X52705537Y-20622883D01*
X52765552Y-20767772D01*
X52796148Y-20921586D01*
X52796148Y-21078414D01*
X52765552Y-21232228D01*
X52705537Y-21377117D01*
X52618408Y-21507515D01*
X52507515Y-21618408D01*
X52377117Y-21705537D01*
X52232228Y-21765552D01*
X52078414Y-21796148D01*
X51921586Y-21796148D01*
X51767772Y-21765552D01*
X51622883Y-21705537D01*
X51492485Y-21618408D01*
X51381592Y-21507515D01*
X51294463Y-21377117D01*
X51234448Y-21232228D01*
X51203852Y-21078414D01*
X51203852Y-20921586D01*
X51234448Y-20767772D01*
X51294463Y-20622883D01*
X51381592Y-20492485D01*
X51492485Y-20381592D01*
X51622883Y-20294463D01*
X51767772Y-20234448D01*
X51921586Y-20203852D01*
X52078414Y-20203852D01*
X52232228Y-20234448D01*
G37*
G36*
X54732228Y-20234448D02*
G01*
X54877117Y-20294463D01*
X55007515Y-20381592D01*
X55118408Y-20492485D01*
X55205537Y-20622883D01*
X55265552Y-20767772D01*
X55296148Y-20921586D01*
X55296148Y-21078414D01*
X55265552Y-21232228D01*
X55205537Y-21377117D01*
X55118408Y-21507515D01*
X55007515Y-21618408D01*
X54877117Y-21705537D01*
X54732228Y-21765552D01*
X54578414Y-21796148D01*
X54421586Y-21796148D01*
X54267772Y-21765552D01*
X54122883Y-21705537D01*
X53992485Y-21618408D01*
X53881592Y-21507515D01*
X53794463Y-21377117D01*
X53734448Y-21232228D01*
X53703852Y-21078414D01*
X53703852Y-20921586D01*
X53734448Y-20767772D01*
X53794463Y-20622883D01*
X53881592Y-20492485D01*
X53992485Y-20381592D01*
X54122883Y-20294463D01*
X54267772Y-20234448D01*
X54421586Y-20203852D01*
X54578414Y-20203852D01*
X54732228Y-20234448D01*
G37*
G36*
X74232228Y-20234448D02*
G01*
X74377117Y-20294463D01*
X74507515Y-20381592D01*
X74618408Y-20492485D01*
X74705537Y-20622883D01*
X74765552Y-20767772D01*
X74796148Y-20921586D01*
X74796148Y-21078414D01*
X74765552Y-21232228D01*
X74705537Y-21377117D01*
X74618408Y-21507515D01*
X74507515Y-21618408D01*
X74377117Y-21705537D01*
X74232228Y-21765552D01*
X74078414Y-21796148D01*
X73921586Y-21796148D01*
X73767772Y-21765552D01*
X73622883Y-21705537D01*
X73492485Y-21618408D01*
X73381592Y-21507515D01*
X73294463Y-21377117D01*
X73234448Y-21232228D01*
X73203852Y-21078414D01*
X73203852Y-20921586D01*
X73234448Y-20767772D01*
X73294463Y-20622883D01*
X73381592Y-20492485D01*
X73492485Y-20381592D01*
X73622883Y-20294463D01*
X73767772Y-20234448D01*
X73921586Y-20203852D01*
X74078414Y-20203852D01*
X74232228Y-20234448D01*
G37*
G36*
X16203199Y-20330142D02*
G01*
X16329978Y-20382655D01*
X16444075Y-20458893D01*
X16541107Y-20555925D01*
X16617345Y-20670022D01*
X16669858Y-20796801D01*
X16696629Y-20931388D01*
X16696629Y-21068612D01*
X16669858Y-21203199D01*
X16617345Y-21329978D01*
X16541107Y-21444075D01*
X16444075Y-21541107D01*
X16329978Y-21617345D01*
X16203199Y-21669858D01*
X16068612Y-21696629D01*
X15931388Y-21696629D01*
X15796801Y-21669858D01*
X15670022Y-21617345D01*
X15555925Y-21541107D01*
X15458893Y-21444075D01*
X15382655Y-21329978D01*
X15330142Y-21203199D01*
X15303371Y-21068612D01*
X15303371Y-20931388D01*
X15330142Y-20796801D01*
X15382655Y-20670022D01*
X15458893Y-20555925D01*
X15555925Y-20458893D01*
X15670022Y-20382655D01*
X15796801Y-20330142D01*
X15931388Y-20303371D01*
X16068612Y-20303371D01*
X16203199Y-20330142D01*
G37*
G36*
X21283199Y-20330142D02*
G01*
X21409978Y-20382655D01*
X21524075Y-20458893D01*
X21621107Y-20555925D01*
X21697345Y-20670022D01*
X21749858Y-20796801D01*
X21776629Y-20931388D01*
X21776629Y-21068612D01*
X21749858Y-21203199D01*
X21697345Y-21329978D01*
X21621107Y-21444075D01*
X21524075Y-21541107D01*
X21409978Y-21617345D01*
X21283199Y-21669858D01*
X21148612Y-21696629D01*
X21011388Y-21696629D01*
X20876801Y-21669858D01*
X20750022Y-21617345D01*
X20635925Y-21541107D01*
X20538893Y-21444075D01*
X20462655Y-21329978D01*
X20410142Y-21203199D01*
X20383371Y-21068612D01*
X20383371Y-20931388D01*
X20410142Y-20796801D01*
X20462655Y-20670022D01*
X20538893Y-20555925D01*
X20635925Y-20458893D01*
X20750022Y-20382655D01*
X20876801Y-20330142D01*
X21011388Y-20303371D01*
X21148612Y-20303371D01*
X21283199Y-20330142D01*
G37*
G36*
X62203199Y-20330142D02*
G01*
X62329978Y-20382655D01*
X62444075Y-20458893D01*
X62541107Y-20555925D01*
X62617345Y-20670022D01*
X62669858Y-20796801D01*
X62696629Y-20931388D01*
X62696629Y-21068612D01*
X62669858Y-21203199D01*
X62617345Y-21329978D01*
X62541107Y-21444075D01*
X62444075Y-21541107D01*
X62329978Y-21617345D01*
X62203199Y-21669858D01*
X62068612Y-21696629D01*
X61931388Y-21696629D01*
X61796801Y-21669858D01*
X61670022Y-21617345D01*
X61555925Y-21541107D01*
X61458893Y-21444075D01*
X61382655Y-21329978D01*
X61330142Y-21203199D01*
X61303371Y-21068612D01*
X61303371Y-20931388D01*
X61330142Y-20796801D01*
X61382655Y-20670022D01*
X61458893Y-20555925D01*
X61555925Y-20458893D01*
X61670022Y-20382655D01*
X61796801Y-20330142D01*
X61931388Y-20303371D01*
X62068612Y-20303371D01*
X62203199Y-20330142D01*
G37*
G36*
X67283199Y-20330142D02*
G01*
X67409978Y-20382655D01*
X67524075Y-20458893D01*
X67621107Y-20555925D01*
X67697345Y-20670022D01*
X67749858Y-20796801D01*
X67776629Y-20931388D01*
X67776629Y-21068612D01*
X67749858Y-21203199D01*
X67697345Y-21329978D01*
X67621107Y-21444075D01*
X67524075Y-21541107D01*
X67409978Y-21617345D01*
X67283199Y-21669858D01*
X67148612Y-21696629D01*
X67011388Y-21696629D01*
X66876801Y-21669858D01*
X66750022Y-21617345D01*
X66635925Y-21541107D01*
X66538893Y-21444075D01*
X66462655Y-21329978D01*
X66410142Y-21203199D01*
X66383371Y-21068612D01*
X66383371Y-20931388D01*
X66410142Y-20796801D01*
X66462655Y-20670022D01*
X66538893Y-20555925D01*
X66635925Y-20458893D01*
X66750022Y-20382655D01*
X66876801Y-20330142D01*
X67011388Y-20303371D01*
X67148612Y-20303371D01*
X67283199Y-20330142D01*
G37*
G36*
X14261256Y-14138754D02*
G01*
X14424257Y-14206271D01*
X14570954Y-14304291D01*
X14695709Y-14429046D01*
X14793729Y-14575743D01*
X14861246Y-14738744D01*
X14895666Y-14911785D01*
X14895666Y-15088215D01*
X14861246Y-15261256D01*
X14793729Y-15424257D01*
X14695709Y-15570954D01*
X14570954Y-15695709D01*
X14424257Y-15793729D01*
X14261256Y-15861246D01*
X14088215Y-15895666D01*
X13911785Y-15895666D01*
X13738744Y-15861246D01*
X13575743Y-15793729D01*
X13429046Y-15695709D01*
X13304291Y-15570954D01*
X13206271Y-15424257D01*
X13138754Y-15261256D01*
X13104334Y-15088215D01*
X13104334Y-14911785D01*
X13138754Y-14738744D01*
X13206271Y-14575743D01*
X13304291Y-14429046D01*
X13429046Y-14304291D01*
X13575743Y-14206271D01*
X13738744Y-14138754D01*
X13911785Y-14104334D01*
X14088215Y-14104334D01*
X14261256Y-14138754D01*
G37*
G36*
X16761256Y-14138754D02*
G01*
X16924257Y-14206271D01*
X17070954Y-14304291D01*
X17195709Y-14429046D01*
X17293729Y-14575743D01*
X17361246Y-14738744D01*
X17395666Y-14911785D01*
X17395666Y-15088215D01*
X17361246Y-15261256D01*
X17293729Y-15424257D01*
X17195709Y-15570954D01*
X17070954Y-15695709D01*
X16924257Y-15793729D01*
X16761256Y-15861246D01*
X16588215Y-15895666D01*
X16411785Y-15895666D01*
X16238744Y-15861246D01*
X16075743Y-15793729D01*
X15929046Y-15695709D01*
X15804291Y-15570954D01*
X15706271Y-15424257D01*
X15638754Y-15261256D01*
X15604334Y-15088215D01*
X15604334Y-14911785D01*
X15638754Y-14738744D01*
X15706271Y-14575743D01*
X15804291Y-14429046D01*
X15929046Y-14304291D01*
X16075743Y-14206271D01*
X16238744Y-14138754D01*
X16411785Y-14104334D01*
X16588215Y-14104334D01*
X16761256Y-14138754D01*
G37*
G36*
X19261256Y-14138754D02*
G01*
X19424257Y-14206271D01*
X19570954Y-14304291D01*
X19695709Y-14429046D01*
X19793729Y-14575743D01*
X19861246Y-14738744D01*
X19895666Y-14911785D01*
X19895666Y-15088215D01*
X19861246Y-15261256D01*
X19793729Y-15424257D01*
X19695709Y-15570954D01*
X19570954Y-15695709D01*
X19424257Y-15793729D01*
X19261256Y-15861246D01*
X19088215Y-15895666D01*
X18911785Y-15895666D01*
X18738744Y-15861246D01*
X18575743Y-15793729D01*
X18429046Y-15695709D01*
X18304291Y-15570954D01*
X18206271Y-15424257D01*
X18138754Y-15261256D01*
X18104334Y-15088215D01*
X18104334Y-14911785D01*
X18138754Y-14738744D01*
X18206271Y-14575743D01*
X18304291Y-14429046D01*
X18429046Y-14304291D01*
X18575743Y-14206271D01*
X18738744Y-14138754D01*
X18911785Y-14104334D01*
X19088215Y-14104334D01*
X19261256Y-14138754D01*
G37*
G36*
X28261256Y-14138754D02*
G01*
X28424257Y-14206271D01*
X28570954Y-14304291D01*
X28695709Y-14429046D01*
X28793729Y-14575743D01*
X28861246Y-14738744D01*
X28895666Y-14911785D01*
X28895666Y-15088215D01*
X28861246Y-15261256D01*
X28793729Y-15424257D01*
X28695709Y-15570954D01*
X28570954Y-15695709D01*
X28424257Y-15793729D01*
X28261256Y-15861246D01*
X28088215Y-15895666D01*
X27911785Y-15895666D01*
X27738744Y-15861246D01*
X27575743Y-15793729D01*
X27429046Y-15695709D01*
X27304291Y-15570954D01*
X27206271Y-15424257D01*
X27138754Y-15261256D01*
X27104334Y-15088215D01*
X27104334Y-14911785D01*
X27138754Y-14738744D01*
X27206271Y-14575743D01*
X27304291Y-14429046D01*
X27429046Y-14304291D01*
X27575743Y-14206271D01*
X27738744Y-14138754D01*
X27911785Y-14104334D01*
X28088215Y-14104334D01*
X28261256Y-14138754D01*
G37*
G36*
X30761256Y-14138754D02*
G01*
X30924257Y-14206271D01*
X31070954Y-14304291D01*
X31195709Y-14429046D01*
X31293729Y-14575743D01*
X31361246Y-14738744D01*
X31395666Y-14911785D01*
X31395666Y-15088215D01*
X31361246Y-15261256D01*
X31293729Y-15424257D01*
X31195709Y-15570954D01*
X31070954Y-15695709D01*
X30924257Y-15793729D01*
X30761256Y-15861246D01*
X30588215Y-15895666D01*
X30411785Y-15895666D01*
X30238744Y-15861246D01*
X30075743Y-15793729D01*
X29929046Y-15695709D01*
X29804291Y-15570954D01*
X29706271Y-15424257D01*
X29638754Y-15261256D01*
X29604334Y-15088215D01*
X29604334Y-14911785D01*
X29638754Y-14738744D01*
X29706271Y-14575743D01*
X29804291Y-14429046D01*
X29929046Y-14304291D01*
X30075743Y-14206271D01*
X30238744Y-14138754D01*
X30411785Y-14104334D01*
X30588215Y-14104334D01*
X30761256Y-14138754D01*
G37*
G36*
X33261256Y-14138754D02*
G01*
X33424257Y-14206271D01*
X33570954Y-14304291D01*
X33695709Y-14429046D01*
X33793729Y-14575743D01*
X33861246Y-14738744D01*
X33895666Y-14911785D01*
X33895666Y-15088215D01*
X33861246Y-15261256D01*
X33793729Y-15424257D01*
X33695709Y-15570954D01*
X33570954Y-15695709D01*
X33424257Y-15793729D01*
X33261256Y-15861246D01*
X33088215Y-15895666D01*
X32911785Y-15895666D01*
X32738744Y-15861246D01*
X32575743Y-15793729D01*
X32429046Y-15695709D01*
X32304291Y-15570954D01*
X32206271Y-15424257D01*
X32138754Y-15261256D01*
X32104334Y-15088215D01*
X32104334Y-14911785D01*
X32138754Y-14738744D01*
X32206271Y-14575743D01*
X32304291Y-14429046D01*
X32429046Y-14304291D01*
X32575743Y-14206271D01*
X32738744Y-14138754D01*
X32911785Y-14104334D01*
X33088215Y-14104334D01*
X33261256Y-14138754D01*
G37*
G36*
X42261256Y-14138754D02*
G01*
X42424257Y-14206271D01*
X42570954Y-14304291D01*
X42695709Y-14429046D01*
X42793729Y-14575743D01*
X42861246Y-14738744D01*
X42895666Y-14911785D01*
X42895666Y-15088215D01*
X42861246Y-15261256D01*
X42793729Y-15424257D01*
X42695709Y-15570954D01*
X42570954Y-15695709D01*
X42424257Y-15793729D01*
X42261256Y-15861246D01*
X42088215Y-15895666D01*
X41911785Y-15895666D01*
X41738744Y-15861246D01*
X41575743Y-15793729D01*
X41429046Y-15695709D01*
X41304291Y-15570954D01*
X41206271Y-15424257D01*
X41138754Y-15261256D01*
X41104334Y-15088215D01*
X41104334Y-14911785D01*
X41138754Y-14738744D01*
X41206271Y-14575743D01*
X41304291Y-14429046D01*
X41429046Y-14304291D01*
X41575743Y-14206271D01*
X41738744Y-14138754D01*
X41911785Y-14104334D01*
X42088215Y-14104334D01*
X42261256Y-14138754D01*
G37*
G36*
X44761256Y-14138754D02*
G01*
X44924257Y-14206271D01*
X45070954Y-14304291D01*
X45195709Y-14429046D01*
X45293729Y-14575743D01*
X45361246Y-14738744D01*
X45395666Y-14911785D01*
X45395666Y-15088215D01*
X45361246Y-15261256D01*
X45293729Y-15424257D01*
X45195709Y-15570954D01*
X45070954Y-15695709D01*
X44924257Y-15793729D01*
X44761256Y-15861246D01*
X44588215Y-15895666D01*
X44411785Y-15895666D01*
X44238744Y-15861246D01*
X44075743Y-15793729D01*
X43929046Y-15695709D01*
X43804291Y-15570954D01*
X43706271Y-15424257D01*
X43638754Y-15261256D01*
X43604334Y-15088215D01*
X43604334Y-14911785D01*
X43638754Y-14738744D01*
X43706271Y-14575743D01*
X43804291Y-14429046D01*
X43929046Y-14304291D01*
X44075743Y-14206271D01*
X44238744Y-14138754D01*
X44411785Y-14104334D01*
X44588215Y-14104334D01*
X44761256Y-14138754D01*
G37*
G36*
X47261256Y-14138754D02*
G01*
X47424257Y-14206271D01*
X47570954Y-14304291D01*
X47695709Y-14429046D01*
X47793729Y-14575743D01*
X47861246Y-14738744D01*
X47895666Y-14911785D01*
X47895666Y-15088215D01*
X47861246Y-15261256D01*
X47793729Y-15424257D01*
X47695709Y-15570954D01*
X47570954Y-15695709D01*
X47424257Y-15793729D01*
X47261256Y-15861246D01*
X47088215Y-15895666D01*
X46911785Y-15895666D01*
X46738744Y-15861246D01*
X46575743Y-15793729D01*
X46429046Y-15695709D01*
X46304291Y-15570954D01*
X46206271Y-15424257D01*
X46138754Y-15261256D01*
X46104334Y-15088215D01*
X46104334Y-14911785D01*
X46138754Y-14738744D01*
X46206271Y-14575743D01*
X46304291Y-14429046D01*
X46429046Y-14304291D01*
X46575743Y-14206271D01*
X46738744Y-14138754D01*
X46911785Y-14104334D01*
X47088215Y-14104334D01*
X47261256Y-14138754D01*
G37*
G36*
X56261256Y-14138754D02*
G01*
X56424257Y-14206271D01*
X56570954Y-14304291D01*
X56695709Y-14429046D01*
X56793729Y-14575743D01*
X56861246Y-14738744D01*
X56895666Y-14911785D01*
X56895666Y-15088215D01*
X56861246Y-15261256D01*
X56793729Y-15424257D01*
X56695709Y-15570954D01*
X56570954Y-15695709D01*
X56424257Y-15793729D01*
X56261256Y-15861246D01*
X56088215Y-15895666D01*
X55911785Y-15895666D01*
X55738744Y-15861246D01*
X55575743Y-15793729D01*
X55429046Y-15695709D01*
X55304291Y-15570954D01*
X55206271Y-15424257D01*
X55138754Y-15261256D01*
X55104334Y-15088215D01*
X55104334Y-14911785D01*
X55138754Y-14738744D01*
X55206271Y-14575743D01*
X55304291Y-14429046D01*
X55429046Y-14304291D01*
X55575743Y-14206271D01*
X55738744Y-14138754D01*
X55911785Y-14104334D01*
X56088215Y-14104334D01*
X56261256Y-14138754D01*
G37*
G36*
X58761256Y-14138754D02*
G01*
X58924257Y-14206271D01*
X59070954Y-14304291D01*
X59195709Y-14429046D01*
X59293729Y-14575743D01*
X59361246Y-14738744D01*
X59395666Y-14911785D01*
X59395666Y-15088215D01*
X59361246Y-15261256D01*
X59293729Y-15424257D01*
X59195709Y-15570954D01*
X59070954Y-15695709D01*
X58924257Y-15793729D01*
X58761256Y-15861246D01*
X58588215Y-15895666D01*
X58411785Y-15895666D01*
X58238744Y-15861246D01*
X58075743Y-15793729D01*
X57929046Y-15695709D01*
X57804291Y-15570954D01*
X57706271Y-15424257D01*
X57638754Y-15261256D01*
X57604334Y-15088215D01*
X57604334Y-14911785D01*
X57638754Y-14738744D01*
X57706271Y-14575743D01*
X57804291Y-14429046D01*
X57929046Y-14304291D01*
X58075743Y-14206271D01*
X58238744Y-14138754D01*
X58411785Y-14104334D01*
X58588215Y-14104334D01*
X58761256Y-14138754D01*
G37*
G36*
X61261256Y-14138754D02*
G01*
X61424257Y-14206271D01*
X61570954Y-14304291D01*
X61695709Y-14429046D01*
X61793729Y-14575743D01*
X61861246Y-14738744D01*
X61895666Y-14911785D01*
X61895666Y-15088215D01*
X61861246Y-15261256D01*
X61793729Y-15424257D01*
X61695709Y-15570954D01*
X61570954Y-15695709D01*
X61424257Y-15793729D01*
X61261256Y-15861246D01*
X61088215Y-15895666D01*
X60911785Y-15895666D01*
X60738744Y-15861246D01*
X60575743Y-15793729D01*
X60429046Y-15695709D01*
X60304291Y-15570954D01*
X60206271Y-15424257D01*
X60138754Y-15261256D01*
X60104334Y-15088215D01*
X60104334Y-14911785D01*
X60138754Y-14738744D01*
X60206271Y-14575743D01*
X60304291Y-14429046D01*
X60429046Y-14304291D01*
X60575743Y-14206271D01*
X60738744Y-14138754D01*
X60911785Y-14104334D01*
X61088215Y-14104334D01*
X61261256Y-14138754D01*
G37*
G36*
X70261256Y-14138754D02*
G01*
X70424257Y-14206271D01*
X70570954Y-14304291D01*
X70695709Y-14429046D01*
X70793729Y-14575743D01*
X70861246Y-14738744D01*
X70895666Y-14911785D01*
X70895666Y-15088215D01*
X70861246Y-15261256D01*
X70793729Y-15424257D01*
X70695709Y-15570954D01*
X70570954Y-15695709D01*
X70424257Y-15793729D01*
X70261256Y-15861246D01*
X70088215Y-15895666D01*
X69911785Y-15895666D01*
X69738744Y-15861246D01*
X69575743Y-15793729D01*
X69429046Y-15695709D01*
X69304291Y-15570954D01*
X69206271Y-15424257D01*
X69138754Y-15261256D01*
X69104334Y-15088215D01*
X69104334Y-14911785D01*
X69138754Y-14738744D01*
X69206271Y-14575743D01*
X69304291Y-14429046D01*
X69429046Y-14304291D01*
X69575743Y-14206271D01*
X69738744Y-14138754D01*
X69911785Y-14104334D01*
X70088215Y-14104334D01*
X70261256Y-14138754D01*
G37*
G36*
X72761256Y-14138754D02*
G01*
X72924257Y-14206271D01*
X73070954Y-14304291D01*
X73195709Y-14429046D01*
X73293729Y-14575743D01*
X73361246Y-14738744D01*
X73395666Y-14911785D01*
X73395666Y-15088215D01*
X73361246Y-15261256D01*
X73293729Y-15424257D01*
X73195709Y-15570954D01*
X73070954Y-15695709D01*
X72924257Y-15793729D01*
X72761256Y-15861246D01*
X72588215Y-15895666D01*
X72411785Y-15895666D01*
X72238744Y-15861246D01*
X72075743Y-15793729D01*
X71929046Y-15695709D01*
X71804291Y-15570954D01*
X71706271Y-15424257D01*
X71638754Y-15261256D01*
X71604334Y-15088215D01*
X71604334Y-14911785D01*
X71638754Y-14738744D01*
X71706271Y-14575743D01*
X71804291Y-14429046D01*
X71929046Y-14304291D01*
X72075743Y-14206271D01*
X72238744Y-14138754D01*
X72411785Y-14104334D01*
X72588215Y-14104334D01*
X72761256Y-14138754D01*
G37*
G36*
X75261256Y-14138754D02*
G01*
X75424257Y-14206271D01*
X75570954Y-14304291D01*
X75695709Y-14429046D01*
X75793729Y-14575743D01*
X75861246Y-14738744D01*
X75895666Y-14911785D01*
X75895666Y-15088215D01*
X75861246Y-15261256D01*
X75793729Y-15424257D01*
X75695709Y-15570954D01*
X75570954Y-15695709D01*
X75424257Y-15793729D01*
X75261256Y-15861246D01*
X75088215Y-15895666D01*
X74911785Y-15895666D01*
X74738744Y-15861246D01*
X74575743Y-15793729D01*
X74429046Y-15695709D01*
X74304291Y-15570954D01*
X74206271Y-15424257D01*
X74138754Y-15261256D01*
X74104334Y-15088215D01*
X74104334Y-14911785D01*
X74138754Y-14738744D01*
X74206271Y-14575743D01*
X74304291Y-14429046D01*
X74429046Y-14304291D01*
X74575743Y-14206271D01*
X74738744Y-14138754D01*
X74911785Y-14104334D01*
X75088215Y-14104334D01*
X75261256Y-14138754D01*
G37*
G36*
X14900000Y-13400000D02*
G01*
X13100000Y-13400000D01*
X13100000Y-11600000D01*
X14900000Y-11600000D01*
X14900000Y-13400000D01*
G37*
G36*
X28900000Y-13400000D02*
G01*
X27100000Y-13400000D01*
X27100000Y-11600000D01*
X28900000Y-11600000D01*
X28900000Y-13400000D01*
G37*
G36*
X42900000Y-13400000D02*
G01*
X41100000Y-13400000D01*
X41100000Y-11600000D01*
X42900000Y-11600000D01*
X42900000Y-13400000D01*
G37*
G36*
X56900000Y-13400000D02*
G01*
X55100000Y-13400000D01*
X55100000Y-11600000D01*
X56900000Y-11600000D01*
X56900000Y-13400000D01*
G37*
G36*
X70900000Y-13400000D02*
G01*
X69100000Y-13400000D01*
X69100000Y-11600000D01*
X70900000Y-11600000D01*
X70900000Y-13400000D01*
G37*
G36*
X16761256Y-11638754D02*
G01*
X16924257Y-11706271D01*
X17070954Y-11804291D01*
X17195709Y-11929046D01*
X17293729Y-12075743D01*
X17361246Y-12238744D01*
X17395666Y-12411785D01*
X17395666Y-12588215D01*
X17361246Y-12761256D01*
X17293729Y-12924257D01*
X17195709Y-13070954D01*
X17070954Y-13195709D01*
X16924257Y-13293729D01*
X16761256Y-13361246D01*
X16588215Y-13395666D01*
X16411785Y-13395666D01*
X16238744Y-13361246D01*
X16075743Y-13293729D01*
X15929046Y-13195709D01*
X15804291Y-13070954D01*
X15706271Y-12924257D01*
X15638754Y-12761256D01*
X15604334Y-12588215D01*
X15604334Y-12411785D01*
X15638754Y-12238744D01*
X15706271Y-12075743D01*
X15804291Y-11929046D01*
X15929046Y-11804291D01*
X16075743Y-11706271D01*
X16238744Y-11638754D01*
X16411785Y-11604334D01*
X16588215Y-11604334D01*
X16761256Y-11638754D01*
G37*
G36*
X19261256Y-11638754D02*
G01*
X19424257Y-11706271D01*
X19570954Y-11804291D01*
X19695709Y-11929046D01*
X19793729Y-12075743D01*
X19861246Y-12238744D01*
X19895666Y-12411785D01*
X19895666Y-12588215D01*
X19861246Y-12761256D01*
X19793729Y-12924257D01*
X19695709Y-13070954D01*
X19570954Y-13195709D01*
X19424257Y-13293729D01*
X19261256Y-13361246D01*
X19088215Y-13395666D01*
X18911785Y-13395666D01*
X18738744Y-13361246D01*
X18575743Y-13293729D01*
X18429046Y-13195709D01*
X18304291Y-13070954D01*
X18206271Y-12924257D01*
X18138754Y-12761256D01*
X18104334Y-12588215D01*
X18104334Y-12411785D01*
X18138754Y-12238744D01*
X18206271Y-12075743D01*
X18304291Y-11929046D01*
X18429046Y-11804291D01*
X18575743Y-11706271D01*
X18738744Y-11638754D01*
X18911785Y-11604334D01*
X19088215Y-11604334D01*
X19261256Y-11638754D01*
G37*
G36*
X30761256Y-11638754D02*
G01*
X30924257Y-11706271D01*
X31070954Y-11804291D01*
X31195709Y-11929046D01*
X31293729Y-12075743D01*
X31361246Y-12238744D01*
X31395666Y-12411785D01*
X31395666Y-12588215D01*
X31361246Y-12761256D01*
X31293729Y-12924257D01*
X31195709Y-13070954D01*
X31070954Y-13195709D01*
X30924257Y-13293729D01*
X30761256Y-13361246D01*
X30588215Y-13395666D01*
X30411785Y-13395666D01*
X30238744Y-13361246D01*
X30075743Y-13293729D01*
X29929046Y-13195709D01*
X29804291Y-13070954D01*
X29706271Y-12924257D01*
X29638754Y-12761256D01*
X29604334Y-12588215D01*
X29604334Y-12411785D01*
X29638754Y-12238744D01*
X29706271Y-12075743D01*
X29804291Y-11929046D01*
X29929046Y-11804291D01*
X30075743Y-11706271D01*
X30238744Y-11638754D01*
X30411785Y-11604334D01*
X30588215Y-11604334D01*
X30761256Y-11638754D01*
G37*
G36*
X33261256Y-11638754D02*
G01*
X33424257Y-11706271D01*
X33570954Y-11804291D01*
X33695709Y-11929046D01*
X33793729Y-12075743D01*
X33861246Y-12238744D01*
X33895666Y-12411785D01*
X33895666Y-12588215D01*
X33861246Y-12761256D01*
X33793729Y-12924257D01*
X33695709Y-13070954D01*
X33570954Y-13195709D01*
X33424257Y-13293729D01*
X33261256Y-13361246D01*
X33088215Y-13395666D01*
X32911785Y-13395666D01*
X32738744Y-13361246D01*
X32575743Y-13293729D01*
X32429046Y-13195709D01*
X32304291Y-13070954D01*
X32206271Y-12924257D01*
X32138754Y-12761256D01*
X32104334Y-12588215D01*
X32104334Y-12411785D01*
X32138754Y-12238744D01*
X32206271Y-12075743D01*
X32304291Y-11929046D01*
X32429046Y-11804291D01*
X32575743Y-11706271D01*
X32738744Y-11638754D01*
X32911785Y-11604334D01*
X33088215Y-11604334D01*
X33261256Y-11638754D01*
G37*
G36*
X44761256Y-11638754D02*
G01*
X44924257Y-11706271D01*
X45070954Y-11804291D01*
X45195709Y-11929046D01*
X45293729Y-12075743D01*
X45361246Y-12238744D01*
X45395666Y-12411785D01*
X45395666Y-12588215D01*
X45361246Y-12761256D01*
X45293729Y-12924257D01*
X45195709Y-13070954D01*
X45070954Y-13195709D01*
X44924257Y-13293729D01*
X44761256Y-13361246D01*
X44588215Y-13395666D01*
X44411785Y-13395666D01*
X44238744Y-13361246D01*
X44075743Y-13293729D01*
X43929046Y-13195709D01*
X43804291Y-13070954D01*
X43706271Y-12924257D01*
X43638754Y-12761256D01*
X43604334Y-12588215D01*
X43604334Y-12411785D01*
X43638754Y-12238744D01*
X43706271Y-12075743D01*
X43804291Y-11929046D01*
X43929046Y-11804291D01*
X44075743Y-11706271D01*
X44238744Y-11638754D01*
X44411785Y-11604334D01*
X44588215Y-11604334D01*
X44761256Y-11638754D01*
G37*
G36*
X47261256Y-11638754D02*
G01*
X47424257Y-11706271D01*
X47570954Y-11804291D01*
X47695709Y-11929046D01*
X47793729Y-12075743D01*
X47861246Y-12238744D01*
X47895666Y-12411785D01*
X47895666Y-12588215D01*
X47861246Y-12761256D01*
X47793729Y-12924257D01*
X47695709Y-13070954D01*
X47570954Y-13195709D01*
X47424257Y-13293729D01*
X47261256Y-13361246D01*
X47088215Y-13395666D01*
X46911785Y-13395666D01*
X46738744Y-13361246D01*
X46575743Y-13293729D01*
X46429046Y-13195709D01*
X46304291Y-13070954D01*
X46206271Y-12924257D01*
X46138754Y-12761256D01*
X46104334Y-12588215D01*
X46104334Y-12411785D01*
X46138754Y-12238744D01*
X46206271Y-12075743D01*
X46304291Y-11929046D01*
X46429046Y-11804291D01*
X46575743Y-11706271D01*
X46738744Y-11638754D01*
X46911785Y-11604334D01*
X47088215Y-11604334D01*
X47261256Y-11638754D01*
G37*
G36*
X58761256Y-11638754D02*
G01*
X58924257Y-11706271D01*
X59070954Y-11804291D01*
X59195709Y-11929046D01*
X59293729Y-12075743D01*
X59361246Y-12238744D01*
X59395666Y-12411785D01*
X59395666Y-12588215D01*
X59361246Y-12761256D01*
X59293729Y-12924257D01*
X59195709Y-13070954D01*
X59070954Y-13195709D01*
X58924257Y-13293729D01*
X58761256Y-13361246D01*
X58588215Y-13395666D01*
X58411785Y-13395666D01*
X58238744Y-13361246D01*
X58075743Y-13293729D01*
X57929046Y-13195709D01*
X57804291Y-13070954D01*
X57706271Y-12924257D01*
X57638754Y-12761256D01*
X57604334Y-12588215D01*
X57604334Y-12411785D01*
X57638754Y-12238744D01*
X57706271Y-12075743D01*
X57804291Y-11929046D01*
X57929046Y-11804291D01*
X58075743Y-11706271D01*
X58238744Y-11638754D01*
X58411785Y-11604334D01*
X58588215Y-11604334D01*
X58761256Y-11638754D01*
G37*
G36*
X61261256Y-11638754D02*
G01*
X61424257Y-11706271D01*
X61570954Y-11804291D01*
X61695709Y-11929046D01*
X61793729Y-12075743D01*
X61861246Y-12238744D01*
X61895666Y-12411785D01*
X61895666Y-12588215D01*
X61861246Y-12761256D01*
X61793729Y-12924257D01*
X61695709Y-13070954D01*
X61570954Y-13195709D01*
X61424257Y-13293729D01*
X61261256Y-13361246D01*
X61088215Y-13395666D01*
X60911785Y-13395666D01*
X60738744Y-13361246D01*
X60575743Y-13293729D01*
X60429046Y-13195709D01*
X60304291Y-13070954D01*
X60206271Y-12924257D01*
X60138754Y-12761256D01*
X60104334Y-12588215D01*
X60104334Y-12411785D01*
X60138754Y-12238744D01*
X60206271Y-12075743D01*
X60304291Y-11929046D01*
X60429046Y-11804291D01*
X60575743Y-11706271D01*
X60738744Y-11638754D01*
X60911785Y-11604334D01*
X61088215Y-11604334D01*
X61261256Y-11638754D01*
G37*
G36*
X72761256Y-11638754D02*
G01*
X72924257Y-11706271D01*
X73070954Y-11804291D01*
X73195709Y-11929046D01*
X73293729Y-12075743D01*
X73361246Y-12238744D01*
X73395666Y-12411785D01*
X73395666Y-12588215D01*
X73361246Y-12761256D01*
X73293729Y-12924257D01*
X73195709Y-13070954D01*
X73070954Y-13195709D01*
X72924257Y-13293729D01*
X72761256Y-13361246D01*
X72588215Y-13395666D01*
X72411785Y-13395666D01*
X72238744Y-13361246D01*
X72075743Y-13293729D01*
X71929046Y-13195709D01*
X71804291Y-13070954D01*
X71706271Y-12924257D01*
X71638754Y-12761256D01*
X71604334Y-12588215D01*
X71604334Y-12411785D01*
X71638754Y-12238744D01*
X71706271Y-12075743D01*
X71804291Y-11929046D01*
X71929046Y-11804291D01*
X72075743Y-11706271D01*
X72238744Y-11638754D01*
X72411785Y-11604334D01*
X72588215Y-11604334D01*
X72761256Y-11638754D01*
G37*
G36*
X75261256Y-11638754D02*
G01*
X75424257Y-11706271D01*
X75570954Y-11804291D01*
X75695709Y-11929046D01*
X75793729Y-12075743D01*
X75861246Y-12238744D01*
X75895666Y-12411785D01*
X75895666Y-12588215D01*
X75861246Y-12761256D01*
X75793729Y-12924257D01*
X75695709Y-13070954D01*
X75570954Y-13195709D01*
X75424257Y-13293729D01*
X75261256Y-13361246D01*
X75088215Y-13395666D01*
X74911785Y-13395666D01*
X74738744Y-13361246D01*
X74575743Y-13293729D01*
X74429046Y-13195709D01*
X74304291Y-13070954D01*
X74206271Y-12924257D01*
X74138754Y-12761256D01*
X74104334Y-12588215D01*
X74104334Y-12411785D01*
X74138754Y-12238744D01*
X74206271Y-12075743D01*
X74304291Y-11929046D01*
X74429046Y-11804291D01*
X74575743Y-11706271D01*
X74738744Y-11638754D01*
X74911785Y-11604334D01*
X75088215Y-11604334D01*
X75261256Y-11638754D01*
G37*
G36*
X12128181Y-3424761D02*
G01*
X12369947Y-3503315D01*
X12596448Y-3618723D01*
X12802106Y-3768142D01*
X12981858Y-3947894D01*
X13131277Y-4153552D01*
X13246685Y-4380053D01*
X13325239Y-4621819D01*
X13365006Y-4872896D01*
X13365006Y-5127104D01*
X13325239Y-5378181D01*
X13246685Y-5619947D01*
X13131277Y-5846448D01*
X12981858Y-6052106D01*
X12802106Y-6231858D01*
X12596448Y-6381277D01*
X12369947Y-6496685D01*
X12128181Y-6575239D01*
X11877104Y-6615006D01*
X11622896Y-6615006D01*
X11371819Y-6575239D01*
X11130053Y-6496685D01*
X10903552Y-6381277D01*
X10697894Y-6231858D01*
X10518142Y-6052106D01*
X10368723Y-5846448D01*
X10253315Y-5619947D01*
X10174761Y-5378181D01*
X10134994Y-5127104D01*
X10134994Y-4872896D01*
X10174761Y-4621819D01*
X10253315Y-4380053D01*
X10368723Y-4153552D01*
X10518142Y-3947894D01*
X10697894Y-3768142D01*
X10903552Y-3618723D01*
X11130053Y-3503315D01*
X11371819Y-3424761D01*
X11622896Y-3384994D01*
X11877104Y-3384994D01*
X12128181Y-3424761D01*
G37*
G36*
X21628181Y-3424761D02*
G01*
X21869947Y-3503315D01*
X22096448Y-3618723D01*
X22302106Y-3768142D01*
X22481858Y-3947894D01*
X22631277Y-4153552D01*
X22746685Y-4380053D01*
X22825239Y-4621819D01*
X22865006Y-4872896D01*
X22865006Y-5127104D01*
X22825239Y-5378181D01*
X22746685Y-5619947D01*
X22631277Y-5846448D01*
X22481858Y-6052106D01*
X22302106Y-6231858D01*
X22096448Y-6381277D01*
X21869947Y-6496685D01*
X21628181Y-6575239D01*
X21377104Y-6615006D01*
X21122896Y-6615006D01*
X20871819Y-6575239D01*
X20630053Y-6496685D01*
X20403552Y-6381277D01*
X20197894Y-6231858D01*
X20018142Y-6052106D01*
X19868723Y-5846448D01*
X19753315Y-5619947D01*
X19674761Y-5378181D01*
X19634994Y-5127104D01*
X19634994Y-4872896D01*
X19674761Y-4621819D01*
X19753315Y-4380053D01*
X19868723Y-4153552D01*
X20018142Y-3947894D01*
X20197894Y-3768142D01*
X20403552Y-3618723D01*
X20630053Y-3503315D01*
X20871819Y-3424761D01*
X21122896Y-3384994D01*
X21377104Y-3384994D01*
X21628181Y-3424761D01*
G37*
G36*
X26128181Y-3424761D02*
G01*
X26369947Y-3503315D01*
X26596448Y-3618723D01*
X26802106Y-3768142D01*
X26981858Y-3947894D01*
X27131277Y-4153552D01*
X27246685Y-4380053D01*
X27325239Y-4621819D01*
X27365006Y-4872896D01*
X27365006Y-5127104D01*
X27325239Y-5378181D01*
X27246685Y-5619947D01*
X27131277Y-5846448D01*
X26981858Y-6052106D01*
X26802106Y-6231858D01*
X26596448Y-6381277D01*
X26369947Y-6496685D01*
X26128181Y-6575239D01*
X25877104Y-6615006D01*
X25622896Y-6615006D01*
X25371819Y-6575239D01*
X25130053Y-6496685D01*
X24903552Y-6381277D01*
X24697894Y-6231858D01*
X24518142Y-6052106D01*
X24368723Y-5846448D01*
X24253315Y-5619947D01*
X24174761Y-5378181D01*
X24134994Y-5127104D01*
X24134994Y-4872896D01*
X24174761Y-4621819D01*
X24253315Y-4380053D01*
X24368723Y-4153552D01*
X24518142Y-3947894D01*
X24697894Y-3768142D01*
X24903552Y-3618723D01*
X25130053Y-3503315D01*
X25371819Y-3424761D01*
X25622896Y-3384994D01*
X25877104Y-3384994D01*
X26128181Y-3424761D01*
G37*
G36*
X35628181Y-3424761D02*
G01*
X35869947Y-3503315D01*
X36096448Y-3618723D01*
X36302106Y-3768142D01*
X36481858Y-3947894D01*
X36631277Y-4153552D01*
X36746685Y-4380053D01*
X36825239Y-4621819D01*
X36865006Y-4872896D01*
X36865006Y-5127104D01*
X36825239Y-5378181D01*
X36746685Y-5619947D01*
X36631277Y-5846448D01*
X36481858Y-6052106D01*
X36302106Y-6231858D01*
X36096448Y-6381277D01*
X35869947Y-6496685D01*
X35628181Y-6575239D01*
X35377104Y-6615006D01*
X35122896Y-6615006D01*
X34871819Y-6575239D01*
X34630053Y-6496685D01*
X34403552Y-6381277D01*
X34197894Y-6231858D01*
X34018142Y-6052106D01*
X33868723Y-5846448D01*
X33753315Y-5619947D01*
X33674761Y-5378181D01*
X33634994Y-5127104D01*
X33634994Y-4872896D01*
X33674761Y-4621819D01*
X33753315Y-4380053D01*
X33868723Y-4153552D01*
X34018142Y-3947894D01*
X34197894Y-3768142D01*
X34403552Y-3618723D01*
X34630053Y-3503315D01*
X34871819Y-3424761D01*
X35122896Y-3384994D01*
X35377104Y-3384994D01*
X35628181Y-3424761D01*
G37*
G36*
X40128181Y-3424761D02*
G01*
X40369947Y-3503315D01*
X40596448Y-3618723D01*
X40802106Y-3768142D01*
X40981858Y-3947894D01*
X41131277Y-4153552D01*
X41246685Y-4380053D01*
X41325239Y-4621819D01*
X41365006Y-4872896D01*
X41365006Y-5127104D01*
X41325239Y-5378181D01*
X41246685Y-5619947D01*
X41131277Y-5846448D01*
X40981858Y-6052106D01*
X40802106Y-6231858D01*
X40596448Y-6381277D01*
X40369947Y-6496685D01*
X40128181Y-6575239D01*
X39877104Y-6615006D01*
X39622896Y-6615006D01*
X39371819Y-6575239D01*
X39130053Y-6496685D01*
X38903552Y-6381277D01*
X38697894Y-6231858D01*
X38518142Y-6052106D01*
X38368723Y-5846448D01*
X38253315Y-5619947D01*
X38174761Y-5378181D01*
X38134994Y-5127104D01*
X38134994Y-4872896D01*
X38174761Y-4621819D01*
X38253315Y-4380053D01*
X38368723Y-4153552D01*
X38518142Y-3947894D01*
X38697894Y-3768142D01*
X38903552Y-3618723D01*
X39130053Y-3503315D01*
X39371819Y-3424761D01*
X39622896Y-3384994D01*
X39877104Y-3384994D01*
X40128181Y-3424761D01*
G37*
G36*
X49628181Y-3424761D02*
G01*
X49869947Y-3503315D01*
X50096448Y-3618723D01*
X50302106Y-3768142D01*
X50481858Y-3947894D01*
X50631277Y-4153552D01*
X50746685Y-4380053D01*
X50825239Y-4621819D01*
X50865006Y-4872896D01*
X50865006Y-5127104D01*
X50825239Y-5378181D01*
X50746685Y-5619947D01*
X50631277Y-5846448D01*
X50481858Y-6052106D01*
X50302106Y-6231858D01*
X50096448Y-6381277D01*
X49869947Y-6496685D01*
X49628181Y-6575239D01*
X49377104Y-6615006D01*
X49122896Y-6615006D01*
X48871819Y-6575239D01*
X48630053Y-6496685D01*
X48403552Y-6381277D01*
X48197894Y-6231858D01*
X48018142Y-6052106D01*
X47868723Y-5846448D01*
X47753315Y-5619947D01*
X47674761Y-5378181D01*
X47634994Y-5127104D01*
X47634994Y-4872896D01*
X47674761Y-4621819D01*
X47753315Y-4380053D01*
X47868723Y-4153552D01*
X48018142Y-3947894D01*
X48197894Y-3768142D01*
X48403552Y-3618723D01*
X48630053Y-3503315D01*
X48871819Y-3424761D01*
X49122896Y-3384994D01*
X49377104Y-3384994D01*
X49628181Y-3424761D01*
G37*
G36*
X54128181Y-3424761D02*
G01*
X54369947Y-3503315D01*
X54596448Y-3618723D01*
X54802106Y-3768142D01*
X54981858Y-3947894D01*
X55131277Y-4153552D01*
X55246685Y-4380053D01*
X55325239Y-4621819D01*
X55365006Y-4872896D01*
X55365006Y-5127104D01*
X55325239Y-5378181D01*
X55246685Y-5619947D01*
X55131277Y-5846448D01*
X54981858Y-6052106D01*
X54802106Y-6231858D01*
X54596448Y-6381277D01*
X54369947Y-6496685D01*
X54128181Y-6575239D01*
X53877104Y-6615006D01*
X53622896Y-6615006D01*
X53371819Y-6575239D01*
X53130053Y-6496685D01*
X52903552Y-6381277D01*
X52697894Y-6231858D01*
X52518142Y-6052106D01*
X52368723Y-5846448D01*
X52253315Y-5619947D01*
X52174761Y-5378181D01*
X52134994Y-5127104D01*
X52134994Y-4872896D01*
X52174761Y-4621819D01*
X52253315Y-4380053D01*
X52368723Y-4153552D01*
X52518142Y-3947894D01*
X52697894Y-3768142D01*
X52903552Y-3618723D01*
X53130053Y-3503315D01*
X53371819Y-3424761D01*
X53622896Y-3384994D01*
X53877104Y-3384994D01*
X54128181Y-3424761D01*
G37*
G36*
X63628181Y-3424761D02*
G01*
X63869947Y-3503315D01*
X64096448Y-3618723D01*
X64302106Y-3768142D01*
X64481858Y-3947894D01*
X64631277Y-4153552D01*
X64746685Y-4380053D01*
X64825239Y-4621819D01*
X64865006Y-4872896D01*
X64865006Y-5127104D01*
X64825239Y-5378181D01*
X64746685Y-5619947D01*
X64631277Y-5846448D01*
X64481858Y-6052106D01*
X64302106Y-6231858D01*
X64096448Y-6381277D01*
X63869947Y-6496685D01*
X63628181Y-6575239D01*
X63377104Y-6615006D01*
X63122896Y-6615006D01*
X62871819Y-6575239D01*
X62630053Y-6496685D01*
X62403552Y-6381277D01*
X62197894Y-6231858D01*
X62018142Y-6052106D01*
X61868723Y-5846448D01*
X61753315Y-5619947D01*
X61674761Y-5378181D01*
X61634994Y-5127104D01*
X61634994Y-4872896D01*
X61674761Y-4621819D01*
X61753315Y-4380053D01*
X61868723Y-4153552D01*
X62018142Y-3947894D01*
X62197894Y-3768142D01*
X62403552Y-3618723D01*
X62630053Y-3503315D01*
X62871819Y-3424761D01*
X63122896Y-3384994D01*
X63377104Y-3384994D01*
X63628181Y-3424761D01*
G37*
G36*
X68128181Y-3424761D02*
G01*
X68369947Y-3503315D01*
X68596448Y-3618723D01*
X68802106Y-3768142D01*
X68981858Y-3947894D01*
X69131277Y-4153552D01*
X69246685Y-4380053D01*
X69325239Y-4621819D01*
X69365006Y-4872896D01*
X69365006Y-5127104D01*
X69325239Y-5378181D01*
X69246685Y-5619947D01*
X69131277Y-5846448D01*
X68981858Y-6052106D01*
X68802106Y-6231858D01*
X68596448Y-6381277D01*
X68369947Y-6496685D01*
X68128181Y-6575239D01*
X67877104Y-6615006D01*
X67622896Y-6615006D01*
X67371819Y-6575239D01*
X67130053Y-6496685D01*
X66903552Y-6381277D01*
X66697894Y-6231858D01*
X66518142Y-6052106D01*
X66368723Y-5846448D01*
X66253315Y-5619947D01*
X66174761Y-5378181D01*
X66134994Y-5127104D01*
X66134994Y-4872896D01*
X66174761Y-4621819D01*
X66253315Y-4380053D01*
X66368723Y-4153552D01*
X66518142Y-3947894D01*
X66697894Y-3768142D01*
X66903552Y-3618723D01*
X67130053Y-3503315D01*
X67371819Y-3424761D01*
X67622896Y-3384994D01*
X67877104Y-3384994D01*
X68128181Y-3424761D01*
G37*
G36*
X77628181Y-3424761D02*
G01*
X77869947Y-3503315D01*
X78096448Y-3618723D01*
X78302106Y-3768142D01*
X78481858Y-3947894D01*
X78631277Y-4153552D01*
X78746685Y-4380053D01*
X78825239Y-4621819D01*
X78865006Y-4872896D01*
X78865006Y-5127104D01*
X78825239Y-5378181D01*
X78746685Y-5619947D01*
X78631277Y-5846448D01*
X78481858Y-6052106D01*
X78302106Y-6231858D01*
X78096448Y-6381277D01*
X77869947Y-6496685D01*
X77628181Y-6575239D01*
X77377104Y-6615006D01*
X77122896Y-6615006D01*
X76871819Y-6575239D01*
X76630053Y-6496685D01*
X76403552Y-6381277D01*
X76197894Y-6231858D01*
X76018142Y-6052106D01*
X75868723Y-5846448D01*
X75753315Y-5619947D01*
X75674761Y-5378181D01*
X75634994Y-5127104D01*
X75634994Y-4872896D01*
X75674761Y-4621819D01*
X75753315Y-4380053D01*
X75868723Y-4153552D01*
X76018142Y-3947894D01*
X76197894Y-3768142D01*
X76403552Y-3618723D01*
X76630053Y-3503315D01*
X76871819Y-3424761D01*
X77122896Y-3384994D01*
X77377104Y-3384994D01*
X77628181Y-3424761D01*
G37*
G36*
X4373513Y-2444208D02*
G01*
X4612293Y-2521793D01*
X4835998Y-2635776D01*
X5039117Y-2783350D01*
X5216650Y-2960883D01*
X5364224Y-3164002D01*
X5478207Y-3387707D01*
X5555792Y-3626487D01*
X5595068Y-3874465D01*
X5595068Y-4125535D01*
X5555792Y-4373513D01*
X5478207Y-4612293D01*
X5364224Y-4835998D01*
X5216650Y-5039117D01*
X5039117Y-5216650D01*
X4835998Y-5364224D01*
X4612293Y-5478207D01*
X4373513Y-5555792D01*
X4125535Y-5595068D01*
X3874465Y-5595068D01*
X3626487Y-5555792D01*
X3387707Y-5478207D01*
X3164002Y-5364224D01*
X2960883Y-5216650D01*
X2783350Y-5039117D01*
X2635776Y-4835998D01*
X2521793Y-4612293D01*
X2444208Y-4373513D01*
X2404932Y-4125535D01*
X2404932Y-3874465D01*
X2444208Y-3626487D01*
X2521793Y-3387707D01*
X2635776Y-3164002D01*
X2783350Y-2960883D01*
X2960883Y-2783350D01*
X3164002Y-2635776D01*
X3387707Y-2521793D01*
X3626487Y-2444208D01*
X3874465Y-2404932D01*
X4125535Y-2404932D01*
X4373513Y-2444208D01*
G37*
G36*
X84373513Y-2444208D02*
G01*
X84612293Y-2521793D01*
X84835998Y-2635776D01*
X85039117Y-2783350D01*
X85216650Y-2960883D01*
X85364224Y-3164002D01*
X85478207Y-3387707D01*
X85555792Y-3626487D01*
X85595068Y-3874465D01*
X85595068Y-4125535D01*
X85555792Y-4373513D01*
X85478207Y-4612293D01*
X85364224Y-4835998D01*
X85216650Y-5039117D01*
X85039117Y-5216650D01*
X84835998Y-5364224D01*
X84612293Y-5478207D01*
X84373513Y-5555792D01*
X84125535Y-5595068D01*
X83874465Y-5595068D01*
X83626487Y-5555792D01*
X83387707Y-5478207D01*
X83164002Y-5364224D01*
X82960883Y-5216650D01*
X82783350Y-5039117D01*
X82635776Y-4835998D01*
X82521793Y-4612293D01*
X82444208Y-4373513D01*
X82404932Y-4125535D01*
X82404932Y-3874465D01*
X82444208Y-3626487D01*
X82521793Y-3387707D01*
X82635776Y-3164002D01*
X82783350Y-2960883D01*
X82960883Y-2783350D01*
X83164002Y-2635776D01*
X83387707Y-2521793D01*
X83626487Y-2444208D01*
X83874465Y-2404932D01*
X84125535Y-2404932D01*
X84373513Y-2444208D01*
G37*
%LPD*%
M02*
