G04 #@! TF.GenerationSoftware,KiCad,Pcbnew,9.0.2+dfsg-1*
G04 #@! TF.CreationDate,2026-09-14T14:01:19+07:00*
G04 #@! TF.ProjectId,tht_opamp_eq,7468745f-6f70-4616-9d70-5f65712e6b69,rev?*
G04 #@! TF.SameCoordinates,Original*
G04 #@! TF.FileFunction,Copper,L2,Bot*
G04 #@! TF.FilePolarity,Positive*
%FSLAX46Y46*%
G04 Gerber Fmt 4.6, Leading zero omitted, Abs format (unit mm)*
G04 Created by KiCad (PCBNEW 9.0.2+dfsg-1) date 2026-09-14 14:01:19*
%MOMM*%
%LPD*%
G01*
G04 APERTURE LIST*
G04 Aperture macros list*
%AMRoundRect*
0 Rectangle with rounded corners*
0 $1 Rounding radius*
0 $2 $3 $4 $5 $6 $7 $8 $9 X,Y pos of 4 corners*
0 Add a 4 corners polygon primitive as box body*
4,1,4,$2,$3,$4,$5,$6,$7,$8,$9,$2,$3,0*
0 Add four circle primitives for the rounded corners*
1,1,$1+$1,$2,$3*
1,1,$1+$1,$4,$5*
1,1,$1+$1,$6,$7*
1,1,$1+$1,$8,$9*
0 Add four rect primitives between the rounded corners*
20,1,$1+$1,$2,$3,$4,$5,0*
20,1,$1+$1,$4,$5,$6,$7,0*
20,1,$1+$1,$6,$7,$8,$9,0*
20,1,$1+$1,$8,$9,$2,$3,0*%
G04 Aperture macros list end*
G04 #@! TA.AperFunction,ComponentPad*
%ADD10C,1.600000*%
G04 #@! TD*
G04 #@! TA.AperFunction,ComponentPad*
%ADD11C,1.400000*%
G04 #@! TD*
G04 #@! TA.AperFunction,ComponentPad*
%ADD12C,3.240000*%
G04 #@! TD*
G04 #@! TA.AperFunction,ComponentPad*
%ADD13R,1.800000X1.800000*%
G04 #@! TD*
G04 #@! TA.AperFunction,ComponentPad*
%ADD14C,1.800000*%
G04 #@! TD*
G04 #@! TA.AperFunction,ComponentPad*
%ADD15RoundRect,0.250000X-0.550000X-0.550000X0.550000X-0.550000X0.550000X0.550000X-0.550000X0.550000X0*%
G04 #@! TD*
G04 #@! TA.AperFunction,ComponentPad*
%ADD16O,2.200000X4.000000*%
G04 #@! TD*
G04 #@! TA.AperFunction,ComponentPad*
%ADD17O,4.000000X2.200000*%
G04 #@! TD*
G04 #@! TA.AperFunction,ComponentPad*
%ADD18R,2.200000X4.000000*%
G04 #@! TD*
G04 #@! TA.AperFunction,ComponentPad*
%ADD19R,1.700000X1.700000*%
G04 #@! TD*
G04 #@! TA.AperFunction,ComponentPad*
%ADD20C,1.700000*%
G04 #@! TD*
G04 #@! TA.AperFunction,ViaPad*
%ADD21C,0.600000*%
G04 #@! TD*
G04 #@! TA.AperFunction,Conductor*
%ADD22C,0.400000*%
G04 #@! TD*
G04 #@! TA.AperFunction,Conductor*
%ADD23C,0.200000*%
G04 #@! TD*
G04 APERTURE END LIST*
D10*
G04 #@! TO.P,C_IN_L,1*
G04 #@! TO.N,IN_L_RAW*
X7000000Y-33500000D03*
G04 #@! TO.P,C_IN_L,2*
G04 #@! TO.N,IN_L_AC*
X9500000Y-33500000D03*
G04 #@! TD*
G04 #@! TO.P,C_BIAS2,1*
G04 #@! TO.N,VBIAS*
X46000000Y-47000000D03*
G04 #@! TO.P,C_BIAS2,2*
G04 #@! TO.N,GND*
X48500000Y-47000000D03*
G04 #@! TD*
D11*
G04 #@! TO.P,R_IN_EQ_L,1*
G04 #@! TO.N,IN_L_AC*
X16000000Y-24500000D03*
G04 #@! TO.P,R_IN_EQ_L,2*
G04 #@! TO.N,EQ_IN_L*
X21080000Y-24500000D03*
G04 #@! TD*
D12*
G04 #@! TO.P,RV2,*
G04 #@! TO.N,GND*
X25750000Y-5000000D03*
X35250000Y-5000000D03*
D13*
G04 #@! TO.P,RV2,1*
G04 #@! TO.N,BASS_L_IN*
X28000000Y-12500000D03*
D14*
G04 #@! TO.P,RV2,2*
G04 #@! TO.N,BASS_L_W*
X30500000Y-12500000D03*
G04 #@! TO.P,RV2,3*
G04 #@! TO.N,BASS_L_FB*
X33000000Y-12500000D03*
G04 #@! TO.P,RV2,4*
G04 #@! TO.N,BASS_R_IN*
X28000000Y-15000000D03*
G04 #@! TO.P,RV2,5*
G04 #@! TO.N,BASS_R_W*
X30500000Y-15000000D03*
G04 #@! TO.P,RV2,6*
G04 #@! TO.N,BASS_R_FB*
X33000000Y-15000000D03*
G04 #@! TD*
D15*
G04 #@! TO.P,C_PWR1,1*
G04 #@! TO.N,+3.3V*
X52000000Y-54000000D03*
D10*
G04 #@! TO.P,C_PWR1,2*
G04 #@! TO.N,GND*
X54000000Y-54000000D03*
G04 #@! TD*
G04 #@! TO.P,C_MID_L1,1*
G04 #@! TO.N,EQ_IN_L*
X26000000Y-31500000D03*
G04 #@! TO.P,C_MID_L1,2*
G04 #@! TO.N,MID_L_IN*
X28500000Y-31500000D03*
G04 #@! TD*
D11*
G04 #@! TO.P,R_STAB_R,1*
G04 #@! TO.N,DRV_OUT_R*
X72000000Y-25500000D03*
G04 #@! TO.P,R_STAB_R,2*
G04 #@! TO.N,OUT_R_JACK*
X77080000Y-25500000D03*
G04 #@! TD*
D10*
G04 #@! TO.P,C_BASS_L1,1*
G04 #@! TO.N,EQ_IN_L*
X26000000Y-35000000D03*
G04 #@! TO.P,C_BASS_L1,2*
G04 #@! TO.N,BASS_L_IN*
X28500000Y-35000000D03*
G04 #@! TD*
D11*
G04 #@! TO.P,R_IN_L,1*
G04 #@! TO.N,IN_L_AC*
X16000000Y-21000000D03*
G04 #@! TO.P,R_IN_L,2*
G04 #@! TO.N,VBIAS*
X21080000Y-21000000D03*
G04 #@! TD*
G04 #@! TO.P,R_BIAS1,1*
G04 #@! TO.N,+3.3V*
X35000000Y-42000000D03*
G04 #@! TO.P,R_BIAS1,2*
G04 #@! TO.N,VBIAS*
X40080000Y-42000000D03*
G04 #@! TD*
G04 #@! TO.P,R_FB_L,1*
G04 #@! TO.N,DRV_OUT_L*
X16000000Y-31500000D03*
G04 #@! TO.P,R_FB_L,2*
G04 #@! TO.N,FB_DRV_L*
X21080000Y-31500000D03*
G04 #@! TD*
G04 #@! TO.P,R_IN_R,1*
G04 #@! TO.N,IN_R_AC*
X62000000Y-21000000D03*
G04 #@! TO.P,R_IN_R,2*
G04 #@! TO.N,VBIAS*
X67080000Y-21000000D03*
G04 #@! TD*
D10*
G04 #@! TO.P,C_PWR2,1*
G04 #@! TO.N,+3.3V*
X59000000Y-54000000D03*
G04 #@! TO.P,C_PWR2,2*
G04 #@! TO.N,GND*
X61500000Y-54000000D03*
G04 #@! TD*
G04 #@! TO.P,C_MID_R1,1*
G04 #@! TO.N,EQ_IN_R*
X52000000Y-31500000D03*
G04 #@! TO.P,C_MID_R1,2*
G04 #@! TO.N,MID_R_IN*
X54500000Y-31500000D03*
G04 #@! TD*
D11*
G04 #@! TO.P,R_PULL_R,1*
G04 #@! TO.N,OUT_R_JACK*
X72000000Y-29500000D03*
G04 #@! TO.P,R_PULL_R,2*
G04 #@! TO.N,GND*
X77080000Y-29500000D03*
G04 #@! TD*
D12*
G04 #@! TO.P,RV5,*
G04 #@! TO.N,GND*
X67750000Y-5000000D03*
X77250000Y-5000000D03*
D13*
G04 #@! TO.P,RV5,1*
G04 #@! TO.N,VBIAS*
X70000000Y-12500000D03*
D14*
G04 #@! TO.P,RV5,2*
G04 #@! TO.N,BAL_L*
X72500000Y-12500000D03*
G04 #@! TO.P,RV5,3*
G04 #@! TO.N,OUT_EQ_L*
X75000000Y-12500000D03*
G04 #@! TO.P,RV5,4*
G04 #@! TO.N,OUT_EQ_R*
X70000000Y-15000000D03*
G04 #@! TO.P,RV5,5*
G04 #@! TO.N,BAL_R*
X72500000Y-15000000D03*
G04 #@! TO.P,RV5,6*
G04 #@! TO.N,VBIAS*
X75000000Y-15000000D03*
G04 #@! TD*
D11*
G04 #@! TO.P,R_STAB_L,1*
G04 #@! TO.N,DRV_OUT_L*
X7000000Y-25500000D03*
G04 #@! TO.P,R_STAB_L,2*
G04 #@! TO.N,OUT_L_JACK*
X12080000Y-25500000D03*
G04 #@! TD*
D15*
G04 #@! TO.P,U1,1*
G04 #@! TO.N,OUT_EQ_L*
X40190000Y-22000000D03*
D10*
G04 #@! TO.P,U1,2*
G04 #@! TO.N,IN_INV_L*
X40190000Y-24540000D03*
G04 #@! TO.P,U1,3*
G04 #@! TO.N,VBIAS*
X40190000Y-27080000D03*
G04 #@! TO.P,U1,4*
G04 #@! TO.N,+3.3V*
X40190000Y-29620000D03*
G04 #@! TO.P,U1,5*
G04 #@! TO.N,VOL_L*
X40190000Y-32160000D03*
G04 #@! TO.P,U1,6*
G04 #@! TO.N,FB_DRV_L*
X40190000Y-34700000D03*
G04 #@! TO.P,U1,7*
G04 #@! TO.N,DRV_OUT_L*
X40190000Y-37240000D03*
G04 #@! TO.P,U1,8*
G04 #@! TO.N,DRV_OUT_R*
X47810000Y-37240000D03*
G04 #@! TO.P,U1,9*
G04 #@! TO.N,FB_DRV_R*
X47810000Y-34700000D03*
G04 #@! TO.P,U1,10*
G04 #@! TO.N,VOL_R*
X47810000Y-32160000D03*
G04 #@! TO.P,U1,11*
G04 #@! TO.N,GND*
X47810000Y-29620000D03*
G04 #@! TO.P,U1,12*
G04 #@! TO.N,VBIAS*
X47810000Y-27080000D03*
G04 #@! TO.P,U1,13*
G04 #@! TO.N,IN_INV_R*
X47810000Y-24540000D03*
G04 #@! TO.P,U1,14*
G04 #@! TO.N,OUT_EQ_R*
X47810000Y-22000000D03*
G04 #@! TD*
G04 #@! TO.P,C_IN_R,1*
G04 #@! TO.N,IN_R_RAW*
X72000000Y-33500000D03*
G04 #@! TO.P,C_IN_R,2*
G04 #@! TO.N,IN_R_AC*
X74500000Y-33500000D03*
G04 #@! TD*
D11*
G04 #@! TO.P,R_GND_L,1*
G04 #@! TO.N,FB_DRV_L*
X16000000Y-35000000D03*
G04 #@! TO.P,R_GND_L,2*
G04 #@! TO.N,VBIAS*
X21080000Y-35000000D03*
G04 #@! TD*
G04 #@! TO.P,R_IN_EQ_R,1*
G04 #@! TO.N,IN_R_AC*
X62000000Y-24500000D03*
G04 #@! TO.P,R_IN_EQ_R,2*
G04 #@! TO.N,EQ_IN_R*
X67080000Y-24500000D03*
G04 #@! TD*
G04 #@! TO.P,R_FB_EQ_R,1*
G04 #@! TO.N,OUT_EQ_R*
X62000000Y-28000000D03*
G04 #@! TO.P,R_FB_EQ_R,2*
G04 #@! TO.N,IN_INV_R*
X67080000Y-28000000D03*
G04 #@! TD*
D12*
G04 #@! TO.P,RV1,*
G04 #@! TO.N,GND*
X11750000Y-5000000D03*
X21250000Y-5000000D03*
D13*
G04 #@! TO.P,RV1,1*
G04 #@! TO.N,VBIAS*
X14000000Y-12500000D03*
D14*
G04 #@! TO.P,RV1,2*
G04 #@! TO.N,VOL_L*
X16500000Y-12500000D03*
G04 #@! TO.P,RV1,3*
G04 #@! TO.N,BAL_L*
X19000000Y-12500000D03*
G04 #@! TO.P,RV1,4*
G04 #@! TO.N,VBIAS*
X14000000Y-15000000D03*
G04 #@! TO.P,RV1,5*
G04 #@! TO.N,VOL_R*
X16500000Y-15000000D03*
G04 #@! TO.P,RV1,6*
G04 #@! TO.N,BAL_R*
X19000000Y-15000000D03*
G04 #@! TD*
D16*
G04 #@! TO.P,J2,R*
G04 #@! TO.N,OUT_R_JACK*
X64200000Y-45900000D03*
G04 #@! TO.P,J2,RN*
G04 #@! TO.N,GND*
X66900000Y-47100000D03*
D17*
G04 #@! TO.P,J2,S*
X69400000Y-53900000D03*
D18*
G04 #@! TO.P,J2,T*
G04 #@! TO.N,OUT_L_JACK*
X74000000Y-50000000D03*
D17*
G04 #@! TO.P,J2,TN*
G04 #@! TO.N,GND*
X73500000Y-42700000D03*
G04 #@! TD*
D11*
G04 #@! TO.P,R_BIAS2,1*
G04 #@! TO.N,VBIAS*
X45000000Y-42000000D03*
G04 #@! TO.P,R_BIAS2,2*
G04 #@! TO.N,GND*
X50080000Y-42000000D03*
G04 #@! TD*
D10*
G04 #@! TO.P,C_TREB_R2,1*
G04 #@! TO.N,OUT_EQ_R*
X52000000Y-24500000D03*
G04 #@! TO.P,C_TREB_R2,2*
G04 #@! TO.N,TREB_R_FB*
X54500000Y-24500000D03*
G04 #@! TD*
D11*
G04 #@! TO.P,R_FB_EQ_L,1*
G04 #@! TO.N,OUT_EQ_L*
X16000000Y-28000000D03*
G04 #@! TO.P,R_FB_EQ_L,2*
G04 #@! TO.N,IN_INV_L*
X21080000Y-28000000D03*
G04 #@! TD*
G04 #@! TO.P,R_BASS_R,1*
G04 #@! TO.N,BASS_R_W*
X72000000Y-37500000D03*
G04 #@! TO.P,R_BASS_R,2*
G04 #@! TO.N,IN_INV_R*
X77080000Y-37500000D03*
G04 #@! TD*
D19*
G04 #@! TO.P,J3,1*
G04 #@! TO.N,+3.3V*
X44000000Y-54000000D03*
D20*
G04 #@! TO.P,J3,2*
G04 #@! TO.N,GND*
X44000000Y-56540000D03*
G04 #@! TD*
D10*
G04 #@! TO.P,C_TREB_L2,1*
G04 #@! TO.N,OUT_EQ_L*
X26000000Y-24500000D03*
G04 #@! TO.P,C_TREB_L2,2*
G04 #@! TO.N,TREB_L_FB*
X28500000Y-24500000D03*
G04 #@! TD*
D15*
G04 #@! TO.P,C_OUT_L,1*
G04 #@! TO.N,DRV_OUT_L*
X7000000Y-21000000D03*
D10*
G04 #@! TO.P,C_OUT_L,2*
G04 #@! TO.N,OUT_L_JACK*
X9000000Y-21000000D03*
G04 #@! TD*
D12*
G04 #@! TO.P,RV4,*
G04 #@! TO.N,GND*
X53750000Y-5000000D03*
X63250000Y-5000000D03*
D13*
G04 #@! TO.P,RV4,1*
G04 #@! TO.N,TREB_L_IN*
X56000000Y-12500000D03*
D14*
G04 #@! TO.P,RV4,2*
G04 #@! TO.N,TREB_L_W*
X58500000Y-12500000D03*
G04 #@! TO.P,RV4,3*
G04 #@! TO.N,TREB_L_FB*
X61000000Y-12500000D03*
G04 #@! TO.P,RV4,4*
G04 #@! TO.N,TREB_R_IN*
X56000000Y-15000000D03*
G04 #@! TO.P,RV4,5*
G04 #@! TO.N,TREB_R_W*
X58500000Y-15000000D03*
G04 #@! TO.P,RV4,6*
G04 #@! TO.N,TREB_R_FB*
X61000000Y-15000000D03*
G04 #@! TD*
D11*
G04 #@! TO.P,R_TREB_R,1*
G04 #@! TO.N,TREB_R_W*
X52000000Y-28000000D03*
G04 #@! TO.P,R_TREB_R,2*
G04 #@! TO.N,IN_INV_R*
X57080000Y-28000000D03*
G04 #@! TD*
D15*
G04 #@! TO.P,C_BIAS1,1*
G04 #@! TO.N,VBIAS*
X36000000Y-47000000D03*
D10*
G04 #@! TO.P,C_BIAS1,2*
G04 #@! TO.N,GND*
X38000000Y-47000000D03*
G04 #@! TD*
D11*
G04 #@! TO.P,R_FB_R,1*
G04 #@! TO.N,DRV_OUT_R*
X62000000Y-31500000D03*
G04 #@! TO.P,R_FB_R,2*
G04 #@! TO.N,FB_DRV_R*
X67080000Y-31500000D03*
G04 #@! TD*
G04 #@! TO.P,R_PWR,1*
G04 #@! TO.N,LED_K*
X28000000Y-54000000D03*
G04 #@! TO.P,R_PWR,2*
G04 #@! TO.N,GND*
X33080000Y-54000000D03*
G04 #@! TD*
D13*
G04 #@! TO.P,D1,1*
G04 #@! TO.N,+3.3V*
X36000000Y-54000000D03*
D14*
G04 #@! TO.P,D1,2*
G04 #@! TO.N,LED_K*
X38540000Y-54000000D03*
G04 #@! TD*
D11*
G04 #@! TO.P,R_PULL_L,1*
G04 #@! TO.N,OUT_L_JACK*
X7000000Y-29500000D03*
G04 #@! TO.P,R_PULL_L,2*
G04 #@! TO.N,GND*
X12080000Y-29500000D03*
G04 #@! TD*
D10*
G04 #@! TO.P,C_TREB_R1,1*
G04 #@! TO.N,EQ_IN_R*
X52000000Y-21000000D03*
G04 #@! TO.P,C_TREB_R1,2*
G04 #@! TO.N,TREB_R_IN*
X54500000Y-21000000D03*
G04 #@! TD*
G04 #@! TO.P,C_BASS_R1,1*
G04 #@! TO.N,EQ_IN_R*
X52000000Y-35000000D03*
G04 #@! TO.P,C_BASS_R1,2*
G04 #@! TO.N,BASS_R_IN*
X54500000Y-35000000D03*
G04 #@! TD*
D11*
G04 #@! TO.P,R_BASS_L,1*
G04 #@! TO.N,BASS_L_W*
X7000000Y-37500000D03*
G04 #@! TO.P,R_BASS_L,2*
G04 #@! TO.N,IN_INV_L*
X12080000Y-37500000D03*
G04 #@! TD*
G04 #@! TO.P,R_TREB_L,1*
G04 #@! TO.N,TREB_L_W*
X26000000Y-28000000D03*
G04 #@! TO.P,R_TREB_L,2*
G04 #@! TO.N,IN_INV_L*
X31080000Y-28000000D03*
G04 #@! TD*
D12*
G04 #@! TO.P,RV3,*
G04 #@! TO.N,GND*
X39750000Y-5000000D03*
X49250000Y-5000000D03*
D13*
G04 #@! TO.P,RV3,1*
G04 #@! TO.N,MID_L_IN*
X42000000Y-12500000D03*
D14*
G04 #@! TO.P,RV3,2*
G04 #@! TO.N,IN_INV_L*
X44500000Y-12500000D03*
G04 #@! TO.P,RV3,3*
G04 #@! TO.N,MID_L_FB*
X47000000Y-12500000D03*
G04 #@! TO.P,RV3,4*
G04 #@! TO.N,MID_R_IN*
X42000000Y-15000000D03*
G04 #@! TO.P,RV3,5*
G04 #@! TO.N,IN_INV_R*
X44500000Y-15000000D03*
G04 #@! TO.P,RV3,6*
G04 #@! TO.N,MID_R_FB*
X47000000Y-15000000D03*
G04 #@! TD*
D11*
G04 #@! TO.P,R_GND_R,1*
G04 #@! TO.N,FB_DRV_R*
X62000000Y-35000000D03*
G04 #@! TO.P,R_GND_R,2*
G04 #@! TO.N,VBIAS*
X67080000Y-35000000D03*
G04 #@! TD*
D16*
G04 #@! TO.P,J1,R*
G04 #@! TO.N,IN_R_RAW*
X10200000Y-45900000D03*
G04 #@! TO.P,J1,RN*
G04 #@! TO.N,GND*
X12900000Y-47100000D03*
D17*
G04 #@! TO.P,J1,S*
X15400000Y-53900000D03*
D18*
G04 #@! TO.P,J1,T*
G04 #@! TO.N,IN_L_RAW*
X20000000Y-50000000D03*
D17*
G04 #@! TO.P,J1,TN*
G04 #@! TO.N,GND*
X19500000Y-42700000D03*
G04 #@! TD*
D15*
G04 #@! TO.P,C_OUT_R,1*
G04 #@! TO.N,DRV_OUT_R*
X72000000Y-21000000D03*
D10*
G04 #@! TO.P,C_OUT_R,2*
G04 #@! TO.N,OUT_R_JACK*
X74000000Y-21000000D03*
G04 #@! TD*
G04 #@! TO.P,C_TREB_L1,1*
G04 #@! TO.N,EQ_IN_L*
X26000000Y-21000000D03*
G04 #@! TO.P,C_TREB_L1,2*
G04 #@! TO.N,TREB_L_IN*
X28500000Y-21000000D03*
G04 #@! TD*
D21*
G04 #@! TO.N,GND*
X46500000Y-39450000D03*
G04 #@! TO.N,VBIAS*
X22064700Y-29316300D03*
G04 #@! TO.N,IN_R_RAW*
X66035000Y-55785600D03*
X13835900Y-56568400D03*
G04 #@! TO.N,VOL_L*
X15657000Y-29882600D03*
G04 #@! TO.N,DRV_OUT_R*
X69111900Y-30237800D03*
G04 #@! TO.N,OUT_L_JACK*
X12769500Y-55862600D03*
G04 #@! TO.N,OUT_R_JACK*
X69120000Y-32414100D03*
G04 #@! TO.N,BASS_R_W*
X59835300Y-10871800D03*
G04 #@! TO.N,MID_R_IN*
X46480900Y-16413800D03*
G04 #@! TO.N,TREB_L_W*
X56899700Y-18352500D03*
G04 #@! TD*
D22*
G04 #@! TO.N,GND*
X69400000Y-53900000D02*
X69400000Y-56500000D01*
D23*
G04 #@! TO.N,+3.3V*
X36000000Y-54000000D02*
X37201700Y-54000000D01*
X41632200Y-55216100D02*
X42848300Y-54000000D01*
X37201700Y-54375500D02*
X38042300Y-55216100D01*
X53126700Y-52873300D02*
X52000000Y-54000000D01*
X44000000Y-54000000D02*
X52000000Y-54000000D01*
X42848300Y-54000000D02*
X44000000Y-54000000D01*
X59000000Y-54000000D02*
X57873300Y-52873300D01*
X37201700Y-54000000D02*
X37201700Y-54375500D01*
X57873300Y-52873300D02*
X53126700Y-52873300D01*
X38042300Y-55216100D02*
X41632200Y-55216100D01*
G04 #@! TO.N,VBIAS*
X73701700Y-13701700D02*
X75000000Y-15000000D01*
X21080000Y-21000000D02*
X20000000Y-21000000D01*
X71952700Y-13701700D02*
X73701700Y-13701700D01*
X37803600Y-29466400D02*
X22214800Y-29466400D01*
X70000000Y-12500000D02*
X71201700Y-12500000D01*
X71201700Y-12950700D02*
X71952700Y-13701700D01*
X45000000Y-42000000D02*
X46495400Y-40504600D01*
X61575400Y-40504600D02*
X67080000Y-35000000D01*
X20000000Y-21000000D02*
X14000000Y-15000000D01*
X71201700Y-12500000D02*
X71201700Y-12950700D01*
X40190000Y-27080000D02*
X37803600Y-29466400D01*
X22214800Y-29466400D02*
X22064700Y-29316300D01*
X40080000Y-42000000D02*
X45000000Y-42000000D01*
X47810000Y-27080000D02*
X40190000Y-27080000D01*
X46495400Y-40504600D02*
X61575400Y-40504600D01*
G04 #@! TO.N,IN_L_RAW*
X20000000Y-50000000D02*
X20000000Y-47149100D01*
X7000000Y-34149100D02*
X7000000Y-33500000D01*
X20000000Y-47149100D02*
X7000000Y-34149100D01*
G04 #@! TO.N,IN_R_RAW*
X10200000Y-52430700D02*
X10200000Y-45900000D01*
X13835900Y-56066600D02*
X10200000Y-52430700D01*
X66035000Y-51037100D02*
X66035000Y-55785600D01*
X72000000Y-33500000D02*
X69577400Y-35922600D01*
X13835900Y-56568400D02*
X13835900Y-56066600D01*
X69577400Y-47494700D02*
X66035000Y-51037100D01*
X69577400Y-35922600D02*
X69577400Y-47494700D01*
G04 #@! TO.N,IN_R_AC*
X74500000Y-33500000D02*
X65500000Y-24500000D01*
X65500000Y-24500000D02*
X62000000Y-24500000D01*
G04 #@! TO.N,EQ_IN_L*
X24580000Y-21000000D02*
X21080000Y-24500000D01*
X26000000Y-21000000D02*
X24580000Y-21000000D01*
G04 #@! TO.N,EQ_IN_R*
X65330000Y-22750000D02*
X67080000Y-24500000D01*
X53750000Y-22750000D02*
X65330000Y-22750000D01*
X52000000Y-21000000D02*
X53750000Y-22750000D01*
G04 #@! TO.N,IN_INV_L*
X40190000Y-24540000D02*
X36730000Y-28000000D01*
X31080000Y-28000000D02*
X30017300Y-29062700D01*
X22662000Y-29062700D02*
X21599300Y-28000000D01*
X30017300Y-29062700D02*
X22662000Y-29062700D01*
X36730000Y-28000000D02*
X31080000Y-28000000D01*
X21599300Y-28000000D02*
X21080000Y-28000000D01*
G04 #@! TO.N,IN_INV_R*
X76827000Y-37500000D02*
X73101700Y-33774700D01*
X73101700Y-32971500D02*
X68130200Y-28000000D01*
X47810000Y-24540000D02*
X49651500Y-26381500D01*
X49651500Y-26381500D02*
X55461500Y-26381500D01*
X68130200Y-28000000D02*
X67080000Y-28000000D01*
X55461500Y-26381500D02*
X57080000Y-28000000D01*
X77080000Y-37500000D02*
X76827000Y-37500000D01*
X67080000Y-28000000D02*
X66040900Y-29039100D01*
X66040900Y-29039100D02*
X58119100Y-29039100D01*
X58119100Y-29039100D02*
X57080000Y-28000000D01*
X73101700Y-33774700D02*
X73101700Y-32971500D01*
G04 #@! TO.N,OUT_EQ_L*
X36525600Y-25664400D02*
X26000000Y-25664400D01*
X75000000Y-12500000D02*
X76219900Y-13719900D01*
X17016000Y-26984000D02*
X24680400Y-26984000D01*
X40190000Y-22000000D02*
X36525600Y-25664400D01*
X53924900Y-16949100D02*
X50612200Y-20261800D01*
X76219900Y-13719900D02*
X76219900Y-15484300D01*
X50612200Y-20261800D02*
X41928200Y-20261800D01*
X41928200Y-20261800D02*
X40190000Y-22000000D01*
X16000000Y-28000000D02*
X17016000Y-26984000D01*
X76219900Y-15484300D02*
X74755100Y-16949100D01*
X24680400Y-26984000D02*
X26000000Y-25664400D01*
X74755100Y-16949100D02*
X53924900Y-16949100D01*
X26000000Y-25664400D02*
X26000000Y-24500000D01*
G04 #@! TO.N,OUT_EQ_R*
X47810000Y-22000000D02*
X49500000Y-22000000D01*
X53279800Y-25779800D02*
X59779800Y-25779800D01*
X49500000Y-22000000D02*
X52000000Y-24500000D01*
X52000000Y-24500000D02*
X53279800Y-25779800D01*
X59779800Y-25779800D02*
X62000000Y-28000000D01*
G04 #@! TO.N,BAL_L*
X21057600Y-10442400D02*
X19000000Y-12500000D01*
X38834000Y-10442400D02*
X21057600Y-10442400D01*
X69868400Y-9868400D02*
X39408000Y-9868400D01*
X39408000Y-9868400D02*
X38834000Y-10442400D01*
X72500000Y-12500000D02*
X69868400Y-9868400D01*
G04 #@! TO.N,BAL_R*
X61641000Y-10270100D02*
X59586200Y-10270100D01*
X39000300Y-10844100D02*
X23155900Y-10844100D01*
X72500000Y-15000000D02*
X71243000Y-13743000D01*
X71243000Y-13743000D02*
X65113900Y-13743000D01*
X59413900Y-10442400D02*
X39402000Y-10442400D01*
X23155900Y-10844100D02*
X19000000Y-15000000D01*
X39402000Y-10442400D02*
X39000300Y-10844100D01*
X59586200Y-10270100D02*
X59413900Y-10442400D01*
X65113900Y-13743000D02*
X61641000Y-10270100D01*
G04 #@! TO.N,VOL_L*
X31271100Y-32160000D02*
X40190000Y-32160000D01*
X15657000Y-29882600D02*
X16094200Y-30319800D01*
X16094200Y-30319800D02*
X29430900Y-30319800D01*
X29430900Y-30319800D02*
X31271100Y-32160000D01*
G04 #@! TO.N,VOL_R*
X17080400Y-25500200D02*
X18038800Y-25500200D01*
X14971200Y-28428400D02*
X14971200Y-27609400D01*
X18038800Y-25500200D02*
X22131500Y-21407500D01*
X30769300Y-30890000D02*
X29797400Y-29918100D01*
X29797400Y-29918100D02*
X16543400Y-29918100D01*
X22131500Y-21407500D02*
X22131500Y-20631500D01*
X15833300Y-29208000D02*
X15750800Y-29208000D01*
X47810000Y-32160000D02*
X46540000Y-30890000D01*
X46540000Y-30890000D02*
X30769300Y-30890000D01*
X16543400Y-29918100D02*
X15833300Y-29208000D01*
X22131500Y-20631500D02*
X16500000Y-15000000D01*
X15750800Y-29208000D02*
X14971200Y-28428400D01*
X14971200Y-27609400D02*
X17080400Y-25500200D01*
G04 #@! TO.N,FB_DRV_L*
X38740000Y-33250000D02*
X22830000Y-33250000D01*
X22830000Y-33250000D02*
X21080000Y-31500000D01*
X40190000Y-34700000D02*
X38740000Y-33250000D01*
G04 #@! TO.N,FB_DRV_R*
X62000000Y-35000000D02*
X65500000Y-31500000D01*
X60871100Y-36128900D02*
X62000000Y-35000000D01*
X65500000Y-31500000D02*
X67080000Y-31500000D01*
X49238900Y-36128900D02*
X60871100Y-36128900D01*
X47810000Y-34700000D02*
X49238900Y-36128900D01*
G04 #@! TO.N,DRV_OUT_L*
X10000000Y-25500000D02*
X7000000Y-25500000D01*
X21740000Y-37240000D02*
X16000000Y-31500000D01*
X16000000Y-31500000D02*
X10000000Y-25500000D01*
X40190000Y-37240000D02*
X21740000Y-37240000D01*
G04 #@! TO.N,DRV_OUT_R*
X47501100Y-33430000D02*
X60070000Y-33430000D01*
X46707000Y-34224100D02*
X47501100Y-33430000D01*
X47810000Y-37240000D02*
X46707000Y-36137000D01*
X69111900Y-30237800D02*
X63262200Y-30237800D01*
X63262200Y-30237800D02*
X62000000Y-31500000D01*
X60070000Y-33430000D02*
X62000000Y-31500000D01*
X46707000Y-36137000D02*
X46707000Y-34224100D01*
G04 #@! TO.N,OUT_L_JACK*
X9000000Y-22420000D02*
X9000000Y-21000000D01*
X12080000Y-25500000D02*
X9000000Y-22420000D01*
X5866800Y-30633200D02*
X5866800Y-48959900D01*
X7000000Y-29500000D02*
X5866800Y-30633200D01*
X5946300Y-28446300D02*
X7000000Y-29500000D01*
X5866800Y-48959900D02*
X12769500Y-55862600D01*
X5946300Y-24053700D02*
X5946300Y-28446300D01*
X9000000Y-21000000D02*
X5946300Y-24053700D01*
G04 #@! TO.N,OUT_R_JACK*
X64200000Y-43598300D02*
X69120000Y-38678300D01*
X69120000Y-38678300D02*
X69120000Y-32414100D01*
X74000000Y-21000000D02*
X74000000Y-27500000D01*
X77080000Y-24080000D02*
X77080000Y-25500000D01*
X74000000Y-21000000D02*
X77080000Y-24080000D01*
X74000000Y-27500000D02*
X72000000Y-29500000D01*
X64200000Y-45900000D02*
X64200000Y-43598300D01*
G04 #@! TO.N,LED_K*
X28000000Y-54000000D02*
X29201700Y-52798300D01*
X29201700Y-52798300D02*
X37338300Y-52798300D01*
X37338300Y-52798300D02*
X38540000Y-54000000D01*
G04 #@! TO.N,BASS_R_W*
X37219100Y-13750000D02*
X31750000Y-13750000D01*
X31750000Y-13750000D02*
X30500000Y-15000000D01*
X40097300Y-10871800D02*
X37219100Y-13750000D01*
X59835300Y-10871800D02*
X40097300Y-10871800D01*
G04 #@! TO.N,MID_R_IN*
X42000000Y-15000000D02*
X43413800Y-16413800D01*
X43413800Y-16413800D02*
X46480900Y-16413800D01*
G04 #@! TO.N,TREB_L_IN*
X47787400Y-19510900D02*
X29989100Y-19510900D01*
X29989100Y-19510900D02*
X28500000Y-21000000D01*
X54798300Y-12500000D02*
X47787400Y-19510900D01*
X56000000Y-12500000D02*
X54798300Y-12500000D01*
G04 #@! TO.N,TREB_L_FB*
X27328100Y-23328100D02*
X27328100Y-20561900D01*
X31522000Y-16368000D02*
X33908000Y-16368000D01*
X28500000Y-24500000D02*
X27328100Y-23328100D01*
X33908000Y-16368000D02*
X34072800Y-16203200D01*
X34072800Y-16203200D02*
X35490200Y-16203200D01*
X59386200Y-11273500D02*
X60612700Y-12500000D01*
X35490200Y-16203200D02*
X40419900Y-11273500D01*
X60612700Y-12500000D02*
X61000000Y-12500000D01*
X40419900Y-11273500D02*
X59386200Y-11273500D01*
X27328100Y-20561900D02*
X31522000Y-16368000D01*
G04 #@! TO.N,TREB_L_W*
X56899700Y-18352500D02*
X57201700Y-18352500D01*
X39753200Y-23412000D02*
X42801500Y-23412000D01*
X51929000Y-19513000D02*
X55739200Y-19513000D01*
X27005600Y-26994400D02*
X36170800Y-26994400D01*
X45550000Y-20663500D02*
X50778500Y-20663500D01*
X50778500Y-20663500D02*
X51929000Y-19513000D01*
X26000000Y-28000000D02*
X27005600Y-26994400D01*
X42801500Y-23412000D02*
X45550000Y-20663500D01*
X55739200Y-19513000D02*
X56899700Y-18352500D01*
X36170800Y-26994400D02*
X39753200Y-23412000D01*
G04 #@! TD*
G04 #@! TA.AperFunction,Conductor*
G04 #@! TO.N,GND*
G36*
X85808363Y479815D02*
G01*
X85829005Y463181D01*
X87463181Y-1170995D01*
X87496666Y-1232318D01*
X87499500Y-1258676D01*
X87499500Y-57741324D01*
X87479815Y-57808363D01*
X87463181Y-57829005D01*
X85829005Y-59463181D01*
X85767682Y-59496666D01*
X85741324Y-59499500D01*
X2258676Y-59499500D01*
X2191637Y-59479815D01*
X2170995Y-59463181D01*
X536819Y-57829005D01*
X503334Y-57767682D01*
X500500Y-57741324D01*
X500500Y-55878711D01*
X2149500Y-55878711D01*
X2149500Y-56121288D01*
X2181161Y-56361785D01*
X2243947Y-56596104D01*
X2329190Y-56801897D01*
X2336776Y-56820212D01*
X2458064Y-57030289D01*
X2458066Y-57030292D01*
X2458067Y-57030293D01*
X2605733Y-57222736D01*
X2605739Y-57222743D01*
X2777256Y-57394260D01*
X2777262Y-57394265D01*
X2969711Y-57541936D01*
X3179788Y-57663224D01*
X3403900Y-57756054D01*
X3638211Y-57818838D01*
X3818586Y-57842584D01*
X3878711Y-57850500D01*
X3878712Y-57850500D01*
X4121289Y-57850500D01*
X4169388Y-57844167D01*
X4361789Y-57818838D01*
X4596100Y-57756054D01*
X4820212Y-57663224D01*
X5030289Y-57541936D01*
X5222738Y-57394265D01*
X5394265Y-57222738D01*
X5541936Y-57030289D01*
X5663224Y-56820212D01*
X5756054Y-56596100D01*
X5818838Y-56361789D01*
X5850500Y-56121288D01*
X5850500Y-55878712D01*
X5818838Y-55638211D01*
X5756054Y-55403900D01*
X5663224Y-55179788D01*
X5541936Y-54969711D01*
X5397958Y-54782075D01*
X5394266Y-54777263D01*
X5394260Y-54777256D01*
X5222743Y-54605739D01*
X5222736Y-54605733D01*
X5030293Y-54458067D01*
X5030292Y-54458066D01*
X5030289Y-54458064D01*
X4820212Y-54336776D01*
X4794554Y-54326148D01*
X4596104Y-54243947D01*
X4361785Y-54181161D01*
X4121289Y-54149500D01*
X4121288Y-54149500D01*
X3878712Y-54149500D01*
X3878711Y-54149500D01*
X3638214Y-54181161D01*
X3403895Y-54243947D01*
X3179794Y-54336773D01*
X3179785Y-54336777D01*
X2969706Y-54458067D01*
X2777263Y-54605733D01*
X2777256Y-54605739D01*
X2605739Y-54777256D01*
X2605733Y-54777263D01*
X2458067Y-54969706D01*
X2458064Y-54969710D01*
X2458064Y-54969711D01*
X2445212Y-54991971D01*
X2336777Y-55179785D01*
X2336773Y-55179794D01*
X2243947Y-55403895D01*
X2181161Y-55638214D01*
X2149500Y-55878711D01*
X500500Y-55878711D01*
X500500Y-49038954D01*
X5266298Y-49038954D01*
X5307223Y-49191685D01*
X5336158Y-49241800D01*
X5336159Y-49241804D01*
X5336160Y-49241804D01*
X5386279Y-49328614D01*
X5386281Y-49328617D01*
X5505149Y-49447485D01*
X5505155Y-49447490D01*
X11934925Y-55877260D01*
X11968410Y-55938583D01*
X11968861Y-55940749D01*
X11999761Y-56096091D01*
X11999764Y-56096101D01*
X12060102Y-56241772D01*
X12060109Y-56241785D01*
X12147710Y-56372888D01*
X12147713Y-56372892D01*
X12259207Y-56484386D01*
X12259211Y-56484389D01*
X12390314Y-56571990D01*
X12390327Y-56571997D01*
X12471999Y-56605826D01*
X12536003Y-56632337D01*
X12660610Y-56657123D01*
X12690653Y-56663099D01*
X12690656Y-56663100D01*
X12690658Y-56663100D01*
X12848344Y-56663100D01*
X12909696Y-56650896D01*
X12979288Y-56657123D01*
X13034465Y-56699986D01*
X13055505Y-56748320D01*
X13066161Y-56801892D01*
X13066164Y-56801901D01*
X13126502Y-56947572D01*
X13126509Y-56947585D01*
X13214110Y-57078688D01*
X13214113Y-57078692D01*
X13325607Y-57190186D01*
X13325611Y-57190189D01*
X13456714Y-57277790D01*
X13456727Y-57277797D01*
X13602398Y-57338135D01*
X13602403Y-57338137D01*
X13757053Y-57368899D01*
X13757056Y-57368900D01*
X13757058Y-57368900D01*
X13914744Y-57368900D01*
X13914745Y-57368899D01*
X14069397Y-57338137D01*
X14215079Y-57277794D01*
X14346189Y-57190189D01*
X14457689Y-57078689D01*
X14545294Y-56947579D01*
X14605637Y-56801897D01*
X14636400Y-56647242D01*
X14636400Y-56489558D01*
X14636400Y-56489555D01*
X14629143Y-56453073D01*
X14629143Y-56453072D01*
X14615265Y-56383305D01*
X14605637Y-56334903D01*
X14567064Y-56241779D01*
X14545297Y-56189227D01*
X14545290Y-56189214D01*
X14457298Y-56057525D01*
X14439902Y-56017896D01*
X14436400Y-56003475D01*
X14436400Y-55987543D01*
X14395477Y-55834816D01*
X14395477Y-55834815D01*
X14330072Y-55721531D01*
X14316420Y-55697884D01*
X14316418Y-55697882D01*
X14312356Y-55690846D01*
X14313952Y-55689924D01*
X14292455Y-55634313D01*
X14306495Y-55565869D01*
X14355311Y-55515881D01*
X14416025Y-55500000D01*
X15150000Y-55500000D01*
X15150000Y-54500001D01*
X15210402Y-54525021D01*
X15335981Y-54550000D01*
X15464019Y-54550000D01*
X15589598Y-54525021D01*
X15650000Y-54500001D01*
X15650000Y-55500000D01*
X16425928Y-55500000D01*
X16674669Y-55460602D01*
X16914184Y-55382780D01*
X17138583Y-55268442D01*
X17342331Y-55120409D01*
X17342332Y-55120409D01*
X17520409Y-54942332D01*
X17520409Y-54942331D01*
X17668442Y-54738583D01*
X17782780Y-54514184D01*
X17860602Y-54274671D01*
X17860602Y-54274668D01*
X17880348Y-54150000D01*
X16000001Y-54150000D01*
X16025021Y-54089598D01*
X16050000Y-53964019D01*
X16050000Y-53905513D01*
X26799500Y-53905513D01*
X26799500Y-54094486D01*
X26829059Y-54281118D01*
X26887454Y-54460836D01*
X26964327Y-54611706D01*
X26973240Y-54629199D01*
X27084310Y-54782073D01*
X27217927Y-54915690D01*
X27370801Y-55026760D01*
X27450347Y-55067290D01*
X27539163Y-55112545D01*
X27539165Y-55112545D01*
X27539168Y-55112547D01*
X27563365Y-55120409D01*
X27718881Y-55170940D01*
X27905514Y-55200500D01*
X27905519Y-55200500D01*
X28094486Y-55200500D01*
X28281118Y-55170940D01*
X28282623Y-55170451D01*
X28460832Y-55112547D01*
X28629199Y-55026760D01*
X28655182Y-55007882D01*
X32425669Y-55007882D01*
X32425670Y-55007883D01*
X32451059Y-55026329D01*
X32619362Y-55112085D01*
X32798997Y-55170451D01*
X32985553Y-55200000D01*
X33174447Y-55200000D01*
X33361002Y-55170451D01*
X33540637Y-55112085D01*
X33708937Y-55026331D01*
X33734328Y-55007883D01*
X33734328Y-55007882D01*
X33080001Y-54353554D01*
X33080000Y-54353554D01*
X32425669Y-55007882D01*
X28655182Y-55007882D01*
X28782073Y-54915690D01*
X28915690Y-54782073D01*
X29026760Y-54629199D01*
X29112547Y-54460832D01*
X29170940Y-54281118D01*
X29171962Y-54274668D01*
X29200500Y-54094486D01*
X29200500Y-53905513D01*
X29175274Y-53746246D01*
X29184228Y-53676953D01*
X29210061Y-53639172D01*
X29414117Y-53435116D01*
X29475439Y-53401634D01*
X29501797Y-53398800D01*
X31842915Y-53398800D01*
X31909954Y-53418485D01*
X31955709Y-53471289D01*
X31965653Y-53540447D01*
X31960846Y-53561118D01*
X31909547Y-53718997D01*
X31880000Y-53905552D01*
X31880000Y-54094447D01*
X31909548Y-54281002D01*
X31967914Y-54460637D01*
X32053666Y-54628933D01*
X32072116Y-54654328D01*
X32730000Y-53996444D01*
X32730000Y-54046078D01*
X32753852Y-54135095D01*
X32799930Y-54214905D01*
X32865095Y-54280070D01*
X32944905Y-54326148D01*
X33033922Y-54350000D01*
X33126078Y-54350000D01*
X33215095Y-54326148D01*
X33294905Y-54280070D01*
X33360070Y-54214905D01*
X33406148Y-54135095D01*
X33430000Y-54046078D01*
X33430000Y-53996446D01*
X34087882Y-54654328D01*
X34087883Y-54654328D01*
X34106331Y-54628937D01*
X34192085Y-54460637D01*
X34250451Y-54281002D01*
X34280000Y-54094447D01*
X34280000Y-53905552D01*
X34250452Y-53718997D01*
X34199154Y-53561118D01*
X34197159Y-53491277D01*
X34233239Y-53431444D01*
X34295940Y-53400616D01*
X34317085Y-53398800D01*
X34475500Y-53398800D01*
X34542539Y-53418485D01*
X34588294Y-53471289D01*
X34599500Y-53522800D01*
X34599500Y-54947870D01*
X34599501Y-54947876D01*
X34605908Y-55007483D01*
X34656202Y-55142328D01*
X34656206Y-55142335D01*
X34742452Y-55257544D01*
X34742455Y-55257547D01*
X34857664Y-55343793D01*
X34857671Y-55343797D01*
X34992517Y-55394091D01*
X34992516Y-55394091D01*
X34999444Y-55394835D01*
X35052127Y-55400500D01*
X36947872Y-55400499D01*
X37007483Y-55394091D01*
X37026983Y-55386818D01*
X37142329Y-55343797D01*
X37142329Y-55343796D01*
X37142331Y-55343796D01*
X37158355Y-55331799D01*
X37223819Y-55307381D01*
X37292092Y-55322231D01*
X37320349Y-55343384D01*
X37561778Y-55584813D01*
X37561780Y-55584816D01*
X37673584Y-55696620D01*
X37716732Y-55721531D01*
X37727069Y-55727499D01*
X37810509Y-55775674D01*
X37810510Y-55775675D01*
X37810512Y-55775675D01*
X37810515Y-55775677D01*
X37963243Y-55816601D01*
X37963246Y-55816601D01*
X38128953Y-55816601D01*
X38128969Y-55816600D01*
X41545531Y-55816600D01*
X41545547Y-55816601D01*
X41553143Y-55816601D01*
X41711254Y-55816601D01*
X41711257Y-55816601D01*
X41863985Y-55775677D01*
X41957768Y-55721531D01*
X42000916Y-55696620D01*
X42112720Y-55584816D01*
X42112720Y-55584814D01*
X42122924Y-55574611D01*
X42122928Y-55574606D01*
X42561777Y-55135756D01*
X42623098Y-55102273D01*
X42692790Y-55107257D01*
X42748721Y-55149126D01*
X42792454Y-55207546D01*
X42828877Y-55234812D01*
X42907664Y-55293793D01*
X42907671Y-55293797D01*
X42925643Y-55300500D01*
X43042517Y-55344091D01*
X43102127Y-55350500D01*
X43112685Y-55350499D01*
X43179723Y-55370179D01*
X43200372Y-55386818D01*
X43870591Y-56057037D01*
X43807007Y-56074075D01*
X43692993Y-56139901D01*
X43599901Y-56232993D01*
X43534075Y-56347007D01*
X43517037Y-56410591D01*
X42884728Y-55778282D01*
X42884727Y-55778282D01*
X42845380Y-55832439D01*
X42748904Y-56021782D01*
X42683242Y-56223869D01*
X42683242Y-56223872D01*
X42650000Y-56433753D01*
X42650000Y-56646246D01*
X42683242Y-56856127D01*
X42683242Y-56856130D01*
X42748904Y-57058217D01*
X42845375Y-57247550D01*
X42884728Y-57301716D01*
X43517037Y-56669408D01*
X43534075Y-56732993D01*
X43599901Y-56847007D01*
X43692993Y-56940099D01*
X43807007Y-57005925D01*
X43870590Y-57022962D01*
X43238282Y-57655269D01*
X43238282Y-57655270D01*
X43292449Y-57694624D01*
X43481782Y-57791095D01*
X43683870Y-57856757D01*
X43893754Y-57890000D01*
X44106246Y-57890000D01*
X44316127Y-57856757D01*
X44316130Y-57856757D01*
X44518217Y-57791095D01*
X44707554Y-57694622D01*
X44761716Y-57655270D01*
X44761717Y-57655270D01*
X44129408Y-57022962D01*
X44192993Y-57005925D01*
X44307007Y-56940099D01*
X44400099Y-56847007D01*
X44465925Y-56732993D01*
X44482962Y-56669409D01*
X45115270Y-57301717D01*
X45115270Y-57301716D01*
X45154622Y-57247554D01*
X45251095Y-57058217D01*
X45316757Y-56856130D01*
X45316757Y-56856127D01*
X45350000Y-56646246D01*
X45350000Y-56433753D01*
X45316757Y-56223872D01*
X45316757Y-56223869D01*
X45251095Y-56021782D01*
X45154624Y-55832449D01*
X45115270Y-55778282D01*
X45115269Y-55778282D01*
X44482962Y-56410590D01*
X44465925Y-56347007D01*
X44400099Y-56232993D01*
X44307007Y-56139901D01*
X44192993Y-56074075D01*
X44129409Y-56057037D01*
X44799627Y-55386818D01*
X44860950Y-55353333D01*
X44887307Y-55350499D01*
X44897872Y-55350499D01*
X44957483Y-55344091D01*
X45092331Y-55293796D01*
X45207546Y-55207546D01*
X45293796Y-55092331D01*
X45344091Y-54957483D01*
X45350500Y-54897873D01*
X45350500Y-54724500D01*
X45370185Y-54657461D01*
X45422989Y-54611706D01*
X45474500Y-54600500D01*
X50587837Y-54600500D01*
X50654876Y-54620185D01*
X50700631Y-54672989D01*
X50709089Y-54698541D01*
X50709999Y-54702792D01*
X50736271Y-54782074D01*
X50765186Y-54869334D01*
X50857288Y-55018656D01*
X50981344Y-55142712D01*
X51130666Y-55234814D01*
X51297203Y-55289999D01*
X51399991Y-55300500D01*
X52600008Y-55300499D01*
X52702797Y-55289999D01*
X52869334Y-55234814D01*
X53018656Y-55142712D01*
X53142712Y-55018656D01*
X53234814Y-54869334D01*
X53289999Y-54702797D01*
X53300500Y-54600009D01*
X53300499Y-53600097D01*
X53309148Y-53570639D01*
X53315680Y-53540647D01*
X53319422Y-53535650D01*
X53320183Y-53533059D01*
X53336837Y-53512398D01*
X53339136Y-53510100D01*
X53400466Y-53476628D01*
X53426798Y-53473800D01*
X57573203Y-53473800D01*
X57640242Y-53493485D01*
X57660884Y-53510119D01*
X57705922Y-53555157D01*
X57739407Y-53616480D01*
X57736173Y-53681155D01*
X57731522Y-53695468D01*
X57699500Y-53897648D01*
X57699500Y-54102351D01*
X57731522Y-54304534D01*
X57794781Y-54499223D01*
X57837248Y-54582567D01*
X57887585Y-54681359D01*
X57887715Y-54681613D01*
X58008028Y-54847213D01*
X58152786Y-54991971D01*
X58290928Y-55092335D01*
X58318390Y-55112287D01*
X58432543Y-55170451D01*
X58500776Y-55205218D01*
X58500778Y-55205218D01*
X58500781Y-55205220D01*
X58591856Y-55234812D01*
X58695465Y-55268477D01*
X58738613Y-55275311D01*
X58897648Y-55300500D01*
X58897649Y-55300500D01*
X59102351Y-55300500D01*
X59102352Y-55300500D01*
X59304534Y-55268477D01*
X59499219Y-55205220D01*
X59681610Y-55112287D01*
X59799330Y-55026759D01*
X59847213Y-54991971D01*
X59847215Y-54991968D01*
X59847219Y-54991966D01*
X59991966Y-54847219D01*
X59991968Y-54847215D01*
X59991971Y-54847213D01*
X60096895Y-54702795D01*
X60112287Y-54681610D01*
X60139795Y-54627621D01*
X60187769Y-54576826D01*
X60255589Y-54560030D01*
X60321725Y-54582567D01*
X60360765Y-54627621D01*
X60388141Y-54681350D01*
X60388147Y-54681359D01*
X60420523Y-54725921D01*
X60420524Y-54725922D01*
X61100000Y-54046446D01*
X61100000Y-54052661D01*
X61127259Y-54154394D01*
X61179920Y-54245606D01*
X61254394Y-54320080D01*
X61345606Y-54372741D01*
X61447339Y-54400000D01*
X61453553Y-54400000D01*
X60774076Y-55079474D01*
X60818650Y-55111859D01*
X61000968Y-55204755D01*
X61195582Y-55267990D01*
X61397683Y-55300000D01*
X61602317Y-55300000D01*
X61804417Y-55267990D01*
X61999031Y-55204755D01*
X62181349Y-55111859D01*
X62225921Y-55079474D01*
X61546447Y-54400000D01*
X61552661Y-54400000D01*
X61654394Y-54372741D01*
X61745606Y-54320080D01*
X61820080Y-54245606D01*
X61872741Y-54154394D01*
X61900000Y-54052661D01*
X61900000Y-54046447D01*
X62579474Y-54725921D01*
X62611859Y-54681349D01*
X62704755Y-54499031D01*
X62767990Y-54304417D01*
X62800000Y-54102317D01*
X62800000Y-53897682D01*
X62767990Y-53695582D01*
X62704755Y-53500968D01*
X62611859Y-53318650D01*
X62579474Y-53274077D01*
X62579474Y-53274076D01*
X61900000Y-53953551D01*
X61900000Y-53947339D01*
X61872741Y-53845606D01*
X61820080Y-53754394D01*
X61745606Y-53679920D01*
X61654394Y-53627259D01*
X61552661Y-53600000D01*
X61546446Y-53600000D01*
X62225922Y-52920524D01*
X62225921Y-52920523D01*
X62181359Y-52888147D01*
X62181350Y-52888141D01*
X61999031Y-52795244D01*
X61804417Y-52732009D01*
X61602317Y-52700000D01*
X61397683Y-52700000D01*
X61195582Y-52732009D01*
X61000968Y-52795244D01*
X60818644Y-52888143D01*
X60774077Y-52920523D01*
X60774077Y-52920524D01*
X61453554Y-53600000D01*
X61447339Y-53600000D01*
X61345606Y-53627259D01*
X61254394Y-53679920D01*
X61179920Y-53754394D01*
X61127259Y-53845606D01*
X61100000Y-53947339D01*
X61100000Y-53953553D01*
X60420524Y-53274077D01*
X60420523Y-53274077D01*
X60388143Y-53318644D01*
X60360765Y-53372378D01*
X60312790Y-53423174D01*
X60244969Y-53439969D01*
X60178834Y-53417431D01*
X60139795Y-53372378D01*
X60112287Y-53318390D01*
X60112285Y-53318387D01*
X60112284Y-53318385D01*
X59991971Y-53152786D01*
X59847213Y-53008028D01*
X59681613Y-52887715D01*
X59681612Y-52887714D01*
X59681610Y-52887713D01*
X59622643Y-52857668D01*
X59499223Y-52794781D01*
X59304534Y-52731522D01*
X59118799Y-52702105D01*
X59102352Y-52699500D01*
X58897648Y-52699500D01*
X58859599Y-52705526D01*
X58695468Y-52731522D01*
X58686717Y-52734365D01*
X58681154Y-52736173D01*
X58611313Y-52738167D01*
X58555157Y-52705922D01*
X58360890Y-52511655D01*
X58360888Y-52511652D01*
X58242017Y-52392781D01*
X58242016Y-52392780D01*
X58155204Y-52342660D01*
X58155204Y-52342659D01*
X58155200Y-52342658D01*
X58105085Y-52313723D01*
X57952357Y-52272799D01*
X57794243Y-52272799D01*
X57786647Y-52272799D01*
X57786631Y-52272800D01*
X53047640Y-52272800D01*
X53006719Y-52283764D01*
X53006719Y-52283765D01*
X52969451Y-52293751D01*
X52894914Y-52313723D01*
X52894909Y-52313726D01*
X52757990Y-52392775D01*
X52757982Y-52392781D01*
X52646180Y-52504583D01*
X52646180Y-52504584D01*
X52646178Y-52504586D01*
X52551264Y-52599500D01*
X52487582Y-52663182D01*
X52426259Y-52696666D01*
X52399901Y-52699500D01*
X51399998Y-52699500D01*
X51399980Y-52699501D01*
X51297203Y-52710000D01*
X51297200Y-52710001D01*
X51130668Y-52765185D01*
X51130663Y-52765187D01*
X50981342Y-52857289D01*
X50857289Y-52981342D01*
X50765187Y-53130663D01*
X50765185Y-53130668D01*
X50710000Y-53297204D01*
X50709088Y-53301467D01*
X50675801Y-53362898D01*
X50614586Y-53396581D01*
X50587837Y-53399500D01*
X45474499Y-53399500D01*
X45407460Y-53379815D01*
X45361705Y-53327011D01*
X45350499Y-53275500D01*
X45350499Y-53102129D01*
X45350498Y-53102123D01*
X45350497Y-53102116D01*
X45344091Y-53042517D01*
X45331227Y-53008028D01*
X45293797Y-52907671D01*
X45293793Y-52907664D01*
X45207547Y-52792455D01*
X45207544Y-52792452D01*
X45092335Y-52706206D01*
X45092328Y-52706202D01*
X44957482Y-52655908D01*
X44957483Y-52655908D01*
X44897883Y-52649501D01*
X44897881Y-52649500D01*
X44897873Y-52649500D01*
X44897864Y-52649500D01*
X43102129Y-52649500D01*
X43102123Y-52649501D01*
X43042516Y-52655908D01*
X42907671Y-52706202D01*
X42907664Y-52706206D01*
X42792455Y-52792452D01*
X42792452Y-52792455D01*
X42706206Y-52907664D01*
X42706202Y-52907671D01*
X42655908Y-53042517D01*
X42651415Y-53084312D01*
X42649501Y-53102123D01*
X42649500Y-53102135D01*
X42649500Y-53349787D01*
X42646125Y-53361279D01*
X42647269Y-53373205D01*
X42636462Y-53394187D01*
X42629815Y-53416826D01*
X42619962Y-53426224D01*
X42615278Y-53435320D01*
X42587544Y-53457149D01*
X42586395Y-53457813D01*
X42586351Y-53457838D01*
X42479587Y-53519477D01*
X42479582Y-53519481D01*
X42406954Y-53592110D01*
X42367780Y-53631284D01*
X42367778Y-53631286D01*
X41888843Y-54110222D01*
X41419784Y-54579281D01*
X41358461Y-54612766D01*
X41332103Y-54615600D01*
X39983224Y-54615600D01*
X39916185Y-54595915D01*
X39870430Y-54543111D01*
X39860486Y-54473953D01*
X39865293Y-54453282D01*
X39897696Y-54353554D01*
X39906015Y-54327951D01*
X39940500Y-54110222D01*
X39940500Y-53889778D01*
X39906015Y-53672049D01*
X39868035Y-53555157D01*
X39837896Y-53462396D01*
X39837895Y-53462393D01*
X39792029Y-53372378D01*
X39737815Y-53265978D01*
X39655573Y-53152781D01*
X39608247Y-53087641D01*
X39608243Y-53087636D01*
X39452363Y-52931756D01*
X39452358Y-52931752D01*
X39274025Y-52802187D01*
X39274024Y-52802186D01*
X39274022Y-52802185D01*
X39190549Y-52759653D01*
X39077606Y-52702104D01*
X39077603Y-52702103D01*
X38867952Y-52633985D01*
X38759086Y-52616742D01*
X38650222Y-52599500D01*
X38429778Y-52599500D01*
X38386232Y-52606397D01*
X38212045Y-52633985D01*
X38141794Y-52656811D01*
X38071953Y-52658806D01*
X38015796Y-52626561D01*
X37825890Y-52436655D01*
X37825888Y-52436652D01*
X37707017Y-52317781D01*
X37707016Y-52317780D01*
X37620204Y-52267660D01*
X37620204Y-52267659D01*
X37620200Y-52267658D01*
X37570085Y-52238723D01*
X37417357Y-52197799D01*
X37259243Y-52197799D01*
X37251647Y-52197799D01*
X37251631Y-52197800D01*
X29122640Y-52197800D01*
X29081719Y-52208764D01*
X29081719Y-52208765D01*
X29046194Y-52218284D01*
X28969914Y-52238723D01*
X28969909Y-52238726D01*
X28832990Y-52317775D01*
X28832982Y-52317781D01*
X28721178Y-52429586D01*
X28360830Y-52789933D01*
X28299507Y-52823418D01*
X28253751Y-52824725D01*
X28094486Y-52799500D01*
X28094481Y-52799500D01*
X27905519Y-52799500D01*
X27905514Y-52799500D01*
X27718881Y-52829059D01*
X27539163Y-52887454D01*
X27370800Y-52973240D01*
X27322911Y-53008034D01*
X27217927Y-53084310D01*
X27217925Y-53084312D01*
X27217924Y-53084312D01*
X27084312Y-53217924D01*
X27084312Y-53217925D01*
X27084310Y-53217927D01*
X27042859Y-53274979D01*
X26973240Y-53370800D01*
X26887454Y-53539163D01*
X26829059Y-53718881D01*
X26799500Y-53905513D01*
X16050000Y-53905513D01*
X16050000Y-53835981D01*
X16025021Y-53710402D01*
X16000001Y-53650000D01*
X17880348Y-53650000D01*
X17860602Y-53525331D01*
X17860602Y-53525328D01*
X17782780Y-53285815D01*
X17668442Y-53061416D01*
X17520409Y-52857668D01*
X17520409Y-52857667D01*
X17342332Y-52679590D01*
X17138583Y-52531557D01*
X16914184Y-52417219D01*
X16674669Y-52339397D01*
X16425928Y-52300000D01*
X15650000Y-52300000D01*
X15650000Y-53299998D01*
X15589598Y-53274979D01*
X15464019Y-53250000D01*
X15335981Y-53250000D01*
X15210402Y-53274979D01*
X15150000Y-53299998D01*
X15150000Y-52300000D01*
X14374072Y-52300000D01*
X14125330Y-52339397D01*
X13885815Y-52417219D01*
X13661416Y-52531557D01*
X13457668Y-52679590D01*
X13457667Y-52679590D01*
X13279590Y-52857667D01*
X13279590Y-52857668D01*
X13131557Y-53061416D01*
X13017219Y-53285815D01*
X12939397Y-53525328D01*
X12939397Y-53525331D01*
X12919652Y-53650000D01*
X14799999Y-53650000D01*
X14774979Y-53710402D01*
X14750000Y-53835981D01*
X14750000Y-53964019D01*
X14774979Y-54089598D01*
X14799999Y-54150000D01*
X12905756Y-54150000D01*
X12878645Y-54167696D01*
X12808777Y-54168192D01*
X12755186Y-54136651D01*
X10836819Y-52218284D01*
X10803334Y-52156961D01*
X10800500Y-52130603D01*
X10800500Y-48366300D01*
X10820185Y-48299261D01*
X10868204Y-48255815D01*
X11038845Y-48168870D01*
X11115445Y-48113216D01*
X11181250Y-48089737D01*
X11249304Y-48105562D01*
X11297999Y-48155668D01*
X11310803Y-48194137D01*
X11339397Y-48374669D01*
X11417219Y-48614184D01*
X11531557Y-48838583D01*
X11679590Y-49042331D01*
X11679590Y-49042332D01*
X11857667Y-49220409D01*
X12061416Y-49368442D01*
X12285815Y-49482780D01*
X12525329Y-49560602D01*
X12650000Y-49580348D01*
X12650000Y-47700001D01*
X12710402Y-47725021D01*
X12835981Y-47750000D01*
X12964019Y-47750000D01*
X13089598Y-47725021D01*
X13150000Y-47700001D01*
X13150000Y-49580347D01*
X13274668Y-49560602D01*
X13274671Y-49560602D01*
X13514184Y-49482780D01*
X13738583Y-49368442D01*
X13942331Y-49220409D01*
X13942332Y-49220409D01*
X14120409Y-49042332D01*
X14120409Y-49042331D01*
X14268442Y-48838583D01*
X14382780Y-48614184D01*
X14460602Y-48374669D01*
X14500000Y-48125928D01*
X14500000Y-47350000D01*
X13500001Y-47350000D01*
X13525021Y-47289598D01*
X13550000Y-47164019D01*
X13550000Y-47035981D01*
X13525021Y-46910402D01*
X13500001Y-46850000D01*
X14500000Y-46850000D01*
X14500000Y-46074071D01*
X14460602Y-45825330D01*
X14382780Y-45585815D01*
X14268442Y-45361416D01*
X14120409Y-45157668D01*
X14120409Y-45157667D01*
X13942332Y-44979590D01*
X13738583Y-44831557D01*
X13514184Y-44717219D01*
X13274670Y-44639397D01*
X13150000Y-44619650D01*
X13150000Y-46499998D01*
X13089598Y-46474979D01*
X12964019Y-46450000D01*
X12835981Y-46450000D01*
X12710402Y-46474979D01*
X12650000Y-46499998D01*
X12650000Y-44619650D01*
X12525330Y-44639397D01*
X12525327Y-44639397D01*
X12285815Y-44717219D01*
X12061413Y-44831559D01*
X11985095Y-44887007D01*
X11919289Y-44910487D01*
X11851235Y-44894661D01*
X11802540Y-44844555D01*
X11789738Y-44806090D01*
X11761090Y-44625215D01*
X11683241Y-44385621D01*
X11683239Y-44385618D01*
X11683239Y-44385616D01*
X11636413Y-44293715D01*
X11568870Y-44161155D01*
X11501510Y-44068442D01*
X11420798Y-43957350D01*
X11420794Y-43957345D01*
X11242654Y-43779205D01*
X11242649Y-43779201D01*
X11038848Y-43631132D01*
X11038847Y-43631131D01*
X11038845Y-43631130D01*
X10942583Y-43582082D01*
X10814383Y-43516760D01*
X10574785Y-43438910D01*
X10325962Y-43399500D01*
X10074038Y-43399500D01*
X9949626Y-43419205D01*
X9825214Y-43438910D01*
X9585616Y-43516760D01*
X9361151Y-43631132D01*
X9157350Y-43779201D01*
X9157345Y-43779205D01*
X8979205Y-43957345D01*
X8979201Y-43957350D01*
X8831132Y-44161151D01*
X8716760Y-44385616D01*
X8647103Y-44600000D01*
X8638910Y-44625215D01*
X8599500Y-44874038D01*
X8599500Y-46925962D01*
X8627438Y-47102352D01*
X8638910Y-47174785D01*
X8716760Y-47414383D01*
X8831132Y-47638848D01*
X8979201Y-47842649D01*
X8979205Y-47842654D01*
X9157345Y-48020794D01*
X9157350Y-48020798D01*
X9335117Y-48149952D01*
X9361155Y-48168870D01*
X9531795Y-48255815D01*
X9582591Y-48303789D01*
X9599500Y-48366300D01*
X9599500Y-51544003D01*
X9579815Y-51611042D01*
X9527011Y-51656797D01*
X9457853Y-51666741D01*
X9394297Y-51637716D01*
X9387819Y-51631684D01*
X6503619Y-48747484D01*
X6470134Y-48686161D01*
X6467300Y-48659803D01*
X6467300Y-38759867D01*
X6486985Y-38692828D01*
X6539789Y-38647073D01*
X6608947Y-38637129D01*
X6629613Y-38641934D01*
X6683873Y-38659564D01*
X6718881Y-38670940D01*
X6905514Y-38700500D01*
X6905519Y-38700500D01*
X7094486Y-38700500D01*
X7281118Y-38670940D01*
X7288634Y-38668498D01*
X7460832Y-38612547D01*
X7629199Y-38526760D01*
X7782073Y-38415690D01*
X7915690Y-38282073D01*
X8026760Y-38129199D01*
X8112547Y-37960832D01*
X8170940Y-37781118D01*
X8172600Y-37770639D01*
X8200500Y-37594486D01*
X8200500Y-37405513D01*
X8170940Y-37218881D01*
X8112545Y-37039163D01*
X8059708Y-36935465D01*
X8026760Y-36870801D01*
X7915690Y-36717927D01*
X7782073Y-36584310D01*
X7629199Y-36473240D01*
X7460836Y-36387454D01*
X7281118Y-36329059D01*
X7094486Y-36299500D01*
X7094481Y-36299500D01*
X6905519Y-36299500D01*
X6905514Y-36299500D01*
X6718880Y-36329060D01*
X6718877Y-36329060D01*
X6629618Y-36358063D01*
X6559777Y-36360058D01*
X6499944Y-36323978D01*
X6469116Y-36261277D01*
X6467300Y-36240132D01*
X6467300Y-34865012D01*
X6474091Y-34841883D01*
X6476594Y-34817912D01*
X6483756Y-34808967D01*
X6486985Y-34797973D01*
X6505199Y-34782190D01*
X6520267Y-34763374D01*
X6531129Y-34759721D01*
X6539789Y-34752218D01*
X6563644Y-34748787D01*
X6586493Y-34741105D01*
X6602067Y-34743263D01*
X6608947Y-34742274D01*
X6621596Y-34744770D01*
X6625636Y-34745788D01*
X6695466Y-34768477D01*
X6749907Y-34777099D01*
X6755299Y-34778458D01*
X6780796Y-34793480D01*
X6807534Y-34806155D01*
X6812684Y-34811019D01*
X19289484Y-47287819D01*
X19322969Y-47349142D01*
X19317985Y-47418834D01*
X19276113Y-47474767D01*
X19210649Y-47499184D01*
X19201803Y-47499500D01*
X18852130Y-47499500D01*
X18852123Y-47499501D01*
X18792516Y-47505908D01*
X18657671Y-47556202D01*
X18657664Y-47556206D01*
X18542455Y-47642452D01*
X18542452Y-47642455D01*
X18456206Y-47757664D01*
X18456202Y-47757671D01*
X18405908Y-47892517D01*
X18400316Y-47944534D01*
X18399501Y-47952123D01*
X18399500Y-47952135D01*
X18399500Y-52047870D01*
X18399501Y-52047876D01*
X18405908Y-52107483D01*
X18456202Y-52242328D01*
X18456206Y-52242335D01*
X18542452Y-52357544D01*
X18542455Y-52357547D01*
X18657664Y-52443793D01*
X18657671Y-52443797D01*
X18792517Y-52494091D01*
X18792516Y-52494091D01*
X18799444Y-52494835D01*
X18852127Y-52500500D01*
X21147872Y-52500499D01*
X21207483Y-52494091D01*
X21342331Y-52443796D01*
X21457546Y-52357546D01*
X21543796Y-52242331D01*
X21594091Y-52107483D01*
X21600500Y-52047873D01*
X21600499Y-47952128D01*
X21594091Y-47892517D01*
X21585444Y-47869334D01*
X21543797Y-47757671D01*
X21543793Y-47757664D01*
X21457547Y-47642455D01*
X21457544Y-47642452D01*
X21342335Y-47556206D01*
X21342328Y-47556202D01*
X21207482Y-47505908D01*
X21207483Y-47505908D01*
X21147883Y-47499501D01*
X21147881Y-47499500D01*
X21147873Y-47499500D01*
X21147865Y-47499500D01*
X20724500Y-47499500D01*
X20657461Y-47479815D01*
X20611706Y-47427011D01*
X20600500Y-47375500D01*
X20600500Y-47070044D01*
X20600499Y-47070040D01*
X20595264Y-47050500D01*
X20559577Y-46917315D01*
X20530639Y-46867195D01*
X20480520Y-46780384D01*
X20368716Y-46668580D01*
X20368715Y-46668579D01*
X20364385Y-46664249D01*
X20364374Y-46664239D01*
X20100118Y-46399983D01*
X34699500Y-46399983D01*
X34699500Y-47600001D01*
X34699501Y-47600018D01*
X34710000Y-47702796D01*
X34710001Y-47702799D01*
X34765185Y-47869331D01*
X34765187Y-47869336D01*
X34779485Y-47892516D01*
X34857288Y-48018656D01*
X34981344Y-48142712D01*
X35130666Y-48234814D01*
X35297203Y-48289999D01*
X35399991Y-48300500D01*
X36600008Y-48300499D01*
X36702797Y-48289999D01*
X36869334Y-48234814D01*
X37018656Y-48142712D01*
X37087879Y-48073489D01*
X37149202Y-48040004D01*
X37218894Y-48044988D01*
X37248446Y-48060853D01*
X37318646Y-48111857D01*
X37500968Y-48204755D01*
X37695582Y-48267990D01*
X37897683Y-48300000D01*
X38102317Y-48300000D01*
X38304417Y-48267990D01*
X38499031Y-48204755D01*
X38681349Y-48111859D01*
X38725921Y-48079474D01*
X38046447Y-47400000D01*
X38052661Y-47400000D01*
X38154394Y-47372741D01*
X38245606Y-47320080D01*
X38320080Y-47245606D01*
X38372741Y-47154394D01*
X38400000Y-47052661D01*
X38400000Y-47046447D01*
X39079474Y-47725921D01*
X39111859Y-47681349D01*
X39204755Y-47499031D01*
X39267990Y-47304417D01*
X39300000Y-47102317D01*
X39300000Y-46897682D01*
X39299995Y-46897648D01*
X44699500Y-46897648D01*
X44699500Y-47102351D01*
X44731522Y-47304534D01*
X44794781Y-47499223D01*
X44846135Y-47600009D01*
X44887585Y-47681359D01*
X44887715Y-47681613D01*
X45008028Y-47847213D01*
X45152786Y-47991971D01*
X45273226Y-48079474D01*
X45318390Y-48112287D01*
X45403530Y-48155668D01*
X45500776Y-48205218D01*
X45500778Y-48205218D01*
X45500781Y-48205220D01*
X45591856Y-48234812D01*
X45695465Y-48268477D01*
X45788668Y-48283239D01*
X45897648Y-48300500D01*
X45897649Y-48300500D01*
X46102351Y-48300500D01*
X46102352Y-48300500D01*
X46304534Y-48268477D01*
X46499219Y-48205220D01*
X46681610Y-48112287D01*
X46807535Y-48020798D01*
X46847213Y-47991971D01*
X46847215Y-47991968D01*
X46847219Y-47991966D01*
X46991966Y-47847219D01*
X46991968Y-47847215D01*
X46991971Y-47847213D01*
X47096894Y-47702797D01*
X47112287Y-47681610D01*
X47139795Y-47627621D01*
X47187769Y-47576826D01*
X47255589Y-47560030D01*
X47321725Y-47582567D01*
X47360765Y-47627621D01*
X47388141Y-47681350D01*
X47388147Y-47681359D01*
X47420523Y-47725921D01*
X47420524Y-47725922D01*
X48100000Y-47046446D01*
X48100000Y-47052661D01*
X48127259Y-47154394D01*
X48179920Y-47245606D01*
X48254394Y-47320080D01*
X48345606Y-47372741D01*
X48447339Y-47400000D01*
X48453553Y-47400000D01*
X47774076Y-48079474D01*
X47818650Y-48111859D01*
X48000968Y-48204755D01*
X48195582Y-48267990D01*
X48397683Y-48300000D01*
X48602317Y-48300000D01*
X48804417Y-48267990D01*
X48999031Y-48204755D01*
X49181349Y-48111859D01*
X49225921Y-48079474D01*
X48546447Y-47400000D01*
X48552661Y-47400000D01*
X48654394Y-47372741D01*
X48745606Y-47320080D01*
X48820080Y-47245606D01*
X48872741Y-47154394D01*
X48900000Y-47052661D01*
X48900000Y-47046447D01*
X49579474Y-47725921D01*
X49611859Y-47681349D01*
X49704755Y-47499031D01*
X49767990Y-47304417D01*
X49800000Y-47102317D01*
X49800000Y-46897682D01*
X49767990Y-46695582D01*
X49704755Y-46500968D01*
X49611859Y-46318650D01*
X49579474Y-46274077D01*
X49579474Y-46274076D01*
X48900000Y-46953551D01*
X48900000Y-46947339D01*
X48872741Y-46845606D01*
X48820080Y-46754394D01*
X48745606Y-46679920D01*
X48654394Y-46627259D01*
X48552661Y-46600000D01*
X48546446Y-46600000D01*
X49225922Y-45920524D01*
X49225921Y-45920523D01*
X49181359Y-45888147D01*
X49181350Y-45888141D01*
X48999031Y-45795244D01*
X48804417Y-45732009D01*
X48602317Y-45700000D01*
X48397683Y-45700000D01*
X48195582Y-45732009D01*
X48000968Y-45795244D01*
X47818644Y-45888143D01*
X47774077Y-45920523D01*
X47774077Y-45920524D01*
X48453554Y-46600000D01*
X48447339Y-46600000D01*
X48345606Y-46627259D01*
X48254394Y-46679920D01*
X48179920Y-46754394D01*
X48127259Y-46845606D01*
X48100000Y-46947339D01*
X48100000Y-46953553D01*
X47420524Y-46274077D01*
X47420523Y-46274077D01*
X47388143Y-46318644D01*
X47360765Y-46372378D01*
X47312790Y-46423174D01*
X47244969Y-46439969D01*
X47178834Y-46417431D01*
X47139795Y-46372378D01*
X47112284Y-46318385D01*
X46991971Y-46152786D01*
X46847213Y-46008028D01*
X46681613Y-45887715D01*
X46681612Y-45887714D01*
X46681610Y-45887713D01*
X46621898Y-45857288D01*
X46499223Y-45794781D01*
X46304534Y-45731522D01*
X46129995Y-45703878D01*
X46102352Y-45699500D01*
X45897648Y-45699500D01*
X45873329Y-45703351D01*
X45695465Y-45731522D01*
X45500776Y-45794781D01*
X45318386Y-45887715D01*
X45152786Y-46008028D01*
X45008028Y-46152786D01*
X44887715Y-46318386D01*
X44794781Y-46500776D01*
X44731522Y-46695465D01*
X44699500Y-46897648D01*
X39299995Y-46897648D01*
X39267990Y-46695582D01*
X39204755Y-46500968D01*
X39111859Y-46318650D01*
X39079474Y-46274077D01*
X39079474Y-46274076D01*
X38400000Y-46953551D01*
X38400000Y-46947339D01*
X38372741Y-46845606D01*
X38320080Y-46754394D01*
X38245606Y-46679920D01*
X38154394Y-46627259D01*
X38052661Y-46600000D01*
X38046446Y-46600000D01*
X38725922Y-45920524D01*
X38725921Y-45920523D01*
X38681359Y-45888147D01*
X38681350Y-45888141D01*
X38499031Y-45795244D01*
X38304417Y-45732009D01*
X38102317Y-45700000D01*
X37897683Y-45700000D01*
X37695582Y-45732009D01*
X37500968Y-45795244D01*
X37318651Y-45888139D01*
X37248444Y-45939148D01*
X37182637Y-45962627D01*
X37114583Y-45946801D01*
X37087878Y-45926510D01*
X37018657Y-45857289D01*
X37018656Y-45857288D01*
X36869334Y-45765186D01*
X36702797Y-45710001D01*
X36702795Y-45710000D01*
X36600010Y-45699500D01*
X35399998Y-45699500D01*
X35399981Y-45699501D01*
X35297203Y-45710000D01*
X35297200Y-45710001D01*
X35130668Y-45765185D01*
X35130663Y-45765187D01*
X34981342Y-45857289D01*
X34857289Y-45981342D01*
X34765187Y-46130663D01*
X34765186Y-46130666D01*
X34710001Y-46297203D01*
X34710001Y-46297204D01*
X34710000Y-46297204D01*
X34699500Y-46399983D01*
X20100118Y-46399983D01*
X18180798Y-44480663D01*
X18147313Y-44419340D01*
X18152297Y-44349648D01*
X18194169Y-44293715D01*
X18259633Y-44269298D01*
X18287877Y-44270509D01*
X18474072Y-44300000D01*
X19250000Y-44300000D01*
X19250000Y-43300001D01*
X19310402Y-43325021D01*
X19435981Y-43350000D01*
X19564019Y-43350000D01*
X19689598Y-43325021D01*
X19750000Y-43300001D01*
X19750000Y-44300000D01*
X20525928Y-44300000D01*
X20774669Y-44260602D01*
X21014184Y-44182780D01*
X21238583Y-44068442D01*
X21442331Y-43920409D01*
X21442332Y-43920409D01*
X21620409Y-43742332D01*
X21620409Y-43742331D01*
X21768442Y-43538583D01*
X21882780Y-43314184D01*
X21960602Y-43074671D01*
X21960602Y-43074668D01*
X21980348Y-42950000D01*
X20100001Y-42950000D01*
X20125021Y-42889598D01*
X20150000Y-42764019D01*
X20150000Y-42635981D01*
X20125021Y-42510402D01*
X20100001Y-42450000D01*
X21980348Y-42450000D01*
X21960602Y-42325331D01*
X21960602Y-42325328D01*
X21882780Y-42085815D01*
X21817116Y-41956942D01*
X21817115Y-41956938D01*
X21790912Y-41905513D01*
X33799500Y-41905513D01*
X33799500Y-42094486D01*
X33829059Y-42281118D01*
X33887454Y-42460836D01*
X33958617Y-42600500D01*
X33973240Y-42629199D01*
X34084310Y-42782073D01*
X34217927Y-42915690D01*
X34370801Y-43026760D01*
X34450347Y-43067290D01*
X34539163Y-43112545D01*
X34539165Y-43112545D01*
X34539168Y-43112547D01*
X34607865Y-43134868D01*
X34718881Y-43170940D01*
X34905514Y-43200500D01*
X34905519Y-43200500D01*
X35094486Y-43200500D01*
X35281118Y-43170940D01*
X35282623Y-43170451D01*
X35460832Y-43112547D01*
X35629199Y-43026760D01*
X35782073Y-42915690D01*
X35915690Y-42782073D01*
X36026760Y-42629199D01*
X36112547Y-42460832D01*
X36170940Y-42281118D01*
X36184562Y-42195112D01*
X36200500Y-42094486D01*
X36200500Y-41905513D01*
X36170940Y-41718881D01*
X36112545Y-41539163D01*
X36041383Y-41399500D01*
X36026760Y-41370801D01*
X35915690Y-41217927D01*
X35782073Y-41084310D01*
X35629199Y-40973240D01*
X35460836Y-40887454D01*
X35281118Y-40829059D01*
X35094486Y-40799500D01*
X35094481Y-40799500D01*
X34905519Y-40799500D01*
X34905514Y-40799500D01*
X34718881Y-40829059D01*
X34539163Y-40887454D01*
X34370800Y-40973240D01*
X34285467Y-41035239D01*
X34217927Y-41084310D01*
X34217925Y-41084312D01*
X34217924Y-41084312D01*
X34084312Y-41217924D01*
X34084312Y-41217925D01*
X34084310Y-41217927D01*
X34071049Y-41236179D01*
X33973240Y-41370800D01*
X33887454Y-41539163D01*
X33829059Y-41718881D01*
X33799500Y-41905513D01*
X21790912Y-41905513D01*
X21768446Y-41861421D01*
X21620409Y-41657668D01*
X21620409Y-41657667D01*
X21442332Y-41479590D01*
X21238583Y-41331557D01*
X21014184Y-41217219D01*
X20774669Y-41139397D01*
X20525928Y-41100000D01*
X19750000Y-41100000D01*
X19750000Y-42099998D01*
X19689598Y-42074979D01*
X19564019Y-42050000D01*
X19435981Y-42050000D01*
X19310402Y-42074979D01*
X19250000Y-42099998D01*
X19250000Y-41100000D01*
X18474072Y-41100000D01*
X18225330Y-41139397D01*
X17985815Y-41217219D01*
X17761416Y-41331557D01*
X17557668Y-41479590D01*
X17557667Y-41479590D01*
X17379590Y-41657667D01*
X17379590Y-41657668D01*
X17231557Y-41861416D01*
X17117219Y-42085815D01*
X17039397Y-42325328D01*
X17039397Y-42325331D01*
X17019652Y-42450000D01*
X18899999Y-42450000D01*
X18874979Y-42510402D01*
X18850000Y-42635981D01*
X18850000Y-42764019D01*
X18874979Y-42889598D01*
X18899999Y-42950000D01*
X17019651Y-42950000D01*
X17029490Y-43012123D01*
X17020535Y-43081416D01*
X16975539Y-43134868D01*
X16908787Y-43155507D01*
X16841473Y-43136782D01*
X16819336Y-43119201D01*
X12510374Y-38810239D01*
X12476889Y-38748916D01*
X12481873Y-38679224D01*
X12523745Y-38623291D01*
X12541755Y-38612076D01*
X12709199Y-38526760D01*
X12862073Y-38415690D01*
X12995690Y-38282073D01*
X13106760Y-38129199D01*
X13192547Y-37960832D01*
X13250940Y-37781118D01*
X13252600Y-37770639D01*
X13280500Y-37594486D01*
X13280500Y-37405513D01*
X13250940Y-37218881D01*
X13192545Y-37039163D01*
X13139708Y-36935465D01*
X13106760Y-36870801D01*
X12995690Y-36717927D01*
X12862073Y-36584310D01*
X12709199Y-36473240D01*
X12540836Y-36387454D01*
X12361118Y-36329059D01*
X12174486Y-36299500D01*
X12174481Y-36299500D01*
X11985519Y-36299500D01*
X11985514Y-36299500D01*
X11798881Y-36329059D01*
X11619163Y-36387454D01*
X11450800Y-36473240D01*
X11406100Y-36505717D01*
X11297927Y-36584310D01*
X11297925Y-36584312D01*
X11297924Y-36584312D01*
X11164312Y-36717924D01*
X11164312Y-36717925D01*
X11164310Y-36717927D01*
X11132256Y-36762046D01*
X11053240Y-36870800D01*
X10967926Y-37038239D01*
X10919951Y-37089035D01*
X10852130Y-37105830D01*
X10785995Y-37083293D01*
X10769760Y-37069625D01*
X8605648Y-34905513D01*
X14799500Y-34905513D01*
X14799500Y-35094486D01*
X14829059Y-35281118D01*
X14887454Y-35460836D01*
X14972717Y-35628172D01*
X14973240Y-35629199D01*
X15084310Y-35782073D01*
X15217927Y-35915690D01*
X15370801Y-36026760D01*
X15432001Y-36057943D01*
X15539163Y-36112545D01*
X15539165Y-36112545D01*
X15539168Y-36112547D01*
X15589488Y-36128897D01*
X15718881Y-36170940D01*
X15905514Y-36200500D01*
X15905519Y-36200500D01*
X16094486Y-36200500D01*
X16281118Y-36170940D01*
X16311753Y-36160986D01*
X16460832Y-36112547D01*
X16629199Y-36026760D01*
X16782073Y-35915690D01*
X16915690Y-35782073D01*
X17026760Y-35629199D01*
X17112547Y-35460832D01*
X17170940Y-35281118D01*
X17174415Y-35259175D01*
X17200500Y-35094486D01*
X17200500Y-34905513D01*
X17170940Y-34718881D01*
X17112545Y-34539163D01*
X17057285Y-34430710D01*
X17026760Y-34370801D01*
X16915690Y-34217927D01*
X16782073Y-34084310D01*
X16629199Y-33973240D01*
X16568268Y-33942194D01*
X16460836Y-33887454D01*
X16281118Y-33829059D01*
X16094486Y-33799500D01*
X16094481Y-33799500D01*
X15905519Y-33799500D01*
X15905514Y-33799500D01*
X15718881Y-33829059D01*
X15539163Y-33887454D01*
X15370800Y-33973240D01*
X15291990Y-34030500D01*
X15217927Y-34084310D01*
X15217925Y-34084312D01*
X15217924Y-34084312D01*
X15084312Y-34217924D01*
X15084312Y-34217925D01*
X15084310Y-34217927D01*
X15051363Y-34263274D01*
X14973240Y-34370800D01*
X14887454Y-34539163D01*
X14829059Y-34718881D01*
X14799500Y-34905513D01*
X8605648Y-34905513D01*
X8090160Y-34390025D01*
X8076081Y-34364241D01*
X8059657Y-34339875D01*
X8059526Y-34333924D01*
X8056675Y-34328702D01*
X8058770Y-34299394D01*
X8058128Y-34270022D01*
X8061353Y-34263274D01*
X8061659Y-34259010D01*
X8072083Y-34237604D01*
X8074641Y-34233424D01*
X8112287Y-34181610D01*
X8141713Y-34123858D01*
X8144242Y-34119727D01*
X8166693Y-34099395D01*
X8187490Y-34077376D01*
X8192333Y-34076176D01*
X8196032Y-34072827D01*
X8225915Y-34067860D01*
X8255311Y-34060581D01*
X8260033Y-34062190D01*
X8264956Y-34061372D01*
X8292774Y-34073347D01*
X8321446Y-34083118D01*
X8325000Y-34087220D01*
X8329132Y-34088999D01*
X8338203Y-34102457D01*
X8360484Y-34128171D01*
X8382891Y-34172147D01*
X8387715Y-34181613D01*
X8508028Y-34347213D01*
X8652786Y-34491971D01*
X8798241Y-34597648D01*
X8818390Y-34612287D01*
X8926726Y-34667487D01*
X9000776Y-34705218D01*
X9000778Y-34705218D01*
X9000781Y-34705220D01*
X9091320Y-34734638D01*
X9195465Y-34768477D01*
X9282045Y-34782190D01*
X9397648Y-34800500D01*
X9397649Y-34800500D01*
X9602351Y-34800500D01*
X9602352Y-34800500D01*
X9717955Y-34782190D01*
X9743311Y-34778174D01*
X9804534Y-34768477D01*
X9820239Y-34763374D01*
X9999219Y-34705220D01*
X10181610Y-34612287D01*
X10274590Y-34544732D01*
X10347213Y-34491971D01*
X10347215Y-34491968D01*
X10347219Y-34491966D01*
X10491966Y-34347219D01*
X10491968Y-34347215D01*
X10491971Y-34347213D01*
X10571605Y-34237604D01*
X10612287Y-34181610D01*
X10705220Y-33999219D01*
X10768477Y-33804534D01*
X10800500Y-33602352D01*
X10800500Y-33397648D01*
X10788125Y-33319515D01*
X10768477Y-33195465D01*
X10720511Y-33047843D01*
X10705220Y-33000781D01*
X10705218Y-33000778D01*
X10705218Y-33000776D01*
X10639515Y-32871828D01*
X10612287Y-32818390D01*
X10593056Y-32791920D01*
X10491971Y-32652786D01*
X10347213Y-32508028D01*
X10181613Y-32387715D01*
X10181612Y-32387714D01*
X10181610Y-32387713D01*
X10124653Y-32358691D01*
X9999223Y-32294781D01*
X9804534Y-32231522D01*
X9629995Y-32203878D01*
X9602352Y-32199500D01*
X9397648Y-32199500D01*
X9373329Y-32203351D01*
X9195465Y-32231522D01*
X9000776Y-32294781D01*
X8818386Y-32387715D01*
X8652786Y-32508028D01*
X8508028Y-32652786D01*
X8387713Y-32818388D01*
X8360484Y-32871828D01*
X8312510Y-32922623D01*
X8244688Y-32939418D01*
X8178554Y-32916880D01*
X8139516Y-32871828D01*
X8112286Y-32818388D01*
X7991971Y-32652786D01*
X7847213Y-32508028D01*
X7681613Y-32387715D01*
X7681612Y-32387714D01*
X7681610Y-32387713D01*
X7624653Y-32358691D01*
X7499223Y-32294781D01*
X7304534Y-32231522D01*
X7129995Y-32203878D01*
X7102352Y-32199500D01*
X6897648Y-32199500D01*
X6857102Y-32205922D01*
X6695464Y-32231523D01*
X6695457Y-32231524D01*
X6629617Y-32252917D01*
X6559776Y-32254912D01*
X6499943Y-32218831D01*
X6469116Y-32156130D01*
X6467300Y-32134986D01*
X6467300Y-30933296D01*
X6475945Y-30903852D01*
X6482468Y-30873870D01*
X6486222Y-30868854D01*
X6486985Y-30866257D01*
X6503610Y-30845624D01*
X6639170Y-30710063D01*
X6700489Y-30676581D01*
X6746246Y-30675274D01*
X6905514Y-30700500D01*
X6905519Y-30700500D01*
X7094486Y-30700500D01*
X7281118Y-30670940D01*
X7311753Y-30660986D01*
X7460832Y-30612547D01*
X7629199Y-30526760D01*
X7655182Y-30507882D01*
X11425669Y-30507882D01*
X11425670Y-30507883D01*
X11451059Y-30526329D01*
X11619362Y-30612085D01*
X11798997Y-30670451D01*
X11985553Y-30700000D01*
X12174447Y-30700000D01*
X12361002Y-30670451D01*
X12540637Y-30612085D01*
X12708937Y-30526331D01*
X12734328Y-30507883D01*
X12734328Y-30507882D01*
X12080001Y-29853554D01*
X12080000Y-29853554D01*
X11425669Y-30507882D01*
X7655182Y-30507882D01*
X7782073Y-30415690D01*
X7915690Y-30282073D01*
X8026760Y-30129199D01*
X8112547Y-29960832D01*
X8170940Y-29781118D01*
X8175116Y-29754754D01*
X8200500Y-29594486D01*
X8200500Y-29405552D01*
X10880000Y-29405552D01*
X10880000Y-29594447D01*
X10909548Y-29781002D01*
X10967914Y-29960637D01*
X11053666Y-30128933D01*
X11072116Y-30154328D01*
X11726446Y-29500000D01*
X11726446Y-29499999D01*
X11072116Y-28845669D01*
X11072116Y-28845670D01*
X11053669Y-28871060D01*
X10967914Y-29039362D01*
X10909548Y-29218997D01*
X10880000Y-29405552D01*
X8200500Y-29405552D01*
X8200500Y-29405513D01*
X8170940Y-29218881D01*
X8122543Y-29069932D01*
X8112547Y-29039168D01*
X8112545Y-29039165D01*
X8112545Y-29039163D01*
X8056948Y-28930049D01*
X8026760Y-28870801D01*
X7915690Y-28717927D01*
X7782073Y-28584310D01*
X7629199Y-28473240D01*
X7604847Y-28460832D01*
X7460836Y-28387454D01*
X7281118Y-28329059D01*
X7094486Y-28299500D01*
X7094481Y-28299500D01*
X6905519Y-28299500D01*
X6905514Y-28299500D01*
X6746247Y-28324725D01*
X6740821Y-28324023D01*
X6735695Y-28325936D01*
X6706539Y-28319593D01*
X6676953Y-28315770D01*
X6671349Y-28311938D01*
X6667422Y-28311084D01*
X6639168Y-28289933D01*
X6583119Y-28233884D01*
X6549634Y-28172561D01*
X6546800Y-28146203D01*
X6546800Y-26785698D01*
X6566485Y-26718659D01*
X6619289Y-26672904D01*
X6688447Y-26662960D01*
X6709110Y-26667765D01*
X6718882Y-26670940D01*
X6812200Y-26685720D01*
X6905514Y-26700500D01*
X6905519Y-26700500D01*
X7094486Y-26700500D01*
X7281118Y-26670940D01*
X7290883Y-26667767D01*
X7460832Y-26612547D01*
X7629199Y-26526760D01*
X7782073Y-26415690D01*
X7915690Y-26282073D01*
X8010475Y-26151613D01*
X8065804Y-26108949D01*
X8110792Y-26100500D01*
X9699903Y-26100500D01*
X9766942Y-26120185D01*
X9787584Y-26136819D01*
X11792764Y-28141999D01*
X11826249Y-28203322D01*
X11821265Y-28273014D01*
X11779393Y-28328947D01*
X11743402Y-28347611D01*
X11619361Y-28387915D01*
X11451060Y-28473669D01*
X11425670Y-28492116D01*
X11425669Y-28492116D01*
X12083554Y-29150000D01*
X12033922Y-29150000D01*
X11944905Y-29173852D01*
X11865095Y-29219930D01*
X11799930Y-29285095D01*
X11753852Y-29364905D01*
X11730000Y-29453922D01*
X11730000Y-29546078D01*
X11753852Y-29635095D01*
X11799930Y-29714905D01*
X11865095Y-29780070D01*
X11944905Y-29826148D01*
X12033922Y-29850000D01*
X12126078Y-29850000D01*
X12215095Y-29826148D01*
X12294905Y-29780070D01*
X12360070Y-29714905D01*
X12406148Y-29635095D01*
X12430000Y-29546078D01*
X12430000Y-29496446D01*
X13087882Y-30154328D01*
X13087883Y-30154328D01*
X13106331Y-30128937D01*
X13192086Y-29960635D01*
X13232387Y-29836598D01*
X13271823Y-29778922D01*
X13336182Y-29751723D01*
X13405028Y-29763637D01*
X13437999Y-29787234D01*
X14789933Y-31139168D01*
X14823418Y-31200491D01*
X14824725Y-31246247D01*
X14799500Y-31405513D01*
X14799500Y-31594486D01*
X14829059Y-31781118D01*
X14887454Y-31960836D01*
X14972717Y-32128172D01*
X14973240Y-32129199D01*
X15084310Y-32282073D01*
X15217927Y-32415690D01*
X15370801Y-32526760D01*
X15450347Y-32567290D01*
X15539163Y-32612545D01*
X15539165Y-32612545D01*
X15539168Y-32612547D01*
X15635497Y-32643846D01*
X15718881Y-32670940D01*
X15905514Y-32700500D01*
X15905519Y-32700500D01*
X16094486Y-32700500D01*
X16211017Y-32682042D01*
X16253753Y-32675274D01*
X16323045Y-32684228D01*
X16360831Y-32710066D01*
X21255139Y-37604374D01*
X21255149Y-37604385D01*
X21259479Y-37608715D01*
X21259480Y-37608716D01*
X21371284Y-37720520D01*
X21458095Y-37770639D01*
X21458097Y-37770641D01*
X21476244Y-37781118D01*
X21508215Y-37799577D01*
X21660943Y-37840501D01*
X21660946Y-37840501D01*
X21826653Y-37840501D01*
X21826669Y-37840500D01*
X38960398Y-37840500D01*
X39027437Y-37860185D01*
X39070883Y-37908205D01*
X39077715Y-37921614D01*
X39198028Y-38087213D01*
X39342786Y-38231971D01*
X39497749Y-38344556D01*
X39508390Y-38352287D01*
X39624607Y-38411503D01*
X39690776Y-38445218D01*
X39690778Y-38445218D01*
X39690781Y-38445220D01*
X39795137Y-38479127D01*
X39885465Y-38508477D01*
X39986557Y-38524488D01*
X40087648Y-38540500D01*
X40087649Y-38540500D01*
X40292351Y-38540500D01*
X40292352Y-38540500D01*
X40494534Y-38508477D01*
X40689219Y-38445220D01*
X40871610Y-38352287D01*
X40968252Y-38282073D01*
X41037213Y-38231971D01*
X41037215Y-38231968D01*
X41037219Y-38231966D01*
X41181966Y-38087219D01*
X41181968Y-38087215D01*
X41181971Y-38087213D01*
X41234732Y-38014590D01*
X41302287Y-37921610D01*
X41395220Y-37739219D01*
X41458477Y-37544534D01*
X41490500Y-37342352D01*
X41490500Y-37137648D01*
X41458477Y-36935466D01*
X41395220Y-36740781D01*
X41395218Y-36740778D01*
X41395218Y-36740776D01*
X41360840Y-36673306D01*
X41302287Y-36558390D01*
X41294556Y-36547749D01*
X41181971Y-36392786D01*
X41037213Y-36248028D01*
X40871614Y-36127715D01*
X40841329Y-36112284D01*
X40778917Y-36080483D01*
X40728123Y-36032511D01*
X40711328Y-35964690D01*
X40733865Y-35898555D01*
X40778917Y-35859516D01*
X40871610Y-35812287D01*
X40913196Y-35782073D01*
X41037213Y-35691971D01*
X41037215Y-35691968D01*
X41037219Y-35691966D01*
X41181966Y-35547219D01*
X41181968Y-35547215D01*
X41181971Y-35547213D01*
X41244729Y-35460832D01*
X41302287Y-35381610D01*
X41395220Y-35199219D01*
X41458477Y-35004534D01*
X41490500Y-34802352D01*
X41490500Y-34597648D01*
X41476152Y-34507057D01*
X41458477Y-34395465D01*
X41412888Y-34255157D01*
X41395220Y-34200781D01*
X41395218Y-34200778D01*
X41395218Y-34200776D01*
X41338264Y-34088999D01*
X41302287Y-34018390D01*
X41289549Y-34000858D01*
X41181971Y-33852786D01*
X41037213Y-33708028D01*
X40871614Y-33587715D01*
X40865006Y-33584348D01*
X40778917Y-33540483D01*
X40728123Y-33492511D01*
X40711328Y-33424690D01*
X40733865Y-33358555D01*
X40778917Y-33319516D01*
X40871610Y-33272287D01*
X40977346Y-33195466D01*
X41037213Y-33151971D01*
X41037215Y-33151968D01*
X41037219Y-33151966D01*
X41181966Y-33007219D01*
X41181968Y-33007215D01*
X41181971Y-33007213D01*
X41243428Y-32922623D01*
X41302287Y-32841610D01*
X41395220Y-32659219D01*
X41458477Y-32464534D01*
X41490500Y-32262352D01*
X41490500Y-32057648D01*
X41458477Y-31855466D01*
X41395220Y-31660781D01*
X41395218Y-31660777D01*
X41393714Y-31656148D01*
X41395035Y-31655718D01*
X41388236Y-31592486D01*
X41419509Y-31530006D01*
X41479597Y-31494352D01*
X41510266Y-31490500D01*
X46239903Y-31490500D01*
X46306942Y-31510185D01*
X46327584Y-31526819D01*
X46515922Y-31715157D01*
X46549407Y-31776480D01*
X46546173Y-31841155D01*
X46541522Y-31855468D01*
X46509500Y-32057648D01*
X46509500Y-32262351D01*
X46541522Y-32464534D01*
X46604781Y-32659223D01*
X46660450Y-32768477D01*
X46689900Y-32826277D01*
X46697715Y-32841613D01*
X46818028Y-33007213D01*
X46858658Y-33047843D01*
X46892143Y-33109166D01*
X46887159Y-33178858D01*
X46858658Y-33223205D01*
X46338286Y-33743578D01*
X46226481Y-33855382D01*
X46226479Y-33855385D01*
X46207815Y-33887713D01*
X46194648Y-33910520D01*
X46176361Y-33942194D01*
X46176359Y-33942196D01*
X46147425Y-33992309D01*
X46147424Y-33992310D01*
X46147423Y-33992315D01*
X46106499Y-34145043D01*
X46106499Y-34145045D01*
X46106499Y-34313146D01*
X46106500Y-34313159D01*
X46106500Y-36050330D01*
X46106499Y-36050348D01*
X46106499Y-36216054D01*
X46106498Y-36216054D01*
X46147423Y-36368785D01*
X46167246Y-36403119D01*
X46167245Y-36403119D01*
X46167246Y-36403120D01*
X46226475Y-36505709D01*
X46226481Y-36505717D01*
X46345349Y-36624585D01*
X46345355Y-36624590D01*
X46515922Y-36795157D01*
X46549407Y-36856480D01*
X46546173Y-36921155D01*
X46541522Y-36935468D01*
X46509500Y-37137648D01*
X46509500Y-37342351D01*
X46541522Y-37544534D01*
X46604781Y-37739223D01*
X46697715Y-37921613D01*
X46818028Y-38087213D01*
X46962786Y-38231971D01*
X47117749Y-38344556D01*
X47128390Y-38352287D01*
X47244607Y-38411503D01*
X47310776Y-38445218D01*
X47310778Y-38445218D01*
X47310781Y-38445220D01*
X47415137Y-38479127D01*
X47505465Y-38508477D01*
X47606557Y-38524488D01*
X47707648Y-38540500D01*
X47707649Y-38540500D01*
X47912351Y-38540500D01*
X47912352Y-38540500D01*
X48114534Y-38508477D01*
X48309219Y-38445220D01*
X48491610Y-38352287D01*
X48588252Y-38282073D01*
X48657213Y-38231971D01*
X48657215Y-38231968D01*
X48657219Y-38231966D01*
X48801966Y-38087219D01*
X48801968Y-38087215D01*
X48801971Y-38087213D01*
X48854732Y-38014590D01*
X48922287Y-37921610D01*
X49015220Y-37739219D01*
X49078477Y-37544534D01*
X49110500Y-37342352D01*
X49110500Y-37137648D01*
X49078477Y-36935466D01*
X49064262Y-36891719D01*
X49063459Y-36863600D01*
X49059456Y-36835755D01*
X49062475Y-36829142D01*
X49062268Y-36821879D01*
X49076791Y-36797793D01*
X49088480Y-36772199D01*
X49094595Y-36768268D01*
X49098348Y-36762046D01*
X49123590Y-36749634D01*
X49147258Y-36734424D01*
X49157528Y-36732947D01*
X49161048Y-36731217D01*
X49182193Y-36729401D01*
X49317958Y-36729401D01*
X49317961Y-36729400D01*
X49325569Y-36729400D01*
X60784431Y-36729400D01*
X60784447Y-36729401D01*
X60792043Y-36729401D01*
X60950154Y-36729401D01*
X60950157Y-36729401D01*
X61102885Y-36688477D01*
X61153004Y-36659539D01*
X61239816Y-36609420D01*
X61351620Y-36497616D01*
X61351620Y-36497614D01*
X61361828Y-36487407D01*
X61361830Y-36487404D01*
X61639169Y-36210064D01*
X61700490Y-36176581D01*
X61746246Y-36175274D01*
X61905514Y-36200500D01*
X61905519Y-36200500D01*
X62094486Y-36200500D01*
X62281118Y-36170940D01*
X62311753Y-36160986D01*
X62460832Y-36112547D01*
X62629199Y-36026760D01*
X62782073Y-35915690D01*
X62915690Y-35782073D01*
X63026760Y-35629199D01*
X63112547Y-35460832D01*
X63170940Y-35281118D01*
X63174415Y-35259175D01*
X63200500Y-35094486D01*
X63200500Y-34905513D01*
X63175274Y-34746246D01*
X63184228Y-34676953D01*
X63210063Y-34639170D01*
X65712416Y-32136819D01*
X65739343Y-32122115D01*
X65765162Y-32105523D01*
X65771362Y-32104631D01*
X65773739Y-32103334D01*
X65800097Y-32100500D01*
X65969208Y-32100500D01*
X66036247Y-32120185D01*
X66069524Y-32151612D01*
X66164310Y-32282073D01*
X66297927Y-32415690D01*
X66450801Y-32526760D01*
X66530347Y-32567290D01*
X66619163Y-32612545D01*
X66619165Y-32612545D01*
X66619168Y-32612547D01*
X66715497Y-32643846D01*
X66798881Y-32670940D01*
X66985514Y-32700500D01*
X66985519Y-32700500D01*
X67174486Y-32700500D01*
X67361118Y-32670940D01*
X67397191Y-32659219D01*
X67540832Y-32612547D01*
X67709199Y-32526760D01*
X67862073Y-32415690D01*
X67995690Y-32282073D01*
X68106760Y-32129199D01*
X68115971Y-32111120D01*
X68163941Y-32060326D01*
X68231762Y-32043528D01*
X68297898Y-32066063D01*
X68341351Y-32120776D01*
X68348326Y-32190297D01*
X68348073Y-32191605D01*
X68319500Y-32335253D01*
X68319500Y-32492946D01*
X68350261Y-32647589D01*
X68350264Y-32647601D01*
X68410602Y-32793272D01*
X68410609Y-32793285D01*
X68498602Y-32924974D01*
X68519480Y-32991651D01*
X68519500Y-32993865D01*
X68519500Y-34838933D01*
X68499815Y-34905972D01*
X68447011Y-34951727D01*
X68377853Y-34961671D01*
X68314297Y-34932646D01*
X68276523Y-34873868D01*
X68273027Y-34858331D01*
X68250940Y-34718881D01*
X68192545Y-34539163D01*
X68137285Y-34430710D01*
X68106760Y-34370801D01*
X67995690Y-34217927D01*
X67862073Y-34084310D01*
X67709199Y-33973240D01*
X67648268Y-33942194D01*
X67540836Y-33887454D01*
X67361118Y-33829059D01*
X67174486Y-33799500D01*
X67174481Y-33799500D01*
X66985519Y-33799500D01*
X66985514Y-33799500D01*
X66798881Y-33829059D01*
X66619163Y-33887454D01*
X66450800Y-33973240D01*
X66371990Y-34030500D01*
X66297927Y-34084310D01*
X66297925Y-34084312D01*
X66297924Y-34084312D01*
X66164312Y-34217924D01*
X66164312Y-34217925D01*
X66164310Y-34217927D01*
X66131363Y-34263274D01*
X66053240Y-34370800D01*
X65967454Y-34539163D01*
X65909059Y-34718881D01*
X65879500Y-34905513D01*
X65879500Y-35094486D01*
X65904725Y-35253751D01*
X65895770Y-35323045D01*
X65869933Y-35360830D01*
X61362984Y-39867781D01*
X61301661Y-39901266D01*
X61275303Y-39904100D01*
X46582069Y-39904100D01*
X46582053Y-39904099D01*
X46574457Y-39904099D01*
X46416343Y-39904099D01*
X46308987Y-39932865D01*
X46263610Y-39945024D01*
X46263609Y-39945025D01*
X46213496Y-39973959D01*
X46213495Y-39973960D01*
X46170089Y-39999020D01*
X46126685Y-40024079D01*
X46126682Y-40024081D01*
X46014878Y-40135886D01*
X45360830Y-40789933D01*
X45299507Y-40823418D01*
X45253751Y-40824725D01*
X45094486Y-40799500D01*
X45094481Y-40799500D01*
X44905519Y-40799500D01*
X44905514Y-40799500D01*
X44718881Y-40829059D01*
X44539163Y-40887454D01*
X44370800Y-40973240D01*
X44285467Y-41035239D01*
X44217927Y-41084310D01*
X44217925Y-41084312D01*
X44217924Y-41084312D01*
X44084312Y-41217924D01*
X44084312Y-41217925D01*
X44084310Y-41217927D01*
X44063371Y-41246747D01*
X43989526Y-41348386D01*
X43934196Y-41391051D01*
X43889208Y-41399500D01*
X41190792Y-41399500D01*
X41123753Y-41379815D01*
X41090474Y-41348386D01*
X41078247Y-41331557D01*
X40995690Y-41217927D01*
X40862073Y-41084310D01*
X40709199Y-40973240D01*
X40540836Y-40887454D01*
X40361118Y-40829059D01*
X40174486Y-40799500D01*
X40174481Y-40799500D01*
X39985519Y-40799500D01*
X39985514Y-40799500D01*
X39798881Y-40829059D01*
X39619163Y-40887454D01*
X39450800Y-40973240D01*
X39365467Y-41035239D01*
X39297927Y-41084310D01*
X39297925Y-41084312D01*
X39297924Y-41084312D01*
X39164312Y-41217924D01*
X39164312Y-41217925D01*
X39164310Y-41217927D01*
X39151049Y-41236179D01*
X39053240Y-41370800D01*
X38967454Y-41539163D01*
X38909059Y-41718881D01*
X38879500Y-41905513D01*
X38879500Y-42094486D01*
X38909059Y-42281118D01*
X38967454Y-42460836D01*
X39038617Y-42600500D01*
X39053240Y-42629199D01*
X39164310Y-42782073D01*
X39297927Y-42915690D01*
X39450801Y-43026760D01*
X39530347Y-43067290D01*
X39619163Y-43112545D01*
X39619165Y-43112545D01*
X39619168Y-43112547D01*
X39687865Y-43134868D01*
X39798881Y-43170940D01*
X39985514Y-43200500D01*
X39985519Y-43200500D01*
X40174486Y-43200500D01*
X40361118Y-43170940D01*
X40362623Y-43170451D01*
X40540832Y-43112547D01*
X40709199Y-43026760D01*
X40862073Y-42915690D01*
X40995690Y-42782073D01*
X41090475Y-42651613D01*
X41145804Y-42608949D01*
X41190792Y-42600500D01*
X43889208Y-42600500D01*
X43956247Y-42620185D01*
X43989524Y-42651612D01*
X44084310Y-42782073D01*
X44217927Y-42915690D01*
X44370801Y-43026760D01*
X44450347Y-43067290D01*
X44539163Y-43112545D01*
X44539165Y-43112545D01*
X44539168Y-43112547D01*
X44607865Y-43134868D01*
X44718881Y-43170940D01*
X44905514Y-43200500D01*
X44905519Y-43200500D01*
X45094486Y-43200500D01*
X45281118Y-43170940D01*
X45282623Y-43170451D01*
X45460832Y-43112547D01*
X45629199Y-43026760D01*
X45655182Y-43007882D01*
X49425669Y-43007882D01*
X49425670Y-43007883D01*
X49451059Y-43026329D01*
X49619362Y-43112085D01*
X49798997Y-43170451D01*
X49985553Y-43200000D01*
X50174447Y-43200000D01*
X50361002Y-43170451D01*
X50540637Y-43112085D01*
X50708937Y-43026331D01*
X50734328Y-43007883D01*
X50734328Y-43007882D01*
X50080001Y-42353554D01*
X50080000Y-42353554D01*
X49425669Y-43007882D01*
X45655182Y-43007882D01*
X45782073Y-42915690D01*
X45915690Y-42782073D01*
X46026760Y-42629199D01*
X46112547Y-42460832D01*
X46170940Y-42281118D01*
X46184562Y-42195112D01*
X46200500Y-42094486D01*
X46200500Y-41905513D01*
X46175274Y-41746246D01*
X46184228Y-41676953D01*
X46210063Y-41639170D01*
X46707816Y-41141419D01*
X46769139Y-41107934D01*
X46795497Y-41105100D01*
X49003537Y-41105100D01*
X49070576Y-41124785D01*
X49116331Y-41177589D01*
X49126275Y-41246747D01*
X49103855Y-41301985D01*
X49053670Y-41371059D01*
X48967914Y-41539362D01*
X48909548Y-41718997D01*
X48880000Y-41905552D01*
X48880000Y-42094447D01*
X48909548Y-42281002D01*
X48967914Y-42460637D01*
X49053666Y-42628933D01*
X49072116Y-42654328D01*
X49730000Y-41996444D01*
X49730000Y-42046078D01*
X49753852Y-42135095D01*
X49799930Y-42214905D01*
X49865095Y-42280070D01*
X49944905Y-42326148D01*
X50033922Y-42350000D01*
X50126078Y-42350000D01*
X50215095Y-42326148D01*
X50294905Y-42280070D01*
X50360070Y-42214905D01*
X50406148Y-42135095D01*
X50430000Y-42046078D01*
X50430000Y-41996446D01*
X51087882Y-42654328D01*
X51087883Y-42654328D01*
X51106331Y-42628937D01*
X51192085Y-42460637D01*
X51250451Y-42281002D01*
X51280000Y-42094447D01*
X51280000Y-41905552D01*
X51250451Y-41718997D01*
X51192085Y-41539362D01*
X51106329Y-41371059D01*
X51056145Y-41301985D01*
X51032665Y-41236179D01*
X51048491Y-41168125D01*
X51098597Y-41119430D01*
X51156463Y-41105100D01*
X61488731Y-41105100D01*
X61488747Y-41105101D01*
X61496343Y-41105101D01*
X61654454Y-41105101D01*
X61654457Y-41105101D01*
X61807185Y-41064177D01*
X61857304Y-41035239D01*
X61944116Y-40985120D01*
X62055920Y-40873316D01*
X62055920Y-40873314D01*
X62066128Y-40863107D01*
X62066130Y-40863104D01*
X66719169Y-36210064D01*
X66780490Y-36176581D01*
X66826246Y-36175274D01*
X66985514Y-36200500D01*
X66985519Y-36200500D01*
X67174486Y-36200500D01*
X67361118Y-36170940D01*
X67391753Y-36160986D01*
X67540832Y-36112547D01*
X67709199Y-36026760D01*
X67862073Y-35915690D01*
X67995690Y-35782073D01*
X68106760Y-35629199D01*
X68192547Y-35460832D01*
X68250940Y-35281118D01*
X68254415Y-35259175D01*
X68273027Y-35141668D01*
X68302956Y-35078533D01*
X68362268Y-35041602D01*
X68432130Y-35042600D01*
X68490363Y-35081210D01*
X68518477Y-35145174D01*
X68519500Y-35161066D01*
X68519500Y-38378202D01*
X68499815Y-38445241D01*
X68483181Y-38465883D01*
X63719481Y-43229582D01*
X63719480Y-43229584D01*
X63669360Y-43316395D01*
X63640423Y-43366515D01*
X63615043Y-43461230D01*
X63612656Y-43467414D01*
X63595265Y-43490100D01*
X63580385Y-43514512D01*
X63572237Y-43520139D01*
X63570148Y-43522866D01*
X63566270Y-43524261D01*
X63553272Y-43533241D01*
X63361151Y-43631132D01*
X63157350Y-43779201D01*
X63157345Y-43779205D01*
X62979205Y-43957345D01*
X62979201Y-43957350D01*
X62831132Y-44161151D01*
X62716760Y-44385616D01*
X62647103Y-44600000D01*
X62638910Y-44625215D01*
X62599500Y-44874038D01*
X62599500Y-46925962D01*
X62627438Y-47102352D01*
X62638910Y-47174785D01*
X62716760Y-47414383D01*
X62831132Y-47638848D01*
X62979201Y-47842649D01*
X62979205Y-47842654D01*
X63157345Y-48020794D01*
X63157350Y-48020798D01*
X63335117Y-48149952D01*
X63361155Y-48168870D01*
X63490574Y-48234812D01*
X63585616Y-48283239D01*
X63585618Y-48283239D01*
X63585621Y-48283241D01*
X63825215Y-48361090D01*
X64074038Y-48400500D01*
X64074039Y-48400500D01*
X64325961Y-48400500D01*
X64325962Y-48400500D01*
X64574785Y-48361090D01*
X64814379Y-48283241D01*
X65038845Y-48168870D01*
X65115445Y-48113216D01*
X65181250Y-48089737D01*
X65249304Y-48105562D01*
X65297999Y-48155668D01*
X65310803Y-48194137D01*
X65339397Y-48374669D01*
X65417219Y-48614184D01*
X65531557Y-48838583D01*
X65679590Y-49042331D01*
X65679590Y-49042332D01*
X65857667Y-49220409D01*
X66061416Y-49368442D01*
X66285815Y-49482780D01*
X66436234Y-49531654D01*
X66493909Y-49571091D01*
X66521108Y-49635450D01*
X66509194Y-49704296D01*
X66485597Y-49737266D01*
X65666286Y-50556578D01*
X65554481Y-50668382D01*
X65554479Y-50668385D01*
X65507649Y-50749499D01*
X65507648Y-50749500D01*
X65475423Y-50805315D01*
X65434499Y-50958043D01*
X65434499Y-50958045D01*
X65434499Y-51126146D01*
X65434500Y-51126159D01*
X65434500Y-55205834D01*
X65414815Y-55272873D01*
X65413602Y-55274725D01*
X65325609Y-55406414D01*
X65325602Y-55406427D01*
X65265264Y-55552098D01*
X65265261Y-55552110D01*
X65234500Y-55706753D01*
X65234500Y-55864446D01*
X65265261Y-56019089D01*
X65265264Y-56019101D01*
X65325602Y-56164772D01*
X65325609Y-56164785D01*
X65413210Y-56295888D01*
X65413213Y-56295892D01*
X65524707Y-56407386D01*
X65524711Y-56407389D01*
X65655814Y-56494990D01*
X65655827Y-56494997D01*
X65764478Y-56540001D01*
X65801503Y-56555337D01*
X65956153Y-56586099D01*
X65956156Y-56586100D01*
X65956158Y-56586100D01*
X66113844Y-56586100D01*
X66113845Y-56586099D01*
X66268497Y-56555337D01*
X66414179Y-56494994D01*
X66545289Y-56407389D01*
X66656789Y-56295889D01*
X66744394Y-56164779D01*
X66804737Y-56019097D01*
X66832662Y-55878711D01*
X82149500Y-55878711D01*
X82149500Y-56121288D01*
X82181161Y-56361785D01*
X82243947Y-56596104D01*
X82329190Y-56801897D01*
X82336776Y-56820212D01*
X82458064Y-57030289D01*
X82458066Y-57030292D01*
X82458067Y-57030293D01*
X82605733Y-57222736D01*
X82605739Y-57222743D01*
X82777256Y-57394260D01*
X82777262Y-57394265D01*
X82969711Y-57541936D01*
X83179788Y-57663224D01*
X83403900Y-57756054D01*
X83638211Y-57818838D01*
X83818586Y-57842584D01*
X83878711Y-57850500D01*
X83878712Y-57850500D01*
X84121289Y-57850500D01*
X84169388Y-57844167D01*
X84361789Y-57818838D01*
X84596100Y-57756054D01*
X84820212Y-57663224D01*
X85030289Y-57541936D01*
X85222738Y-57394265D01*
X85394265Y-57222738D01*
X85541936Y-57030289D01*
X85663224Y-56820212D01*
X85756054Y-56596100D01*
X85818838Y-56361789D01*
X85850500Y-56121288D01*
X85850500Y-55878712D01*
X85818838Y-55638211D01*
X85756054Y-55403900D01*
X85663224Y-55179788D01*
X85541936Y-54969711D01*
X85397958Y-54782075D01*
X85394266Y-54777263D01*
X85394260Y-54777256D01*
X85222743Y-54605739D01*
X85222736Y-54605733D01*
X85030293Y-54458067D01*
X85030292Y-54458066D01*
X85030289Y-54458064D01*
X84820212Y-54336776D01*
X84794554Y-54326148D01*
X84596104Y-54243947D01*
X84361785Y-54181161D01*
X84121289Y-54149500D01*
X84121288Y-54149500D01*
X83878712Y-54149500D01*
X83878711Y-54149500D01*
X83638214Y-54181161D01*
X83403895Y-54243947D01*
X83179794Y-54336773D01*
X83179785Y-54336777D01*
X82969706Y-54458067D01*
X82777263Y-54605733D01*
X82777256Y-54605739D01*
X82605739Y-54777256D01*
X82605733Y-54777263D01*
X82458067Y-54969706D01*
X82458064Y-54969710D01*
X82458064Y-54969711D01*
X82445212Y-54991971D01*
X82336777Y-55179785D01*
X82336773Y-55179794D01*
X82243947Y-55403895D01*
X82181161Y-55638214D01*
X82149500Y-55878711D01*
X66832662Y-55878711D01*
X66835500Y-55864442D01*
X66835500Y-55706758D01*
X66835500Y-55706755D01*
X66835499Y-55706753D01*
X66832151Y-55689924D01*
X66804737Y-55552103D01*
X66804735Y-55552098D01*
X66744397Y-55406427D01*
X66744390Y-55406414D01*
X66656398Y-55274725D01*
X66635520Y-55208047D01*
X66635500Y-55205834D01*
X66635500Y-53650000D01*
X66919652Y-53650000D01*
X68799999Y-53650000D01*
X68774979Y-53710402D01*
X68750000Y-53835981D01*
X68750000Y-53964019D01*
X68774979Y-54089598D01*
X68799999Y-54150000D01*
X66919652Y-54150000D01*
X66939397Y-54274668D01*
X66939397Y-54274671D01*
X67017219Y-54514184D01*
X67131557Y-54738583D01*
X67279590Y-54942331D01*
X67279590Y-54942332D01*
X67457667Y-55120409D01*
X67661416Y-55268442D01*
X67885815Y-55382780D01*
X68125330Y-55460602D01*
X68374072Y-55500000D01*
X69150000Y-55500000D01*
X69150000Y-54500001D01*
X69210402Y-54525021D01*
X69335981Y-54550000D01*
X69464019Y-54550000D01*
X69589598Y-54525021D01*
X69650000Y-54500001D01*
X69650000Y-55500000D01*
X70425928Y-55500000D01*
X70674669Y-55460602D01*
X70914184Y-55382780D01*
X71138583Y-55268442D01*
X71342331Y-55120409D01*
X71342332Y-55120409D01*
X71520409Y-54942332D01*
X71520409Y-54942331D01*
X71668442Y-54738583D01*
X71782780Y-54514184D01*
X71860602Y-54274671D01*
X71860602Y-54274668D01*
X71880348Y-54150000D01*
X70000001Y-54150000D01*
X70025021Y-54089598D01*
X70050000Y-53964019D01*
X70050000Y-53835981D01*
X70025021Y-53710402D01*
X70000001Y-53650000D01*
X71880348Y-53650000D01*
X71860602Y-53525331D01*
X71860602Y-53525328D01*
X71782780Y-53285815D01*
X71668442Y-53061416D01*
X71520409Y-52857668D01*
X71520409Y-52857667D01*
X71342332Y-52679590D01*
X71138583Y-52531557D01*
X70914184Y-52417219D01*
X70674669Y-52339397D01*
X70425928Y-52300000D01*
X69650000Y-52300000D01*
X69650000Y-53299998D01*
X69589598Y-53274979D01*
X69464019Y-53250000D01*
X69335981Y-53250000D01*
X69210402Y-53274979D01*
X69150000Y-53299998D01*
X69150000Y-52300000D01*
X68374072Y-52300000D01*
X68125330Y-52339397D01*
X67885815Y-52417219D01*
X67661416Y-52531557D01*
X67457668Y-52679590D01*
X67457667Y-52679590D01*
X67279590Y-52857667D01*
X67279590Y-52857668D01*
X67131557Y-53061416D01*
X67017219Y-53285815D01*
X66939397Y-53525328D01*
X66939397Y-53525331D01*
X66919652Y-53650000D01*
X66635500Y-53650000D01*
X66635500Y-51337196D01*
X66655185Y-51270157D01*
X66671814Y-51249520D01*
X69946113Y-47975221D01*
X69946116Y-47975220D01*
X69969201Y-47952135D01*
X72399500Y-47952135D01*
X72399500Y-52047870D01*
X72399501Y-52047876D01*
X72405908Y-52107483D01*
X72456202Y-52242328D01*
X72456206Y-52242335D01*
X72542452Y-52357544D01*
X72542455Y-52357547D01*
X72657664Y-52443793D01*
X72657671Y-52443797D01*
X72792517Y-52494091D01*
X72792516Y-52494091D01*
X72799444Y-52494835D01*
X72852127Y-52500500D01*
X75147872Y-52500499D01*
X75207483Y-52494091D01*
X75342331Y-52443796D01*
X75457546Y-52357546D01*
X75543796Y-52242331D01*
X75594091Y-52107483D01*
X75600500Y-52047873D01*
X75600499Y-47952128D01*
X75594091Y-47892517D01*
X75585444Y-47869334D01*
X75543797Y-47757671D01*
X75543793Y-47757664D01*
X75457547Y-47642455D01*
X75457544Y-47642452D01*
X75342335Y-47556206D01*
X75342328Y-47556202D01*
X75207482Y-47505908D01*
X75207483Y-47505908D01*
X75147883Y-47499501D01*
X75147881Y-47499500D01*
X75147873Y-47499500D01*
X75147864Y-47499500D01*
X72852129Y-47499500D01*
X72852123Y-47499501D01*
X72792516Y-47505908D01*
X72657671Y-47556202D01*
X72657664Y-47556206D01*
X72542455Y-47642452D01*
X72542452Y-47642455D01*
X72456206Y-47757664D01*
X72456202Y-47757671D01*
X72405908Y-47892517D01*
X72400316Y-47944534D01*
X72399501Y-47952123D01*
X72399500Y-47952135D01*
X69969201Y-47952135D01*
X70057920Y-47863416D01*
X70108039Y-47776604D01*
X70136977Y-47726485D01*
X70177900Y-47573757D01*
X70177900Y-47415643D01*
X70177900Y-42450000D01*
X71019652Y-42450000D01*
X72899999Y-42450000D01*
X72874979Y-42510402D01*
X72850000Y-42635981D01*
X72850000Y-42764019D01*
X72874979Y-42889598D01*
X72899999Y-42950000D01*
X71019652Y-42950000D01*
X71039397Y-43074668D01*
X71039397Y-43074671D01*
X71117219Y-43314184D01*
X71231557Y-43538583D01*
X71379590Y-43742331D01*
X71379590Y-43742332D01*
X71557667Y-43920409D01*
X71761416Y-44068442D01*
X71985815Y-44182780D01*
X72225330Y-44260602D01*
X72474072Y-44300000D01*
X73250000Y-44300000D01*
X73250000Y-43300001D01*
X73310402Y-43325021D01*
X73435981Y-43350000D01*
X73564019Y-43350000D01*
X73689598Y-43325021D01*
X73750000Y-43300001D01*
X73750000Y-44300000D01*
X74525928Y-44300000D01*
X74774669Y-44260602D01*
X75014184Y-44182780D01*
X75238583Y-44068442D01*
X75442331Y-43920409D01*
X75442332Y-43920409D01*
X75620409Y-43742332D01*
X75620409Y-43742331D01*
X75768442Y-43538583D01*
X75882780Y-43314184D01*
X75960602Y-43074671D01*
X75960602Y-43074668D01*
X75980348Y-42950000D01*
X74100001Y-42950000D01*
X74125021Y-42889598D01*
X74150000Y-42764019D01*
X74150000Y-42635981D01*
X74125021Y-42510402D01*
X74100001Y-42450000D01*
X75980348Y-42450000D01*
X75960602Y-42325331D01*
X75960602Y-42325328D01*
X75882780Y-42085815D01*
X75768442Y-41861416D01*
X75620409Y-41657668D01*
X75620409Y-41657667D01*
X75442332Y-41479590D01*
X75238583Y-41331557D01*
X75014184Y-41217219D01*
X74774669Y-41139397D01*
X74525928Y-41100000D01*
X73750000Y-41100000D01*
X73750000Y-42099998D01*
X73689598Y-42074979D01*
X73564019Y-42050000D01*
X73435981Y-42050000D01*
X73310402Y-42074979D01*
X73250000Y-42099998D01*
X73250000Y-41100000D01*
X72474072Y-41100000D01*
X72225330Y-41139397D01*
X71985815Y-41217219D01*
X71761416Y-41331557D01*
X71557668Y-41479590D01*
X71557667Y-41479590D01*
X71379590Y-41657667D01*
X71379590Y-41657668D01*
X71231557Y-41861416D01*
X71117219Y-42085815D01*
X71039397Y-42325328D01*
X71039397Y-42325331D01*
X71019652Y-42450000D01*
X70177900Y-42450000D01*
X70177900Y-37405513D01*
X70799500Y-37405513D01*
X70799500Y-37594486D01*
X70829059Y-37781118D01*
X70887454Y-37960836D01*
X70951847Y-38087213D01*
X70973240Y-38129199D01*
X71084310Y-38282073D01*
X71217927Y-38415690D01*
X71370801Y-38526760D01*
X71450347Y-38567290D01*
X71539163Y-38612545D01*
X71539165Y-38612545D01*
X71539168Y-38612547D01*
X71635497Y-38643846D01*
X71718881Y-38670940D01*
X71905514Y-38700500D01*
X71905519Y-38700500D01*
X72094486Y-38700500D01*
X72281118Y-38670940D01*
X72288634Y-38668498D01*
X72460832Y-38612547D01*
X72629199Y-38526760D01*
X72782073Y-38415690D01*
X72915690Y-38282073D01*
X73026760Y-38129199D01*
X73112547Y-37960832D01*
X73170940Y-37781118D01*
X73172600Y-37770639D01*
X73200500Y-37594486D01*
X73200500Y-37405513D01*
X73170940Y-37218881D01*
X73112545Y-37039163D01*
X73059708Y-36935465D01*
X73026760Y-36870801D01*
X72915690Y-36717927D01*
X72782073Y-36584310D01*
X72629199Y-36473240D01*
X72460836Y-36387454D01*
X72281118Y-36329059D01*
X72094486Y-36299500D01*
X72094481Y-36299500D01*
X71905519Y-36299500D01*
X71905514Y-36299500D01*
X71718881Y-36329059D01*
X71539163Y-36387454D01*
X71370800Y-36473240D01*
X71326100Y-36505717D01*
X71217927Y-36584310D01*
X71217925Y-36584312D01*
X71217924Y-36584312D01*
X71084312Y-36717924D01*
X71084312Y-36717925D01*
X71084310Y-36717927D01*
X71052256Y-36762046D01*
X70973240Y-36870800D01*
X70887454Y-37039163D01*
X70829059Y-37218881D01*
X70799500Y-37405513D01*
X70177900Y-37405513D01*
X70177900Y-36222697D01*
X70197585Y-36155658D01*
X70214219Y-36135016D01*
X70857154Y-35492081D01*
X71555159Y-34794075D01*
X71616480Y-34760592D01*
X71681154Y-34763826D01*
X71695466Y-34768477D01*
X71897648Y-34800500D01*
X71897649Y-34800500D01*
X72102351Y-34800500D01*
X72102352Y-34800500D01*
X72304534Y-34768477D01*
X72499219Y-34705220D01*
X72681610Y-34612287D01*
X72832497Y-34502661D01*
X72898303Y-34479182D01*
X72966357Y-34495008D01*
X72993063Y-34515299D01*
X75843181Y-37365417D01*
X75876666Y-37426740D01*
X75879500Y-37453098D01*
X75879500Y-37594486D01*
X75909059Y-37781118D01*
X75967454Y-37960836D01*
X76031847Y-38087213D01*
X76053240Y-38129199D01*
X76164310Y-38282073D01*
X76297927Y-38415690D01*
X76450801Y-38526760D01*
X76530347Y-38567290D01*
X76619163Y-38612545D01*
X76619165Y-38612545D01*
X76619168Y-38612547D01*
X76715497Y-38643846D01*
X76798881Y-38670940D01*
X76985514Y-38700500D01*
X76985519Y-38700500D01*
X77174486Y-38700500D01*
X77361118Y-38670940D01*
X77368634Y-38668498D01*
X77540832Y-38612547D01*
X77709199Y-38526760D01*
X77862073Y-38415690D01*
X77995690Y-38282073D01*
X78106760Y-38129199D01*
X78192547Y-37960832D01*
X78250940Y-37781118D01*
X78252600Y-37770639D01*
X78280500Y-37594486D01*
X78280500Y-37405513D01*
X78250940Y-37218881D01*
X78192545Y-37039163D01*
X78139708Y-36935465D01*
X78106760Y-36870801D01*
X77995690Y-36717927D01*
X77862073Y-36584310D01*
X77709199Y-36473240D01*
X77540836Y-36387454D01*
X77361118Y-36329059D01*
X77174486Y-36299500D01*
X77174481Y-36299500D01*
X76985519Y-36299500D01*
X76985514Y-36299500D01*
X76798880Y-36329060D01*
X76798877Y-36329060D01*
X76649561Y-36377576D01*
X76579719Y-36379571D01*
X76523562Y-36347326D01*
X75804408Y-35628172D01*
X75041887Y-34865652D01*
X75008403Y-34804330D01*
X75013387Y-34734638D01*
X75055259Y-34678705D01*
X75073274Y-34667487D01*
X75181610Y-34612287D01*
X75202770Y-34596913D01*
X75347213Y-34491971D01*
X75347215Y-34491968D01*
X75347219Y-34491966D01*
X75491966Y-34347219D01*
X75491968Y-34347215D01*
X75491971Y-34347213D01*
X75571605Y-34237604D01*
X75612287Y-34181610D01*
X75705220Y-33999219D01*
X75768477Y-33804534D01*
X75800500Y-33602352D01*
X75800500Y-33397648D01*
X75788125Y-33319515D01*
X75768477Y-33195465D01*
X75720511Y-33047843D01*
X75705220Y-33000781D01*
X75705218Y-33000778D01*
X75705218Y-33000776D01*
X75639515Y-32871828D01*
X75612287Y-32818390D01*
X75593056Y-32791920D01*
X75491971Y-32652786D01*
X75347213Y-32508028D01*
X75181613Y-32387715D01*
X75181612Y-32387714D01*
X75181610Y-32387713D01*
X75124653Y-32358691D01*
X74999223Y-32294781D01*
X74804534Y-32231522D01*
X74629995Y-32203878D01*
X74602352Y-32199500D01*
X74397648Y-32199500D01*
X74359599Y-32205526D01*
X74195468Y-32231522D01*
X74186717Y-32234365D01*
X74181154Y-32236173D01*
X74111313Y-32238167D01*
X74055157Y-32205922D01*
X72582144Y-30732909D01*
X72548659Y-30671586D01*
X72553643Y-30601894D01*
X72595515Y-30545961D01*
X72613533Y-30534742D01*
X72629199Y-30526760D01*
X72655182Y-30507882D01*
X76425669Y-30507882D01*
X76425670Y-30507883D01*
X76451059Y-30526329D01*
X76619362Y-30612085D01*
X76798997Y-30670451D01*
X76985553Y-30700000D01*
X77174447Y-30700000D01*
X77361002Y-30670451D01*
X77540637Y-30612085D01*
X77708937Y-30526331D01*
X77734328Y-30507883D01*
X77734328Y-30507882D01*
X77080001Y-29853554D01*
X77080000Y-29853554D01*
X76425669Y-30507882D01*
X72655182Y-30507882D01*
X72782073Y-30415690D01*
X72915690Y-30282073D01*
X73026760Y-30129199D01*
X73112547Y-29960832D01*
X73170940Y-29781118D01*
X73175116Y-29754754D01*
X73200500Y-29594486D01*
X73200500Y-29410170D01*
X73200500Y-29405552D01*
X75880000Y-29405552D01*
X75880000Y-29594447D01*
X75909548Y-29781002D01*
X75967914Y-29960637D01*
X76053666Y-30128933D01*
X76072116Y-30154328D01*
X76726446Y-29500000D01*
X76726446Y-29499999D01*
X76680369Y-29453922D01*
X76730000Y-29453922D01*
X76730000Y-29546078D01*
X76753852Y-29635095D01*
X76799930Y-29714905D01*
X76865095Y-29780070D01*
X76944905Y-29826148D01*
X77033922Y-29850000D01*
X77126078Y-29850000D01*
X77215095Y-29826148D01*
X77294905Y-29780070D01*
X77360070Y-29714905D01*
X77406148Y-29635095D01*
X77430000Y-29546078D01*
X77430000Y-29499999D01*
X77433554Y-29499999D01*
X77433554Y-29500000D01*
X78087882Y-30154328D01*
X78087883Y-30154328D01*
X78106331Y-30128937D01*
X78192085Y-29960637D01*
X78250451Y-29781002D01*
X78280000Y-29594447D01*
X78280000Y-29405552D01*
X78250451Y-29218997D01*
X78192085Y-29039362D01*
X78106329Y-28871059D01*
X78087883Y-28845670D01*
X78087882Y-28845669D01*
X77433554Y-29499999D01*
X77430000Y-29499999D01*
X77430000Y-29453922D01*
X77406148Y-29364905D01*
X77360070Y-29285095D01*
X77294905Y-29219930D01*
X77215095Y-29173852D01*
X77126078Y-29150000D01*
X77033922Y-29150000D01*
X76944905Y-29173852D01*
X76865095Y-29219930D01*
X76799930Y-29285095D01*
X76753852Y-29364905D01*
X76730000Y-29453922D01*
X76680369Y-29453922D01*
X76072116Y-28845669D01*
X76072116Y-28845670D01*
X76053669Y-28871060D01*
X75967914Y-29039362D01*
X75909548Y-29218997D01*
X75880000Y-29405552D01*
X73200500Y-29405552D01*
X73200500Y-29405519D01*
X73175226Y-29245949D01*
X73175190Y-29245709D01*
X73179783Y-29211349D01*
X73184228Y-29176953D01*
X73184418Y-29176673D01*
X73184448Y-29176456D01*
X73185062Y-29175731D01*
X73210063Y-29139170D01*
X73857118Y-28492116D01*
X76425669Y-28492116D01*
X77080000Y-29146446D01*
X77080001Y-29146446D01*
X77734328Y-28492116D01*
X77708933Y-28473666D01*
X77540637Y-28387914D01*
X77361002Y-28329548D01*
X77174447Y-28300000D01*
X76985553Y-28300000D01*
X76798997Y-28329548D01*
X76619362Y-28387914D01*
X76451060Y-28473669D01*
X76425670Y-28492116D01*
X76425669Y-28492116D01*
X73857118Y-28492116D01*
X74358506Y-27990728D01*
X74358511Y-27990724D01*
X74368714Y-27980520D01*
X74368716Y-27980520D01*
X74480520Y-27868716D01*
X74547953Y-27751918D01*
X74559577Y-27731785D01*
X74600500Y-27579057D01*
X74600500Y-27420943D01*
X74600500Y-22749097D01*
X74620185Y-22682058D01*
X74672989Y-22636303D01*
X74742147Y-22626359D01*
X74805703Y-22655384D01*
X74812181Y-22661416D01*
X76443181Y-24292416D01*
X76457884Y-24319343D01*
X76474477Y-24345162D01*
X76475368Y-24351362D01*
X76476666Y-24353739D01*
X76479500Y-24380097D01*
X76479500Y-24389207D01*
X76459815Y-24456246D01*
X76428386Y-24489525D01*
X76297925Y-24584311D01*
X76164312Y-24717924D01*
X76164312Y-24717925D01*
X76164310Y-24717927D01*
X76136429Y-24756302D01*
X76053240Y-24870800D01*
X75967454Y-25039163D01*
X75909059Y-25218881D01*
X75879500Y-25405513D01*
X75879500Y-25594486D01*
X75909059Y-25781118D01*
X75967454Y-25960836D01*
X76040163Y-26103534D01*
X76053240Y-26129199D01*
X76164310Y-26282073D01*
X76297927Y-26415690D01*
X76450801Y-26526760D01*
X76530347Y-26567290D01*
X76619163Y-26612545D01*
X76619165Y-26612545D01*
X76619168Y-26612547D01*
X76708593Y-26641603D01*
X76798881Y-26670940D01*
X76985514Y-26700500D01*
X76985519Y-26700500D01*
X77174486Y-26700500D01*
X77361118Y-26670940D01*
X77370883Y-26667767D01*
X77540832Y-26612547D01*
X77709199Y-26526760D01*
X77862073Y-26415690D01*
X77995690Y-26282073D01*
X78106760Y-26129199D01*
X78192547Y-25960832D01*
X78250940Y-25781118D01*
X78253557Y-25764594D01*
X78280500Y-25594486D01*
X78280500Y-25405513D01*
X78250940Y-25218881D01*
X78194187Y-25044215D01*
X78192547Y-25039168D01*
X78192545Y-25039165D01*
X78192545Y-25039163D01*
X78142234Y-24940423D01*
X78106760Y-24870801D01*
X77995690Y-24717927D01*
X77862073Y-24584310D01*
X77817649Y-24552034D01*
X77731614Y-24489525D01*
X77728273Y-24485192D01*
X77723297Y-24482920D01*
X77707167Y-24457821D01*
X77688948Y-24434194D01*
X77687695Y-24427521D01*
X77685523Y-24424142D01*
X77680500Y-24389207D01*
X77680500Y-24169060D01*
X77680501Y-24169047D01*
X77680501Y-24000944D01*
X77680501Y-24000943D01*
X77639577Y-23848216D01*
X77624389Y-23821909D01*
X77560524Y-23711290D01*
X77560518Y-23711282D01*
X76428857Y-22579621D01*
X75294076Y-21444841D01*
X75260592Y-21383519D01*
X75263828Y-21318841D01*
X75263975Y-21318390D01*
X75268477Y-21304534D01*
X75300500Y-21102352D01*
X75300500Y-20897648D01*
X75270868Y-20710561D01*
X75268477Y-20695465D01*
X75222006Y-20552443D01*
X75205220Y-20500781D01*
X75205218Y-20500778D01*
X75205218Y-20500776D01*
X75171503Y-20434607D01*
X75112287Y-20318390D01*
X75071892Y-20262790D01*
X74991971Y-20152786D01*
X74847213Y-20008028D01*
X74681613Y-19887715D01*
X74681612Y-19887714D01*
X74681610Y-19887713D01*
X74621896Y-19857287D01*
X74499223Y-19794781D01*
X74304534Y-19731522D01*
X74129995Y-19703878D01*
X74102352Y-19699500D01*
X73897648Y-19699500D01*
X73873329Y-19703351D01*
X73695465Y-19731522D01*
X73500776Y-19794781D01*
X73318391Y-19887712D01*
X73318383Y-19887717D01*
X73248085Y-19938790D01*
X73182279Y-19962269D01*
X73114225Y-19946442D01*
X73087521Y-19926153D01*
X73076145Y-19914777D01*
X73018656Y-19857288D01*
X72922037Y-19797693D01*
X72869336Y-19765187D01*
X72869331Y-19765185D01*
X72867862Y-19764698D01*
X72702797Y-19710001D01*
X72702795Y-19710000D01*
X72600010Y-19699500D01*
X71399998Y-19699500D01*
X71399981Y-19699501D01*
X71297203Y-19710000D01*
X71297200Y-19710001D01*
X71130668Y-19765185D01*
X71130663Y-19765187D01*
X70981342Y-19857289D01*
X70857289Y-19981342D01*
X70765187Y-20130663D01*
X70765185Y-20130668D01*
X70739785Y-20207321D01*
X70710001Y-20297203D01*
X70710001Y-20297204D01*
X70710000Y-20297204D01*
X70699500Y-20399983D01*
X70699500Y-21600001D01*
X70699501Y-21600018D01*
X70710000Y-21702796D01*
X70710001Y-21702799D01*
X70765185Y-21869331D01*
X70765187Y-21869336D01*
X70776712Y-21888021D01*
X70857288Y-22018656D01*
X70981344Y-22142712D01*
X71130666Y-22234814D01*
X71297203Y-22289999D01*
X71399991Y-22300500D01*
X72600008Y-22300499D01*
X72702797Y-22289999D01*
X72869334Y-22234814D01*
X73018656Y-22142712D01*
X73087524Y-22073843D01*
X73115773Y-22058418D01*
X73143264Y-22041711D01*
X73146234Y-22041785D01*
X73148843Y-22040361D01*
X73180943Y-22042656D01*
X73213112Y-22043464D01*
X73216537Y-22045202D01*
X73218535Y-22045345D01*
X73244838Y-22058927D01*
X73246473Y-22060036D01*
X73318390Y-22112287D01*
X73338714Y-22122642D01*
X73345136Y-22127001D01*
X73362607Y-22148217D01*
X73382589Y-22167088D01*
X73384761Y-22175120D01*
X73389552Y-22180937D01*
X73392049Y-22202059D01*
X73399500Y-22229601D01*
X73399500Y-25139411D01*
X73379815Y-25206450D01*
X73327011Y-25252205D01*
X73257853Y-25262149D01*
X73194297Y-25233124D01*
X73157569Y-25177730D01*
X73114187Y-25044215D01*
X73112547Y-25039168D01*
X73112545Y-25039165D01*
X73112545Y-25039163D01*
X73062234Y-24940423D01*
X73026760Y-24870801D01*
X72915690Y-24717927D01*
X72782073Y-24584310D01*
X72629199Y-24473240D01*
X72600500Y-24458617D01*
X72460836Y-24387454D01*
X72281118Y-24329059D01*
X72094486Y-24299500D01*
X72094481Y-24299500D01*
X71905519Y-24299500D01*
X71905514Y-24299500D01*
X71718881Y-24329059D01*
X71539163Y-24387454D01*
X71370800Y-24473240D01*
X71283579Y-24536610D01*
X71217927Y-24584310D01*
X71217925Y-24584312D01*
X71217924Y-24584312D01*
X71084312Y-24717924D01*
X71084312Y-24717925D01*
X71084310Y-24717927D01*
X71056429Y-24756302D01*
X70973240Y-24870800D01*
X70887454Y-25039163D01*
X70829059Y-25218881D01*
X70799500Y-25405513D01*
X70799500Y-25594486D01*
X70829059Y-25781118D01*
X70887454Y-25960836D01*
X70960163Y-26103534D01*
X70973240Y-26129199D01*
X71084310Y-26282073D01*
X71217927Y-26415690D01*
X71370801Y-26526760D01*
X71450347Y-26567290D01*
X71539163Y-26612545D01*
X71539165Y-26612545D01*
X71539168Y-26612547D01*
X71628593Y-26641603D01*
X71718881Y-26670940D01*
X71905514Y-26700500D01*
X71905519Y-26700500D01*
X72094486Y-26700500D01*
X72281118Y-26670940D01*
X72290883Y-26667767D01*
X72460832Y-26612547D01*
X72629199Y-26526760D01*
X72782073Y-26415690D01*
X72915690Y-26282073D01*
X73026760Y-26129199D01*
X73112547Y-25960832D01*
X73157569Y-25822268D01*
X73197007Y-25764594D01*
X73261366Y-25737396D01*
X73330212Y-25749311D01*
X73381688Y-25796555D01*
X73399500Y-25860588D01*
X73399500Y-27199902D01*
X73379815Y-27266941D01*
X73363181Y-27287583D01*
X72360830Y-28289933D01*
X72299507Y-28323418D01*
X72253751Y-28324725D01*
X72094486Y-28299500D01*
X72094481Y-28299500D01*
X71905519Y-28299500D01*
X71905514Y-28299500D01*
X71718881Y-28329059D01*
X71539163Y-28387454D01*
X71370800Y-28473240D01*
X71299071Y-28525355D01*
X71217927Y-28584310D01*
X71217925Y-28584312D01*
X71217924Y-28584312D01*
X71084312Y-28717924D01*
X71084312Y-28717925D01*
X71084310Y-28717927D01*
X71046487Y-28769985D01*
X70973239Y-28870801D01*
X70965254Y-28886473D01*
X70917278Y-28937267D01*
X70849456Y-28954060D01*
X70783322Y-28931520D01*
X70767090Y-28917855D01*
X67609147Y-25759912D01*
X67575662Y-25698589D01*
X67580646Y-25628897D01*
X67622518Y-25572964D01*
X67640529Y-25561748D01*
X67709199Y-25526760D01*
X67862073Y-25415690D01*
X67995690Y-25282073D01*
X68106760Y-25129199D01*
X68192547Y-24960832D01*
X68250940Y-24781118D01*
X68254593Y-24758053D01*
X68280500Y-24594486D01*
X68280500Y-24405513D01*
X68250940Y-24218881D01*
X68217667Y-24116480D01*
X68192547Y-24039168D01*
X68192545Y-24039165D01*
X68192545Y-24039163D01*
X68136209Y-23928599D01*
X68106760Y-23870801D01*
X67995690Y-23717927D01*
X67862073Y-23584310D01*
X67709199Y-23473240D01*
X67663339Y-23449873D01*
X67540836Y-23387454D01*
X67361118Y-23329059D01*
X67174486Y-23299500D01*
X67174481Y-23299500D01*
X66985519Y-23299500D01*
X66985514Y-23299500D01*
X66826247Y-23324725D01*
X66756953Y-23315770D01*
X66719168Y-23289933D01*
X65817590Y-22388355D01*
X65817588Y-22388352D01*
X65698717Y-22269481D01*
X65698716Y-22269480D01*
X65611904Y-22219360D01*
X65611904Y-22219359D01*
X65611900Y-22219358D01*
X65561785Y-22190423D01*
X65409057Y-22149499D01*
X65250943Y-22149499D01*
X65243347Y-22149499D01*
X65243331Y-22149500D01*
X62841894Y-22149500D01*
X62774855Y-22129815D01*
X62729100Y-22077011D01*
X62719156Y-22007853D01*
X62748181Y-21944297D01*
X62769007Y-21925183D01*
X62782073Y-21915690D01*
X62915690Y-21782073D01*
X63026760Y-21629199D01*
X63112547Y-21460832D01*
X63170940Y-21281118D01*
X63200500Y-21094486D01*
X63200500Y-20905513D01*
X65879500Y-20905513D01*
X65879500Y-21094486D01*
X65909059Y-21281118D01*
X65967454Y-21460836D01*
X66038412Y-21600097D01*
X66053240Y-21629199D01*
X66164310Y-21782073D01*
X66297927Y-21915690D01*
X66450801Y-22026760D01*
X66530347Y-22067290D01*
X66619163Y-22112545D01*
X66619165Y-22112545D01*
X66619168Y-22112547D01*
X66712000Y-22142710D01*
X66798881Y-22170940D01*
X66985514Y-22200500D01*
X66985519Y-22200500D01*
X67174486Y-22200500D01*
X67361118Y-22170940D01*
X67372973Y-22167088D01*
X67540832Y-22112547D01*
X67709199Y-22026760D01*
X67862073Y-21915690D01*
X67995690Y-21782073D01*
X68106760Y-21629199D01*
X68192547Y-21460832D01*
X68250940Y-21281118D01*
X68280500Y-21094486D01*
X68280500Y-20905513D01*
X68250940Y-20718881D01*
X68215989Y-20611315D01*
X68192547Y-20539168D01*
X68192545Y-20539165D01*
X68192545Y-20539163D01*
X68106759Y-20370800D01*
X68072089Y-20323081D01*
X67995690Y-20217927D01*
X67862073Y-20084310D01*
X67709199Y-19973240D01*
X67656605Y-19946442D01*
X67540836Y-19887454D01*
X67361118Y-19829059D01*
X67174486Y-19799500D01*
X67174481Y-19799500D01*
X66985519Y-19799500D01*
X66985514Y-19799500D01*
X66798881Y-19829059D01*
X66619163Y-19887454D01*
X66450800Y-19973240D01*
X66372661Y-20030012D01*
X66297927Y-20084310D01*
X66297925Y-20084312D01*
X66297924Y-20084312D01*
X66164312Y-20217924D01*
X66164312Y-20217925D01*
X66164310Y-20217927D01*
X66116610Y-20283579D01*
X66053240Y-20370800D01*
X65967454Y-20539163D01*
X65909059Y-20718881D01*
X65879500Y-20905513D01*
X63200500Y-20905513D01*
X63170940Y-20718881D01*
X63135989Y-20611315D01*
X63112547Y-20539168D01*
X63112545Y-20539165D01*
X63112545Y-20539163D01*
X63026759Y-20370800D01*
X62992089Y-20323081D01*
X62915690Y-20217927D01*
X62782073Y-20084310D01*
X62629199Y-19973240D01*
X62576605Y-19946442D01*
X62460836Y-19887454D01*
X62281118Y-19829059D01*
X62094486Y-19799500D01*
X62094481Y-19799500D01*
X61905519Y-19799500D01*
X61905514Y-19799500D01*
X61718881Y-19829059D01*
X61539163Y-19887454D01*
X61370800Y-19973240D01*
X61292661Y-20030012D01*
X61217927Y-20084310D01*
X61217925Y-20084312D01*
X61217924Y-20084312D01*
X61084312Y-20217924D01*
X61084312Y-20217925D01*
X61084310Y-20217927D01*
X61036610Y-20283579D01*
X60973240Y-20370800D01*
X60887454Y-20539163D01*
X60829059Y-20718881D01*
X60799500Y-20905513D01*
X60799500Y-21094486D01*
X60829059Y-21281118D01*
X60887454Y-21460836D01*
X60958412Y-21600097D01*
X60973240Y-21629199D01*
X61084310Y-21782073D01*
X61084312Y-21782075D01*
X61217927Y-21915690D01*
X61230993Y-21925183D01*
X61273658Y-21980514D01*
X61279636Y-22050127D01*
X61247029Y-22111922D01*
X61186190Y-22146278D01*
X61158106Y-22149500D01*
X55489047Y-22149500D01*
X55422008Y-22129815D01*
X55376253Y-22077011D01*
X55366309Y-22007853D01*
X55395334Y-21944297D01*
X55401366Y-21937819D01*
X55441537Y-21897648D01*
X55491966Y-21847219D01*
X55491968Y-21847215D01*
X55491971Y-21847213D01*
X55547370Y-21770961D01*
X55612287Y-21681610D01*
X55705220Y-21499219D01*
X55768477Y-21304534D01*
X55800500Y-21102352D01*
X55800500Y-20897648D01*
X55770868Y-20710561D01*
X55768477Y-20695465D01*
X55722006Y-20552443D01*
X55705220Y-20500781D01*
X55705218Y-20500778D01*
X55705218Y-20500776D01*
X55612284Y-20318384D01*
X55606471Y-20310383D01*
X55582993Y-20244576D01*
X55598820Y-20176523D01*
X55648928Y-20127830D01*
X55706791Y-20113501D01*
X55818254Y-20113501D01*
X55818257Y-20113501D01*
X55970985Y-20072577D01*
X56044704Y-20030015D01*
X56107916Y-19993520D01*
X56219720Y-19881716D01*
X56219720Y-19881714D01*
X56229924Y-19871511D01*
X56229927Y-19871506D01*
X56914362Y-19187072D01*
X56975683Y-19153589D01*
X56977850Y-19153138D01*
X57035785Y-19141613D01*
X57133197Y-19122237D01*
X57278879Y-19061894D01*
X57409989Y-18974289D01*
X57513549Y-18870728D01*
X57539225Y-18851026D01*
X57570416Y-18833020D01*
X57682220Y-18721216D01*
X57761277Y-18584284D01*
X57802200Y-18431557D01*
X57802200Y-18273443D01*
X57761277Y-18120716D01*
X57760285Y-18118998D01*
X57682224Y-17983790D01*
X57682218Y-17983782D01*
X57570417Y-17871981D01*
X57570412Y-17871977D01*
X57539224Y-17853971D01*
X57513546Y-17834268D01*
X57440559Y-17761281D01*
X57407075Y-17699957D01*
X57412060Y-17630266D01*
X57453931Y-17574332D01*
X57519396Y-17549916D01*
X57528241Y-17549600D01*
X74668431Y-17549600D01*
X74668447Y-17549601D01*
X74676043Y-17549601D01*
X74834154Y-17549601D01*
X74834157Y-17549601D01*
X74986885Y-17508677D01*
X75037004Y-17479739D01*
X75123816Y-17429620D01*
X75235620Y-17317816D01*
X75235620Y-17317814D01*
X75245828Y-17307607D01*
X75245830Y-17307604D01*
X76578406Y-15975028D01*
X76578411Y-15975024D01*
X76588614Y-15964820D01*
X76588616Y-15964820D01*
X76700420Y-15853016D01*
X76769121Y-15734022D01*
X76779477Y-15716085D01*
X76820401Y-15563357D01*
X76820401Y-15405243D01*
X76820401Y-15397648D01*
X76820400Y-15397630D01*
X76820400Y-13640845D01*
X76820400Y-13640843D01*
X76789627Y-13525995D01*
X76785667Y-13511215D01*
X76785667Y-13511214D01*
X76779479Y-13488120D01*
X76779476Y-13488114D01*
X76746628Y-13431219D01*
X76746628Y-13431218D01*
X76700424Y-13351190D01*
X76700421Y-13351186D01*
X76700420Y-13351184D01*
X76588616Y-13239380D01*
X76588615Y-13239379D01*
X76584285Y-13235049D01*
X76584274Y-13235039D01*
X76373438Y-13024203D01*
X76339953Y-12962880D01*
X76343187Y-12898205D01*
X76366015Y-12827951D01*
X76400500Y-12610222D01*
X76400500Y-12389778D01*
X76366015Y-12172049D01*
X76297895Y-11962394D01*
X76297895Y-11962393D01*
X76253781Y-11875816D01*
X76197815Y-11765978D01*
X76118116Y-11656281D01*
X76068247Y-11587641D01*
X76068243Y-11587636D01*
X75912363Y-11431756D01*
X75912358Y-11431752D01*
X75734025Y-11302187D01*
X75734024Y-11302186D01*
X75734022Y-11302185D01*
X75640595Y-11254581D01*
X75537606Y-11202104D01*
X75537603Y-11202103D01*
X75327952Y-11133985D01*
X75210541Y-11115389D01*
X75110222Y-11099500D01*
X74889778Y-11099500D01*
X74817201Y-11110995D01*
X74672047Y-11133985D01*
X74462396Y-11202103D01*
X74462393Y-11202104D01*
X74265974Y-11302187D01*
X74087641Y-11431752D01*
X74087636Y-11431756D01*
X73931756Y-11587636D01*
X73931752Y-11587641D01*
X73850318Y-11699727D01*
X73794989Y-11742393D01*
X73725375Y-11748372D01*
X73663580Y-11715767D01*
X73649682Y-11699727D01*
X73568247Y-11587641D01*
X73568243Y-11587636D01*
X73412363Y-11431756D01*
X73412358Y-11431752D01*
X73234025Y-11302187D01*
X73234024Y-11302186D01*
X73234022Y-11302185D01*
X73140595Y-11254581D01*
X73037606Y-11202104D01*
X73037603Y-11202103D01*
X72827952Y-11133985D01*
X72710541Y-11115389D01*
X72610222Y-11099500D01*
X72389778Y-11099500D01*
X72353177Y-11105297D01*
X72172045Y-11133985D01*
X72101794Y-11156811D01*
X72031953Y-11158806D01*
X71975796Y-11126561D01*
X70355990Y-9506755D01*
X70355988Y-9506752D01*
X70237117Y-9387881D01*
X70237116Y-9387880D01*
X70150304Y-9337760D01*
X70150304Y-9337759D01*
X70150300Y-9337758D01*
X70100185Y-9308823D01*
X69947457Y-9267899D01*
X69789343Y-9267899D01*
X69781747Y-9267899D01*
X69781731Y-9267900D01*
X39494670Y-9267900D01*
X39494654Y-9267899D01*
X39487058Y-9267899D01*
X39328943Y-9267899D01*
X39252579Y-9288361D01*
X39176214Y-9308823D01*
X39176209Y-9308826D01*
X39039290Y-9387875D01*
X39039282Y-9387881D01*
X38621584Y-9805581D01*
X38560261Y-9839066D01*
X38533903Y-9841900D01*
X21144269Y-9841900D01*
X21144253Y-9841899D01*
X21136657Y-9841899D01*
X20978543Y-9841899D01*
X20898610Y-9863317D01*
X20825816Y-9882822D01*
X20793665Y-9901385D01*
X20793664Y-9901384D01*
X20688887Y-9961877D01*
X20688882Y-9961881D01*
X20577078Y-10073686D01*
X19524202Y-11126561D01*
X19462879Y-11160046D01*
X19398203Y-11156811D01*
X19373584Y-11148812D01*
X19327952Y-11133985D01*
X19210541Y-11115389D01*
X19110222Y-11099500D01*
X18889778Y-11099500D01*
X18817201Y-11110995D01*
X18672047Y-11133985D01*
X18462396Y-11202103D01*
X18462393Y-11202104D01*
X18265974Y-11302187D01*
X18087641Y-11431752D01*
X18087636Y-11431756D01*
X17931756Y-11587636D01*
X17931752Y-11587641D01*
X17850318Y-11699727D01*
X17794989Y-11742393D01*
X17725375Y-11748372D01*
X17663580Y-11715767D01*
X17649682Y-11699727D01*
X17568247Y-11587641D01*
X17568243Y-11587636D01*
X17412363Y-11431756D01*
X17412358Y-11431752D01*
X17234025Y-11302187D01*
X17234024Y-11302186D01*
X17234022Y-11302185D01*
X17140595Y-11254581D01*
X17037606Y-11202104D01*
X17037603Y-11202103D01*
X16827952Y-11133985D01*
X16710541Y-11115389D01*
X16610222Y-11099500D01*
X16389778Y-11099500D01*
X16317201Y-11110995D01*
X16172047Y-11133985D01*
X15962396Y-11202103D01*
X15962393Y-11202104D01*
X15765974Y-11302187D01*
X15587641Y-11431752D01*
X15587635Y-11431757D01*
X15566596Y-11452796D01*
X15505273Y-11486280D01*
X15435581Y-11481294D01*
X15379648Y-11439421D01*
X15362735Y-11408446D01*
X15343797Y-11357671D01*
X15343793Y-11357664D01*
X15257547Y-11242455D01*
X15257544Y-11242452D01*
X15142335Y-11156206D01*
X15142328Y-11156202D01*
X15007482Y-11105908D01*
X15007483Y-11105908D01*
X14947883Y-11099501D01*
X14947881Y-11099500D01*
X14947873Y-11099500D01*
X14947864Y-11099500D01*
X13052129Y-11099500D01*
X13052123Y-11099501D01*
X12992516Y-11105908D01*
X12857671Y-11156202D01*
X12857664Y-11156206D01*
X12742455Y-11242452D01*
X12742452Y-11242455D01*
X12656206Y-11357664D01*
X12656202Y-11357671D01*
X12605908Y-11492517D01*
X12599501Y-11552116D01*
X12599500Y-11552135D01*
X12599500Y-13447870D01*
X12599501Y-13447876D01*
X12605908Y-13507483D01*
X12656202Y-13642328D01*
X12656206Y-13642335D01*
X12742452Y-13757544D01*
X12742455Y-13757547D01*
X12857664Y-13843793D01*
X12857671Y-13843797D01*
X12908446Y-13862735D01*
X12964380Y-13904606D01*
X12988797Y-13970070D01*
X12973945Y-14038343D01*
X12952796Y-14066596D01*
X12931757Y-14087635D01*
X12931752Y-14087641D01*
X12802187Y-14265974D01*
X12702104Y-14462393D01*
X12702103Y-14462396D01*
X12633985Y-14672047D01*
X12599500Y-14889778D01*
X12599500Y-15110221D01*
X12633985Y-15327952D01*
X12702103Y-15537603D01*
X12702104Y-15537606D01*
X12802187Y-15734025D01*
X12931752Y-15912358D01*
X12931756Y-15912363D01*
X13087636Y-16068243D01*
X13087641Y-16068247D01*
X13240922Y-16179611D01*
X13265978Y-16197815D01*
X13366875Y-16249225D01*
X13462393Y-16297895D01*
X13462396Y-16297896D01*
X13557865Y-16328915D01*
X13672049Y-16366015D01*
X13889778Y-16400500D01*
X13889779Y-16400500D01*
X14110221Y-16400500D01*
X14110222Y-16400500D01*
X14327951Y-16366015D01*
X14398205Y-16343187D01*
X14468044Y-16341192D01*
X14524203Y-16373438D01*
X19515139Y-21364374D01*
X19515149Y-21364385D01*
X19519479Y-21368715D01*
X19519480Y-21368716D01*
X19631284Y-21480520D01*
X19631286Y-21480521D01*
X19631290Y-21480524D01*
X19698760Y-21519477D01*
X19768216Y-21559577D01*
X19880019Y-21589534D01*
X19920942Y-21600500D01*
X19920943Y-21600500D01*
X19976940Y-21600500D01*
X19984620Y-21601462D01*
X20009849Y-21612433D01*
X20036247Y-21620185D01*
X20043564Y-21627095D01*
X20048693Y-21629326D01*
X20053434Y-21636417D01*
X20069524Y-21651612D01*
X20164310Y-21782073D01*
X20297927Y-21915690D01*
X20424778Y-22007853D01*
X20454743Y-22029624D01*
X20453636Y-22031146D01*
X20495135Y-22077012D01*
X20506559Y-22145942D01*
X20478904Y-22210105D01*
X20471152Y-22218612D01*
X17826384Y-24863381D01*
X17765061Y-24896866D01*
X17738703Y-24899700D01*
X17297344Y-24899700D01*
X17230305Y-24880015D01*
X17184550Y-24827211D01*
X17174606Y-24758053D01*
X17174871Y-24756302D01*
X17200500Y-24594486D01*
X17200500Y-24405513D01*
X17170940Y-24218881D01*
X17137667Y-24116480D01*
X17112547Y-24039168D01*
X17112545Y-24039165D01*
X17112545Y-24039163D01*
X17056209Y-23928599D01*
X17026760Y-23870801D01*
X16915690Y-23717927D01*
X16782073Y-23584310D01*
X16629199Y-23473240D01*
X16583339Y-23449873D01*
X16460836Y-23387454D01*
X16281118Y-23329059D01*
X16094486Y-23299500D01*
X16094481Y-23299500D01*
X15905519Y-23299500D01*
X15905514Y-23299500D01*
X15718881Y-23329059D01*
X15539163Y-23387454D01*
X15370800Y-23473240D01*
X15283579Y-23536610D01*
X15217927Y-23584310D01*
X15217925Y-23584312D01*
X15217924Y-23584312D01*
X15084312Y-23717924D01*
X15084312Y-23717925D01*
X15084310Y-23717927D01*
X15045172Y-23771796D01*
X14973240Y-23870800D01*
X14887454Y-24039163D01*
X14829059Y-24218881D01*
X14799500Y-24405513D01*
X14799500Y-24594486D01*
X14829059Y-24781118D01*
X14887454Y-24960836D01*
X14958617Y-25100500D01*
X14973240Y-25129199D01*
X15084310Y-25282073D01*
X15217927Y-25415690D01*
X15370801Y-25526760D01*
X15439465Y-25561746D01*
X15539163Y-25612545D01*
X15539165Y-25612545D01*
X15539168Y-25612547D01*
X15589488Y-25628897D01*
X15718881Y-25670940D01*
X15773358Y-25679568D01*
X15836493Y-25709497D01*
X15873425Y-25768808D01*
X15872427Y-25838670D01*
X15841642Y-25889722D01*
X14490681Y-27240682D01*
X14490677Y-27240687D01*
X14449631Y-27311783D01*
X14449631Y-27311784D01*
X14411623Y-27377614D01*
X14400013Y-27420943D01*
X14370699Y-27530343D01*
X14370699Y-27530345D01*
X14370699Y-27698446D01*
X14370700Y-27698459D01*
X14370700Y-28341730D01*
X14370699Y-28341748D01*
X14370699Y-28507454D01*
X14370698Y-28507454D01*
X14411623Y-28660185D01*
X14440558Y-28710300D01*
X14440560Y-28710304D01*
X14490106Y-28796122D01*
X14505335Y-28858900D01*
X14506577Y-28864023D01*
X14502794Y-28874953D01*
X14483725Y-28930049D01*
X14428803Y-28973239D01*
X14359250Y-28979880D01*
X14359249Y-28979879D01*
X14359249Y-28979880D01*
X14297147Y-28947863D01*
X14295037Y-28945802D01*
X12238875Y-26889640D01*
X12205390Y-26828317D01*
X12210374Y-26758625D01*
X12252246Y-26702692D01*
X12307154Y-26679486D01*
X12361118Y-26670940D01*
X12540832Y-26612547D01*
X12709199Y-26526760D01*
X12862073Y-26415690D01*
X12995690Y-26282073D01*
X13106760Y-26129199D01*
X13192547Y-25960832D01*
X13250940Y-25781118D01*
X13253557Y-25764594D01*
X13280500Y-25594486D01*
X13280500Y-25405513D01*
X13250940Y-25218881D01*
X13194187Y-25044215D01*
X13192547Y-25039168D01*
X13192545Y-25039165D01*
X13192545Y-25039163D01*
X13142234Y-24940423D01*
X13106760Y-24870801D01*
X12995690Y-24717927D01*
X12862073Y-24584310D01*
X12709199Y-24473240D01*
X12680500Y-24458617D01*
X12540836Y-24387454D01*
X12361118Y-24329059D01*
X12174486Y-24299500D01*
X12174481Y-24299500D01*
X11985519Y-24299500D01*
X11985514Y-24299500D01*
X11826248Y-24324725D01*
X11756954Y-24315770D01*
X11719169Y-24289933D01*
X9703134Y-22273898D01*
X9669649Y-22212575D01*
X9674633Y-22142883D01*
X9716505Y-22086950D01*
X9717889Y-22085928D01*
X9847219Y-21991966D01*
X9991966Y-21847219D01*
X9991968Y-21847215D01*
X9991971Y-21847213D01*
X10047370Y-21770961D01*
X10112287Y-21681610D01*
X10205220Y-21499219D01*
X10268477Y-21304534D01*
X10300500Y-21102352D01*
X10300500Y-20905513D01*
X14799500Y-20905513D01*
X14799500Y-21094486D01*
X14829059Y-21281118D01*
X14887454Y-21460836D01*
X14958412Y-21600097D01*
X14973240Y-21629199D01*
X15084310Y-21782073D01*
X15217927Y-21915690D01*
X15370801Y-22026760D01*
X15450347Y-22067290D01*
X15539163Y-22112545D01*
X15539165Y-22112545D01*
X15539168Y-22112547D01*
X15632000Y-22142710D01*
X15718881Y-22170940D01*
X15905514Y-22200500D01*
X15905519Y-22200500D01*
X16094486Y-22200500D01*
X16281118Y-22170940D01*
X16292973Y-22167088D01*
X16460832Y-22112547D01*
X16629199Y-22026760D01*
X16782073Y-21915690D01*
X16915690Y-21782073D01*
X17026760Y-21629199D01*
X17112547Y-21460832D01*
X17170940Y-21281118D01*
X17200500Y-21094486D01*
X17200500Y-20905513D01*
X17170940Y-20718881D01*
X17135989Y-20611315D01*
X17112547Y-20539168D01*
X17112545Y-20539165D01*
X17112545Y-20539163D01*
X17026759Y-20370800D01*
X16992089Y-20323081D01*
X16915690Y-20217927D01*
X16782073Y-20084310D01*
X16629199Y-19973240D01*
X16576605Y-19946442D01*
X16460836Y-19887454D01*
X16281118Y-19829059D01*
X16094486Y-19799500D01*
X16094481Y-19799500D01*
X15905519Y-19799500D01*
X15905514Y-19799500D01*
X15718881Y-19829059D01*
X15539163Y-19887454D01*
X15370800Y-19973240D01*
X15292661Y-20030012D01*
X15217927Y-20084310D01*
X15217925Y-20084312D01*
X15217924Y-20084312D01*
X15084312Y-20217924D01*
X15084312Y-20217925D01*
X15084310Y-20217927D01*
X15036610Y-20283579D01*
X14973240Y-20370800D01*
X14887454Y-20539163D01*
X14829059Y-20718881D01*
X14799500Y-20905513D01*
X10300500Y-20905513D01*
X10300500Y-20897648D01*
X10270868Y-20710561D01*
X10268477Y-20695465D01*
X10222006Y-20552443D01*
X10205220Y-20500781D01*
X10205218Y-20500778D01*
X10205218Y-20500776D01*
X10171503Y-20434607D01*
X10112287Y-20318390D01*
X10071892Y-20262790D01*
X9991971Y-20152786D01*
X9847213Y-20008028D01*
X9681613Y-19887715D01*
X9681612Y-19887714D01*
X9681610Y-19887713D01*
X9621896Y-19857287D01*
X9499223Y-19794781D01*
X9304534Y-19731522D01*
X9129995Y-19703878D01*
X9102352Y-19699500D01*
X8897648Y-19699500D01*
X8873329Y-19703351D01*
X8695465Y-19731522D01*
X8500776Y-19794781D01*
X8318391Y-19887712D01*
X8318383Y-19887717D01*
X8248085Y-19938790D01*
X8182279Y-19962269D01*
X8114225Y-19946442D01*
X8087521Y-19926153D01*
X8076145Y-19914777D01*
X8018656Y-19857288D01*
X7922037Y-19797693D01*
X7869336Y-19765187D01*
X7869331Y-19765185D01*
X7867862Y-19764698D01*
X7702797Y-19710001D01*
X7702795Y-19710000D01*
X7600010Y-19699500D01*
X6399998Y-19699500D01*
X6399981Y-19699501D01*
X6297203Y-19710000D01*
X6297200Y-19710001D01*
X6130668Y-19765185D01*
X6130663Y-19765187D01*
X5981342Y-19857289D01*
X5857289Y-19981342D01*
X5765187Y-20130663D01*
X5765185Y-20130668D01*
X5739785Y-20207321D01*
X5710001Y-20297203D01*
X5710001Y-20297204D01*
X5710000Y-20297204D01*
X5699500Y-20399983D01*
X5699500Y-21600001D01*
X5699501Y-21600018D01*
X5710000Y-21702796D01*
X5710001Y-21702799D01*
X5765185Y-21869331D01*
X5765187Y-21869336D01*
X5776712Y-21888021D01*
X5857288Y-22018656D01*
X5981344Y-22142712D01*
X6130666Y-22234814D01*
X6297203Y-22289999D01*
X6399991Y-22300500D01*
X6550903Y-22300499D01*
X6617941Y-22320183D01*
X6663696Y-22372987D01*
X6673640Y-22442145D01*
X6644615Y-22505701D01*
X6638583Y-22512180D01*
X5577586Y-23573178D01*
X5465781Y-23684982D01*
X5465779Y-23684985D01*
X5450597Y-23711282D01*
X5416402Y-23770511D01*
X5415661Y-23771794D01*
X5415659Y-23771796D01*
X5386725Y-23821909D01*
X5386724Y-23821910D01*
X5379630Y-23848386D01*
X5345799Y-23974643D01*
X5345799Y-23974645D01*
X5345799Y-24142746D01*
X5345800Y-24142759D01*
X5345800Y-28359630D01*
X5345799Y-28359648D01*
X5345799Y-28525354D01*
X5345798Y-28525354D01*
X5386724Y-28678089D01*
X5386725Y-28678090D01*
X5409725Y-28717926D01*
X5409726Y-28717928D01*
X5465775Y-28815009D01*
X5465781Y-28815017D01*
X5584649Y-28933885D01*
X5584655Y-28933890D01*
X5789933Y-29139168D01*
X5823418Y-29200491D01*
X5824725Y-29246247D01*
X5799500Y-29405513D01*
X5799500Y-29594486D01*
X5824725Y-29753751D01*
X5815770Y-29823045D01*
X5789933Y-29860830D01*
X5498086Y-30152678D01*
X5386281Y-30264482D01*
X5386279Y-30264485D01*
X5371838Y-30289499D01*
X5348211Y-30330423D01*
X5336620Y-30350499D01*
X5336618Y-30350501D01*
X5307225Y-30401409D01*
X5307224Y-30401410D01*
X5307223Y-30401415D01*
X5266299Y-30554143D01*
X5266299Y-30712257D01*
X5266299Y-30712259D01*
X5266300Y-30722253D01*
X5266300Y-48873230D01*
X5266299Y-48873248D01*
X5266299Y-49038954D01*
X5266298Y-49038954D01*
X500500Y-49038954D01*
X500500Y-3878711D01*
X2149500Y-3878711D01*
X2149500Y-4121288D01*
X2181161Y-4361785D01*
X2243947Y-4596104D01*
X2302507Y-4737480D01*
X2336776Y-4820212D01*
X2458064Y-5030289D01*
X2458066Y-5030292D01*
X2458067Y-5030293D01*
X2605733Y-5222736D01*
X2605739Y-5222743D01*
X2777256Y-5394260D01*
X2777262Y-5394265D01*
X2969711Y-5541936D01*
X3179788Y-5663224D01*
X3403900Y-5756054D01*
X3638211Y-5818838D01*
X3818586Y-5842584D01*
X3878711Y-5850500D01*
X3878712Y-5850500D01*
X4121289Y-5850500D01*
X4169388Y-5844167D01*
X4361789Y-5818838D01*
X4596100Y-5756054D01*
X4820212Y-5663224D01*
X5030289Y-5541936D01*
X5222738Y-5394265D01*
X5394265Y-5222738D01*
X5541936Y-5030289D01*
X5639644Y-4861054D01*
X9630000Y-4861054D01*
X9630000Y-5138945D01*
X9630001Y-5138961D01*
X9666273Y-5414477D01*
X9738201Y-5682916D01*
X9844547Y-5939657D01*
X9844551Y-5939667D01*
X9983501Y-6180335D01*
X10084493Y-6311951D01*
X10084494Y-6311951D01*
X10959521Y-5436923D01*
X11050924Y-5573717D01*
X11176283Y-5699076D01*
X11313075Y-5790477D01*
X10438047Y-6665504D01*
X10438047Y-6665505D01*
X10569664Y-6766498D01*
X10810332Y-6905448D01*
X10810342Y-6905452D01*
X11067083Y-7011798D01*
X11335522Y-7083726D01*
X11611038Y-7119998D01*
X11611055Y-7120000D01*
X11888945Y-7120000D01*
X11888961Y-7119998D01*
X12164477Y-7083726D01*
X12432916Y-7011798D01*
X12689657Y-6905452D01*
X12689666Y-6905448D01*
X12930329Y-6766501D01*
X12930336Y-6766496D01*
X13061951Y-6665504D01*
X12186924Y-5790477D01*
X12323717Y-5699076D01*
X12449076Y-5573717D01*
X12540477Y-5436924D01*
X13415504Y-6311951D01*
X13516496Y-6180336D01*
X13516501Y-6180329D01*
X13655448Y-5939666D01*
X13655452Y-5939657D01*
X13761798Y-5682916D01*
X13833726Y-5414477D01*
X13869998Y-5138961D01*
X13870000Y-5138945D01*
X13870000Y-4861054D01*
X19130000Y-4861054D01*
X19130000Y-5138945D01*
X19130001Y-5138961D01*
X19166273Y-5414477D01*
X19238201Y-5682916D01*
X19344547Y-5939657D01*
X19344551Y-5939667D01*
X19483501Y-6180335D01*
X19584493Y-6311951D01*
X19584494Y-6311951D01*
X20459521Y-5436923D01*
X20550924Y-5573717D01*
X20676283Y-5699076D01*
X20813075Y-5790477D01*
X19938047Y-6665504D01*
X19938047Y-6665505D01*
X20069664Y-6766498D01*
X20310332Y-6905448D01*
X20310342Y-6905452D01*
X20567083Y-7011798D01*
X20835522Y-7083726D01*
X21111038Y-7119998D01*
X21111055Y-7120000D01*
X21388945Y-7120000D01*
X21388961Y-7119998D01*
X21664477Y-7083726D01*
X21932916Y-7011798D01*
X22189657Y-6905452D01*
X22189666Y-6905448D01*
X22430329Y-6766501D01*
X22430336Y-6766496D01*
X22561951Y-6665504D01*
X21686924Y-5790477D01*
X21823717Y-5699076D01*
X21949076Y-5573717D01*
X22040477Y-5436924D01*
X22915504Y-6311951D01*
X23016496Y-6180336D01*
X23016501Y-6180329D01*
X23155448Y-5939666D01*
X23155452Y-5939657D01*
X23261798Y-5682916D01*
X23333726Y-5414477D01*
X23369998Y-5138961D01*
X23370000Y-5138945D01*
X23370000Y-4861054D01*
X23630000Y-4861054D01*
X23630000Y-5138945D01*
X23630001Y-5138961D01*
X23666273Y-5414477D01*
X23738201Y-5682916D01*
X23844547Y-5939657D01*
X23844551Y-5939667D01*
X23983501Y-6180335D01*
X24084493Y-6311951D01*
X24084494Y-6311951D01*
X24959521Y-5436923D01*
X25050924Y-5573717D01*
X25176283Y-5699076D01*
X25313075Y-5790477D01*
X24438047Y-6665504D01*
X24438047Y-6665505D01*
X24569664Y-6766498D01*
X24810332Y-6905448D01*
X24810342Y-6905452D01*
X25067083Y-7011798D01*
X25335522Y-7083726D01*
X25611038Y-7119998D01*
X25611055Y-7120000D01*
X25888945Y-7120000D01*
X25888961Y-7119998D01*
X26164477Y-7083726D01*
X26432916Y-7011798D01*
X26689657Y-6905452D01*
X26689666Y-6905448D01*
X26930329Y-6766501D01*
X26930336Y-6766496D01*
X27061951Y-6665504D01*
X26186924Y-5790477D01*
X26323717Y-5699076D01*
X26449076Y-5573717D01*
X26540477Y-5436924D01*
X27415504Y-6311951D01*
X27516496Y-6180336D01*
X27516501Y-6180329D01*
X27655448Y-5939666D01*
X27655452Y-5939657D01*
X27761798Y-5682916D01*
X27833726Y-5414477D01*
X27869998Y-5138961D01*
X27870000Y-5138945D01*
X27870000Y-4861054D01*
X33130000Y-4861054D01*
X33130000Y-5138945D01*
X33130001Y-5138961D01*
X33166273Y-5414477D01*
X33238201Y-5682916D01*
X33344547Y-5939657D01*
X33344551Y-5939667D01*
X33483501Y-6180335D01*
X33584493Y-6311951D01*
X33584494Y-6311951D01*
X34459521Y-5436923D01*
X34550924Y-5573717D01*
X34676283Y-5699076D01*
X34813075Y-5790477D01*
X33938047Y-6665504D01*
X33938047Y-6665505D01*
X34069664Y-6766498D01*
X34310332Y-6905448D01*
X34310342Y-6905452D01*
X34567083Y-7011798D01*
X34835522Y-7083726D01*
X35111038Y-7119998D01*
X35111055Y-7120000D01*
X35388945Y-7120000D01*
X35388961Y-7119998D01*
X35664477Y-7083726D01*
X35932916Y-7011798D01*
X36189657Y-6905452D01*
X36189666Y-6905448D01*
X36430329Y-6766501D01*
X36430336Y-6766496D01*
X36561951Y-6665504D01*
X35686924Y-5790477D01*
X35823717Y-5699076D01*
X35949076Y-5573717D01*
X36040477Y-5436924D01*
X36915504Y-6311951D01*
X37016496Y-6180336D01*
X37016501Y-6180329D01*
X37155448Y-5939666D01*
X37155452Y-5939657D01*
X37261798Y-5682916D01*
X37333726Y-5414477D01*
X37369998Y-5138961D01*
X37370000Y-5138945D01*
X37370000Y-4861054D01*
X37630000Y-4861054D01*
X37630000Y-5138945D01*
X37630001Y-5138961D01*
X37666273Y-5414477D01*
X37738201Y-5682916D01*
X37844547Y-5939657D01*
X37844551Y-5939667D01*
X37983501Y-6180335D01*
X38084493Y-6311951D01*
X38084494Y-6311951D01*
X38959521Y-5436923D01*
X39050924Y-5573717D01*
X39176283Y-5699076D01*
X39313075Y-5790477D01*
X38438047Y-6665504D01*
X38438047Y-6665505D01*
X38569664Y-6766498D01*
X38810332Y-6905448D01*
X38810342Y-6905452D01*
X39067083Y-7011798D01*
X39335522Y-7083726D01*
X39611038Y-7119998D01*
X39611055Y-7120000D01*
X39888945Y-7120000D01*
X39888961Y-7119998D01*
X40164477Y-7083726D01*
X40432916Y-7011798D01*
X40689657Y-6905452D01*
X40689666Y-6905448D01*
X40930329Y-6766501D01*
X40930336Y-6766496D01*
X41061951Y-6665504D01*
X40186924Y-5790477D01*
X40323717Y-5699076D01*
X40449076Y-5573717D01*
X40540477Y-5436924D01*
X41415504Y-6311951D01*
X41516496Y-6180336D01*
X41516501Y-6180329D01*
X41655448Y-5939666D01*
X41655452Y-5939657D01*
X41761798Y-5682916D01*
X41833726Y-5414477D01*
X41869998Y-5138961D01*
X41870000Y-5138945D01*
X41870000Y-4861054D01*
X47130000Y-4861054D01*
X47130000Y-5138945D01*
X47130001Y-5138961D01*
X47166273Y-5414477D01*
X47238201Y-5682916D01*
X47344547Y-5939657D01*
X47344551Y-5939667D01*
X47483501Y-6180335D01*
X47584493Y-6311951D01*
X47584494Y-6311951D01*
X48459521Y-5436923D01*
X48550924Y-5573717D01*
X48676283Y-5699076D01*
X48813075Y-5790477D01*
X47938047Y-6665504D01*
X47938047Y-6665505D01*
X48069664Y-6766498D01*
X48310332Y-6905448D01*
X48310342Y-6905452D01*
X48567083Y-7011798D01*
X48835522Y-7083726D01*
X49111038Y-7119998D01*
X49111055Y-7120000D01*
X49388945Y-7120000D01*
X49388961Y-7119998D01*
X49664477Y-7083726D01*
X49932916Y-7011798D01*
X50189657Y-6905452D01*
X50189666Y-6905448D01*
X50430329Y-6766501D01*
X50430336Y-6766496D01*
X50561951Y-6665504D01*
X49686924Y-5790477D01*
X49823717Y-5699076D01*
X49949076Y-5573717D01*
X50040477Y-5436924D01*
X50915504Y-6311951D01*
X51016496Y-6180336D01*
X51016501Y-6180329D01*
X51155448Y-5939666D01*
X51155452Y-5939657D01*
X51261798Y-5682916D01*
X51333726Y-5414477D01*
X51369998Y-5138961D01*
X51370000Y-5138945D01*
X51370000Y-4861054D01*
X51630000Y-4861054D01*
X51630000Y-5138945D01*
X51630001Y-5138961D01*
X51666273Y-5414477D01*
X51738201Y-5682916D01*
X51844547Y-5939657D01*
X51844551Y-5939667D01*
X51983501Y-6180335D01*
X52084493Y-6311951D01*
X52084494Y-6311951D01*
X52959521Y-5436923D01*
X53050924Y-5573717D01*
X53176283Y-5699076D01*
X53313075Y-5790477D01*
X52438047Y-6665504D01*
X52438047Y-6665505D01*
X52569664Y-6766498D01*
X52810332Y-6905448D01*
X52810342Y-6905452D01*
X53067083Y-7011798D01*
X53335522Y-7083726D01*
X53611038Y-7119998D01*
X53611055Y-7120000D01*
X53888945Y-7120000D01*
X53888961Y-7119998D01*
X54164477Y-7083726D01*
X54432916Y-7011798D01*
X54689657Y-6905452D01*
X54689666Y-6905448D01*
X54930329Y-6766501D01*
X54930336Y-6766496D01*
X55061951Y-6665504D01*
X54186924Y-5790477D01*
X54323717Y-5699076D01*
X54449076Y-5573717D01*
X54540477Y-5436924D01*
X55415504Y-6311951D01*
X55516496Y-6180336D01*
X55516501Y-6180329D01*
X55655448Y-5939666D01*
X55655452Y-5939657D01*
X55761798Y-5682916D01*
X55833726Y-5414477D01*
X55869998Y-5138961D01*
X55870000Y-5138945D01*
X55870000Y-4861054D01*
X61130000Y-4861054D01*
X61130000Y-5138945D01*
X61130001Y-5138961D01*
X61166273Y-5414477D01*
X61238201Y-5682916D01*
X61344547Y-5939657D01*
X61344551Y-5939667D01*
X61483501Y-6180335D01*
X61584493Y-6311951D01*
X61584494Y-6311951D01*
X62459521Y-5436923D01*
X62550924Y-5573717D01*
X62676283Y-5699076D01*
X62813075Y-5790477D01*
X61938047Y-6665504D01*
X61938047Y-6665505D01*
X62069664Y-6766498D01*
X62310332Y-6905448D01*
X62310342Y-6905452D01*
X62567083Y-7011798D01*
X62835522Y-7083726D01*
X63111038Y-7119998D01*
X63111055Y-7120000D01*
X63388945Y-7120000D01*
X63388961Y-7119998D01*
X63664477Y-7083726D01*
X63932916Y-7011798D01*
X64189657Y-6905452D01*
X64189666Y-6905448D01*
X64430329Y-6766501D01*
X64430336Y-6766496D01*
X64561951Y-6665504D01*
X63686924Y-5790477D01*
X63823717Y-5699076D01*
X63949076Y-5573717D01*
X64040477Y-5436924D01*
X64915504Y-6311951D01*
X65016496Y-6180336D01*
X65016501Y-6180329D01*
X65155448Y-5939666D01*
X65155452Y-5939657D01*
X65261798Y-5682916D01*
X65333726Y-5414477D01*
X65369998Y-5138961D01*
X65370000Y-5138945D01*
X65370000Y-4861054D01*
X65630000Y-4861054D01*
X65630000Y-5138945D01*
X65630001Y-5138961D01*
X65666273Y-5414477D01*
X65738201Y-5682916D01*
X65844547Y-5939657D01*
X65844551Y-5939667D01*
X65983501Y-6180335D01*
X66084493Y-6311951D01*
X66084494Y-6311951D01*
X66959521Y-5436923D01*
X67050924Y-5573717D01*
X67176283Y-5699076D01*
X67313075Y-5790477D01*
X66438047Y-6665504D01*
X66438047Y-6665505D01*
X66569664Y-6766498D01*
X66810332Y-6905448D01*
X66810342Y-6905452D01*
X67067083Y-7011798D01*
X67335522Y-7083726D01*
X67611038Y-7119998D01*
X67611055Y-7120000D01*
X67888945Y-7120000D01*
X67888961Y-7119998D01*
X68164477Y-7083726D01*
X68432916Y-7011798D01*
X68689657Y-6905452D01*
X68689666Y-6905448D01*
X68930329Y-6766501D01*
X68930336Y-6766496D01*
X69061951Y-6665504D01*
X68186924Y-5790477D01*
X68323717Y-5699076D01*
X68449076Y-5573717D01*
X68540477Y-5436924D01*
X69415504Y-6311951D01*
X69516496Y-6180336D01*
X69516501Y-6180329D01*
X69655448Y-5939666D01*
X69655452Y-5939657D01*
X69761798Y-5682916D01*
X69833726Y-5414477D01*
X69869998Y-5138961D01*
X69870000Y-5138945D01*
X69870000Y-4861054D01*
X75130000Y-4861054D01*
X75130000Y-5138945D01*
X75130001Y-5138961D01*
X75166273Y-5414477D01*
X75238201Y-5682916D01*
X75344547Y-5939657D01*
X75344551Y-5939667D01*
X75483501Y-6180335D01*
X75584493Y-6311951D01*
X75584494Y-6311951D01*
X76459521Y-5436923D01*
X76550924Y-5573717D01*
X76676283Y-5699076D01*
X76813075Y-5790477D01*
X75938047Y-6665504D01*
X75938047Y-6665505D01*
X76069664Y-6766498D01*
X76310332Y-6905448D01*
X76310342Y-6905452D01*
X76567083Y-7011798D01*
X76835522Y-7083726D01*
X77111038Y-7119998D01*
X77111055Y-7120000D01*
X77388945Y-7120000D01*
X77388961Y-7119998D01*
X77664477Y-7083726D01*
X77932916Y-7011798D01*
X78189657Y-6905452D01*
X78189666Y-6905448D01*
X78430329Y-6766501D01*
X78430336Y-6766496D01*
X78561951Y-6665504D01*
X77686924Y-5790477D01*
X77823717Y-5699076D01*
X77949076Y-5573717D01*
X78040477Y-5436924D01*
X78915504Y-6311951D01*
X79016496Y-6180336D01*
X79016501Y-6180329D01*
X79155448Y-5939666D01*
X79155452Y-5939657D01*
X79261798Y-5682916D01*
X79333726Y-5414477D01*
X79369998Y-5138961D01*
X79370000Y-5138945D01*
X79370000Y-4861054D01*
X79369998Y-4861038D01*
X79333726Y-4585522D01*
X79261798Y-4317083D01*
X79155452Y-4060342D01*
X79155448Y-4060332D01*
X79084042Y-3936653D01*
X79050589Y-3878711D01*
X82149500Y-3878711D01*
X82149500Y-4121288D01*
X82181161Y-4361785D01*
X82243947Y-4596104D01*
X82302507Y-4737480D01*
X82336776Y-4820212D01*
X82458064Y-5030289D01*
X82458066Y-5030292D01*
X82458067Y-5030293D01*
X82605733Y-5222736D01*
X82605739Y-5222743D01*
X82777256Y-5394260D01*
X82777262Y-5394265D01*
X82969711Y-5541936D01*
X83179788Y-5663224D01*
X83403900Y-5756054D01*
X83638211Y-5818838D01*
X83818586Y-5842584D01*
X83878711Y-5850500D01*
X83878712Y-5850500D01*
X84121289Y-5850500D01*
X84169388Y-5844167D01*
X84361789Y-5818838D01*
X84596100Y-5756054D01*
X84820212Y-5663224D01*
X85030289Y-5541936D01*
X85222738Y-5394265D01*
X85394265Y-5222738D01*
X85541936Y-5030289D01*
X85663224Y-4820212D01*
X85756054Y-4596100D01*
X85818838Y-4361789D01*
X85850500Y-4121288D01*
X85850500Y-3878712D01*
X85818838Y-3638211D01*
X85756054Y-3403900D01*
X85663224Y-3179788D01*
X85541936Y-2969711D01*
X85394265Y-2777262D01*
X85394260Y-2777256D01*
X85222743Y-2605739D01*
X85222736Y-2605733D01*
X85030293Y-2458067D01*
X85030292Y-2458066D01*
X85030289Y-2458064D01*
X84820212Y-2336776D01*
X84820205Y-2336773D01*
X84596104Y-2243947D01*
X84361785Y-2181161D01*
X84121289Y-2149500D01*
X84121288Y-2149500D01*
X83878712Y-2149500D01*
X83878711Y-2149500D01*
X83638214Y-2181161D01*
X83403895Y-2243947D01*
X83179794Y-2336773D01*
X83179785Y-2336777D01*
X82969706Y-2458067D01*
X82777263Y-2605733D01*
X82777256Y-2605739D01*
X82605739Y-2777256D01*
X82605733Y-2777263D01*
X82458067Y-2969706D01*
X82336777Y-3179785D01*
X82336773Y-3179794D01*
X82243947Y-3403895D01*
X82181161Y-3638214D01*
X82149500Y-3878711D01*
X79050589Y-3878711D01*
X79016498Y-3819664D01*
X78915504Y-3688047D01*
X78040477Y-4563074D01*
X77949076Y-4426283D01*
X77823717Y-4300924D01*
X77686923Y-4209521D01*
X78561951Y-3334494D01*
X78561951Y-3334493D01*
X78430335Y-3233501D01*
X78189667Y-3094551D01*
X78189657Y-3094547D01*
X77932916Y-2988201D01*
X77664477Y-2916273D01*
X77388961Y-2880001D01*
X77388945Y-2880000D01*
X77111055Y-2880000D01*
X77111038Y-2880001D01*
X76835522Y-2916273D01*
X76567083Y-2988201D01*
X76310342Y-3094547D01*
X76310332Y-3094551D01*
X76069673Y-3233495D01*
X76069666Y-3233500D01*
X75938047Y-3334493D01*
X75938047Y-3334494D01*
X76813075Y-4209522D01*
X76676283Y-4300924D01*
X76550924Y-4426283D01*
X76459522Y-4563075D01*
X75584494Y-3688047D01*
X75584493Y-3688047D01*
X75483500Y-3819666D01*
X75483495Y-3819673D01*
X75344551Y-4060332D01*
X75344547Y-4060342D01*
X75238201Y-4317083D01*
X75166273Y-4585522D01*
X75130001Y-4861038D01*
X75130000Y-4861054D01*
X69870000Y-4861054D01*
X69869998Y-4861038D01*
X69833726Y-4585522D01*
X69761798Y-4317083D01*
X69655452Y-4060342D01*
X69655448Y-4060332D01*
X69516498Y-3819664D01*
X69415504Y-3688047D01*
X68540477Y-4563074D01*
X68449076Y-4426283D01*
X68323717Y-4300924D01*
X68186923Y-4209521D01*
X69061951Y-3334494D01*
X69061951Y-3334493D01*
X68930335Y-3233501D01*
X68689667Y-3094551D01*
X68689657Y-3094547D01*
X68432916Y-2988201D01*
X68164477Y-2916273D01*
X67888961Y-2880001D01*
X67888945Y-2880000D01*
X67611055Y-2880000D01*
X67611038Y-2880001D01*
X67335522Y-2916273D01*
X67067083Y-2988201D01*
X66810342Y-3094547D01*
X66810332Y-3094551D01*
X66569673Y-3233495D01*
X66569666Y-3233500D01*
X66438047Y-3334493D01*
X66438047Y-3334494D01*
X67313075Y-4209522D01*
X67176283Y-4300924D01*
X67050924Y-4426283D01*
X66959522Y-4563075D01*
X66084494Y-3688047D01*
X66084493Y-3688047D01*
X65983500Y-3819666D01*
X65983495Y-3819673D01*
X65844551Y-4060332D01*
X65844547Y-4060342D01*
X65738201Y-4317083D01*
X65666273Y-4585522D01*
X65630001Y-4861038D01*
X65630000Y-4861054D01*
X65370000Y-4861054D01*
X65369998Y-4861038D01*
X65333726Y-4585522D01*
X65261798Y-4317083D01*
X65155452Y-4060342D01*
X65155448Y-4060332D01*
X65016498Y-3819664D01*
X64915504Y-3688047D01*
X64040477Y-4563074D01*
X63949076Y-4426283D01*
X63823717Y-4300924D01*
X63686923Y-4209521D01*
X64561951Y-3334494D01*
X64561951Y-3334493D01*
X64430335Y-3233501D01*
X64189667Y-3094551D01*
X64189657Y-3094547D01*
X63932916Y-2988201D01*
X63664477Y-2916273D01*
X63388961Y-2880001D01*
X63388945Y-2880000D01*
X63111055Y-2880000D01*
X63111038Y-2880001D01*
X62835522Y-2916273D01*
X62567083Y-2988201D01*
X62310342Y-3094547D01*
X62310332Y-3094551D01*
X62069673Y-3233495D01*
X62069666Y-3233500D01*
X61938047Y-3334493D01*
X61938047Y-3334494D01*
X62813075Y-4209522D01*
X62676283Y-4300924D01*
X62550924Y-4426283D01*
X62459522Y-4563075D01*
X61584494Y-3688047D01*
X61584493Y-3688047D01*
X61483500Y-3819666D01*
X61483495Y-3819673D01*
X61344551Y-4060332D01*
X61344547Y-4060342D01*
X61238201Y-4317083D01*
X61166273Y-4585522D01*
X61130001Y-4861038D01*
X61130000Y-4861054D01*
X55870000Y-4861054D01*
X55869998Y-4861038D01*
X55833726Y-4585522D01*
X55761798Y-4317083D01*
X55655452Y-4060342D01*
X55655448Y-4060332D01*
X55516498Y-3819664D01*
X55415504Y-3688047D01*
X54540477Y-4563074D01*
X54449076Y-4426283D01*
X54323717Y-4300924D01*
X54186923Y-4209521D01*
X55061951Y-3334494D01*
X55061951Y-3334493D01*
X54930335Y-3233501D01*
X54689667Y-3094551D01*
X54689657Y-3094547D01*
X54432916Y-2988201D01*
X54164477Y-2916273D01*
X53888961Y-2880001D01*
X53888945Y-2880000D01*
X53611055Y-2880000D01*
X53611038Y-2880001D01*
X53335522Y-2916273D01*
X53067083Y-2988201D01*
X52810342Y-3094547D01*
X52810332Y-3094551D01*
X52569673Y-3233495D01*
X52569666Y-3233500D01*
X52438047Y-3334493D01*
X52438047Y-3334494D01*
X53313075Y-4209522D01*
X53176283Y-4300924D01*
X53050924Y-4426283D01*
X52959522Y-4563075D01*
X52084494Y-3688047D01*
X52084493Y-3688047D01*
X51983500Y-3819666D01*
X51983495Y-3819673D01*
X51844551Y-4060332D01*
X51844547Y-4060342D01*
X51738201Y-4317083D01*
X51666273Y-4585522D01*
X51630001Y-4861038D01*
X51630000Y-4861054D01*
X51370000Y-4861054D01*
X51369998Y-4861038D01*
X51333726Y-4585522D01*
X51261798Y-4317083D01*
X51155452Y-4060342D01*
X51155448Y-4060332D01*
X51016498Y-3819664D01*
X50915504Y-3688047D01*
X50040477Y-4563074D01*
X49949076Y-4426283D01*
X49823717Y-4300924D01*
X49686923Y-4209521D01*
X50561951Y-3334494D01*
X50561951Y-3334493D01*
X50430335Y-3233501D01*
X50189667Y-3094551D01*
X50189657Y-3094547D01*
X49932916Y-2988201D01*
X49664477Y-2916273D01*
X49388961Y-2880001D01*
X49388945Y-2880000D01*
X49111055Y-2880000D01*
X49111038Y-2880001D01*
X48835522Y-2916273D01*
X48567083Y-2988201D01*
X48310342Y-3094547D01*
X48310332Y-3094551D01*
X48069673Y-3233495D01*
X48069666Y-3233500D01*
X47938047Y-3334493D01*
X47938047Y-3334494D01*
X48813075Y-4209522D01*
X48676283Y-4300924D01*
X48550924Y-4426283D01*
X48459522Y-4563075D01*
X47584494Y-3688047D01*
X47584493Y-3688047D01*
X47483500Y-3819666D01*
X47483495Y-3819673D01*
X47344551Y-4060332D01*
X47344547Y-4060342D01*
X47238201Y-4317083D01*
X47166273Y-4585522D01*
X47130001Y-4861038D01*
X47130000Y-4861054D01*
X41870000Y-4861054D01*
X41869998Y-4861038D01*
X41833726Y-4585522D01*
X41761798Y-4317083D01*
X41655452Y-4060342D01*
X41655448Y-4060332D01*
X41516498Y-3819664D01*
X41415504Y-3688047D01*
X40540477Y-4563074D01*
X40449076Y-4426283D01*
X40323717Y-4300924D01*
X40186923Y-4209521D01*
X41061951Y-3334494D01*
X41061951Y-3334493D01*
X40930335Y-3233501D01*
X40689667Y-3094551D01*
X40689657Y-3094547D01*
X40432916Y-2988201D01*
X40164477Y-2916273D01*
X39888961Y-2880001D01*
X39888945Y-2880000D01*
X39611055Y-2880000D01*
X39611038Y-2880001D01*
X39335522Y-2916273D01*
X39067083Y-2988201D01*
X38810342Y-3094547D01*
X38810332Y-3094551D01*
X38569673Y-3233495D01*
X38569666Y-3233500D01*
X38438047Y-3334493D01*
X38438047Y-3334494D01*
X39313075Y-4209522D01*
X39176283Y-4300924D01*
X39050924Y-4426283D01*
X38959522Y-4563075D01*
X38084494Y-3688047D01*
X38084493Y-3688047D01*
X37983500Y-3819666D01*
X37983495Y-3819673D01*
X37844551Y-4060332D01*
X37844547Y-4060342D01*
X37738201Y-4317083D01*
X37666273Y-4585522D01*
X37630001Y-4861038D01*
X37630000Y-4861054D01*
X37370000Y-4861054D01*
X37369998Y-4861038D01*
X37333726Y-4585522D01*
X37261798Y-4317083D01*
X37155452Y-4060342D01*
X37155448Y-4060332D01*
X37016498Y-3819664D01*
X36915504Y-3688047D01*
X36040477Y-4563074D01*
X35949076Y-4426283D01*
X35823717Y-4300924D01*
X35686923Y-4209521D01*
X36561951Y-3334494D01*
X36561951Y-3334493D01*
X36430335Y-3233501D01*
X36189667Y-3094551D01*
X36189657Y-3094547D01*
X35932916Y-2988201D01*
X35664477Y-2916273D01*
X35388961Y-2880001D01*
X35388945Y-2880000D01*
X35111055Y-2880000D01*
X35111038Y-2880001D01*
X34835522Y-2916273D01*
X34567083Y-2988201D01*
X34310342Y-3094547D01*
X34310332Y-3094551D01*
X34069673Y-3233495D01*
X34069666Y-3233500D01*
X33938047Y-3334493D01*
X33938047Y-3334494D01*
X34813075Y-4209522D01*
X34676283Y-4300924D01*
X34550924Y-4426283D01*
X34459522Y-4563075D01*
X33584494Y-3688047D01*
X33584493Y-3688047D01*
X33483500Y-3819666D01*
X33483495Y-3819673D01*
X33344551Y-4060332D01*
X33344547Y-4060342D01*
X33238201Y-4317083D01*
X33166273Y-4585522D01*
X33130001Y-4861038D01*
X33130000Y-4861054D01*
X27870000Y-4861054D01*
X27869998Y-4861038D01*
X27833726Y-4585522D01*
X27761798Y-4317083D01*
X27655452Y-4060342D01*
X27655448Y-4060332D01*
X27516498Y-3819664D01*
X27415504Y-3688047D01*
X26540477Y-4563074D01*
X26449076Y-4426283D01*
X26323717Y-4300924D01*
X26186923Y-4209521D01*
X27061951Y-3334494D01*
X27061951Y-3334493D01*
X26930335Y-3233501D01*
X26689667Y-3094551D01*
X26689657Y-3094547D01*
X26432916Y-2988201D01*
X26164477Y-2916273D01*
X25888961Y-2880001D01*
X25888945Y-2880000D01*
X25611055Y-2880000D01*
X25611038Y-2880001D01*
X25335522Y-2916273D01*
X25067083Y-2988201D01*
X24810342Y-3094547D01*
X24810332Y-3094551D01*
X24569673Y-3233495D01*
X24569666Y-3233500D01*
X24438047Y-3334493D01*
X24438047Y-3334494D01*
X25313075Y-4209522D01*
X25176283Y-4300924D01*
X25050924Y-4426283D01*
X24959522Y-4563075D01*
X24084494Y-3688047D01*
X24084493Y-3688047D01*
X23983500Y-3819666D01*
X23983495Y-3819673D01*
X23844551Y-4060332D01*
X23844547Y-4060342D01*
X23738201Y-4317083D01*
X23666273Y-4585522D01*
X23630001Y-4861038D01*
X23630000Y-4861054D01*
X23370000Y-4861054D01*
X23369998Y-4861038D01*
X23333726Y-4585522D01*
X23261798Y-4317083D01*
X23155452Y-4060342D01*
X23155448Y-4060332D01*
X23016498Y-3819664D01*
X22915504Y-3688047D01*
X22040477Y-4563074D01*
X21949076Y-4426283D01*
X21823717Y-4300924D01*
X21686923Y-4209521D01*
X22561951Y-3334494D01*
X22561951Y-3334493D01*
X22430335Y-3233501D01*
X22189667Y-3094551D01*
X22189657Y-3094547D01*
X21932916Y-2988201D01*
X21664477Y-2916273D01*
X21388961Y-2880001D01*
X21388945Y-2880000D01*
X21111055Y-2880000D01*
X21111038Y-2880001D01*
X20835522Y-2916273D01*
X20567083Y-2988201D01*
X20310342Y-3094547D01*
X20310332Y-3094551D01*
X20069673Y-3233495D01*
X20069666Y-3233500D01*
X19938047Y-3334493D01*
X19938047Y-3334494D01*
X20813075Y-4209522D01*
X20676283Y-4300924D01*
X20550924Y-4426283D01*
X20459522Y-4563075D01*
X19584494Y-3688047D01*
X19584493Y-3688047D01*
X19483500Y-3819666D01*
X19483495Y-3819673D01*
X19344551Y-4060332D01*
X19344547Y-4060342D01*
X19238201Y-4317083D01*
X19166273Y-4585522D01*
X19130001Y-4861038D01*
X19130000Y-4861054D01*
X13870000Y-4861054D01*
X13869998Y-4861038D01*
X13833726Y-4585522D01*
X13761798Y-4317083D01*
X13655452Y-4060342D01*
X13655448Y-4060332D01*
X13516498Y-3819664D01*
X13415504Y-3688047D01*
X12540477Y-4563074D01*
X12449076Y-4426283D01*
X12323717Y-4300924D01*
X12186923Y-4209521D01*
X13061951Y-3334494D01*
X13061951Y-3334493D01*
X12930335Y-3233501D01*
X12689667Y-3094551D01*
X12689657Y-3094547D01*
X12432916Y-2988201D01*
X12164477Y-2916273D01*
X11888961Y-2880001D01*
X11888945Y-2880000D01*
X11611055Y-2880000D01*
X11611038Y-2880001D01*
X11335522Y-2916273D01*
X11067083Y-2988201D01*
X10810342Y-3094547D01*
X10810332Y-3094551D01*
X10569673Y-3233495D01*
X10569666Y-3233500D01*
X10438047Y-3334493D01*
X10438047Y-3334494D01*
X11313075Y-4209522D01*
X11176283Y-4300924D01*
X11050924Y-4426283D01*
X10959522Y-4563075D01*
X10084494Y-3688047D01*
X10084493Y-3688047D01*
X9983500Y-3819666D01*
X9983495Y-3819673D01*
X9844551Y-4060332D01*
X9844547Y-4060342D01*
X9738201Y-4317083D01*
X9666273Y-4585522D01*
X9630001Y-4861038D01*
X9630000Y-4861054D01*
X5639644Y-4861054D01*
X5663224Y-4820212D01*
X5756054Y-4596100D01*
X5818838Y-4361789D01*
X5850500Y-4121288D01*
X5850500Y-3878712D01*
X5818838Y-3638211D01*
X5756054Y-3403900D01*
X5663224Y-3179788D01*
X5541936Y-2969711D01*
X5394265Y-2777262D01*
X5394260Y-2777256D01*
X5222743Y-2605739D01*
X5222736Y-2605733D01*
X5030293Y-2458067D01*
X5030292Y-2458066D01*
X5030289Y-2458064D01*
X4820212Y-2336776D01*
X4820205Y-2336773D01*
X4596104Y-2243947D01*
X4361785Y-2181161D01*
X4121289Y-2149500D01*
X4121288Y-2149500D01*
X3878712Y-2149500D01*
X3878711Y-2149500D01*
X3638214Y-2181161D01*
X3403895Y-2243947D01*
X3179794Y-2336773D01*
X3179785Y-2336777D01*
X2969706Y-2458067D01*
X2777263Y-2605733D01*
X2777256Y-2605739D01*
X2605739Y-2777256D01*
X2605733Y-2777263D01*
X2458067Y-2969706D01*
X2336777Y-3179785D01*
X2336773Y-3179794D01*
X2243947Y-3403895D01*
X2181161Y-3638214D01*
X2149500Y-3878711D01*
X500500Y-3878711D01*
X500500Y-1258676D01*
X520185Y-1191637D01*
X536819Y-1170995D01*
X2170995Y463181D01*
X2232318Y496666D01*
X2258676Y499500D01*
X85741324Y499500D01*
X85808363Y479815D01*
G37*
G04 #@! TD.AperFunction*
G04 #@! TD*
M02*
