G04 #@! TF.GenerationSoftware,KiCad,Pcbnew,9.0.2+dfsg-1*
G04 #@! TF.CreationDate,2026-09-14T05:40:24+07:00*
G04 #@! TF.ProjectId,tht_opamp_eq,7468745f-6f70-4616-9d70-5f65712e6b69,rev?*
G04 #@! TF.SameCoordinates,Original*
G04 #@! TF.FileFunction,Copper,L2,Bot*
G04 #@! TF.FilePolarity,Positive*
%FSLAX46Y46*%
G04 Gerber Fmt 4.6, Leading zero omitted, Abs format (unit mm)*
G04 Created by KiCad (PCBNEW 9.0.2+dfsg-1) date 2026-09-14 05:40:24*
%MOMM*%
%LPD*%
G01*
G04 APERTURE LIST*
G04 Aperture macros list*
%AMRoundRect*
0 Rectangle with rounded corners*
0 $1 Rounding radius*
0 $2 $3 $4 $5 $6 $7 $8 $9 X,Y pos of 4 corners*
0 Add a 4 corners polygon primitive as box body*
4,1,4,$2,$3,$4,$5,$6,$7,$8,$9,$2,$3,0*
0 Add four circle primitives for the rounded corners*
1,1,$1+$1,$2,$3*
1,1,$1+$1,$4,$5*
1,1,$1+$1,$6,$7*
1,1,$1+$1,$8,$9*
0 Add four rect primitives between the rounded corners*
20,1,$1+$1,$2,$3,$4,$5,0*
20,1,$1+$1,$4,$5,$6,$7,0*
20,1,$1+$1,$6,$7,$8,$9,0*
20,1,$1+$1,$8,$9,$2,$3,0*%
G04 Aperture macros list end*
G04 #@! TA.AperFunction,ComponentPad*
%ADD10C,1.600000*%
G04 #@! TD*
G04 #@! TA.AperFunction,ComponentPad*
%ADD11C,1.400000*%
G04 #@! TD*
G04 #@! TA.AperFunction,ComponentPad*
%ADD12C,3.240000*%
G04 #@! TD*
G04 #@! TA.AperFunction,ComponentPad*
%ADD13R,1.800000X1.800000*%
G04 #@! TD*
G04 #@! TA.AperFunction,ComponentPad*
%ADD14C,1.800000*%
G04 #@! TD*
G04 #@! TA.AperFunction,ComponentPad*
%ADD15RoundRect,0.250000X-0.550000X-0.550000X0.550000X-0.550000X0.550000X0.550000X-0.550000X0.550000X0*%
G04 #@! TD*
G04 #@! TA.AperFunction,ComponentPad*
%ADD16O,2.200000X4.000000*%
G04 #@! TD*
G04 #@! TA.AperFunction,ComponentPad*
%ADD17O,4.000000X2.200000*%
G04 #@! TD*
G04 #@! TA.AperFunction,ComponentPad*
%ADD18R,2.200000X4.000000*%
G04 #@! TD*
G04 #@! TA.AperFunction,ComponentPad*
%ADD19R,1.700000X1.700000*%
G04 #@! TD*
G04 #@! TA.AperFunction,ComponentPad*
%ADD20C,1.700000*%
G04 #@! TD*
G04 #@! TA.AperFunction,ViaPad*
%ADD21C,0.600000*%
G04 #@! TD*
G04 #@! TA.AperFunction,Conductor*
%ADD22C,0.200000*%
G04 #@! TD*
G04 APERTURE END LIST*
D10*
G04 #@! TO.P,C_IN_L,1*
G04 #@! TO.N,IN_L_RAW*
X7000000Y-33500000D03*
G04 #@! TO.P,C_IN_L,2*
G04 #@! TO.N,IN_L_AC*
X9500000Y-33500000D03*
G04 #@! TD*
G04 #@! TO.P,C_BIAS2,1*
G04 #@! TO.N,VBIAS*
X46000000Y-47000000D03*
G04 #@! TO.P,C_BIAS2,2*
G04 #@! TO.N,GND*
X48500000Y-47000000D03*
G04 #@! TD*
D11*
G04 #@! TO.P,R_IN_EQ_L,1*
G04 #@! TO.N,IN_L_AC*
X16000000Y-24500000D03*
G04 #@! TO.P,R_IN_EQ_L,2*
G04 #@! TO.N,EQ_IN_L*
X21080000Y-24500000D03*
G04 #@! TD*
D12*
G04 #@! TO.P,RV2,*
G04 #@! TO.N,GND*
X25750000Y-5000000D03*
X35250000Y-5000000D03*
D13*
G04 #@! TO.P,RV2,1*
G04 #@! TO.N,BASS_L_IN*
X28000000Y-12500000D03*
D14*
G04 #@! TO.P,RV2,2*
G04 #@! TO.N,BASS_L_W*
X30500000Y-12500000D03*
G04 #@! TO.P,RV2,3*
G04 #@! TO.N,BASS_L_FB*
X33000000Y-12500000D03*
G04 #@! TO.P,RV2,4*
G04 #@! TO.N,BASS_R_IN*
X28000000Y-15000000D03*
G04 #@! TO.P,RV2,5*
G04 #@! TO.N,BASS_R_W*
X30500000Y-15000000D03*
G04 #@! TO.P,RV2,6*
G04 #@! TO.N,BASS_R_FB*
X33000000Y-15000000D03*
G04 #@! TD*
D15*
G04 #@! TO.P,C_PWR1,1*
G04 #@! TO.N,+3.3V*
X52000000Y-54000000D03*
D10*
G04 #@! TO.P,C_PWR1,2*
G04 #@! TO.N,GND*
X54000000Y-54000000D03*
G04 #@! TD*
G04 #@! TO.P,C_MID_L1,1*
G04 #@! TO.N,EQ_IN_L*
X26000000Y-31500000D03*
G04 #@! TO.P,C_MID_L1,2*
G04 #@! TO.N,MID_L_IN*
X28500000Y-31500000D03*
G04 #@! TD*
D11*
G04 #@! TO.P,R_STAB_R,1*
G04 #@! TO.N,DRV_OUT_R*
X72000000Y-25500000D03*
G04 #@! TO.P,R_STAB_R,2*
G04 #@! TO.N,OUT_R_JACK*
X77080000Y-25500000D03*
G04 #@! TD*
D10*
G04 #@! TO.P,C_BASS_L1,1*
G04 #@! TO.N,EQ_IN_L*
X26000000Y-35000000D03*
G04 #@! TO.P,C_BASS_L1,2*
G04 #@! TO.N,BASS_L_IN*
X28500000Y-35000000D03*
G04 #@! TD*
D11*
G04 #@! TO.P,R_IN_L,1*
G04 #@! TO.N,IN_L_AC*
X16000000Y-21000000D03*
G04 #@! TO.P,R_IN_L,2*
G04 #@! TO.N,VBIAS*
X21080000Y-21000000D03*
G04 #@! TD*
G04 #@! TO.P,R_BIAS1,1*
G04 #@! TO.N,+3.3V*
X35000000Y-42000000D03*
G04 #@! TO.P,R_BIAS1,2*
G04 #@! TO.N,VBIAS*
X40080000Y-42000000D03*
G04 #@! TD*
G04 #@! TO.P,R_FB_L,1*
G04 #@! TO.N,DRV_OUT_L*
X16000000Y-31500000D03*
G04 #@! TO.P,R_FB_L,2*
G04 #@! TO.N,FB_DRV_L*
X21080000Y-31500000D03*
G04 #@! TD*
G04 #@! TO.P,R_IN_R,1*
G04 #@! TO.N,IN_R_AC*
X62000000Y-21000000D03*
G04 #@! TO.P,R_IN_R,2*
G04 #@! TO.N,VBIAS*
X67080000Y-21000000D03*
G04 #@! TD*
D10*
G04 #@! TO.P,C_PWR2,1*
G04 #@! TO.N,+3.3V*
X59000000Y-54000000D03*
G04 #@! TO.P,C_PWR2,2*
G04 #@! TO.N,GND*
X61500000Y-54000000D03*
G04 #@! TD*
G04 #@! TO.P,C_MID_R1,1*
G04 #@! TO.N,EQ_IN_R*
X52000000Y-31500000D03*
G04 #@! TO.P,C_MID_R1,2*
G04 #@! TO.N,MID_R_IN*
X54500000Y-31500000D03*
G04 #@! TD*
D11*
G04 #@! TO.P,R_PULL_R,1*
G04 #@! TO.N,OUT_R_JACK*
X72000000Y-29500000D03*
G04 #@! TO.P,R_PULL_R,2*
G04 #@! TO.N,GND*
X77080000Y-29500000D03*
G04 #@! TD*
D12*
G04 #@! TO.P,RV5,*
G04 #@! TO.N,GND*
X67750000Y-5000000D03*
X77250000Y-5000000D03*
D13*
G04 #@! TO.P,RV5,1*
G04 #@! TO.N,VBIAS*
X70000000Y-12500000D03*
D14*
G04 #@! TO.P,RV5,2*
G04 #@! TO.N,BAL_L*
X72500000Y-12500000D03*
G04 #@! TO.P,RV5,3*
G04 #@! TO.N,OUT_EQ_L*
X75000000Y-12500000D03*
G04 #@! TO.P,RV5,4*
G04 #@! TO.N,OUT_EQ_R*
X70000000Y-15000000D03*
G04 #@! TO.P,RV5,5*
G04 #@! TO.N,BAL_R*
X72500000Y-15000000D03*
G04 #@! TO.P,RV5,6*
G04 #@! TO.N,VBIAS*
X75000000Y-15000000D03*
G04 #@! TD*
D11*
G04 #@! TO.P,R_STAB_L,1*
G04 #@! TO.N,DRV_OUT_L*
X7000000Y-25500000D03*
G04 #@! TO.P,R_STAB_L,2*
G04 #@! TO.N,OUT_L_JACK*
X12080000Y-25500000D03*
G04 #@! TD*
D15*
G04 #@! TO.P,U1,1*
G04 #@! TO.N,OUT_EQ_L*
X40190000Y-22000000D03*
D10*
G04 #@! TO.P,U1,2*
G04 #@! TO.N,IN_INV_L*
X40190000Y-24540000D03*
G04 #@! TO.P,U1,3*
G04 #@! TO.N,VBIAS*
X40190000Y-27080000D03*
G04 #@! TO.P,U1,4*
G04 #@! TO.N,+3.3V*
X40190000Y-29620000D03*
G04 #@! TO.P,U1,5*
G04 #@! TO.N,VOL_L*
X40190000Y-32160000D03*
G04 #@! TO.P,U1,6*
G04 #@! TO.N,FB_DRV_L*
X40190000Y-34700000D03*
G04 #@! TO.P,U1,7*
G04 #@! TO.N,DRV_OUT_L*
X40190000Y-37240000D03*
G04 #@! TO.P,U1,8*
G04 #@! TO.N,DRV_OUT_R*
X47810000Y-37240000D03*
G04 #@! TO.P,U1,9*
G04 #@! TO.N,FB_DRV_R*
X47810000Y-34700000D03*
G04 #@! TO.P,U1,10*
G04 #@! TO.N,VOL_R*
X47810000Y-32160000D03*
G04 #@! TO.P,U1,11*
G04 #@! TO.N,GND*
X47810000Y-29620000D03*
G04 #@! TO.P,U1,12*
G04 #@! TO.N,VBIAS*
X47810000Y-27080000D03*
G04 #@! TO.P,U1,13*
G04 #@! TO.N,IN_INV_R*
X47810000Y-24540000D03*
G04 #@! TO.P,U1,14*
G04 #@! TO.N,OUT_EQ_R*
X47810000Y-22000000D03*
G04 #@! TD*
G04 #@! TO.P,C_IN_R,1*
G04 #@! TO.N,IN_R_RAW*
X72000000Y-33500000D03*
G04 #@! TO.P,C_IN_R,2*
G04 #@! TO.N,IN_R_AC*
X74500000Y-33500000D03*
G04 #@! TD*
D11*
G04 #@! TO.P,R_GND_L,1*
G04 #@! TO.N,FB_DRV_L*
X16000000Y-35000000D03*
G04 #@! TO.P,R_GND_L,2*
G04 #@! TO.N,VBIAS*
X21080000Y-35000000D03*
G04 #@! TD*
G04 #@! TO.P,R_IN_EQ_R,1*
G04 #@! TO.N,IN_R_AC*
X62000000Y-24500000D03*
G04 #@! TO.P,R_IN_EQ_R,2*
G04 #@! TO.N,EQ_IN_R*
X67080000Y-24500000D03*
G04 #@! TD*
G04 #@! TO.P,R_FB_EQ_R,1*
G04 #@! TO.N,OUT_EQ_R*
X62000000Y-28000000D03*
G04 #@! TO.P,R_FB_EQ_R,2*
G04 #@! TO.N,IN_INV_R*
X67080000Y-28000000D03*
G04 #@! TD*
D12*
G04 #@! TO.P,RV1,*
G04 #@! TO.N,GND*
X11750000Y-5000000D03*
X21250000Y-5000000D03*
D13*
G04 #@! TO.P,RV1,1*
G04 #@! TO.N,VBIAS*
X14000000Y-12500000D03*
D14*
G04 #@! TO.P,RV1,2*
G04 #@! TO.N,VOL_L*
X16500000Y-12500000D03*
G04 #@! TO.P,RV1,3*
G04 #@! TO.N,BAL_L*
X19000000Y-12500000D03*
G04 #@! TO.P,RV1,4*
G04 #@! TO.N,VBIAS*
X14000000Y-15000000D03*
G04 #@! TO.P,RV1,5*
G04 #@! TO.N,VOL_R*
X16500000Y-15000000D03*
G04 #@! TO.P,RV1,6*
G04 #@! TO.N,BAL_R*
X19000000Y-15000000D03*
G04 #@! TD*
D16*
G04 #@! TO.P,J2,R*
G04 #@! TO.N,OUT_R_JACK*
X77800000Y-54100000D03*
G04 #@! TO.P,J2,RN*
G04 #@! TO.N,GND*
X75100000Y-52900000D03*
D17*
G04 #@! TO.P,J2,S*
X72600000Y-46100000D03*
D18*
G04 #@! TO.P,J2,T*
G04 #@! TO.N,OUT_L_JACK*
X68000000Y-50000000D03*
D17*
G04 #@! TO.P,J2,TN*
G04 #@! TO.N,GND*
X68500000Y-57300000D03*
G04 #@! TD*
D11*
G04 #@! TO.P,R_BIAS2,1*
G04 #@! TO.N,VBIAS*
X45000000Y-42000000D03*
G04 #@! TO.P,R_BIAS2,2*
G04 #@! TO.N,GND*
X50080000Y-42000000D03*
G04 #@! TD*
D10*
G04 #@! TO.P,C_TREB_R2,1*
G04 #@! TO.N,OUT_EQ_R*
X52000000Y-24500000D03*
G04 #@! TO.P,C_TREB_R2,2*
G04 #@! TO.N,TREB_R_FB*
X54500000Y-24500000D03*
G04 #@! TD*
D11*
G04 #@! TO.P,R_FB_EQ_L,1*
G04 #@! TO.N,OUT_EQ_L*
X16000000Y-28000000D03*
G04 #@! TO.P,R_FB_EQ_L,2*
G04 #@! TO.N,IN_INV_L*
X21080000Y-28000000D03*
G04 #@! TD*
G04 #@! TO.P,R_BASS_R,1*
G04 #@! TO.N,BASS_R_W*
X72000000Y-37500000D03*
G04 #@! TO.P,R_BASS_R,2*
G04 #@! TO.N,IN_INV_R*
X77080000Y-37500000D03*
G04 #@! TD*
D19*
G04 #@! TO.P,J3,1*
G04 #@! TO.N,+3.3V*
X44000000Y-54000000D03*
D20*
G04 #@! TO.P,J3,2*
G04 #@! TO.N,GND*
X44000000Y-56540000D03*
G04 #@! TD*
D10*
G04 #@! TO.P,C_TREB_L2,1*
G04 #@! TO.N,OUT_EQ_L*
X26000000Y-24500000D03*
G04 #@! TO.P,C_TREB_L2,2*
G04 #@! TO.N,TREB_L_FB*
X28500000Y-24500000D03*
G04 #@! TD*
D15*
G04 #@! TO.P,C_OUT_L,1*
G04 #@! TO.N,DRV_OUT_L*
X7000000Y-21000000D03*
D10*
G04 #@! TO.P,C_OUT_L,2*
G04 #@! TO.N,OUT_L_JACK*
X9000000Y-21000000D03*
G04 #@! TD*
D12*
G04 #@! TO.P,RV4,*
G04 #@! TO.N,GND*
X53750000Y-5000000D03*
X63250000Y-5000000D03*
D13*
G04 #@! TO.P,RV4,1*
G04 #@! TO.N,TREB_L_IN*
X56000000Y-12500000D03*
D14*
G04 #@! TO.P,RV4,2*
G04 #@! TO.N,TREB_L_W*
X58500000Y-12500000D03*
G04 #@! TO.P,RV4,3*
G04 #@! TO.N,TREB_L_FB*
X61000000Y-12500000D03*
G04 #@! TO.P,RV4,4*
G04 #@! TO.N,TREB_R_IN*
X56000000Y-15000000D03*
G04 #@! TO.P,RV4,5*
G04 #@! TO.N,TREB_R_W*
X58500000Y-15000000D03*
G04 #@! TO.P,RV4,6*
G04 #@! TO.N,TREB_R_FB*
X61000000Y-15000000D03*
G04 #@! TD*
D11*
G04 #@! TO.P,R_TREB_R,1*
G04 #@! TO.N,TREB_R_W*
X52000000Y-28000000D03*
G04 #@! TO.P,R_TREB_R,2*
G04 #@! TO.N,IN_INV_R*
X57080000Y-28000000D03*
G04 #@! TD*
D15*
G04 #@! TO.P,C_BIAS1,1*
G04 #@! TO.N,VBIAS*
X36000000Y-47000000D03*
D10*
G04 #@! TO.P,C_BIAS1,2*
G04 #@! TO.N,GND*
X38000000Y-47000000D03*
G04 #@! TD*
D11*
G04 #@! TO.P,R_FB_R,1*
G04 #@! TO.N,DRV_OUT_R*
X62000000Y-31500000D03*
G04 #@! TO.P,R_FB_R,2*
G04 #@! TO.N,FB_DRV_R*
X67080000Y-31500000D03*
G04 #@! TD*
G04 #@! TO.P,R_PWR,1*
G04 #@! TO.N,LED_K*
X28000000Y-54000000D03*
G04 #@! TO.P,R_PWR,2*
G04 #@! TO.N,GND*
X33080000Y-54000000D03*
G04 #@! TD*
D13*
G04 #@! TO.P,D1,1*
G04 #@! TO.N,+3.3V*
X36000000Y-54000000D03*
D14*
G04 #@! TO.P,D1,2*
G04 #@! TO.N,LED_K*
X38540000Y-54000000D03*
G04 #@! TD*
D11*
G04 #@! TO.P,R_PULL_L,1*
G04 #@! TO.N,OUT_L_JACK*
X7000000Y-29500000D03*
G04 #@! TO.P,R_PULL_L,2*
G04 #@! TO.N,GND*
X12080000Y-29500000D03*
G04 #@! TD*
D10*
G04 #@! TO.P,C_TREB_R1,1*
G04 #@! TO.N,EQ_IN_R*
X52000000Y-21000000D03*
G04 #@! TO.P,C_TREB_R1,2*
G04 #@! TO.N,TREB_R_IN*
X54500000Y-21000000D03*
G04 #@! TD*
G04 #@! TO.P,C_BASS_R1,1*
G04 #@! TO.N,EQ_IN_R*
X52000000Y-35000000D03*
G04 #@! TO.P,C_BASS_R1,2*
G04 #@! TO.N,BASS_R_IN*
X54500000Y-35000000D03*
G04 #@! TD*
D11*
G04 #@! TO.P,R_BASS_L,1*
G04 #@! TO.N,BASS_L_W*
X7000000Y-37500000D03*
G04 #@! TO.P,R_BASS_L,2*
G04 #@! TO.N,IN_INV_L*
X12080000Y-37500000D03*
G04 #@! TD*
G04 #@! TO.P,R_TREB_L,1*
G04 #@! TO.N,TREB_L_W*
X26000000Y-28000000D03*
G04 #@! TO.P,R_TREB_L,2*
G04 #@! TO.N,IN_INV_L*
X31080000Y-28000000D03*
G04 #@! TD*
D12*
G04 #@! TO.P,RV3,*
G04 #@! TO.N,GND*
X39750000Y-5000000D03*
X49250000Y-5000000D03*
D13*
G04 #@! TO.P,RV3,1*
G04 #@! TO.N,MID_L_IN*
X42000000Y-12500000D03*
D14*
G04 #@! TO.P,RV3,2*
G04 #@! TO.N,IN_INV_L*
X44500000Y-12500000D03*
G04 #@! TO.P,RV3,3*
G04 #@! TO.N,MID_L_FB*
X47000000Y-12500000D03*
G04 #@! TO.P,RV3,4*
G04 #@! TO.N,MID_R_IN*
X42000000Y-15000000D03*
G04 #@! TO.P,RV3,5*
G04 #@! TO.N,IN_INV_R*
X44500000Y-15000000D03*
G04 #@! TO.P,RV3,6*
G04 #@! TO.N,MID_R_FB*
X47000000Y-15000000D03*
G04 #@! TD*
D11*
G04 #@! TO.P,R_GND_R,1*
G04 #@! TO.N,FB_DRV_R*
X62000000Y-35000000D03*
G04 #@! TO.P,R_GND_R,2*
G04 #@! TO.N,VBIAS*
X67080000Y-35000000D03*
G04 #@! TD*
D16*
G04 #@! TO.P,J1,R*
G04 #@! TO.N,IN_R_RAW*
X23800000Y-54100000D03*
G04 #@! TO.P,J1,RN*
G04 #@! TO.N,GND*
X21100000Y-52900000D03*
D17*
G04 #@! TO.P,J1,S*
X18600000Y-46100000D03*
D18*
G04 #@! TO.P,J1,T*
G04 #@! TO.N,IN_L_RAW*
X14000000Y-50000000D03*
D17*
G04 #@! TO.P,J1,TN*
G04 #@! TO.N,GND*
X14500000Y-57300000D03*
G04 #@! TD*
D15*
G04 #@! TO.P,C_OUT_R,1*
G04 #@! TO.N,DRV_OUT_R*
X72000000Y-21000000D03*
D10*
G04 #@! TO.P,C_OUT_R,2*
G04 #@! TO.N,OUT_R_JACK*
X74000000Y-21000000D03*
G04 #@! TD*
G04 #@! TO.P,C_TREB_L1,1*
G04 #@! TO.N,EQ_IN_L*
X26000000Y-21000000D03*
G04 #@! TO.P,C_TREB_L1,2*
G04 #@! TO.N,TREB_L_IN*
X28500000Y-21000000D03*
G04 #@! TD*
D21*
G04 #@! TO.N,GND*
X46500000Y-39450000D03*
G04 #@! TO.N,VBIAS*
X22064700Y-29316300D03*
G04 #@! TO.N,VOL_L*
X15657000Y-29882600D03*
G04 #@! TO.N,DRV_OUT_R*
X69111900Y-30237800D03*
G04 #@! TO.N,OUT_L_JACK*
X63446700Y-41201300D03*
G04 #@! TO.N,BASS_R_W*
X59835300Y-10871800D03*
G04 #@! TO.N,MID_R_IN*
X46480900Y-16413800D03*
G04 #@! TO.N,TREB_L_W*
X56899700Y-18352500D03*
G04 #@! TD*
D22*
G04 #@! TO.N,+3.3V*
X44000000Y-54000000D02*
X42848300Y-54000000D01*
X57873300Y-52873300D02*
X53126700Y-52873300D01*
X59000000Y-54000000D02*
X57873300Y-52873300D01*
X37201700Y-54000000D02*
X37201700Y-54375500D01*
X38042300Y-55216100D02*
X41632200Y-55216100D01*
X37201700Y-54375500D02*
X38042300Y-55216100D01*
X36000000Y-54000000D02*
X37201700Y-54000000D01*
X44000000Y-54000000D02*
X52000000Y-54000000D01*
X41632200Y-55216100D02*
X42848300Y-54000000D01*
X53126700Y-52873300D02*
X52000000Y-54000000D01*
G04 #@! TO.N,VBIAS*
X71201700Y-12500000D02*
X71201700Y-12950700D01*
X45000000Y-42000000D02*
X46495400Y-40504600D01*
X20000000Y-21000000D02*
X14000000Y-15000000D01*
X71201700Y-12950700D02*
X71952700Y-13701700D01*
X37803600Y-29466400D02*
X22214800Y-29466400D01*
X47810000Y-27080000D02*
X40190000Y-27080000D01*
X70000000Y-12500000D02*
X71201700Y-12500000D01*
X21080000Y-21000000D02*
X20000000Y-21000000D01*
X40080000Y-42000000D02*
X45000000Y-42000000D01*
X22214800Y-29466400D02*
X22064700Y-29316300D01*
X61575400Y-40504600D02*
X67080000Y-35000000D01*
X71952700Y-13701700D02*
X73701700Y-13701700D01*
X73701700Y-13701700D02*
X75000000Y-15000000D01*
X46495400Y-40504600D02*
X61575400Y-40504600D01*
X40190000Y-27080000D02*
X37803600Y-29466400D01*
G04 #@! TO.N,IN_R_RAW*
X23800000Y-51798300D02*
X53701700Y-51798300D01*
X23800000Y-54100000D02*
X23800000Y-51798300D01*
X53701700Y-51798300D02*
X72000000Y-33500000D01*
G04 #@! TO.N,IN_R_AC*
X74500000Y-33500000D02*
X65500000Y-24500000D01*
X65500000Y-24500000D02*
X62000000Y-24500000D01*
G04 #@! TO.N,EQ_IN_L*
X24580000Y-21000000D02*
X21080000Y-24500000D01*
X26000000Y-21000000D02*
X24580000Y-21000000D01*
G04 #@! TO.N,EQ_IN_R*
X52000000Y-21000000D02*
X53750000Y-22750000D01*
X53750000Y-22750000D02*
X65330000Y-22750000D01*
X65330000Y-22750000D02*
X67080000Y-24500000D01*
G04 #@! TO.N,IN_INV_L*
X21599300Y-28000000D02*
X21080000Y-28000000D01*
X22662000Y-29062700D02*
X21599300Y-28000000D01*
X36730000Y-28000000D02*
X31080000Y-28000000D01*
X40190000Y-24540000D02*
X36730000Y-28000000D01*
X30017300Y-29062700D02*
X22662000Y-29062700D01*
X31080000Y-28000000D02*
X30017300Y-29062700D01*
G04 #@! TO.N,IN_INV_R*
X49651500Y-26381500D02*
X55461500Y-26381500D01*
X73101700Y-32971500D02*
X68130200Y-28000000D01*
X47810000Y-24540000D02*
X49651500Y-26381500D01*
X67080000Y-28000000D02*
X66040900Y-29039100D01*
X77080000Y-37500000D02*
X76827000Y-37500000D01*
X73101700Y-33774700D02*
X73101700Y-32971500D01*
X76827000Y-37500000D02*
X73101700Y-33774700D01*
X68130200Y-28000000D02*
X67080000Y-28000000D01*
X66040900Y-29039100D02*
X58119100Y-29039100D01*
X58119100Y-29039100D02*
X57080000Y-28000000D01*
X55461500Y-26381500D02*
X57080000Y-28000000D01*
G04 #@! TO.N,OUT_EQ_L*
X26000000Y-25664400D02*
X26000000Y-24500000D01*
X16000000Y-28000000D02*
X17016000Y-26984000D01*
X75000000Y-12500000D02*
X76219900Y-13719900D01*
X50612200Y-20261800D02*
X41928200Y-20261800D01*
X40190000Y-22000000D02*
X36525600Y-25664400D01*
X76219900Y-13719900D02*
X76219900Y-15484300D01*
X17016000Y-26984000D02*
X24680400Y-26984000D01*
X36525600Y-25664400D02*
X26000000Y-25664400D01*
X76219900Y-15484300D02*
X74755100Y-16949100D01*
X53924900Y-16949100D02*
X50612200Y-20261800D01*
X24680400Y-26984000D02*
X26000000Y-25664400D01*
X74755100Y-16949100D02*
X53924900Y-16949100D01*
X41928200Y-20261800D02*
X40190000Y-22000000D01*
G04 #@! TO.N,OUT_EQ_R*
X49500000Y-22000000D02*
X52000000Y-24500000D01*
X52000000Y-24500000D02*
X53279800Y-25779800D01*
X59779800Y-25779800D02*
X62000000Y-28000000D01*
X47810000Y-22000000D02*
X49500000Y-22000000D01*
X53279800Y-25779800D02*
X59779800Y-25779800D01*
G04 #@! TO.N,BAL_L*
X21057600Y-10442400D02*
X19000000Y-12500000D01*
X72500000Y-12500000D02*
X69868400Y-9868400D01*
X39000300Y-10276100D02*
X38834000Y-10442400D01*
X39408000Y-9868400D02*
X39000300Y-10276100D01*
X69868400Y-9868400D02*
X39408000Y-9868400D01*
X38834000Y-10442400D02*
X21057600Y-10442400D01*
G04 #@! TO.N,BAL_R*
X59586200Y-10270100D02*
X59413900Y-10442400D01*
X39166600Y-10677800D02*
X39000300Y-10844100D01*
X39000300Y-10844100D02*
X23155900Y-10844100D01*
X23155900Y-10844100D02*
X19000000Y-15000000D01*
X71243000Y-13743000D02*
X65113900Y-13743000D01*
X59413900Y-10442400D02*
X39402000Y-10442400D01*
X72500000Y-15000000D02*
X71243000Y-13743000D01*
X39402000Y-10442400D02*
X39166600Y-10677800D01*
X61641000Y-10270100D02*
X59586200Y-10270100D01*
X65113900Y-13743000D02*
X61641000Y-10270100D01*
G04 #@! TO.N,VOL_L*
X15657000Y-29882600D02*
X16094200Y-30319800D01*
X31271100Y-32160000D02*
X40190000Y-32160000D01*
X29430900Y-30319800D02*
X31271100Y-32160000D01*
X16094200Y-30319800D02*
X29430900Y-30319800D01*
G04 #@! TO.N,VOL_R*
X16543400Y-29918100D02*
X15833300Y-29208000D01*
X14971200Y-28428400D02*
X14971200Y-27609400D01*
X15833300Y-29208000D02*
X15750800Y-29208000D01*
X46540000Y-30890000D02*
X30769300Y-30890000D01*
X22131500Y-21407500D02*
X22131500Y-20631500D01*
X30769300Y-30890000D02*
X29797400Y-29918100D01*
X22131500Y-20631500D02*
X16500000Y-15000000D01*
X47810000Y-32160000D02*
X46540000Y-30890000D01*
X15750800Y-29208000D02*
X14971200Y-28428400D01*
X29797400Y-29918100D02*
X16543400Y-29918100D01*
X17080400Y-25500200D02*
X18038800Y-25500200D01*
X18038800Y-25500200D02*
X22131500Y-21407500D01*
X14971200Y-27609400D02*
X17080400Y-25500200D01*
G04 #@! TO.N,FB_DRV_L*
X40190000Y-34700000D02*
X38740000Y-33250000D01*
X22830000Y-33250000D02*
X21080000Y-31500000D01*
X38740000Y-33250000D02*
X22830000Y-33250000D01*
G04 #@! TO.N,FB_DRV_R*
X62000000Y-35000000D02*
X65500000Y-31500000D01*
X49238900Y-36128900D02*
X60871100Y-36128900D01*
X47810000Y-34700000D02*
X49238900Y-36128900D01*
X65500000Y-31500000D02*
X67080000Y-31500000D01*
X60871100Y-36128900D02*
X62000000Y-35000000D01*
G04 #@! TO.N,DRV_OUT_L*
X21740000Y-37240000D02*
X16000000Y-31500000D01*
X10000000Y-25500000D02*
X7000000Y-25500000D01*
X40190000Y-37240000D02*
X21740000Y-37240000D01*
X16000000Y-31500000D02*
X10000000Y-25500000D01*
G04 #@! TO.N,DRV_OUT_R*
X46707000Y-36137000D02*
X46707000Y-34224100D01*
X47501100Y-33430000D02*
X60070000Y-33430000D01*
X69111900Y-30237800D02*
X63262200Y-30237800D01*
X47810000Y-37240000D02*
X46707000Y-36137000D01*
X46707000Y-34224100D02*
X47501100Y-33430000D01*
X63262200Y-30237800D02*
X62000000Y-31500000D01*
X60070000Y-33430000D02*
X62000000Y-31500000D01*
G04 #@! TO.N,OUT_L_JACK*
X68081700Y-35415000D02*
X68081700Y-34585000D01*
X68081700Y-34585000D02*
X67495000Y-33998300D01*
X8180000Y-29500000D02*
X7000000Y-29500000D01*
X63446800Y-40049900D02*
X68081700Y-35415000D01*
X17088800Y-38408800D02*
X8180000Y-29500000D01*
X67495000Y-33998300D02*
X66665100Y-33998300D01*
X62254600Y-38408800D02*
X17088800Y-38408800D01*
X63446700Y-41201300D02*
X63446700Y-40049900D01*
X66665100Y-33998300D02*
X62254600Y-38408800D01*
G04 #@! TO.N,LED_K*
X37338300Y-52798300D02*
X38540000Y-54000000D01*
X28000000Y-54000000D02*
X29201700Y-52798300D01*
X29201700Y-52798300D02*
X37338300Y-52798300D01*
G04 #@! TO.N,BASS_R_W*
X40097300Y-10871800D02*
X37219100Y-13750000D01*
X59835300Y-10871800D02*
X40097300Y-10871800D01*
X31750000Y-13750000D02*
X30500000Y-15000000D01*
X37219100Y-13750000D02*
X31750000Y-13750000D01*
G04 #@! TO.N,MID_R_IN*
X42000000Y-15000000D02*
X43413800Y-16413800D01*
X43413800Y-16413800D02*
X46480900Y-16413800D01*
G04 #@! TO.N,TREB_L_IN*
X54798300Y-12500000D02*
X47787400Y-19510900D01*
X47787400Y-19510900D02*
X29989100Y-19510900D01*
X56000000Y-12500000D02*
X54798300Y-12500000D01*
X29989100Y-19510900D02*
X28500000Y-21000000D01*
G04 #@! TO.N,TREB_L_FB*
X40413900Y-11279500D02*
X40419900Y-11273500D01*
X35490200Y-16203200D02*
X40269800Y-11423600D01*
X59386200Y-11273500D02*
X60612700Y-12500000D01*
X40269800Y-11423600D02*
X40413900Y-11279500D01*
X28500000Y-24500000D02*
X27328100Y-23328100D01*
X60612700Y-12500000D02*
X61000000Y-12500000D01*
X33908000Y-16368000D02*
X34072800Y-16203200D01*
X27328100Y-23328100D02*
X27328100Y-20561900D01*
X34072800Y-16203200D02*
X35490200Y-16203200D01*
X27328100Y-20561900D02*
X31522000Y-16368000D01*
X40419900Y-11273500D02*
X59386200Y-11273500D01*
X31522000Y-16368000D02*
X33908000Y-16368000D01*
G04 #@! TO.N,TREB_L_W*
X42801500Y-23412000D02*
X45550000Y-20663500D01*
X56899700Y-18352500D02*
X57201700Y-18352500D01*
X36170800Y-26994400D02*
X39753200Y-23412000D01*
X39753200Y-23412000D02*
X42801500Y-23412000D01*
X50778500Y-20663500D02*
X51929000Y-19513000D01*
X55739200Y-19513000D02*
X56899700Y-18352500D01*
X45550000Y-20663500D02*
X50778500Y-20663500D01*
X27005600Y-26994400D02*
X36170800Y-26994400D01*
X26000000Y-28000000D02*
X27005600Y-26994400D01*
X51929000Y-19513000D02*
X55739200Y-19513000D01*
G04 #@! TD*
G04 #@! TA.AperFunction,Conductor*
G04 #@! TO.N,GND*
G36*
X85808363Y479815D02*
G01*
X85829005Y463181D01*
X87463181Y-1170995D01*
X87496666Y-1232318D01*
X87499500Y-1258676D01*
X87499500Y-57741324D01*
X87479815Y-57808363D01*
X87463181Y-57829005D01*
X85829005Y-59463181D01*
X85767682Y-59496666D01*
X85741324Y-59499500D01*
X2258676Y-59499500D01*
X2191637Y-59479815D01*
X2170995Y-59463181D01*
X536819Y-57829005D01*
X503334Y-57767682D01*
X500500Y-57741324D01*
X500500Y-55878711D01*
X2149500Y-55878711D01*
X2149500Y-56121288D01*
X2181161Y-56361785D01*
X2243947Y-56596104D01*
X2326379Y-56795112D01*
X2336776Y-56820212D01*
X2458064Y-57030289D01*
X2458066Y-57030292D01*
X2458067Y-57030293D01*
X2605733Y-57222736D01*
X2605739Y-57222743D01*
X2777256Y-57394260D01*
X2777262Y-57394265D01*
X2969711Y-57541936D01*
X3179788Y-57663224D01*
X3403900Y-57756054D01*
X3638211Y-57818838D01*
X3818586Y-57842584D01*
X3878711Y-57850500D01*
X3878712Y-57850500D01*
X4121289Y-57850500D01*
X4169388Y-57844167D01*
X4361789Y-57818838D01*
X4596100Y-57756054D01*
X4820212Y-57663224D01*
X5030289Y-57541936D01*
X5222738Y-57394265D01*
X5394265Y-57222738D01*
X5526811Y-57050000D01*
X12019652Y-57050000D01*
X13899999Y-57050000D01*
X13874979Y-57110402D01*
X13850000Y-57235981D01*
X13850000Y-57364019D01*
X13874979Y-57489598D01*
X13899999Y-57550000D01*
X12019652Y-57550000D01*
X12039397Y-57674668D01*
X12039397Y-57674671D01*
X12117219Y-57914184D01*
X12231557Y-58138583D01*
X12379590Y-58342331D01*
X12379590Y-58342332D01*
X12557667Y-58520409D01*
X12761416Y-58668442D01*
X12985815Y-58782780D01*
X13225330Y-58860602D01*
X13474072Y-58900000D01*
X14250000Y-58900000D01*
X14250000Y-57900001D01*
X14310402Y-57925021D01*
X14435981Y-57950000D01*
X14564019Y-57950000D01*
X14689598Y-57925021D01*
X14750000Y-57900001D01*
X14750000Y-58900000D01*
X15525928Y-58900000D01*
X15774669Y-58860602D01*
X16014184Y-58782780D01*
X16238583Y-58668442D01*
X16442331Y-58520409D01*
X16442332Y-58520409D01*
X16620409Y-58342332D01*
X16620409Y-58342331D01*
X16768442Y-58138583D01*
X16882780Y-57914184D01*
X16960602Y-57674671D01*
X16960602Y-57674668D01*
X16974233Y-57588613D01*
X16980349Y-57550000D01*
X15100001Y-57550000D01*
X15125021Y-57489598D01*
X15150000Y-57364019D01*
X15150000Y-57235981D01*
X15125021Y-57110402D01*
X15100001Y-57050000D01*
X16980348Y-57050000D01*
X16960602Y-56925331D01*
X16960602Y-56925328D01*
X16882780Y-56685815D01*
X16768442Y-56461416D01*
X16620409Y-56257668D01*
X16620409Y-56257667D01*
X16442332Y-56079590D01*
X16238583Y-55931557D01*
X16014184Y-55817219D01*
X15774669Y-55739397D01*
X15525928Y-55700000D01*
X14750000Y-55700000D01*
X14750000Y-56699998D01*
X14689598Y-56674979D01*
X14564019Y-56650000D01*
X14435981Y-56650000D01*
X14310402Y-56674979D01*
X14250000Y-56699998D01*
X14250000Y-55700000D01*
X13474072Y-55700000D01*
X13225330Y-55739397D01*
X12985815Y-55817219D01*
X12761416Y-55931557D01*
X12557668Y-56079590D01*
X12557667Y-56079590D01*
X12379590Y-56257667D01*
X12379590Y-56257668D01*
X12231557Y-56461416D01*
X12117219Y-56685815D01*
X12039397Y-56925328D01*
X12039397Y-56925331D01*
X12019652Y-57050000D01*
X5526811Y-57050000D01*
X5541936Y-57030289D01*
X5663224Y-56820212D01*
X5756054Y-56596100D01*
X5818838Y-56361789D01*
X5850500Y-56121288D01*
X5850500Y-55878712D01*
X5818838Y-55638211D01*
X5756054Y-55403900D01*
X5663224Y-55179788D01*
X5541936Y-54969711D01*
X5397958Y-54782075D01*
X5394266Y-54777263D01*
X5394260Y-54777256D01*
X5222743Y-54605739D01*
X5222736Y-54605733D01*
X5030293Y-54458067D01*
X5030292Y-54458066D01*
X5030289Y-54458064D01*
X4820212Y-54336776D01*
X4794554Y-54326148D01*
X4596104Y-54243947D01*
X4361785Y-54181161D01*
X4121289Y-54149500D01*
X4121288Y-54149500D01*
X3878712Y-54149500D01*
X3878711Y-54149500D01*
X3638214Y-54181161D01*
X3403895Y-54243947D01*
X3179794Y-54336773D01*
X3179785Y-54336777D01*
X2969706Y-54458067D01*
X2777263Y-54605733D01*
X2777256Y-54605739D01*
X2605739Y-54777256D01*
X2605733Y-54777263D01*
X2458067Y-54969706D01*
X2458064Y-54969710D01*
X2458064Y-54969711D01*
X2445212Y-54991971D01*
X2336777Y-55179785D01*
X2336773Y-55179794D01*
X2243947Y-55403895D01*
X2181161Y-55638214D01*
X2149500Y-55878711D01*
X500500Y-55878711D01*
X500500Y-47952135D01*
X12399500Y-47952135D01*
X12399500Y-52047870D01*
X12399501Y-52047876D01*
X12405908Y-52107483D01*
X12456202Y-52242328D01*
X12456206Y-52242335D01*
X12542452Y-52357544D01*
X12542455Y-52357547D01*
X12657664Y-52443793D01*
X12657671Y-52443797D01*
X12792517Y-52494091D01*
X12792516Y-52494091D01*
X12799444Y-52494835D01*
X12852127Y-52500500D01*
X15147872Y-52500499D01*
X15207483Y-52494091D01*
X15342331Y-52443796D01*
X15457546Y-52357546D01*
X15543796Y-52242331D01*
X15594091Y-52107483D01*
X15600500Y-52047873D01*
X15600499Y-47952128D01*
X15594091Y-47892517D01*
X15585444Y-47869334D01*
X15543797Y-47757671D01*
X15543793Y-47757664D01*
X15457547Y-47642455D01*
X15457544Y-47642452D01*
X15342335Y-47556206D01*
X15342328Y-47556202D01*
X15207482Y-47505908D01*
X15207483Y-47505908D01*
X15147883Y-47499501D01*
X15147881Y-47499500D01*
X15147873Y-47499500D01*
X15147864Y-47499500D01*
X12852129Y-47499500D01*
X12852123Y-47499501D01*
X12792516Y-47505908D01*
X12657671Y-47556202D01*
X12657664Y-47556206D01*
X12542455Y-47642452D01*
X12542452Y-47642455D01*
X12456206Y-47757664D01*
X12456202Y-47757671D01*
X12405908Y-47892517D01*
X12400316Y-47944534D01*
X12399501Y-47952123D01*
X12399500Y-47952135D01*
X500500Y-47952135D01*
X500500Y-45850000D01*
X16119652Y-45850000D01*
X17999999Y-45850000D01*
X17974979Y-45910402D01*
X17950000Y-46035981D01*
X17950000Y-46164019D01*
X17974979Y-46289598D01*
X17999999Y-46350000D01*
X16119652Y-46350000D01*
X16139397Y-46474668D01*
X16139397Y-46474671D01*
X16217219Y-46714184D01*
X16331557Y-46938583D01*
X16479590Y-47142331D01*
X16479590Y-47142332D01*
X16657667Y-47320409D01*
X16861416Y-47468442D01*
X17085815Y-47582780D01*
X17325330Y-47660602D01*
X17574072Y-47700000D01*
X18350000Y-47700000D01*
X18350000Y-46700001D01*
X18410402Y-46725021D01*
X18535981Y-46750000D01*
X18664019Y-46750000D01*
X18789598Y-46725021D01*
X18850000Y-46700001D01*
X18850000Y-47700000D01*
X19625928Y-47700000D01*
X19874669Y-47660602D01*
X20114184Y-47582780D01*
X20338583Y-47468442D01*
X20542331Y-47320409D01*
X20542332Y-47320409D01*
X20720409Y-47142332D01*
X20720409Y-47142331D01*
X20868442Y-46938583D01*
X20982780Y-46714184D01*
X21060602Y-46474671D01*
X21060602Y-46474668D01*
X21072432Y-46399983D01*
X34699500Y-46399983D01*
X34699500Y-47600001D01*
X34699501Y-47600018D01*
X34710000Y-47702796D01*
X34710001Y-47702799D01*
X34728184Y-47757671D01*
X34765186Y-47869334D01*
X34857288Y-48018656D01*
X34981344Y-48142712D01*
X35130666Y-48234814D01*
X35297203Y-48289999D01*
X35399991Y-48300500D01*
X36600008Y-48300499D01*
X36702797Y-48289999D01*
X36869334Y-48234814D01*
X37018656Y-48142712D01*
X37087879Y-48073489D01*
X37149202Y-48040004D01*
X37218894Y-48044988D01*
X37248446Y-48060853D01*
X37318646Y-48111857D01*
X37500968Y-48204755D01*
X37695582Y-48267990D01*
X37897683Y-48300000D01*
X38102317Y-48300000D01*
X38304417Y-48267990D01*
X38499031Y-48204755D01*
X38681349Y-48111859D01*
X38725921Y-48079474D01*
X38046447Y-47400000D01*
X38052661Y-47400000D01*
X38154394Y-47372741D01*
X38245606Y-47320080D01*
X38320080Y-47245606D01*
X38372741Y-47154394D01*
X38400000Y-47052661D01*
X38400000Y-47046447D01*
X39079474Y-47725921D01*
X39111859Y-47681349D01*
X39204755Y-47499031D01*
X39267990Y-47304417D01*
X39300000Y-47102317D01*
X39300000Y-46897682D01*
X39299995Y-46897648D01*
X44699500Y-46897648D01*
X44699500Y-47102351D01*
X44731522Y-47304534D01*
X44794781Y-47499223D01*
X44846135Y-47600009D01*
X44887585Y-47681359D01*
X44887715Y-47681613D01*
X45008028Y-47847213D01*
X45152786Y-47991971D01*
X45273226Y-48079474D01*
X45318390Y-48112287D01*
X45434607Y-48171503D01*
X45500776Y-48205218D01*
X45500778Y-48205218D01*
X45500781Y-48205220D01*
X45591856Y-48234812D01*
X45695465Y-48268477D01*
X45796557Y-48284488D01*
X45897648Y-48300500D01*
X45897649Y-48300500D01*
X46102351Y-48300500D01*
X46102352Y-48300500D01*
X46304534Y-48268477D01*
X46499219Y-48205220D01*
X46681610Y-48112287D01*
X46810482Y-48018657D01*
X46847213Y-47991971D01*
X46847215Y-47991968D01*
X46847219Y-47991966D01*
X46991966Y-47847219D01*
X46991968Y-47847215D01*
X46991971Y-47847213D01*
X47096894Y-47702797D01*
X47112287Y-47681610D01*
X47139795Y-47627621D01*
X47187769Y-47576826D01*
X47255589Y-47560030D01*
X47321725Y-47582567D01*
X47360765Y-47627621D01*
X47388141Y-47681350D01*
X47388147Y-47681359D01*
X47420523Y-47725921D01*
X47420524Y-47725922D01*
X48100000Y-47046446D01*
X48100000Y-47052661D01*
X48127259Y-47154394D01*
X48179920Y-47245606D01*
X48254394Y-47320080D01*
X48345606Y-47372741D01*
X48447339Y-47400000D01*
X48453553Y-47400000D01*
X47774076Y-48079474D01*
X47818650Y-48111859D01*
X48000968Y-48204755D01*
X48195582Y-48267990D01*
X48397683Y-48300000D01*
X48602317Y-48300000D01*
X48804417Y-48267990D01*
X48999031Y-48204755D01*
X49181349Y-48111859D01*
X49225921Y-48079474D01*
X48546447Y-47400000D01*
X48552661Y-47400000D01*
X48654394Y-47372741D01*
X48745606Y-47320080D01*
X48820080Y-47245606D01*
X48872741Y-47154394D01*
X48900000Y-47052661D01*
X48900000Y-47046447D01*
X49579474Y-47725921D01*
X49611859Y-47681349D01*
X49704755Y-47499031D01*
X49767990Y-47304417D01*
X49800000Y-47102317D01*
X49800000Y-46897682D01*
X49767990Y-46695582D01*
X49704755Y-46500968D01*
X49611859Y-46318650D01*
X49579474Y-46274077D01*
X49579474Y-46274076D01*
X48900000Y-46953551D01*
X48900000Y-46947339D01*
X48872741Y-46845606D01*
X48820080Y-46754394D01*
X48745606Y-46679920D01*
X48654394Y-46627259D01*
X48552661Y-46600000D01*
X48546446Y-46600000D01*
X49225922Y-45920524D01*
X49225921Y-45920523D01*
X49181359Y-45888147D01*
X49181350Y-45888141D01*
X48999031Y-45795244D01*
X48804417Y-45732009D01*
X48602317Y-45700000D01*
X48397683Y-45700000D01*
X48195582Y-45732009D01*
X48000968Y-45795244D01*
X47818644Y-45888143D01*
X47774077Y-45920523D01*
X47774077Y-45920524D01*
X48453554Y-46600000D01*
X48447339Y-46600000D01*
X48345606Y-46627259D01*
X48254394Y-46679920D01*
X48179920Y-46754394D01*
X48127259Y-46845606D01*
X48100000Y-46947339D01*
X48100000Y-46953553D01*
X47420524Y-46274077D01*
X47420523Y-46274077D01*
X47388143Y-46318644D01*
X47360765Y-46372378D01*
X47312790Y-46423174D01*
X47244969Y-46439969D01*
X47178834Y-46417431D01*
X47139795Y-46372378D01*
X47112284Y-46318385D01*
X46991971Y-46152786D01*
X46847213Y-46008028D01*
X46681613Y-45887715D01*
X46681612Y-45887714D01*
X46681610Y-45887713D01*
X46607594Y-45850000D01*
X46499223Y-45794781D01*
X46304534Y-45731522D01*
X46129995Y-45703878D01*
X46102352Y-45699500D01*
X45897648Y-45699500D01*
X45873329Y-45703351D01*
X45695465Y-45731522D01*
X45500776Y-45794781D01*
X45318386Y-45887715D01*
X45152786Y-46008028D01*
X45008028Y-46152786D01*
X44887715Y-46318386D01*
X44794781Y-46500776D01*
X44731522Y-46695465D01*
X44699500Y-46897648D01*
X39299995Y-46897648D01*
X39267990Y-46695582D01*
X39204755Y-46500968D01*
X39111859Y-46318650D01*
X39079474Y-46274077D01*
X39079474Y-46274076D01*
X38400000Y-46953551D01*
X38400000Y-46947339D01*
X38372741Y-46845606D01*
X38320080Y-46754394D01*
X38245606Y-46679920D01*
X38154394Y-46627259D01*
X38052661Y-46600000D01*
X38046446Y-46600000D01*
X38725922Y-45920524D01*
X38725921Y-45920523D01*
X38681359Y-45888147D01*
X38681350Y-45888141D01*
X38499031Y-45795244D01*
X38304417Y-45732009D01*
X38102317Y-45700000D01*
X37897683Y-45700000D01*
X37695582Y-45732009D01*
X37500968Y-45795244D01*
X37318651Y-45888139D01*
X37248444Y-45939148D01*
X37182637Y-45962627D01*
X37114583Y-45946801D01*
X37087878Y-45926510D01*
X37018657Y-45857289D01*
X37018656Y-45857288D01*
X36869334Y-45765186D01*
X36702797Y-45710001D01*
X36702795Y-45710000D01*
X36600010Y-45699500D01*
X35399998Y-45699500D01*
X35399981Y-45699501D01*
X35297203Y-45710000D01*
X35297200Y-45710001D01*
X35130668Y-45765185D01*
X35130663Y-45765187D01*
X34981342Y-45857289D01*
X34857289Y-45981342D01*
X34765187Y-46130663D01*
X34765186Y-46130666D01*
X34710001Y-46297203D01*
X34710001Y-46297204D01*
X34710000Y-46297204D01*
X34699500Y-46399983D01*
X21072432Y-46399983D01*
X21076003Y-46377436D01*
X21080348Y-46350000D01*
X19200001Y-46350000D01*
X19225021Y-46289598D01*
X19250000Y-46164019D01*
X19250000Y-46035981D01*
X19225021Y-45910402D01*
X19200001Y-45850000D01*
X21080348Y-45850000D01*
X21060602Y-45725331D01*
X21060602Y-45725328D01*
X20982780Y-45485815D01*
X20868442Y-45261416D01*
X20720409Y-45057668D01*
X20720409Y-45057667D01*
X20542332Y-44879590D01*
X20338583Y-44731557D01*
X20114184Y-44617219D01*
X19874669Y-44539397D01*
X19625928Y-44500000D01*
X18850000Y-44500000D01*
X18850000Y-45499998D01*
X18789598Y-45474979D01*
X18664019Y-45450000D01*
X18535981Y-45450000D01*
X18410402Y-45474979D01*
X18350000Y-45499998D01*
X18350000Y-44500000D01*
X17574072Y-44500000D01*
X17325330Y-44539397D01*
X17085815Y-44617219D01*
X16861416Y-44731557D01*
X16657668Y-44879590D01*
X16657667Y-44879590D01*
X16479590Y-45057667D01*
X16479590Y-45057668D01*
X16331557Y-45261416D01*
X16217219Y-45485815D01*
X16139397Y-45725328D01*
X16139397Y-45725331D01*
X16119652Y-45850000D01*
X500500Y-45850000D01*
X500500Y-41905513D01*
X33799500Y-41905513D01*
X33799500Y-42094486D01*
X33829059Y-42281118D01*
X33887454Y-42460836D01*
X33958617Y-42600500D01*
X33973240Y-42629199D01*
X34084310Y-42782073D01*
X34217927Y-42915690D01*
X34370801Y-43026760D01*
X34450347Y-43067290D01*
X34539163Y-43112545D01*
X34539165Y-43112545D01*
X34539168Y-43112547D01*
X34635497Y-43143846D01*
X34718881Y-43170940D01*
X34905514Y-43200500D01*
X34905519Y-43200500D01*
X35094486Y-43200500D01*
X35281118Y-43170940D01*
X35282623Y-43170451D01*
X35460832Y-43112547D01*
X35629199Y-43026760D01*
X35782073Y-42915690D01*
X35915690Y-42782073D01*
X36026760Y-42629199D01*
X36112547Y-42460832D01*
X36170940Y-42281118D01*
X36181427Y-42214905D01*
X36200500Y-42094486D01*
X36200500Y-41905513D01*
X36170940Y-41718881D01*
X36125970Y-41580479D01*
X36112547Y-41539168D01*
X36112545Y-41539165D01*
X36112545Y-41539163D01*
X36067290Y-41450347D01*
X36026760Y-41370801D01*
X35915690Y-41217927D01*
X35782073Y-41084310D01*
X35629199Y-40973240D01*
X35618528Y-40967803D01*
X35460836Y-40887454D01*
X35281118Y-40829059D01*
X35094486Y-40799500D01*
X35094481Y-40799500D01*
X34905519Y-40799500D01*
X34905514Y-40799500D01*
X34718881Y-40829059D01*
X34539163Y-40887454D01*
X34370800Y-40973240D01*
X34285467Y-41035239D01*
X34217927Y-41084310D01*
X34217925Y-41084312D01*
X34217924Y-41084312D01*
X34084312Y-41217924D01*
X34084312Y-41217925D01*
X34084310Y-41217927D01*
X34071049Y-41236179D01*
X33973240Y-41370800D01*
X33887454Y-41539163D01*
X33829059Y-41718881D01*
X33799500Y-41905513D01*
X500500Y-41905513D01*
X500500Y-37405513D01*
X5799500Y-37405513D01*
X5799500Y-37594486D01*
X5829059Y-37781118D01*
X5887454Y-37960836D01*
X5973240Y-38129199D01*
X6084310Y-38282073D01*
X6217927Y-38415690D01*
X6370801Y-38526760D01*
X6450347Y-38567290D01*
X6539163Y-38612545D01*
X6539165Y-38612545D01*
X6539168Y-38612547D01*
X6635497Y-38643846D01*
X6718881Y-38670940D01*
X6905514Y-38700500D01*
X6905519Y-38700500D01*
X7094486Y-38700500D01*
X7281118Y-38670940D01*
X7460832Y-38612547D01*
X7629199Y-38526760D01*
X7782073Y-38415690D01*
X7915690Y-38282073D01*
X8026760Y-38129199D01*
X8112547Y-37960832D01*
X8170940Y-37781118D01*
X8181282Y-37715823D01*
X8200500Y-37594486D01*
X8200500Y-37405513D01*
X10879500Y-37405513D01*
X10879500Y-37594486D01*
X10909059Y-37781118D01*
X10967454Y-37960836D01*
X11053240Y-38129199D01*
X11164310Y-38282073D01*
X11297927Y-38415690D01*
X11450801Y-38526760D01*
X11530347Y-38567290D01*
X11619163Y-38612545D01*
X11619165Y-38612545D01*
X11619168Y-38612547D01*
X11715497Y-38643846D01*
X11798881Y-38670940D01*
X11985514Y-38700500D01*
X11985519Y-38700500D01*
X12174486Y-38700500D01*
X12361118Y-38670940D01*
X12540832Y-38612547D01*
X12709199Y-38526760D01*
X12862073Y-38415690D01*
X12995690Y-38282073D01*
X13106760Y-38129199D01*
X13192547Y-37960832D01*
X13250940Y-37781118D01*
X13261282Y-37715823D01*
X13280500Y-37594486D01*
X13280500Y-37405513D01*
X13250940Y-37218881D01*
X13192545Y-37039163D01*
X13139708Y-36935465D01*
X13106760Y-36870801D01*
X12995690Y-36717927D01*
X12862073Y-36584310D01*
X12709199Y-36473240D01*
X12540836Y-36387454D01*
X12361118Y-36329059D01*
X12174486Y-36299500D01*
X12174481Y-36299500D01*
X11985519Y-36299500D01*
X11985514Y-36299500D01*
X11798881Y-36329059D01*
X11619163Y-36387454D01*
X11450800Y-36473240D01*
X11406100Y-36505717D01*
X11297927Y-36584310D01*
X11297925Y-36584312D01*
X11297924Y-36584312D01*
X11164312Y-36717924D01*
X11164312Y-36717925D01*
X11164310Y-36717927D01*
X11132256Y-36762046D01*
X11053240Y-36870800D01*
X10967454Y-37039163D01*
X10909059Y-37218881D01*
X10879500Y-37405513D01*
X8200500Y-37405513D01*
X8170940Y-37218881D01*
X8112545Y-37039163D01*
X8059708Y-36935465D01*
X8026760Y-36870801D01*
X7915690Y-36717927D01*
X7782073Y-36584310D01*
X7629199Y-36473240D01*
X7460836Y-36387454D01*
X7281118Y-36329059D01*
X7094486Y-36299500D01*
X7094481Y-36299500D01*
X6905519Y-36299500D01*
X6905514Y-36299500D01*
X6718881Y-36329059D01*
X6539163Y-36387454D01*
X6370800Y-36473240D01*
X6326100Y-36505717D01*
X6217927Y-36584310D01*
X6217925Y-36584312D01*
X6217924Y-36584312D01*
X6084312Y-36717924D01*
X6084312Y-36717925D01*
X6084310Y-36717927D01*
X6052256Y-36762046D01*
X5973240Y-36870800D01*
X5887454Y-37039163D01*
X5829059Y-37218881D01*
X5799500Y-37405513D01*
X500500Y-37405513D01*
X500500Y-33397648D01*
X5699500Y-33397648D01*
X5699500Y-33602351D01*
X5731522Y-33804534D01*
X5794781Y-33999223D01*
X5848412Y-34104478D01*
X5882891Y-34172147D01*
X5887715Y-34181613D01*
X6008028Y-34347213D01*
X6152786Y-34491971D01*
X6298241Y-34597648D01*
X6318390Y-34612287D01*
X6426726Y-34667487D01*
X6500776Y-34705218D01*
X6500778Y-34705218D01*
X6500781Y-34705220D01*
X6591320Y-34734638D01*
X6695465Y-34768477D01*
X6796557Y-34784488D01*
X6897648Y-34800500D01*
X6897649Y-34800500D01*
X7102351Y-34800500D01*
X7102352Y-34800500D01*
X7304534Y-34768477D01*
X7499219Y-34705220D01*
X7681610Y-34612287D01*
X7774590Y-34544732D01*
X7847213Y-34491971D01*
X7847215Y-34491968D01*
X7847219Y-34491966D01*
X7991966Y-34347219D01*
X7991968Y-34347215D01*
X7991971Y-34347213D01*
X8058852Y-34255157D01*
X8112287Y-34181610D01*
X8139515Y-34128171D01*
X8187490Y-34077376D01*
X8255311Y-34060581D01*
X8321446Y-34083118D01*
X8360484Y-34128171D01*
X8382891Y-34172147D01*
X8387715Y-34181613D01*
X8508028Y-34347213D01*
X8652786Y-34491971D01*
X8798241Y-34597648D01*
X8818390Y-34612287D01*
X8926726Y-34667487D01*
X9000776Y-34705218D01*
X9000778Y-34705218D01*
X9000781Y-34705220D01*
X9091320Y-34734638D01*
X9195465Y-34768477D01*
X9296557Y-34784488D01*
X9397648Y-34800500D01*
X9397649Y-34800500D01*
X9602351Y-34800500D01*
X9602352Y-34800500D01*
X9804534Y-34768477D01*
X9999219Y-34705220D01*
X10181610Y-34612287D01*
X10274590Y-34544732D01*
X10347213Y-34491971D01*
X10347215Y-34491968D01*
X10347219Y-34491966D01*
X10491966Y-34347219D01*
X10491968Y-34347215D01*
X10491971Y-34347213D01*
X10558852Y-34255157D01*
X10612287Y-34181610D01*
X10705220Y-33999219D01*
X10768477Y-33804534D01*
X10800500Y-33602352D01*
X10800500Y-33397648D01*
X10779670Y-33266136D01*
X10788624Y-33196845D01*
X10833620Y-33143393D01*
X10900372Y-33122753D01*
X10967686Y-33141478D01*
X10989823Y-33159058D01*
X16720084Y-38889320D01*
X16857015Y-38968377D01*
X17009743Y-39009301D01*
X17009746Y-39009301D01*
X17175454Y-39009301D01*
X17175470Y-39009300D01*
X61922103Y-39009300D01*
X61989142Y-39028985D01*
X62034897Y-39081789D01*
X62044841Y-39150947D01*
X62015816Y-39214503D01*
X62009784Y-39220981D01*
X61362984Y-39867781D01*
X61301661Y-39901266D01*
X61275303Y-39904100D01*
X46582069Y-39904100D01*
X46582053Y-39904099D01*
X46574457Y-39904099D01*
X46416343Y-39904099D01*
X46301797Y-39934792D01*
X46263614Y-39945023D01*
X46218894Y-39970843D01*
X46218893Y-39970843D01*
X46126687Y-40024077D01*
X46126682Y-40024081D01*
X46014878Y-40135886D01*
X45360830Y-40789933D01*
X45299507Y-40823418D01*
X45253751Y-40824725D01*
X45094486Y-40799500D01*
X45094481Y-40799500D01*
X44905519Y-40799500D01*
X44905514Y-40799500D01*
X44718881Y-40829059D01*
X44539163Y-40887454D01*
X44370800Y-40973240D01*
X44285467Y-41035239D01*
X44217927Y-41084310D01*
X44217925Y-41084312D01*
X44217924Y-41084312D01*
X44084312Y-41217924D01*
X44084312Y-41217925D01*
X44084310Y-41217927D01*
X44023238Y-41301985D01*
X43989526Y-41348386D01*
X43934196Y-41391051D01*
X43889208Y-41399500D01*
X41190792Y-41399500D01*
X41123753Y-41379815D01*
X41090474Y-41348386D01*
X40995690Y-41217927D01*
X40862073Y-41084310D01*
X40709199Y-40973240D01*
X40698528Y-40967803D01*
X40540836Y-40887454D01*
X40361118Y-40829059D01*
X40174486Y-40799500D01*
X40174481Y-40799500D01*
X39985519Y-40799500D01*
X39985514Y-40799500D01*
X39798881Y-40829059D01*
X39619163Y-40887454D01*
X39450800Y-40973240D01*
X39365467Y-41035239D01*
X39297927Y-41084310D01*
X39297925Y-41084312D01*
X39297924Y-41084312D01*
X39164312Y-41217924D01*
X39164312Y-41217925D01*
X39164310Y-41217927D01*
X39151049Y-41236179D01*
X39053240Y-41370800D01*
X38967454Y-41539163D01*
X38909059Y-41718881D01*
X38879500Y-41905513D01*
X38879500Y-42094486D01*
X38909059Y-42281118D01*
X38967454Y-42460836D01*
X39038617Y-42600500D01*
X39053240Y-42629199D01*
X39164310Y-42782073D01*
X39297927Y-42915690D01*
X39450801Y-43026760D01*
X39530347Y-43067290D01*
X39619163Y-43112545D01*
X39619165Y-43112545D01*
X39619168Y-43112547D01*
X39715497Y-43143846D01*
X39798881Y-43170940D01*
X39985514Y-43200500D01*
X39985519Y-43200500D01*
X40174486Y-43200500D01*
X40361118Y-43170940D01*
X40362623Y-43170451D01*
X40540832Y-43112547D01*
X40709199Y-43026760D01*
X40862073Y-42915690D01*
X40995690Y-42782073D01*
X41090475Y-42651613D01*
X41145804Y-42608949D01*
X41190792Y-42600500D01*
X43889208Y-42600500D01*
X43956247Y-42620185D01*
X43989524Y-42651612D01*
X44084310Y-42782073D01*
X44217927Y-42915690D01*
X44370801Y-43026760D01*
X44450347Y-43067290D01*
X44539163Y-43112545D01*
X44539165Y-43112545D01*
X44539168Y-43112547D01*
X44635497Y-43143846D01*
X44718881Y-43170940D01*
X44905514Y-43200500D01*
X44905519Y-43200500D01*
X45094486Y-43200500D01*
X45281118Y-43170940D01*
X45282623Y-43170451D01*
X45460832Y-43112547D01*
X45629199Y-43026760D01*
X45655182Y-43007882D01*
X49425669Y-43007882D01*
X49425670Y-43007883D01*
X49451059Y-43026329D01*
X49619362Y-43112085D01*
X49798997Y-43170451D01*
X49985553Y-43200000D01*
X50174447Y-43200000D01*
X50361002Y-43170451D01*
X50540637Y-43112085D01*
X50708937Y-43026331D01*
X50734328Y-43007883D01*
X50734328Y-43007882D01*
X50080001Y-42353554D01*
X50080000Y-42353554D01*
X49425669Y-43007882D01*
X45655182Y-43007882D01*
X45782073Y-42915690D01*
X45915690Y-42782073D01*
X46026760Y-42629199D01*
X46112547Y-42460832D01*
X46170940Y-42281118D01*
X46181427Y-42214905D01*
X46200500Y-42094486D01*
X46200500Y-41905513D01*
X46175274Y-41746246D01*
X46184228Y-41676953D01*
X46210063Y-41639170D01*
X46707816Y-41141419D01*
X46769139Y-41107934D01*
X46795497Y-41105100D01*
X49003537Y-41105100D01*
X49070576Y-41124785D01*
X49116331Y-41177589D01*
X49126275Y-41246747D01*
X49103855Y-41301985D01*
X49053670Y-41371059D01*
X48967914Y-41539362D01*
X48909548Y-41718997D01*
X48880000Y-41905552D01*
X48880000Y-42094447D01*
X48909548Y-42281002D01*
X48967914Y-42460637D01*
X49053666Y-42628933D01*
X49072116Y-42654328D01*
X49730000Y-41996444D01*
X49730000Y-42046078D01*
X49753852Y-42135095D01*
X49799930Y-42214905D01*
X49865095Y-42280070D01*
X49944905Y-42326148D01*
X50033922Y-42350000D01*
X50126078Y-42350000D01*
X50215095Y-42326148D01*
X50294905Y-42280070D01*
X50360070Y-42214905D01*
X50406148Y-42135095D01*
X50430000Y-42046078D01*
X50430000Y-41996446D01*
X51087882Y-42654328D01*
X51087883Y-42654328D01*
X51106331Y-42628937D01*
X51192085Y-42460637D01*
X51250451Y-42281002D01*
X51280000Y-42094447D01*
X51280000Y-41905552D01*
X51250451Y-41718997D01*
X51192085Y-41539362D01*
X51106329Y-41371059D01*
X51056145Y-41301985D01*
X51032665Y-41236179D01*
X51048491Y-41168125D01*
X51098597Y-41119430D01*
X51156463Y-41105100D01*
X61488731Y-41105100D01*
X61488747Y-41105101D01*
X61496343Y-41105101D01*
X61654454Y-41105101D01*
X61654457Y-41105101D01*
X61807185Y-41064177D01*
X61857304Y-41035239D01*
X61944116Y-40985120D01*
X62055920Y-40873316D01*
X62055920Y-40873314D01*
X62066128Y-40863107D01*
X62066129Y-40863104D01*
X62634520Y-40294714D01*
X62653955Y-40284102D01*
X62670689Y-40269602D01*
X62684020Y-40267685D01*
X62695842Y-40261230D01*
X62717928Y-40262809D01*
X62739847Y-40259658D01*
X62752098Y-40265253D01*
X62765534Y-40266214D01*
X62783260Y-40279484D01*
X62803403Y-40288683D01*
X62810685Y-40300014D01*
X62821467Y-40308086D01*
X62829204Y-40328831D01*
X62841177Y-40347461D01*
X62844328Y-40369379D01*
X62845884Y-40373550D01*
X62846200Y-40382396D01*
X62846200Y-40621534D01*
X62826515Y-40688573D01*
X62825302Y-40690425D01*
X62737309Y-40822114D01*
X62737302Y-40822127D01*
X62676964Y-40967798D01*
X62676961Y-40967810D01*
X62646200Y-41122453D01*
X62646200Y-41280146D01*
X62676961Y-41434789D01*
X62676964Y-41434801D01*
X62737302Y-41580472D01*
X62737309Y-41580485D01*
X62814141Y-41695471D01*
X62835019Y-41762148D01*
X62816535Y-41829529D01*
X62798720Y-41852043D01*
X53489284Y-51161481D01*
X53427961Y-51194966D01*
X53401603Y-51197800D01*
X23720943Y-51197800D01*
X23568216Y-51238723D01*
X23568209Y-51238726D01*
X23431290Y-51317775D01*
X23431282Y-51317781D01*
X23319481Y-51429582D01*
X23319475Y-51429590D01*
X23240426Y-51566509D01*
X23240421Y-51566520D01*
X23216752Y-51654851D01*
X23180386Y-51714511D01*
X23153273Y-51733241D01*
X22961152Y-51831131D01*
X22884553Y-51886783D01*
X22818747Y-51910262D01*
X22750693Y-51894436D01*
X22701999Y-51844330D01*
X22689196Y-51805862D01*
X22660602Y-51625330D01*
X22582780Y-51385815D01*
X22468442Y-51161416D01*
X22320409Y-50957668D01*
X22320409Y-50957667D01*
X22142332Y-50779590D01*
X21938583Y-50631557D01*
X21714184Y-50517219D01*
X21474670Y-50439397D01*
X21350000Y-50419650D01*
X21350000Y-52299998D01*
X21289598Y-52274979D01*
X21164019Y-52250000D01*
X21035981Y-52250000D01*
X20910402Y-52274979D01*
X20850000Y-52299998D01*
X20850000Y-50419650D01*
X20725330Y-50439397D01*
X20725327Y-50439397D01*
X20485815Y-50517219D01*
X20261416Y-50631557D01*
X20057668Y-50779590D01*
X20057667Y-50779590D01*
X19879590Y-50957667D01*
X19879590Y-50957668D01*
X19731557Y-51161416D01*
X19617219Y-51385815D01*
X19539397Y-51625330D01*
X19500000Y-51874071D01*
X19500000Y-52650000D01*
X20499999Y-52650000D01*
X20474979Y-52710402D01*
X20450000Y-52835981D01*
X20450000Y-52964019D01*
X20474979Y-53089598D01*
X20499999Y-53150000D01*
X19500000Y-53150000D01*
X19500000Y-53925928D01*
X19539397Y-54174669D01*
X19617219Y-54414184D01*
X19731557Y-54638583D01*
X19879590Y-54842331D01*
X19879590Y-54842332D01*
X20057667Y-55020409D01*
X20261416Y-55168442D01*
X20485815Y-55282780D01*
X20725329Y-55360602D01*
X20850000Y-55380348D01*
X20850000Y-53500001D01*
X20910402Y-53525021D01*
X21035981Y-53550000D01*
X21164019Y-53550000D01*
X21289598Y-53525021D01*
X21350000Y-53500001D01*
X21350000Y-55380347D01*
X21474668Y-55360602D01*
X21474671Y-55360602D01*
X21714184Y-55282780D01*
X21938587Y-55168440D01*
X22014903Y-55112993D01*
X22080709Y-55089512D01*
X22148763Y-55105337D01*
X22197458Y-55155442D01*
X22210262Y-55193912D01*
X22238909Y-55374785D01*
X22316760Y-55614383D01*
X22360385Y-55700000D01*
X22427871Y-55832449D01*
X22431132Y-55838848D01*
X22579201Y-56042649D01*
X22579205Y-56042654D01*
X22757345Y-56220794D01*
X22757350Y-56220798D01*
X22808098Y-56257668D01*
X22961155Y-56368870D01*
X23088495Y-56433753D01*
X23185616Y-56483239D01*
X23185618Y-56483239D01*
X23185621Y-56483241D01*
X23425215Y-56561090D01*
X23674038Y-56600500D01*
X23674039Y-56600500D01*
X23925961Y-56600500D01*
X23925962Y-56600500D01*
X24174785Y-56561090D01*
X24414379Y-56483241D01*
X24638845Y-56368870D01*
X24668937Y-56347007D01*
X24694324Y-56328563D01*
X24842649Y-56220798D01*
X24842647Y-56220798D01*
X24842656Y-56220793D01*
X25020793Y-56042656D01*
X25168870Y-55838845D01*
X25283241Y-55614379D01*
X25361090Y-55374785D01*
X25400500Y-55125962D01*
X25400500Y-53074038D01*
X25361090Y-52825215D01*
X25283241Y-52585621D01*
X25283239Y-52585618D01*
X25283239Y-52585616D01*
X25279916Y-52579095D01*
X25267020Y-52510426D01*
X25293296Y-52445685D01*
X25350403Y-52405428D01*
X25390401Y-52398800D01*
X28452602Y-52398800D01*
X28519641Y-52418485D01*
X28565396Y-52471289D01*
X28575340Y-52540447D01*
X28546315Y-52604003D01*
X28540283Y-52610481D01*
X28360830Y-52789933D01*
X28299507Y-52823418D01*
X28253751Y-52824725D01*
X28094486Y-52799500D01*
X28094481Y-52799500D01*
X27905519Y-52799500D01*
X27905514Y-52799500D01*
X27718881Y-52829059D01*
X27539163Y-52887454D01*
X27370800Y-52973240D01*
X27322911Y-53008034D01*
X27217927Y-53084310D01*
X27217925Y-53084312D01*
X27217924Y-53084312D01*
X27084312Y-53217924D01*
X27084312Y-53217925D01*
X27084310Y-53217927D01*
X27042481Y-53275500D01*
X26973240Y-53370800D01*
X26887454Y-53539163D01*
X26829059Y-53718881D01*
X26799500Y-53905513D01*
X26799500Y-54094486D01*
X26829059Y-54281118D01*
X26887454Y-54460836D01*
X26964327Y-54611706D01*
X26973240Y-54629199D01*
X27084310Y-54782073D01*
X27217927Y-54915690D01*
X27370801Y-55026760D01*
X27450347Y-55067290D01*
X27539163Y-55112545D01*
X27539165Y-55112545D01*
X27539168Y-55112547D01*
X27610604Y-55135758D01*
X27718881Y-55170940D01*
X27905514Y-55200500D01*
X27905519Y-55200500D01*
X28094486Y-55200500D01*
X28281118Y-55170940D01*
X28288812Y-55168440D01*
X28460832Y-55112547D01*
X28629199Y-55026760D01*
X28655182Y-55007882D01*
X32425669Y-55007882D01*
X32425670Y-55007883D01*
X32451059Y-55026329D01*
X32619362Y-55112085D01*
X32798997Y-55170451D01*
X32985553Y-55200000D01*
X33174447Y-55200000D01*
X33361002Y-55170451D01*
X33540637Y-55112085D01*
X33708937Y-55026331D01*
X33734328Y-55007883D01*
X33734328Y-55007882D01*
X33080001Y-54353554D01*
X33080000Y-54353554D01*
X32425669Y-55007882D01*
X28655182Y-55007882D01*
X28782073Y-54915690D01*
X28915690Y-54782073D01*
X29026760Y-54629199D01*
X29112547Y-54460832D01*
X29170940Y-54281118D01*
X29171106Y-54280070D01*
X29200500Y-54094486D01*
X29200500Y-53905513D01*
X29175274Y-53746246D01*
X29184228Y-53676953D01*
X29210061Y-53639172D01*
X29414117Y-53435116D01*
X29475439Y-53401634D01*
X29501797Y-53398800D01*
X31842915Y-53398800D01*
X31909954Y-53418485D01*
X31955709Y-53471289D01*
X31965653Y-53540447D01*
X31960846Y-53561118D01*
X31909547Y-53718997D01*
X31880000Y-53905552D01*
X31880000Y-54094447D01*
X31909548Y-54281002D01*
X31967914Y-54460637D01*
X32053666Y-54628933D01*
X32072116Y-54654328D01*
X32730000Y-53996444D01*
X32730000Y-54046078D01*
X32753852Y-54135095D01*
X32799930Y-54214905D01*
X32865095Y-54280070D01*
X32944905Y-54326148D01*
X33033922Y-54350000D01*
X33126078Y-54350000D01*
X33215095Y-54326148D01*
X33294905Y-54280070D01*
X33360070Y-54214905D01*
X33406148Y-54135095D01*
X33430000Y-54046078D01*
X33430000Y-53996446D01*
X34087882Y-54654328D01*
X34087883Y-54654328D01*
X34106331Y-54628937D01*
X34192085Y-54460637D01*
X34250451Y-54281002D01*
X34280000Y-54094447D01*
X34280000Y-53905552D01*
X34250452Y-53718997D01*
X34199154Y-53561118D01*
X34197159Y-53491277D01*
X34233239Y-53431444D01*
X34295940Y-53400616D01*
X34317085Y-53398800D01*
X34475500Y-53398800D01*
X34542539Y-53418485D01*
X34588294Y-53471289D01*
X34599500Y-53522800D01*
X34599500Y-54947870D01*
X34599501Y-54947876D01*
X34605908Y-55007483D01*
X34656202Y-55142328D01*
X34656206Y-55142335D01*
X34742452Y-55257544D01*
X34742455Y-55257547D01*
X34857664Y-55343793D01*
X34857671Y-55343797D01*
X34992517Y-55394091D01*
X34992516Y-55394091D01*
X34999444Y-55394835D01*
X35052127Y-55400500D01*
X36947872Y-55400499D01*
X37007483Y-55394091D01*
X37059245Y-55374785D01*
X37142329Y-55343797D01*
X37142329Y-55343796D01*
X37142331Y-55343796D01*
X37158355Y-55331799D01*
X37223819Y-55307381D01*
X37292092Y-55322231D01*
X37320349Y-55343384D01*
X37557439Y-55580474D01*
X37557449Y-55580485D01*
X37561779Y-55584815D01*
X37561780Y-55584816D01*
X37673584Y-55696620D01*
X37747678Y-55739397D01*
X37760395Y-55746739D01*
X37760397Y-55746741D01*
X37798451Y-55768711D01*
X37810515Y-55775677D01*
X37963243Y-55816601D01*
X37963246Y-55816601D01*
X38128953Y-55816601D01*
X38128969Y-55816600D01*
X41545531Y-55816600D01*
X41545547Y-55816601D01*
X41553143Y-55816601D01*
X41711254Y-55816601D01*
X41711257Y-55816601D01*
X41863985Y-55775677D01*
X41914104Y-55746739D01*
X42000916Y-55696620D01*
X42112720Y-55584816D01*
X42112720Y-55584814D01*
X42122928Y-55574607D01*
X42122930Y-55574604D01*
X42561777Y-55135756D01*
X42623098Y-55102273D01*
X42692790Y-55107257D01*
X42748721Y-55149126D01*
X42792454Y-55207546D01*
X42828877Y-55234812D01*
X42907664Y-55293793D01*
X42907671Y-55293797D01*
X42925643Y-55300500D01*
X43042517Y-55344091D01*
X43102127Y-55350500D01*
X43112685Y-55350499D01*
X43179723Y-55370179D01*
X43200372Y-55386818D01*
X43870591Y-56057037D01*
X43807007Y-56074075D01*
X43692993Y-56139901D01*
X43599901Y-56232993D01*
X43534075Y-56347007D01*
X43517037Y-56410591D01*
X42884728Y-55778282D01*
X42884727Y-55778282D01*
X42845380Y-55832439D01*
X42748904Y-56021782D01*
X42683242Y-56223869D01*
X42683242Y-56223872D01*
X42650000Y-56433753D01*
X42650000Y-56646246D01*
X42683242Y-56856127D01*
X42683242Y-56856130D01*
X42748904Y-57058217D01*
X42845375Y-57247550D01*
X42884728Y-57301716D01*
X43517037Y-56669408D01*
X43534075Y-56732993D01*
X43599901Y-56847007D01*
X43692993Y-56940099D01*
X43807007Y-57005925D01*
X43870590Y-57022962D01*
X43238282Y-57655269D01*
X43238282Y-57655270D01*
X43292449Y-57694624D01*
X43481782Y-57791095D01*
X43683870Y-57856757D01*
X43893754Y-57890000D01*
X44106246Y-57890000D01*
X44316127Y-57856757D01*
X44316130Y-57856757D01*
X44518217Y-57791095D01*
X44707554Y-57694622D01*
X44761716Y-57655270D01*
X44761717Y-57655270D01*
X44707065Y-57600618D01*
X44129408Y-57022962D01*
X44192993Y-57005925D01*
X44307007Y-56940099D01*
X44400099Y-56847007D01*
X44465925Y-56732993D01*
X44482962Y-56669409D01*
X45115270Y-57301717D01*
X45115270Y-57301716D01*
X45154622Y-57247554D01*
X45251094Y-57058219D01*
X45253765Y-57050000D01*
X66019652Y-57050000D01*
X67899999Y-57050000D01*
X67874979Y-57110402D01*
X67850000Y-57235981D01*
X67850000Y-57364019D01*
X67874979Y-57489598D01*
X67899999Y-57550000D01*
X66019652Y-57550000D01*
X66039397Y-57674668D01*
X66039397Y-57674671D01*
X66117219Y-57914184D01*
X66231557Y-58138583D01*
X66379590Y-58342331D01*
X66379590Y-58342332D01*
X66557667Y-58520409D01*
X66761416Y-58668442D01*
X66985815Y-58782780D01*
X67225330Y-58860602D01*
X67474072Y-58900000D01*
X68250000Y-58900000D01*
X68250000Y-57900001D01*
X68310402Y-57925021D01*
X68435981Y-57950000D01*
X68564019Y-57950000D01*
X68689598Y-57925021D01*
X68750000Y-57900001D01*
X68750000Y-58900000D01*
X69525928Y-58900000D01*
X69774669Y-58860602D01*
X70014184Y-58782780D01*
X70238583Y-58668442D01*
X70442331Y-58520409D01*
X70442332Y-58520409D01*
X70620409Y-58342332D01*
X70620409Y-58342331D01*
X70768442Y-58138583D01*
X70882780Y-57914184D01*
X70960602Y-57674671D01*
X70960602Y-57674668D01*
X70980348Y-57550000D01*
X69100001Y-57550000D01*
X69125021Y-57489598D01*
X69150000Y-57364019D01*
X69150000Y-57235981D01*
X69125021Y-57110402D01*
X69100001Y-57050000D01*
X70980348Y-57050000D01*
X70960602Y-56925331D01*
X70960602Y-56925328D01*
X70882780Y-56685815D01*
X70768442Y-56461416D01*
X70620409Y-56257668D01*
X70620409Y-56257667D01*
X70442332Y-56079590D01*
X70238583Y-55931557D01*
X70014184Y-55817219D01*
X69774669Y-55739397D01*
X69525928Y-55700000D01*
X68750000Y-55700000D01*
X68750000Y-56699998D01*
X68689598Y-56674979D01*
X68564019Y-56650000D01*
X68435981Y-56650000D01*
X68310402Y-56674979D01*
X68250000Y-56699998D01*
X68250000Y-55700000D01*
X67474072Y-55700000D01*
X67225330Y-55739397D01*
X66985815Y-55817219D01*
X66761416Y-55931557D01*
X66557668Y-56079590D01*
X66557667Y-56079590D01*
X66379590Y-56257667D01*
X66379590Y-56257668D01*
X66231557Y-56461416D01*
X66117219Y-56685815D01*
X66039397Y-56925328D01*
X66039397Y-56925331D01*
X66019652Y-57050000D01*
X45253765Y-57050000D01*
X45254172Y-57048747D01*
X45254173Y-57048745D01*
X45316757Y-56856130D01*
X45316757Y-56856127D01*
X45350000Y-56646246D01*
X45350000Y-56433753D01*
X45316757Y-56223872D01*
X45316757Y-56223869D01*
X45251095Y-56021782D01*
X45154624Y-55832449D01*
X45115270Y-55778282D01*
X45115269Y-55778282D01*
X44482962Y-56410590D01*
X44465925Y-56347007D01*
X44400099Y-56232993D01*
X44307007Y-56139901D01*
X44192993Y-56074075D01*
X44129409Y-56057037D01*
X44799627Y-55386818D01*
X44860950Y-55353333D01*
X44887307Y-55350499D01*
X44897872Y-55350499D01*
X44957483Y-55344091D01*
X45092331Y-55293796D01*
X45207546Y-55207546D01*
X45293796Y-55092331D01*
X45344091Y-54957483D01*
X45350500Y-54897873D01*
X45350500Y-54724500D01*
X45370185Y-54657461D01*
X45422989Y-54611706D01*
X45474500Y-54600500D01*
X50587837Y-54600500D01*
X50654876Y-54620185D01*
X50700631Y-54672989D01*
X50709089Y-54698541D01*
X50709999Y-54702792D01*
X50736271Y-54782074D01*
X50765186Y-54869334D01*
X50857288Y-55018656D01*
X50981344Y-55142712D01*
X51130666Y-55234814D01*
X51297203Y-55289999D01*
X51399991Y-55300500D01*
X52600008Y-55300499D01*
X52702797Y-55289999D01*
X52869334Y-55234814D01*
X53018656Y-55142712D01*
X53142712Y-55018656D01*
X53234814Y-54869334D01*
X53289999Y-54702797D01*
X53300500Y-54600009D01*
X53300499Y-53600097D01*
X53309148Y-53570639D01*
X53315680Y-53540647D01*
X53319422Y-53535650D01*
X53320183Y-53533059D01*
X53336837Y-53512398D01*
X53339136Y-53510100D01*
X53400466Y-53476628D01*
X53426798Y-53473800D01*
X57573203Y-53473800D01*
X57640242Y-53493485D01*
X57660884Y-53510119D01*
X57705922Y-53555157D01*
X57739407Y-53616480D01*
X57736173Y-53681155D01*
X57731522Y-53695468D01*
X57699500Y-53897648D01*
X57699500Y-54102351D01*
X57731522Y-54304534D01*
X57794781Y-54499223D01*
X57837248Y-54582567D01*
X57887585Y-54681359D01*
X57887715Y-54681613D01*
X58008028Y-54847213D01*
X58152786Y-54991971D01*
X58290928Y-55092335D01*
X58318390Y-55112287D01*
X58428596Y-55168440D01*
X58500776Y-55205218D01*
X58500778Y-55205218D01*
X58500781Y-55205220D01*
X58591856Y-55234812D01*
X58695465Y-55268477D01*
X58785770Y-55282780D01*
X58897648Y-55300500D01*
X58897649Y-55300500D01*
X59102351Y-55300500D01*
X59102352Y-55300500D01*
X59304534Y-55268477D01*
X59499219Y-55205220D01*
X59681610Y-55112287D01*
X59799330Y-55026759D01*
X59847213Y-54991971D01*
X59847215Y-54991968D01*
X59847219Y-54991966D01*
X59991966Y-54847219D01*
X59991968Y-54847215D01*
X59991971Y-54847213D01*
X60096895Y-54702795D01*
X60112287Y-54681610D01*
X60139795Y-54627621D01*
X60187769Y-54576826D01*
X60255589Y-54560030D01*
X60321725Y-54582567D01*
X60360765Y-54627621D01*
X60388141Y-54681350D01*
X60388147Y-54681359D01*
X60420523Y-54725921D01*
X60420524Y-54725922D01*
X61100000Y-54046446D01*
X61100000Y-54052661D01*
X61127259Y-54154394D01*
X61179920Y-54245606D01*
X61254394Y-54320080D01*
X61345606Y-54372741D01*
X61447339Y-54400000D01*
X61453553Y-54400000D01*
X60774076Y-55079474D01*
X60818650Y-55111859D01*
X61000968Y-55204755D01*
X61195582Y-55267990D01*
X61397683Y-55300000D01*
X61602317Y-55300000D01*
X61804417Y-55267990D01*
X61999031Y-55204755D01*
X62181349Y-55111859D01*
X62225921Y-55079474D01*
X61546447Y-54400000D01*
X61552661Y-54400000D01*
X61654394Y-54372741D01*
X61745606Y-54320080D01*
X61820080Y-54245606D01*
X61872741Y-54154394D01*
X61900000Y-54052661D01*
X61900000Y-54046447D01*
X62579474Y-54725921D01*
X62611859Y-54681349D01*
X62704755Y-54499031D01*
X62767990Y-54304417D01*
X62800000Y-54102317D01*
X62800000Y-53897682D01*
X62767990Y-53695582D01*
X62704755Y-53500968D01*
X62611859Y-53318650D01*
X62579474Y-53274077D01*
X62579474Y-53274076D01*
X61900000Y-53953551D01*
X61900000Y-53947339D01*
X61872741Y-53845606D01*
X61820080Y-53754394D01*
X61745606Y-53679920D01*
X61654394Y-53627259D01*
X61552661Y-53600000D01*
X61546446Y-53600000D01*
X62135490Y-53010957D01*
X62225922Y-52920524D01*
X62225921Y-52920523D01*
X62181359Y-52888147D01*
X62181350Y-52888141D01*
X61999031Y-52795244D01*
X61804417Y-52732009D01*
X61602317Y-52700000D01*
X61397683Y-52700000D01*
X61195582Y-52732009D01*
X61000968Y-52795244D01*
X60818644Y-52888143D01*
X60774077Y-52920523D01*
X60774077Y-52920524D01*
X61453554Y-53600000D01*
X61447339Y-53600000D01*
X61345606Y-53627259D01*
X61254394Y-53679920D01*
X61179920Y-53754394D01*
X61127259Y-53845606D01*
X61100000Y-53947339D01*
X61100000Y-53953553D01*
X60420524Y-53274077D01*
X60420523Y-53274077D01*
X60388143Y-53318644D01*
X60360765Y-53372378D01*
X60312790Y-53423174D01*
X60244969Y-53439969D01*
X60178834Y-53417431D01*
X60139795Y-53372378D01*
X60112287Y-53318390D01*
X60112285Y-53318387D01*
X60112284Y-53318385D01*
X59991971Y-53152786D01*
X59847213Y-53008028D01*
X59681613Y-52887715D01*
X59681612Y-52887714D01*
X59681610Y-52887713D01*
X59621898Y-52857288D01*
X59499223Y-52794781D01*
X59304534Y-52731522D01*
X59118799Y-52702105D01*
X59102352Y-52699500D01*
X58897648Y-52699500D01*
X58859599Y-52705526D01*
X58695468Y-52731522D01*
X58686717Y-52734365D01*
X58681154Y-52736173D01*
X58611313Y-52738167D01*
X58555157Y-52705922D01*
X58360890Y-52511655D01*
X58360888Y-52511652D01*
X58242017Y-52392781D01*
X58242016Y-52392780D01*
X58155204Y-52342660D01*
X58155204Y-52342659D01*
X58155200Y-52342658D01*
X58105085Y-52313723D01*
X57952357Y-52272799D01*
X57794243Y-52272799D01*
X57786647Y-52272799D01*
X57786631Y-52272800D01*
X54375796Y-52272800D01*
X54308757Y-52253115D01*
X54263002Y-52200311D01*
X54253058Y-52131153D01*
X54282083Y-52067597D01*
X54288115Y-52061119D01*
X58397099Y-47952135D01*
X66399500Y-47952135D01*
X66399500Y-52047870D01*
X66399501Y-52047876D01*
X66405908Y-52107483D01*
X66456202Y-52242328D01*
X66456206Y-52242335D01*
X66542452Y-52357544D01*
X66542455Y-52357547D01*
X66657664Y-52443793D01*
X66657671Y-52443797D01*
X66792517Y-52494091D01*
X66792516Y-52494091D01*
X66799444Y-52494835D01*
X66852127Y-52500500D01*
X69147872Y-52500499D01*
X69207483Y-52494091D01*
X69342331Y-52443796D01*
X69457546Y-52357546D01*
X69543796Y-52242331D01*
X69594091Y-52107483D01*
X69600500Y-52047873D01*
X69600500Y-51874071D01*
X73500000Y-51874071D01*
X73500000Y-52650000D01*
X74499999Y-52650000D01*
X74474979Y-52710402D01*
X74450000Y-52835981D01*
X74450000Y-52964019D01*
X74474979Y-53089598D01*
X74499999Y-53150000D01*
X73500000Y-53150000D01*
X73500000Y-53925928D01*
X73539397Y-54174669D01*
X73617219Y-54414184D01*
X73731557Y-54638583D01*
X73879590Y-54842331D01*
X73879590Y-54842332D01*
X74057667Y-55020409D01*
X74261416Y-55168442D01*
X74485815Y-55282780D01*
X74725329Y-55360602D01*
X74850000Y-55380348D01*
X74850000Y-53500001D01*
X74910402Y-53525021D01*
X75035981Y-53550000D01*
X75164019Y-53550000D01*
X75289598Y-53525021D01*
X75350000Y-53500001D01*
X75350000Y-55380347D01*
X75474668Y-55360602D01*
X75474671Y-55360602D01*
X75714184Y-55282780D01*
X75938587Y-55168440D01*
X76014903Y-55112993D01*
X76080709Y-55089512D01*
X76148763Y-55105337D01*
X76197458Y-55155442D01*
X76210262Y-55193912D01*
X76238909Y-55374785D01*
X76316760Y-55614383D01*
X76360385Y-55700000D01*
X76427871Y-55832449D01*
X76431132Y-55838848D01*
X76579201Y-56042649D01*
X76579205Y-56042654D01*
X76757345Y-56220794D01*
X76757350Y-56220798D01*
X76808098Y-56257668D01*
X76961155Y-56368870D01*
X77088495Y-56433753D01*
X77185616Y-56483239D01*
X77185618Y-56483239D01*
X77185621Y-56483241D01*
X77425215Y-56561090D01*
X77674038Y-56600500D01*
X77674039Y-56600500D01*
X77925961Y-56600500D01*
X77925962Y-56600500D01*
X78174785Y-56561090D01*
X78414379Y-56483241D01*
X78638845Y-56368870D01*
X78842656Y-56220793D01*
X79020793Y-56042656D01*
X79139906Y-55878711D01*
X82149500Y-55878711D01*
X82149500Y-56121288D01*
X82181161Y-56361785D01*
X82243947Y-56596104D01*
X82326379Y-56795112D01*
X82336776Y-56820212D01*
X82458064Y-57030289D01*
X82458066Y-57030292D01*
X82458067Y-57030293D01*
X82605733Y-57222736D01*
X82605739Y-57222743D01*
X82777256Y-57394260D01*
X82777262Y-57394265D01*
X82969711Y-57541936D01*
X83179788Y-57663224D01*
X83403900Y-57756054D01*
X83638211Y-57818838D01*
X83818586Y-57842584D01*
X83878711Y-57850500D01*
X83878712Y-57850500D01*
X84121289Y-57850500D01*
X84169388Y-57844167D01*
X84361789Y-57818838D01*
X84596100Y-57756054D01*
X84820212Y-57663224D01*
X85030289Y-57541936D01*
X85222738Y-57394265D01*
X85394265Y-57222738D01*
X85541936Y-57030289D01*
X85663224Y-56820212D01*
X85756054Y-56596100D01*
X85818838Y-56361789D01*
X85850500Y-56121288D01*
X85850500Y-55878712D01*
X85818838Y-55638211D01*
X85756054Y-55403900D01*
X85663224Y-55179788D01*
X85541936Y-54969711D01*
X85397958Y-54782075D01*
X85394266Y-54777263D01*
X85394260Y-54777256D01*
X85222743Y-54605739D01*
X85222736Y-54605733D01*
X85030293Y-54458067D01*
X85030292Y-54458066D01*
X85030289Y-54458064D01*
X84820212Y-54336776D01*
X84794554Y-54326148D01*
X84596104Y-54243947D01*
X84361785Y-54181161D01*
X84121289Y-54149500D01*
X84121288Y-54149500D01*
X83878712Y-54149500D01*
X83878711Y-54149500D01*
X83638214Y-54181161D01*
X83403895Y-54243947D01*
X83179794Y-54336773D01*
X83179785Y-54336777D01*
X82969706Y-54458067D01*
X82777263Y-54605733D01*
X82777256Y-54605739D01*
X82605739Y-54777256D01*
X82605733Y-54777263D01*
X82458067Y-54969706D01*
X82458064Y-54969710D01*
X82458064Y-54969711D01*
X82445212Y-54991971D01*
X82336777Y-55179785D01*
X82336773Y-55179794D01*
X82243947Y-55403895D01*
X82181161Y-55638214D01*
X82149500Y-55878711D01*
X79139906Y-55878711D01*
X79168870Y-55838845D01*
X79283241Y-55614379D01*
X79361090Y-55374785D01*
X79400500Y-55125962D01*
X79400500Y-53074038D01*
X79361090Y-52825215D01*
X79283241Y-52585621D01*
X79283239Y-52585618D01*
X79283239Y-52585616D01*
X79224986Y-52471289D01*
X79168870Y-52361155D01*
X79106260Y-52274979D01*
X79020798Y-52157350D01*
X79020794Y-52157345D01*
X78842654Y-51979205D01*
X78842649Y-51979201D01*
X78638848Y-51831132D01*
X78638847Y-51831131D01*
X78638845Y-51831130D01*
X78568747Y-51795413D01*
X78414383Y-51716760D01*
X78174785Y-51638910D01*
X78089045Y-51625330D01*
X77925962Y-51599500D01*
X77674038Y-51599500D01*
X77549626Y-51619205D01*
X77425214Y-51638910D01*
X77185616Y-51716760D01*
X76961152Y-51831131D01*
X76884553Y-51886783D01*
X76818747Y-51910262D01*
X76750693Y-51894436D01*
X76701999Y-51844330D01*
X76689196Y-51805862D01*
X76660602Y-51625330D01*
X76582780Y-51385815D01*
X76468442Y-51161416D01*
X76320409Y-50957668D01*
X76320409Y-50957667D01*
X76142332Y-50779590D01*
X75938583Y-50631557D01*
X75714184Y-50517219D01*
X75474670Y-50439397D01*
X75350000Y-50419650D01*
X75350000Y-52299998D01*
X75289598Y-52274979D01*
X75164019Y-52250000D01*
X75035981Y-52250000D01*
X74910402Y-52274979D01*
X74850000Y-52299998D01*
X74850000Y-50419650D01*
X74725330Y-50439397D01*
X74725327Y-50439397D01*
X74485815Y-50517219D01*
X74261416Y-50631557D01*
X74057668Y-50779590D01*
X74057667Y-50779590D01*
X73879590Y-50957667D01*
X73879590Y-50957668D01*
X73731557Y-51161416D01*
X73617219Y-51385815D01*
X73539397Y-51625330D01*
X73500000Y-51874071D01*
X69600500Y-51874071D01*
X69600499Y-47952128D01*
X69594091Y-47892517D01*
X69585444Y-47869334D01*
X69543797Y-47757671D01*
X69543793Y-47757664D01*
X69457547Y-47642455D01*
X69457544Y-47642452D01*
X69342335Y-47556206D01*
X69342328Y-47556202D01*
X69207482Y-47505908D01*
X69207483Y-47505908D01*
X69147883Y-47499501D01*
X69147881Y-47499500D01*
X69147873Y-47499500D01*
X69147864Y-47499500D01*
X66852129Y-47499500D01*
X66852123Y-47499501D01*
X66792516Y-47505908D01*
X66657671Y-47556202D01*
X66657664Y-47556206D01*
X66542455Y-47642452D01*
X66542452Y-47642455D01*
X66456206Y-47757664D01*
X66456202Y-47757671D01*
X66405908Y-47892517D01*
X66400316Y-47944534D01*
X66399501Y-47952123D01*
X66399500Y-47952135D01*
X58397099Y-47952135D01*
X60499234Y-45850000D01*
X70119652Y-45850000D01*
X71999999Y-45850000D01*
X71974979Y-45910402D01*
X71950000Y-46035981D01*
X71950000Y-46164019D01*
X71974979Y-46289598D01*
X71999999Y-46350000D01*
X70119652Y-46350000D01*
X70139397Y-46474668D01*
X70139397Y-46474671D01*
X70217219Y-46714184D01*
X70331557Y-46938583D01*
X70479590Y-47142331D01*
X70479590Y-47142332D01*
X70657667Y-47320409D01*
X70861416Y-47468442D01*
X71085815Y-47582780D01*
X71325330Y-47660602D01*
X71574072Y-47700000D01*
X72350000Y-47700000D01*
X72350000Y-46700001D01*
X72410402Y-46725021D01*
X72535981Y-46750000D01*
X72664019Y-46750000D01*
X72789598Y-46725021D01*
X72850000Y-46700001D01*
X72850000Y-47700000D01*
X73625928Y-47700000D01*
X73874669Y-47660602D01*
X74114184Y-47582780D01*
X74338583Y-47468442D01*
X74542331Y-47320409D01*
X74542332Y-47320409D01*
X74720409Y-47142332D01*
X74720409Y-47142331D01*
X74868442Y-46938583D01*
X74982780Y-46714184D01*
X75060602Y-46474671D01*
X75060602Y-46474668D01*
X75080348Y-46350000D01*
X73200001Y-46350000D01*
X73225021Y-46289598D01*
X73250000Y-46164019D01*
X73250000Y-46035981D01*
X73225021Y-45910402D01*
X73200001Y-45850000D01*
X75080348Y-45850000D01*
X75060602Y-45725331D01*
X75060602Y-45725328D01*
X74982780Y-45485815D01*
X74868442Y-45261416D01*
X74720409Y-45057668D01*
X74720409Y-45057667D01*
X74542332Y-44879590D01*
X74338583Y-44731557D01*
X74114184Y-44617219D01*
X73874669Y-44539397D01*
X73625928Y-44500000D01*
X72850000Y-44500000D01*
X72850000Y-45499998D01*
X72789598Y-45474979D01*
X72664019Y-45450000D01*
X72535981Y-45450000D01*
X72410402Y-45474979D01*
X72350000Y-45499998D01*
X72350000Y-44500000D01*
X71574072Y-44500000D01*
X71325330Y-44539397D01*
X71085815Y-44617219D01*
X70861416Y-44731557D01*
X70657668Y-44879590D01*
X70657667Y-44879590D01*
X70479590Y-45057667D01*
X70479590Y-45057668D01*
X70331557Y-45261416D01*
X70217219Y-45485815D01*
X70139397Y-45725328D01*
X70139397Y-45725331D01*
X70119652Y-45850000D01*
X60499234Y-45850000D01*
X60549852Y-45799382D01*
X64768762Y-41580472D01*
X68943720Y-37405513D01*
X70799500Y-37405513D01*
X70799500Y-37594486D01*
X70829059Y-37781118D01*
X70887454Y-37960836D01*
X70973240Y-38129199D01*
X71084310Y-38282073D01*
X71217927Y-38415690D01*
X71370801Y-38526760D01*
X71450347Y-38567290D01*
X71539163Y-38612545D01*
X71539165Y-38612545D01*
X71539168Y-38612547D01*
X71635497Y-38643846D01*
X71718881Y-38670940D01*
X71905514Y-38700500D01*
X71905519Y-38700500D01*
X72094486Y-38700500D01*
X72281118Y-38670940D01*
X72460832Y-38612547D01*
X72629199Y-38526760D01*
X72782073Y-38415690D01*
X72915690Y-38282073D01*
X73026760Y-38129199D01*
X73112547Y-37960832D01*
X73170940Y-37781118D01*
X73181282Y-37715823D01*
X73200500Y-37594486D01*
X73200500Y-37405513D01*
X73170940Y-37218881D01*
X73112545Y-37039163D01*
X73059708Y-36935465D01*
X73026760Y-36870801D01*
X72915690Y-36717927D01*
X72782073Y-36584310D01*
X72629199Y-36473240D01*
X72460836Y-36387454D01*
X72281118Y-36329059D01*
X72094486Y-36299500D01*
X72094481Y-36299500D01*
X71905519Y-36299500D01*
X71905514Y-36299500D01*
X71718881Y-36329059D01*
X71539163Y-36387454D01*
X71370800Y-36473240D01*
X71326100Y-36505717D01*
X71217927Y-36584310D01*
X71217925Y-36584312D01*
X71217924Y-36584312D01*
X71084312Y-36717924D01*
X71084312Y-36717925D01*
X71084310Y-36717927D01*
X71052256Y-36762046D01*
X70973240Y-36870800D01*
X70887454Y-37039163D01*
X70829059Y-37218881D01*
X70799500Y-37405513D01*
X68943720Y-37405513D01*
X71555158Y-34794075D01*
X71616479Y-34760592D01*
X71681151Y-34763825D01*
X71695466Y-34768477D01*
X71897648Y-34800500D01*
X71897649Y-34800500D01*
X72102351Y-34800500D01*
X72102352Y-34800500D01*
X72304534Y-34768477D01*
X72499219Y-34705220D01*
X72681610Y-34612287D01*
X72832497Y-34502661D01*
X72898303Y-34479182D01*
X72966357Y-34495008D01*
X72993063Y-34515299D01*
X75843181Y-37365417D01*
X75876666Y-37426740D01*
X75879500Y-37453098D01*
X75879500Y-37594486D01*
X75909059Y-37781118D01*
X75967454Y-37960836D01*
X76053240Y-38129199D01*
X76164310Y-38282073D01*
X76297927Y-38415690D01*
X76450801Y-38526760D01*
X76530347Y-38567290D01*
X76619163Y-38612545D01*
X76619165Y-38612545D01*
X76619168Y-38612547D01*
X76715497Y-38643846D01*
X76798881Y-38670940D01*
X76985514Y-38700500D01*
X76985519Y-38700500D01*
X77174486Y-38700500D01*
X77361118Y-38670940D01*
X77540832Y-38612547D01*
X77709199Y-38526760D01*
X77862073Y-38415690D01*
X77995690Y-38282073D01*
X78106760Y-38129199D01*
X78192547Y-37960832D01*
X78250940Y-37781118D01*
X78261282Y-37715823D01*
X78280500Y-37594486D01*
X78280500Y-37405513D01*
X78250940Y-37218881D01*
X78192545Y-37039163D01*
X78139708Y-36935465D01*
X78106760Y-36870801D01*
X77995690Y-36717927D01*
X77862073Y-36584310D01*
X77709199Y-36473240D01*
X77540836Y-36387454D01*
X77361118Y-36329059D01*
X77174486Y-36299500D01*
X77174481Y-36299500D01*
X76985519Y-36299500D01*
X76985514Y-36299500D01*
X76798880Y-36329060D01*
X76798877Y-36329060D01*
X76649561Y-36377576D01*
X76579719Y-36379571D01*
X76523562Y-36347326D01*
X75804408Y-35628172D01*
X75041887Y-34865652D01*
X75008403Y-34804330D01*
X75013387Y-34734638D01*
X75055259Y-34678705D01*
X75073274Y-34667487D01*
X75181610Y-34612287D01*
X75202770Y-34596913D01*
X75347213Y-34491971D01*
X75347215Y-34491968D01*
X75347219Y-34491966D01*
X75491966Y-34347219D01*
X75491968Y-34347215D01*
X75491971Y-34347213D01*
X75558852Y-34255157D01*
X75612287Y-34181610D01*
X75705220Y-33999219D01*
X75768477Y-33804534D01*
X75800500Y-33602352D01*
X75800500Y-33397648D01*
X75788125Y-33319515D01*
X75768477Y-33195465D01*
X75720511Y-33047843D01*
X75705220Y-33000781D01*
X75705218Y-33000778D01*
X75705218Y-33000776D01*
X75639515Y-32871828D01*
X75612287Y-32818390D01*
X75593056Y-32791920D01*
X75491971Y-32652786D01*
X75347213Y-32508028D01*
X75181613Y-32387715D01*
X75181612Y-32387714D01*
X75181610Y-32387713D01*
X75124653Y-32358691D01*
X74999223Y-32294781D01*
X74804534Y-32231522D01*
X74629995Y-32203878D01*
X74602352Y-32199500D01*
X74397648Y-32199500D01*
X74359599Y-32205526D01*
X74195468Y-32231522D01*
X74186717Y-32234365D01*
X74181154Y-32236173D01*
X74111313Y-32238167D01*
X74055157Y-32205922D01*
X72582144Y-30732909D01*
X72548659Y-30671586D01*
X72553643Y-30601894D01*
X72595515Y-30545961D01*
X72613533Y-30534742D01*
X72629199Y-30526760D01*
X72655182Y-30507882D01*
X76425669Y-30507882D01*
X76425670Y-30507883D01*
X76451059Y-30526329D01*
X76619362Y-30612085D01*
X76798997Y-30670451D01*
X76985553Y-30700000D01*
X77174447Y-30700000D01*
X77361002Y-30670451D01*
X77540637Y-30612085D01*
X77708937Y-30526331D01*
X77734328Y-30507883D01*
X77734328Y-30507882D01*
X77080001Y-29853554D01*
X77080000Y-29853554D01*
X76425669Y-30507882D01*
X72655182Y-30507882D01*
X72782073Y-30415690D01*
X72915690Y-30282073D01*
X73026760Y-30129199D01*
X73112547Y-29960832D01*
X73170940Y-29781118D01*
X73178402Y-29734006D01*
X73200500Y-29594486D01*
X73200500Y-29405552D01*
X75880000Y-29405552D01*
X75880000Y-29594447D01*
X75909548Y-29781002D01*
X75967914Y-29960637D01*
X76053666Y-30128933D01*
X76072116Y-30154328D01*
X76726446Y-29500000D01*
X76726446Y-29499999D01*
X76680369Y-29453922D01*
X76730000Y-29453922D01*
X76730000Y-29546078D01*
X76753852Y-29635095D01*
X76799930Y-29714905D01*
X76865095Y-29780070D01*
X76944905Y-29826148D01*
X77033922Y-29850000D01*
X77126078Y-29850000D01*
X77215095Y-29826148D01*
X77294905Y-29780070D01*
X77360070Y-29714905D01*
X77406148Y-29635095D01*
X77430000Y-29546078D01*
X77430000Y-29499999D01*
X77433554Y-29499999D01*
X77433554Y-29500000D01*
X78087882Y-30154328D01*
X78087883Y-30154328D01*
X78106331Y-30128937D01*
X78192085Y-29960637D01*
X78250451Y-29781002D01*
X78280000Y-29594447D01*
X78280000Y-29405552D01*
X78250451Y-29218997D01*
X78192085Y-29039362D01*
X78106329Y-28871059D01*
X78087883Y-28845670D01*
X78087882Y-28845669D01*
X77433554Y-29499999D01*
X77430000Y-29499999D01*
X77430000Y-29453922D01*
X77406148Y-29364905D01*
X77360070Y-29285095D01*
X77294905Y-29219930D01*
X77215095Y-29173852D01*
X77126078Y-29150000D01*
X77033922Y-29150000D01*
X76944905Y-29173852D01*
X76865095Y-29219930D01*
X76799930Y-29285095D01*
X76753852Y-29364905D01*
X76730000Y-29453922D01*
X76680369Y-29453922D01*
X76072116Y-28845669D01*
X76072116Y-28845670D01*
X76053669Y-28871060D01*
X75967914Y-29039362D01*
X75909548Y-29218997D01*
X75880000Y-29405552D01*
X73200500Y-29405552D01*
X73200500Y-29405513D01*
X73170940Y-29218881D01*
X73122543Y-29069932D01*
X73112547Y-29039168D01*
X73112545Y-29039165D01*
X73112545Y-29039163D01*
X73046183Y-28908921D01*
X73026760Y-28870801D01*
X72915690Y-28717927D01*
X72782073Y-28584310D01*
X72655179Y-28492116D01*
X76425669Y-28492116D01*
X77080000Y-29146446D01*
X77080001Y-29146446D01*
X77734328Y-28492116D01*
X77708933Y-28473666D01*
X77540637Y-28387914D01*
X77361002Y-28329548D01*
X77174447Y-28300000D01*
X76985553Y-28300000D01*
X76798997Y-28329548D01*
X76619362Y-28387914D01*
X76451060Y-28473669D01*
X76425670Y-28492116D01*
X76425669Y-28492116D01*
X72655179Y-28492116D01*
X72629199Y-28473240D01*
X72604847Y-28460832D01*
X72460836Y-28387454D01*
X72281118Y-28329059D01*
X72094486Y-28299500D01*
X72094481Y-28299500D01*
X71905519Y-28299500D01*
X71905514Y-28299500D01*
X71718881Y-28329059D01*
X71539163Y-28387454D01*
X71370800Y-28473240D01*
X71291798Y-28530639D01*
X71217927Y-28584310D01*
X71217925Y-28584312D01*
X71217924Y-28584312D01*
X71084312Y-28717924D01*
X71084312Y-28717925D01*
X71084310Y-28717927D01*
X71046487Y-28769985D01*
X70973239Y-28870801D01*
X70965254Y-28886473D01*
X70917278Y-28937267D01*
X70849456Y-28954060D01*
X70783322Y-28931520D01*
X70767090Y-28917855D01*
X67609147Y-25759912D01*
X67575662Y-25698589D01*
X67580646Y-25628897D01*
X67622518Y-25572964D01*
X67640529Y-25561748D01*
X67709199Y-25526760D01*
X67862073Y-25415690D01*
X67872250Y-25405513D01*
X70799500Y-25405513D01*
X70799500Y-25594486D01*
X70829059Y-25781118D01*
X70887454Y-25960836D01*
X70960163Y-26103534D01*
X70973240Y-26129199D01*
X71084310Y-26282073D01*
X71217927Y-26415690D01*
X71370801Y-26526760D01*
X71450347Y-26567290D01*
X71539163Y-26612545D01*
X71539165Y-26612545D01*
X71539168Y-26612547D01*
X71628593Y-26641603D01*
X71718881Y-26670940D01*
X71905514Y-26700500D01*
X71905519Y-26700500D01*
X72094486Y-26700500D01*
X72281118Y-26670940D01*
X72321395Y-26657853D01*
X72460832Y-26612547D01*
X72629199Y-26526760D01*
X72782073Y-26415690D01*
X72915690Y-26282073D01*
X73026760Y-26129199D01*
X73112547Y-25960832D01*
X73170940Y-25781118D01*
X73172942Y-25768477D01*
X73200500Y-25594486D01*
X73200500Y-25405513D01*
X75879500Y-25405513D01*
X75879500Y-25594486D01*
X75909059Y-25781118D01*
X75967454Y-25960836D01*
X76040163Y-26103534D01*
X76053240Y-26129199D01*
X76164310Y-26282073D01*
X76297927Y-26415690D01*
X76450801Y-26526760D01*
X76530347Y-26567290D01*
X76619163Y-26612545D01*
X76619165Y-26612545D01*
X76619168Y-26612547D01*
X76708593Y-26641603D01*
X76798881Y-26670940D01*
X76985514Y-26700500D01*
X76985519Y-26700500D01*
X77174486Y-26700500D01*
X77361118Y-26670940D01*
X77401395Y-26657853D01*
X77540832Y-26612547D01*
X77709199Y-26526760D01*
X77862073Y-26415690D01*
X77995690Y-26282073D01*
X78106760Y-26129199D01*
X78192547Y-25960832D01*
X78250940Y-25781118D01*
X78252942Y-25768477D01*
X78280500Y-25594486D01*
X78280500Y-25405513D01*
X78250940Y-25218881D01*
X78194187Y-25044215D01*
X78192547Y-25039168D01*
X78192545Y-25039165D01*
X78192545Y-25039163D01*
X78142234Y-24940423D01*
X78106760Y-24870801D01*
X77995690Y-24717927D01*
X77862073Y-24584310D01*
X77709199Y-24473240D01*
X77639346Y-24437648D01*
X77540836Y-24387454D01*
X77361118Y-24329059D01*
X77174486Y-24299500D01*
X77174481Y-24299500D01*
X76985519Y-24299500D01*
X76985514Y-24299500D01*
X76798881Y-24329059D01*
X76619163Y-24387454D01*
X76450800Y-24473240D01*
X76363579Y-24536610D01*
X76297927Y-24584310D01*
X76297925Y-24584312D01*
X76297924Y-24584312D01*
X76164312Y-24717924D01*
X76164312Y-24717925D01*
X76164310Y-24717927D01*
X76136429Y-24756302D01*
X76053240Y-24870800D01*
X75967454Y-25039163D01*
X75909059Y-25218881D01*
X75879500Y-25405513D01*
X73200500Y-25405513D01*
X73170940Y-25218881D01*
X73114187Y-25044215D01*
X73112547Y-25039168D01*
X73112545Y-25039165D01*
X73112545Y-25039163D01*
X73062234Y-24940423D01*
X73026760Y-24870801D01*
X72915690Y-24717927D01*
X72782073Y-24584310D01*
X72629199Y-24473240D01*
X72559346Y-24437648D01*
X72460836Y-24387454D01*
X72281118Y-24329059D01*
X72094486Y-24299500D01*
X72094481Y-24299500D01*
X71905519Y-24299500D01*
X71905514Y-24299500D01*
X71718881Y-24329059D01*
X71539163Y-24387454D01*
X71370800Y-24473240D01*
X71283579Y-24536610D01*
X71217927Y-24584310D01*
X71217925Y-24584312D01*
X71217924Y-24584312D01*
X71084312Y-24717924D01*
X71084312Y-24717925D01*
X71084310Y-24717927D01*
X71056429Y-24756302D01*
X70973240Y-24870800D01*
X70887454Y-25039163D01*
X70829059Y-25218881D01*
X70799500Y-25405513D01*
X67872250Y-25405513D01*
X67995690Y-25282073D01*
X68106760Y-25129199D01*
X68192547Y-24960832D01*
X68250940Y-24781118D01*
X68254593Y-24758053D01*
X68280500Y-24594486D01*
X68280500Y-24405513D01*
X68250940Y-24218881D01*
X68217667Y-24116480D01*
X68192547Y-24039168D01*
X68192545Y-24039165D01*
X68192545Y-24039163D01*
X68136209Y-23928599D01*
X68106760Y-23870801D01*
X67995690Y-23717927D01*
X67862073Y-23584310D01*
X67709199Y-23473240D01*
X67663339Y-23449873D01*
X67540836Y-23387454D01*
X67361118Y-23329059D01*
X67174486Y-23299500D01*
X67174481Y-23299500D01*
X66985519Y-23299500D01*
X66985514Y-23299500D01*
X66826247Y-23324725D01*
X66756953Y-23315770D01*
X66719168Y-23289933D01*
X65817590Y-22388355D01*
X65817588Y-22388352D01*
X65698717Y-22269481D01*
X65698716Y-22269480D01*
X65611904Y-22219360D01*
X65611904Y-22219359D01*
X65611900Y-22219358D01*
X65561785Y-22190423D01*
X65409057Y-22149499D01*
X65250943Y-22149499D01*
X65243347Y-22149499D01*
X65243331Y-22149500D01*
X62841894Y-22149500D01*
X62774855Y-22129815D01*
X62729100Y-22077011D01*
X62719156Y-22007853D01*
X62748181Y-21944297D01*
X62769007Y-21925183D01*
X62782073Y-21915690D01*
X62915690Y-21782073D01*
X63026760Y-21629199D01*
X63112547Y-21460832D01*
X63170940Y-21281118D01*
X63200500Y-21094486D01*
X63200500Y-20905513D01*
X65879500Y-20905513D01*
X65879500Y-21094486D01*
X65909059Y-21281118D01*
X65967454Y-21460836D01*
X66038412Y-21600097D01*
X66053240Y-21629199D01*
X66164310Y-21782073D01*
X66297927Y-21915690D01*
X66450801Y-22026760D01*
X66518411Y-22061209D01*
X66619163Y-22112545D01*
X66619165Y-22112545D01*
X66619168Y-22112547D01*
X66712000Y-22142710D01*
X66798881Y-22170940D01*
X66985514Y-22200500D01*
X66985519Y-22200500D01*
X67174486Y-22200500D01*
X67361118Y-22170940D01*
X67370714Y-22167822D01*
X67540832Y-22112547D01*
X67709199Y-22026760D01*
X67862073Y-21915690D01*
X67995690Y-21782073D01*
X68106760Y-21629199D01*
X68192547Y-21460832D01*
X68250940Y-21281118D01*
X68280500Y-21094486D01*
X68280500Y-20905513D01*
X68250940Y-20718881D01*
X68215989Y-20611315D01*
X68192547Y-20539168D01*
X68192545Y-20539165D01*
X68192545Y-20539163D01*
X68148708Y-20453129D01*
X68121629Y-20399983D01*
X70699500Y-20399983D01*
X70699500Y-21600001D01*
X70699501Y-21600018D01*
X70710000Y-21702796D01*
X70710001Y-21702799D01*
X70765185Y-21869331D01*
X70765187Y-21869336D01*
X70776712Y-21888021D01*
X70857288Y-22018656D01*
X70981344Y-22142712D01*
X71130666Y-22234814D01*
X71297203Y-22289999D01*
X71399991Y-22300500D01*
X72600008Y-22300499D01*
X72702797Y-22289999D01*
X72869334Y-22234814D01*
X73018656Y-22142712D01*
X73087524Y-22073843D01*
X73148843Y-22040361D01*
X73218535Y-22045345D01*
X73248082Y-22061206D01*
X73318390Y-22112287D01*
X73384442Y-22145942D01*
X73500776Y-22205218D01*
X73500778Y-22205218D01*
X73500781Y-22205220D01*
X73576123Y-22229700D01*
X73695465Y-22268477D01*
X73796557Y-22284488D01*
X73897648Y-22300500D01*
X73897649Y-22300500D01*
X74102351Y-22300500D01*
X74102352Y-22300500D01*
X74304534Y-22268477D01*
X74499219Y-22205220D01*
X74681610Y-22112287D01*
X74774590Y-22044732D01*
X74847213Y-21991971D01*
X74847215Y-21991968D01*
X74847219Y-21991966D01*
X74991966Y-21847219D01*
X74991968Y-21847215D01*
X74991971Y-21847213D01*
X75047370Y-21770961D01*
X75112287Y-21681610D01*
X75205220Y-21499219D01*
X75268477Y-21304534D01*
X75300500Y-21102352D01*
X75300500Y-20897648D01*
X75270868Y-20710561D01*
X75268477Y-20695465D01*
X75222006Y-20552443D01*
X75205220Y-20500781D01*
X75205218Y-20500778D01*
X75205218Y-20500776D01*
X75171503Y-20434607D01*
X75112287Y-20318390D01*
X75071892Y-20262790D01*
X74991971Y-20152786D01*
X74847213Y-20008028D01*
X74681613Y-19887715D01*
X74681612Y-19887714D01*
X74681610Y-19887713D01*
X74621896Y-19857287D01*
X74499223Y-19794781D01*
X74304534Y-19731522D01*
X74129995Y-19703878D01*
X74102352Y-19699500D01*
X73897648Y-19699500D01*
X73873329Y-19703351D01*
X73695465Y-19731522D01*
X73500776Y-19794781D01*
X73318391Y-19887712D01*
X73318383Y-19887717D01*
X73248085Y-19938790D01*
X73182279Y-19962269D01*
X73114225Y-19946442D01*
X73087521Y-19926153D01*
X73076145Y-19914777D01*
X73018656Y-19857288D01*
X72922037Y-19797693D01*
X72869336Y-19765187D01*
X72869331Y-19765185D01*
X72867862Y-19764698D01*
X72702797Y-19710001D01*
X72702795Y-19710000D01*
X72600010Y-19699500D01*
X71399998Y-19699500D01*
X71399981Y-19699501D01*
X71297203Y-19710000D01*
X71297200Y-19710001D01*
X71130668Y-19765185D01*
X71130663Y-19765187D01*
X70981342Y-19857289D01*
X70857289Y-19981342D01*
X70765187Y-20130663D01*
X70765185Y-20130668D01*
X70739785Y-20207321D01*
X70710001Y-20297203D01*
X70710001Y-20297204D01*
X70710000Y-20297204D01*
X70699500Y-20399983D01*
X68121629Y-20399983D01*
X68106760Y-20370801D01*
X67995690Y-20217927D01*
X67862073Y-20084310D01*
X67709199Y-19973240D01*
X67656605Y-19946442D01*
X67540836Y-19887454D01*
X67361118Y-19829059D01*
X67174486Y-19799500D01*
X67174481Y-19799500D01*
X66985519Y-19799500D01*
X66985514Y-19799500D01*
X66798881Y-19829059D01*
X66619163Y-19887454D01*
X66450800Y-19973240D01*
X66372661Y-20030012D01*
X66297927Y-20084310D01*
X66297925Y-20084312D01*
X66297924Y-20084312D01*
X66164312Y-20217924D01*
X66164312Y-20217925D01*
X66164310Y-20217927D01*
X66116610Y-20283579D01*
X66053240Y-20370800D01*
X65967454Y-20539163D01*
X65909059Y-20718881D01*
X65879500Y-20905513D01*
X63200500Y-20905513D01*
X63170940Y-20718881D01*
X63135989Y-20611315D01*
X63112547Y-20539168D01*
X63112545Y-20539165D01*
X63112545Y-20539163D01*
X63026759Y-20370800D01*
X62992089Y-20323081D01*
X62915690Y-20217927D01*
X62782073Y-20084310D01*
X62629199Y-19973240D01*
X62576605Y-19946442D01*
X62460836Y-19887454D01*
X62281118Y-19829059D01*
X62094486Y-19799500D01*
X62094481Y-19799500D01*
X61905519Y-19799500D01*
X61905514Y-19799500D01*
X61718881Y-19829059D01*
X61539163Y-19887454D01*
X61370800Y-19973240D01*
X61292661Y-20030012D01*
X61217927Y-20084310D01*
X61217925Y-20084312D01*
X61217924Y-20084312D01*
X61084312Y-20217924D01*
X61084312Y-20217925D01*
X61084310Y-20217927D01*
X61036610Y-20283579D01*
X60973240Y-20370800D01*
X60887454Y-20539163D01*
X60829059Y-20718881D01*
X60799500Y-20905513D01*
X60799500Y-21094486D01*
X60829059Y-21281118D01*
X60887454Y-21460836D01*
X60958412Y-21600097D01*
X60973240Y-21629199D01*
X61084310Y-21782073D01*
X61084312Y-21782075D01*
X61217927Y-21915690D01*
X61230993Y-21925183D01*
X61273658Y-21980514D01*
X61279636Y-22050127D01*
X61247029Y-22111922D01*
X61186190Y-22146278D01*
X61158106Y-22149500D01*
X55489047Y-22149500D01*
X55422008Y-22129815D01*
X55376253Y-22077011D01*
X55366309Y-22007853D01*
X55395334Y-21944297D01*
X55401366Y-21937819D01*
X55441537Y-21897648D01*
X55491966Y-21847219D01*
X55491968Y-21847215D01*
X55491971Y-21847213D01*
X55547370Y-21770961D01*
X55612287Y-21681610D01*
X55705220Y-21499219D01*
X55768477Y-21304534D01*
X55800500Y-21102352D01*
X55800500Y-20897648D01*
X55770868Y-20710561D01*
X55768477Y-20695465D01*
X55722006Y-20552443D01*
X55705220Y-20500781D01*
X55705218Y-20500778D01*
X55705218Y-20500776D01*
X55612284Y-20318384D01*
X55606471Y-20310383D01*
X55582993Y-20244576D01*
X55598820Y-20176523D01*
X55648928Y-20127830D01*
X55706791Y-20113501D01*
X55818254Y-20113501D01*
X55818257Y-20113501D01*
X55970985Y-20072577D01*
X56044704Y-20030015D01*
X56107916Y-19993520D01*
X56219720Y-19881716D01*
X56219720Y-19881714D01*
X56229924Y-19871511D01*
X56229927Y-19871506D01*
X56914362Y-19187072D01*
X56975683Y-19153589D01*
X56977850Y-19153138D01*
X57035785Y-19141613D01*
X57133197Y-19122237D01*
X57278879Y-19061894D01*
X57409989Y-18974289D01*
X57513549Y-18870728D01*
X57539225Y-18851026D01*
X57570416Y-18833020D01*
X57682220Y-18721216D01*
X57761277Y-18584284D01*
X57802200Y-18431557D01*
X57802200Y-18273443D01*
X57761277Y-18120716D01*
X57760285Y-18118998D01*
X57682224Y-17983790D01*
X57682218Y-17983782D01*
X57570417Y-17871981D01*
X57570412Y-17871977D01*
X57539224Y-17853971D01*
X57513546Y-17834268D01*
X57440559Y-17761281D01*
X57407075Y-17699957D01*
X57412060Y-17630266D01*
X57453931Y-17574332D01*
X57519396Y-17549916D01*
X57528241Y-17549600D01*
X74668431Y-17549600D01*
X74668447Y-17549601D01*
X74676043Y-17549601D01*
X74834154Y-17549601D01*
X74834157Y-17549601D01*
X74986885Y-17508677D01*
X75037004Y-17479739D01*
X75123816Y-17429620D01*
X75235620Y-17317816D01*
X75235620Y-17317814D01*
X75245828Y-17307607D01*
X75245830Y-17307604D01*
X76578406Y-15975028D01*
X76578411Y-15975024D01*
X76588614Y-15964820D01*
X76588616Y-15964820D01*
X76700420Y-15853016D01*
X76769121Y-15734022D01*
X76779477Y-15716085D01*
X76820401Y-15563357D01*
X76820401Y-15405243D01*
X76820401Y-15397648D01*
X76820400Y-15397630D01*
X76820400Y-13640845D01*
X76820400Y-13640843D01*
X76789627Y-13525995D01*
X76785667Y-13511215D01*
X76785667Y-13511214D01*
X76779479Y-13488120D01*
X76779476Y-13488114D01*
X76746628Y-13431219D01*
X76746628Y-13431218D01*
X76700424Y-13351190D01*
X76700421Y-13351186D01*
X76700420Y-13351184D01*
X76588616Y-13239380D01*
X76588615Y-13239379D01*
X76584285Y-13235049D01*
X76584274Y-13235039D01*
X76373438Y-13024203D01*
X76339953Y-12962880D01*
X76343187Y-12898205D01*
X76366015Y-12827951D01*
X76400500Y-12610222D01*
X76400500Y-12389778D01*
X76366015Y-12172049D01*
X76297895Y-11962394D01*
X76297895Y-11962393D01*
X76253781Y-11875816D01*
X76197815Y-11765978D01*
X76118116Y-11656281D01*
X76068247Y-11587641D01*
X76068243Y-11587636D01*
X75912363Y-11431756D01*
X75912358Y-11431752D01*
X75734025Y-11302187D01*
X75734024Y-11302186D01*
X75734022Y-11302185D01*
X75640595Y-11254581D01*
X75537606Y-11202104D01*
X75537603Y-11202103D01*
X75327952Y-11133985D01*
X75210541Y-11115389D01*
X75110222Y-11099500D01*
X74889778Y-11099500D01*
X74817201Y-11110995D01*
X74672047Y-11133985D01*
X74462396Y-11202103D01*
X74462393Y-11202104D01*
X74265974Y-11302187D01*
X74087641Y-11431752D01*
X74087636Y-11431756D01*
X73931756Y-11587636D01*
X73931752Y-11587641D01*
X73850318Y-11699727D01*
X73794989Y-11742393D01*
X73725375Y-11748372D01*
X73663580Y-11715767D01*
X73649682Y-11699727D01*
X73568247Y-11587641D01*
X73568243Y-11587636D01*
X73412363Y-11431756D01*
X73412358Y-11431752D01*
X73234025Y-11302187D01*
X73234024Y-11302186D01*
X73234022Y-11302185D01*
X73140595Y-11254581D01*
X73037606Y-11202104D01*
X73037603Y-11202103D01*
X72827952Y-11133985D01*
X72710541Y-11115389D01*
X72610222Y-11099500D01*
X72389778Y-11099500D01*
X72353177Y-11105297D01*
X72172045Y-11133985D01*
X72101794Y-11156811D01*
X72031953Y-11158806D01*
X71975796Y-11126561D01*
X70355990Y-9506755D01*
X70355988Y-9506752D01*
X70237117Y-9387881D01*
X70237116Y-9387880D01*
X70150304Y-9337760D01*
X70150304Y-9337759D01*
X70150300Y-9337758D01*
X70100185Y-9308823D01*
X69947457Y-9267899D01*
X69789343Y-9267899D01*
X69781747Y-9267899D01*
X69781731Y-9267900D01*
X39494669Y-9267900D01*
X39494653Y-9267899D01*
X39487057Y-9267899D01*
X39328943Y-9267899D01*
X39221587Y-9296665D01*
X39176210Y-9308824D01*
X39176209Y-9308825D01*
X39126096Y-9337759D01*
X39126095Y-9337760D01*
X39082689Y-9362820D01*
X39039285Y-9387879D01*
X39039282Y-9387881D01*
X38621583Y-9805581D01*
X38560260Y-9839066D01*
X38533902Y-9841900D01*
X21144269Y-9841900D01*
X21144253Y-9841899D01*
X21136657Y-9841899D01*
X20978543Y-9841899D01*
X20898610Y-9863317D01*
X20825816Y-9882822D01*
X20793665Y-9901385D01*
X20793664Y-9901384D01*
X20688887Y-9961877D01*
X20688882Y-9961881D01*
X20577078Y-10073686D01*
X19524202Y-11126561D01*
X19462879Y-11160046D01*
X19398203Y-11156811D01*
X19373584Y-11148812D01*
X19327952Y-11133985D01*
X19210541Y-11115389D01*
X19110222Y-11099500D01*
X18889778Y-11099500D01*
X18817201Y-11110995D01*
X18672047Y-11133985D01*
X18462396Y-11202103D01*
X18462393Y-11202104D01*
X18265974Y-11302187D01*
X18087641Y-11431752D01*
X18087636Y-11431756D01*
X17931756Y-11587636D01*
X17931752Y-11587641D01*
X17850318Y-11699727D01*
X17794989Y-11742393D01*
X17725375Y-11748372D01*
X17663580Y-11715767D01*
X17649682Y-11699727D01*
X17568247Y-11587641D01*
X17568243Y-11587636D01*
X17412363Y-11431756D01*
X17412358Y-11431752D01*
X17234025Y-11302187D01*
X17234024Y-11302186D01*
X17234022Y-11302185D01*
X17140595Y-11254581D01*
X17037606Y-11202104D01*
X17037603Y-11202103D01*
X16827952Y-11133985D01*
X16710541Y-11115389D01*
X16610222Y-11099500D01*
X16389778Y-11099500D01*
X16317201Y-11110995D01*
X16172047Y-11133985D01*
X15962396Y-11202103D01*
X15962393Y-11202104D01*
X15765974Y-11302187D01*
X15587641Y-11431752D01*
X15587635Y-11431757D01*
X15566596Y-11452796D01*
X15505273Y-11486280D01*
X15435581Y-11481294D01*
X15379648Y-11439421D01*
X15362735Y-11408446D01*
X15343797Y-11357671D01*
X15343793Y-11357664D01*
X15257547Y-11242455D01*
X15257544Y-11242452D01*
X15142335Y-11156206D01*
X15142328Y-11156202D01*
X15007482Y-11105908D01*
X15007483Y-11105908D01*
X14947883Y-11099501D01*
X14947881Y-11099500D01*
X14947873Y-11099500D01*
X14947864Y-11099500D01*
X13052129Y-11099500D01*
X13052123Y-11099501D01*
X12992516Y-11105908D01*
X12857671Y-11156202D01*
X12857664Y-11156206D01*
X12742455Y-11242452D01*
X12742452Y-11242455D01*
X12656206Y-11357664D01*
X12656202Y-11357671D01*
X12605908Y-11492517D01*
X12599501Y-11552116D01*
X12599500Y-11552135D01*
X12599500Y-13447870D01*
X12599501Y-13447876D01*
X12605908Y-13507483D01*
X12656202Y-13642328D01*
X12656206Y-13642335D01*
X12742452Y-13757544D01*
X12742455Y-13757547D01*
X12857664Y-13843793D01*
X12857671Y-13843797D01*
X12908446Y-13862735D01*
X12964380Y-13904606D01*
X12988797Y-13970070D01*
X12973945Y-14038343D01*
X12952796Y-14066596D01*
X12931757Y-14087635D01*
X12931752Y-14087641D01*
X12802187Y-14265974D01*
X12702104Y-14462393D01*
X12702103Y-14462396D01*
X12633985Y-14672047D01*
X12599500Y-14889778D01*
X12599500Y-15110221D01*
X12633985Y-15327952D01*
X12702103Y-15537603D01*
X12702104Y-15537606D01*
X12802187Y-15734025D01*
X12931752Y-15912358D01*
X12931756Y-15912363D01*
X13087636Y-16068243D01*
X13087641Y-16068247D01*
X13240922Y-16179611D01*
X13265978Y-16197815D01*
X13366875Y-16249225D01*
X13462393Y-16297895D01*
X13462396Y-16297896D01*
X13557865Y-16328915D01*
X13672049Y-16366015D01*
X13889778Y-16400500D01*
X13889779Y-16400500D01*
X14110221Y-16400500D01*
X14110222Y-16400500D01*
X14327951Y-16366015D01*
X14398205Y-16343187D01*
X14468044Y-16341192D01*
X14524203Y-16373438D01*
X19515139Y-21364374D01*
X19515149Y-21364385D01*
X19519479Y-21368715D01*
X19519480Y-21368716D01*
X19631284Y-21480520D01*
X19631286Y-21480521D01*
X19631290Y-21480524D01*
X19698760Y-21519477D01*
X19768216Y-21559577D01*
X19880019Y-21589534D01*
X19920942Y-21600500D01*
X19920943Y-21600500D01*
X19976940Y-21600500D01*
X19984620Y-21601462D01*
X20009849Y-21612433D01*
X20036247Y-21620185D01*
X20043564Y-21627095D01*
X20048693Y-21629326D01*
X20053434Y-21636417D01*
X20069524Y-21651612D01*
X20164310Y-21782073D01*
X20297927Y-21915690D01*
X20424778Y-22007853D01*
X20454743Y-22029624D01*
X20453636Y-22031146D01*
X20495135Y-22077012D01*
X20506559Y-22145942D01*
X20478904Y-22210105D01*
X20471152Y-22218612D01*
X17826384Y-24863381D01*
X17765061Y-24896866D01*
X17738703Y-24899700D01*
X17297344Y-24899700D01*
X17230305Y-24880015D01*
X17184550Y-24827211D01*
X17174606Y-24758053D01*
X17174871Y-24756302D01*
X17200500Y-24594486D01*
X17200500Y-24405513D01*
X17170940Y-24218881D01*
X17137667Y-24116480D01*
X17112547Y-24039168D01*
X17112545Y-24039165D01*
X17112545Y-24039163D01*
X17056209Y-23928599D01*
X17026760Y-23870801D01*
X16915690Y-23717927D01*
X16782073Y-23584310D01*
X16629199Y-23473240D01*
X16583339Y-23449873D01*
X16460836Y-23387454D01*
X16281118Y-23329059D01*
X16094486Y-23299500D01*
X16094481Y-23299500D01*
X15905519Y-23299500D01*
X15905514Y-23299500D01*
X15718881Y-23329059D01*
X15539163Y-23387454D01*
X15370800Y-23473240D01*
X15283579Y-23536610D01*
X15217927Y-23584310D01*
X15217925Y-23584312D01*
X15217924Y-23584312D01*
X15084312Y-23717924D01*
X15084312Y-23717925D01*
X15084310Y-23717927D01*
X15061631Y-23749142D01*
X14973240Y-23870800D01*
X14887454Y-24039163D01*
X14829059Y-24218881D01*
X14799500Y-24405513D01*
X14799500Y-24594486D01*
X14829059Y-24781118D01*
X14887454Y-24960836D01*
X14958617Y-25100500D01*
X14973240Y-25129199D01*
X15084310Y-25282073D01*
X15217927Y-25415690D01*
X15370801Y-25526760D01*
X15439465Y-25561746D01*
X15539163Y-25612545D01*
X15539165Y-25612545D01*
X15539168Y-25612547D01*
X15589488Y-25628897D01*
X15718881Y-25670940D01*
X15773358Y-25679568D01*
X15836493Y-25709497D01*
X15873425Y-25768808D01*
X15872427Y-25838670D01*
X15841642Y-25889722D01*
X14490681Y-27240682D01*
X14490677Y-27240687D01*
X14449631Y-27311783D01*
X14449631Y-27311784D01*
X14411623Y-27377614D01*
X14397981Y-27428524D01*
X14370699Y-27530343D01*
X14370699Y-27530345D01*
X14370699Y-27698446D01*
X14370700Y-27698459D01*
X14370700Y-28341730D01*
X14370699Y-28341748D01*
X14370699Y-28507454D01*
X14370698Y-28507454D01*
X14411623Y-28660185D01*
X14440558Y-28710300D01*
X14440560Y-28710304D01*
X14490106Y-28796122D01*
X14505335Y-28858900D01*
X14506577Y-28864023D01*
X14502794Y-28874953D01*
X14483725Y-28930049D01*
X14428803Y-28973239D01*
X14359250Y-28979880D01*
X14359249Y-28979879D01*
X14359249Y-28979880D01*
X14297147Y-28947863D01*
X14295037Y-28945802D01*
X12238875Y-26889640D01*
X12205390Y-26828317D01*
X12210374Y-26758625D01*
X12252246Y-26702692D01*
X12307154Y-26679486D01*
X12361118Y-26670940D01*
X12540832Y-26612547D01*
X12709199Y-26526760D01*
X12862073Y-26415690D01*
X12995690Y-26282073D01*
X13106760Y-26129199D01*
X13192547Y-25960832D01*
X13250940Y-25781118D01*
X13252942Y-25768477D01*
X13280500Y-25594486D01*
X13280500Y-25405513D01*
X13250940Y-25218881D01*
X13194187Y-25044215D01*
X13192547Y-25039168D01*
X13192545Y-25039165D01*
X13192545Y-25039163D01*
X13142234Y-24940423D01*
X13106760Y-24870801D01*
X12995690Y-24717927D01*
X12862073Y-24584310D01*
X12709199Y-24473240D01*
X12639346Y-24437648D01*
X12540836Y-24387454D01*
X12361118Y-24329059D01*
X12174486Y-24299500D01*
X12174481Y-24299500D01*
X11985519Y-24299500D01*
X11985514Y-24299500D01*
X11798881Y-24329059D01*
X11619163Y-24387454D01*
X11450800Y-24473240D01*
X11363579Y-24536610D01*
X11297927Y-24584310D01*
X11297925Y-24584312D01*
X11297924Y-24584312D01*
X11164312Y-24717924D01*
X11164312Y-24717925D01*
X11164310Y-24717927D01*
X11136429Y-24756302D01*
X11053240Y-24870800D01*
X10967454Y-25039163D01*
X10909060Y-25218880D01*
X10900513Y-25272842D01*
X10870583Y-25335977D01*
X10811271Y-25372907D01*
X10741409Y-25371909D01*
X10690359Y-25341124D01*
X10487590Y-25138355D01*
X10487588Y-25138352D01*
X10368717Y-25019481D01*
X10368716Y-25019480D01*
X10261948Y-24957838D01*
X10261947Y-24957837D01*
X10231783Y-24940422D01*
X10168699Y-24923519D01*
X10079057Y-24899499D01*
X9920943Y-24899499D01*
X9913347Y-24899499D01*
X9913331Y-24899500D01*
X8110792Y-24899500D01*
X8043753Y-24879815D01*
X8010474Y-24848386D01*
X7915690Y-24717927D01*
X7782073Y-24584310D01*
X7629199Y-24473240D01*
X7559346Y-24437648D01*
X7460836Y-24387454D01*
X7281118Y-24329059D01*
X7094486Y-24299500D01*
X7094481Y-24299500D01*
X6905519Y-24299500D01*
X6905514Y-24299500D01*
X6718881Y-24329059D01*
X6539163Y-24387454D01*
X6370800Y-24473240D01*
X6283579Y-24536610D01*
X6217927Y-24584310D01*
X6217925Y-24584312D01*
X6217924Y-24584312D01*
X6084312Y-24717924D01*
X6084312Y-24717925D01*
X6084310Y-24717927D01*
X6056429Y-24756302D01*
X5973240Y-24870800D01*
X5887454Y-25039163D01*
X5829059Y-25218881D01*
X5799500Y-25405513D01*
X5799500Y-25594486D01*
X5829059Y-25781118D01*
X5887454Y-25960836D01*
X5960163Y-26103534D01*
X5973240Y-26129199D01*
X6084310Y-26282073D01*
X6217927Y-26415690D01*
X6370801Y-26526760D01*
X6450347Y-26567290D01*
X6539163Y-26612545D01*
X6539165Y-26612545D01*
X6539168Y-26612547D01*
X6628593Y-26641603D01*
X6718881Y-26670940D01*
X6905514Y-26700500D01*
X6905519Y-26700500D01*
X7094486Y-26700500D01*
X7281118Y-26670940D01*
X7321395Y-26657853D01*
X7460832Y-26612547D01*
X7629199Y-26526760D01*
X7782073Y-26415690D01*
X7915690Y-26282073D01*
X8010475Y-26151613D01*
X8065804Y-26108949D01*
X8110792Y-26100500D01*
X9699903Y-26100500D01*
X9766942Y-26120185D01*
X9787584Y-26136819D01*
X11792764Y-28141999D01*
X11826249Y-28203322D01*
X11821265Y-28273014D01*
X11779393Y-28328947D01*
X11743402Y-28347611D01*
X11619361Y-28387915D01*
X11451060Y-28473669D01*
X11425670Y-28492116D01*
X11425669Y-28492116D01*
X12083554Y-29150000D01*
X12033922Y-29150000D01*
X11944905Y-29173852D01*
X11865095Y-29219930D01*
X11799930Y-29285095D01*
X11753852Y-29364905D01*
X11730000Y-29453922D01*
X11730000Y-29546078D01*
X11753852Y-29635095D01*
X11799930Y-29714905D01*
X11865095Y-29780070D01*
X11944905Y-29826148D01*
X12033922Y-29850000D01*
X12126078Y-29850000D01*
X12215095Y-29826148D01*
X12294905Y-29780070D01*
X12360070Y-29714905D01*
X12406148Y-29635095D01*
X12430000Y-29546078D01*
X12430000Y-29496446D01*
X13087882Y-30154328D01*
X13087883Y-30154328D01*
X13106331Y-30128937D01*
X13192086Y-29960635D01*
X13232387Y-29836598D01*
X13271823Y-29778922D01*
X13336182Y-29751723D01*
X13405028Y-29763637D01*
X13437999Y-29787234D01*
X14789933Y-31139168D01*
X14823418Y-31200491D01*
X14824725Y-31246247D01*
X14799500Y-31405513D01*
X14799500Y-31594486D01*
X14829059Y-31781118D01*
X14887454Y-31960836D01*
X14972717Y-32128172D01*
X14973240Y-32129199D01*
X15084310Y-32282073D01*
X15217927Y-32415690D01*
X15370801Y-32526760D01*
X15450347Y-32567290D01*
X15539163Y-32612545D01*
X15539165Y-32612545D01*
X15539168Y-32612547D01*
X15635497Y-32643846D01*
X15718881Y-32670940D01*
X15905514Y-32700500D01*
X15905519Y-32700500D01*
X16094486Y-32700500D01*
X16211017Y-32682042D01*
X16253753Y-32675274D01*
X16323045Y-32684228D01*
X16360831Y-32710066D01*
X21247384Y-37596619D01*
X21280869Y-37657942D01*
X21275885Y-37727634D01*
X21234013Y-37783567D01*
X21168549Y-37807984D01*
X21159703Y-37808300D01*
X17388898Y-37808300D01*
X17321859Y-37788615D01*
X17301217Y-37771981D01*
X15941417Y-36412181D01*
X15907932Y-36350858D01*
X15912916Y-36281166D01*
X15954788Y-36225233D01*
X16020252Y-36200816D01*
X16029098Y-36200500D01*
X16094486Y-36200500D01*
X16281118Y-36170940D01*
X16311753Y-36160986D01*
X16460832Y-36112547D01*
X16629199Y-36026760D01*
X16782073Y-35915690D01*
X16915690Y-35782073D01*
X17026760Y-35629199D01*
X17112547Y-35460832D01*
X17170940Y-35281118D01*
X17174415Y-35259175D01*
X17200500Y-35094486D01*
X17200500Y-34905513D01*
X17170940Y-34718881D01*
X17112545Y-34539163D01*
X17057285Y-34430710D01*
X17026760Y-34370801D01*
X16915690Y-34217927D01*
X16782073Y-34084310D01*
X16629199Y-33973240D01*
X16568268Y-33942194D01*
X16460836Y-33887454D01*
X16281118Y-33829059D01*
X16094486Y-33799500D01*
X16094481Y-33799500D01*
X15905519Y-33799500D01*
X15905514Y-33799500D01*
X15718881Y-33829059D01*
X15539163Y-33887454D01*
X15370800Y-33973240D01*
X15291990Y-34030500D01*
X15217927Y-34084310D01*
X15217925Y-34084312D01*
X15217924Y-34084312D01*
X15084312Y-34217924D01*
X15084312Y-34217925D01*
X15084310Y-34217927D01*
X15057261Y-34255157D01*
X14973240Y-34370800D01*
X14887454Y-34539163D01*
X14829059Y-34718881D01*
X14799500Y-34905513D01*
X14799500Y-34970902D01*
X14779815Y-35037941D01*
X14727011Y-35083696D01*
X14657853Y-35093640D01*
X14594297Y-35064615D01*
X14587819Y-35058583D01*
X12339051Y-32809815D01*
X10037117Y-30507882D01*
X11425669Y-30507882D01*
X11425670Y-30507883D01*
X11451059Y-30526329D01*
X11619362Y-30612085D01*
X11798997Y-30670451D01*
X11985553Y-30700000D01*
X12174447Y-30700000D01*
X12361002Y-30670451D01*
X12540637Y-30612085D01*
X12708937Y-30526331D01*
X12734328Y-30507883D01*
X12734328Y-30507882D01*
X12080001Y-29853554D01*
X12080000Y-29853554D01*
X11425669Y-30507882D01*
X10037117Y-30507882D01*
X8934787Y-29405552D01*
X10880000Y-29405552D01*
X10880000Y-29594447D01*
X10909548Y-29781002D01*
X10967914Y-29960637D01*
X11053666Y-30128933D01*
X11072116Y-30154328D01*
X11726446Y-29500000D01*
X11726446Y-29499999D01*
X11072116Y-28845669D01*
X11072116Y-28845670D01*
X11053669Y-28871060D01*
X10967914Y-29039362D01*
X10909548Y-29218997D01*
X10880000Y-29405552D01*
X8934787Y-29405552D01*
X8667589Y-29138354D01*
X8667588Y-29138352D01*
X8548717Y-29019481D01*
X8548716Y-29019480D01*
X8445768Y-28960043D01*
X8445768Y-28960042D01*
X8445765Y-28960042D01*
X8411785Y-28940423D01*
X8259057Y-28899499D01*
X8110792Y-28899499D01*
X8043753Y-28879814D01*
X8010474Y-28848385D01*
X7955779Y-28773105D01*
X7915690Y-28717927D01*
X7782073Y-28584310D01*
X7629199Y-28473240D01*
X7604847Y-28460832D01*
X7460836Y-28387454D01*
X7281118Y-28329059D01*
X7094486Y-28299500D01*
X7094481Y-28299500D01*
X6905519Y-28299500D01*
X6905514Y-28299500D01*
X6718881Y-28329059D01*
X6539163Y-28387454D01*
X6370800Y-28473240D01*
X6291798Y-28530639D01*
X6217927Y-28584310D01*
X6217925Y-28584312D01*
X6217924Y-28584312D01*
X6084312Y-28717924D01*
X6084312Y-28717925D01*
X6084310Y-28717927D01*
X6044221Y-28773104D01*
X5973240Y-28870800D01*
X5887454Y-29039163D01*
X5829059Y-29218881D01*
X5799500Y-29405513D01*
X5799500Y-29594486D01*
X5829059Y-29781118D01*
X5887454Y-29960836D01*
X5941970Y-30067828D01*
X5973240Y-30129199D01*
X6084310Y-30282073D01*
X6217927Y-30415690D01*
X6370801Y-30526760D01*
X6450347Y-30567290D01*
X6539163Y-30612545D01*
X6539165Y-30612545D01*
X6539168Y-30612547D01*
X6633345Y-30643147D01*
X6718881Y-30670940D01*
X6905514Y-30700500D01*
X6905519Y-30700500D01*
X7094486Y-30700500D01*
X7281118Y-30670940D01*
X7282623Y-30670451D01*
X7460832Y-30612547D01*
X7629199Y-30526760D01*
X7782073Y-30415690D01*
X7915690Y-30282073D01*
X7915694Y-30282067D01*
X7918862Y-30278360D01*
X7920536Y-30279790D01*
X7968586Y-30242700D01*
X8038197Y-30236687D01*
X8100008Y-30269262D01*
X8101313Y-30270548D01*
X9840939Y-32010175D01*
X9874424Y-32071498D01*
X9869440Y-32141190D01*
X9827568Y-32197123D01*
X9762104Y-32221540D01*
X9733860Y-32220329D01*
X9642898Y-32205922D01*
X9602352Y-32199500D01*
X9397648Y-32199500D01*
X9373329Y-32203351D01*
X9195465Y-32231522D01*
X9000776Y-32294781D01*
X8818386Y-32387715D01*
X8652786Y-32508028D01*
X8508028Y-32652786D01*
X8387713Y-32818388D01*
X8360484Y-32871828D01*
X8312510Y-32922623D01*
X8244688Y-32939418D01*
X8178554Y-32916880D01*
X8139516Y-32871828D01*
X8112286Y-32818388D01*
X7991971Y-32652786D01*
X7847213Y-32508028D01*
X7681613Y-32387715D01*
X7681612Y-32387714D01*
X7681610Y-32387713D01*
X7624653Y-32358691D01*
X7499223Y-32294781D01*
X7304534Y-32231522D01*
X7129995Y-32203878D01*
X7102352Y-32199500D01*
X6897648Y-32199500D01*
X6873329Y-32203351D01*
X6695465Y-32231522D01*
X6500776Y-32294781D01*
X6318386Y-32387715D01*
X6152786Y-32508028D01*
X6008028Y-32652786D01*
X5887715Y-32818386D01*
X5794781Y-33000776D01*
X5731522Y-33195465D01*
X5699500Y-33397648D01*
X500500Y-33397648D01*
X500500Y-20399983D01*
X5699500Y-20399983D01*
X5699500Y-21600001D01*
X5699501Y-21600018D01*
X5710000Y-21702796D01*
X5710001Y-21702799D01*
X5765185Y-21869331D01*
X5765187Y-21869336D01*
X5776712Y-21888021D01*
X5857288Y-22018656D01*
X5981344Y-22142712D01*
X6130666Y-22234814D01*
X6297203Y-22289999D01*
X6399991Y-22300500D01*
X7600008Y-22300499D01*
X7702797Y-22289999D01*
X7869334Y-22234814D01*
X8018656Y-22142712D01*
X8087524Y-22073843D01*
X8148843Y-22040361D01*
X8218535Y-22045345D01*
X8248082Y-22061206D01*
X8318390Y-22112287D01*
X8384442Y-22145942D01*
X8500776Y-22205218D01*
X8500778Y-22205218D01*
X8500781Y-22205220D01*
X8576123Y-22229700D01*
X8695465Y-22268477D01*
X8796557Y-22284488D01*
X8897648Y-22300500D01*
X8897649Y-22300500D01*
X9102351Y-22300500D01*
X9102352Y-22300500D01*
X9304534Y-22268477D01*
X9499219Y-22205220D01*
X9681610Y-22112287D01*
X9774590Y-22044732D01*
X9847213Y-21991971D01*
X9847215Y-21991968D01*
X9847219Y-21991966D01*
X9991966Y-21847219D01*
X9991968Y-21847215D01*
X9991971Y-21847213D01*
X10047370Y-21770961D01*
X10112287Y-21681610D01*
X10205220Y-21499219D01*
X10268477Y-21304534D01*
X10300500Y-21102352D01*
X10300500Y-20905513D01*
X14799500Y-20905513D01*
X14799500Y-21094486D01*
X14829059Y-21281118D01*
X14887454Y-21460836D01*
X14958412Y-21600097D01*
X14973240Y-21629199D01*
X15084310Y-21782073D01*
X15217927Y-21915690D01*
X15370801Y-22026760D01*
X15438411Y-22061209D01*
X15539163Y-22112545D01*
X15539165Y-22112545D01*
X15539168Y-22112547D01*
X15632000Y-22142710D01*
X15718881Y-22170940D01*
X15905514Y-22200500D01*
X15905519Y-22200500D01*
X16094486Y-22200500D01*
X16281118Y-22170940D01*
X16290714Y-22167822D01*
X16460832Y-22112547D01*
X16629199Y-22026760D01*
X16782073Y-21915690D01*
X16915690Y-21782073D01*
X17026760Y-21629199D01*
X17112547Y-21460832D01*
X17170940Y-21281118D01*
X17200500Y-21094486D01*
X17200500Y-20905513D01*
X17170940Y-20718881D01*
X17135989Y-20611315D01*
X17112547Y-20539168D01*
X17112545Y-20539165D01*
X17112545Y-20539163D01*
X17026759Y-20370800D01*
X16992089Y-20323081D01*
X16915690Y-20217927D01*
X16782073Y-20084310D01*
X16629199Y-19973240D01*
X16576605Y-19946442D01*
X16460836Y-19887454D01*
X16281118Y-19829059D01*
X16094486Y-19799500D01*
X16094481Y-19799500D01*
X15905519Y-19799500D01*
X15905514Y-19799500D01*
X15718881Y-19829059D01*
X15539163Y-19887454D01*
X15370800Y-19973240D01*
X15292661Y-20030012D01*
X15217927Y-20084310D01*
X15217925Y-20084312D01*
X15217924Y-20084312D01*
X15084312Y-20217924D01*
X15084312Y-20217925D01*
X15084310Y-20217927D01*
X15036610Y-20283579D01*
X14973240Y-20370800D01*
X14887454Y-20539163D01*
X14829059Y-20718881D01*
X14799500Y-20905513D01*
X10300500Y-20905513D01*
X10300500Y-20897648D01*
X10270868Y-20710561D01*
X10268477Y-20695465D01*
X10222006Y-20552443D01*
X10205220Y-20500781D01*
X10205218Y-20500778D01*
X10205218Y-20500776D01*
X10171503Y-20434607D01*
X10112287Y-20318390D01*
X10071892Y-20262790D01*
X9991971Y-20152786D01*
X9847213Y-20008028D01*
X9681613Y-19887715D01*
X9681612Y-19887714D01*
X9681610Y-19887713D01*
X9621896Y-19857287D01*
X9499223Y-19794781D01*
X9304534Y-19731522D01*
X9129995Y-19703878D01*
X9102352Y-19699500D01*
X8897648Y-19699500D01*
X8873329Y-19703351D01*
X8695465Y-19731522D01*
X8500776Y-19794781D01*
X8318391Y-19887712D01*
X8318383Y-19887717D01*
X8248085Y-19938790D01*
X8182279Y-19962269D01*
X8114225Y-19946442D01*
X8087521Y-19926153D01*
X8076145Y-19914777D01*
X8018656Y-19857288D01*
X7922037Y-19797693D01*
X7869336Y-19765187D01*
X7869331Y-19765185D01*
X7867862Y-19764698D01*
X7702797Y-19710001D01*
X7702795Y-19710000D01*
X7600010Y-19699500D01*
X6399998Y-19699500D01*
X6399981Y-19699501D01*
X6297203Y-19710000D01*
X6297200Y-19710001D01*
X6130668Y-19765185D01*
X6130663Y-19765187D01*
X5981342Y-19857289D01*
X5857289Y-19981342D01*
X5765187Y-20130663D01*
X5765185Y-20130668D01*
X5739785Y-20207321D01*
X5710001Y-20297203D01*
X5710001Y-20297204D01*
X5710000Y-20297204D01*
X5699500Y-20399983D01*
X500500Y-20399983D01*
X500500Y-3878711D01*
X2149500Y-3878711D01*
X2149500Y-4121288D01*
X2181161Y-4361785D01*
X2243947Y-4596104D01*
X2302507Y-4737480D01*
X2336776Y-4820212D01*
X2458064Y-5030289D01*
X2458066Y-5030292D01*
X2458067Y-5030293D01*
X2605733Y-5222736D01*
X2605739Y-5222743D01*
X2777256Y-5394260D01*
X2777262Y-5394265D01*
X2969711Y-5541936D01*
X3179788Y-5663224D01*
X3403900Y-5756054D01*
X3638211Y-5818838D01*
X3818586Y-5842584D01*
X3878711Y-5850500D01*
X3878712Y-5850500D01*
X4121289Y-5850500D01*
X4169388Y-5844167D01*
X4361789Y-5818838D01*
X4596100Y-5756054D01*
X4820212Y-5663224D01*
X5030289Y-5541936D01*
X5222738Y-5394265D01*
X5394265Y-5222738D01*
X5541936Y-5030289D01*
X5639644Y-4861054D01*
X9630000Y-4861054D01*
X9630000Y-5138945D01*
X9630001Y-5138961D01*
X9666273Y-5414477D01*
X9738201Y-5682916D01*
X9844547Y-5939657D01*
X9844551Y-5939667D01*
X9983501Y-6180335D01*
X10084493Y-6311951D01*
X10084494Y-6311951D01*
X10959521Y-5436923D01*
X11050924Y-5573717D01*
X11176283Y-5699076D01*
X11313075Y-5790477D01*
X10438047Y-6665504D01*
X10438047Y-6665505D01*
X10569664Y-6766498D01*
X10810332Y-6905448D01*
X10810342Y-6905452D01*
X11067083Y-7011798D01*
X11335522Y-7083726D01*
X11611038Y-7119998D01*
X11611055Y-7120000D01*
X11888945Y-7120000D01*
X11888961Y-7119998D01*
X12164477Y-7083726D01*
X12432916Y-7011798D01*
X12689657Y-6905452D01*
X12689666Y-6905448D01*
X12930329Y-6766501D01*
X12930336Y-6766496D01*
X13061951Y-6665504D01*
X12186924Y-5790477D01*
X12323717Y-5699076D01*
X12449076Y-5573717D01*
X12540477Y-5436924D01*
X13415504Y-6311951D01*
X13516496Y-6180336D01*
X13516501Y-6180329D01*
X13655448Y-5939666D01*
X13655452Y-5939657D01*
X13761798Y-5682916D01*
X13833726Y-5414477D01*
X13869998Y-5138961D01*
X13870000Y-5138945D01*
X13870000Y-4861054D01*
X19130000Y-4861054D01*
X19130000Y-5138945D01*
X19130001Y-5138961D01*
X19166273Y-5414477D01*
X19238201Y-5682916D01*
X19344547Y-5939657D01*
X19344551Y-5939667D01*
X19483501Y-6180335D01*
X19584493Y-6311951D01*
X19584494Y-6311951D01*
X20459521Y-5436923D01*
X20550924Y-5573717D01*
X20676283Y-5699076D01*
X20813075Y-5790477D01*
X19938047Y-6665504D01*
X19938047Y-6665505D01*
X20069664Y-6766498D01*
X20310332Y-6905448D01*
X20310342Y-6905452D01*
X20567083Y-7011798D01*
X20835522Y-7083726D01*
X21111038Y-7119998D01*
X21111055Y-7120000D01*
X21388945Y-7120000D01*
X21388961Y-7119998D01*
X21664477Y-7083726D01*
X21932916Y-7011798D01*
X22189657Y-6905452D01*
X22189666Y-6905448D01*
X22430329Y-6766501D01*
X22430336Y-6766496D01*
X22561951Y-6665504D01*
X21686924Y-5790477D01*
X21823717Y-5699076D01*
X21949076Y-5573717D01*
X22040477Y-5436924D01*
X22915504Y-6311951D01*
X23016496Y-6180336D01*
X23016501Y-6180329D01*
X23155448Y-5939666D01*
X23155452Y-5939657D01*
X23261798Y-5682916D01*
X23333726Y-5414477D01*
X23369998Y-5138961D01*
X23370000Y-5138945D01*
X23370000Y-4861054D01*
X23630000Y-4861054D01*
X23630000Y-5138945D01*
X23630001Y-5138961D01*
X23666273Y-5414477D01*
X23738201Y-5682916D01*
X23844547Y-5939657D01*
X23844551Y-5939667D01*
X23983501Y-6180335D01*
X24084493Y-6311951D01*
X24084494Y-6311951D01*
X24959521Y-5436923D01*
X25050924Y-5573717D01*
X25176283Y-5699076D01*
X25313075Y-5790477D01*
X24438047Y-6665504D01*
X24438047Y-6665505D01*
X24569664Y-6766498D01*
X24810332Y-6905448D01*
X24810342Y-6905452D01*
X25067083Y-7011798D01*
X25335522Y-7083726D01*
X25611038Y-7119998D01*
X25611055Y-7120000D01*
X25888945Y-7120000D01*
X25888961Y-7119998D01*
X26164477Y-7083726D01*
X26432916Y-7011798D01*
X26689657Y-6905452D01*
X26689666Y-6905448D01*
X26930329Y-6766501D01*
X26930336Y-6766496D01*
X27061951Y-6665504D01*
X26186924Y-5790477D01*
X26323717Y-5699076D01*
X26449076Y-5573717D01*
X26540477Y-5436924D01*
X27415504Y-6311951D01*
X27516496Y-6180336D01*
X27516501Y-6180329D01*
X27655448Y-5939666D01*
X27655452Y-5939657D01*
X27761798Y-5682916D01*
X27833726Y-5414477D01*
X27869998Y-5138961D01*
X27870000Y-5138945D01*
X27870000Y-4861054D01*
X33130000Y-4861054D01*
X33130000Y-5138945D01*
X33130001Y-5138961D01*
X33166273Y-5414477D01*
X33238201Y-5682916D01*
X33344547Y-5939657D01*
X33344551Y-5939667D01*
X33483501Y-6180335D01*
X33584493Y-6311951D01*
X33584494Y-6311951D01*
X34459521Y-5436923D01*
X34550924Y-5573717D01*
X34676283Y-5699076D01*
X34813075Y-5790477D01*
X33938047Y-6665504D01*
X33938047Y-6665505D01*
X34069664Y-6766498D01*
X34310332Y-6905448D01*
X34310342Y-6905452D01*
X34567083Y-7011798D01*
X34835522Y-7083726D01*
X35111038Y-7119998D01*
X35111055Y-7120000D01*
X35388945Y-7120000D01*
X35388961Y-7119998D01*
X35664477Y-7083726D01*
X35932916Y-7011798D01*
X36189657Y-6905452D01*
X36189666Y-6905448D01*
X36430329Y-6766501D01*
X36430336Y-6766496D01*
X36561951Y-6665504D01*
X35686924Y-5790477D01*
X35823717Y-5699076D01*
X35949076Y-5573717D01*
X36040477Y-5436924D01*
X36915504Y-6311951D01*
X37016496Y-6180336D01*
X37016501Y-6180329D01*
X37155448Y-5939666D01*
X37155452Y-5939657D01*
X37261798Y-5682916D01*
X37333726Y-5414477D01*
X37369998Y-5138961D01*
X37370000Y-5138945D01*
X37370000Y-4861054D01*
X37630000Y-4861054D01*
X37630000Y-5138945D01*
X37630001Y-5138961D01*
X37666273Y-5414477D01*
X37738201Y-5682916D01*
X37844547Y-5939657D01*
X37844551Y-5939667D01*
X37983501Y-6180335D01*
X38084493Y-6311951D01*
X38084494Y-6311951D01*
X38959521Y-5436923D01*
X39050924Y-5573717D01*
X39176283Y-5699076D01*
X39313075Y-5790477D01*
X38438047Y-6665504D01*
X38438047Y-6665505D01*
X38569664Y-6766498D01*
X38810332Y-6905448D01*
X38810342Y-6905452D01*
X39067083Y-7011798D01*
X39335522Y-7083726D01*
X39611038Y-7119998D01*
X39611055Y-7120000D01*
X39888945Y-7120000D01*
X39888961Y-7119998D01*
X40164477Y-7083726D01*
X40432916Y-7011798D01*
X40689657Y-6905452D01*
X40689666Y-6905448D01*
X40930329Y-6766501D01*
X40930336Y-6766496D01*
X41061951Y-6665504D01*
X40186924Y-5790477D01*
X40323717Y-5699076D01*
X40449076Y-5573717D01*
X40540477Y-5436924D01*
X41415504Y-6311951D01*
X41516496Y-6180336D01*
X41516501Y-6180329D01*
X41655448Y-5939666D01*
X41655452Y-5939657D01*
X41761798Y-5682916D01*
X41833726Y-5414477D01*
X41869998Y-5138961D01*
X41870000Y-5138945D01*
X41870000Y-4861054D01*
X47130000Y-4861054D01*
X47130000Y-5138945D01*
X47130001Y-5138961D01*
X47166273Y-5414477D01*
X47238201Y-5682916D01*
X47344547Y-5939657D01*
X47344551Y-5939667D01*
X47483501Y-6180335D01*
X47584493Y-6311951D01*
X47584494Y-6311951D01*
X48459521Y-5436923D01*
X48550924Y-5573717D01*
X48676283Y-5699076D01*
X48813075Y-5790477D01*
X47938047Y-6665504D01*
X47938047Y-6665505D01*
X48069664Y-6766498D01*
X48310332Y-6905448D01*
X48310342Y-6905452D01*
X48567083Y-7011798D01*
X48835522Y-7083726D01*
X49111038Y-7119998D01*
X49111055Y-7120000D01*
X49388945Y-7120000D01*
X49388961Y-7119998D01*
X49664477Y-7083726D01*
X49932916Y-7011798D01*
X50189657Y-6905452D01*
X50189666Y-6905448D01*
X50430329Y-6766501D01*
X50430336Y-6766496D01*
X50561951Y-6665504D01*
X49686924Y-5790477D01*
X49823717Y-5699076D01*
X49949076Y-5573717D01*
X50040477Y-5436924D01*
X50915504Y-6311951D01*
X51016496Y-6180336D01*
X51016501Y-6180329D01*
X51155448Y-5939666D01*
X51155452Y-5939657D01*
X51261798Y-5682916D01*
X51333726Y-5414477D01*
X51369998Y-5138961D01*
X51370000Y-5138945D01*
X51370000Y-4861054D01*
X51630000Y-4861054D01*
X51630000Y-5138945D01*
X51630001Y-5138961D01*
X51666273Y-5414477D01*
X51738201Y-5682916D01*
X51844547Y-5939657D01*
X51844551Y-5939667D01*
X51983501Y-6180335D01*
X52084493Y-6311951D01*
X52084494Y-6311951D01*
X52959521Y-5436923D01*
X53050924Y-5573717D01*
X53176283Y-5699076D01*
X53313075Y-5790477D01*
X52438047Y-6665504D01*
X52438047Y-6665505D01*
X52569664Y-6766498D01*
X52810332Y-6905448D01*
X52810342Y-6905452D01*
X53067083Y-7011798D01*
X53335522Y-7083726D01*
X53611038Y-7119998D01*
X53611055Y-7120000D01*
X53888945Y-7120000D01*
X53888961Y-7119998D01*
X54164477Y-7083726D01*
X54432916Y-7011798D01*
X54689657Y-6905452D01*
X54689666Y-6905448D01*
X54930329Y-6766501D01*
X54930336Y-6766496D01*
X55061951Y-6665504D01*
X54186924Y-5790477D01*
X54323717Y-5699076D01*
X54449076Y-5573717D01*
X54540477Y-5436924D01*
X55415504Y-6311951D01*
X55516496Y-6180336D01*
X55516501Y-6180329D01*
X55655448Y-5939666D01*
X55655452Y-5939657D01*
X55761798Y-5682916D01*
X55833726Y-5414477D01*
X55869998Y-5138961D01*
X55870000Y-5138945D01*
X55870000Y-4861054D01*
X61130000Y-4861054D01*
X61130000Y-5138945D01*
X61130001Y-5138961D01*
X61166273Y-5414477D01*
X61238201Y-5682916D01*
X61344547Y-5939657D01*
X61344551Y-5939667D01*
X61483501Y-6180335D01*
X61584493Y-6311951D01*
X61584494Y-6311951D01*
X62459521Y-5436923D01*
X62550924Y-5573717D01*
X62676283Y-5699076D01*
X62813075Y-5790477D01*
X61938047Y-6665504D01*
X61938047Y-6665505D01*
X62069664Y-6766498D01*
X62310332Y-6905448D01*
X62310342Y-6905452D01*
X62567083Y-7011798D01*
X62835522Y-7083726D01*
X63111038Y-7119998D01*
X63111055Y-7120000D01*
X63388945Y-7120000D01*
X63388961Y-7119998D01*
X63664477Y-7083726D01*
X63932916Y-7011798D01*
X64189657Y-6905452D01*
X64189666Y-6905448D01*
X64430329Y-6766501D01*
X64430336Y-6766496D01*
X64561951Y-6665504D01*
X63686924Y-5790477D01*
X63823717Y-5699076D01*
X63949076Y-5573717D01*
X64040477Y-5436924D01*
X64915504Y-6311951D01*
X65016496Y-6180336D01*
X65016501Y-6180329D01*
X65155448Y-5939666D01*
X65155452Y-5939657D01*
X65261798Y-5682916D01*
X65333726Y-5414477D01*
X65369998Y-5138961D01*
X65370000Y-5138945D01*
X65370000Y-4861054D01*
X65630000Y-4861054D01*
X65630000Y-5138945D01*
X65630001Y-5138961D01*
X65666273Y-5414477D01*
X65738201Y-5682916D01*
X65844547Y-5939657D01*
X65844551Y-5939667D01*
X65983501Y-6180335D01*
X66084493Y-6311951D01*
X66084494Y-6311951D01*
X66959521Y-5436923D01*
X67050924Y-5573717D01*
X67176283Y-5699076D01*
X67313075Y-5790477D01*
X66438047Y-6665504D01*
X66438047Y-6665505D01*
X66569664Y-6766498D01*
X66810332Y-6905448D01*
X66810342Y-6905452D01*
X67067083Y-7011798D01*
X67335522Y-7083726D01*
X67611038Y-7119998D01*
X67611055Y-7120000D01*
X67888945Y-7120000D01*
X67888961Y-7119998D01*
X68164477Y-7083726D01*
X68432916Y-7011798D01*
X68689657Y-6905452D01*
X68689666Y-6905448D01*
X68930329Y-6766501D01*
X68930336Y-6766496D01*
X69061951Y-6665504D01*
X68186924Y-5790477D01*
X68323717Y-5699076D01*
X68449076Y-5573717D01*
X68540477Y-5436924D01*
X69415504Y-6311951D01*
X69516496Y-6180336D01*
X69516501Y-6180329D01*
X69655448Y-5939666D01*
X69655452Y-5939657D01*
X69761798Y-5682916D01*
X69833726Y-5414477D01*
X69869998Y-5138961D01*
X69870000Y-5138945D01*
X69870000Y-4861054D01*
X75130000Y-4861054D01*
X75130000Y-5138945D01*
X75130001Y-5138961D01*
X75166273Y-5414477D01*
X75238201Y-5682916D01*
X75344547Y-5939657D01*
X75344551Y-5939667D01*
X75483501Y-6180335D01*
X75584493Y-6311951D01*
X75584494Y-6311951D01*
X76459521Y-5436923D01*
X76550924Y-5573717D01*
X76676283Y-5699076D01*
X76813075Y-5790477D01*
X75938047Y-6665504D01*
X75938047Y-6665505D01*
X76069664Y-6766498D01*
X76310332Y-6905448D01*
X76310342Y-6905452D01*
X76567083Y-7011798D01*
X76835522Y-7083726D01*
X77111038Y-7119998D01*
X77111055Y-7120000D01*
X77388945Y-7120000D01*
X77388961Y-7119998D01*
X77664477Y-7083726D01*
X77932916Y-7011798D01*
X78189657Y-6905452D01*
X78189666Y-6905448D01*
X78430329Y-6766501D01*
X78430336Y-6766496D01*
X78561951Y-6665504D01*
X77686924Y-5790477D01*
X77823717Y-5699076D01*
X77949076Y-5573717D01*
X78040477Y-5436924D01*
X78915504Y-6311951D01*
X79016496Y-6180336D01*
X79016501Y-6180329D01*
X79155448Y-5939666D01*
X79155452Y-5939657D01*
X79261798Y-5682916D01*
X79333726Y-5414477D01*
X79369998Y-5138961D01*
X79370000Y-5138945D01*
X79370000Y-4861054D01*
X79369998Y-4861038D01*
X79333726Y-4585522D01*
X79261798Y-4317083D01*
X79155452Y-4060342D01*
X79155448Y-4060332D01*
X79084042Y-3936653D01*
X79050589Y-3878711D01*
X82149500Y-3878711D01*
X82149500Y-4121288D01*
X82181161Y-4361785D01*
X82243947Y-4596104D01*
X82302507Y-4737480D01*
X82336776Y-4820212D01*
X82458064Y-5030289D01*
X82458066Y-5030292D01*
X82458067Y-5030293D01*
X82605733Y-5222736D01*
X82605739Y-5222743D01*
X82777256Y-5394260D01*
X82777262Y-5394265D01*
X82969711Y-5541936D01*
X83179788Y-5663224D01*
X83403900Y-5756054D01*
X83638211Y-5818838D01*
X83818586Y-5842584D01*
X83878711Y-5850500D01*
X83878712Y-5850500D01*
X84121289Y-5850500D01*
X84169388Y-5844167D01*
X84361789Y-5818838D01*
X84596100Y-5756054D01*
X84820212Y-5663224D01*
X85030289Y-5541936D01*
X85222738Y-5394265D01*
X85394265Y-5222738D01*
X85541936Y-5030289D01*
X85663224Y-4820212D01*
X85756054Y-4596100D01*
X85818838Y-4361789D01*
X85850500Y-4121288D01*
X85850500Y-3878712D01*
X85818838Y-3638211D01*
X85756054Y-3403900D01*
X85663224Y-3179788D01*
X85541936Y-2969711D01*
X85394265Y-2777262D01*
X85394260Y-2777256D01*
X85222743Y-2605739D01*
X85222736Y-2605733D01*
X85030293Y-2458067D01*
X85030292Y-2458066D01*
X85030289Y-2458064D01*
X84820212Y-2336776D01*
X84820205Y-2336773D01*
X84596104Y-2243947D01*
X84361785Y-2181161D01*
X84121289Y-2149500D01*
X84121288Y-2149500D01*
X83878712Y-2149500D01*
X83878711Y-2149500D01*
X83638214Y-2181161D01*
X83403895Y-2243947D01*
X83179794Y-2336773D01*
X83179785Y-2336777D01*
X82969706Y-2458067D01*
X82777263Y-2605733D01*
X82777256Y-2605739D01*
X82605739Y-2777256D01*
X82605733Y-2777263D01*
X82458067Y-2969706D01*
X82336777Y-3179785D01*
X82336773Y-3179794D01*
X82243947Y-3403895D01*
X82181161Y-3638214D01*
X82149500Y-3878711D01*
X79050589Y-3878711D01*
X79016498Y-3819664D01*
X78915504Y-3688047D01*
X78040477Y-4563074D01*
X77949076Y-4426283D01*
X77823717Y-4300924D01*
X77686923Y-4209521D01*
X78561951Y-3334494D01*
X78561951Y-3334493D01*
X78430335Y-3233501D01*
X78189667Y-3094551D01*
X78189657Y-3094547D01*
X77932916Y-2988201D01*
X77664477Y-2916273D01*
X77388961Y-2880001D01*
X77388945Y-2880000D01*
X77111055Y-2880000D01*
X77111038Y-2880001D01*
X76835522Y-2916273D01*
X76567083Y-2988201D01*
X76310342Y-3094547D01*
X76310332Y-3094551D01*
X76069673Y-3233495D01*
X76069666Y-3233500D01*
X75938047Y-3334493D01*
X75938047Y-3334494D01*
X76813075Y-4209522D01*
X76676283Y-4300924D01*
X76550924Y-4426283D01*
X76459522Y-4563075D01*
X75584494Y-3688047D01*
X75584493Y-3688047D01*
X75483500Y-3819666D01*
X75483495Y-3819673D01*
X75344551Y-4060332D01*
X75344547Y-4060342D01*
X75238201Y-4317083D01*
X75166273Y-4585522D01*
X75130001Y-4861038D01*
X75130000Y-4861054D01*
X69870000Y-4861054D01*
X69869998Y-4861038D01*
X69833726Y-4585522D01*
X69761798Y-4317083D01*
X69655452Y-4060342D01*
X69655448Y-4060332D01*
X69516498Y-3819664D01*
X69415504Y-3688047D01*
X68540477Y-4563074D01*
X68449076Y-4426283D01*
X68323717Y-4300924D01*
X68186923Y-4209521D01*
X69061951Y-3334494D01*
X69061951Y-3334493D01*
X68930335Y-3233501D01*
X68689667Y-3094551D01*
X68689657Y-3094547D01*
X68432916Y-2988201D01*
X68164477Y-2916273D01*
X67888961Y-2880001D01*
X67888945Y-2880000D01*
X67611055Y-2880000D01*
X67611038Y-2880001D01*
X67335522Y-2916273D01*
X67067083Y-2988201D01*
X66810342Y-3094547D01*
X66810332Y-3094551D01*
X66569673Y-3233495D01*
X66569666Y-3233500D01*
X66438047Y-3334493D01*
X66438047Y-3334494D01*
X67313075Y-4209522D01*
X67176283Y-4300924D01*
X67050924Y-4426283D01*
X66959522Y-4563075D01*
X66084494Y-3688047D01*
X66084493Y-3688047D01*
X65983500Y-3819666D01*
X65983495Y-3819673D01*
X65844551Y-4060332D01*
X65844547Y-4060342D01*
X65738201Y-4317083D01*
X65666273Y-4585522D01*
X65630001Y-4861038D01*
X65630000Y-4861054D01*
X65370000Y-4861054D01*
X65369998Y-4861038D01*
X65333726Y-4585522D01*
X65261798Y-4317083D01*
X65155452Y-4060342D01*
X65155448Y-4060332D01*
X65016498Y-3819664D01*
X64915504Y-3688047D01*
X64040477Y-4563074D01*
X63949076Y-4426283D01*
X63823717Y-4300924D01*
X63686923Y-4209521D01*
X64561951Y-3334494D01*
X64561951Y-3334493D01*
X64430335Y-3233501D01*
X64189667Y-3094551D01*
X64189657Y-3094547D01*
X63932916Y-2988201D01*
X63664477Y-2916273D01*
X63388961Y-2880001D01*
X63388945Y-2880000D01*
X63111055Y-2880000D01*
X63111038Y-2880001D01*
X62835522Y-2916273D01*
X62567083Y-2988201D01*
X62310342Y-3094547D01*
X62310332Y-3094551D01*
X62069673Y-3233495D01*
X62069666Y-3233500D01*
X61938047Y-3334493D01*
X61938047Y-3334494D01*
X62813075Y-4209522D01*
X62676283Y-4300924D01*
X62550924Y-4426283D01*
X62459522Y-4563075D01*
X61584494Y-3688047D01*
X61584493Y-3688047D01*
X61483500Y-3819666D01*
X61483495Y-3819673D01*
X61344551Y-4060332D01*
X61344547Y-4060342D01*
X61238201Y-4317083D01*
X61166273Y-4585522D01*
X61130001Y-4861038D01*
X61130000Y-4861054D01*
X55870000Y-4861054D01*
X55869998Y-4861038D01*
X55833726Y-4585522D01*
X55761798Y-4317083D01*
X55655452Y-4060342D01*
X55655448Y-4060332D01*
X55516498Y-3819664D01*
X55415504Y-3688047D01*
X54540477Y-4563074D01*
X54449076Y-4426283D01*
X54323717Y-4300924D01*
X54186923Y-4209521D01*
X55061951Y-3334494D01*
X55061951Y-3334493D01*
X54930335Y-3233501D01*
X54689667Y-3094551D01*
X54689657Y-3094547D01*
X54432916Y-2988201D01*
X54164477Y-2916273D01*
X53888961Y-2880001D01*
X53888945Y-2880000D01*
X53611055Y-2880000D01*
X53611038Y-2880001D01*
X53335522Y-2916273D01*
X53067083Y-2988201D01*
X52810342Y-3094547D01*
X52810332Y-3094551D01*
X52569673Y-3233495D01*
X52569666Y-3233500D01*
X52438047Y-3334493D01*
X52438047Y-3334494D01*
X53313075Y-4209522D01*
X53176283Y-4300924D01*
X53050924Y-4426283D01*
X52959522Y-4563075D01*
X52084494Y-3688047D01*
X52084493Y-3688047D01*
X51983500Y-3819666D01*
X51983495Y-3819673D01*
X51844551Y-4060332D01*
X51844547Y-4060342D01*
X51738201Y-4317083D01*
X51666273Y-4585522D01*
X51630001Y-4861038D01*
X51630000Y-4861054D01*
X51370000Y-4861054D01*
X51369998Y-4861038D01*
X51333726Y-4585522D01*
X51261798Y-4317083D01*
X51155452Y-4060342D01*
X51155448Y-4060332D01*
X51016498Y-3819664D01*
X50915504Y-3688047D01*
X50040477Y-4563074D01*
X49949076Y-4426283D01*
X49823717Y-4300924D01*
X49686923Y-4209521D01*
X50561951Y-3334494D01*
X50561951Y-3334493D01*
X50430335Y-3233501D01*
X50189667Y-3094551D01*
X50189657Y-3094547D01*
X49932916Y-2988201D01*
X49664477Y-2916273D01*
X49388961Y-2880001D01*
X49388945Y-2880000D01*
X49111055Y-2880000D01*
X49111038Y-2880001D01*
X48835522Y-2916273D01*
X48567083Y-2988201D01*
X48310342Y-3094547D01*
X48310332Y-3094551D01*
X48069673Y-3233495D01*
X48069666Y-3233500D01*
X47938047Y-3334493D01*
X47938047Y-3334494D01*
X48813075Y-4209522D01*
X48676283Y-4300924D01*
X48550924Y-4426283D01*
X48459522Y-4563075D01*
X47584494Y-3688047D01*
X47584493Y-3688047D01*
X47483500Y-3819666D01*
X47483495Y-3819673D01*
X47344551Y-4060332D01*
X47344547Y-4060342D01*
X47238201Y-4317083D01*
X47166273Y-4585522D01*
X47130001Y-4861038D01*
X47130000Y-4861054D01*
X41870000Y-4861054D01*
X41869998Y-4861038D01*
X41833726Y-4585522D01*
X41761798Y-4317083D01*
X41655452Y-4060342D01*
X41655448Y-4060332D01*
X41516498Y-3819664D01*
X41415504Y-3688047D01*
X40540477Y-4563074D01*
X40449076Y-4426283D01*
X40323717Y-4300924D01*
X40186923Y-4209521D01*
X41061951Y-3334494D01*
X41061951Y-3334493D01*
X40930335Y-3233501D01*
X40689667Y-3094551D01*
X40689657Y-3094547D01*
X40432916Y-2988201D01*
X40164477Y-2916273D01*
X39888961Y-2880001D01*
X39888945Y-2880000D01*
X39611055Y-2880000D01*
X39611038Y-2880001D01*
X39335522Y-2916273D01*
X39067083Y-2988201D01*
X38810342Y-3094547D01*
X38810332Y-3094551D01*
X38569673Y-3233495D01*
X38569666Y-3233500D01*
X38438047Y-3334493D01*
X38438047Y-3334494D01*
X39313075Y-4209522D01*
X39176283Y-4300924D01*
X39050924Y-4426283D01*
X38959522Y-4563075D01*
X38084494Y-3688047D01*
X38084493Y-3688047D01*
X37983500Y-3819666D01*
X37983495Y-3819673D01*
X37844551Y-4060332D01*
X37844547Y-4060342D01*
X37738201Y-4317083D01*
X37666273Y-4585522D01*
X37630001Y-4861038D01*
X37630000Y-4861054D01*
X37370000Y-4861054D01*
X37369998Y-4861038D01*
X37333726Y-4585522D01*
X37261798Y-4317083D01*
X37155452Y-4060342D01*
X37155448Y-4060332D01*
X37016498Y-3819664D01*
X36915504Y-3688047D01*
X36040477Y-4563074D01*
X35949076Y-4426283D01*
X35823717Y-4300924D01*
X35686923Y-4209521D01*
X36561951Y-3334494D01*
X36561951Y-3334493D01*
X36430335Y-3233501D01*
X36189667Y-3094551D01*
X36189657Y-3094547D01*
X35932916Y-2988201D01*
X35664477Y-2916273D01*
X35388961Y-2880001D01*
X35388945Y-2880000D01*
X35111055Y-2880000D01*
X35111038Y-2880001D01*
X34835522Y-2916273D01*
X34567083Y-2988201D01*
X34310342Y-3094547D01*
X34310332Y-3094551D01*
X34069673Y-3233495D01*
X34069666Y-3233500D01*
X33938047Y-3334493D01*
X33938047Y-3334494D01*
X34813075Y-4209522D01*
X34676283Y-4300924D01*
X34550924Y-4426283D01*
X34459522Y-4563075D01*
X33584494Y-3688047D01*
X33584493Y-3688047D01*
X33483500Y-3819666D01*
X33483495Y-3819673D01*
X33344551Y-4060332D01*
X33344547Y-4060342D01*
X33238201Y-4317083D01*
X33166273Y-4585522D01*
X33130001Y-4861038D01*
X33130000Y-4861054D01*
X27870000Y-4861054D01*
X27869998Y-4861038D01*
X27833726Y-4585522D01*
X27761798Y-4317083D01*
X27655452Y-4060342D01*
X27655448Y-4060332D01*
X27516498Y-3819664D01*
X27415504Y-3688047D01*
X26540477Y-4563074D01*
X26449076Y-4426283D01*
X26323717Y-4300924D01*
X26186923Y-4209521D01*
X27061951Y-3334494D01*
X27061951Y-3334493D01*
X26930335Y-3233501D01*
X26689667Y-3094551D01*
X26689657Y-3094547D01*
X26432916Y-2988201D01*
X26164477Y-2916273D01*
X25888961Y-2880001D01*
X25888945Y-2880000D01*
X25611055Y-2880000D01*
X25611038Y-2880001D01*
X25335522Y-2916273D01*
X25067083Y-2988201D01*
X24810342Y-3094547D01*
X24810332Y-3094551D01*
X24569673Y-3233495D01*
X24569666Y-3233500D01*
X24438047Y-3334493D01*
X24438047Y-3334494D01*
X25313075Y-4209522D01*
X25176283Y-4300924D01*
X25050924Y-4426283D01*
X24959522Y-4563075D01*
X24084494Y-3688047D01*
X24084493Y-3688047D01*
X23983500Y-3819666D01*
X23983495Y-3819673D01*
X23844551Y-4060332D01*
X23844547Y-4060342D01*
X23738201Y-4317083D01*
X23666273Y-4585522D01*
X23630001Y-4861038D01*
X23630000Y-4861054D01*
X23370000Y-4861054D01*
X23369998Y-4861038D01*
X23333726Y-4585522D01*
X23261798Y-4317083D01*
X23155452Y-4060342D01*
X23155448Y-4060332D01*
X23016498Y-3819664D01*
X22915504Y-3688047D01*
X22040477Y-4563074D01*
X21949076Y-4426283D01*
X21823717Y-4300924D01*
X21686923Y-4209521D01*
X22561951Y-3334494D01*
X22561951Y-3334493D01*
X22430335Y-3233501D01*
X22189667Y-3094551D01*
X22189657Y-3094547D01*
X21932916Y-2988201D01*
X21664477Y-2916273D01*
X21388961Y-2880001D01*
X21388945Y-2880000D01*
X21111055Y-2880000D01*
X21111038Y-2880001D01*
X20835522Y-2916273D01*
X20567083Y-2988201D01*
X20310342Y-3094547D01*
X20310332Y-3094551D01*
X20069673Y-3233495D01*
X20069666Y-3233500D01*
X19938047Y-3334493D01*
X19938047Y-3334494D01*
X20813075Y-4209522D01*
X20676283Y-4300924D01*
X20550924Y-4426283D01*
X20459522Y-4563075D01*
X19584494Y-3688047D01*
X19584493Y-3688047D01*
X19483500Y-3819666D01*
X19483495Y-3819673D01*
X19344551Y-4060332D01*
X19344547Y-4060342D01*
X19238201Y-4317083D01*
X19166273Y-4585522D01*
X19130001Y-4861038D01*
X19130000Y-4861054D01*
X13870000Y-4861054D01*
X13869998Y-4861038D01*
X13833726Y-4585522D01*
X13761798Y-4317083D01*
X13655452Y-4060342D01*
X13655448Y-4060332D01*
X13516498Y-3819664D01*
X13415504Y-3688047D01*
X12540477Y-4563074D01*
X12449076Y-4426283D01*
X12323717Y-4300924D01*
X12186923Y-4209521D01*
X13061951Y-3334494D01*
X13061951Y-3334493D01*
X12930335Y-3233501D01*
X12689667Y-3094551D01*
X12689657Y-3094547D01*
X12432916Y-2988201D01*
X12164477Y-2916273D01*
X11888961Y-2880001D01*
X11888945Y-2880000D01*
X11611055Y-2880000D01*
X11611038Y-2880001D01*
X11335522Y-2916273D01*
X11067083Y-2988201D01*
X10810342Y-3094547D01*
X10810332Y-3094551D01*
X10569673Y-3233495D01*
X10569666Y-3233500D01*
X10438047Y-3334493D01*
X10438047Y-3334494D01*
X11313075Y-4209522D01*
X11176283Y-4300924D01*
X11050924Y-4426283D01*
X10959522Y-4563075D01*
X10084494Y-3688047D01*
X10084493Y-3688047D01*
X9983500Y-3819666D01*
X9983495Y-3819673D01*
X9844551Y-4060332D01*
X9844547Y-4060342D01*
X9738201Y-4317083D01*
X9666273Y-4585522D01*
X9630001Y-4861038D01*
X9630000Y-4861054D01*
X5639644Y-4861054D01*
X5663224Y-4820212D01*
X5756054Y-4596100D01*
X5818838Y-4361789D01*
X5850500Y-4121288D01*
X5850500Y-3878712D01*
X5818838Y-3638211D01*
X5756054Y-3403900D01*
X5663224Y-3179788D01*
X5541936Y-2969711D01*
X5394265Y-2777262D01*
X5394260Y-2777256D01*
X5222743Y-2605739D01*
X5222736Y-2605733D01*
X5030293Y-2458067D01*
X5030292Y-2458066D01*
X5030289Y-2458064D01*
X4820212Y-2336776D01*
X4820205Y-2336773D01*
X4596104Y-2243947D01*
X4361785Y-2181161D01*
X4121289Y-2149500D01*
X4121288Y-2149500D01*
X3878712Y-2149500D01*
X3878711Y-2149500D01*
X3638214Y-2181161D01*
X3403895Y-2243947D01*
X3179794Y-2336773D01*
X3179785Y-2336777D01*
X2969706Y-2458067D01*
X2777263Y-2605733D01*
X2777256Y-2605739D01*
X2605739Y-2777256D01*
X2605733Y-2777263D01*
X2458067Y-2969706D01*
X2336777Y-3179785D01*
X2336773Y-3179794D01*
X2243947Y-3403895D01*
X2181161Y-3638214D01*
X2149500Y-3878711D01*
X500500Y-3878711D01*
X500500Y-1258676D01*
X520185Y-1191637D01*
X536819Y-1170995D01*
X2170995Y463181D01*
X2232318Y496666D01*
X2258676Y499500D01*
X85741324Y499500D01*
X85808363Y479815D01*
G37*
G04 #@! TD.AperFunction*
G04 #@! TD*
M02*
