G04 #@! TF.GenerationSoftware,KiCad,Pcbnew,9.0.2+dfsg-1*
G04 #@! TF.CreationDate,2026-09-14T05:40:24+07:00*
G04 #@! TF.ProjectId,tht_opamp_eq,7468745f-6f70-4616-9d70-5f65712e6b69,rev?*
G04 #@! TF.SameCoordinates,Original*
G04 #@! TF.FileFunction,Other,User*
%FSLAX46Y46*%
G04 Gerber Fmt 4.6, Leading zero omitted, Abs format (unit mm)*
G04 Created by KiCad (PCBNEW 9.0.2+dfsg-1) date 2026-09-14 05:40:24*
%MOMM*%
%LPD*%
G01*
G04 APERTURE LIST*
%ADD10C,0.050000*%
G04 APERTURE END LIST*
G04 #@! TO.C,C_IN_L*
D10*
X5950000Y-31950000D02*
X10550000Y-31950000D01*
X10550000Y-35050000D01*
X5950000Y-35050000D01*
X5950000Y-31950000D01*
G04 #@! TO.C,C_BIAS2*
X44950000Y-45450000D02*
X49550000Y-45450000D01*
X49550000Y-48550000D01*
X44950000Y-48550000D01*
X44950000Y-45450000D01*
G04 #@! TO.C,R_IN_EQ_L*
X15050000Y-23450000D02*
X22030000Y-23450000D01*
X22030000Y-25550000D01*
X15050000Y-25550000D01*
X15050000Y-23450000D01*
G04 #@! TO.C,RV2*
X23880000Y100000D02*
X23880000Y-16150000D01*
X23880000Y-16150000D02*
X37120000Y-16150000D01*
X37120000Y100000D02*
X23880000Y100000D01*
X37120000Y-16150000D02*
X37120000Y100000D01*
G04 #@! TO.C,C_PWR1*
X55750000Y-54000000D02*
G75*
G02*
X50250000Y-54000000I-2750000J0D01*
G01*
X50250000Y-54000000D02*
G75*
G02*
X55750000Y-54000000I2750000J0D01*
G01*
G04 #@! TO.C,C_MID_L1*
X24950000Y-29950000D02*
X29550000Y-29950000D01*
X29550000Y-33050000D01*
X24950000Y-33050000D01*
X24950000Y-29950000D01*
G04 #@! TO.C,R_STAB_R*
X71050000Y-24450000D02*
X78030000Y-24450000D01*
X78030000Y-26550000D01*
X71050000Y-26550000D01*
X71050000Y-24450000D01*
G04 #@! TO.C,C_BASS_L1*
X24950000Y-33450000D02*
X29550000Y-33450000D01*
X29550000Y-36550000D01*
X24950000Y-36550000D01*
X24950000Y-33450000D01*
G04 #@! TO.C,R_IN_L*
X15050000Y-19950000D02*
X22030000Y-19950000D01*
X22030000Y-22050000D01*
X15050000Y-22050000D01*
X15050000Y-19950000D01*
G04 #@! TO.C,R_BIAS1*
X34050000Y-40950000D02*
X41030000Y-40950000D01*
X41030000Y-43050000D01*
X34050000Y-43050000D01*
X34050000Y-40950000D01*
G04 #@! TO.C,R_FB_L*
X15050000Y-30450000D02*
X22030000Y-30450000D01*
X22030000Y-32550000D01*
X15050000Y-32550000D01*
X15050000Y-30450000D01*
G04 #@! TO.C,R_IN_R*
X61050000Y-19950000D02*
X68030000Y-19950000D01*
X68030000Y-22050000D01*
X61050000Y-22050000D01*
X61050000Y-19950000D01*
G04 #@! TO.C,C_PWR2*
X57950000Y-52450000D02*
X62550000Y-52450000D01*
X62550000Y-55550000D01*
X57950000Y-55550000D01*
X57950000Y-52450000D01*
G04 #@! TO.C,C_MID_R1*
X50950000Y-29950000D02*
X55550000Y-29950000D01*
X55550000Y-33050000D01*
X50950000Y-33050000D01*
X50950000Y-29950000D01*
G04 #@! TO.C,R_PULL_R*
X71050000Y-28450000D02*
X78030000Y-28450000D01*
X78030000Y-30550000D01*
X71050000Y-30550000D01*
X71050000Y-28450000D01*
G04 #@! TO.C,RV5*
X65880000Y100000D02*
X65880000Y-16150000D01*
X65880000Y-16150000D02*
X79120000Y-16150000D01*
X79120000Y100000D02*
X65880000Y100000D01*
X79120000Y-16150000D02*
X79120000Y100000D01*
G04 #@! TO.C,R_STAB_L*
X6050000Y-24450000D02*
X13030000Y-24450000D01*
X13030000Y-26550000D01*
X6050000Y-26550000D01*
X6050000Y-24450000D01*
G04 #@! TO.C,U1*
X39130000Y-20470000D02*
X48860000Y-20470000D01*
X48860000Y-38770000D01*
X39130000Y-38770000D01*
X39130000Y-20470000D01*
G04 #@! TO.C,C_IN_R*
X70950000Y-31950000D02*
X75550000Y-31950000D01*
X75550000Y-35050000D01*
X70950000Y-35050000D01*
X70950000Y-31950000D01*
G04 #@! TO.C,R_GND_L*
X15050000Y-33950000D02*
X22030000Y-33950000D01*
X22030000Y-36050000D01*
X15050000Y-36050000D01*
X15050000Y-33950000D01*
G04 #@! TO.C,R_IN_EQ_R*
X61050000Y-23450000D02*
X68030000Y-23450000D01*
X68030000Y-25550000D01*
X61050000Y-25550000D01*
X61050000Y-23450000D01*
G04 #@! TO.C,R_FB_EQ_R*
X61050000Y-26950000D02*
X68030000Y-26950000D01*
X68030000Y-29050000D01*
X61050000Y-29050000D01*
X61050000Y-26950000D01*
G04 #@! TO.C,RV1*
X9880000Y100000D02*
X9880000Y-16150000D01*
X9880000Y-16150000D02*
X23120000Y-16150000D01*
X23120000Y100000D02*
X9880000Y100000D01*
X23120000Y-16150000D02*
X23120000Y100000D01*
G04 #@! TO.C,H1*
X7450000Y-4000000D02*
G75*
G02*
X550000Y-4000000I-3450000J0D01*
G01*
X550000Y-4000000D02*
G75*
G02*
X7450000Y-4000000I3450000J0D01*
G01*
G04 #@! TO.C,J2*
X66000000Y-40200000D02*
X66000000Y-59100000D01*
X66000000Y-59100000D02*
X79400000Y-59100000D01*
X79400000Y-40200000D02*
X66000000Y-40200000D01*
X79400000Y-59100000D02*
X79400000Y-40200000D01*
G04 #@! TO.C,R_BIAS2*
X44050000Y-40950000D02*
X51030000Y-40950000D01*
X51030000Y-43050000D01*
X44050000Y-43050000D01*
X44050000Y-40950000D01*
G04 #@! TO.C,C_TREB_R2*
X50950000Y-22950000D02*
X55550000Y-22950000D01*
X55550000Y-26050000D01*
X50950000Y-26050000D01*
X50950000Y-22950000D01*
G04 #@! TO.C,R_FB_EQ_L*
X15050000Y-26950000D02*
X22030000Y-26950000D01*
X22030000Y-29050000D01*
X15050000Y-29050000D01*
X15050000Y-26950000D01*
G04 #@! TO.C,H4*
X7450000Y-56000000D02*
G75*
G02*
X550000Y-56000000I-3450000J0D01*
G01*
X550000Y-56000000D02*
G75*
G02*
X7450000Y-56000000I3450000J0D01*
G01*
G04 #@! TO.C,R_BASS_R*
X71050000Y-36450000D02*
X78030000Y-36450000D01*
X78030000Y-38550000D01*
X71050000Y-38550000D01*
X71050000Y-36450000D01*
G04 #@! TO.C,H2*
X87450000Y-4000000D02*
G75*
G02*
X80550000Y-4000000I-3450000J0D01*
G01*
X80550000Y-4000000D02*
G75*
G02*
X87450000Y-4000000I3450000J0D01*
G01*
G04 #@! TO.C,J3*
X42230000Y-52230000D02*
X42230000Y-58320000D01*
X42230000Y-58320000D02*
X45770000Y-58320000D01*
X45770000Y-52230000D02*
X42230000Y-52230000D01*
X45770000Y-58320000D02*
X45770000Y-52230000D01*
G04 #@! TO.C,C_TREB_L2*
X24950000Y-22950000D02*
X29550000Y-22950000D01*
X29550000Y-26050000D01*
X24950000Y-26050000D01*
X24950000Y-22950000D01*
G04 #@! TO.C,C_OUT_L*
X10750000Y-21000000D02*
G75*
G02*
X5250000Y-21000000I-2750000J0D01*
G01*
X5250000Y-21000000D02*
G75*
G02*
X10750000Y-21000000I2750000J0D01*
G01*
G04 #@! TO.C,RV4*
X51880000Y100000D02*
X51880000Y-16150000D01*
X51880000Y-16150000D02*
X65120000Y-16150000D01*
X65120000Y100000D02*
X51880000Y100000D01*
X65120000Y-16150000D02*
X65120000Y100000D01*
G04 #@! TO.C,R_TREB_R*
X51050000Y-26950000D02*
X58030000Y-26950000D01*
X58030000Y-29050000D01*
X51050000Y-29050000D01*
X51050000Y-26950000D01*
G04 #@! TO.C,C_BIAS1*
X39750000Y-47000000D02*
G75*
G02*
X34250000Y-47000000I-2750000J0D01*
G01*
X34250000Y-47000000D02*
G75*
G02*
X39750000Y-47000000I2750000J0D01*
G01*
G04 #@! TO.C,R_FB_R*
X61050000Y-30450000D02*
X68030000Y-30450000D01*
X68030000Y-32550000D01*
X61050000Y-32550000D01*
X61050000Y-30450000D01*
G04 #@! TO.C,R_PWR*
X27050000Y-52950000D02*
X34030000Y-52950000D01*
X34030000Y-55050000D01*
X27050000Y-55050000D01*
X27050000Y-52950000D01*
G04 #@! TO.C,D1*
X34850000Y-51790000D02*
X34850000Y-56210000D01*
X34850000Y-56210000D02*
X39690000Y-56210000D01*
X39690000Y-51790000D02*
X34850000Y-51790000D01*
X39690000Y-56210000D02*
X39690000Y-51790000D01*
G04 #@! TO.C,R_PULL_L*
X6050000Y-28450000D02*
X13030000Y-28450000D01*
X13030000Y-30550000D01*
X6050000Y-30550000D01*
X6050000Y-28450000D01*
G04 #@! TO.C,C_TREB_R1*
X50950000Y-19450000D02*
X55550000Y-19450000D01*
X55550000Y-22550000D01*
X50950000Y-22550000D01*
X50950000Y-19450000D01*
G04 #@! TO.C,H3*
X87450000Y-56000000D02*
G75*
G02*
X80550000Y-56000000I-3450000J0D01*
G01*
X80550000Y-56000000D02*
G75*
G02*
X87450000Y-56000000I3450000J0D01*
G01*
G04 #@! TO.C,C_BASS_R1*
X50950000Y-33450000D02*
X55550000Y-33450000D01*
X55550000Y-36550000D01*
X50950000Y-36550000D01*
X50950000Y-33450000D01*
G04 #@! TO.C,R_BASS_L*
X6050000Y-36450000D02*
X13030000Y-36450000D01*
X13030000Y-38550000D01*
X6050000Y-38550000D01*
X6050000Y-36450000D01*
G04 #@! TO.C,R_TREB_L*
X25050000Y-26950000D02*
X32030000Y-26950000D01*
X32030000Y-29050000D01*
X25050000Y-29050000D01*
X25050000Y-26950000D01*
G04 #@! TO.C,RV3*
X37880000Y100000D02*
X37880000Y-16150000D01*
X37880000Y-16150000D02*
X51120000Y-16150000D01*
X51120000Y100000D02*
X37880000Y100000D01*
X51120000Y-16150000D02*
X51120000Y100000D01*
G04 #@! TO.C,R_GND_R*
X61050000Y-33950000D02*
X68030000Y-33950000D01*
X68030000Y-36050000D01*
X61050000Y-36050000D01*
X61050000Y-33950000D01*
G04 #@! TO.C,J1*
X12000000Y-40200000D02*
X12000000Y-59100000D01*
X12000000Y-59100000D02*
X25400000Y-59100000D01*
X25400000Y-40200000D02*
X12000000Y-40200000D01*
X25400000Y-59100000D02*
X25400000Y-40200000D01*
G04 #@! TO.C,C_OUT_R*
X75750000Y-21000000D02*
G75*
G02*
X70250000Y-21000000I-2750000J0D01*
G01*
X70250000Y-21000000D02*
G75*
G02*
X75750000Y-21000000I2750000J0D01*
G01*
G04 #@! TO.C,C_TREB_L1*
X24950000Y-19450000D02*
X29550000Y-19450000D01*
X29550000Y-22550000D01*
X24950000Y-22550000D01*
X24950000Y-19450000D01*
G04 #@! TD*
M02*
