G04 #@! TF.GenerationSoftware,KiCad,Pcbnew,9.0.2+dfsg-1*
G04 #@! TF.CreationDate,2026-09-14T12:34:58+07:00*
G04 #@! TF.ProjectId,esp32c3_controller,65737033-3263-4335-9f63-6f6e74726f6c,rev?*
G04 #@! TF.SameCoordinates,Original*
G04 #@! TF.FileFunction,Other,Comment*
%FSLAX46Y46*%
G04 Gerber Fmt 4.6, Leading zero omitted, Abs format (unit mm)*
G04 Created by KiCad (PCBNEW 9.0.2+dfsg-1) date 2026-09-14 12:34:58*
%MOMM*%
%LPD*%
G01*
G04 APERTURE LIST*
%ADD10C,0.040000*%
%ADD11C,0.100000*%
%ADD12C,0.150000*%
G04 APERTURE END LIST*
D10*
X33971428Y-26340443D02*
X33971428Y-26140443D01*
X33971428Y-26140443D02*
X34019047Y-26140443D01*
X34019047Y-26140443D02*
X34047618Y-26149967D01*
X34047618Y-26149967D02*
X34066666Y-26169015D01*
X34066666Y-26169015D02*
X34076189Y-26188062D01*
X34076189Y-26188062D02*
X34085713Y-26226158D01*
X34085713Y-26226158D02*
X34085713Y-26254729D01*
X34085713Y-26254729D02*
X34076189Y-26292824D01*
X34076189Y-26292824D02*
X34066666Y-26311872D01*
X34066666Y-26311872D02*
X34047618Y-26330920D01*
X34047618Y-26330920D02*
X34019047Y-26340443D01*
X34019047Y-26340443D02*
X33971428Y-26340443D01*
X34171428Y-26340443D02*
X34171428Y-26207110D01*
X34171428Y-26140443D02*
X34161904Y-26149967D01*
X34161904Y-26149967D02*
X34171428Y-26159491D01*
X34171428Y-26159491D02*
X34180951Y-26149967D01*
X34180951Y-26149967D02*
X34171428Y-26140443D01*
X34171428Y-26140443D02*
X34171428Y-26159491D01*
X34266666Y-26340443D02*
X34266666Y-26207110D01*
X34266666Y-26245205D02*
X34276189Y-26226158D01*
X34276189Y-26226158D02*
X34285713Y-26216634D01*
X34285713Y-26216634D02*
X34304761Y-26207110D01*
X34304761Y-26207110D02*
X34323808Y-26207110D01*
X34466666Y-26330920D02*
X34447618Y-26340443D01*
X34447618Y-26340443D02*
X34409523Y-26340443D01*
X34409523Y-26340443D02*
X34390476Y-26330920D01*
X34390476Y-26330920D02*
X34380952Y-26311872D01*
X34380952Y-26311872D02*
X34380952Y-26235681D01*
X34380952Y-26235681D02*
X34390476Y-26216634D01*
X34390476Y-26216634D02*
X34409523Y-26207110D01*
X34409523Y-26207110D02*
X34447618Y-26207110D01*
X34447618Y-26207110D02*
X34466666Y-26216634D01*
X34466666Y-26216634D02*
X34476190Y-26235681D01*
X34476190Y-26235681D02*
X34476190Y-26254729D01*
X34476190Y-26254729D02*
X34380952Y-26273777D01*
X34647619Y-26330920D02*
X34628571Y-26340443D01*
X34628571Y-26340443D02*
X34590476Y-26340443D01*
X34590476Y-26340443D02*
X34571428Y-26330920D01*
X34571428Y-26330920D02*
X34561905Y-26321396D01*
X34561905Y-26321396D02*
X34552381Y-26302348D01*
X34552381Y-26302348D02*
X34552381Y-26245205D01*
X34552381Y-26245205D02*
X34561905Y-26226158D01*
X34561905Y-26226158D02*
X34571428Y-26216634D01*
X34571428Y-26216634D02*
X34590476Y-26207110D01*
X34590476Y-26207110D02*
X34628571Y-26207110D01*
X34628571Y-26207110D02*
X34647619Y-26216634D01*
X34704762Y-26207110D02*
X34780953Y-26207110D01*
X34733334Y-26140443D02*
X34733334Y-26311872D01*
X34733334Y-26311872D02*
X34742857Y-26330920D01*
X34742857Y-26330920D02*
X34761905Y-26340443D01*
X34761905Y-26340443D02*
X34780953Y-26340443D01*
X34876191Y-26340443D02*
X34857143Y-26330920D01*
X34857143Y-26330920D02*
X34847620Y-26311872D01*
X34847620Y-26311872D02*
X34847620Y-26140443D01*
X34933334Y-26207110D02*
X34980953Y-26340443D01*
X35028572Y-26207110D02*
X34980953Y-26340443D01*
X34980953Y-26340443D02*
X34961905Y-26388062D01*
X34961905Y-26388062D02*
X34952382Y-26397586D01*
X34952382Y-26397586D02*
X34933334Y-26407110D01*
X35323810Y-26235681D02*
X35352382Y-26245205D01*
X35352382Y-26245205D02*
X35361905Y-26254729D01*
X35361905Y-26254729D02*
X35371429Y-26273777D01*
X35371429Y-26273777D02*
X35371429Y-26302348D01*
X35371429Y-26302348D02*
X35361905Y-26321396D01*
X35361905Y-26321396D02*
X35352382Y-26330920D01*
X35352382Y-26330920D02*
X35333334Y-26340443D01*
X35333334Y-26340443D02*
X35257144Y-26340443D01*
X35257144Y-26340443D02*
X35257144Y-26140443D01*
X35257144Y-26140443D02*
X35323810Y-26140443D01*
X35323810Y-26140443D02*
X35342858Y-26149967D01*
X35342858Y-26149967D02*
X35352382Y-26159491D01*
X35352382Y-26159491D02*
X35361905Y-26178539D01*
X35361905Y-26178539D02*
X35361905Y-26197586D01*
X35361905Y-26197586D02*
X35352382Y-26216634D01*
X35352382Y-26216634D02*
X35342858Y-26226158D01*
X35342858Y-26226158D02*
X35323810Y-26235681D01*
X35323810Y-26235681D02*
X35257144Y-26235681D01*
X35533334Y-26330920D02*
X35514286Y-26340443D01*
X35514286Y-26340443D02*
X35476191Y-26340443D01*
X35476191Y-26340443D02*
X35457144Y-26330920D01*
X35457144Y-26330920D02*
X35447620Y-26311872D01*
X35447620Y-26311872D02*
X35447620Y-26235681D01*
X35447620Y-26235681D02*
X35457144Y-26216634D01*
X35457144Y-26216634D02*
X35476191Y-26207110D01*
X35476191Y-26207110D02*
X35514286Y-26207110D01*
X35514286Y-26207110D02*
X35533334Y-26216634D01*
X35533334Y-26216634D02*
X35542858Y-26235681D01*
X35542858Y-26235681D02*
X35542858Y-26254729D01*
X35542858Y-26254729D02*
X35447620Y-26273777D01*
X35657144Y-26340443D02*
X35638096Y-26330920D01*
X35638096Y-26330920D02*
X35628573Y-26311872D01*
X35628573Y-26311872D02*
X35628573Y-26140443D01*
X35761906Y-26340443D02*
X35742858Y-26330920D01*
X35742858Y-26330920D02*
X35733335Y-26321396D01*
X35733335Y-26321396D02*
X35723811Y-26302348D01*
X35723811Y-26302348D02*
X35723811Y-26245205D01*
X35723811Y-26245205D02*
X35733335Y-26226158D01*
X35733335Y-26226158D02*
X35742858Y-26216634D01*
X35742858Y-26216634D02*
X35761906Y-26207110D01*
X35761906Y-26207110D02*
X35790477Y-26207110D01*
X35790477Y-26207110D02*
X35809525Y-26216634D01*
X35809525Y-26216634D02*
X35819049Y-26226158D01*
X35819049Y-26226158D02*
X35828573Y-26245205D01*
X35828573Y-26245205D02*
X35828573Y-26302348D01*
X35828573Y-26302348D02*
X35819049Y-26321396D01*
X35819049Y-26321396D02*
X35809525Y-26330920D01*
X35809525Y-26330920D02*
X35790477Y-26340443D01*
X35790477Y-26340443D02*
X35761906Y-26340443D01*
X35895239Y-26207110D02*
X35933334Y-26340443D01*
X35933334Y-26340443D02*
X35971429Y-26245205D01*
X35971429Y-26245205D02*
X36009525Y-26340443D01*
X36009525Y-26340443D02*
X36047620Y-26207110D01*
X34257143Y-25990443D02*
X34257143Y-25790443D01*
X34257143Y-25790443D02*
X34371428Y-25990443D01*
X34371428Y-25990443D02*
X34371428Y-25790443D01*
X34495238Y-25990443D02*
X34476190Y-25980920D01*
X34476190Y-25980920D02*
X34466667Y-25971396D01*
X34466667Y-25971396D02*
X34457143Y-25952348D01*
X34457143Y-25952348D02*
X34457143Y-25895205D01*
X34457143Y-25895205D02*
X34466667Y-25876158D01*
X34466667Y-25876158D02*
X34476190Y-25866634D01*
X34476190Y-25866634D02*
X34495238Y-25857110D01*
X34495238Y-25857110D02*
X34523809Y-25857110D01*
X34523809Y-25857110D02*
X34542857Y-25866634D01*
X34542857Y-25866634D02*
X34552381Y-25876158D01*
X34552381Y-25876158D02*
X34561905Y-25895205D01*
X34561905Y-25895205D02*
X34561905Y-25952348D01*
X34561905Y-25952348D02*
X34552381Y-25971396D01*
X34552381Y-25971396D02*
X34542857Y-25980920D01*
X34542857Y-25980920D02*
X34523809Y-25990443D01*
X34523809Y-25990443D02*
X34495238Y-25990443D01*
X34914285Y-25971396D02*
X34904761Y-25980920D01*
X34904761Y-25980920D02*
X34876190Y-25990443D01*
X34876190Y-25990443D02*
X34857142Y-25990443D01*
X34857142Y-25990443D02*
X34828571Y-25980920D01*
X34828571Y-25980920D02*
X34809523Y-25961872D01*
X34809523Y-25961872D02*
X34800000Y-25942824D01*
X34800000Y-25942824D02*
X34790476Y-25904729D01*
X34790476Y-25904729D02*
X34790476Y-25876158D01*
X34790476Y-25876158D02*
X34800000Y-25838062D01*
X34800000Y-25838062D02*
X34809523Y-25819015D01*
X34809523Y-25819015D02*
X34828571Y-25799967D01*
X34828571Y-25799967D02*
X34857142Y-25790443D01*
X34857142Y-25790443D02*
X34876190Y-25790443D01*
X34876190Y-25790443D02*
X34904761Y-25799967D01*
X34904761Y-25799967D02*
X34914285Y-25809491D01*
X35028571Y-25990443D02*
X35009523Y-25980920D01*
X35009523Y-25980920D02*
X35000000Y-25971396D01*
X35000000Y-25971396D02*
X34990476Y-25952348D01*
X34990476Y-25952348D02*
X34990476Y-25895205D01*
X34990476Y-25895205D02*
X35000000Y-25876158D01*
X35000000Y-25876158D02*
X35009523Y-25866634D01*
X35009523Y-25866634D02*
X35028571Y-25857110D01*
X35028571Y-25857110D02*
X35057142Y-25857110D01*
X35057142Y-25857110D02*
X35076190Y-25866634D01*
X35076190Y-25866634D02*
X35085714Y-25876158D01*
X35085714Y-25876158D02*
X35095238Y-25895205D01*
X35095238Y-25895205D02*
X35095238Y-25952348D01*
X35095238Y-25952348D02*
X35085714Y-25971396D01*
X35085714Y-25971396D02*
X35076190Y-25980920D01*
X35076190Y-25980920D02*
X35057142Y-25990443D01*
X35057142Y-25990443D02*
X35028571Y-25990443D01*
X35180952Y-25857110D02*
X35180952Y-26057110D01*
X35180952Y-25866634D02*
X35199999Y-25857110D01*
X35199999Y-25857110D02*
X35238094Y-25857110D01*
X35238094Y-25857110D02*
X35257142Y-25866634D01*
X35257142Y-25866634D02*
X35266666Y-25876158D01*
X35266666Y-25876158D02*
X35276190Y-25895205D01*
X35276190Y-25895205D02*
X35276190Y-25952348D01*
X35276190Y-25952348D02*
X35266666Y-25971396D01*
X35266666Y-25971396D02*
X35257142Y-25980920D01*
X35257142Y-25980920D02*
X35238094Y-25990443D01*
X35238094Y-25990443D02*
X35199999Y-25990443D01*
X35199999Y-25990443D02*
X35180952Y-25980920D01*
X35361904Y-25857110D02*
X35361904Y-26057110D01*
X35361904Y-25866634D02*
X35380951Y-25857110D01*
X35380951Y-25857110D02*
X35419046Y-25857110D01*
X35419046Y-25857110D02*
X35438094Y-25866634D01*
X35438094Y-25866634D02*
X35447618Y-25876158D01*
X35447618Y-25876158D02*
X35457142Y-25895205D01*
X35457142Y-25895205D02*
X35457142Y-25952348D01*
X35457142Y-25952348D02*
X35447618Y-25971396D01*
X35447618Y-25971396D02*
X35438094Y-25980920D01*
X35438094Y-25980920D02*
X35419046Y-25990443D01*
X35419046Y-25990443D02*
X35380951Y-25990443D01*
X35380951Y-25990443D02*
X35361904Y-25980920D01*
X35619046Y-25980920D02*
X35599998Y-25990443D01*
X35599998Y-25990443D02*
X35561903Y-25990443D01*
X35561903Y-25990443D02*
X35542856Y-25980920D01*
X35542856Y-25980920D02*
X35533332Y-25961872D01*
X35533332Y-25961872D02*
X35533332Y-25885681D01*
X35533332Y-25885681D02*
X35542856Y-25866634D01*
X35542856Y-25866634D02*
X35561903Y-25857110D01*
X35561903Y-25857110D02*
X35599998Y-25857110D01*
X35599998Y-25857110D02*
X35619046Y-25866634D01*
X35619046Y-25866634D02*
X35628570Y-25885681D01*
X35628570Y-25885681D02*
X35628570Y-25904729D01*
X35628570Y-25904729D02*
X35533332Y-25923777D01*
X35714285Y-25990443D02*
X35714285Y-25857110D01*
X35714285Y-25895205D02*
X35723808Y-25876158D01*
X35723808Y-25876158D02*
X35733332Y-25866634D01*
X35733332Y-25866634D02*
X35752380Y-25857110D01*
X35752380Y-25857110D02*
X35771427Y-25857110D01*
X34380953Y-25590443D02*
X34380953Y-25390443D01*
X34495238Y-25590443D02*
X34409524Y-25476158D01*
X34495238Y-25390443D02*
X34380953Y-25504729D01*
X34580953Y-25485681D02*
X34647619Y-25485681D01*
X34676191Y-25590443D02*
X34580953Y-25590443D01*
X34580953Y-25590443D02*
X34580953Y-25390443D01*
X34580953Y-25390443D02*
X34676191Y-25390443D01*
X34761905Y-25485681D02*
X34828571Y-25485681D01*
X34857143Y-25590443D02*
X34761905Y-25590443D01*
X34761905Y-25590443D02*
X34761905Y-25390443D01*
X34761905Y-25390443D02*
X34857143Y-25390443D01*
X34942857Y-25590443D02*
X34942857Y-25390443D01*
X34942857Y-25390443D02*
X35019047Y-25390443D01*
X35019047Y-25390443D02*
X35038095Y-25399967D01*
X35038095Y-25399967D02*
X35047618Y-25409491D01*
X35047618Y-25409491D02*
X35057142Y-25428539D01*
X35057142Y-25428539D02*
X35057142Y-25457110D01*
X35057142Y-25457110D02*
X35047618Y-25476158D01*
X35047618Y-25476158D02*
X35038095Y-25485681D01*
X35038095Y-25485681D02*
X35019047Y-25495205D01*
X35019047Y-25495205D02*
X34942857Y-25495205D01*
X35180952Y-25390443D02*
X35219047Y-25390443D01*
X35219047Y-25390443D02*
X35238095Y-25399967D01*
X35238095Y-25399967D02*
X35257142Y-25419015D01*
X35257142Y-25419015D02*
X35266666Y-25457110D01*
X35266666Y-25457110D02*
X35266666Y-25523777D01*
X35266666Y-25523777D02*
X35257142Y-25561872D01*
X35257142Y-25561872D02*
X35238095Y-25580920D01*
X35238095Y-25580920D02*
X35219047Y-25590443D01*
X35219047Y-25590443D02*
X35180952Y-25590443D01*
X35180952Y-25590443D02*
X35161904Y-25580920D01*
X35161904Y-25580920D02*
X35142857Y-25561872D01*
X35142857Y-25561872D02*
X35133333Y-25523777D01*
X35133333Y-25523777D02*
X35133333Y-25457110D01*
X35133333Y-25457110D02*
X35142857Y-25419015D01*
X35142857Y-25419015D02*
X35161904Y-25399967D01*
X35161904Y-25399967D02*
X35180952Y-25390443D01*
X35352381Y-25390443D02*
X35352381Y-25552348D01*
X35352381Y-25552348D02*
X35361904Y-25571396D01*
X35361904Y-25571396D02*
X35371428Y-25580920D01*
X35371428Y-25580920D02*
X35390476Y-25590443D01*
X35390476Y-25590443D02*
X35428571Y-25590443D01*
X35428571Y-25590443D02*
X35447619Y-25580920D01*
X35447619Y-25580920D02*
X35457142Y-25571396D01*
X35457142Y-25571396D02*
X35466666Y-25552348D01*
X35466666Y-25552348D02*
X35466666Y-25390443D01*
X35533333Y-25390443D02*
X35647619Y-25390443D01*
X35590476Y-25590443D02*
X35590476Y-25390443D01*
X34333333Y-26621396D02*
X34323809Y-26630920D01*
X34323809Y-26630920D02*
X34295238Y-26640443D01*
X34295238Y-26640443D02*
X34276190Y-26640443D01*
X34276190Y-26640443D02*
X34247619Y-26630920D01*
X34247619Y-26630920D02*
X34228571Y-26611872D01*
X34228571Y-26611872D02*
X34219048Y-26592824D01*
X34219048Y-26592824D02*
X34209524Y-26554729D01*
X34209524Y-26554729D02*
X34209524Y-26526158D01*
X34209524Y-26526158D02*
X34219048Y-26488062D01*
X34219048Y-26488062D02*
X34228571Y-26469015D01*
X34228571Y-26469015D02*
X34247619Y-26449967D01*
X34247619Y-26449967D02*
X34276190Y-26440443D01*
X34276190Y-26440443D02*
X34295238Y-26440443D01*
X34295238Y-26440443D02*
X34323809Y-26449967D01*
X34323809Y-26449967D02*
X34333333Y-26459491D01*
X34447619Y-26640443D02*
X34428571Y-26630920D01*
X34428571Y-26630920D02*
X34419048Y-26621396D01*
X34419048Y-26621396D02*
X34409524Y-26602348D01*
X34409524Y-26602348D02*
X34409524Y-26545205D01*
X34409524Y-26545205D02*
X34419048Y-26526158D01*
X34419048Y-26526158D02*
X34428571Y-26516634D01*
X34428571Y-26516634D02*
X34447619Y-26507110D01*
X34447619Y-26507110D02*
X34476190Y-26507110D01*
X34476190Y-26507110D02*
X34495238Y-26516634D01*
X34495238Y-26516634D02*
X34504762Y-26526158D01*
X34504762Y-26526158D02*
X34514286Y-26545205D01*
X34514286Y-26545205D02*
X34514286Y-26602348D01*
X34514286Y-26602348D02*
X34504762Y-26621396D01*
X34504762Y-26621396D02*
X34495238Y-26630920D01*
X34495238Y-26630920D02*
X34476190Y-26640443D01*
X34476190Y-26640443D02*
X34447619Y-26640443D01*
X34600000Y-26640443D02*
X34600000Y-26507110D01*
X34600000Y-26526158D02*
X34609523Y-26516634D01*
X34609523Y-26516634D02*
X34628571Y-26507110D01*
X34628571Y-26507110D02*
X34657142Y-26507110D01*
X34657142Y-26507110D02*
X34676190Y-26516634D01*
X34676190Y-26516634D02*
X34685714Y-26535681D01*
X34685714Y-26535681D02*
X34685714Y-26640443D01*
X34685714Y-26535681D02*
X34695238Y-26516634D01*
X34695238Y-26516634D02*
X34714285Y-26507110D01*
X34714285Y-26507110D02*
X34742857Y-26507110D01*
X34742857Y-26507110D02*
X34761904Y-26516634D01*
X34761904Y-26516634D02*
X34771428Y-26535681D01*
X34771428Y-26535681D02*
X34771428Y-26640443D01*
X34866667Y-26507110D02*
X34866667Y-26707110D01*
X34866667Y-26516634D02*
X34885714Y-26507110D01*
X34885714Y-26507110D02*
X34923809Y-26507110D01*
X34923809Y-26507110D02*
X34942857Y-26516634D01*
X34942857Y-26516634D02*
X34952381Y-26526158D01*
X34952381Y-26526158D02*
X34961905Y-26545205D01*
X34961905Y-26545205D02*
X34961905Y-26602348D01*
X34961905Y-26602348D02*
X34952381Y-26621396D01*
X34952381Y-26621396D02*
X34942857Y-26630920D01*
X34942857Y-26630920D02*
X34923809Y-26640443D01*
X34923809Y-26640443D02*
X34885714Y-26640443D01*
X34885714Y-26640443D02*
X34866667Y-26630920D01*
X35076190Y-26640443D02*
X35057142Y-26630920D01*
X35057142Y-26630920D02*
X35047619Y-26621396D01*
X35047619Y-26621396D02*
X35038095Y-26602348D01*
X35038095Y-26602348D02*
X35038095Y-26545205D01*
X35038095Y-26545205D02*
X35047619Y-26526158D01*
X35047619Y-26526158D02*
X35057142Y-26516634D01*
X35057142Y-26516634D02*
X35076190Y-26507110D01*
X35076190Y-26507110D02*
X35104761Y-26507110D01*
X35104761Y-26507110D02*
X35123809Y-26516634D01*
X35123809Y-26516634D02*
X35133333Y-26526158D01*
X35133333Y-26526158D02*
X35142857Y-26545205D01*
X35142857Y-26545205D02*
X35142857Y-26602348D01*
X35142857Y-26602348D02*
X35133333Y-26621396D01*
X35133333Y-26621396D02*
X35123809Y-26630920D01*
X35123809Y-26630920D02*
X35104761Y-26640443D01*
X35104761Y-26640443D02*
X35076190Y-26640443D01*
X35228571Y-26507110D02*
X35228571Y-26640443D01*
X35228571Y-26526158D02*
X35238094Y-26516634D01*
X35238094Y-26516634D02*
X35257142Y-26507110D01*
X35257142Y-26507110D02*
X35285713Y-26507110D01*
X35285713Y-26507110D02*
X35304761Y-26516634D01*
X35304761Y-26516634D02*
X35314285Y-26535681D01*
X35314285Y-26535681D02*
X35314285Y-26640443D01*
X35485713Y-26630920D02*
X35466665Y-26640443D01*
X35466665Y-26640443D02*
X35428570Y-26640443D01*
X35428570Y-26640443D02*
X35409523Y-26630920D01*
X35409523Y-26630920D02*
X35399999Y-26611872D01*
X35399999Y-26611872D02*
X35399999Y-26535681D01*
X35399999Y-26535681D02*
X35409523Y-26516634D01*
X35409523Y-26516634D02*
X35428570Y-26507110D01*
X35428570Y-26507110D02*
X35466665Y-26507110D01*
X35466665Y-26507110D02*
X35485713Y-26516634D01*
X35485713Y-26516634D02*
X35495237Y-26535681D01*
X35495237Y-26535681D02*
X35495237Y-26554729D01*
X35495237Y-26554729D02*
X35399999Y-26573777D01*
X35580952Y-26507110D02*
X35580952Y-26640443D01*
X35580952Y-26526158D02*
X35590475Y-26516634D01*
X35590475Y-26516634D02*
X35609523Y-26507110D01*
X35609523Y-26507110D02*
X35638094Y-26507110D01*
X35638094Y-26507110D02*
X35657142Y-26516634D01*
X35657142Y-26516634D02*
X35666666Y-26535681D01*
X35666666Y-26535681D02*
X35666666Y-26640443D01*
X35733332Y-26507110D02*
X35809523Y-26507110D01*
X35761904Y-26440443D02*
X35761904Y-26611872D01*
X35761904Y-26611872D02*
X35771427Y-26630920D01*
X35771427Y-26630920D02*
X35790475Y-26640443D01*
X35790475Y-26640443D02*
X35809523Y-26640443D01*
D11*
X65526109Y-10838095D02*
X65526109Y-11076190D01*
X65526109Y-11076190D02*
X65764204Y-11099999D01*
X65764204Y-11099999D02*
X65740395Y-11076190D01*
X65740395Y-11076190D02*
X65716585Y-11028571D01*
X65716585Y-11028571D02*
X65716585Y-10909523D01*
X65716585Y-10909523D02*
X65740395Y-10861904D01*
X65740395Y-10861904D02*
X65764204Y-10838095D01*
X65764204Y-10838095D02*
X65811823Y-10814285D01*
X65811823Y-10814285D02*
X65930871Y-10814285D01*
X65930871Y-10814285D02*
X65978490Y-10838095D01*
X65978490Y-10838095D02*
X66002300Y-10861904D01*
X66002300Y-10861904D02*
X66026109Y-10909523D01*
X66026109Y-10909523D02*
X66026109Y-11028571D01*
X66026109Y-11028571D02*
X66002300Y-11076190D01*
X66002300Y-11076190D02*
X65978490Y-11099999D01*
X66026109Y-10219048D02*
X65692776Y-10219048D01*
X65740395Y-10219048D02*
X65716585Y-10195238D01*
X65716585Y-10195238D02*
X65692776Y-10147619D01*
X65692776Y-10147619D02*
X65692776Y-10076191D01*
X65692776Y-10076191D02*
X65716585Y-10028572D01*
X65716585Y-10028572D02*
X65764204Y-10004762D01*
X65764204Y-10004762D02*
X66026109Y-10004762D01*
X65764204Y-10004762D02*
X65716585Y-9980953D01*
X65716585Y-9980953D02*
X65692776Y-9933334D01*
X65692776Y-9933334D02*
X65692776Y-9861905D01*
X65692776Y-9861905D02*
X65716585Y-9814286D01*
X65716585Y-9814286D02*
X65764204Y-9790476D01*
X65764204Y-9790476D02*
X66026109Y-9790476D01*
X66026109Y-9552381D02*
X65692776Y-9552381D01*
X65740395Y-9552381D02*
X65716585Y-9528571D01*
X65716585Y-9528571D02*
X65692776Y-9480952D01*
X65692776Y-9480952D02*
X65692776Y-9409524D01*
X65692776Y-9409524D02*
X65716585Y-9361905D01*
X65716585Y-9361905D02*
X65764204Y-9338095D01*
X65764204Y-9338095D02*
X66026109Y-9338095D01*
X65764204Y-9338095D02*
X65716585Y-9314286D01*
X65716585Y-9314286D02*
X65692776Y-9266667D01*
X65692776Y-9266667D02*
X65692776Y-9195238D01*
X65692776Y-9195238D02*
X65716585Y-9147619D01*
X65716585Y-9147619D02*
X65764204Y-9123809D01*
X65764204Y-9123809D02*
X66026109Y-9123809D01*
X69061904Y-14526109D02*
X68823809Y-14526109D01*
X68823809Y-14526109D02*
X68800000Y-14764204D01*
X68800000Y-14764204D02*
X68823809Y-14740395D01*
X68823809Y-14740395D02*
X68871428Y-14716585D01*
X68871428Y-14716585D02*
X68990476Y-14716585D01*
X68990476Y-14716585D02*
X69038095Y-14740395D01*
X69038095Y-14740395D02*
X69061904Y-14764204D01*
X69061904Y-14764204D02*
X69085714Y-14811823D01*
X69085714Y-14811823D02*
X69085714Y-14930871D01*
X69085714Y-14930871D02*
X69061904Y-14978490D01*
X69061904Y-14978490D02*
X69038095Y-15002300D01*
X69038095Y-15002300D02*
X68990476Y-15026109D01*
X68990476Y-15026109D02*
X68871428Y-15026109D01*
X68871428Y-15026109D02*
X68823809Y-15002300D01*
X68823809Y-15002300D02*
X68800000Y-14978490D01*
X69680951Y-15026109D02*
X69680951Y-14692776D01*
X69680951Y-14740395D02*
X69704761Y-14716585D01*
X69704761Y-14716585D02*
X69752380Y-14692776D01*
X69752380Y-14692776D02*
X69823808Y-14692776D01*
X69823808Y-14692776D02*
X69871427Y-14716585D01*
X69871427Y-14716585D02*
X69895237Y-14764204D01*
X69895237Y-14764204D02*
X69895237Y-15026109D01*
X69895237Y-14764204D02*
X69919046Y-14716585D01*
X69919046Y-14716585D02*
X69966665Y-14692776D01*
X69966665Y-14692776D02*
X70038094Y-14692776D01*
X70038094Y-14692776D02*
X70085713Y-14716585D01*
X70085713Y-14716585D02*
X70109523Y-14764204D01*
X70109523Y-14764204D02*
X70109523Y-15026109D01*
X70347618Y-15026109D02*
X70347618Y-14692776D01*
X70347618Y-14740395D02*
X70371428Y-14716585D01*
X70371428Y-14716585D02*
X70419047Y-14692776D01*
X70419047Y-14692776D02*
X70490475Y-14692776D01*
X70490475Y-14692776D02*
X70538094Y-14716585D01*
X70538094Y-14716585D02*
X70561904Y-14764204D01*
X70561904Y-14764204D02*
X70561904Y-15026109D01*
X70561904Y-14764204D02*
X70585713Y-14716585D01*
X70585713Y-14716585D02*
X70633332Y-14692776D01*
X70633332Y-14692776D02*
X70704761Y-14692776D01*
X70704761Y-14692776D02*
X70752380Y-14716585D01*
X70752380Y-14716585D02*
X70776190Y-14764204D01*
X70776190Y-14764204D02*
X70776190Y-15026109D01*
D12*
X55238095Y-16169104D02*
X55714285Y-16169104D01*
X55142857Y-16454819D02*
X55476190Y-15454819D01*
X55476190Y-15454819D02*
X55809523Y-16454819D01*
X56142857Y-15788152D02*
X56142857Y-16454819D01*
X56142857Y-15883390D02*
X56190476Y-15835771D01*
X56190476Y-15835771D02*
X56285714Y-15788152D01*
X56285714Y-15788152D02*
X56428571Y-15788152D01*
X56428571Y-15788152D02*
X56523809Y-15835771D01*
X56523809Y-15835771D02*
X56571428Y-15931009D01*
X56571428Y-15931009D02*
X56571428Y-16454819D01*
X56904762Y-15788152D02*
X57285714Y-15788152D01*
X57047619Y-15454819D02*
X57047619Y-16311961D01*
X57047619Y-16311961D02*
X57095238Y-16407200D01*
X57095238Y-16407200D02*
X57190476Y-16454819D01*
X57190476Y-16454819D02*
X57285714Y-16454819D01*
X58000000Y-16407200D02*
X57904762Y-16454819D01*
X57904762Y-16454819D02*
X57714286Y-16454819D01*
X57714286Y-16454819D02*
X57619048Y-16407200D01*
X57619048Y-16407200D02*
X57571429Y-16311961D01*
X57571429Y-16311961D02*
X57571429Y-15931009D01*
X57571429Y-15931009D02*
X57619048Y-15835771D01*
X57619048Y-15835771D02*
X57714286Y-15788152D01*
X57714286Y-15788152D02*
X57904762Y-15788152D01*
X57904762Y-15788152D02*
X58000000Y-15835771D01*
X58000000Y-15835771D02*
X58047619Y-15931009D01*
X58047619Y-15931009D02*
X58047619Y-16026247D01*
X58047619Y-16026247D02*
X57571429Y-16121485D01*
X58476191Y-15788152D02*
X58476191Y-16454819D01*
X58476191Y-15883390D02*
X58523810Y-15835771D01*
X58523810Y-15835771D02*
X58619048Y-15788152D01*
X58619048Y-15788152D02*
X58761905Y-15788152D01*
X58761905Y-15788152D02*
X58857143Y-15835771D01*
X58857143Y-15835771D02*
X58904762Y-15931009D01*
X58904762Y-15931009D02*
X58904762Y-16454819D01*
X59380953Y-15788152D02*
X59380953Y-16454819D01*
X59380953Y-15883390D02*
X59428572Y-15835771D01*
X59428572Y-15835771D02*
X59523810Y-15788152D01*
X59523810Y-15788152D02*
X59666667Y-15788152D01*
X59666667Y-15788152D02*
X59761905Y-15835771D01*
X59761905Y-15835771D02*
X59809524Y-15931009D01*
X59809524Y-15931009D02*
X59809524Y-16454819D01*
X60714286Y-16454819D02*
X60714286Y-15931009D01*
X60714286Y-15931009D02*
X60666667Y-15835771D01*
X60666667Y-15835771D02*
X60571429Y-15788152D01*
X60571429Y-15788152D02*
X60380953Y-15788152D01*
X60380953Y-15788152D02*
X60285715Y-15835771D01*
X60714286Y-16407200D02*
X60619048Y-16454819D01*
X60619048Y-16454819D02*
X60380953Y-16454819D01*
X60380953Y-16454819D02*
X60285715Y-16407200D01*
X60285715Y-16407200D02*
X60238096Y-16311961D01*
X60238096Y-16311961D02*
X60238096Y-16216723D01*
X60238096Y-16216723D02*
X60285715Y-16121485D01*
X60285715Y-16121485D02*
X60380953Y-16073866D01*
X60380953Y-16073866D02*
X60619048Y-16073866D01*
X60619048Y-16073866D02*
X60714286Y-16026247D01*
X51928571Y-10454819D02*
X51928571Y-9454819D01*
X52499999Y-10454819D02*
X52071428Y-9883390D01*
X52499999Y-9454819D02*
X51928571Y-10026247D01*
X52928571Y-9931009D02*
X53261904Y-9931009D01*
X53404761Y-10454819D02*
X52928571Y-10454819D01*
X52928571Y-10454819D02*
X52928571Y-9454819D01*
X52928571Y-9454819D02*
X53404761Y-9454819D01*
X53833333Y-9931009D02*
X54166666Y-9931009D01*
X54309523Y-10454819D02*
X53833333Y-10454819D01*
X53833333Y-10454819D02*
X53833333Y-9454819D01*
X53833333Y-9454819D02*
X54309523Y-9454819D01*
X54738095Y-10454819D02*
X54738095Y-9454819D01*
X54738095Y-9454819D02*
X55119047Y-9454819D01*
X55119047Y-9454819D02*
X55214285Y-9502438D01*
X55214285Y-9502438D02*
X55261904Y-9550057D01*
X55261904Y-9550057D02*
X55309523Y-9645295D01*
X55309523Y-9645295D02*
X55309523Y-9788152D01*
X55309523Y-9788152D02*
X55261904Y-9883390D01*
X55261904Y-9883390D02*
X55214285Y-9931009D01*
X55214285Y-9931009D02*
X55119047Y-9978628D01*
X55119047Y-9978628D02*
X54738095Y-9978628D01*
X55738095Y-10073866D02*
X56500000Y-10073866D01*
X57166666Y-9454819D02*
X57357142Y-9454819D01*
X57357142Y-9454819D02*
X57452380Y-9502438D01*
X57452380Y-9502438D02*
X57547618Y-9597676D01*
X57547618Y-9597676D02*
X57595237Y-9788152D01*
X57595237Y-9788152D02*
X57595237Y-10121485D01*
X57595237Y-10121485D02*
X57547618Y-10311961D01*
X57547618Y-10311961D02*
X57452380Y-10407200D01*
X57452380Y-10407200D02*
X57357142Y-10454819D01*
X57357142Y-10454819D02*
X57166666Y-10454819D01*
X57166666Y-10454819D02*
X57071428Y-10407200D01*
X57071428Y-10407200D02*
X56976190Y-10311961D01*
X56976190Y-10311961D02*
X56928571Y-10121485D01*
X56928571Y-10121485D02*
X56928571Y-9788152D01*
X56928571Y-9788152D02*
X56976190Y-9597676D01*
X56976190Y-9597676D02*
X57071428Y-9502438D01*
X57071428Y-9502438D02*
X57166666Y-9454819D01*
X58023809Y-9454819D02*
X58023809Y-10264342D01*
X58023809Y-10264342D02*
X58071428Y-10359580D01*
X58071428Y-10359580D02*
X58119047Y-10407200D01*
X58119047Y-10407200D02*
X58214285Y-10454819D01*
X58214285Y-10454819D02*
X58404761Y-10454819D01*
X58404761Y-10454819D02*
X58499999Y-10407200D01*
X58499999Y-10407200D02*
X58547618Y-10359580D01*
X58547618Y-10359580D02*
X58595237Y-10264342D01*
X58595237Y-10264342D02*
X58595237Y-9454819D01*
X58928571Y-9454819D02*
X59499999Y-9454819D01*
X59214285Y-10454819D02*
X59214285Y-9454819D01*
X60500000Y-9454819D02*
X61166666Y-9454819D01*
X61166666Y-9454819D02*
X60500000Y-10454819D01*
X60500000Y-10454819D02*
X61166666Y-10454819D01*
X61738095Y-9454819D02*
X61928571Y-9454819D01*
X61928571Y-9454819D02*
X62023809Y-9502438D01*
X62023809Y-9502438D02*
X62119047Y-9597676D01*
X62119047Y-9597676D02*
X62166666Y-9788152D01*
X62166666Y-9788152D02*
X62166666Y-10121485D01*
X62166666Y-10121485D02*
X62119047Y-10311961D01*
X62119047Y-10311961D02*
X62023809Y-10407200D01*
X62023809Y-10407200D02*
X61928571Y-10454819D01*
X61928571Y-10454819D02*
X61738095Y-10454819D01*
X61738095Y-10454819D02*
X61642857Y-10407200D01*
X61642857Y-10407200D02*
X61547619Y-10311961D01*
X61547619Y-10311961D02*
X61500000Y-10121485D01*
X61500000Y-10121485D02*
X61500000Y-9788152D01*
X61500000Y-9788152D02*
X61547619Y-9597676D01*
X61547619Y-9597676D02*
X61642857Y-9502438D01*
X61642857Y-9502438D02*
X61738095Y-9454819D01*
X62595238Y-10454819D02*
X62595238Y-9454819D01*
X62595238Y-9454819D02*
X63166666Y-10454819D01*
X63166666Y-10454819D02*
X63166666Y-9454819D01*
X63642857Y-9931009D02*
X63976190Y-9931009D01*
X64119047Y-10454819D02*
X63642857Y-10454819D01*
X63642857Y-10454819D02*
X63642857Y-9454819D01*
X63642857Y-9454819D02*
X64119047Y-9454819D01*
G04 #@! TO.C,H4*
X7200000Y-51000000D02*
G75*
G02*
X800000Y-51000000I-3200000J0D01*
G01*
X800000Y-51000000D02*
G75*
G02*
X7200000Y-51000000I3200000J0D01*
G01*
G04 #@! TO.C,H2*
X84200000Y-4000000D02*
G75*
G02*
X77800000Y-4000000I-3200000J0D01*
G01*
X77800000Y-4000000D02*
G75*
G02*
X84200000Y-4000000I3200000J0D01*
G01*
G04 #@! TO.C,H1*
X7200000Y-4000000D02*
G75*
G02*
X800000Y-4000000I-3200000J0D01*
G01*
X800000Y-4000000D02*
G75*
G02*
X7200000Y-4000000I3200000J0D01*
G01*
G04 #@! TO.C,H3*
X84200000Y-51000000D02*
G75*
G02*
X77800000Y-51000000I-3200000J0D01*
G01*
X77800000Y-51000000D02*
G75*
G02*
X84200000Y-51000000I3200000J0D01*
G01*
D11*
G04 #@! TO.C,U1*
X44200000Y-15300000D02*
X44400000Y-15100000D01*
X44200000Y-15300000D02*
X44400000Y-15500000D01*
X44200000Y-15300000D02*
X48800000Y-15300000D01*
X48800000Y-15300000D02*
X48600000Y-15100000D01*
X48800000Y-15300000D02*
X48600000Y-15500000D01*
X66300000Y-8100000D02*
X66100000Y-8300000D01*
X66300000Y-8100000D02*
X66500000Y-8300000D01*
X66300000Y-12700000D02*
X66100000Y-12500000D01*
X66300000Y-12700000D02*
X66300000Y-8100000D01*
X66300000Y-12700000D02*
X66500000Y-12500000D01*
X67200000Y-15300000D02*
X67400000Y-15100000D01*
X67200000Y-15300000D02*
X67400000Y-15500000D01*
X67200000Y-15300000D02*
X71800000Y-15300000D01*
X71800000Y-15300000D02*
X71600000Y-15100000D01*
X71800000Y-15300000D02*
X71600000Y-15500000D01*
G04 #@! TD*
M02*
