G04 #@! TF.GenerationSoftware,KiCad,Pcbnew,9.0.2+dfsg-1*
G04 #@! TF.CreationDate,2026-09-14T12:34:58+07:00*
G04 #@! TF.ProjectId,esp32c3_controller,65737033-3263-4335-9f63-6f6e74726f6c,rev?*
G04 #@! TF.SameCoordinates,Original*
G04 #@! TF.FileFunction,Paste,Top*
G04 #@! TF.FilePolarity,Positive*
%FSLAX46Y46*%
G04 Gerber Fmt 4.6, Leading zero omitted, Abs format (unit mm)*
G04 Created by KiCad (PCBNEW 9.0.2+dfsg-1) date 2026-09-14 12:34:58*
%MOMM*%
%LPD*%
G01*
G04 APERTURE LIST*
G04 Aperture macros list*
%AMRoundRect*
0 Rectangle with rounded corners*
0 $1 Rounding radius*
0 $2 $3 $4 $5 $6 $7 $8 $9 X,Y pos of 4 corners*
0 Add a 4 corners polygon primitive as box body*
4,1,4,$2,$3,$4,$5,$6,$7,$8,$9,$2,$3,0*
0 Add four circle primitives for the rounded corners*
1,1,$1+$1,$2,$3*
1,1,$1+$1,$4,$5*
1,1,$1+$1,$6,$7*
1,1,$1+$1,$8,$9*
0 Add four rect primitives between the rounded corners*
20,1,$1+$1,$2,$3,$4,$5,0*
20,1,$1+$1,$4,$5,$6,$7,0*
20,1,$1+$1,$6,$7,$8,$9,0*
20,1,$1+$1,$8,$9,$2,$3,0*%
G04 Aperture macros list end*
%ADD10RoundRect,0.250000X-0.250000X-0.475000X0.250000X-0.475000X0.250000X0.475000X-0.250000X0.475000X0*%
%ADD11RoundRect,0.075000X-0.350000X-0.075000X0.350000X-0.075000X0.350000X0.075000X-0.350000X0.075000X0*%
%ADD12RoundRect,0.075000X0.075000X-0.350000X0.075000X0.350000X-0.075000X0.350000X-0.075000X-0.350000X0*%
%ADD13RoundRect,0.250000X-0.262500X-0.450000X0.262500X-0.450000X0.262500X0.450000X-0.262500X0.450000X0*%
%ADD14RoundRect,0.243750X-0.243750X-0.456250X0.243750X-0.456250X0.243750X0.456250X-0.243750X0.456250X0*%
%ADD15R,1.000000X0.750000*%
%ADD16R,0.600000X1.450000*%
%ADD17R,0.300000X1.450000*%
%ADD18RoundRect,0.250000X0.250000X0.475000X-0.250000X0.475000X-0.250000X-0.475000X0.250000X-0.475000X0*%
%ADD19RoundRect,0.375000X-0.625000X-0.375000X0.625000X-0.375000X0.625000X0.375000X-0.625000X0.375000X0*%
%ADD20RoundRect,0.500000X-0.500000X-1.400000X0.500000X-1.400000X0.500000X1.400000X-0.500000X1.400000X0*%
%ADD21R,0.700000X0.700000*%
%ADD22R,1.500000X0.900000*%
G04 APERTURE END LIST*
D10*
G04 #@! TO.C,C1*
X29050000Y-50000000D03*
X30950000Y-50000000D03*
G04 #@! TD*
G04 #@! TO.C,C4*
X69050000Y-48000000D03*
X70950000Y-48000000D03*
G04 #@! TD*
D11*
G04 #@! TO.C,U2*
X33050000Y-24750000D03*
X33050000Y-25250000D03*
X33050000Y-25750000D03*
X33050000Y-26250000D03*
X33050000Y-26750000D03*
X33050000Y-27250000D03*
D12*
X33750000Y-27950000D03*
X34250000Y-27950000D03*
X34750000Y-27950000D03*
X35250000Y-27950000D03*
X35750000Y-27950000D03*
X36250000Y-27950000D03*
D11*
X36950000Y-27250000D03*
X36950000Y-26750000D03*
X36950000Y-26250000D03*
X36950000Y-25750000D03*
X36950000Y-25250000D03*
X36950000Y-24750000D03*
D12*
X36250000Y-24050000D03*
X35750000Y-24050000D03*
X35250000Y-24050000D03*
X34750000Y-24050000D03*
X34250000Y-24050000D03*
X33750000Y-24050000D03*
G04 #@! TD*
D13*
G04 #@! TO.C,R1*
X34087500Y-51000000D03*
X35912500Y-51000000D03*
G04 #@! TD*
D14*
G04 #@! TO.C,D2*
X59062500Y-44000000D03*
X60937500Y-44000000D03*
G04 #@! TD*
D15*
G04 #@! TO.C,SW_RST*
X73000000Y-40125000D03*
X79000000Y-40125000D03*
X73000000Y-43875000D03*
X79000000Y-43875000D03*
G04 #@! TD*
D13*
G04 #@! TO.C,R7*
X14087500Y-7000000D03*
X15912500Y-7000000D03*
G04 #@! TD*
D10*
G04 #@! TO.C,C10*
X75050000Y-20000000D03*
X76950000Y-20000000D03*
G04 #@! TD*
D15*
G04 #@! TO.C,SW2*
X12000000Y-38125000D03*
X18000000Y-38125000D03*
X12000000Y-41875000D03*
X18000000Y-41875000D03*
G04 #@! TD*
D10*
G04 #@! TO.C,C6*
X8050000Y-14000000D03*
X9950000Y-14000000D03*
G04 #@! TD*
G04 #@! TO.C,C9*
X23050000Y-34000000D03*
X24950000Y-34000000D03*
G04 #@! TD*
D15*
G04 #@! TO.C,SW3*
X3000000Y-25125000D03*
X9000000Y-25125000D03*
X3000000Y-28875000D03*
X9000000Y-28875000D03*
G04 #@! TD*
G04 #@! TO.C,SW5*
X73000000Y-25125000D03*
X79000000Y-25125000D03*
X73000000Y-28875000D03*
X79000000Y-28875000D03*
G04 #@! TD*
D10*
G04 #@! TO.C,C2*
X25050000Y-38000000D03*
X26950000Y-38000000D03*
G04 #@! TD*
D16*
G04 #@! TO.C,J1*
X39250000Y-46955000D03*
X40050000Y-46955000D03*
D17*
X41250000Y-46955000D03*
X42250000Y-46955000D03*
X42750000Y-46955000D03*
X43750000Y-46955000D03*
D16*
X44950000Y-46955000D03*
X45750000Y-46955000D03*
X45750000Y-46955000D03*
X44950000Y-46955000D03*
D17*
X44250000Y-46955000D03*
X43250000Y-46955000D03*
X41750000Y-46955000D03*
X40750000Y-46955000D03*
D16*
X40050000Y-46955000D03*
X39250000Y-46955000D03*
G04 #@! TD*
D13*
G04 #@! TO.C,R6*
X73087500Y-6000000D03*
X74912500Y-6000000D03*
G04 #@! TD*
G04 #@! TO.C,R13*
X64087500Y-44000000D03*
X65912500Y-44000000D03*
G04 #@! TD*
D14*
G04 #@! TO.C,D1*
X33062500Y-38000000D03*
X34937500Y-38000000D03*
G04 #@! TD*
D18*
G04 #@! TO.C,C11*
X37950000Y-18000000D03*
X36050000Y-18000000D03*
G04 #@! TD*
D15*
G04 #@! TO.C,SW1*
X12000000Y-12125000D03*
X18000000Y-12125000D03*
X12000000Y-15875000D03*
X18000000Y-15875000D03*
G04 #@! TD*
D10*
G04 #@! TO.C,C3*
X34050000Y-32000000D03*
X35950000Y-32000000D03*
G04 #@! TD*
D13*
G04 #@! TO.C,R10*
X23087500Y-20000000D03*
X24912500Y-20000000D03*
G04 #@! TD*
G04 #@! TO.C,R2*
X49087500Y-51000000D03*
X50912500Y-51000000D03*
G04 #@! TD*
G04 #@! TO.C,R8*
X14087500Y-47000000D03*
X15912500Y-47000000D03*
G04 #@! TD*
D10*
G04 #@! TO.C,C12*
X54050000Y-44000000D03*
X55950000Y-44000000D03*
G04 #@! TD*
G04 #@! TO.C,C5*
X40050000Y-22000000D03*
X41950000Y-22000000D03*
G04 #@! TD*
D15*
G04 #@! TO.C,SW_BOOT*
X75000000Y-10125000D03*
X81000000Y-10125000D03*
X75000000Y-13875000D03*
X81000000Y-13875000D03*
G04 #@! TD*
D13*
G04 #@! TO.C,R4*
X40087500Y-14000000D03*
X41912500Y-14000000D03*
G04 #@! TD*
G04 #@! TO.C,R3*
X40087500Y-10000000D03*
X41912500Y-10000000D03*
G04 #@! TD*
D19*
G04 #@! TO.C,U3*
X24850000Y-41700000D03*
X24850000Y-44000000D03*
D20*
X31150000Y-44000000D03*
D19*
X24850000Y-46300000D03*
G04 #@! TD*
D10*
G04 #@! TO.C,C8*
X5050000Y-34000000D03*
X6950000Y-34000000D03*
G04 #@! TD*
D15*
G04 #@! TO.C,SW4*
X21000000Y-25125000D03*
X27000000Y-25125000D03*
X21000000Y-28875000D03*
X27000000Y-28875000D03*
G04 #@! TD*
D10*
G04 #@! TO.C,C7*
X8050000Y-40000000D03*
X9950000Y-40000000D03*
G04 #@! TD*
D13*
G04 #@! TO.C,R11*
X75087500Y-34000000D03*
X76912500Y-34000000D03*
G04 #@! TD*
G04 #@! TO.C,R9*
X5087500Y-20000000D03*
X6912500Y-20000000D03*
G04 #@! TD*
G04 #@! TO.C,R5*
X70087500Y-37000000D03*
X71912500Y-37000000D03*
G04 #@! TD*
D21*
G04 #@! TO.C,U1*
X57860000Y-25100000D03*
X57860000Y-26200000D03*
X57860000Y-27300000D03*
X58960000Y-25100000D03*
X58960000Y-26200000D03*
X58960000Y-27300000D03*
X60060000Y-25100000D03*
X60060000Y-26200000D03*
X60060000Y-27300000D03*
D22*
X49250000Y-20000000D03*
X49250000Y-21500000D03*
X49250000Y-23000000D03*
X49250000Y-24500000D03*
X49250000Y-26000000D03*
X49250000Y-27500000D03*
X49250000Y-29000000D03*
X49250000Y-30500000D03*
X49250000Y-32000000D03*
X66750000Y-32000000D03*
X66750000Y-30500000D03*
X66750000Y-29000000D03*
X66750000Y-27500000D03*
X66750000Y-26000000D03*
X66750000Y-24500000D03*
X66750000Y-23000000D03*
X66750000Y-21500000D03*
X66750000Y-20000000D03*
G04 #@! TD*
D13*
G04 #@! TO.C,R12*
X38087500Y-38000000D03*
X39912500Y-38000000D03*
G04 #@! TD*
M02*
