G04 #@! TF.GenerationSoftware,KiCad,Pcbnew,9.0.2+dfsg-1*
G04 #@! TF.CreationDate,2026-09-14T12:34:58+07:00*
G04 #@! TF.ProjectId,esp32c3_controller,65737033-3263-4335-9f63-6f6e74726f6c,rev?*
G04 #@! TF.SameCoordinates,Original*
G04 #@! TF.FileFunction,Copper,L1,Top*
G04 #@! TF.FilePolarity,Positive*
%FSLAX46Y46*%
G04 Gerber Fmt 4.6, Leading zero omitted, Abs format (unit mm)*
G04 Created by KiCad (PCBNEW 9.0.2+dfsg-1) date 2026-09-14 12:34:58*
%MOMM*%
%LPD*%
G01*
G04 APERTURE LIST*
G04 Aperture macros list*
%AMRoundRect*
0 Rectangle with rounded corners*
0 $1 Rounding radius*
0 $2 $3 $4 $5 $6 $7 $8 $9 X,Y pos of 4 corners*
0 Add a 4 corners polygon primitive as box body*
4,1,4,$2,$3,$4,$5,$6,$7,$8,$9,$2,$3,0*
0 Add four circle primitives for the rounded corners*
1,1,$1+$1,$2,$3*
1,1,$1+$1,$4,$5*
1,1,$1+$1,$6,$7*
1,1,$1+$1,$8,$9*
0 Add four rect primitives between the rounded corners*
20,1,$1+$1,$2,$3,$4,$5,0*
20,1,$1+$1,$4,$5,$6,$7,0*
20,1,$1+$1,$6,$7,$8,$9,0*
20,1,$1+$1,$8,$9,$2,$3,0*%
G04 Aperture macros list end*
G04 #@! TA.AperFunction,SMDPad,CuDef*
%ADD10RoundRect,0.250000X-0.250000X-0.475000X0.250000X-0.475000X0.250000X0.475000X-0.250000X0.475000X0*%
G04 #@! TD*
G04 #@! TA.AperFunction,SMDPad,CuDef*
%ADD11RoundRect,0.075000X-0.350000X-0.075000X0.350000X-0.075000X0.350000X0.075000X-0.350000X0.075000X0*%
G04 #@! TD*
G04 #@! TA.AperFunction,SMDPad,CuDef*
%ADD12RoundRect,0.075000X0.075000X-0.350000X0.075000X0.350000X-0.075000X0.350000X-0.075000X-0.350000X0*%
G04 #@! TD*
G04 #@! TA.AperFunction,SMDPad,CuDef*
%ADD13RoundRect,0.250000X-0.262500X-0.450000X0.262500X-0.450000X0.262500X0.450000X-0.262500X0.450000X0*%
G04 #@! TD*
G04 #@! TA.AperFunction,SMDPad,CuDef*
%ADD14RoundRect,0.243750X-0.243750X-0.456250X0.243750X-0.456250X0.243750X0.456250X-0.243750X0.456250X0*%
G04 #@! TD*
G04 #@! TA.AperFunction,SMDPad,CuDef*
%ADD15R,1.000000X0.750000*%
G04 #@! TD*
G04 #@! TA.AperFunction,SMDPad,CuDef*
%ADD16R,0.600000X1.450000*%
G04 #@! TD*
G04 #@! TA.AperFunction,SMDPad,CuDef*
%ADD17R,0.300000X1.450000*%
G04 #@! TD*
G04 #@! TA.AperFunction,HeatsinkPad*
%ADD18O,1.000000X2.100000*%
G04 #@! TD*
G04 #@! TA.AperFunction,HeatsinkPad*
%ADD19O,1.000000X1.600000*%
G04 #@! TD*
G04 #@! TA.AperFunction,SMDPad,CuDef*
%ADD20RoundRect,0.250000X0.250000X0.475000X-0.250000X0.475000X-0.250000X-0.475000X0.250000X-0.475000X0*%
G04 #@! TD*
G04 #@! TA.AperFunction,ComponentPad*
%ADD21R,1.700000X1.700000*%
G04 #@! TD*
G04 #@! TA.AperFunction,ComponentPad*
%ADD22C,1.700000*%
G04 #@! TD*
G04 #@! TA.AperFunction,SMDPad,CuDef*
%ADD23RoundRect,0.375000X-0.625000X-0.375000X0.625000X-0.375000X0.625000X0.375000X-0.625000X0.375000X0*%
G04 #@! TD*
G04 #@! TA.AperFunction,SMDPad,CuDef*
%ADD24RoundRect,0.500000X-0.500000X-1.400000X0.500000X-1.400000X0.500000X1.400000X-0.500000X1.400000X0*%
G04 #@! TD*
G04 #@! TA.AperFunction,SMDPad,CuDef*
%ADD25R,1.500000X0.900000*%
G04 #@! TD*
G04 #@! TA.AperFunction,HeatsinkPad*
%ADD26C,0.600000*%
G04 #@! TD*
G04 #@! TA.AperFunction,HeatsinkPad*
%ADD27R,2.900000X2.900000*%
G04 #@! TD*
G04 #@! TA.AperFunction,ViaPad*
%ADD28C,0.600000*%
G04 #@! TD*
G04 #@! TA.AperFunction,Conductor*
%ADD29C,0.200000*%
G04 #@! TD*
G04 #@! TA.AperFunction,Conductor*
%ADD30C,0.250000*%
G04 #@! TD*
G04 #@! TA.AperFunction,Conductor*
%ADD31C,0.350000*%
G04 #@! TD*
G04 #@! TA.AperFunction,Conductor*
%ADD32C,0.180000*%
G04 #@! TD*
G04 APERTURE END LIST*
D10*
G04 #@! TO.P,C1,1*
G04 #@! TO.N,+5V*
X29050000Y-50000000D03*
G04 #@! TO.P,C1,2*
G04 #@! TO.N,GND*
X30950000Y-50000000D03*
G04 #@! TD*
G04 #@! TO.P,C4,1*
G04 #@! TO.N,ESP_EN*
X69050000Y-48000000D03*
G04 #@! TO.P,C4,2*
G04 #@! TO.N,GND*
X70950000Y-48000000D03*
G04 #@! TD*
D11*
G04 #@! TO.P,U2,1*
G04 #@! TO.N,GND*
X33050000Y-24750000D03*
G04 #@! TO.P,U2,2*
G04 #@! TO.N,N/C*
X33050000Y-25250000D03*
G04 #@! TO.P,U2,3*
X33050000Y-25750000D03*
G04 #@! TO.P,U2,4*
X33050000Y-26250000D03*
G04 #@! TO.P,U2,5*
X33050000Y-26750000D03*
G04 #@! TO.P,U2,6*
X33050000Y-27250000D03*
D12*
G04 #@! TO.P,U2,7*
X33750000Y-27950000D03*
G04 #@! TO.P,U2,8*
G04 #@! TO.N,+3.3V*
X34250000Y-27950000D03*
G04 #@! TO.P,U2,9*
G04 #@! TO.N,GND*
X34750000Y-27950000D03*
G04 #@! TO.P,U2,10*
G04 #@! TO.N,MPU_REGOUT*
X35250000Y-27950000D03*
G04 #@! TO.P,U2,11*
G04 #@! TO.N,GND*
X35750000Y-27950000D03*
G04 #@! TO.P,U2,12*
G04 #@! TO.N,MPU_INT*
X36250000Y-27950000D03*
D11*
G04 #@! TO.P,U2,13*
G04 #@! TO.N,+3.3V*
X36950000Y-27250000D03*
G04 #@! TO.P,U2,14*
G04 #@! TO.N,N/C*
X36950000Y-26750000D03*
G04 #@! TO.P,U2,15*
X36950000Y-26250000D03*
G04 #@! TO.P,U2,16*
X36950000Y-25750000D03*
G04 #@! TO.P,U2,17*
X36950000Y-25250000D03*
G04 #@! TO.P,U2,18*
G04 #@! TO.N,GND*
X36950000Y-24750000D03*
D12*
G04 #@! TO.P,U2,19*
X36250000Y-24050000D03*
G04 #@! TO.P,U2,20*
G04 #@! TO.N,MPU_CPOUT*
X35750000Y-24050000D03*
G04 #@! TO.P,U2,21*
G04 #@! TO.N,GND*
X35250000Y-24050000D03*
G04 #@! TO.P,U2,22*
X34750000Y-24050000D03*
G04 #@! TO.P,U2,23*
G04 #@! TO.N,I2C_SCL*
X34250000Y-24050000D03*
G04 #@! TO.P,U2,24*
G04 #@! TO.N,I2C_SDA*
X33750000Y-24050000D03*
G04 #@! TD*
D13*
G04 #@! TO.P,R1,1*
G04 #@! TO.N,CC1*
X34087500Y-51000000D03*
G04 #@! TO.P,R1,2*
G04 #@! TO.N,GND*
X35912500Y-51000000D03*
G04 #@! TD*
D14*
G04 #@! TO.P,D2,1*
G04 #@! TO.N,STATUS_LED_NET*
X59062500Y-44000000D03*
G04 #@! TO.P,D2,2*
G04 #@! TO.N,GND*
X60937500Y-44000000D03*
G04 #@! TD*
D15*
G04 #@! TO.P,SW_RST,1*
G04 #@! TO.N,ESP_EN*
X73000000Y-40125000D03*
X79000000Y-40125000D03*
G04 #@! TO.P,SW_RST,2*
G04 #@! TO.N,GND*
X73000000Y-43875000D03*
X79000000Y-43875000D03*
G04 #@! TD*
D13*
G04 #@! TO.P,R7,1*
G04 #@! TO.N,+3.3V*
X14087500Y-7000000D03*
G04 #@! TO.P,R7,2*
G04 #@! TO.N,BTN_UP*
X15912500Y-7000000D03*
G04 #@! TD*
D10*
G04 #@! TO.P,C10,1*
G04 #@! TO.N,BTN_SELECT*
X75050000Y-20000000D03*
G04 #@! TO.P,C10,2*
G04 #@! TO.N,GND*
X76950000Y-20000000D03*
G04 #@! TD*
D15*
G04 #@! TO.P,SW2,1*
G04 #@! TO.N,BTN_DOWN*
X12000000Y-38125000D03*
X18000000Y-38125000D03*
G04 #@! TO.P,SW2,2*
G04 #@! TO.N,GND*
X12000000Y-41875000D03*
X18000000Y-41875000D03*
G04 #@! TD*
D10*
G04 #@! TO.P,C6,1*
G04 #@! TO.N,BTN_UP*
X8050000Y-14000000D03*
G04 #@! TO.P,C6,2*
G04 #@! TO.N,GND*
X9950000Y-14000000D03*
G04 #@! TD*
G04 #@! TO.P,C9,1*
G04 #@! TO.N,BTN_RIGHT*
X23050000Y-34000000D03*
G04 #@! TO.P,C9,2*
G04 #@! TO.N,GND*
X24950000Y-34000000D03*
G04 #@! TD*
D15*
G04 #@! TO.P,SW3,1*
G04 #@! TO.N,BTN_LEFT*
X3000000Y-25125000D03*
X9000000Y-25125000D03*
G04 #@! TO.P,SW3,2*
G04 #@! TO.N,GND*
X3000000Y-28875000D03*
X9000000Y-28875000D03*
G04 #@! TD*
G04 #@! TO.P,SW5,1*
G04 #@! TO.N,BTN_SELECT*
X73000000Y-25125000D03*
X79000000Y-25125000D03*
G04 #@! TO.P,SW5,2*
G04 #@! TO.N,GND*
X73000000Y-28875000D03*
X79000000Y-28875000D03*
G04 #@! TD*
D10*
G04 #@! TO.P,C2,1*
G04 #@! TO.N,+3.3V*
X25050000Y-38000000D03*
G04 #@! TO.P,C2,2*
G04 #@! TO.N,GND*
X26950000Y-38000000D03*
G04 #@! TD*
D16*
G04 #@! TO.P,J1,A1*
G04 #@! TO.N,GND*
X39250000Y-46955000D03*
G04 #@! TO.P,J1,A4*
G04 #@! TO.N,+5V*
X40050000Y-46955000D03*
D17*
G04 #@! TO.P,J1,A5*
G04 #@! TO.N,CC1*
X41250000Y-46955000D03*
G04 #@! TO.P,J1,A6*
G04 #@! TO.N,USB_D_P*
X42250000Y-46955000D03*
G04 #@! TO.P,J1,A7*
G04 #@! TO.N,USB_D_N*
X42750000Y-46955000D03*
G04 #@! TO.P,J1,A8*
G04 #@! TO.N,N/C*
X43750000Y-46955000D03*
D16*
G04 #@! TO.P,J1,A9*
G04 #@! TO.N,+5V*
X44950000Y-46955000D03*
G04 #@! TO.P,J1,A12*
G04 #@! TO.N,GND*
X45750000Y-46955000D03*
G04 #@! TO.P,J1,B1*
X45750000Y-46955000D03*
G04 #@! TO.P,J1,B4*
G04 #@! TO.N,+5V*
X44950000Y-46955000D03*
D17*
G04 #@! TO.P,J1,B5*
G04 #@! TO.N,CC2*
X44250000Y-46955000D03*
G04 #@! TO.P,J1,B6*
G04 #@! TO.N,USB_D_P*
X43250000Y-46955000D03*
G04 #@! TO.P,J1,B7*
G04 #@! TO.N,USB_D_N*
X41750000Y-46955000D03*
G04 #@! TO.P,J1,B8*
G04 #@! TO.N,N/C*
X40750000Y-46955000D03*
D16*
G04 #@! TO.P,J1,B9*
G04 #@! TO.N,+5V*
X40050000Y-46955000D03*
G04 #@! TO.P,J1,B12*
G04 #@! TO.N,GND*
X39250000Y-46955000D03*
D18*
G04 #@! TO.P,J1,S1*
X38180000Y-47870000D03*
D19*
X38180000Y-52050000D03*
D18*
X46820000Y-47870000D03*
D19*
X46820000Y-52050000D03*
G04 #@! TD*
D13*
G04 #@! TO.P,R6,1*
G04 #@! TO.N,+3.3V*
X73087500Y-6000000D03*
G04 #@! TO.P,R6,2*
G04 #@! TO.N,ESP_BOOT*
X74912500Y-6000000D03*
G04 #@! TD*
G04 #@! TO.P,R13,1*
G04 #@! TO.N,STATUS_LED_NET*
X64087500Y-44000000D03*
G04 #@! TO.P,R13,2*
G04 #@! TO.N,GND*
X65912500Y-44000000D03*
G04 #@! TD*
D14*
G04 #@! TO.P,D1,1*
G04 #@! TO.N,PWR_LED_NET*
X33062500Y-38000000D03*
G04 #@! TO.P,D1,2*
G04 #@! TO.N,GND*
X34937500Y-38000000D03*
G04 #@! TD*
D20*
G04 #@! TO.P,C11,1*
G04 #@! TO.N,MPU_CPOUT*
X37950000Y-18000000D03*
G04 #@! TO.P,C11,2*
G04 #@! TO.N,GND*
X36050000Y-18000000D03*
G04 #@! TD*
D15*
G04 #@! TO.P,SW1,1*
G04 #@! TO.N,BTN_UP*
X12000000Y-12125000D03*
X18000000Y-12125000D03*
G04 #@! TO.P,SW1,2*
G04 #@! TO.N,GND*
X12000000Y-15875000D03*
X18000000Y-15875000D03*
G04 #@! TD*
D10*
G04 #@! TO.P,C3,1*
G04 #@! TO.N,MPU_REGOUT*
X34050000Y-32000000D03*
G04 #@! TO.P,C3,2*
G04 #@! TO.N,GND*
X35950000Y-32000000D03*
G04 #@! TD*
D13*
G04 #@! TO.P,R10,1*
G04 #@! TO.N,+3.3V*
X23087500Y-20000000D03*
G04 #@! TO.P,R10,2*
G04 #@! TO.N,BTN_RIGHT*
X24912500Y-20000000D03*
G04 #@! TD*
G04 #@! TO.P,R2,1*
G04 #@! TO.N,CC2*
X49087500Y-51000000D03*
G04 #@! TO.P,R2,2*
G04 #@! TO.N,GND*
X50912500Y-51000000D03*
G04 #@! TD*
G04 #@! TO.P,R8,1*
G04 #@! TO.N,+3.3V*
X14087500Y-47000000D03*
G04 #@! TO.P,R8,2*
G04 #@! TO.N,BTN_DOWN*
X15912500Y-47000000D03*
G04 #@! TD*
D10*
G04 #@! TO.P,C12,1*
G04 #@! TO.N,+3.3V*
X54050000Y-44000000D03*
G04 #@! TO.P,C12,2*
G04 #@! TO.N,GND*
X55950000Y-44000000D03*
G04 #@! TD*
G04 #@! TO.P,C5,1*
G04 #@! TO.N,+3.3V*
X40050000Y-22000000D03*
G04 #@! TO.P,C5,2*
G04 #@! TO.N,GND*
X41950000Y-22000000D03*
G04 #@! TD*
D15*
G04 #@! TO.P,SW_BOOT,1*
G04 #@! TO.N,ESP_BOOT*
X75000000Y-10125000D03*
X81000000Y-10125000D03*
G04 #@! TO.P,SW_BOOT,2*
G04 #@! TO.N,GND*
X75000000Y-13875000D03*
X81000000Y-13875000D03*
G04 #@! TD*
D21*
G04 #@! TO.P,J2,1*
G04 #@! TO.N,GND*
X35000000Y-7000000D03*
D22*
G04 #@! TO.P,J2,2*
G04 #@! TO.N,+3.3V*
X35000000Y-9540000D03*
G04 #@! TO.P,J2,3*
G04 #@! TO.N,I2C_SCL*
X35000000Y-12080000D03*
G04 #@! TO.P,J2,4*
G04 #@! TO.N,I2C_SDA*
X35000000Y-14620000D03*
G04 #@! TD*
D13*
G04 #@! TO.P,R4,1*
G04 #@! TO.N,+3.3V*
X40087500Y-14000000D03*
G04 #@! TO.P,R4,2*
G04 #@! TO.N,I2C_SCL*
X41912500Y-14000000D03*
G04 #@! TD*
G04 #@! TO.P,R3,1*
G04 #@! TO.N,+3.3V*
X40087500Y-10000000D03*
G04 #@! TO.P,R3,2*
G04 #@! TO.N,I2C_SDA*
X41912500Y-10000000D03*
G04 #@! TD*
D23*
G04 #@! TO.P,U3,1*
G04 #@! TO.N,GND*
X24850000Y-41700000D03*
G04 #@! TO.P,U3,2*
G04 #@! TO.N,+3.3V*
X24850000Y-44000000D03*
D24*
X31150000Y-44000000D03*
D23*
G04 #@! TO.P,U3,3*
G04 #@! TO.N,+5V*
X24850000Y-46300000D03*
G04 #@! TD*
D10*
G04 #@! TO.P,C8,1*
G04 #@! TO.N,BTN_LEFT*
X5050000Y-34000000D03*
G04 #@! TO.P,C8,2*
G04 #@! TO.N,GND*
X6950000Y-34000000D03*
G04 #@! TD*
D15*
G04 #@! TO.P,SW4,1*
G04 #@! TO.N,BTN_RIGHT*
X21000000Y-25125000D03*
X27000000Y-25125000D03*
G04 #@! TO.P,SW4,2*
G04 #@! TO.N,GND*
X21000000Y-28875000D03*
X27000000Y-28875000D03*
G04 #@! TD*
D10*
G04 #@! TO.P,C7,1*
G04 #@! TO.N,BTN_DOWN*
X8050000Y-40000000D03*
G04 #@! TO.P,C7,2*
G04 #@! TO.N,GND*
X9950000Y-40000000D03*
G04 #@! TD*
D13*
G04 #@! TO.P,R11,1*
G04 #@! TO.N,+3.3V*
X75087500Y-34000000D03*
G04 #@! TO.P,R11,2*
G04 #@! TO.N,BTN_SELECT*
X76912500Y-34000000D03*
G04 #@! TD*
G04 #@! TO.P,R9,1*
G04 #@! TO.N,+3.3V*
X5087500Y-20000000D03*
G04 #@! TO.P,R9,2*
G04 #@! TO.N,BTN_LEFT*
X6912500Y-20000000D03*
G04 #@! TD*
G04 #@! TO.P,R5,1*
G04 #@! TO.N,+3.3V*
X70087500Y-37000000D03*
G04 #@! TO.P,R5,2*
G04 #@! TO.N,ESP_EN*
X71912500Y-37000000D03*
G04 #@! TD*
D25*
G04 #@! TO.P,U1,1*
G04 #@! TO.N,+3.3V*
X49250000Y-20000000D03*
G04 #@! TO.P,U1,2*
G04 #@! TO.N,ESP_EN*
X49250000Y-21500000D03*
G04 #@! TO.P,U1,3*
G04 #@! TO.N,I2C_SDA*
X49250000Y-23000000D03*
G04 #@! TO.P,U1,4*
G04 #@! TO.N,I2C_SCL*
X49250000Y-24500000D03*
G04 #@! TO.P,U1,5*
G04 #@! TO.N,MPU_INT*
X49250000Y-26000000D03*
G04 #@! TO.P,U1,6*
G04 #@! TO.N,BTN_SELECT*
X49250000Y-27500000D03*
G04 #@! TO.P,U1,7*
G04 #@! TO.N,STATUS_LED_NET*
X49250000Y-29000000D03*
G04 #@! TO.P,U1,8*
G04 #@! TO.N,ESP_BOOT*
X49250000Y-30500000D03*
G04 #@! TO.P,U1,9*
G04 #@! TO.N,GND*
X49250000Y-32000000D03*
G04 #@! TO.P,U1,10*
G04 #@! TO.N,N/C*
X66750000Y-32000000D03*
G04 #@! TO.P,U1,11*
X66750000Y-30500000D03*
G04 #@! TO.P,U1,12*
X66750000Y-29000000D03*
G04 #@! TO.P,U1,13*
G04 #@! TO.N,USB_D_N*
X66750000Y-27500000D03*
G04 #@! TO.P,U1,14*
G04 #@! TO.N,USB_D_P*
X66750000Y-26000000D03*
G04 #@! TO.P,U1,15*
G04 #@! TO.N,BTN_RIGHT*
X66750000Y-24500000D03*
G04 #@! TO.P,U1,16*
G04 #@! TO.N,BTN_LEFT*
X66750000Y-23000000D03*
G04 #@! TO.P,U1,17*
G04 #@! TO.N,BTN_DOWN*
X66750000Y-21500000D03*
G04 #@! TO.P,U1,18*
G04 #@! TO.N,BTN_UP*
X66750000Y-20000000D03*
D26*
G04 #@! TO.P,U1,19*
G04 #@! TO.N,GND*
X57860000Y-25650000D03*
X57860000Y-26750000D03*
X58410000Y-25100000D03*
X58410000Y-26200000D03*
X58410000Y-27300000D03*
X58960000Y-25650000D03*
D27*
X58960000Y-26200000D03*
D26*
X58960000Y-26750000D03*
X59510000Y-25100000D03*
X59510000Y-26200000D03*
X59510000Y-27300000D03*
X60060000Y-25650000D03*
X60060000Y-26750000D03*
G04 #@! TD*
D13*
G04 #@! TO.P,R12,1*
G04 #@! TO.N,+3.3V*
X38087500Y-38000000D03*
G04 #@! TO.P,R12,2*
G04 #@! TO.N,PWR_LED_NET*
X39912500Y-38000000D03*
G04 #@! TD*
D28*
G04 #@! TO.N,GND*
X20000000Y-42000000D03*
X42500000Y-22000000D03*
X55000000Y-36000000D03*
X52500000Y-31200000D03*
X75000000Y-48000000D03*
X10000000Y-48000000D03*
X32500000Y-30000000D03*
X38500000Y-24750000D03*
X44000000Y-28500000D03*
X40000000Y-32500000D03*
X37000000Y-20000000D03*
X58960000Y-26200000D03*
X10000000Y-10000000D03*
X36500000Y-38000000D03*
X35000000Y-23300000D03*
X70000000Y-24000000D03*
X31500000Y-24750000D03*
X48500000Y-52500000D03*
X26500000Y-34000000D03*
X34750000Y-33500000D03*
X47500000Y-48000000D03*
X37500000Y-48000000D03*
X43000000Y-27000000D03*
G04 #@! TO.N,+5V*
X40050000Y-47000000D03*
X24850000Y-46300000D03*
X44950000Y-47000000D03*
G04 #@! TO.N,+3.3V*
X39250000Y-27250000D03*
X39750000Y-16750000D03*
X38000000Y-10000000D03*
X50750000Y-44000000D03*
X14750000Y-20000000D03*
X38250000Y-14750000D03*
X14750000Y-8750000D03*
X44500000Y-20250000D03*
X51000000Y-37000000D03*
X39250000Y-39750000D03*
G04 #@! TO.N,I2C_SDA*
X37500000Y-11500000D03*
X32000000Y-22500000D03*
G04 #@! TO.N,I2C_SCL*
X34250000Y-21000000D03*
G04 #@! TO.N,USB_D_P*
X68500000Y-26000000D03*
X50000000Y-36500000D03*
X46000000Y-37500000D03*
G04 #@! TO.N,ESP_EN*
X69250000Y-40000000D03*
X64000000Y-20750000D03*
G04 #@! TO.N,ESP_BOOT*
X72500000Y-10000000D03*
X56750000Y-30500000D03*
G04 #@! TO.N,BTN_UP*
X41250000Y-16000000D03*
X51500000Y-20000000D03*
G04 #@! TO.N,BTN_DOWN*
X30500000Y-35750000D03*
X51500000Y-32750000D03*
X51500000Y-21500000D03*
X32000000Y-34250000D03*
G04 #@! TO.N,BTN_LEFT*
X37250000Y-21000000D03*
X52250000Y-23000000D03*
G04 #@! TO.N,BTN_RIGHT*
X32750000Y-35000000D03*
X23750000Y-18250000D03*
X61500000Y-24500000D03*
X23750000Y-24250000D03*
X30500000Y-32500000D03*
X57000000Y-32750000D03*
G04 #@! TO.N,BTN_SELECT*
X64750000Y-22250000D03*
X68750000Y-22250000D03*
G04 #@! TO.N,STATUS_LED_NET*
X57750000Y-34250000D03*
X57750000Y-42500000D03*
G04 #@! TD*
D29*
G04 #@! TO.N,GND*
X37000000Y-24750000D02*
X38500000Y-24750000D01*
X34750000Y-30000000D02*
X32500000Y-30000000D01*
D30*
X39250000Y-46950000D02*
X38180000Y-47870000D01*
D29*
X35250000Y-24050000D02*
X35250000Y-23300000D01*
D30*
X24950000Y-34000000D02*
X26500000Y-34000000D01*
D31*
X46820000Y-47870000D02*
X47500000Y-48000000D01*
D29*
X35950000Y-31000000D02*
X35950000Y-32000000D01*
X35750000Y-27950000D02*
X35750000Y-31000000D01*
D30*
X35950000Y-20000000D02*
X37000000Y-20000000D01*
D29*
X36250000Y-24050000D02*
X37000000Y-24050000D01*
D30*
X45750000Y-46950000D02*
X46820000Y-47870000D01*
D29*
X34750000Y-24050000D02*
X34750000Y-23300000D01*
D30*
X36950000Y-24750000D02*
X38500000Y-24750000D01*
D29*
X34750000Y-27950000D02*
X34750000Y-30000000D01*
D30*
X33049999Y-24750000D02*
X31500000Y-24750000D01*
D31*
X38180000Y-47870000D02*
X37500000Y-48000000D01*
D29*
X35750000Y-31000000D02*
X35950000Y-31000000D01*
D30*
X34940000Y-38000000D02*
X36500000Y-38000000D01*
D29*
X34750000Y-23300000D02*
X35250000Y-23300000D01*
X37000000Y-24050000D02*
X37000000Y-24750000D01*
D30*
X41950000Y-22000000D02*
X42500000Y-22000000D01*
D31*
G04 #@! TO.N,+5V*
X24850000Y-46300000D02*
X29050000Y-46300000D01*
D30*
X40050000Y-46950000D02*
X40050000Y-47000000D01*
D31*
X29050000Y-46300000D02*
X29050000Y-50000000D01*
D30*
X44950000Y-46950000D02*
X44950000Y-47000000D01*
D31*
G04 #@! TO.N,+3.3V*
X23250000Y-44750000D02*
X24750000Y-44750000D01*
D29*
X34250000Y-28750000D02*
X31150000Y-28750000D01*
D31*
X14750000Y-18500000D02*
X14750000Y-20000000D01*
X14750000Y-47000000D02*
X14750000Y-47500000D01*
D29*
X36950000Y-27250000D02*
X38500000Y-27250000D01*
D31*
X5750000Y-19500000D02*
X6000000Y-19500000D01*
X26000000Y-36500000D02*
X31250000Y-36500000D01*
X25000000Y-36750000D02*
X26000000Y-36750000D01*
X23000000Y-20000000D02*
X14750000Y-20000000D01*
X49250000Y-20000000D02*
X44500000Y-20000000D01*
X38000000Y-9500000D02*
X38000000Y-10000000D01*
X38750000Y-38500000D02*
X39000000Y-38500000D01*
X38500000Y-27250000D02*
X39250000Y-27250000D01*
X25050000Y-36500000D02*
X25050000Y-38000000D01*
X31250000Y-39500000D02*
X39000000Y-39500000D01*
X35000000Y-9500000D02*
X38000000Y-9500000D01*
X44500000Y-20000000D02*
X44500000Y-20250000D01*
X31150000Y-44000000D02*
X31150000Y-36500000D01*
X73000000Y-6000000D02*
X40000000Y-6000000D01*
X54000000Y-44000000D02*
X50750000Y-44000000D01*
X5000000Y-20000000D02*
X5750000Y-20000000D01*
X38750000Y-38000000D02*
X38750000Y-38500000D01*
X5750000Y-20000000D02*
X5750000Y-19500000D01*
D29*
X34250000Y-27950000D02*
X34250000Y-28750000D01*
D31*
X24750000Y-44750000D02*
X24750000Y-44000000D01*
D29*
X31150000Y-29000000D02*
X31150000Y-36500000D01*
D31*
X31250000Y-36500000D02*
X31250000Y-39500000D01*
X25000000Y-38000000D02*
X25000000Y-36750000D01*
X39250000Y-16500000D02*
X23000000Y-16500000D01*
X70000000Y-34000000D02*
X70000000Y-37000000D01*
X31150000Y-36500000D02*
X25050000Y-36500000D01*
X39750000Y-16750000D02*
X39250000Y-16750000D01*
X14750000Y-8750000D02*
X14000000Y-8750000D01*
X70000000Y-37000000D02*
X51000000Y-37000000D01*
X14000000Y-8750000D02*
X14000000Y-7000000D01*
X26000000Y-36750000D02*
X26000000Y-36500000D01*
X31250000Y-44000000D02*
X31250000Y-39500000D01*
X39000000Y-39500000D02*
X39250000Y-39500000D01*
X15000000Y-48500000D02*
X23000000Y-48500000D01*
X40000000Y-14000000D02*
X38250000Y-14000000D01*
X24850000Y-44000000D02*
X31150000Y-44000000D01*
X23000000Y-45250000D02*
X23250000Y-45250000D01*
X24750000Y-44000000D02*
X31250000Y-44000000D01*
X6000000Y-18500000D02*
X14750000Y-18500000D01*
X39250000Y-22000000D02*
X39250000Y-16500000D01*
X6000000Y-19500000D02*
X6000000Y-18500000D01*
X14750000Y-47500000D02*
X15000000Y-47500000D01*
X75000000Y-34000000D02*
X70000000Y-34000000D01*
X39250000Y-27250000D02*
X39250000Y-22000000D01*
X23000000Y-16500000D02*
X23000000Y-20000000D01*
D29*
X31150000Y-28750000D02*
X31150000Y-29000000D01*
D31*
X40000000Y-6000000D02*
X40000000Y-10000000D01*
X39250000Y-39500000D02*
X39250000Y-39750000D01*
X40000000Y-10000000D02*
X38000000Y-10000000D01*
X23000000Y-48500000D02*
X23000000Y-45250000D01*
X38000000Y-38000000D02*
X38750000Y-38000000D01*
X40000000Y-22000000D02*
X39250000Y-22000000D01*
X39000000Y-38500000D02*
X39000000Y-39500000D01*
X14000000Y-47000000D02*
X14750000Y-47000000D01*
X15000000Y-47500000D02*
X15000000Y-48500000D01*
X38250000Y-14000000D02*
X38250000Y-14750000D01*
X23250000Y-45250000D02*
X23250000Y-44750000D01*
D29*
G04 #@! TO.N,I2C_SDA*
X33750000Y-22500000D02*
X32000000Y-22500000D01*
D30*
X41750000Y-12000000D02*
X41250000Y-12000000D01*
X43750000Y-23000000D02*
X43750000Y-20000000D01*
X43250000Y-20000000D02*
X43250000Y-12500000D01*
X43250000Y-12500000D02*
X41750000Y-12500000D01*
X41250000Y-10000000D02*
X41250000Y-11500000D01*
X41250000Y-11500000D02*
X37500000Y-11500000D01*
X49250000Y-23000000D02*
X43750000Y-23000000D01*
X43750000Y-20000000D02*
X43250000Y-20000000D01*
D29*
X33750000Y-24050000D02*
X33750000Y-22500000D01*
D30*
X41250000Y-12000000D02*
X41250000Y-11500000D01*
X42000000Y-10000000D02*
X41250000Y-10000000D01*
X41750000Y-12500000D02*
X41750000Y-12000000D01*
G04 #@! TO.N,I2C_SCL*
X42000000Y-14000000D02*
X41250000Y-14000000D01*
X41250000Y-14000000D02*
X41250000Y-12500000D01*
D29*
X34250000Y-24050000D02*
X34250000Y-21000000D01*
D30*
X41250000Y-12500000D02*
X35000000Y-12500000D01*
X42000000Y-20500000D02*
X42000000Y-14000000D01*
X35000000Y-12500000D02*
X35000000Y-12000000D01*
X49250000Y-24500000D02*
X43250000Y-24500000D01*
X43250000Y-24500000D02*
X43250000Y-20500000D01*
X43250000Y-20500000D02*
X42000000Y-20500000D01*
D29*
G04 #@! TO.N,MPU_INT*
X45000000Y-30500000D02*
X45000000Y-26000000D01*
X45000000Y-26000000D02*
X49250000Y-26000000D01*
X37000000Y-30500000D02*
X45000000Y-30500000D01*
X37000000Y-27950000D02*
X37000000Y-30500000D01*
X36250000Y-27950000D02*
X37000000Y-27950000D01*
G04 #@! TO.N,MPU_REGOUT*
X35250000Y-27950000D02*
X35250000Y-31000000D01*
X34050000Y-31000000D02*
X34050000Y-32000000D01*
X35250000Y-31000000D02*
X34050000Y-31000000D01*
G04 #@! TO.N,MPU_CPOUT*
X35750000Y-22000000D02*
X37950000Y-22000000D01*
X35750000Y-24050000D02*
X35750000Y-22000000D01*
X37950000Y-22000000D02*
X37950000Y-18000000D01*
D30*
G04 #@! TO.N,USB_D_N*
X44000000Y-35000000D02*
X48000000Y-35000000D01*
D29*
X44000000Y-42000000D02*
X44000000Y-35000000D01*
D32*
X41750000Y-46950000D02*
X41750000Y-42000000D01*
D29*
X48000000Y-44000000D02*
X48000000Y-35000000D01*
X42750000Y-44000000D02*
X48000000Y-44000000D01*
D30*
X48000000Y-35000000D02*
X68500000Y-35000000D01*
X68500000Y-27500000D02*
X66750000Y-27500000D01*
D32*
X42750000Y-46950000D02*
X42750000Y-44000000D01*
D29*
X41750000Y-42000000D02*
X44000000Y-42000000D01*
D30*
X68500000Y-35000000D02*
X68500000Y-27500000D01*
D29*
G04 #@! TO.N,USB_D_P*
X43250000Y-45000000D02*
X50000000Y-45000000D01*
D32*
X43250000Y-46950000D02*
X43250000Y-45000000D01*
D29*
X42250000Y-43000000D02*
X46000000Y-43000000D01*
X46000000Y-43000000D02*
X46000000Y-37500000D01*
D30*
X68500000Y-26000000D02*
X66750000Y-26000000D01*
D32*
X42250000Y-46950000D02*
X42250000Y-43000000D01*
D29*
X50000000Y-45000000D02*
X50000000Y-36500000D01*
D30*
G04 #@! TO.N,CC1*
X34090000Y-45750000D02*
X34090000Y-51000000D01*
D32*
X41250000Y-46950000D02*
X41250000Y-45750000D01*
D30*
X41250000Y-45750000D02*
X34090000Y-45750000D01*
G04 #@! TO.N,CC2*
X49090000Y-45750000D02*
X49090000Y-51000000D01*
D32*
X44250000Y-46950000D02*
X44250000Y-45750000D01*
D30*
X44250000Y-45750000D02*
X49090000Y-45750000D01*
G04 #@! TO.N,ESP_EN*
X50750000Y-21500000D02*
X50750000Y-20750000D01*
X73000000Y-40000000D02*
X69000000Y-40000000D01*
X49250000Y-21500000D02*
X50750000Y-21500000D01*
X69000000Y-40000000D02*
X69000000Y-48000000D01*
X72000000Y-37000000D02*
X72000000Y-40000000D01*
X73000000Y-40120000D02*
X79000000Y-40120000D01*
X50750000Y-20750000D02*
X64000000Y-20750000D01*
G04 #@! TO.N,ESP_BOOT*
X72500000Y-10000000D02*
X75000000Y-10000000D01*
X75000000Y-10120000D02*
X81000000Y-10120000D01*
X49250000Y-30500000D02*
X56750000Y-30500000D01*
X75000000Y-10000000D02*
X75000000Y-6000000D01*
G04 #@! TO.N,BTN_UP*
X9000000Y-14000000D02*
X9000000Y-12500000D01*
X12000000Y-12120000D02*
X18000000Y-12120000D01*
X66750000Y-20000000D02*
X51500000Y-20000000D01*
X9000000Y-12500000D02*
X12000000Y-12500000D01*
X12000000Y-12500000D02*
X12000000Y-12000000D01*
X8000000Y-14000000D02*
X9000000Y-14000000D01*
X19250000Y-16000000D02*
X19250000Y-15000000D01*
X19250000Y-15000000D02*
X16000000Y-15000000D01*
X41250000Y-16000000D02*
X19250000Y-16000000D01*
X16000000Y-15000000D02*
X16000000Y-12000000D01*
X12000000Y-12000000D02*
X16000000Y-12000000D01*
X16000000Y-12000000D02*
X16000000Y-7000000D01*
G04 #@! TO.N,BTN_DOWN*
X8000000Y-40000000D02*
X9000000Y-40000000D01*
X51500000Y-32750000D02*
X50750000Y-32750000D01*
X50750000Y-32750000D02*
X50750000Y-33250000D01*
X37250000Y-33250000D02*
X37250000Y-33500000D01*
X9000000Y-38500000D02*
X12000000Y-38500000D01*
X15250000Y-45500000D02*
X9000000Y-45500000D01*
X12000000Y-38500000D02*
X12000000Y-38000000D01*
X9000000Y-45500000D02*
X9000000Y-40000000D01*
X12000000Y-35750000D02*
X12000000Y-38000000D01*
X12000000Y-38120000D02*
X18000000Y-38120000D01*
X35500000Y-34250000D02*
X32000000Y-34250000D01*
X37250000Y-33500000D02*
X35500000Y-33500000D01*
X35500000Y-33500000D02*
X35500000Y-34250000D01*
X66750000Y-21500000D02*
X51500000Y-21500000D01*
X30500000Y-35750000D02*
X12000000Y-35750000D01*
X50750000Y-33250000D02*
X37250000Y-33250000D01*
X16000000Y-47000000D02*
X15250000Y-47000000D01*
X9000000Y-40000000D02*
X9000000Y-38500000D01*
X15250000Y-47000000D02*
X15250000Y-45500000D01*
G04 #@! TO.N,BTN_LEFT*
X5000000Y-34000000D02*
X4250000Y-34000000D01*
X3000000Y-21500000D02*
X3000000Y-25000000D01*
X6250000Y-20000000D02*
X6250000Y-21500000D01*
X35000000Y-20250000D02*
X26250000Y-20250000D01*
X66750000Y-23000000D02*
X52250000Y-23000000D01*
X7000000Y-20000000D02*
X6250000Y-20000000D01*
X6250000Y-21500000D02*
X3000000Y-21500000D01*
X26250000Y-20250000D02*
X26250000Y-21500000D01*
X26250000Y-21500000D02*
X6250000Y-21500000D01*
X4250000Y-28000000D02*
X3000000Y-28000000D01*
X3000000Y-25120000D02*
X9000000Y-25120000D01*
X37250000Y-21000000D02*
X35000000Y-21000000D01*
X4250000Y-34000000D02*
X4250000Y-28000000D01*
X3000000Y-28000000D02*
X3000000Y-25000000D01*
X35000000Y-21000000D02*
X35000000Y-20250000D01*
G04 #@! TO.N,BTN_RIGHT*
X24250000Y-18500000D02*
X23750000Y-18500000D01*
X36000000Y-34000000D02*
X36000000Y-34750000D01*
X51250000Y-33750000D02*
X37750000Y-33750000D01*
X52250000Y-33500000D02*
X51250000Y-33500000D01*
X21000000Y-25120000D02*
X27000000Y-25120000D01*
X37750000Y-34000000D02*
X36000000Y-34000000D01*
X32750000Y-34750000D02*
X32750000Y-35000000D01*
X52250000Y-32750000D02*
X52250000Y-33500000D01*
X36000000Y-34750000D02*
X32750000Y-34750000D01*
X51250000Y-33500000D02*
X51250000Y-33750000D01*
X57000000Y-32750000D02*
X52250000Y-32750000D01*
X24250000Y-20000000D02*
X24250000Y-18500000D01*
X23000000Y-25000000D02*
X23000000Y-34000000D01*
X25000000Y-20000000D02*
X24250000Y-20000000D01*
X37750000Y-33750000D02*
X37750000Y-34000000D01*
X30500000Y-32500000D02*
X23000000Y-32500000D01*
X23000000Y-24250000D02*
X23000000Y-25000000D01*
X66750000Y-24500000D02*
X61500000Y-24500000D01*
X23750000Y-18500000D02*
X23750000Y-18250000D01*
X23750000Y-24250000D02*
X23000000Y-24250000D01*
X21000000Y-25000000D02*
X23000000Y-25000000D01*
G04 #@! TO.N,BTN_SELECT*
X51500000Y-27500000D02*
X51500000Y-22250000D01*
X73000000Y-25120000D02*
X79000000Y-25120000D01*
X68750000Y-22250000D02*
X75000000Y-22250000D01*
X75000000Y-32500000D02*
X75000000Y-25000000D01*
X73000000Y-25000000D02*
X75000000Y-25000000D01*
X77000000Y-34000000D02*
X76250000Y-34000000D01*
X76250000Y-32500000D02*
X75000000Y-32500000D01*
X76250000Y-34000000D02*
X76250000Y-32500000D01*
X49250000Y-27500000D02*
X51500000Y-27500000D01*
X75000000Y-25000000D02*
X75000000Y-20000000D01*
X51500000Y-22250000D02*
X64750000Y-22250000D01*
G04 #@! TO.N,STATUS_LED_NET*
X49250000Y-29000000D02*
X57750000Y-29000000D01*
X64000000Y-44000000D02*
X62250000Y-44000000D01*
X62250000Y-44000000D02*
X62250000Y-42500000D01*
X62250000Y-42500000D02*
X59000000Y-42500000D01*
X57750000Y-42500000D02*
X59000000Y-42500000D01*
X57750000Y-29000000D02*
X57750000Y-34250000D01*
X59000000Y-42500000D02*
X59000000Y-44000000D01*
G04 #@! TO.N,PWR_LED_NET*
X40000000Y-38000000D02*
X39250000Y-38000000D01*
X33000000Y-36500000D02*
X33000000Y-38000000D01*
X39250000Y-36500000D02*
X33000000Y-36500000D01*
X39250000Y-38000000D02*
X39250000Y-36500000D01*
G04 #@! TD*
G04 #@! TA.AperFunction,Conductor*
G04 #@! TO.N,GND*
G36*
X82807863Y-1019685D02*
G01*
X82828505Y-1036319D01*
X83963681Y-2171495D01*
X83997166Y-2232818D01*
X84000000Y-2259176D01*
X84000000Y-52740824D01*
X83980315Y-52807863D01*
X83963681Y-52828505D01*
X82828505Y-53963681D01*
X82767182Y-53997166D01*
X82740824Y-54000000D01*
X48124000Y-54000000D01*
X48056961Y-53980315D01*
X48011206Y-53927511D01*
X48000000Y-53876000D01*
X48000000Y-51979295D01*
X48019685Y-51912256D01*
X48072489Y-51866501D01*
X48141647Y-51856557D01*
X48205203Y-51885582D01*
X48229538Y-51914198D01*
X48232288Y-51918656D01*
X48356344Y-52042712D01*
X48505666Y-52134814D01*
X48672203Y-52189999D01*
X48774991Y-52200500D01*
X49400008Y-52200499D01*
X49400016Y-52200498D01*
X49400019Y-52200498D01*
X49456302Y-52194748D01*
X49502797Y-52189999D01*
X49669334Y-52134814D01*
X49818656Y-52042712D01*
X49942712Y-51918656D01*
X50034814Y-51769334D01*
X50034817Y-51769323D01*
X50035428Y-51768016D01*
X50036090Y-51767262D01*
X50038605Y-51763187D01*
X50039301Y-51763616D01*
X50081596Y-51715573D01*
X50148788Y-51696416D01*
X50215671Y-51716626D01*
X50247081Y-51746101D01*
X50292813Y-51807190D01*
X50407906Y-51893350D01*
X50407913Y-51893354D01*
X50542620Y-51943596D01*
X50542627Y-51943598D01*
X50602155Y-51949999D01*
X50602172Y-51950000D01*
X50787500Y-51950000D01*
X51037500Y-51950000D01*
X51222828Y-51950000D01*
X51222844Y-51949999D01*
X51282372Y-51943598D01*
X51282379Y-51943596D01*
X51417086Y-51893354D01*
X51417093Y-51893350D01*
X51532187Y-51807190D01*
X51532190Y-51807187D01*
X51618350Y-51692093D01*
X51618354Y-51692086D01*
X51668596Y-51557379D01*
X51668598Y-51557372D01*
X51674999Y-51497844D01*
X51675000Y-51497827D01*
X51675000Y-51125000D01*
X51037500Y-51125000D01*
X51037500Y-51950000D01*
X50787500Y-51950000D01*
X50787500Y-50878711D01*
X79149500Y-50878711D01*
X79149500Y-51121288D01*
X79181161Y-51361785D01*
X79243947Y-51596104D01*
X79331381Y-51807187D01*
X79336776Y-51820212D01*
X79458064Y-52030289D01*
X79458066Y-52030292D01*
X79458067Y-52030293D01*
X79605733Y-52222736D01*
X79605739Y-52222743D01*
X79777256Y-52394260D01*
X79777263Y-52394266D01*
X79870483Y-52465796D01*
X79969711Y-52541936D01*
X80179788Y-52663224D01*
X80403900Y-52756054D01*
X80638211Y-52818838D01*
X80818586Y-52842584D01*
X80878711Y-52850500D01*
X80878712Y-52850500D01*
X81121289Y-52850500D01*
X81169388Y-52844167D01*
X81361789Y-52818838D01*
X81596100Y-52756054D01*
X81820212Y-52663224D01*
X82030289Y-52541936D01*
X82222738Y-52394265D01*
X82394265Y-52222738D01*
X82541936Y-52030289D01*
X82663224Y-51820212D01*
X82756054Y-51596100D01*
X82818838Y-51361789D01*
X82850500Y-51121288D01*
X82850500Y-50878712D01*
X82818838Y-50638211D01*
X82756054Y-50403900D01*
X82663224Y-50179788D01*
X82541936Y-49969711D01*
X82430476Y-49824453D01*
X82394266Y-49777263D01*
X82394260Y-49777256D01*
X82222743Y-49605739D01*
X82222736Y-49605733D01*
X82030293Y-49458067D01*
X82030292Y-49458066D01*
X82030289Y-49458064D01*
X81820212Y-49336776D01*
X81776259Y-49318570D01*
X81596104Y-49243947D01*
X81361785Y-49181161D01*
X81121289Y-49149500D01*
X81121288Y-49149500D01*
X80878712Y-49149500D01*
X80878711Y-49149500D01*
X80638214Y-49181161D01*
X80403895Y-49243947D01*
X80179794Y-49336773D01*
X80179785Y-49336777D01*
X79969706Y-49458067D01*
X79777263Y-49605733D01*
X79777256Y-49605739D01*
X79605739Y-49777256D01*
X79605733Y-49777263D01*
X79458067Y-49969706D01*
X79336777Y-50179785D01*
X79336773Y-50179794D01*
X79243947Y-50403895D01*
X79181161Y-50638214D01*
X79149500Y-50878711D01*
X50787500Y-50878711D01*
X50787500Y-50875000D01*
X51037500Y-50875000D01*
X51675000Y-50875000D01*
X51675000Y-50502172D01*
X51674999Y-50502155D01*
X51668598Y-50442627D01*
X51668596Y-50442620D01*
X51618354Y-50307913D01*
X51618350Y-50307906D01*
X51532190Y-50192812D01*
X51532187Y-50192809D01*
X51417093Y-50106649D01*
X51417086Y-50106645D01*
X51282379Y-50056403D01*
X51282372Y-50056401D01*
X51222844Y-50050000D01*
X51037500Y-50050000D01*
X51037500Y-50875000D01*
X50787500Y-50875000D01*
X50787500Y-50050000D01*
X50602155Y-50050000D01*
X50542627Y-50056401D01*
X50542620Y-50056403D01*
X50407913Y-50106645D01*
X50407906Y-50106649D01*
X50292812Y-50192809D01*
X50247080Y-50253899D01*
X50191146Y-50295769D01*
X50121454Y-50300753D01*
X50060131Y-50267267D01*
X50038746Y-50236725D01*
X50038605Y-50236813D01*
X50037100Y-50234374D01*
X50035430Y-50231988D01*
X50034816Y-50230673D01*
X50034814Y-50230666D01*
X49942712Y-50081344D01*
X49818656Y-49957288D01*
X49818655Y-49957287D01*
X49774402Y-49929991D01*
X49727678Y-49878042D01*
X49715500Y-49824453D01*
X49715500Y-45724500D01*
X49735185Y-45657461D01*
X49787989Y-45611706D01*
X49839500Y-45600500D01*
X50079055Y-45600500D01*
X50079057Y-45600500D01*
X50231784Y-45559577D01*
X50368716Y-45480520D01*
X50480520Y-45368716D01*
X50559577Y-45231784D01*
X50600500Y-45079057D01*
X50600500Y-44924500D01*
X50620185Y-44857461D01*
X50672989Y-44811706D01*
X50724500Y-44800500D01*
X50828844Y-44800500D01*
X50828845Y-44800499D01*
X50983497Y-44769737D01*
X51111719Y-44716626D01*
X51129172Y-44709397D01*
X51129172Y-44709396D01*
X51129179Y-44709394D01*
X51137928Y-44703547D01*
X51148628Y-44696399D01*
X51215305Y-44675520D01*
X51217520Y-44675500D01*
X52986267Y-44675500D01*
X53053306Y-44695185D01*
X53099061Y-44747989D01*
X53103972Y-44760494D01*
X53115184Y-44794328D01*
X53115187Y-44794336D01*
X53138534Y-44832187D01*
X53207288Y-44943656D01*
X53331344Y-45067712D01*
X53480666Y-45159814D01*
X53647203Y-45214999D01*
X53749991Y-45225500D01*
X54350008Y-45225499D01*
X54350016Y-45225498D01*
X54350019Y-45225498D01*
X54406302Y-45219748D01*
X54452797Y-45214999D01*
X54619334Y-45159814D01*
X54768656Y-45067712D01*
X54892712Y-44943656D01*
X54984814Y-44794334D01*
X55015461Y-44701846D01*
X55055231Y-44644405D01*
X55119746Y-44617581D01*
X55188522Y-44629895D01*
X55239723Y-44677438D01*
X55249346Y-44697517D01*
X55256645Y-44717085D01*
X55256649Y-44717093D01*
X55342809Y-44832187D01*
X55342812Y-44832190D01*
X55457906Y-44918350D01*
X55457913Y-44918354D01*
X55592620Y-44968596D01*
X55592627Y-44968598D01*
X55652155Y-44974999D01*
X55652172Y-44975000D01*
X55825000Y-44975000D01*
X56075000Y-44975000D01*
X56247828Y-44975000D01*
X56247844Y-44974999D01*
X56307372Y-44968598D01*
X56307379Y-44968596D01*
X56442086Y-44918354D01*
X56442093Y-44918350D01*
X56557187Y-44832190D01*
X56557190Y-44832187D01*
X56643350Y-44717093D01*
X56643354Y-44717086D01*
X56693596Y-44582379D01*
X56693598Y-44582372D01*
X56699999Y-44522844D01*
X56700000Y-44522827D01*
X56700000Y-44125000D01*
X56075000Y-44125000D01*
X56075000Y-44975000D01*
X55825000Y-44975000D01*
X55825000Y-43875000D01*
X56075000Y-43875000D01*
X56700000Y-43875000D01*
X56700000Y-43477172D01*
X56699999Y-43477155D01*
X56693598Y-43417627D01*
X56693596Y-43417620D01*
X56643354Y-43282913D01*
X56643350Y-43282906D01*
X56557190Y-43167812D01*
X56557187Y-43167809D01*
X56442093Y-43081649D01*
X56442086Y-43081645D01*
X56307379Y-43031403D01*
X56307372Y-43031401D01*
X56247844Y-43025000D01*
X56075000Y-43025000D01*
X56075000Y-43875000D01*
X55825000Y-43875000D01*
X55825000Y-43025000D01*
X55652155Y-43025000D01*
X55592627Y-43031401D01*
X55592620Y-43031403D01*
X55457913Y-43081645D01*
X55457906Y-43081649D01*
X55342812Y-43167809D01*
X55342809Y-43167812D01*
X55256649Y-43282906D01*
X55256644Y-43282916D01*
X55249347Y-43302480D01*
X55207475Y-43358413D01*
X55142010Y-43382829D01*
X55073738Y-43367976D01*
X55024333Y-43318570D01*
X55015460Y-43298150D01*
X54984814Y-43205666D01*
X54892712Y-43056344D01*
X54768656Y-42932288D01*
X54619334Y-42840186D01*
X54452797Y-42785001D01*
X54452795Y-42785000D01*
X54350010Y-42774500D01*
X53749998Y-42774500D01*
X53749980Y-42774501D01*
X53647203Y-42785000D01*
X53647200Y-42785001D01*
X53480668Y-42840185D01*
X53480663Y-42840187D01*
X53331342Y-42932289D01*
X53207289Y-43056342D01*
X53115187Y-43205663D01*
X53115184Y-43205671D01*
X53103972Y-43239506D01*
X53064199Y-43296950D01*
X52999683Y-43323772D01*
X52986267Y-43324500D01*
X51217520Y-43324500D01*
X51150481Y-43304815D01*
X51148628Y-43303601D01*
X51129186Y-43290610D01*
X51129172Y-43290602D01*
X50983501Y-43230264D01*
X50983489Y-43230261D01*
X50828845Y-43199500D01*
X50828842Y-43199500D01*
X50724500Y-43199500D01*
X50657461Y-43179815D01*
X50611706Y-43127011D01*
X50600500Y-43075500D01*
X50600500Y-42421153D01*
X56949500Y-42421153D01*
X56949500Y-42578846D01*
X56980261Y-42733489D01*
X56980264Y-42733501D01*
X57040602Y-42879172D01*
X57040609Y-42879185D01*
X57128210Y-43010288D01*
X57128213Y-43010292D01*
X57239707Y-43121786D01*
X57239711Y-43121789D01*
X57370814Y-43209390D01*
X57370827Y-43209397D01*
X57516498Y-43269735D01*
X57516503Y-43269737D01*
X57647374Y-43295769D01*
X57671153Y-43300499D01*
X57671156Y-43300500D01*
X57671158Y-43300500D01*
X57828843Y-43300500D01*
X57858432Y-43294614D01*
X57935183Y-43279347D01*
X58004773Y-43285574D01*
X58059951Y-43328436D01*
X58083196Y-43394326D01*
X58082732Y-43413566D01*
X58074500Y-43494142D01*
X58074500Y-44505855D01*
X58084913Y-44607776D01*
X58139637Y-44772922D01*
X58139642Y-44772933D01*
X58230971Y-44920999D01*
X58230974Y-44921003D01*
X58353996Y-45044025D01*
X58354000Y-45044028D01*
X58502066Y-45135357D01*
X58502069Y-45135358D01*
X58502075Y-45135362D01*
X58667225Y-45190087D01*
X58769152Y-45200500D01*
X58769157Y-45200500D01*
X59355843Y-45200500D01*
X59355848Y-45200500D01*
X59457775Y-45190087D01*
X59622925Y-45135362D01*
X59771003Y-45044026D01*
X59894026Y-44921003D01*
X59985362Y-44772925D01*
X60040087Y-44607775D01*
X60050500Y-44505848D01*
X60050500Y-43494152D01*
X60040087Y-43392225D01*
X60005716Y-43288502D01*
X60003315Y-43218676D01*
X60039047Y-43158634D01*
X60101567Y-43127441D01*
X60123423Y-43125500D01*
X61500500Y-43125500D01*
X61567539Y-43145185D01*
X61613294Y-43197989D01*
X61624500Y-43249500D01*
X61624500Y-44061610D01*
X61648535Y-44182444D01*
X61648538Y-44182454D01*
X61695687Y-44296283D01*
X61695692Y-44296292D01*
X61764141Y-44398732D01*
X61764144Y-44398736D01*
X61851263Y-44485855D01*
X61851267Y-44485858D01*
X61953707Y-44554307D01*
X61953716Y-44554312D01*
X61974739Y-44563020D01*
X62067548Y-44601463D01*
X62188389Y-44625499D01*
X62188393Y-44625500D01*
X62188394Y-44625500D01*
X62311606Y-44625500D01*
X63002983Y-44625500D01*
X63070022Y-44645185D01*
X63115777Y-44697989D01*
X63120686Y-44710489D01*
X63140186Y-44769333D01*
X63140187Y-44769336D01*
X63140435Y-44769738D01*
X63232288Y-44918656D01*
X63356344Y-45042712D01*
X63505666Y-45134814D01*
X63672203Y-45189999D01*
X63774991Y-45200500D01*
X64400008Y-45200499D01*
X64400016Y-45200498D01*
X64400019Y-45200498D01*
X64456302Y-45194748D01*
X64502797Y-45189999D01*
X64669334Y-45134814D01*
X64818656Y-45042712D01*
X64942712Y-44918656D01*
X65034814Y-44769334D01*
X65034817Y-44769323D01*
X65035428Y-44768016D01*
X65036090Y-44767262D01*
X65038605Y-44763187D01*
X65039301Y-44763616D01*
X65081596Y-44715573D01*
X65148788Y-44696416D01*
X65215671Y-44716626D01*
X65247081Y-44746101D01*
X65292813Y-44807190D01*
X65407906Y-44893350D01*
X65407913Y-44893354D01*
X65542620Y-44943596D01*
X65542627Y-44943598D01*
X65602155Y-44949999D01*
X65602172Y-44950000D01*
X65787500Y-44950000D01*
X66037500Y-44950000D01*
X66222828Y-44950000D01*
X66222844Y-44949999D01*
X66282372Y-44943598D01*
X66282379Y-44943596D01*
X66417086Y-44893354D01*
X66417093Y-44893350D01*
X66532187Y-44807190D01*
X66532190Y-44807187D01*
X66618350Y-44692093D01*
X66618354Y-44692086D01*
X66668596Y-44557379D01*
X66668598Y-44557372D01*
X66674999Y-44497844D01*
X66675000Y-44497827D01*
X66675000Y-44125000D01*
X66037500Y-44125000D01*
X66037500Y-44950000D01*
X65787500Y-44950000D01*
X65787500Y-43875000D01*
X66037500Y-43875000D01*
X66675000Y-43875000D01*
X66675000Y-43502172D01*
X66674999Y-43502155D01*
X66668598Y-43442627D01*
X66668596Y-43442620D01*
X66618354Y-43307913D01*
X66618350Y-43307906D01*
X66532190Y-43192812D01*
X66532187Y-43192809D01*
X66417093Y-43106649D01*
X66417086Y-43106645D01*
X66282379Y-43056403D01*
X66282372Y-43056401D01*
X66222844Y-43050000D01*
X66037500Y-43050000D01*
X66037500Y-43875000D01*
X65787500Y-43875000D01*
X65787500Y-43050000D01*
X65602155Y-43050000D01*
X65542627Y-43056401D01*
X65542620Y-43056403D01*
X65407913Y-43106645D01*
X65407906Y-43106649D01*
X65292812Y-43192809D01*
X65247080Y-43253899D01*
X65191146Y-43295769D01*
X65121454Y-43300753D01*
X65060131Y-43267267D01*
X65038746Y-43236725D01*
X65038605Y-43236813D01*
X65037100Y-43234374D01*
X65035430Y-43231988D01*
X65034816Y-43230673D01*
X65034814Y-43230666D01*
X64942712Y-43081344D01*
X64818656Y-42957288D01*
X64692030Y-42879185D01*
X64669336Y-42865187D01*
X64669331Y-42865185D01*
X64667862Y-42864698D01*
X64502797Y-42810001D01*
X64502795Y-42810000D01*
X64400010Y-42799500D01*
X63774998Y-42799500D01*
X63774980Y-42799501D01*
X63672203Y-42810000D01*
X63672200Y-42810001D01*
X63505668Y-42865185D01*
X63505663Y-42865187D01*
X63356342Y-42957289D01*
X63232289Y-43081342D01*
X63140187Y-43230663D01*
X63140186Y-43230666D01*
X63121021Y-43288504D01*
X63120689Y-43289505D01*
X63106818Y-43309538D01*
X63096696Y-43331703D01*
X63087284Y-43337751D01*
X63080916Y-43346949D01*
X63058417Y-43356302D01*
X63037918Y-43369477D01*
X63020816Y-43371935D01*
X63016400Y-43373772D01*
X63002983Y-43374500D01*
X62999500Y-43374500D01*
X62932461Y-43354815D01*
X62886706Y-43302011D01*
X62875500Y-43250500D01*
X62875500Y-42438393D01*
X62875499Y-42438389D01*
X62863848Y-42379815D01*
X62851463Y-42317548D01*
X62804311Y-42203714D01*
X62804310Y-42203713D01*
X62804307Y-42203707D01*
X62735858Y-42101267D01*
X62735855Y-42101263D01*
X62648736Y-42014144D01*
X62648732Y-42014141D01*
X62546292Y-41945692D01*
X62546283Y-41945687D01*
X62432454Y-41898538D01*
X62432455Y-41898538D01*
X62432452Y-41898537D01*
X62432448Y-41898536D01*
X62432444Y-41898535D01*
X62311610Y-41874500D01*
X62311606Y-41874500D01*
X59061606Y-41874500D01*
X58292350Y-41874500D01*
X58225311Y-41854815D01*
X58223459Y-41853602D01*
X58129184Y-41790609D01*
X58129172Y-41790602D01*
X57983501Y-41730264D01*
X57983489Y-41730261D01*
X57828845Y-41699500D01*
X57828842Y-41699500D01*
X57671158Y-41699500D01*
X57671155Y-41699500D01*
X57516510Y-41730261D01*
X57516498Y-41730264D01*
X57370827Y-41790602D01*
X57370814Y-41790609D01*
X57239711Y-41878210D01*
X57239707Y-41878213D01*
X57128213Y-41989707D01*
X57128210Y-41989711D01*
X57040609Y-42120814D01*
X57040602Y-42120827D01*
X56980264Y-42266498D01*
X56980261Y-42266510D01*
X56949500Y-42421153D01*
X50600500Y-42421153D01*
X50600500Y-37886555D01*
X50620185Y-37819516D01*
X50672989Y-37773761D01*
X50742147Y-37763817D01*
X50760411Y-37768840D01*
X50760676Y-37767969D01*
X50766492Y-37769732D01*
X50766503Y-37769737D01*
X50921153Y-37800499D01*
X50921156Y-37800500D01*
X50921158Y-37800500D01*
X51078844Y-37800500D01*
X51078845Y-37800499D01*
X51233497Y-37769737D01*
X51379179Y-37709394D01*
X51390071Y-37702116D01*
X51398628Y-37696399D01*
X51465305Y-37675520D01*
X51467520Y-37675500D01*
X69019551Y-37675500D01*
X69086590Y-37695185D01*
X69132345Y-37747989D01*
X69137256Y-37760493D01*
X69139733Y-37767969D01*
X69140186Y-37769334D01*
X69232288Y-37918656D01*
X69356344Y-38042712D01*
X69505666Y-38134814D01*
X69672203Y-38189999D01*
X69774991Y-38200500D01*
X70400008Y-38200499D01*
X70400016Y-38200498D01*
X70400019Y-38200498D01*
X70456302Y-38194748D01*
X70502797Y-38189999D01*
X70669334Y-38134814D01*
X70818656Y-38042712D01*
X70912319Y-37949049D01*
X70973642Y-37915564D01*
X71043334Y-37920548D01*
X71087681Y-37949049D01*
X71181344Y-38042712D01*
X71315597Y-38125519D01*
X71362321Y-38177465D01*
X71374500Y-38231057D01*
X71374500Y-39250500D01*
X71354815Y-39317539D01*
X71302011Y-39363294D01*
X71250500Y-39374500D01*
X69792350Y-39374500D01*
X69725311Y-39354815D01*
X69723459Y-39353602D01*
X69629184Y-39290609D01*
X69629172Y-39290602D01*
X69483501Y-39230264D01*
X69483489Y-39230261D01*
X69328845Y-39199500D01*
X69328842Y-39199500D01*
X69171158Y-39199500D01*
X69171155Y-39199500D01*
X69016510Y-39230261D01*
X69016498Y-39230264D01*
X68870827Y-39290602D01*
X68870814Y-39290609D01*
X68739711Y-39378210D01*
X68739707Y-39378213D01*
X68628208Y-39489712D01*
X68628190Y-39489735D01*
X68628147Y-39489773D01*
X68623904Y-39494017D01*
X68623695Y-39493808D01*
X68605780Y-39510047D01*
X68605972Y-39510281D01*
X68601260Y-39514147D01*
X68514144Y-39601263D01*
X68514141Y-39601267D01*
X68445692Y-39703707D01*
X68445687Y-39703716D01*
X68398538Y-39817545D01*
X68398535Y-39817555D01*
X68374500Y-39938389D01*
X68374500Y-46838132D01*
X68354815Y-46905171D01*
X68335616Y-46926346D01*
X68336451Y-46927181D01*
X68207289Y-47056342D01*
X68115187Y-47205663D01*
X68115186Y-47205666D01*
X68060001Y-47372203D01*
X68060001Y-47372204D01*
X68060000Y-47372204D01*
X68049500Y-47474983D01*
X68049500Y-48525001D01*
X68049501Y-48525019D01*
X68060000Y-48627796D01*
X68060001Y-48627799D01*
X68089588Y-48717085D01*
X68115186Y-48794334D01*
X68207288Y-48943656D01*
X68331344Y-49067712D01*
X68480666Y-49159814D01*
X68647203Y-49214999D01*
X68749991Y-49225500D01*
X69350008Y-49225499D01*
X69350016Y-49225498D01*
X69350019Y-49225498D01*
X69406302Y-49219748D01*
X69452797Y-49214999D01*
X69619334Y-49159814D01*
X69768656Y-49067712D01*
X69892712Y-48943656D01*
X69984814Y-48794334D01*
X70015461Y-48701846D01*
X70055231Y-48644405D01*
X70119746Y-48617581D01*
X70188522Y-48629895D01*
X70239723Y-48677438D01*
X70249346Y-48697517D01*
X70256645Y-48717085D01*
X70256649Y-48717093D01*
X70342809Y-48832187D01*
X70342812Y-48832190D01*
X70457906Y-48918350D01*
X70457913Y-48918354D01*
X70592620Y-48968596D01*
X70592627Y-48968598D01*
X70652155Y-48974999D01*
X70652172Y-48975000D01*
X70825000Y-48975000D01*
X71075000Y-48975000D01*
X71247828Y-48975000D01*
X71247844Y-48974999D01*
X71307372Y-48968598D01*
X71307379Y-48968596D01*
X71442086Y-48918354D01*
X71442093Y-48918350D01*
X71557187Y-48832190D01*
X71557190Y-48832187D01*
X71643350Y-48717093D01*
X71643354Y-48717086D01*
X71693596Y-48582379D01*
X71693598Y-48582372D01*
X71699999Y-48522844D01*
X71700000Y-48522827D01*
X71700000Y-48125000D01*
X71075000Y-48125000D01*
X71075000Y-48975000D01*
X70825000Y-48975000D01*
X70825000Y-47875000D01*
X71075000Y-47875000D01*
X71700000Y-47875000D01*
X71700000Y-47477172D01*
X71699999Y-47477155D01*
X71693598Y-47417627D01*
X71693596Y-47417620D01*
X71643354Y-47282913D01*
X71643350Y-47282906D01*
X71557190Y-47167812D01*
X71557187Y-47167809D01*
X71442093Y-47081649D01*
X71442086Y-47081645D01*
X71307379Y-47031403D01*
X71307372Y-47031401D01*
X71247844Y-47025000D01*
X71075000Y-47025000D01*
X71075000Y-47875000D01*
X70825000Y-47875000D01*
X70825000Y-47025000D01*
X70652155Y-47025000D01*
X70592627Y-47031401D01*
X70592620Y-47031403D01*
X70457913Y-47081645D01*
X70457906Y-47081649D01*
X70342812Y-47167809D01*
X70342809Y-47167812D01*
X70256649Y-47282906D01*
X70256644Y-47282916D01*
X70249347Y-47302480D01*
X70207475Y-47358413D01*
X70142010Y-47382829D01*
X70073738Y-47367976D01*
X70024333Y-47318570D01*
X70015460Y-47298150D01*
X70009613Y-47280504D01*
X69984814Y-47205666D01*
X69892712Y-47056344D01*
X69768656Y-46932288D01*
X69768652Y-46932285D01*
X69684403Y-46880319D01*
X69637678Y-46828371D01*
X69625500Y-46774781D01*
X69625500Y-44274628D01*
X72250000Y-44274628D01*
X72264503Y-44347540D01*
X72264505Y-44347544D01*
X72319760Y-44430239D01*
X72402455Y-44485494D01*
X72402459Y-44485496D01*
X72475371Y-44499999D01*
X72475374Y-44500000D01*
X72875000Y-44500000D01*
X73125000Y-44500000D01*
X73524626Y-44500000D01*
X73524628Y-44499999D01*
X73597540Y-44485496D01*
X73597544Y-44485494D01*
X73680239Y-44430239D01*
X73735494Y-44347544D01*
X73735496Y-44347540D01*
X73749999Y-44274628D01*
X78250000Y-44274628D01*
X78264503Y-44347540D01*
X78264505Y-44347544D01*
X78319760Y-44430239D01*
X78402455Y-44485494D01*
X78402459Y-44485496D01*
X78475371Y-44499999D01*
X78475374Y-44500000D01*
X78875000Y-44500000D01*
X79125000Y-44500000D01*
X79524626Y-44500000D01*
X79524628Y-44499999D01*
X79597540Y-44485496D01*
X79597544Y-44485494D01*
X79680239Y-44430239D01*
X79735494Y-44347544D01*
X79735496Y-44347540D01*
X79749999Y-44274628D01*
X79750000Y-44274626D01*
X79750000Y-44000000D01*
X79125000Y-44000000D01*
X79125000Y-44500000D01*
X78875000Y-44500000D01*
X78875000Y-44000000D01*
X78250000Y-44000000D01*
X78250000Y-44274628D01*
X73749999Y-44274628D01*
X73750000Y-44274626D01*
X73750000Y-44000000D01*
X73125000Y-44000000D01*
X73125000Y-44500000D01*
X72875000Y-44500000D01*
X72875000Y-44000000D01*
X72250000Y-44000000D01*
X72250000Y-44274628D01*
X69625500Y-44274628D01*
X69625500Y-43475371D01*
X72250000Y-43475371D01*
X72250000Y-43750000D01*
X72875000Y-43750000D01*
X73125000Y-43750000D01*
X73750000Y-43750000D01*
X73750000Y-43475373D01*
X73749999Y-43475371D01*
X78250000Y-43475371D01*
X78250000Y-43750000D01*
X78875000Y-43750000D01*
X79125000Y-43750000D01*
X79750000Y-43750000D01*
X79750000Y-43475373D01*
X79749999Y-43475371D01*
X79735496Y-43402459D01*
X79735494Y-43402455D01*
X79680239Y-43319760D01*
X79597544Y-43264505D01*
X79597540Y-43264503D01*
X79524627Y-43250000D01*
X79125000Y-43250000D01*
X79125000Y-43750000D01*
X78875000Y-43750000D01*
X78875000Y-43250000D01*
X78475373Y-43250000D01*
X78402459Y-43264503D01*
X78402455Y-43264505D01*
X78319760Y-43319760D01*
X78264505Y-43402455D01*
X78264503Y-43402459D01*
X78250000Y-43475371D01*
X73749999Y-43475371D01*
X73735496Y-43402459D01*
X73735494Y-43402455D01*
X73680239Y-43319760D01*
X73597544Y-43264505D01*
X73597540Y-43264503D01*
X73524627Y-43250000D01*
X73125000Y-43250000D01*
X73125000Y-43750000D01*
X72875000Y-43750000D01*
X72875000Y-43250000D01*
X72475373Y-43250000D01*
X72402459Y-43264503D01*
X72402455Y-43264505D01*
X72319760Y-43319760D01*
X72264505Y-43402455D01*
X72264503Y-43402459D01*
X72250000Y-43475371D01*
X69625500Y-43475371D01*
X69625500Y-40778131D01*
X69627736Y-40770513D01*
X69626467Y-40762677D01*
X69637440Y-40737467D01*
X69645185Y-40711092D01*
X69651894Y-40704261D01*
X69654353Y-40698613D01*
X69680606Y-40675031D01*
X69723460Y-40646396D01*
X69790138Y-40625520D01*
X69792350Y-40625500D01*
X71926533Y-40625500D01*
X71993572Y-40645185D01*
X72039327Y-40697989D01*
X72042715Y-40706166D01*
X72056203Y-40742330D01*
X72056206Y-40742335D01*
X72142452Y-40857544D01*
X72142455Y-40857547D01*
X72257664Y-40943793D01*
X72257671Y-40943797D01*
X72392517Y-40994091D01*
X72392516Y-40994091D01*
X72399444Y-40994835D01*
X72452127Y-41000500D01*
X73547872Y-41000499D01*
X73607483Y-40994091D01*
X73742331Y-40943796D01*
X73857546Y-40857546D01*
X73876530Y-40832187D01*
X73904228Y-40795189D01*
X73960162Y-40753318D01*
X74003494Y-40745500D01*
X77996506Y-40745500D01*
X78063545Y-40765185D01*
X78095772Y-40795189D01*
X78142448Y-40857539D01*
X78142451Y-40857542D01*
X78142454Y-40857546D01*
X78142457Y-40857548D01*
X78257664Y-40943793D01*
X78257671Y-40943797D01*
X78392517Y-40994091D01*
X78392516Y-40994091D01*
X78399444Y-40994835D01*
X78452127Y-41000500D01*
X79547872Y-41000499D01*
X79607483Y-40994091D01*
X79742331Y-40943796D01*
X79857546Y-40857546D01*
X79943796Y-40742331D01*
X79994091Y-40607483D01*
X80000500Y-40547873D01*
X80000499Y-39702128D01*
X79994091Y-39642517D01*
X79978704Y-39601263D01*
X79943797Y-39507671D01*
X79943793Y-39507664D01*
X79857547Y-39392455D01*
X79857544Y-39392452D01*
X79742335Y-39306206D01*
X79742328Y-39306202D01*
X79607482Y-39255908D01*
X79607483Y-39255908D01*
X79547883Y-39249501D01*
X79547881Y-39249500D01*
X79547873Y-39249500D01*
X79547864Y-39249500D01*
X78452129Y-39249500D01*
X78452123Y-39249501D01*
X78392516Y-39255908D01*
X78257671Y-39306202D01*
X78257664Y-39306206D01*
X78142457Y-39392451D01*
X78142449Y-39392458D01*
X78103260Y-39444810D01*
X78047326Y-39486682D01*
X78003993Y-39494500D01*
X73996007Y-39494500D01*
X73928968Y-39474815D01*
X73896740Y-39444810D01*
X73857550Y-39392458D01*
X73857547Y-39392455D01*
X73857546Y-39392454D01*
X73838520Y-39378211D01*
X73742335Y-39306206D01*
X73742328Y-39306202D01*
X73607482Y-39255908D01*
X73607483Y-39255908D01*
X73547883Y-39249501D01*
X73547881Y-39249500D01*
X73547873Y-39249500D01*
X73547865Y-39249500D01*
X72749500Y-39249500D01*
X72682461Y-39229815D01*
X72636706Y-39177011D01*
X72625500Y-39125500D01*
X72625500Y-38112230D01*
X72645185Y-38045191D01*
X72661819Y-38024549D01*
X72687368Y-37999000D01*
X72767712Y-37918656D01*
X72859814Y-37769334D01*
X72914999Y-37602797D01*
X72925500Y-37500009D01*
X72925499Y-36499992D01*
X72924981Y-36494925D01*
X72914999Y-36397203D01*
X72914998Y-36397200D01*
X72907807Y-36375500D01*
X72859814Y-36230666D01*
X72767712Y-36081344D01*
X72643656Y-35957288D01*
X72515451Y-35878211D01*
X72494336Y-35865187D01*
X72494331Y-35865185D01*
X72463036Y-35854815D01*
X72327797Y-35810001D01*
X72327795Y-35810000D01*
X72225010Y-35799500D01*
X71599998Y-35799500D01*
X71599980Y-35799501D01*
X71497203Y-35810000D01*
X71497200Y-35810001D01*
X71330668Y-35865185D01*
X71330663Y-35865187D01*
X71181342Y-35957289D01*
X71087681Y-36050951D01*
X71026358Y-36084436D01*
X70956666Y-36079452D01*
X70912319Y-36050951D01*
X70818656Y-35957288D01*
X70818652Y-35957285D01*
X70734403Y-35905319D01*
X70687678Y-35853371D01*
X70675500Y-35799781D01*
X70675500Y-34799500D01*
X70695185Y-34732461D01*
X70747989Y-34686706D01*
X70799500Y-34675500D01*
X74019551Y-34675500D01*
X74086590Y-34695185D01*
X74132345Y-34747989D01*
X74137256Y-34760493D01*
X74140186Y-34769334D01*
X74232288Y-34918656D01*
X74356344Y-35042712D01*
X74505666Y-35134814D01*
X74672203Y-35189999D01*
X74774991Y-35200500D01*
X75400008Y-35200499D01*
X75400016Y-35200498D01*
X75400019Y-35200498D01*
X75456302Y-35194748D01*
X75502797Y-35189999D01*
X75669334Y-35134814D01*
X75818656Y-35042712D01*
X75912319Y-34949049D01*
X75973642Y-34915564D01*
X76043334Y-34920548D01*
X76087681Y-34949049D01*
X76181344Y-35042712D01*
X76330666Y-35134814D01*
X76497203Y-35189999D01*
X76599991Y-35200500D01*
X77225008Y-35200499D01*
X77225016Y-35200498D01*
X77225019Y-35200498D01*
X77281302Y-35194748D01*
X77327797Y-35189999D01*
X77494334Y-35134814D01*
X77643656Y-35042712D01*
X77767712Y-34918656D01*
X77859814Y-34769334D01*
X77914999Y-34602797D01*
X77925500Y-34500009D01*
X77925499Y-33499992D01*
X77923483Y-33480261D01*
X77914999Y-33397203D01*
X77914998Y-33397200D01*
X77893509Y-33332351D01*
X77859814Y-33230666D01*
X77767712Y-33081344D01*
X77643656Y-32957288D01*
X77540720Y-32893797D01*
X77494336Y-32865187D01*
X77494331Y-32865185D01*
X77452329Y-32851267D01*
X77327797Y-32810001D01*
X77327795Y-32810000D01*
X77225016Y-32799500D01*
X77225009Y-32799500D01*
X76999500Y-32799500D01*
X76932461Y-32779815D01*
X76886706Y-32727011D01*
X76875500Y-32675500D01*
X76875500Y-32438393D01*
X76875499Y-32438389D01*
X76851464Y-32317555D01*
X76851463Y-32317548D01*
X76804311Y-32203714D01*
X76804310Y-32203713D01*
X76804307Y-32203707D01*
X76735858Y-32101267D01*
X76735855Y-32101263D01*
X76648736Y-32014144D01*
X76648732Y-32014141D01*
X76546292Y-31945692D01*
X76546283Y-31945687D01*
X76432454Y-31898538D01*
X76432455Y-31898538D01*
X76432452Y-31898537D01*
X76432448Y-31898536D01*
X76432444Y-31898535D01*
X76311610Y-31874500D01*
X76311606Y-31874500D01*
X75749500Y-31874500D01*
X75682461Y-31854815D01*
X75636706Y-31802011D01*
X75625500Y-31750500D01*
X75625500Y-29274628D01*
X78250000Y-29274628D01*
X78264503Y-29347540D01*
X78264505Y-29347544D01*
X78319760Y-29430239D01*
X78402455Y-29485494D01*
X78402459Y-29485496D01*
X78475371Y-29499999D01*
X78475374Y-29500000D01*
X78875000Y-29500000D01*
X79125000Y-29500000D01*
X79524626Y-29500000D01*
X79524628Y-29499999D01*
X79597540Y-29485496D01*
X79597544Y-29485494D01*
X79680239Y-29430239D01*
X79735494Y-29347544D01*
X79735496Y-29347540D01*
X79749999Y-29274628D01*
X79750000Y-29274626D01*
X79750000Y-29000000D01*
X79125000Y-29000000D01*
X79125000Y-29500000D01*
X78875000Y-29500000D01*
X78875000Y-29000000D01*
X78250000Y-29000000D01*
X78250000Y-29274628D01*
X75625500Y-29274628D01*
X75625500Y-28475371D01*
X78250000Y-28475371D01*
X78250000Y-28750000D01*
X78875000Y-28750000D01*
X79125000Y-28750000D01*
X79750000Y-28750000D01*
X79750000Y-28475373D01*
X79749999Y-28475371D01*
X79735496Y-28402459D01*
X79735494Y-28402455D01*
X79680239Y-28319760D01*
X79597544Y-28264505D01*
X79597540Y-28264503D01*
X79524627Y-28250000D01*
X79125000Y-28250000D01*
X79125000Y-28750000D01*
X78875000Y-28750000D01*
X78875000Y-28250000D01*
X78475373Y-28250000D01*
X78402459Y-28264503D01*
X78402455Y-28264505D01*
X78319760Y-28319760D01*
X78264505Y-28402455D01*
X78264503Y-28402459D01*
X78250000Y-28475371D01*
X75625500Y-28475371D01*
X75625500Y-25869500D01*
X75645185Y-25802461D01*
X75697989Y-25756706D01*
X75749500Y-25745500D01*
X77996506Y-25745500D01*
X78063545Y-25765185D01*
X78095772Y-25795189D01*
X78142448Y-25857539D01*
X78142451Y-25857542D01*
X78142454Y-25857546D01*
X78171095Y-25878987D01*
X78257664Y-25943793D01*
X78257671Y-25943797D01*
X78392517Y-25994091D01*
X78392516Y-25994091D01*
X78399444Y-25994835D01*
X78452127Y-26000500D01*
X79547872Y-26000499D01*
X79607483Y-25994091D01*
X79742331Y-25943796D01*
X79857546Y-25857546D01*
X79943796Y-25742331D01*
X79994091Y-25607483D01*
X80000500Y-25547873D01*
X80000499Y-24702128D01*
X79994091Y-24642517D01*
X79976173Y-24594477D01*
X79943797Y-24507671D01*
X79943793Y-24507664D01*
X79857547Y-24392455D01*
X79857544Y-24392452D01*
X79742335Y-24306206D01*
X79742328Y-24306202D01*
X79607482Y-24255908D01*
X79607483Y-24255908D01*
X79547883Y-24249501D01*
X79547881Y-24249500D01*
X79547873Y-24249500D01*
X79547864Y-24249500D01*
X78452129Y-24249500D01*
X78452123Y-24249501D01*
X78392516Y-24255908D01*
X78257671Y-24306202D01*
X78257664Y-24306206D01*
X78142457Y-24392451D01*
X78142449Y-24392458D01*
X78103260Y-24444810D01*
X78047326Y-24486682D01*
X78003993Y-24494500D01*
X75749500Y-24494500D01*
X75682461Y-24474815D01*
X75636706Y-24422011D01*
X75625500Y-24370500D01*
X75625500Y-21225217D01*
X75645185Y-21158178D01*
X75684405Y-21119678D01*
X75768651Y-21067715D01*
X75768654Y-21067713D01*
X75768653Y-21067713D01*
X75768656Y-21067712D01*
X75892712Y-20943656D01*
X75984814Y-20794334D01*
X76015461Y-20701846D01*
X76055231Y-20644405D01*
X76119746Y-20617581D01*
X76188522Y-20629895D01*
X76239723Y-20677438D01*
X76249346Y-20697517D01*
X76256645Y-20717085D01*
X76256649Y-20717093D01*
X76342809Y-20832187D01*
X76342812Y-20832190D01*
X76457906Y-20918350D01*
X76457913Y-20918354D01*
X76592620Y-20968596D01*
X76592627Y-20968598D01*
X76652155Y-20974999D01*
X76652172Y-20975000D01*
X76825000Y-20975000D01*
X77075000Y-20975000D01*
X77247828Y-20975000D01*
X77247844Y-20974999D01*
X77307372Y-20968598D01*
X77307379Y-20968596D01*
X77442086Y-20918354D01*
X77442093Y-20918350D01*
X77557187Y-20832190D01*
X77557190Y-20832187D01*
X77643350Y-20717093D01*
X77643354Y-20717086D01*
X77693596Y-20582379D01*
X77693598Y-20582372D01*
X77699999Y-20522844D01*
X77700000Y-20522827D01*
X77700000Y-20125000D01*
X77075000Y-20125000D01*
X77075000Y-20975000D01*
X76825000Y-20975000D01*
X76825000Y-19875000D01*
X77075000Y-19875000D01*
X77700000Y-19875000D01*
X77700000Y-19477172D01*
X77699999Y-19477155D01*
X77693598Y-19417627D01*
X77693596Y-19417620D01*
X77643354Y-19282913D01*
X77643350Y-19282906D01*
X77557190Y-19167812D01*
X77557187Y-19167809D01*
X77442093Y-19081649D01*
X77442086Y-19081645D01*
X77307379Y-19031403D01*
X77307372Y-19031401D01*
X77247844Y-19025000D01*
X77075000Y-19025000D01*
X77075000Y-19875000D01*
X76825000Y-19875000D01*
X76825000Y-19025000D01*
X76652155Y-19025000D01*
X76592627Y-19031401D01*
X76592620Y-19031403D01*
X76457913Y-19081645D01*
X76457906Y-19081649D01*
X76342812Y-19167809D01*
X76342809Y-19167812D01*
X76256649Y-19282906D01*
X76256644Y-19282916D01*
X76249347Y-19302480D01*
X76207475Y-19358413D01*
X76142010Y-19382829D01*
X76073738Y-19367976D01*
X76024333Y-19318570D01*
X76015460Y-19298150D01*
X75998838Y-19247989D01*
X75984814Y-19205666D01*
X75892712Y-19056344D01*
X75768656Y-18932288D01*
X75619334Y-18840186D01*
X75452797Y-18785001D01*
X75452795Y-18785000D01*
X75350010Y-18774500D01*
X74749998Y-18774500D01*
X74749980Y-18774501D01*
X74647203Y-18785000D01*
X74647200Y-18785001D01*
X74480668Y-18840185D01*
X74480663Y-18840187D01*
X74331342Y-18932289D01*
X74207289Y-19056342D01*
X74115187Y-19205663D01*
X74115185Y-19205668D01*
X74092274Y-19274811D01*
X74060001Y-19372203D01*
X74060001Y-19372204D01*
X74060000Y-19372204D01*
X74049500Y-19474983D01*
X74049500Y-20525001D01*
X74049501Y-20525019D01*
X74060000Y-20627796D01*
X74060001Y-20627799D01*
X74115185Y-20794331D01*
X74115187Y-20794336D01*
X74138534Y-20832187D01*
X74206585Y-20942517D01*
X74207289Y-20943657D01*
X74336451Y-21072819D01*
X74334559Y-21074710D01*
X74367774Y-21121583D01*
X74374500Y-21161867D01*
X74374500Y-21500500D01*
X74354815Y-21567539D01*
X74302011Y-21613294D01*
X74250500Y-21624500D01*
X69292350Y-21624500D01*
X69225311Y-21604815D01*
X69223459Y-21603602D01*
X69129184Y-21540609D01*
X69129172Y-21540602D01*
X68983501Y-21480264D01*
X68983489Y-21480261D01*
X68828845Y-21449500D01*
X68828842Y-21449500D01*
X68671158Y-21449500D01*
X68671155Y-21449500D01*
X68516510Y-21480261D01*
X68516498Y-21480264D01*
X68370827Y-21540602D01*
X68370814Y-21540609D01*
X68239711Y-21628210D01*
X68239707Y-21628213D01*
X68212180Y-21655741D01*
X68150857Y-21689226D01*
X68081165Y-21684242D01*
X68025232Y-21642370D01*
X68000815Y-21576906D01*
X68000499Y-21568060D01*
X68000499Y-21002129D01*
X68000498Y-21002123D01*
X68000497Y-21002116D01*
X67994091Y-20942517D01*
X67943796Y-20807669D01*
X67943794Y-20807666D01*
X67940696Y-20799360D01*
X67942426Y-20798714D01*
X67929902Y-20741163D01*
X67941691Y-20701011D01*
X67940696Y-20700640D01*
X67943794Y-20692333D01*
X67943796Y-20692331D01*
X67994091Y-20557483D01*
X68000500Y-20497873D01*
X68000499Y-19502128D01*
X67994091Y-19442517D01*
X67992244Y-19437566D01*
X67943797Y-19307671D01*
X67943793Y-19307664D01*
X67857547Y-19192455D01*
X67857544Y-19192452D01*
X67765124Y-19123266D01*
X67723253Y-19067332D01*
X67718269Y-18997641D01*
X67751755Y-18936318D01*
X67813078Y-18902834D01*
X67839435Y-18900000D01*
X72000000Y-18900000D01*
X72000000Y-14274628D01*
X74250000Y-14274628D01*
X74264503Y-14347540D01*
X74264505Y-14347544D01*
X74319760Y-14430239D01*
X74402455Y-14485494D01*
X74402459Y-14485496D01*
X74475371Y-14499999D01*
X74475374Y-14500000D01*
X74875000Y-14500000D01*
X75125000Y-14500000D01*
X75524626Y-14500000D01*
X75524628Y-14499999D01*
X75597540Y-14485496D01*
X75597544Y-14485494D01*
X75680239Y-14430239D01*
X75735494Y-14347544D01*
X75735496Y-14347540D01*
X75749999Y-14274628D01*
X80250000Y-14274628D01*
X80264503Y-14347540D01*
X80264505Y-14347544D01*
X80319760Y-14430239D01*
X80402455Y-14485494D01*
X80402459Y-14485496D01*
X80475371Y-14499999D01*
X80475374Y-14500000D01*
X80875000Y-14500000D01*
X81125000Y-14500000D01*
X81524626Y-14500000D01*
X81524628Y-14499999D01*
X81597540Y-14485496D01*
X81597544Y-14485494D01*
X81680239Y-14430239D01*
X81735494Y-14347544D01*
X81735496Y-14347540D01*
X81749999Y-14274628D01*
X81750000Y-14274626D01*
X81750000Y-14000000D01*
X81125000Y-14000000D01*
X81125000Y-14500000D01*
X80875000Y-14500000D01*
X80875000Y-14000000D01*
X80250000Y-14000000D01*
X80250000Y-14274628D01*
X75749999Y-14274628D01*
X75750000Y-14274626D01*
X75750000Y-14000000D01*
X75125000Y-14000000D01*
X75125000Y-14500000D01*
X74875000Y-14500000D01*
X74875000Y-14000000D01*
X74250000Y-14000000D01*
X74250000Y-14274628D01*
X72000000Y-14274628D01*
X72000000Y-13475371D01*
X74250000Y-13475371D01*
X74250000Y-13750000D01*
X74875000Y-13750000D01*
X75125000Y-13750000D01*
X75750000Y-13750000D01*
X75750000Y-13475373D01*
X75749999Y-13475371D01*
X80250000Y-13475371D01*
X80250000Y-13750000D01*
X80875000Y-13750000D01*
X81125000Y-13750000D01*
X81750000Y-13750000D01*
X81750000Y-13475373D01*
X81749999Y-13475371D01*
X81735496Y-13402459D01*
X81735494Y-13402455D01*
X81680239Y-13319760D01*
X81597544Y-13264505D01*
X81597540Y-13264503D01*
X81524627Y-13250000D01*
X81125000Y-13250000D01*
X81125000Y-13750000D01*
X80875000Y-13750000D01*
X80875000Y-13250000D01*
X80475373Y-13250000D01*
X80402459Y-13264503D01*
X80402455Y-13264505D01*
X80319760Y-13319760D01*
X80264505Y-13402455D01*
X80264503Y-13402459D01*
X80250000Y-13475371D01*
X75749999Y-13475371D01*
X75735496Y-13402459D01*
X75735494Y-13402455D01*
X75680239Y-13319760D01*
X75597544Y-13264505D01*
X75597540Y-13264503D01*
X75524627Y-13250000D01*
X75125000Y-13250000D01*
X75125000Y-13750000D01*
X74875000Y-13750000D01*
X74875000Y-13250000D01*
X74475373Y-13250000D01*
X74402459Y-13264503D01*
X74402455Y-13264505D01*
X74319760Y-13319760D01*
X74264505Y-13402455D01*
X74264503Y-13402459D01*
X74250000Y-13475371D01*
X72000000Y-13475371D01*
X72000000Y-10844927D01*
X72019685Y-10777888D01*
X72072489Y-10732133D01*
X72141647Y-10722189D01*
X72171450Y-10730365D01*
X72266503Y-10769737D01*
X72376199Y-10791557D01*
X72421153Y-10800499D01*
X72421156Y-10800500D01*
X72421158Y-10800500D01*
X72578844Y-10800500D01*
X72578845Y-10800499D01*
X72733497Y-10769737D01*
X72879179Y-10709394D01*
X72973459Y-10646398D01*
X73040136Y-10625520D01*
X73042350Y-10625500D01*
X73926533Y-10625500D01*
X73993572Y-10645185D01*
X74039327Y-10697989D01*
X74042715Y-10706166D01*
X74056203Y-10742330D01*
X74056206Y-10742335D01*
X74142452Y-10857544D01*
X74142455Y-10857547D01*
X74257664Y-10943793D01*
X74257671Y-10943797D01*
X74392517Y-10994091D01*
X74392516Y-10994091D01*
X74399444Y-10994835D01*
X74452127Y-11000500D01*
X75547872Y-11000499D01*
X75607483Y-10994091D01*
X75742331Y-10943796D01*
X75857546Y-10857546D01*
X75889163Y-10815312D01*
X75904228Y-10795189D01*
X75960162Y-10753318D01*
X76003494Y-10745500D01*
X79996506Y-10745500D01*
X80063545Y-10765185D01*
X80095772Y-10795189D01*
X80142448Y-10857539D01*
X80142451Y-10857542D01*
X80142454Y-10857546D01*
X80142457Y-10857548D01*
X80257664Y-10943793D01*
X80257671Y-10943797D01*
X80392517Y-10994091D01*
X80392516Y-10994091D01*
X80399444Y-10994835D01*
X80452127Y-11000500D01*
X81547872Y-11000499D01*
X81607483Y-10994091D01*
X81742331Y-10943796D01*
X81857546Y-10857546D01*
X81943796Y-10742331D01*
X81994091Y-10607483D01*
X82000500Y-10547873D01*
X82000499Y-9702128D01*
X81994091Y-9642517D01*
X81948297Y-9519738D01*
X81943797Y-9507671D01*
X81943793Y-9507664D01*
X81857547Y-9392455D01*
X81857544Y-9392452D01*
X81742335Y-9306206D01*
X81742328Y-9306202D01*
X81607482Y-9255908D01*
X81607483Y-9255908D01*
X81547883Y-9249501D01*
X81547881Y-9249500D01*
X81547873Y-9249500D01*
X81547864Y-9249500D01*
X80452129Y-9249500D01*
X80452123Y-9249501D01*
X80392516Y-9255908D01*
X80257671Y-9306202D01*
X80257664Y-9306206D01*
X80142457Y-9392451D01*
X80142449Y-9392458D01*
X80103260Y-9444810D01*
X80047326Y-9486682D01*
X80003993Y-9494500D01*
X75996007Y-9494500D01*
X75928968Y-9474815D01*
X75896740Y-9444810D01*
X75857550Y-9392458D01*
X75857547Y-9392455D01*
X75857546Y-9392454D01*
X75833563Y-9374500D01*
X75742334Y-9306205D01*
X75706164Y-9292714D01*
X75650231Y-9250841D01*
X75625816Y-9185376D01*
X75625500Y-9176533D01*
X75625500Y-7112230D01*
X75645185Y-7045191D01*
X75661819Y-7024549D01*
X75767712Y-6918656D01*
X75859814Y-6769334D01*
X75914999Y-6602797D01*
X75925500Y-6500009D01*
X75925499Y-5499992D01*
X75922977Y-5475307D01*
X75914999Y-5397203D01*
X75914998Y-5397200D01*
X75899509Y-5350458D01*
X75859814Y-5230666D01*
X75767712Y-5081344D01*
X75643656Y-4957288D01*
X75494334Y-4865186D01*
X75327797Y-4810001D01*
X75327795Y-4810000D01*
X75225010Y-4799500D01*
X74599998Y-4799500D01*
X74599980Y-4799501D01*
X74497203Y-4810000D01*
X74497200Y-4810001D01*
X74330668Y-4865185D01*
X74330663Y-4865187D01*
X74181342Y-4957289D01*
X74087681Y-5050951D01*
X74026358Y-5084436D01*
X73956666Y-5079452D01*
X73912319Y-5050951D01*
X73818657Y-4957289D01*
X73818656Y-4957288D01*
X73669334Y-4865186D01*
X73502797Y-4810001D01*
X73502795Y-4810000D01*
X73400010Y-4799500D01*
X72774998Y-4799500D01*
X72774980Y-4799501D01*
X72672203Y-4810000D01*
X72672200Y-4810001D01*
X72505668Y-4865185D01*
X72505663Y-4865187D01*
X72356342Y-4957289D01*
X72232289Y-5081342D01*
X72140185Y-5230667D01*
X72137256Y-5239507D01*
X72097482Y-5296951D01*
X72032965Y-5323772D01*
X72019551Y-5324500D01*
X39933467Y-5324500D01*
X39802969Y-5350458D01*
X39802959Y-5350461D01*
X39680038Y-5401376D01*
X39680020Y-5401386D01*
X39569398Y-5475301D01*
X39569390Y-5475307D01*
X39475307Y-5569390D01*
X39475301Y-5569398D01*
X39401386Y-5680020D01*
X39401376Y-5680038D01*
X39350461Y-5802959D01*
X39350458Y-5802969D01*
X39324500Y-5933466D01*
X39324500Y-8937770D01*
X39304815Y-9004809D01*
X39288181Y-9025451D01*
X39232289Y-9081342D01*
X39140185Y-9230667D01*
X39137256Y-9239507D01*
X39097482Y-9296951D01*
X39032965Y-9323772D01*
X39019551Y-9324500D01*
X38741315Y-9324500D01*
X38674276Y-9304815D01*
X38628521Y-9252011D01*
X38626754Y-9247953D01*
X38598621Y-9180034D01*
X38598620Y-9180031D01*
X38594739Y-9174223D01*
X38524698Y-9069398D01*
X38524692Y-9069390D01*
X38430609Y-8975307D01*
X38430601Y-8975301D01*
X38319979Y-8901386D01*
X38319972Y-8901382D01*
X38319969Y-8901380D01*
X38319965Y-8901378D01*
X38319961Y-8901376D01*
X38197040Y-8850461D01*
X38197030Y-8850458D01*
X38066533Y-8824500D01*
X38066531Y-8824500D01*
X36212649Y-8824500D01*
X36145610Y-8804815D01*
X36112330Y-8773384D01*
X36030107Y-8660211D01*
X35879786Y-8509890D01*
X35707819Y-8384951D01*
X35707818Y-8384950D01*
X35707816Y-8384949D01*
X35608775Y-8334485D01*
X35557979Y-8286510D01*
X35541184Y-8218689D01*
X35563721Y-8152554D01*
X35618437Y-8109103D01*
X35665070Y-8100000D01*
X35874626Y-8100000D01*
X35874628Y-8099999D01*
X35947540Y-8085496D01*
X35947544Y-8085494D01*
X36030239Y-8030239D01*
X36085494Y-7947544D01*
X36085496Y-7947540D01*
X36099999Y-7874628D01*
X36100000Y-7874626D01*
X36100000Y-7125000D01*
X35484144Y-7125000D01*
X35500000Y-7065826D01*
X35500000Y-6934174D01*
X35484144Y-6875000D01*
X36100000Y-6875000D01*
X36100000Y-6125373D01*
X36099999Y-6125371D01*
X36085496Y-6052459D01*
X36085494Y-6052455D01*
X36030239Y-5969760D01*
X35947544Y-5914505D01*
X35947540Y-5914503D01*
X35874627Y-5900000D01*
X35125000Y-5900000D01*
X35125000Y-6515855D01*
X35065826Y-6500000D01*
X34934174Y-6500000D01*
X34875000Y-6515855D01*
X34875000Y-5900000D01*
X34125373Y-5900000D01*
X34052459Y-5914503D01*
X34052455Y-5914505D01*
X33969760Y-5969760D01*
X33914505Y-6052455D01*
X33914503Y-6052459D01*
X33900000Y-6125371D01*
X33900000Y-6875000D01*
X34515856Y-6875000D01*
X34500000Y-6934174D01*
X34500000Y-7065826D01*
X34515856Y-7125000D01*
X33900000Y-7125000D01*
X33900000Y-7874628D01*
X33914503Y-7947540D01*
X33914505Y-7947544D01*
X33969760Y-8030239D01*
X34052455Y-8085494D01*
X34052459Y-8085496D01*
X34125371Y-8099999D01*
X34125374Y-8100000D01*
X34334930Y-8100000D01*
X34401969Y-8119685D01*
X34447724Y-8172489D01*
X34457668Y-8241647D01*
X34428643Y-8305203D01*
X34391225Y-8334485D01*
X34292180Y-8384951D01*
X34120213Y-8509890D01*
X33969890Y-8660213D01*
X33844951Y-8832179D01*
X33748444Y-9021585D01*
X33682753Y-9223760D01*
X33649500Y-9433713D01*
X33649500Y-9646286D01*
X33682753Y-9856239D01*
X33748444Y-10058414D01*
X33844951Y-10247820D01*
X33969890Y-10419786D01*
X34120213Y-10570109D01*
X34292182Y-10695050D01*
X34300946Y-10699516D01*
X34351742Y-10747491D01*
X34368536Y-10815312D01*
X34345998Y-10881447D01*
X34300946Y-10920484D01*
X34292182Y-10924949D01*
X34120213Y-11049890D01*
X33969890Y-11200213D01*
X33844951Y-11372179D01*
X33748444Y-11561585D01*
X33682753Y-11763760D01*
X33653939Y-11945687D01*
X33649500Y-11973713D01*
X33649500Y-12186287D01*
X33659534Y-12249644D01*
X33682753Y-12396239D01*
X33748444Y-12598414D01*
X33844951Y-12787820D01*
X33969890Y-12959786D01*
X34120213Y-13110109D01*
X34292182Y-13235050D01*
X34300946Y-13239516D01*
X34351742Y-13287491D01*
X34368536Y-13355312D01*
X34345998Y-13421447D01*
X34300946Y-13460484D01*
X34292182Y-13464949D01*
X34120213Y-13589890D01*
X33969890Y-13740213D01*
X33844951Y-13912179D01*
X33748444Y-14101585D01*
X33682753Y-14303760D01*
X33649500Y-14513713D01*
X33649500Y-14726286D01*
X33679920Y-14918354D01*
X33682754Y-14936243D01*
X33748443Y-15138412D01*
X33770883Y-15182454D01*
X33776871Y-15194205D01*
X33789767Y-15262874D01*
X33763491Y-15327615D01*
X33706384Y-15367872D01*
X33666386Y-15374500D01*
X19999500Y-15374500D01*
X19932461Y-15354815D01*
X19886706Y-15302011D01*
X19875500Y-15250500D01*
X19875500Y-14938393D01*
X19875499Y-14938389D01*
X19871079Y-14916167D01*
X19851463Y-14817548D01*
X19804311Y-14703714D01*
X19804310Y-14703713D01*
X19804307Y-14703707D01*
X19735858Y-14601267D01*
X19735855Y-14601263D01*
X19648736Y-14514144D01*
X19648732Y-14514141D01*
X19546292Y-14445692D01*
X19546283Y-14445687D01*
X19432454Y-14398538D01*
X19432455Y-14398538D01*
X19432452Y-14398537D01*
X19432448Y-14398536D01*
X19432444Y-14398535D01*
X19311610Y-14374500D01*
X19311606Y-14374500D01*
X16749500Y-14374500D01*
X16682461Y-14354815D01*
X16636706Y-14302011D01*
X16625500Y-14250500D01*
X16625500Y-12869500D01*
X16628050Y-12860814D01*
X16626762Y-12851853D01*
X16637740Y-12827812D01*
X16645185Y-12802461D01*
X16652025Y-12796533D01*
X16655787Y-12788297D01*
X16678021Y-12774007D01*
X16697989Y-12756706D01*
X16708503Y-12754418D01*
X16714565Y-12750523D01*
X16749500Y-12745500D01*
X16996506Y-12745500D01*
X17063545Y-12765185D01*
X17095772Y-12795189D01*
X17142448Y-12857539D01*
X17142451Y-12857542D01*
X17142454Y-12857546D01*
X17171095Y-12878987D01*
X17257664Y-12943793D01*
X17257671Y-12943797D01*
X17392517Y-12994091D01*
X17392516Y-12994091D01*
X17399444Y-12994835D01*
X17452127Y-13000500D01*
X18547872Y-13000499D01*
X18607483Y-12994091D01*
X18742331Y-12943796D01*
X18857546Y-12857546D01*
X18943796Y-12742331D01*
X18994091Y-12607483D01*
X19000500Y-12547873D01*
X19000499Y-11702128D01*
X18994091Y-11642517D01*
X18978704Y-11601263D01*
X18943797Y-11507671D01*
X18943793Y-11507664D01*
X18857547Y-11392455D01*
X18857544Y-11392452D01*
X18742335Y-11306206D01*
X18742328Y-11306202D01*
X18607482Y-11255908D01*
X18607483Y-11255908D01*
X18547883Y-11249501D01*
X18547881Y-11249500D01*
X18547873Y-11249500D01*
X18547864Y-11249500D01*
X17452129Y-11249500D01*
X17452123Y-11249501D01*
X17392516Y-11255908D01*
X17257671Y-11306202D01*
X17257664Y-11306206D01*
X17142457Y-11392451D01*
X17142449Y-11392458D01*
X17103260Y-11444810D01*
X17047326Y-11486682D01*
X17003993Y-11494500D01*
X16749500Y-11494500D01*
X16682461Y-11474815D01*
X16636706Y-11422011D01*
X16625500Y-11370500D01*
X16625500Y-8112230D01*
X16645185Y-8045191D01*
X16661819Y-8024549D01*
X16711819Y-7974549D01*
X16767712Y-7918656D01*
X16859814Y-7769334D01*
X16914999Y-7602797D01*
X16925500Y-7500009D01*
X16925499Y-6499992D01*
X16914999Y-6397203D01*
X16859814Y-6230666D01*
X16767712Y-6081344D01*
X16643656Y-5957288D01*
X16494334Y-5865186D01*
X16327797Y-5810001D01*
X16327795Y-5810000D01*
X16225010Y-5799500D01*
X15599998Y-5799500D01*
X15599980Y-5799501D01*
X15497203Y-5810000D01*
X15497200Y-5810001D01*
X15330668Y-5865185D01*
X15330663Y-5865187D01*
X15181342Y-5957289D01*
X15087681Y-6050951D01*
X15026358Y-6084436D01*
X14956666Y-6079452D01*
X14912319Y-6050951D01*
X14818657Y-5957289D01*
X14818656Y-5957288D01*
X14669334Y-5865186D01*
X14502797Y-5810001D01*
X14502795Y-5810000D01*
X14400010Y-5799500D01*
X13774998Y-5799500D01*
X13774980Y-5799501D01*
X13672203Y-5810000D01*
X13672200Y-5810001D01*
X13505668Y-5865185D01*
X13505663Y-5865187D01*
X13356342Y-5957289D01*
X13232289Y-6081342D01*
X13140187Y-6230663D01*
X13140186Y-6230666D01*
X13085001Y-6397203D01*
X13085001Y-6397204D01*
X13085000Y-6397204D01*
X13074500Y-6499983D01*
X13074500Y-7500001D01*
X13074501Y-7500019D01*
X13085000Y-7602796D01*
X13085001Y-7602799D01*
X13140185Y-7769331D01*
X13140186Y-7769334D01*
X13205131Y-7874628D01*
X13232289Y-7918657D01*
X13288181Y-7974549D01*
X13321666Y-8035872D01*
X13324500Y-8062230D01*
X13324500Y-8816531D01*
X13324500Y-8816533D01*
X13324499Y-8816533D01*
X13350458Y-8947030D01*
X13350461Y-8947040D01*
X13401376Y-9069961D01*
X13401386Y-9069979D01*
X13475301Y-9180601D01*
X13475307Y-9180609D01*
X13569390Y-9274692D01*
X13569398Y-9274698D01*
X13680020Y-9348613D01*
X13680023Y-9348614D01*
X13680031Y-9348620D01*
X13680037Y-9348622D01*
X13680038Y-9348623D01*
X13742511Y-9374500D01*
X13802964Y-9399540D01*
X13802968Y-9399540D01*
X13802969Y-9399541D01*
X13933466Y-9425500D01*
X13933469Y-9425500D01*
X14066531Y-9425500D01*
X14282480Y-9425500D01*
X14349519Y-9445185D01*
X14351372Y-9446399D01*
X14370813Y-9459389D01*
X14370816Y-9459391D01*
X14370821Y-9459394D01*
X14370823Y-9459395D01*
X14370827Y-9459397D01*
X14516498Y-9519735D01*
X14516503Y-9519737D01*
X14671153Y-9550499D01*
X14671156Y-9550500D01*
X14671158Y-9550500D01*
X14828844Y-9550500D01*
X14828845Y-9550499D01*
X14983497Y-9519737D01*
X15129179Y-9459394D01*
X15129184Y-9459390D01*
X15129187Y-9459389D01*
X15181608Y-9424362D01*
X15248285Y-9403483D01*
X15315665Y-9421967D01*
X15362356Y-9473945D01*
X15374500Y-9527463D01*
X15374500Y-11250500D01*
X15354815Y-11317539D01*
X15302011Y-11363294D01*
X15250500Y-11374500D01*
X12874835Y-11374500D01*
X12807796Y-11354815D01*
X12800524Y-11349767D01*
X12742331Y-11306204D01*
X12742328Y-11306202D01*
X12607482Y-11255908D01*
X12607483Y-11255908D01*
X12547883Y-11249501D01*
X12547881Y-11249500D01*
X12547873Y-11249500D01*
X12547864Y-11249500D01*
X11452129Y-11249500D01*
X11452123Y-11249501D01*
X11392516Y-11255908D01*
X11257671Y-11306202D01*
X11257664Y-11306206D01*
X11142455Y-11392452D01*
X11142452Y-11392455D01*
X11056206Y-11507664D01*
X11056202Y-11507671D01*
X11005908Y-11642517D01*
X10999501Y-11702116D01*
X10999501Y-11702123D01*
X10999500Y-11702135D01*
X10999500Y-11750500D01*
X10979815Y-11817539D01*
X10927011Y-11863294D01*
X10875500Y-11874500D01*
X8938389Y-11874500D01*
X8817555Y-11898535D01*
X8817545Y-11898538D01*
X8703716Y-11945687D01*
X8703707Y-11945692D01*
X8601267Y-12014141D01*
X8601263Y-12014144D01*
X8514144Y-12101263D01*
X8514141Y-12101267D01*
X8445692Y-12203707D01*
X8445687Y-12203716D01*
X8398538Y-12317545D01*
X8398535Y-12317555D01*
X8374500Y-12438389D01*
X8374500Y-12650500D01*
X8354815Y-12717539D01*
X8302011Y-12763294D01*
X8250500Y-12774500D01*
X7749998Y-12774500D01*
X7749980Y-12774501D01*
X7647203Y-12785000D01*
X7647200Y-12785001D01*
X7480668Y-12840185D01*
X7480663Y-12840187D01*
X7331342Y-12932289D01*
X7207289Y-13056342D01*
X7115187Y-13205663D01*
X7115185Y-13205668D01*
X7091033Y-13278556D01*
X7060001Y-13372203D01*
X7060001Y-13372204D01*
X7060000Y-13372204D01*
X7049500Y-13474983D01*
X7049500Y-14525001D01*
X7049501Y-14525019D01*
X7060000Y-14627796D01*
X7060001Y-14627799D01*
X7115185Y-14794331D01*
X7115187Y-14794336D01*
X7136473Y-14828846D01*
X7207288Y-14943656D01*
X7331344Y-15067712D01*
X7480666Y-15159814D01*
X7647203Y-15214999D01*
X7749991Y-15225500D01*
X8350008Y-15225499D01*
X8350016Y-15225498D01*
X8350019Y-15225498D01*
X8406302Y-15219748D01*
X8452797Y-15214999D01*
X8619334Y-15159814D01*
X8768656Y-15067712D01*
X8892712Y-14943656D01*
X8984814Y-14794334D01*
X9015461Y-14701845D01*
X9055232Y-14644403D01*
X9119748Y-14617580D01*
X9188524Y-14629895D01*
X9239724Y-14677438D01*
X9249347Y-14697517D01*
X9256647Y-14717091D01*
X9256648Y-14717092D01*
X9342809Y-14832187D01*
X9342812Y-14832190D01*
X9457906Y-14918350D01*
X9457913Y-14918354D01*
X9592620Y-14968596D01*
X9592627Y-14968598D01*
X9652155Y-14974999D01*
X9652172Y-14975000D01*
X9825000Y-14975000D01*
X10075000Y-14975000D01*
X10247828Y-14975000D01*
X10247844Y-14974999D01*
X10307372Y-14968598D01*
X10307379Y-14968596D01*
X10442086Y-14918354D01*
X10442093Y-14918350D01*
X10557187Y-14832190D01*
X10557190Y-14832187D01*
X10643350Y-14717093D01*
X10643354Y-14717086D01*
X10693596Y-14582379D01*
X10693598Y-14582372D01*
X10699999Y-14522844D01*
X10700000Y-14522827D01*
X10700000Y-14125000D01*
X10075000Y-14125000D01*
X10075000Y-14975000D01*
X9825000Y-14975000D01*
X9825000Y-14124000D01*
X9827550Y-14115314D01*
X9826262Y-14106353D01*
X9837240Y-14082312D01*
X9844685Y-14056961D01*
X9851525Y-14051033D01*
X9855287Y-14042797D01*
X9877521Y-14028507D01*
X9897489Y-14011206D01*
X9908003Y-14008918D01*
X9914065Y-14005023D01*
X9949000Y-14000000D01*
X9950000Y-14000000D01*
X9950000Y-13999000D01*
X9969685Y-13931961D01*
X10022489Y-13886206D01*
X10074000Y-13875000D01*
X10700000Y-13875000D01*
X10700000Y-13477172D01*
X10699999Y-13477155D01*
X10693598Y-13417627D01*
X10693596Y-13417620D01*
X10647054Y-13292833D01*
X10642070Y-13223142D01*
X10675555Y-13161818D01*
X10736878Y-13128334D01*
X10763236Y-13125500D01*
X12061607Y-13125500D01*
X12061608Y-13125499D01*
X12182452Y-13101463D01*
X12296286Y-13054311D01*
X12319977Y-13038480D01*
X12345545Y-13021397D01*
X12412223Y-13000519D01*
X12414436Y-13000499D01*
X12547871Y-13000499D01*
X12547872Y-13000499D01*
X12607483Y-12994091D01*
X12742331Y-12943796D01*
X12857546Y-12857546D01*
X12879805Y-12827812D01*
X12904228Y-12795189D01*
X12960162Y-12753318D01*
X13003494Y-12745500D01*
X15250500Y-12745500D01*
X15317539Y-12765185D01*
X15363294Y-12817989D01*
X15374500Y-12869500D01*
X15374500Y-15061610D01*
X15398535Y-15182444D01*
X15398538Y-15182454D01*
X15445687Y-15296283D01*
X15445692Y-15296292D01*
X15514141Y-15398732D01*
X15514144Y-15398736D01*
X15601263Y-15485855D01*
X15601267Y-15485858D01*
X15703707Y-15554307D01*
X15703713Y-15554310D01*
X15703714Y-15554311D01*
X15817548Y-15601463D01*
X15938389Y-15625499D01*
X15938393Y-15625500D01*
X15938394Y-15625500D01*
X16061606Y-15625500D01*
X17126000Y-15625500D01*
X17193039Y-15645185D01*
X17238794Y-15697989D01*
X17250000Y-15749500D01*
X17250000Y-15750000D01*
X17876000Y-15750000D01*
X17884685Y-15752550D01*
X17893647Y-15751262D01*
X17917687Y-15762240D01*
X17943039Y-15769685D01*
X17948966Y-15776525D01*
X17957203Y-15780287D01*
X17971492Y-15802521D01*
X17988794Y-15822489D01*
X17991081Y-15833003D01*
X17994977Y-15839065D01*
X18000000Y-15874000D01*
X18000000Y-15875000D01*
X18001000Y-15875000D01*
X18068039Y-15894685D01*
X18113794Y-15947489D01*
X18125000Y-15999000D01*
X18125000Y-16500000D01*
X18524626Y-16500000D01*
X18524628Y-16499999D01*
X18597540Y-16485496D01*
X18597544Y-16485494D01*
X18664808Y-16440551D01*
X18731486Y-16419673D01*
X18798866Y-16438158D01*
X18821380Y-16455972D01*
X18851263Y-16485855D01*
X18851267Y-16485858D01*
X18953707Y-16554307D01*
X18953713Y-16554310D01*
X18953714Y-16554311D01*
X19067548Y-16601463D01*
X19188389Y-16625499D01*
X19188393Y-16625500D01*
X19188394Y-16625500D01*
X22200500Y-16625500D01*
X22267539Y-16645185D01*
X22313294Y-16697989D01*
X22324500Y-16749500D01*
X22324500Y-18937770D01*
X22304815Y-19004809D01*
X22288181Y-19025451D01*
X22232289Y-19081342D01*
X22140185Y-19230667D01*
X22137256Y-19239507D01*
X22097482Y-19296951D01*
X22032965Y-19323772D01*
X22019551Y-19324500D01*
X15549500Y-19324500D01*
X15482461Y-19304815D01*
X15436706Y-19252011D01*
X15425500Y-19200500D01*
X15425500Y-18433466D01*
X15399541Y-18302969D01*
X15399540Y-18302968D01*
X15399540Y-18302964D01*
X15348620Y-18180031D01*
X15311181Y-18124000D01*
X15274698Y-18069398D01*
X15274692Y-18069390D01*
X15180609Y-17975307D01*
X15180601Y-17975301D01*
X15069979Y-17901386D01*
X15069972Y-17901382D01*
X15069969Y-17901380D01*
X15069965Y-17901378D01*
X15069961Y-17901376D01*
X14947040Y-17850461D01*
X14947030Y-17850458D01*
X14816533Y-17824500D01*
X14816531Y-17824500D01*
X6066531Y-17824500D01*
X5933469Y-17824500D01*
X5933467Y-17824500D01*
X5802969Y-17850458D01*
X5802959Y-17850461D01*
X5680038Y-17901376D01*
X5680020Y-17901386D01*
X5569398Y-17975301D01*
X5569390Y-17975307D01*
X5475307Y-18069390D01*
X5475301Y-18069398D01*
X5401386Y-18180020D01*
X5401376Y-18180038D01*
X5350461Y-18302959D01*
X5350458Y-18302969D01*
X5324500Y-18433466D01*
X5324500Y-18675500D01*
X5304815Y-18742539D01*
X5252011Y-18788294D01*
X5200500Y-18799500D01*
X4774998Y-18799500D01*
X4774980Y-18799501D01*
X4672203Y-18810000D01*
X4672200Y-18810001D01*
X4505668Y-18865185D01*
X4505663Y-18865187D01*
X4356342Y-18957289D01*
X4232289Y-19081342D01*
X4140187Y-19230663D01*
X4140185Y-19230668D01*
X4133113Y-19252011D01*
X4085001Y-19397203D01*
X4085001Y-19397204D01*
X4085000Y-19397204D01*
X4074500Y-19499983D01*
X4074500Y-20500001D01*
X4074501Y-20500019D01*
X4085000Y-20602796D01*
X4091293Y-20621786D01*
X4121021Y-20711498D01*
X4123423Y-20781324D01*
X4087692Y-20841366D01*
X4025172Y-20872559D01*
X4003315Y-20874500D01*
X2938389Y-20874500D01*
X2817555Y-20898535D01*
X2817545Y-20898538D01*
X2703716Y-20945687D01*
X2703707Y-20945692D01*
X2601267Y-21014141D01*
X2601263Y-21014144D01*
X2514144Y-21101263D01*
X2514141Y-21101267D01*
X2445692Y-21203707D01*
X2445687Y-21203716D01*
X2398538Y-21317545D01*
X2398535Y-21317555D01*
X2374500Y-21438389D01*
X2374500Y-24176533D01*
X2354815Y-24243572D01*
X2302011Y-24289327D01*
X2293836Y-24292714D01*
X2257665Y-24306205D01*
X2142455Y-24392452D01*
X2142452Y-24392455D01*
X2056206Y-24507664D01*
X2056202Y-24507671D01*
X2005908Y-24642517D01*
X2001616Y-24682444D01*
X1999501Y-24702123D01*
X1999500Y-24702135D01*
X1999500Y-25547870D01*
X1999501Y-25547876D01*
X2005908Y-25607483D01*
X2056202Y-25742328D01*
X2056206Y-25742335D01*
X2142452Y-25857544D01*
X2142455Y-25857547D01*
X2257664Y-25943793D01*
X2257669Y-25943796D01*
X2293832Y-25957284D01*
X2349766Y-25999154D01*
X2374184Y-26064618D01*
X2374500Y-26073466D01*
X2374500Y-28061610D01*
X2397239Y-28175927D01*
X2391012Y-28245519D01*
X2348148Y-28300696D01*
X2344515Y-28303219D01*
X2319760Y-28319760D01*
X2264505Y-28402455D01*
X2264503Y-28402459D01*
X2250000Y-28475371D01*
X2250000Y-28750000D01*
X2876000Y-28750000D01*
X2884685Y-28752550D01*
X2893647Y-28751262D01*
X2917687Y-28762240D01*
X2943039Y-28769685D01*
X2948966Y-28776525D01*
X2957203Y-28780287D01*
X2971492Y-28802521D01*
X2988794Y-28822489D01*
X2991081Y-28833003D01*
X2994977Y-28839065D01*
X3000000Y-28874000D01*
X3000000Y-28875000D01*
X3001000Y-28875000D01*
X3068039Y-28894685D01*
X3113794Y-28947489D01*
X3125000Y-28999000D01*
X3125000Y-29500000D01*
X3500500Y-29500000D01*
X3567539Y-29519685D01*
X3613294Y-29572489D01*
X3624500Y-29624000D01*
X3624500Y-34061610D01*
X3648535Y-34182444D01*
X3648538Y-34182454D01*
X3695687Y-34296283D01*
X3695692Y-34296292D01*
X3764141Y-34398732D01*
X3764144Y-34398736D01*
X3851263Y-34485855D01*
X3851267Y-34485858D01*
X3953707Y-34554307D01*
X3953711Y-34554309D01*
X3953714Y-34554311D01*
X3984272Y-34566968D01*
X3996276Y-34571941D01*
X4050679Y-34615782D01*
X4066529Y-34647498D01*
X4115185Y-34794331D01*
X4115187Y-34794336D01*
X4129504Y-34817548D01*
X4207288Y-34943656D01*
X4331344Y-35067712D01*
X4480666Y-35159814D01*
X4647203Y-35214999D01*
X4749991Y-35225500D01*
X5350008Y-35225499D01*
X5350016Y-35225498D01*
X5350019Y-35225498D01*
X5406302Y-35219748D01*
X5452797Y-35214999D01*
X5619334Y-35159814D01*
X5768656Y-35067712D01*
X5892712Y-34943656D01*
X5984814Y-34794334D01*
X6015461Y-34701846D01*
X6055231Y-34644405D01*
X6119746Y-34617581D01*
X6188522Y-34629895D01*
X6239723Y-34677438D01*
X6249346Y-34697517D01*
X6256645Y-34717085D01*
X6256649Y-34717093D01*
X6342809Y-34832187D01*
X6342812Y-34832190D01*
X6457906Y-34918350D01*
X6457913Y-34918354D01*
X6592620Y-34968596D01*
X6592627Y-34968598D01*
X6652155Y-34974999D01*
X6652172Y-34975000D01*
X6825000Y-34975000D01*
X7075000Y-34975000D01*
X7247828Y-34975000D01*
X7247844Y-34974999D01*
X7307372Y-34968598D01*
X7307379Y-34968596D01*
X7442086Y-34918354D01*
X7442093Y-34918350D01*
X7557187Y-34832190D01*
X7557190Y-34832187D01*
X7643350Y-34717093D01*
X7643354Y-34717086D01*
X7693596Y-34582379D01*
X7693598Y-34582372D01*
X7699999Y-34522844D01*
X7700000Y-34522827D01*
X7700000Y-34125000D01*
X7075000Y-34125000D01*
X7075000Y-34975000D01*
X6825000Y-34975000D01*
X6825000Y-33875000D01*
X7075000Y-33875000D01*
X7700000Y-33875000D01*
X7700000Y-33477172D01*
X7699999Y-33477155D01*
X7693598Y-33417627D01*
X7693596Y-33417620D01*
X7643354Y-33282913D01*
X7643350Y-33282906D01*
X7557190Y-33167812D01*
X7557187Y-33167809D01*
X7442093Y-33081649D01*
X7442086Y-33081645D01*
X7307379Y-33031403D01*
X7307372Y-33031401D01*
X7247844Y-33025000D01*
X7075000Y-33025000D01*
X7075000Y-33875000D01*
X6825000Y-33875000D01*
X6825000Y-33025000D01*
X6652155Y-33025000D01*
X6592627Y-33031401D01*
X6592620Y-33031403D01*
X6457913Y-33081645D01*
X6457906Y-33081649D01*
X6342812Y-33167809D01*
X6342809Y-33167812D01*
X6256649Y-33282906D01*
X6256644Y-33282916D01*
X6249347Y-33302480D01*
X6207475Y-33358413D01*
X6142010Y-33382829D01*
X6073738Y-33367976D01*
X6024333Y-33318570D01*
X6015460Y-33298150D01*
X6006044Y-33269735D01*
X5984814Y-33205666D01*
X5892712Y-33056344D01*
X5768656Y-32932288D01*
X5639368Y-32852543D01*
X5619336Y-32840187D01*
X5619331Y-32840185D01*
X5613135Y-32838132D01*
X5452797Y-32785001D01*
X5452795Y-32785000D01*
X5350016Y-32774500D01*
X5350009Y-32774500D01*
X4999500Y-32774500D01*
X4932461Y-32754815D01*
X4886706Y-32702011D01*
X4875500Y-32650500D01*
X4875500Y-29274628D01*
X8250000Y-29274628D01*
X8264503Y-29347540D01*
X8264505Y-29347544D01*
X8319760Y-29430239D01*
X8402455Y-29485494D01*
X8402459Y-29485496D01*
X8475371Y-29499999D01*
X8475374Y-29500000D01*
X8875000Y-29500000D01*
X9125000Y-29500000D01*
X9524626Y-29500000D01*
X9524628Y-29499999D01*
X9597540Y-29485496D01*
X9597544Y-29485494D01*
X9680239Y-29430239D01*
X9735494Y-29347544D01*
X9735496Y-29347540D01*
X9749999Y-29274628D01*
X20250000Y-29274628D01*
X20264503Y-29347540D01*
X20264505Y-29347544D01*
X20319760Y-29430239D01*
X20402455Y-29485494D01*
X20402459Y-29485496D01*
X20475371Y-29499999D01*
X20475374Y-29500000D01*
X20875000Y-29500000D01*
X21125000Y-29500000D01*
X21524626Y-29500000D01*
X21524628Y-29499999D01*
X21597540Y-29485496D01*
X21597544Y-29485494D01*
X21680239Y-29430239D01*
X21735494Y-29347544D01*
X21735496Y-29347540D01*
X21749999Y-29274628D01*
X21750000Y-29274626D01*
X21750000Y-29000000D01*
X21125000Y-29000000D01*
X21125000Y-29500000D01*
X20875000Y-29500000D01*
X20875000Y-29000000D01*
X20250000Y-29000000D01*
X20250000Y-29274628D01*
X9749999Y-29274628D01*
X9750000Y-29274626D01*
X9750000Y-29000000D01*
X9125000Y-29000000D01*
X9125000Y-29500000D01*
X8875000Y-29500000D01*
X8875000Y-29000000D01*
X8250000Y-29000000D01*
X8250000Y-29274628D01*
X4875500Y-29274628D01*
X4875500Y-28475371D01*
X8250000Y-28475371D01*
X8250000Y-28750000D01*
X8875000Y-28750000D01*
X9125000Y-28750000D01*
X9750000Y-28750000D01*
X9750000Y-28475373D01*
X9749999Y-28475371D01*
X20250000Y-28475371D01*
X20250000Y-28750000D01*
X20875000Y-28750000D01*
X21125000Y-28750000D01*
X21750000Y-28750000D01*
X21750000Y-28475373D01*
X21749999Y-28475371D01*
X21735496Y-28402459D01*
X21735494Y-28402455D01*
X21680239Y-28319760D01*
X21597544Y-28264505D01*
X21597540Y-28264503D01*
X21524627Y-28250000D01*
X21125000Y-28250000D01*
X21125000Y-28750000D01*
X20875000Y-28750000D01*
X20875000Y-28250000D01*
X20475373Y-28250000D01*
X20402459Y-28264503D01*
X20402455Y-28264505D01*
X20319760Y-28319760D01*
X20264505Y-28402455D01*
X20264503Y-28402459D01*
X20250000Y-28475371D01*
X9749999Y-28475371D01*
X9735496Y-28402459D01*
X9735494Y-28402455D01*
X9680239Y-28319760D01*
X9597544Y-28264505D01*
X9597540Y-28264503D01*
X9524627Y-28250000D01*
X9125000Y-28250000D01*
X9125000Y-28750000D01*
X8875000Y-28750000D01*
X8875000Y-28250000D01*
X8475373Y-28250000D01*
X8402459Y-28264503D01*
X8402455Y-28264505D01*
X8319760Y-28319760D01*
X8264505Y-28402455D01*
X8264503Y-28402459D01*
X8250000Y-28475371D01*
X4875500Y-28475371D01*
X4875500Y-27938393D01*
X4875499Y-27938389D01*
X4867772Y-27899540D01*
X4851463Y-27817548D01*
X4804311Y-27703714D01*
X4804310Y-27703713D01*
X4804307Y-27703707D01*
X4735858Y-27601267D01*
X4735855Y-27601263D01*
X4648736Y-27514144D01*
X4648732Y-27514141D01*
X4546292Y-27445692D01*
X4546283Y-27445687D01*
X4432454Y-27398538D01*
X4432455Y-27398538D01*
X4432452Y-27398537D01*
X4432448Y-27398536D01*
X4432444Y-27398535D01*
X4311610Y-27374500D01*
X4311606Y-27374500D01*
X3749500Y-27374500D01*
X3682461Y-27354815D01*
X3636706Y-27302011D01*
X3625500Y-27250500D01*
X3625500Y-26073466D01*
X3645185Y-26006427D01*
X3697989Y-25960672D01*
X3706156Y-25957288D01*
X3742331Y-25943796D01*
X3857546Y-25857546D01*
X3864615Y-25848102D01*
X3904228Y-25795189D01*
X3960162Y-25753318D01*
X4003494Y-25745500D01*
X7996506Y-25745500D01*
X8063545Y-25765185D01*
X8095772Y-25795189D01*
X8142448Y-25857539D01*
X8142451Y-25857542D01*
X8142454Y-25857546D01*
X8171095Y-25878987D01*
X8257664Y-25943793D01*
X8257671Y-25943797D01*
X8392517Y-25994091D01*
X8392516Y-25994091D01*
X8399444Y-25994835D01*
X8452127Y-26000500D01*
X9547872Y-26000499D01*
X9607483Y-25994091D01*
X9742331Y-25943796D01*
X9857546Y-25857546D01*
X9943796Y-25742331D01*
X9994091Y-25607483D01*
X10000500Y-25547873D01*
X10000499Y-24702128D01*
X9994091Y-24642517D01*
X9976173Y-24594477D01*
X9943797Y-24507671D01*
X9943793Y-24507664D01*
X9857547Y-24392455D01*
X9857544Y-24392452D01*
X9742335Y-24306206D01*
X9742328Y-24306202D01*
X9607482Y-24255908D01*
X9607483Y-24255908D01*
X9547883Y-24249501D01*
X9547881Y-24249500D01*
X9547873Y-24249500D01*
X9547864Y-24249500D01*
X8452129Y-24249500D01*
X8452123Y-24249501D01*
X8392516Y-24255908D01*
X8257671Y-24306202D01*
X8257664Y-24306206D01*
X8142457Y-24392451D01*
X8142449Y-24392458D01*
X8103260Y-24444810D01*
X8047326Y-24486682D01*
X8003993Y-24494500D01*
X3996007Y-24494500D01*
X3928968Y-24474815D01*
X3896740Y-24444810D01*
X3857550Y-24392458D01*
X3857547Y-24392455D01*
X3857546Y-24392454D01*
X3833563Y-24374500D01*
X3742334Y-24306205D01*
X3706164Y-24292714D01*
X3650231Y-24250841D01*
X3625816Y-24185376D01*
X3625500Y-24176533D01*
X3625500Y-22249500D01*
X3645185Y-22182461D01*
X3697989Y-22136706D01*
X3749500Y-22125500D01*
X26311607Y-22125500D01*
X26311608Y-22125499D01*
X26432452Y-22101463D01*
X26546286Y-22054311D01*
X26648733Y-21985858D01*
X26735858Y-21898733D01*
X26804311Y-21796286D01*
X26851463Y-21682452D01*
X26875500Y-21561606D01*
X26875500Y-20999500D01*
X26895185Y-20932461D01*
X26947989Y-20886706D01*
X26999500Y-20875500D01*
X33325500Y-20875500D01*
X33392539Y-20895185D01*
X33438294Y-20947989D01*
X33449500Y-20999500D01*
X33449500Y-21078846D01*
X33480261Y-21233489D01*
X33480264Y-21233501D01*
X33540602Y-21379172D01*
X33540609Y-21379185D01*
X33628602Y-21510874D01*
X33634252Y-21528920D01*
X33644477Y-21544830D01*
X33648928Y-21575789D01*
X33649480Y-21577551D01*
X33649500Y-21579765D01*
X33649500Y-21775500D01*
X33629815Y-21842539D01*
X33577011Y-21888294D01*
X33525500Y-21899500D01*
X32579766Y-21899500D01*
X32512727Y-21879815D01*
X32510875Y-21878602D01*
X32379185Y-21790609D01*
X32379172Y-21790602D01*
X32233501Y-21730264D01*
X32233489Y-21730261D01*
X32078845Y-21699500D01*
X32078842Y-21699500D01*
X31921158Y-21699500D01*
X31921155Y-21699500D01*
X31766510Y-21730261D01*
X31766498Y-21730264D01*
X31620827Y-21790602D01*
X31620814Y-21790609D01*
X31489711Y-21878210D01*
X31489707Y-21878213D01*
X31378213Y-21989707D01*
X31378210Y-21989711D01*
X31290609Y-22120814D01*
X31290602Y-22120827D01*
X31230264Y-22266498D01*
X31230261Y-22266510D01*
X31199500Y-22421153D01*
X31199500Y-22578846D01*
X31230261Y-22733489D01*
X31230264Y-22733501D01*
X31290602Y-22879172D01*
X31290609Y-22879185D01*
X31378210Y-23010288D01*
X31378213Y-23010292D01*
X31489707Y-23121786D01*
X31489711Y-23121789D01*
X31620814Y-23209390D01*
X31620827Y-23209397D01*
X31766498Y-23269735D01*
X31766503Y-23269737D01*
X31921153Y-23300499D01*
X31921156Y-23300500D01*
X31921158Y-23300500D01*
X32078844Y-23300500D01*
X32078845Y-23300499D01*
X32233497Y-23269737D01*
X32379179Y-23209394D01*
X32453384Y-23159812D01*
X32510875Y-23121398D01*
X32577553Y-23100520D01*
X32579766Y-23100500D01*
X33025500Y-23100500D01*
X33034185Y-23103050D01*
X33043147Y-23101762D01*
X33067187Y-23112740D01*
X33092539Y-23120185D01*
X33098466Y-23127025D01*
X33106703Y-23130787D01*
X33120992Y-23153021D01*
X33138294Y-23172989D01*
X33140581Y-23183503D01*
X33144477Y-23189565D01*
X33149500Y-23224500D01*
X33149500Y-23440149D01*
X33140061Y-23487601D01*
X33114314Y-23549760D01*
X33114313Y-23549764D01*
X33099500Y-23662272D01*
X33099500Y-24226000D01*
X33079815Y-24293039D01*
X33027011Y-24338794D01*
X32975500Y-24350000D01*
X32661913Y-24350000D01*
X32614589Y-24356230D01*
X32614582Y-24356232D01*
X32510711Y-24404668D01*
X32429668Y-24485711D01*
X32381231Y-24589585D01*
X32381230Y-24589586D01*
X32372615Y-24655030D01*
X32344349Y-24718927D01*
X32325165Y-24737219D01*
X32289550Y-24764547D01*
X32230597Y-24841375D01*
X32201586Y-24879185D01*
X32197300Y-24884770D01*
X32139313Y-25024763D01*
X32139313Y-25024764D01*
X32124500Y-25137272D01*
X32124500Y-25362727D01*
X32140374Y-25483292D01*
X32137399Y-25483683D01*
X32137399Y-25516316D01*
X32140374Y-25516708D01*
X32124500Y-25637272D01*
X32124500Y-25862727D01*
X32135173Y-25943793D01*
X32136949Y-25957283D01*
X32140374Y-25983292D01*
X32137399Y-25983683D01*
X32137399Y-26016316D01*
X32140374Y-26016708D01*
X32124500Y-26137272D01*
X32124500Y-26362727D01*
X32140374Y-26483292D01*
X32137399Y-26483683D01*
X32137399Y-26516316D01*
X32140374Y-26516708D01*
X32124500Y-26637272D01*
X32124500Y-26862727D01*
X32140374Y-26983292D01*
X32137399Y-26983683D01*
X32137399Y-27016316D01*
X32140374Y-27016708D01*
X32124500Y-27137272D01*
X32124500Y-27362727D01*
X32135423Y-27445687D01*
X32139313Y-27475236D01*
X32197302Y-27615233D01*
X32289549Y-27735451D01*
X32409767Y-27827698D01*
X32549764Y-27885687D01*
X32662280Y-27900500D01*
X32975500Y-27900500D01*
X32984185Y-27903050D01*
X32993147Y-27901762D01*
X33017187Y-27912740D01*
X33042539Y-27920185D01*
X33048466Y-27927025D01*
X33056703Y-27930787D01*
X33070992Y-27953021D01*
X33088294Y-27972989D01*
X33090581Y-27983503D01*
X33094477Y-27989565D01*
X33099500Y-28024500D01*
X33099500Y-28025500D01*
X33079815Y-28092539D01*
X33027011Y-28138294D01*
X32975500Y-28149500D01*
X31070943Y-28149500D01*
X30918216Y-28190423D01*
X30918209Y-28190426D01*
X30781290Y-28269475D01*
X30781282Y-28269481D01*
X30669481Y-28381282D01*
X30669475Y-28381290D01*
X30590426Y-28518209D01*
X30590423Y-28518216D01*
X30549500Y-28670943D01*
X30549500Y-31575500D01*
X30529815Y-31642539D01*
X30477011Y-31688294D01*
X30425500Y-31699500D01*
X30421155Y-31699500D01*
X30266510Y-31730261D01*
X30266498Y-31730264D01*
X30120827Y-31790602D01*
X30120815Y-31790609D01*
X30026541Y-31853602D01*
X29959864Y-31874480D01*
X29957650Y-31874500D01*
X23749500Y-31874500D01*
X23682461Y-31854815D01*
X23636706Y-31802011D01*
X23625500Y-31750500D01*
X23625500Y-29274628D01*
X26250000Y-29274628D01*
X26264503Y-29347540D01*
X26264505Y-29347544D01*
X26319760Y-29430239D01*
X26402455Y-29485494D01*
X26402459Y-29485496D01*
X26475371Y-29499999D01*
X26475374Y-29500000D01*
X26875000Y-29500000D01*
X27125000Y-29500000D01*
X27524626Y-29500000D01*
X27524628Y-29499999D01*
X27597540Y-29485496D01*
X27597544Y-29485494D01*
X27680239Y-29430239D01*
X27735494Y-29347544D01*
X27735496Y-29347540D01*
X27749999Y-29274628D01*
X27750000Y-29274626D01*
X27750000Y-29000000D01*
X27125000Y-29000000D01*
X27125000Y-29500000D01*
X26875000Y-29500000D01*
X26875000Y-29000000D01*
X26250000Y-29000000D01*
X26250000Y-29274628D01*
X23625500Y-29274628D01*
X23625500Y-28475371D01*
X26250000Y-28475371D01*
X26250000Y-28750000D01*
X26875000Y-28750000D01*
X27125000Y-28750000D01*
X27750000Y-28750000D01*
X27750000Y-28475373D01*
X27749999Y-28475371D01*
X27735496Y-28402459D01*
X27735494Y-28402455D01*
X27680239Y-28319760D01*
X27597544Y-28264505D01*
X27597540Y-28264503D01*
X27524627Y-28250000D01*
X27125000Y-28250000D01*
X27125000Y-28750000D01*
X26875000Y-28750000D01*
X26875000Y-28250000D01*
X26475373Y-28250000D01*
X26402459Y-28264503D01*
X26402455Y-28264505D01*
X26319760Y-28319760D01*
X26264505Y-28402455D01*
X26264503Y-28402459D01*
X26250000Y-28475371D01*
X23625500Y-28475371D01*
X23625500Y-25869500D01*
X23645185Y-25802461D01*
X23697989Y-25756706D01*
X23749500Y-25745500D01*
X25996506Y-25745500D01*
X26063545Y-25765185D01*
X26095772Y-25795189D01*
X26142448Y-25857539D01*
X26142451Y-25857542D01*
X26142454Y-25857546D01*
X26171095Y-25878987D01*
X26257664Y-25943793D01*
X26257671Y-25943797D01*
X26392517Y-25994091D01*
X26392516Y-25994091D01*
X26399444Y-25994835D01*
X26452127Y-26000500D01*
X27547872Y-26000499D01*
X27607483Y-25994091D01*
X27742331Y-25943796D01*
X27857546Y-25857546D01*
X27943796Y-25742331D01*
X27994091Y-25607483D01*
X28000500Y-25547873D01*
X28000499Y-24702128D01*
X27994091Y-24642517D01*
X27976173Y-24594477D01*
X27943797Y-24507671D01*
X27943793Y-24507664D01*
X27857547Y-24392455D01*
X27857544Y-24392452D01*
X27742335Y-24306206D01*
X27742328Y-24306202D01*
X27607482Y-24255908D01*
X27607483Y-24255908D01*
X27547883Y-24249501D01*
X27547881Y-24249500D01*
X27547873Y-24249500D01*
X27547864Y-24249500D01*
X26452129Y-24249500D01*
X26452123Y-24249501D01*
X26392516Y-24255908D01*
X26257671Y-24306202D01*
X26257664Y-24306206D01*
X26142457Y-24392451D01*
X26142449Y-24392458D01*
X26103260Y-24444810D01*
X26047326Y-24486682D01*
X26003993Y-24494500D01*
X24668643Y-24494500D01*
X24601604Y-24474815D01*
X24555849Y-24422011D01*
X24545905Y-24352853D01*
X24547026Y-24346307D01*
X24550500Y-24328843D01*
X24550500Y-24171155D01*
X24550499Y-24171153D01*
X24536845Y-24102511D01*
X24519737Y-24016503D01*
X24513781Y-24002123D01*
X24459397Y-23870827D01*
X24459390Y-23870814D01*
X24371789Y-23739711D01*
X24371786Y-23739707D01*
X24260292Y-23628213D01*
X24260288Y-23628210D01*
X24129185Y-23540609D01*
X24129172Y-23540602D01*
X23983501Y-23480264D01*
X23983489Y-23480261D01*
X23828845Y-23449500D01*
X23828842Y-23449500D01*
X23671158Y-23449500D01*
X23671155Y-23449500D01*
X23516510Y-23480261D01*
X23516498Y-23480264D01*
X23370827Y-23540602D01*
X23370815Y-23540609D01*
X23276541Y-23603602D01*
X23209864Y-23624480D01*
X23207650Y-23624500D01*
X22938389Y-23624500D01*
X22817555Y-23648535D01*
X22817545Y-23648538D01*
X22703716Y-23695687D01*
X22703707Y-23695692D01*
X22601267Y-23764141D01*
X22601263Y-23764144D01*
X22514144Y-23851263D01*
X22514141Y-23851267D01*
X22445692Y-23953707D01*
X22445687Y-23953716D01*
X22398538Y-24067545D01*
X22398535Y-24067555D01*
X22374500Y-24188389D01*
X22374500Y-24250500D01*
X22354815Y-24317539D01*
X22302011Y-24363294D01*
X22250500Y-24374500D01*
X21874835Y-24374500D01*
X21807796Y-24354815D01*
X21800524Y-24349767D01*
X21742331Y-24306204D01*
X21742328Y-24306202D01*
X21607482Y-24255908D01*
X21607483Y-24255908D01*
X21547883Y-24249501D01*
X21547881Y-24249500D01*
X21547873Y-24249500D01*
X21547864Y-24249500D01*
X20452129Y-24249500D01*
X20452123Y-24249501D01*
X20392516Y-24255908D01*
X20257671Y-24306202D01*
X20257664Y-24306206D01*
X20142455Y-24392452D01*
X20142452Y-24392455D01*
X20056206Y-24507664D01*
X20056202Y-24507671D01*
X20005908Y-24642517D01*
X20001616Y-24682444D01*
X19999501Y-24702123D01*
X19999500Y-24702135D01*
X19999500Y-25547870D01*
X19999501Y-25547876D01*
X20005908Y-25607483D01*
X20056202Y-25742328D01*
X20056206Y-25742335D01*
X20142452Y-25857544D01*
X20142455Y-25857547D01*
X20257664Y-25943793D01*
X20257671Y-25943797D01*
X20392517Y-25994091D01*
X20392516Y-25994091D01*
X20399444Y-25994835D01*
X20452127Y-26000500D01*
X21547872Y-26000499D01*
X21607483Y-25994091D01*
X21742331Y-25943796D01*
X21857546Y-25857546D01*
X21864615Y-25848102D01*
X21904228Y-25795189D01*
X21907883Y-25792452D01*
X21909781Y-25788297D01*
X21935602Y-25771702D01*
X21960162Y-25753318D01*
X21965789Y-25752302D01*
X21968559Y-25750523D01*
X22003494Y-25745500D01*
X22250500Y-25745500D01*
X22317539Y-25765185D01*
X22363294Y-25817989D01*
X22374500Y-25869500D01*
X22374500Y-32838132D01*
X22354815Y-32905171D01*
X22335616Y-32926346D01*
X22336451Y-32927181D01*
X22207289Y-33056342D01*
X22115187Y-33205663D01*
X22115185Y-33205668D01*
X22107551Y-33228707D01*
X22060001Y-33372203D01*
X22060001Y-33372204D01*
X22060000Y-33372204D01*
X22049500Y-33474983D01*
X22049500Y-34525001D01*
X22049501Y-34525019D01*
X22060000Y-34627796D01*
X22060001Y-34627799D01*
X22115185Y-34794331D01*
X22115189Y-34794340D01*
X22202198Y-34935404D01*
X22220638Y-35002796D01*
X22199715Y-35069459D01*
X22146073Y-35114229D01*
X22096659Y-35124500D01*
X11938389Y-35124500D01*
X11817555Y-35148535D01*
X11817545Y-35148538D01*
X11703716Y-35195687D01*
X11703707Y-35195692D01*
X11601267Y-35264141D01*
X11601263Y-35264144D01*
X11514144Y-35351263D01*
X11514141Y-35351267D01*
X11445692Y-35453707D01*
X11445687Y-35453716D01*
X11398538Y-35567545D01*
X11398535Y-35567555D01*
X11374500Y-35688389D01*
X11374500Y-37176533D01*
X11354815Y-37243572D01*
X11302011Y-37289327D01*
X11293836Y-37292714D01*
X11257665Y-37306205D01*
X11142455Y-37392452D01*
X11142452Y-37392455D01*
X11056206Y-37507664D01*
X11056202Y-37507671D01*
X11005908Y-37642517D01*
X11000116Y-37696399D01*
X10999501Y-37702123D01*
X10999500Y-37702135D01*
X10999500Y-37750500D01*
X10979815Y-37817539D01*
X10927011Y-37863294D01*
X10875500Y-37874500D01*
X8938389Y-37874500D01*
X8817555Y-37898535D01*
X8817545Y-37898538D01*
X8703716Y-37945687D01*
X8703707Y-37945692D01*
X8601267Y-38014141D01*
X8601263Y-38014144D01*
X8514144Y-38101263D01*
X8514141Y-38101267D01*
X8445692Y-38203707D01*
X8445687Y-38203716D01*
X8398538Y-38317545D01*
X8398535Y-38317555D01*
X8374500Y-38438389D01*
X8374500Y-38650500D01*
X8354815Y-38717539D01*
X8302011Y-38763294D01*
X8250500Y-38774500D01*
X7749998Y-38774500D01*
X7749980Y-38774501D01*
X7647203Y-38785000D01*
X7647200Y-38785001D01*
X7480668Y-38840185D01*
X7480663Y-38840187D01*
X7331342Y-38932289D01*
X7207289Y-39056342D01*
X7115187Y-39205663D01*
X7115185Y-39205668D01*
X7107184Y-39229815D01*
X7060001Y-39372203D01*
X7060001Y-39372204D01*
X7060000Y-39372204D01*
X7049500Y-39474983D01*
X7049500Y-40525001D01*
X7049501Y-40525019D01*
X7060000Y-40627796D01*
X7060001Y-40627799D01*
X7115185Y-40794331D01*
X7115187Y-40794336D01*
X7138534Y-40832187D01*
X7207288Y-40943656D01*
X7331344Y-41067712D01*
X7480666Y-41159814D01*
X7647203Y-41214999D01*
X7749991Y-41225500D01*
X8250500Y-41225499D01*
X8317539Y-41245183D01*
X8363294Y-41297987D01*
X8374500Y-41349499D01*
X8374500Y-45561610D01*
X8398535Y-45682444D01*
X8398538Y-45682454D01*
X8445687Y-45796283D01*
X8445692Y-45796292D01*
X8514141Y-45898732D01*
X8514144Y-45898736D01*
X8601263Y-45985855D01*
X8601267Y-45985858D01*
X8703707Y-46054307D01*
X8703713Y-46054310D01*
X8703714Y-46054311D01*
X8817548Y-46101463D01*
X8938389Y-46125499D01*
X8938393Y-46125500D01*
X8938394Y-46125500D01*
X9061606Y-46125500D01*
X13003315Y-46125500D01*
X13070354Y-46145185D01*
X13116109Y-46197989D01*
X13126053Y-46267147D01*
X13121022Y-46288497D01*
X13085001Y-46397203D01*
X13085001Y-46397204D01*
X13085000Y-46397204D01*
X13074500Y-46499983D01*
X13074500Y-47500001D01*
X13074502Y-47500018D01*
X13085000Y-47602796D01*
X13085001Y-47602799D01*
X13134446Y-47752011D01*
X13140186Y-47769334D01*
X13232288Y-47918656D01*
X13356344Y-48042712D01*
X13505666Y-48134814D01*
X13672203Y-48189999D01*
X13774991Y-48200500D01*
X14200500Y-48200499D01*
X14267539Y-48220183D01*
X14313294Y-48272987D01*
X14324500Y-48324499D01*
X14324500Y-48566531D01*
X14324500Y-48566533D01*
X14324499Y-48566533D01*
X14350458Y-48697030D01*
X14350461Y-48697040D01*
X14401376Y-48819961D01*
X14401386Y-48819979D01*
X14475301Y-48930601D01*
X14475307Y-48930609D01*
X14569390Y-49024692D01*
X14569398Y-49024698D01*
X14680020Y-49098613D01*
X14680023Y-49098614D01*
X14680031Y-49098620D01*
X14802964Y-49149540D01*
X14802968Y-49149540D01*
X14802969Y-49149541D01*
X14933466Y-49175500D01*
X14933469Y-49175500D01*
X23066533Y-49175500D01*
X23154325Y-49158035D01*
X23197036Y-49149540D01*
X23319969Y-49098620D01*
X23430606Y-49024695D01*
X23524695Y-48930606D01*
X23598620Y-48819969D01*
X23649540Y-48697036D01*
X23675500Y-48566531D01*
X23675500Y-47579642D01*
X23695185Y-47512603D01*
X23747989Y-47466848D01*
X23817147Y-47456904D01*
X23854587Y-47468551D01*
X23921307Y-47501641D01*
X24106111Y-47547600D01*
X24148877Y-47550500D01*
X25551122Y-47550499D01*
X25593889Y-47547600D01*
X25778693Y-47501641D01*
X25949296Y-47417030D01*
X26097722Y-47297722D01*
X26217030Y-47149296D01*
X26223726Y-47135795D01*
X26269051Y-47044406D01*
X26316472Y-46993093D01*
X26380139Y-46975500D01*
X28250500Y-46975500D01*
X28317539Y-46995185D01*
X28363294Y-47047989D01*
X28374500Y-47099500D01*
X28374500Y-48838132D01*
X28354815Y-48905171D01*
X28335616Y-48926346D01*
X28336451Y-48927181D01*
X28207289Y-49056342D01*
X28115187Y-49205663D01*
X28115185Y-49205668D01*
X28102501Y-49243946D01*
X28060001Y-49372203D01*
X28060001Y-49372204D01*
X28060000Y-49372204D01*
X28049500Y-49474983D01*
X28049500Y-50525001D01*
X28049501Y-50525019D01*
X28060000Y-50627796D01*
X28060001Y-50627799D01*
X28089588Y-50717085D01*
X28115186Y-50794334D01*
X28207288Y-50943656D01*
X28331344Y-51067712D01*
X28480666Y-51159814D01*
X28647203Y-51214999D01*
X28749991Y-51225500D01*
X29350008Y-51225499D01*
X29350016Y-51225498D01*
X29350019Y-51225498D01*
X29406302Y-51219748D01*
X29452797Y-51214999D01*
X29619334Y-51159814D01*
X29768656Y-51067712D01*
X29892712Y-50943656D01*
X29984814Y-50794334D01*
X30015461Y-50701846D01*
X30055231Y-50644405D01*
X30119746Y-50617581D01*
X30188522Y-50629895D01*
X30239723Y-50677438D01*
X30249346Y-50697517D01*
X30256645Y-50717085D01*
X30256649Y-50717093D01*
X30342809Y-50832187D01*
X30342812Y-50832190D01*
X30457906Y-50918350D01*
X30457913Y-50918354D01*
X30592620Y-50968596D01*
X30592627Y-50968598D01*
X30652155Y-50974999D01*
X30652172Y-50975000D01*
X30825000Y-50975000D01*
X31075000Y-50975000D01*
X31247828Y-50975000D01*
X31247844Y-50974999D01*
X31307372Y-50968598D01*
X31307379Y-50968596D01*
X31442086Y-50918354D01*
X31442093Y-50918350D01*
X31557187Y-50832190D01*
X31557190Y-50832187D01*
X31643350Y-50717093D01*
X31643354Y-50717086D01*
X31693596Y-50582379D01*
X31693598Y-50582372D01*
X31699999Y-50522844D01*
X31700000Y-50522827D01*
X31700000Y-50125000D01*
X31075000Y-50125000D01*
X31075000Y-50975000D01*
X30825000Y-50975000D01*
X30825000Y-49875000D01*
X31075000Y-49875000D01*
X31700000Y-49875000D01*
X31700000Y-49477172D01*
X31699999Y-49477155D01*
X31693598Y-49417627D01*
X31693596Y-49417620D01*
X31643354Y-49282913D01*
X31643350Y-49282906D01*
X31557190Y-49167812D01*
X31557187Y-49167809D01*
X31442093Y-49081649D01*
X31442086Y-49081645D01*
X31307379Y-49031403D01*
X31307372Y-49031401D01*
X31247844Y-49025000D01*
X31075000Y-49025000D01*
X31075000Y-49875000D01*
X30825000Y-49875000D01*
X30825000Y-49025000D01*
X30652155Y-49025000D01*
X30592627Y-49031401D01*
X30592620Y-49031403D01*
X30457913Y-49081645D01*
X30457906Y-49081649D01*
X30342812Y-49167809D01*
X30342809Y-49167812D01*
X30256649Y-49282906D01*
X30256644Y-49282916D01*
X30249347Y-49302480D01*
X30207475Y-49358413D01*
X30142010Y-49382829D01*
X30073738Y-49367976D01*
X30024333Y-49318570D01*
X30015460Y-49298150D01*
X30010409Y-49282906D01*
X29984814Y-49205666D01*
X29892712Y-49056344D01*
X29768656Y-48932288D01*
X29763549Y-48927181D01*
X29765435Y-48925294D01*
X29732212Y-48878375D01*
X29725500Y-48838132D01*
X29725500Y-46233466D01*
X29721686Y-46214296D01*
X29727911Y-46144704D01*
X29770772Y-46089525D01*
X29836660Y-46066278D01*
X29904658Y-46082344D01*
X29933968Y-46107138D01*
X29934444Y-46106663D01*
X29938886Y-46111105D01*
X29938891Y-46111109D01*
X30096593Y-46239698D01*
X30276951Y-46333909D01*
X30472582Y-46389886D01*
X30591963Y-46400500D01*
X31708036Y-46400499D01*
X31827418Y-46389886D01*
X32023049Y-46333909D01*
X32203407Y-46239698D01*
X32361109Y-46111109D01*
X32489698Y-45953407D01*
X32583909Y-45773049D01*
X32639886Y-45577418D01*
X32650500Y-45458037D01*
X32650499Y-42541964D01*
X32639886Y-42422582D01*
X32583909Y-42226951D01*
X32489698Y-42046593D01*
X32387244Y-41920943D01*
X32361109Y-41888890D01*
X32240567Y-41790602D01*
X32203407Y-41760302D01*
X32023049Y-41666091D01*
X32023046Y-41666090D01*
X32023044Y-41666089D01*
X32015381Y-41663896D01*
X31956345Y-41626524D01*
X31926886Y-41563169D01*
X31925500Y-41544682D01*
X31925500Y-40299500D01*
X31945185Y-40232461D01*
X31997989Y-40186706D01*
X32049500Y-40175500D01*
X38505277Y-40175500D01*
X38572316Y-40195185D01*
X38608379Y-40230609D01*
X38628210Y-40260288D01*
X38628213Y-40260292D01*
X38739707Y-40371786D01*
X38739711Y-40371789D01*
X38870814Y-40459390D01*
X38870827Y-40459397D01*
X39016498Y-40519735D01*
X39016503Y-40519737D01*
X39157906Y-40547864D01*
X39171153Y-40550499D01*
X39171156Y-40550500D01*
X39171158Y-40550500D01*
X39328844Y-40550500D01*
X39328845Y-40550499D01*
X39483497Y-40519737D01*
X39629179Y-40459394D01*
X39760289Y-40371789D01*
X39871789Y-40260289D01*
X39959394Y-40129179D01*
X40019737Y-39983497D01*
X40050500Y-39828842D01*
X40050500Y-39671158D01*
X40050500Y-39671155D01*
X40050499Y-39671153D01*
X40019738Y-39516510D01*
X40019737Y-39516503D01*
X40010423Y-39494017D01*
X39959863Y-39371951D01*
X39952394Y-39302482D01*
X39983670Y-39240003D01*
X40043759Y-39204351D01*
X40074424Y-39200499D01*
X40225002Y-39200499D01*
X40225008Y-39200499D01*
X40327797Y-39189999D01*
X40494334Y-39134814D01*
X40643656Y-39042712D01*
X40767712Y-38918656D01*
X40859814Y-38769334D01*
X40914999Y-38602797D01*
X40925500Y-38500009D01*
X40925499Y-37499992D01*
X40924902Y-37494152D01*
X40914999Y-37397203D01*
X40914998Y-37397200D01*
X40898900Y-37348620D01*
X40859814Y-37230666D01*
X40767712Y-37081344D01*
X40643656Y-36957288D01*
X40517030Y-36879185D01*
X40494336Y-36865187D01*
X40494331Y-36865185D01*
X40492862Y-36864698D01*
X40327797Y-36810001D01*
X40327795Y-36810000D01*
X40225016Y-36799500D01*
X40225009Y-36799500D01*
X39999500Y-36799500D01*
X39932461Y-36779815D01*
X39886706Y-36727011D01*
X39875500Y-36675500D01*
X39875500Y-36438393D01*
X39875499Y-36438389D01*
X39862990Y-36375500D01*
X39851463Y-36317548D01*
X39804311Y-36203714D01*
X39804310Y-36203713D01*
X39804307Y-36203707D01*
X39735858Y-36101267D01*
X39735855Y-36101263D01*
X39648736Y-36014144D01*
X39648732Y-36014141D01*
X39546292Y-35945692D01*
X39546283Y-35945687D01*
X39432454Y-35898538D01*
X39432455Y-35898538D01*
X39432452Y-35898537D01*
X39432448Y-35898536D01*
X39432444Y-35898535D01*
X39311610Y-35874500D01*
X39311606Y-35874500D01*
X33290854Y-35874500D01*
X33223815Y-35854815D01*
X33178060Y-35802011D01*
X33168116Y-35732853D01*
X33197141Y-35669297D01*
X33221963Y-35647398D01*
X33248123Y-35629918D01*
X33260289Y-35621789D01*
X33371789Y-35510289D01*
X33425029Y-35430608D01*
X33478640Y-35385804D01*
X33528131Y-35375500D01*
X36061607Y-35375500D01*
X36061608Y-35375499D01*
X36182452Y-35351463D01*
X36296286Y-35304311D01*
X36398733Y-35235858D01*
X36485858Y-35148733D01*
X36554311Y-35046286D01*
X36601463Y-34932452D01*
X36625500Y-34811606D01*
X36625500Y-34749500D01*
X36645185Y-34682461D01*
X36697989Y-34636706D01*
X36749500Y-34625500D01*
X37811607Y-34625500D01*
X37811608Y-34625499D01*
X37932452Y-34601463D01*
X38046286Y-34554311D01*
X38148733Y-34485858D01*
X38148736Y-34485855D01*
X38222773Y-34411819D01*
X38284096Y-34378334D01*
X38310454Y-34375500D01*
X43440546Y-34375500D01*
X43507585Y-34395185D01*
X43553340Y-34447989D01*
X43563284Y-34517147D01*
X43534259Y-34580703D01*
X43528227Y-34587181D01*
X43514144Y-34601263D01*
X43514141Y-34601267D01*
X43445692Y-34703707D01*
X43445687Y-34703716D01*
X43398538Y-34817545D01*
X43398535Y-34817555D01*
X43374500Y-34938389D01*
X43374500Y-35061610D01*
X43397117Y-35175313D01*
X43399500Y-35199504D01*
X43399500Y-41275500D01*
X43379815Y-41342539D01*
X43327011Y-41388294D01*
X43275500Y-41399500D01*
X41670943Y-41399500D01*
X41518216Y-41440423D01*
X41518209Y-41440426D01*
X41381290Y-41519475D01*
X41381282Y-41519481D01*
X41269481Y-41631282D01*
X41269475Y-41631290D01*
X41190426Y-41768209D01*
X41190423Y-41768216D01*
X41149500Y-41920943D01*
X41149500Y-42079056D01*
X41155275Y-42100609D01*
X41159500Y-42132702D01*
X41159500Y-45000500D01*
X41139815Y-45067539D01*
X41087011Y-45113294D01*
X41035500Y-45124500D01*
X34028389Y-45124500D01*
X33907555Y-45148535D01*
X33907545Y-45148538D01*
X33793716Y-45195687D01*
X33793707Y-45195692D01*
X33691267Y-45264141D01*
X33691263Y-45264144D01*
X33604144Y-45351263D01*
X33604141Y-45351267D01*
X33535692Y-45453707D01*
X33535687Y-45453716D01*
X33488538Y-45567545D01*
X33488535Y-45567555D01*
X33464500Y-45688389D01*
X33464500Y-49821369D01*
X33444815Y-49888408D01*
X33405598Y-49926907D01*
X33356344Y-49957287D01*
X33232289Y-50081342D01*
X33140187Y-50230663D01*
X33140185Y-50230668D01*
X33118613Y-50295769D01*
X33085001Y-50397203D01*
X33085001Y-50397204D01*
X33085000Y-50397204D01*
X33074500Y-50499983D01*
X33074500Y-51500001D01*
X33074501Y-51500019D01*
X33085000Y-51602796D01*
X33085001Y-51602799D01*
X33122371Y-51715573D01*
X33140186Y-51769334D01*
X33232288Y-51918656D01*
X33356344Y-52042712D01*
X33505666Y-52134814D01*
X33672203Y-52189999D01*
X33774991Y-52200500D01*
X34400008Y-52200499D01*
X34400016Y-52200498D01*
X34400019Y-52200498D01*
X34456302Y-52194748D01*
X34502797Y-52189999D01*
X34669334Y-52134814D01*
X34818656Y-52042712D01*
X34942712Y-51918656D01*
X35034814Y-51769334D01*
X35034817Y-51769323D01*
X35035428Y-51768016D01*
X35036090Y-51767262D01*
X35038605Y-51763187D01*
X35039301Y-51763616D01*
X35081596Y-51715573D01*
X35148788Y-51696416D01*
X35215671Y-51716626D01*
X35247081Y-51746101D01*
X35292813Y-51807190D01*
X35407906Y-51893350D01*
X35407913Y-51893354D01*
X35542620Y-51943596D01*
X35542627Y-51943598D01*
X35602155Y-51949999D01*
X35602172Y-51950000D01*
X35787500Y-51950000D01*
X36037500Y-51950000D01*
X36222828Y-51950000D01*
X36222844Y-51949999D01*
X36282372Y-51943598D01*
X36282379Y-51943596D01*
X36417086Y-51893354D01*
X36417093Y-51893350D01*
X36532187Y-51807190D01*
X36532190Y-51807187D01*
X36618350Y-51692093D01*
X36618354Y-51692086D01*
X36668596Y-51557379D01*
X36668598Y-51557372D01*
X36674999Y-51497844D01*
X36675000Y-51497827D01*
X36675000Y-51125000D01*
X36037500Y-51125000D01*
X36037500Y-51950000D01*
X35787500Y-51950000D01*
X35787500Y-50875000D01*
X36037500Y-50875000D01*
X36675000Y-50875000D01*
X36675000Y-50502172D01*
X36674999Y-50502155D01*
X36668598Y-50442627D01*
X36668596Y-50442620D01*
X36618354Y-50307913D01*
X36618350Y-50307906D01*
X36532190Y-50192812D01*
X36532187Y-50192809D01*
X36417093Y-50106649D01*
X36417086Y-50106645D01*
X36282379Y-50056403D01*
X36282372Y-50056401D01*
X36222844Y-50050000D01*
X36037500Y-50050000D01*
X36037500Y-50875000D01*
X35787500Y-50875000D01*
X35787500Y-50050000D01*
X35602155Y-50050000D01*
X35542627Y-50056401D01*
X35542620Y-50056403D01*
X35407913Y-50106645D01*
X35407906Y-50106649D01*
X35292812Y-50192809D01*
X35247080Y-50253899D01*
X35191146Y-50295769D01*
X35121454Y-50300753D01*
X35060131Y-50267267D01*
X35038746Y-50236725D01*
X35038605Y-50236813D01*
X35037100Y-50234374D01*
X35035430Y-50231988D01*
X35034816Y-50230673D01*
X35034814Y-50230666D01*
X34942712Y-50081344D01*
X34818656Y-49957288D01*
X34818655Y-49957287D01*
X34774402Y-49929991D01*
X34727678Y-49878042D01*
X34715500Y-49824453D01*
X34715500Y-46499500D01*
X34735185Y-46432461D01*
X34787989Y-46386706D01*
X34839500Y-46375500D01*
X36876000Y-46375500D01*
X36943039Y-46395185D01*
X36988794Y-46447989D01*
X37000000Y-46499500D01*
X37000000Y-53876000D01*
X36980315Y-53943039D01*
X36927511Y-53988794D01*
X36876000Y-54000000D01*
X2259176Y-54000000D01*
X2192137Y-53980315D01*
X2171495Y-53963681D01*
X1036319Y-52828505D01*
X1002834Y-52767182D01*
X1000000Y-52740824D01*
X1000000Y-50878711D01*
X2149500Y-50878711D01*
X2149500Y-51121288D01*
X2181161Y-51361785D01*
X2243947Y-51596104D01*
X2331381Y-51807187D01*
X2336776Y-51820212D01*
X2458064Y-52030289D01*
X2458066Y-52030292D01*
X2458067Y-52030293D01*
X2605733Y-52222736D01*
X2605739Y-52222743D01*
X2777256Y-52394260D01*
X2777263Y-52394266D01*
X2870483Y-52465796D01*
X2969711Y-52541936D01*
X3179788Y-52663224D01*
X3403900Y-52756054D01*
X3638211Y-52818838D01*
X3818586Y-52842584D01*
X3878711Y-52850500D01*
X3878712Y-52850500D01*
X4121289Y-52850500D01*
X4169388Y-52844167D01*
X4361789Y-52818838D01*
X4596100Y-52756054D01*
X4820212Y-52663224D01*
X5030289Y-52541936D01*
X5222738Y-52394265D01*
X5394265Y-52222738D01*
X5541936Y-52030289D01*
X5663224Y-51820212D01*
X5756054Y-51596100D01*
X5818838Y-51361789D01*
X5850500Y-51121288D01*
X5850500Y-50878712D01*
X5818838Y-50638211D01*
X5756054Y-50403900D01*
X5663224Y-50179788D01*
X5541936Y-49969711D01*
X5430476Y-49824453D01*
X5394266Y-49777263D01*
X5394260Y-49777256D01*
X5222743Y-49605739D01*
X5222736Y-49605733D01*
X5030293Y-49458067D01*
X5030292Y-49458066D01*
X5030289Y-49458064D01*
X4820212Y-49336776D01*
X4776259Y-49318570D01*
X4596104Y-49243947D01*
X4361785Y-49181161D01*
X4121289Y-49149500D01*
X4121288Y-49149500D01*
X3878712Y-49149500D01*
X3878711Y-49149500D01*
X3638214Y-49181161D01*
X3403895Y-49243947D01*
X3179794Y-49336773D01*
X3179785Y-49336777D01*
X2969706Y-49458067D01*
X2777263Y-49605733D01*
X2777256Y-49605739D01*
X2605739Y-49777256D01*
X2605733Y-49777263D01*
X2458067Y-49969706D01*
X2336777Y-50179785D01*
X2336773Y-50179794D01*
X2243947Y-50403895D01*
X2181161Y-50638214D01*
X2149500Y-50878711D01*
X1000000Y-50878711D01*
X1000000Y-29274628D01*
X2250000Y-29274628D01*
X2264503Y-29347540D01*
X2264505Y-29347544D01*
X2319760Y-29430239D01*
X2402455Y-29485494D01*
X2402459Y-29485496D01*
X2475371Y-29499999D01*
X2475374Y-29500000D01*
X2875000Y-29500000D01*
X2875000Y-29000000D01*
X2250000Y-29000000D01*
X2250000Y-29274628D01*
X1000000Y-29274628D01*
X1000000Y-16274628D01*
X11250000Y-16274628D01*
X11264503Y-16347540D01*
X11264505Y-16347544D01*
X11319760Y-16430239D01*
X11402455Y-16485494D01*
X11402459Y-16485496D01*
X11475371Y-16499999D01*
X11475374Y-16500000D01*
X11875000Y-16500000D01*
X12125000Y-16500000D01*
X12524626Y-16500000D01*
X12524628Y-16499999D01*
X12597540Y-16485496D01*
X12597544Y-16485494D01*
X12680239Y-16430239D01*
X12735494Y-16347544D01*
X12735496Y-16347540D01*
X12749999Y-16274628D01*
X17250000Y-16274628D01*
X17264503Y-16347540D01*
X17264505Y-16347544D01*
X17319760Y-16430239D01*
X17402455Y-16485494D01*
X17402459Y-16485496D01*
X17475371Y-16499999D01*
X17475374Y-16500000D01*
X17875000Y-16500000D01*
X17875000Y-16000000D01*
X17250000Y-16000000D01*
X17250000Y-16274628D01*
X12749999Y-16274628D01*
X12750000Y-16274626D01*
X12750000Y-16000000D01*
X12125000Y-16000000D01*
X12125000Y-16500000D01*
X11875000Y-16500000D01*
X11875000Y-16000000D01*
X11250000Y-16000000D01*
X11250000Y-16274628D01*
X1000000Y-16274628D01*
X1000000Y-15475371D01*
X11250000Y-15475371D01*
X11250000Y-15750000D01*
X11875000Y-15750000D01*
X12125000Y-15750000D01*
X12750000Y-15750000D01*
X12750000Y-15475373D01*
X12749999Y-15475371D01*
X12735496Y-15402459D01*
X12735494Y-15402455D01*
X12680239Y-15319760D01*
X12597544Y-15264505D01*
X12597540Y-15264503D01*
X12524627Y-15250000D01*
X12125000Y-15250000D01*
X12125000Y-15750000D01*
X11875000Y-15750000D01*
X11875000Y-15250000D01*
X11475373Y-15250000D01*
X11402459Y-15264503D01*
X11402455Y-15264505D01*
X11319760Y-15319760D01*
X11264505Y-15402455D01*
X11264503Y-15402459D01*
X11250000Y-15475371D01*
X1000000Y-15475371D01*
X1000000Y-3878711D01*
X2149500Y-3878711D01*
X2149500Y-4121288D01*
X2181161Y-4361785D01*
X2243947Y-4596104D01*
X2328197Y-4799500D01*
X2336776Y-4820212D01*
X2458064Y-5030289D01*
X2458066Y-5030292D01*
X2458067Y-5030293D01*
X2605733Y-5222736D01*
X2605739Y-5222743D01*
X2777256Y-5394260D01*
X2777262Y-5394265D01*
X2969711Y-5541936D01*
X3179788Y-5663224D01*
X3403900Y-5756054D01*
X3638211Y-5818838D01*
X3818586Y-5842584D01*
X3878711Y-5850500D01*
X3878712Y-5850500D01*
X4121289Y-5850500D01*
X4169388Y-5844167D01*
X4361789Y-5818838D01*
X4596100Y-5756054D01*
X4820212Y-5663224D01*
X5030289Y-5541936D01*
X5222738Y-5394265D01*
X5394265Y-5222738D01*
X5541936Y-5030289D01*
X5663224Y-4820212D01*
X5756054Y-4596100D01*
X5818838Y-4361789D01*
X5850500Y-4121288D01*
X5850500Y-3878712D01*
X5850500Y-3878711D01*
X79149500Y-3878711D01*
X79149500Y-4121288D01*
X79181161Y-4361785D01*
X79243947Y-4596104D01*
X79328197Y-4799500D01*
X79336776Y-4820212D01*
X79458064Y-5030289D01*
X79458066Y-5030292D01*
X79458067Y-5030293D01*
X79605733Y-5222736D01*
X79605739Y-5222743D01*
X79777256Y-5394260D01*
X79777262Y-5394265D01*
X79969711Y-5541936D01*
X80179788Y-5663224D01*
X80403900Y-5756054D01*
X80638211Y-5818838D01*
X80818586Y-5842584D01*
X80878711Y-5850500D01*
X80878712Y-5850500D01*
X81121289Y-5850500D01*
X81169388Y-5844167D01*
X81361789Y-5818838D01*
X81596100Y-5756054D01*
X81820212Y-5663224D01*
X82030289Y-5541936D01*
X82222738Y-5394265D01*
X82394265Y-5222738D01*
X82541936Y-5030289D01*
X82663224Y-4820212D01*
X82756054Y-4596100D01*
X82818838Y-4361789D01*
X82850500Y-4121288D01*
X82850500Y-3878712D01*
X82818838Y-3638211D01*
X82756054Y-3403900D01*
X82663224Y-3179788D01*
X82541936Y-2969711D01*
X82394265Y-2777262D01*
X82394260Y-2777256D01*
X82222743Y-2605739D01*
X82222736Y-2605733D01*
X82030293Y-2458067D01*
X82030292Y-2458066D01*
X82030289Y-2458064D01*
X81820212Y-2336776D01*
X81820205Y-2336773D01*
X81596104Y-2243947D01*
X81361785Y-2181161D01*
X81121289Y-2149500D01*
X81121288Y-2149500D01*
X80878712Y-2149500D01*
X80878711Y-2149500D01*
X80638214Y-2181161D01*
X80403895Y-2243947D01*
X80179794Y-2336773D01*
X80179785Y-2336777D01*
X79969706Y-2458067D01*
X79777263Y-2605733D01*
X79777256Y-2605739D01*
X79605739Y-2777256D01*
X79605733Y-2777263D01*
X79458067Y-2969706D01*
X79336777Y-3179785D01*
X79336773Y-3179794D01*
X79243947Y-3403895D01*
X79181161Y-3638214D01*
X79149500Y-3878711D01*
X5850500Y-3878711D01*
X5818838Y-3638211D01*
X5756054Y-3403900D01*
X5663224Y-3179788D01*
X5541936Y-2969711D01*
X5394265Y-2777262D01*
X5394260Y-2777256D01*
X5222743Y-2605739D01*
X5222736Y-2605733D01*
X5030293Y-2458067D01*
X5030292Y-2458066D01*
X5030289Y-2458064D01*
X4820212Y-2336776D01*
X4820205Y-2336773D01*
X4596104Y-2243947D01*
X4361785Y-2181161D01*
X4121289Y-2149500D01*
X4121288Y-2149500D01*
X3878712Y-2149500D01*
X3878711Y-2149500D01*
X3638214Y-2181161D01*
X3403895Y-2243947D01*
X3179794Y-2336773D01*
X3179785Y-2336777D01*
X2969706Y-2458067D01*
X2777263Y-2605733D01*
X2777256Y-2605739D01*
X2605739Y-2777256D01*
X2605733Y-2777263D01*
X2458067Y-2969706D01*
X2336777Y-3179785D01*
X2336773Y-3179794D01*
X2243947Y-3403895D01*
X2181161Y-3638214D01*
X2149500Y-3878711D01*
X1000000Y-3878711D01*
X1000000Y-2259176D01*
X1019685Y-2192137D01*
X1036319Y-2171495D01*
X2171495Y-1036319D01*
X2232818Y-1002834D01*
X2259176Y-1000000D01*
X82740824Y-1000000D01*
X82807863Y-1019685D01*
G37*
G04 #@! TD.AperFunction*
G04 #@! TA.AperFunction,Conductor*
G36*
X24305428Y-36395185D02*
G01*
X24351183Y-36447989D01*
X24361127Y-36517147D01*
X24352953Y-36546944D01*
X24350460Y-36552964D01*
X24350459Y-36552967D01*
X24350458Y-36552970D01*
X24324500Y-36683466D01*
X24324500Y-36887770D01*
X24304815Y-36954809D01*
X24288181Y-36975451D01*
X24207289Y-37056342D01*
X24115187Y-37205663D01*
X24115185Y-37205668D01*
X24095024Y-37266510D01*
X24060001Y-37372203D01*
X24060001Y-37372204D01*
X24060000Y-37372204D01*
X24049500Y-37474983D01*
X24049500Y-38525001D01*
X24049501Y-38525019D01*
X24060000Y-38627796D01*
X24060001Y-38627799D01*
X24115184Y-38794329D01*
X24115186Y-38794334D01*
X24207288Y-38943656D01*
X24331344Y-39067712D01*
X24480666Y-39159814D01*
X24647203Y-39214999D01*
X24749991Y-39225500D01*
X25350008Y-39225499D01*
X25350016Y-39225498D01*
X25350019Y-39225498D01*
X25406302Y-39219748D01*
X25452797Y-39214999D01*
X25619334Y-39159814D01*
X25768656Y-39067712D01*
X25892712Y-38943656D01*
X25984814Y-38794334D01*
X26015461Y-38701846D01*
X26055231Y-38644405D01*
X26119746Y-38617581D01*
X26188522Y-38629895D01*
X26239723Y-38677438D01*
X26249346Y-38697517D01*
X26256645Y-38717085D01*
X26256649Y-38717093D01*
X26342809Y-38832187D01*
X26342812Y-38832190D01*
X26457906Y-38918350D01*
X26457913Y-38918354D01*
X26592620Y-38968596D01*
X26592627Y-38968598D01*
X26652155Y-38974999D01*
X26652172Y-38975000D01*
X26825000Y-38975000D01*
X27075000Y-38975000D01*
X27247828Y-38975000D01*
X27247844Y-38974999D01*
X27307372Y-38968598D01*
X27307379Y-38968596D01*
X27442086Y-38918354D01*
X27442093Y-38918350D01*
X27557187Y-38832190D01*
X27557190Y-38832187D01*
X27643350Y-38717093D01*
X27643354Y-38717086D01*
X27693596Y-38582379D01*
X27693598Y-38582372D01*
X27699999Y-38522844D01*
X27700000Y-38522827D01*
X27700000Y-38125000D01*
X27075000Y-38125000D01*
X27075000Y-38975000D01*
X26825000Y-38975000D01*
X26825000Y-38124000D01*
X26827550Y-38115314D01*
X26826262Y-38106353D01*
X26837240Y-38082312D01*
X26844685Y-38056961D01*
X26851525Y-38051033D01*
X26855287Y-38042797D01*
X26877521Y-38028507D01*
X26897489Y-38011206D01*
X26908003Y-38008918D01*
X26914065Y-38005023D01*
X26949000Y-38000000D01*
X26950000Y-38000000D01*
X26950000Y-37999000D01*
X26969685Y-37931961D01*
X27022489Y-37886206D01*
X27074000Y-37875000D01*
X27700000Y-37875000D01*
X27700000Y-37477172D01*
X27699999Y-37477155D01*
X27693598Y-37417627D01*
X27693596Y-37417620D01*
X27665703Y-37342833D01*
X27660719Y-37273141D01*
X27694204Y-37211818D01*
X27755527Y-37178334D01*
X27781885Y-37175500D01*
X30350500Y-37175500D01*
X30417539Y-37195185D01*
X30463294Y-37247989D01*
X30474500Y-37299500D01*
X30474500Y-41516069D01*
X30454815Y-41583108D01*
X30402011Y-41628863D01*
X30384612Y-41635285D01*
X30276953Y-41666090D01*
X30276951Y-41666090D01*
X30276951Y-41666091D01*
X30096593Y-41760302D01*
X30096591Y-41760303D01*
X30096590Y-41760304D01*
X29938890Y-41888890D01*
X29810304Y-42046590D01*
X29810302Y-42046593D01*
X29763196Y-42136772D01*
X29716089Y-42226954D01*
X29687460Y-42327011D01*
X29660522Y-42421158D01*
X29660114Y-42422583D01*
X29660113Y-42422586D01*
X29649500Y-42541966D01*
X29649500Y-43200500D01*
X29629815Y-43267539D01*
X29577011Y-43313294D01*
X29525500Y-43324500D01*
X26380139Y-43324500D01*
X26313100Y-43304815D01*
X26269051Y-43255594D01*
X26217032Y-43150707D01*
X26217030Y-43150704D01*
X26097722Y-43002278D01*
X26097721Y-43002277D01*
X25949295Y-42882969D01*
X25949292Y-42882967D01*
X25820742Y-42819213D01*
X25769429Y-42771792D01*
X25751899Y-42704157D01*
X25773719Y-42637782D01*
X25812716Y-42601393D01*
X25861105Y-42572776D01*
X25861116Y-42572767D01*
X25972767Y-42461116D01*
X25972773Y-42461108D01*
X26053155Y-42325188D01*
X26053156Y-42325185D01*
X26097210Y-42173553D01*
X26097211Y-42173547D01*
X26099999Y-42138118D01*
X26100000Y-42138105D01*
X26100000Y-41825000D01*
X23600000Y-41825000D01*
X23600000Y-42138118D01*
X23602788Y-42173547D01*
X23602789Y-42173553D01*
X23646843Y-42325185D01*
X23646844Y-42325188D01*
X23727226Y-42461108D01*
X23727232Y-42461116D01*
X23838883Y-42572767D01*
X23838892Y-42572774D01*
X23887284Y-42601393D01*
X23934968Y-42652462D01*
X23947471Y-42721204D01*
X23920826Y-42785793D01*
X23879258Y-42819213D01*
X23750704Y-42882969D01*
X23602278Y-43002277D01*
X23602277Y-43002278D01*
X23482969Y-43150704D01*
X23482967Y-43150707D01*
X23398360Y-43321302D01*
X23352400Y-43506107D01*
X23352400Y-43506111D01*
X23349500Y-43548877D01*
X23349500Y-43750000D01*
X23349501Y-43950500D01*
X23329817Y-44017539D01*
X23277013Y-44063294D01*
X23225501Y-44074500D01*
X23183467Y-44074500D01*
X23052969Y-44100458D01*
X23052959Y-44100461D01*
X22930038Y-44151376D01*
X22930020Y-44151386D01*
X22819398Y-44225301D01*
X22819390Y-44225307D01*
X22725307Y-44319390D01*
X22725301Y-44319398D01*
X22651386Y-44430020D01*
X22651376Y-44430038D01*
X22600461Y-44552959D01*
X22600458Y-44552969D01*
X22573311Y-44689444D01*
X22571221Y-44689028D01*
X22548648Y-44744877D01*
X22539114Y-44755584D01*
X22475303Y-44819395D01*
X22475301Y-44819398D01*
X22401386Y-44930020D01*
X22401376Y-44930038D01*
X22350461Y-45052959D01*
X22350458Y-45052969D01*
X22324500Y-45183466D01*
X22324500Y-47700500D01*
X22304815Y-47767539D01*
X22252011Y-47813294D01*
X22200500Y-47824500D01*
X17013254Y-47824500D01*
X16946215Y-47804815D01*
X16900460Y-47752011D01*
X16890516Y-47682853D01*
X16895548Y-47661497D01*
X16914998Y-47602799D01*
X16914999Y-47602797D01*
X16925500Y-47500009D01*
X16925499Y-46499992D01*
X16924561Y-46490814D01*
X16914999Y-46397203D01*
X16914998Y-46397200D01*
X16907807Y-46375500D01*
X16859814Y-46230666D01*
X16767712Y-46081344D01*
X16643656Y-45957288D01*
X16548721Y-45898732D01*
X16494336Y-45865187D01*
X16494331Y-45865185D01*
X16492862Y-45864698D01*
X16327797Y-45810001D01*
X16327795Y-45810000D01*
X16225016Y-45799500D01*
X16225009Y-45799500D01*
X15999500Y-45799500D01*
X15932461Y-45779815D01*
X15886706Y-45727011D01*
X15875500Y-45675500D01*
X15875500Y-45438393D01*
X15875499Y-45438389D01*
X15861641Y-45368717D01*
X15851463Y-45317548D01*
X15813020Y-45224739D01*
X15804312Y-45203716D01*
X15804307Y-45203707D01*
X15735858Y-45101267D01*
X15735855Y-45101263D01*
X15648736Y-45014144D01*
X15648732Y-45014141D01*
X15546292Y-44945692D01*
X15546283Y-44945687D01*
X15432454Y-44898538D01*
X15432455Y-44898538D01*
X15432452Y-44898537D01*
X15432448Y-44898536D01*
X15432444Y-44898535D01*
X15311610Y-44874500D01*
X15311606Y-44874500D01*
X9749500Y-44874500D01*
X9682461Y-44854815D01*
X9636706Y-44802011D01*
X9625500Y-44750500D01*
X9625500Y-42274628D01*
X11250000Y-42274628D01*
X11264503Y-42347540D01*
X11264505Y-42347544D01*
X11319760Y-42430239D01*
X11402455Y-42485494D01*
X11402459Y-42485496D01*
X11475371Y-42499999D01*
X11475374Y-42500000D01*
X11875000Y-42500000D01*
X12125000Y-42500000D01*
X12524626Y-42500000D01*
X12524628Y-42499999D01*
X12597540Y-42485496D01*
X12597544Y-42485494D01*
X12680239Y-42430239D01*
X12735494Y-42347544D01*
X12735496Y-42347540D01*
X12749999Y-42274628D01*
X17250000Y-42274628D01*
X17264503Y-42347540D01*
X17264505Y-42347544D01*
X17319760Y-42430239D01*
X17402455Y-42485494D01*
X17402459Y-42485496D01*
X17475371Y-42499999D01*
X17475374Y-42500000D01*
X17875000Y-42500000D01*
X18125000Y-42500000D01*
X18524626Y-42500000D01*
X18524628Y-42499999D01*
X18597540Y-42485496D01*
X18597544Y-42485494D01*
X18680239Y-42430239D01*
X18735494Y-42347544D01*
X18735496Y-42347540D01*
X18749999Y-42274628D01*
X18750000Y-42274626D01*
X18750000Y-42000000D01*
X18125000Y-42000000D01*
X18125000Y-42500000D01*
X17875000Y-42500000D01*
X17875000Y-42000000D01*
X17250000Y-42000000D01*
X17250000Y-42274628D01*
X12749999Y-42274628D01*
X12750000Y-42274626D01*
X12750000Y-42000000D01*
X12125000Y-42000000D01*
X12125000Y-42500000D01*
X11875000Y-42500000D01*
X11875000Y-42000000D01*
X11250000Y-42000000D01*
X11250000Y-42274628D01*
X9625500Y-42274628D01*
X9625500Y-41475371D01*
X11250000Y-41475371D01*
X11250000Y-41750000D01*
X11875000Y-41750000D01*
X12125000Y-41750000D01*
X12750000Y-41750000D01*
X12750000Y-41475373D01*
X12749999Y-41475371D01*
X17250000Y-41475371D01*
X17250000Y-41750000D01*
X17875000Y-41750000D01*
X18125000Y-41750000D01*
X18750000Y-41750000D01*
X18750000Y-41475373D01*
X18749999Y-41475371D01*
X18735496Y-41402459D01*
X18735494Y-41402455D01*
X18685975Y-41328344D01*
X18685974Y-41328342D01*
X18680240Y-41319760D01*
X18597544Y-41264505D01*
X18597540Y-41264503D01*
X18584358Y-41261881D01*
X23600000Y-41261881D01*
X23600000Y-41575000D01*
X24725000Y-41575000D01*
X24975000Y-41575000D01*
X26100000Y-41575000D01*
X26100000Y-41261894D01*
X26099999Y-41261881D01*
X26097211Y-41226452D01*
X26097210Y-41226446D01*
X26053156Y-41074814D01*
X26053155Y-41074811D01*
X25972773Y-40938891D01*
X25972767Y-40938883D01*
X25861116Y-40827232D01*
X25861108Y-40827226D01*
X25725188Y-40746844D01*
X25725185Y-40746843D01*
X25573553Y-40702789D01*
X25573547Y-40702788D01*
X25538118Y-40700000D01*
X24975000Y-40700000D01*
X24975000Y-41575000D01*
X24725000Y-41575000D01*
X24725000Y-40700000D01*
X24161881Y-40700000D01*
X24126452Y-40702788D01*
X24126446Y-40702789D01*
X23974814Y-40746843D01*
X23974811Y-40746844D01*
X23838891Y-40827226D01*
X23838883Y-40827232D01*
X23727232Y-40938883D01*
X23727226Y-40938891D01*
X23646844Y-41074811D01*
X23646843Y-41074814D01*
X23602789Y-41226446D01*
X23602788Y-41226452D01*
X23600000Y-41261881D01*
X18584358Y-41261881D01*
X18524627Y-41250000D01*
X18125000Y-41250000D01*
X18125000Y-41750000D01*
X17875000Y-41750000D01*
X17875000Y-41250000D01*
X17475373Y-41250000D01*
X17402459Y-41264503D01*
X17402455Y-41264505D01*
X17319760Y-41319760D01*
X17264505Y-41402455D01*
X17264503Y-41402459D01*
X17250000Y-41475371D01*
X12749999Y-41475371D01*
X12735496Y-41402459D01*
X12735494Y-41402455D01*
X12680239Y-41319760D01*
X12597544Y-41264505D01*
X12597540Y-41264503D01*
X12524627Y-41250000D01*
X12125000Y-41250000D01*
X12125000Y-41750000D01*
X11875000Y-41750000D01*
X11875000Y-41250000D01*
X11475373Y-41250000D01*
X11402459Y-41264503D01*
X11402455Y-41264505D01*
X11319760Y-41319760D01*
X11264505Y-41402455D01*
X11264503Y-41402459D01*
X11250000Y-41475371D01*
X9625500Y-41475371D01*
X9625500Y-41099000D01*
X9645185Y-41031961D01*
X9697989Y-40986206D01*
X9749500Y-40975000D01*
X9825000Y-40975000D01*
X10075000Y-40975000D01*
X10247828Y-40975000D01*
X10247844Y-40974999D01*
X10307372Y-40968598D01*
X10307379Y-40968596D01*
X10442086Y-40918354D01*
X10442093Y-40918350D01*
X10557187Y-40832190D01*
X10557190Y-40832187D01*
X10643350Y-40717093D01*
X10643354Y-40717086D01*
X10693596Y-40582379D01*
X10693598Y-40582372D01*
X10699999Y-40522844D01*
X10700000Y-40522827D01*
X10700000Y-40125000D01*
X10075000Y-40125000D01*
X10075000Y-40975000D01*
X9825000Y-40975000D01*
X9825000Y-40124000D01*
X9827550Y-40115314D01*
X9826262Y-40106353D01*
X9837240Y-40082312D01*
X9844685Y-40056961D01*
X9851525Y-40051033D01*
X9855287Y-40042797D01*
X9877521Y-40028507D01*
X9897489Y-40011206D01*
X9908003Y-40008918D01*
X9914065Y-40005023D01*
X9949000Y-40000000D01*
X9950000Y-40000000D01*
X9950000Y-39999000D01*
X9969685Y-39931961D01*
X10022489Y-39886206D01*
X10074000Y-39875000D01*
X10700000Y-39875000D01*
X10700000Y-39477172D01*
X10699999Y-39477155D01*
X10693598Y-39417627D01*
X10693596Y-39417620D01*
X10647054Y-39292833D01*
X10642070Y-39223142D01*
X10675555Y-39161818D01*
X10736878Y-39128334D01*
X10763236Y-39125500D01*
X12061607Y-39125500D01*
X12061608Y-39125499D01*
X12182452Y-39101463D01*
X12296286Y-39054311D01*
X12319977Y-39038480D01*
X12345545Y-39021397D01*
X12412223Y-39000519D01*
X12414436Y-39000499D01*
X12547871Y-39000499D01*
X12547872Y-39000499D01*
X12607483Y-38994091D01*
X12742331Y-38943796D01*
X12857546Y-38857546D01*
X12876530Y-38832187D01*
X12904228Y-38795189D01*
X12960162Y-38753318D01*
X13003494Y-38745500D01*
X16996506Y-38745500D01*
X17063545Y-38765185D01*
X17095772Y-38795189D01*
X17142448Y-38857539D01*
X17142451Y-38857542D01*
X17142454Y-38857546D01*
X17142457Y-38857548D01*
X17257664Y-38943793D01*
X17257671Y-38943797D01*
X17392517Y-38994091D01*
X17392516Y-38994091D01*
X17399444Y-38994835D01*
X17452127Y-39000500D01*
X18547872Y-39000499D01*
X18607483Y-38994091D01*
X18742331Y-38943796D01*
X18857546Y-38857546D01*
X18943796Y-38742331D01*
X18994091Y-38607483D01*
X19000500Y-38547873D01*
X19000499Y-37702128D01*
X18994091Y-37642517D01*
X18979276Y-37602797D01*
X18943797Y-37507671D01*
X18943793Y-37507664D01*
X18857547Y-37392455D01*
X18857544Y-37392452D01*
X18742335Y-37306206D01*
X18742328Y-37306202D01*
X18607482Y-37255908D01*
X18607483Y-37255908D01*
X18547883Y-37249501D01*
X18547881Y-37249500D01*
X18547873Y-37249500D01*
X18547864Y-37249500D01*
X17452129Y-37249500D01*
X17452123Y-37249501D01*
X17392516Y-37255908D01*
X17257671Y-37306202D01*
X17257664Y-37306206D01*
X17142457Y-37392451D01*
X17142449Y-37392458D01*
X17103260Y-37444810D01*
X17047326Y-37486682D01*
X17003993Y-37494500D01*
X12996007Y-37494500D01*
X12928968Y-37474815D01*
X12896740Y-37444810D01*
X12857550Y-37392458D01*
X12857547Y-37392455D01*
X12857546Y-37392454D01*
X12830496Y-37372204D01*
X12742334Y-37306205D01*
X12706164Y-37292714D01*
X12650231Y-37250841D01*
X12625816Y-37185376D01*
X12625500Y-37176533D01*
X12625500Y-36499500D01*
X12645185Y-36432461D01*
X12697989Y-36386706D01*
X12749500Y-36375500D01*
X24238389Y-36375500D01*
X24305428Y-36395185D01*
G37*
G04 #@! TD.AperFunction*
G04 #@! TA.AperFunction,Conductor*
G36*
X37070354Y-37145185D02*
G01*
X37116109Y-37197989D01*
X37126053Y-37267147D01*
X37121022Y-37288497D01*
X37085001Y-37397203D01*
X37085001Y-37397204D01*
X37085000Y-37397204D01*
X37074500Y-37499983D01*
X37074500Y-38500001D01*
X37074501Y-38500019D01*
X37085000Y-38602796D01*
X37089900Y-38617581D01*
X37103017Y-38657167D01*
X37104452Y-38661495D01*
X37106854Y-38731324D01*
X37071122Y-38791366D01*
X37008602Y-38822559D01*
X36986746Y-38824500D01*
X35749470Y-38824500D01*
X35682431Y-38804815D01*
X35636676Y-38752011D01*
X35626732Y-38682853D01*
X35633288Y-38657167D01*
X35668675Y-38562288D01*
X35674999Y-38503463D01*
X35675000Y-38503462D01*
X35675000Y-38125000D01*
X35061500Y-38125000D01*
X35052814Y-38122449D01*
X35043853Y-38123738D01*
X35019812Y-38112759D01*
X34994461Y-38105315D01*
X34988533Y-38098474D01*
X34980297Y-38094713D01*
X34966007Y-38072478D01*
X34948706Y-38052511D01*
X34946418Y-38041996D01*
X34942523Y-38035935D01*
X34937500Y-38001000D01*
X34937500Y-37999000D01*
X34957185Y-37931961D01*
X35009989Y-37886206D01*
X35061500Y-37875000D01*
X35675000Y-37875000D01*
X35675000Y-37496538D01*
X35674999Y-37496536D01*
X35668675Y-37437711D01*
X35615961Y-37296378D01*
X35618444Y-37295451D01*
X35606522Y-37240662D01*
X35630935Y-37175196D01*
X35686866Y-37133321D01*
X35730207Y-37125500D01*
X37003315Y-37125500D01*
X37070354Y-37145185D01*
G37*
G04 #@! TD.AperFunction*
G04 #@! TA.AperFunction,Conductor*
G36*
X69263773Y-35160740D02*
G01*
X69311384Y-35211877D01*
X69324500Y-35267382D01*
X69324500Y-35937770D01*
X69304815Y-36004809D01*
X69288181Y-36025451D01*
X69232289Y-36081342D01*
X69140185Y-36230667D01*
X69137256Y-36239507D01*
X69097482Y-36296951D01*
X69032965Y-36323772D01*
X69019551Y-36324500D01*
X51467520Y-36324500D01*
X51400481Y-36304815D01*
X51398628Y-36303601D01*
X51379186Y-36290610D01*
X51379172Y-36290602D01*
X51233501Y-36230264D01*
X51233489Y-36230261D01*
X51078845Y-36199500D01*
X51078842Y-36199500D01*
X50921158Y-36199500D01*
X50921153Y-36199500D01*
X50855431Y-36212573D01*
X50785839Y-36206346D01*
X50730662Y-36163482D01*
X50716679Y-36138409D01*
X50709392Y-36120817D01*
X50621789Y-35989711D01*
X50621786Y-35989707D01*
X50510292Y-35878213D01*
X50510288Y-35878210D01*
X50471963Y-35852602D01*
X50427158Y-35798990D01*
X50418451Y-35729665D01*
X50448605Y-35666637D01*
X50508048Y-35629918D01*
X50540854Y-35625500D01*
X68561607Y-35625500D01*
X68561608Y-35625499D01*
X68682452Y-35601463D01*
X68796286Y-35554311D01*
X68898733Y-35485858D01*
X68985858Y-35398733D01*
X69054311Y-35296286D01*
X69085939Y-35219930D01*
X69129780Y-35165526D01*
X69196074Y-35143461D01*
X69263773Y-35160740D01*
G37*
G04 #@! TD.AperFunction*
G04 #@! TA.AperFunction,Conductor*
G36*
X29975795Y-33130828D02*
G01*
X29994704Y-33131166D01*
X30022919Y-33144665D01*
X30024689Y-33145185D01*
X30026541Y-33146398D01*
X30120821Y-33209394D01*
X30120823Y-33209395D01*
X30120827Y-33209397D01*
X30266498Y-33269735D01*
X30266503Y-33269737D01*
X30382614Y-33292833D01*
X30421153Y-33300499D01*
X30421156Y-33300500D01*
X30421158Y-33300500D01*
X30425500Y-33300500D01*
X30492539Y-33320185D01*
X30538294Y-33372989D01*
X30549500Y-33424500D01*
X30549500Y-34825500D01*
X30529815Y-34892539D01*
X30477011Y-34938294D01*
X30425500Y-34949500D01*
X30421155Y-34949500D01*
X30266510Y-34980261D01*
X30266498Y-34980264D01*
X30120827Y-35040602D01*
X30120815Y-35040609D01*
X30026541Y-35103602D01*
X29959864Y-35124480D01*
X29957650Y-35124500D01*
X25539269Y-35124500D01*
X25472230Y-35104815D01*
X25426475Y-35052011D01*
X25416531Y-34982853D01*
X25445556Y-34919297D01*
X25464958Y-34901234D01*
X25557187Y-34832190D01*
X25557190Y-34832187D01*
X25643350Y-34717093D01*
X25643354Y-34717086D01*
X25693596Y-34582379D01*
X25693598Y-34582372D01*
X25699999Y-34522844D01*
X25700000Y-34522827D01*
X25700000Y-34125000D01*
X25074000Y-34125000D01*
X25065314Y-34122449D01*
X25056353Y-34123738D01*
X25032312Y-34112759D01*
X25006961Y-34105315D01*
X25001033Y-34098474D01*
X24992797Y-34094713D01*
X24978507Y-34072478D01*
X24961206Y-34052511D01*
X24958918Y-34041996D01*
X24955023Y-34035935D01*
X24950000Y-34001000D01*
X24950000Y-33999000D01*
X24969685Y-33931961D01*
X25022489Y-33886206D01*
X25074000Y-33875000D01*
X25700000Y-33875000D01*
X25700000Y-33477172D01*
X25699999Y-33477155D01*
X25693598Y-33417627D01*
X25693596Y-33417620D01*
X25647054Y-33292833D01*
X25642070Y-33223142D01*
X25675555Y-33161818D01*
X25736878Y-33128334D01*
X25763236Y-33125500D01*
X29957650Y-33125500D01*
X29975795Y-33130828D01*
G37*
G04 #@! TD.AperFunction*
G04 #@! TA.AperFunction,Conductor*
G36*
X61026185Y-23645185D02*
G01*
X61071940Y-23697989D01*
X61081884Y-23767147D01*
X61052859Y-23830703D01*
X61028037Y-23852602D01*
X60989711Y-23878210D01*
X60989707Y-23878213D01*
X60878213Y-23989707D01*
X60878210Y-23989711D01*
X60790609Y-24120814D01*
X60790602Y-24120827D01*
X60730264Y-24266498D01*
X60730261Y-24266510D01*
X60699500Y-24421153D01*
X60699500Y-24578846D01*
X60730261Y-24733489D01*
X60730264Y-24733501D01*
X60790602Y-24879172D01*
X60790609Y-24879185D01*
X60878210Y-25010288D01*
X60878213Y-25010292D01*
X60989707Y-25121786D01*
X60989711Y-25121789D01*
X61120814Y-25209390D01*
X61120827Y-25209397D01*
X61266498Y-25269735D01*
X61266503Y-25269737D01*
X61412179Y-25298714D01*
X61421153Y-25300499D01*
X61421156Y-25300500D01*
X61421158Y-25300500D01*
X61578844Y-25300500D01*
X61578845Y-25300499D01*
X61733497Y-25269737D01*
X61879179Y-25209394D01*
X61973459Y-25146398D01*
X62040136Y-25125520D01*
X62042350Y-25125500D01*
X65446139Y-25125500D01*
X65459105Y-25129307D01*
X65472586Y-25128353D01*
X65491976Y-25138959D01*
X65513178Y-25145185D01*
X65523355Y-25156123D01*
X65533884Y-25161883D01*
X65555015Y-25190153D01*
X65555287Y-25190652D01*
X65570089Y-25258936D01*
X65558314Y-25298990D01*
X65559303Y-25299359D01*
X65505908Y-25442517D01*
X65499501Y-25502116D01*
X65499501Y-25502123D01*
X65499500Y-25502135D01*
X65499500Y-26497870D01*
X65499501Y-26497876D01*
X65505908Y-26557483D01*
X65559303Y-26700641D01*
X65557575Y-26701285D01*
X65570095Y-26758853D01*
X65558310Y-26798988D01*
X65559303Y-26799359D01*
X65505908Y-26942517D01*
X65499501Y-27002116D01*
X65499500Y-27002135D01*
X65499500Y-27997870D01*
X65499501Y-27997876D01*
X65505908Y-28057483D01*
X65559303Y-28200641D01*
X65557575Y-28201285D01*
X65570095Y-28258853D01*
X65558310Y-28298988D01*
X65559303Y-28299359D01*
X65505908Y-28442517D01*
X65499501Y-28502116D01*
X65499500Y-28502135D01*
X65499500Y-29497870D01*
X65499501Y-29497876D01*
X65505908Y-29557483D01*
X65559303Y-29700641D01*
X65557575Y-29701285D01*
X65570095Y-29758853D01*
X65558310Y-29798988D01*
X65559303Y-29799359D01*
X65505908Y-29942517D01*
X65499501Y-30002116D01*
X65499500Y-30002135D01*
X65499500Y-30997870D01*
X65499501Y-30997876D01*
X65505908Y-31057483D01*
X65559303Y-31200641D01*
X65557575Y-31201285D01*
X65570095Y-31258853D01*
X65558310Y-31298988D01*
X65559303Y-31299359D01*
X65505908Y-31442517D01*
X65499501Y-31502116D01*
X65499500Y-31502135D01*
X65499500Y-32497870D01*
X65499501Y-32497876D01*
X65505908Y-32557483D01*
X65556202Y-32692328D01*
X65556206Y-32692335D01*
X65642452Y-32807544D01*
X65642455Y-32807547D01*
X65757664Y-32893793D01*
X65757671Y-32893797D01*
X65892517Y-32944091D01*
X65892516Y-32944091D01*
X65899444Y-32944835D01*
X65952127Y-32950500D01*
X67547872Y-32950499D01*
X67607483Y-32944091D01*
X67707168Y-32906910D01*
X67776858Y-32901927D01*
X67838181Y-32935412D01*
X67871666Y-32996735D01*
X67874500Y-33023093D01*
X67874500Y-34250500D01*
X67854815Y-34317539D01*
X67802011Y-34363294D01*
X67750500Y-34374500D01*
X58674500Y-34374500D01*
X58607461Y-34354815D01*
X58561706Y-34302011D01*
X58550500Y-34250500D01*
X58550500Y-34171155D01*
X58550499Y-34171153D01*
X58541418Y-34125499D01*
X58519737Y-34016503D01*
X58519735Y-34016498D01*
X58459397Y-33870828D01*
X58459396Y-33870827D01*
X58459394Y-33870821D01*
X58396397Y-33776539D01*
X58375520Y-33709863D01*
X58375500Y-33707650D01*
X58375500Y-28938393D01*
X58375499Y-28938389D01*
X58362990Y-28875499D01*
X58351463Y-28817548D01*
X58304311Y-28703714D01*
X58304310Y-28703713D01*
X58304307Y-28703707D01*
X58235858Y-28601267D01*
X58235855Y-28601263D01*
X58148736Y-28514144D01*
X58148732Y-28514141D01*
X58046292Y-28445692D01*
X58046283Y-28445687D01*
X57932454Y-28398538D01*
X57932455Y-28398538D01*
X57932452Y-28398537D01*
X57932448Y-28398536D01*
X57932444Y-28398535D01*
X57811610Y-28374500D01*
X57811606Y-28374500D01*
X50553861Y-28374500D01*
X50540935Y-28370704D01*
X50527499Y-28371665D01*
X50508066Y-28361053D01*
X50486822Y-28354815D01*
X50476664Y-28343905D01*
X50466177Y-28338178D01*
X50445027Y-28309923D01*
X50444754Y-28309423D01*
X50429904Y-28241150D01*
X50444754Y-28190577D01*
X50445027Y-28190077D01*
X50451292Y-28183811D01*
X50454323Y-28175686D01*
X50474576Y-28160525D01*
X50494431Y-28140670D01*
X50504555Y-28138085D01*
X50510258Y-28133817D01*
X50525565Y-28132722D01*
X50553861Y-28125500D01*
X51561607Y-28125500D01*
X51561608Y-28125499D01*
X51682452Y-28101463D01*
X51796286Y-28054311D01*
X51898733Y-27985858D01*
X51985858Y-27898733D01*
X52054311Y-27796286D01*
X52101463Y-27682452D01*
X52125500Y-27561606D01*
X52125500Y-23924500D01*
X52145185Y-23857461D01*
X52197989Y-23811706D01*
X52249500Y-23800500D01*
X52328844Y-23800500D01*
X52328845Y-23800499D01*
X52483497Y-23769737D01*
X52629179Y-23709394D01*
X52723459Y-23646398D01*
X52790136Y-23625520D01*
X52792350Y-23625500D01*
X60959146Y-23625500D01*
X61026185Y-23645185D01*
G37*
G04 #@! TD.AperFunction*
G04 #@! TA.AperFunction,Conductor*
G36*
X68128813Y-22811118D02*
G01*
X68142146Y-22809202D01*
X68162289Y-22818401D01*
X68183926Y-22823108D01*
X68201651Y-22836376D01*
X68205702Y-22838227D01*
X68212180Y-22844259D01*
X68239707Y-22871786D01*
X68239711Y-22871789D01*
X68370814Y-22959390D01*
X68370827Y-22959397D01*
X68516498Y-23019735D01*
X68516503Y-23019737D01*
X68671153Y-23050499D01*
X68671156Y-23050500D01*
X68671158Y-23050500D01*
X68828844Y-23050500D01*
X68828845Y-23050499D01*
X68983497Y-23019737D01*
X69129179Y-22959394D01*
X69223459Y-22896398D01*
X69290136Y-22875520D01*
X69292350Y-22875500D01*
X74250500Y-22875500D01*
X74317539Y-22895185D01*
X74363294Y-22947989D01*
X74374500Y-22999500D01*
X74374500Y-24250500D01*
X74354815Y-24317539D01*
X74302011Y-24363294D01*
X74250500Y-24374500D01*
X73874835Y-24374500D01*
X73807796Y-24354815D01*
X73800524Y-24349767D01*
X73742331Y-24306204D01*
X73742328Y-24306202D01*
X73607482Y-24255908D01*
X73607483Y-24255908D01*
X73547883Y-24249501D01*
X73547881Y-24249500D01*
X73547873Y-24249500D01*
X73547864Y-24249500D01*
X72452129Y-24249500D01*
X72452123Y-24249501D01*
X72392516Y-24255908D01*
X72257671Y-24306202D01*
X72257664Y-24306206D01*
X72142455Y-24392452D01*
X72142452Y-24392455D01*
X72056206Y-24507664D01*
X72056202Y-24507671D01*
X72005908Y-24642517D01*
X72001616Y-24682444D01*
X71999501Y-24702123D01*
X71999500Y-24702135D01*
X71999500Y-25547870D01*
X71999501Y-25547876D01*
X72005908Y-25607483D01*
X72056202Y-25742328D01*
X72056206Y-25742335D01*
X72142452Y-25857544D01*
X72142455Y-25857547D01*
X72257664Y-25943793D01*
X72257671Y-25943797D01*
X72392517Y-25994091D01*
X72392516Y-25994091D01*
X72399444Y-25994835D01*
X72452127Y-26000500D01*
X73547872Y-26000499D01*
X73607483Y-25994091D01*
X73742331Y-25943796D01*
X73857546Y-25857546D01*
X73864615Y-25848102D01*
X73904228Y-25795189D01*
X73907883Y-25792452D01*
X73909781Y-25788297D01*
X73935602Y-25771702D01*
X73960162Y-25753318D01*
X73965789Y-25752302D01*
X73968559Y-25750523D01*
X74003494Y-25745500D01*
X74250500Y-25745500D01*
X74317539Y-25765185D01*
X74363294Y-25817989D01*
X74374500Y-25869500D01*
X74374500Y-32561610D01*
X74398535Y-32682444D01*
X74398539Y-32682458D01*
X74440215Y-32783074D01*
X74447684Y-32852543D01*
X74416408Y-32915022D01*
X74390753Y-32936063D01*
X74356346Y-32957285D01*
X74232289Y-33081342D01*
X74140185Y-33230667D01*
X74137256Y-33239507D01*
X74097482Y-33296951D01*
X74032965Y-33323772D01*
X74019551Y-33324500D01*
X69933467Y-33324500D01*
X69802969Y-33350458D01*
X69802959Y-33350461D01*
X69680038Y-33401376D01*
X69680020Y-33401386D01*
X69569398Y-33475301D01*
X69569390Y-33475307D01*
X69475307Y-33569390D01*
X69475301Y-33569398D01*
X69401386Y-33680020D01*
X69401378Y-33680034D01*
X69364061Y-33770128D01*
X69320220Y-33824531D01*
X69253926Y-33846596D01*
X69186227Y-33829317D01*
X69138616Y-33778180D01*
X69125500Y-33722675D01*
X69125500Y-29274628D01*
X72250000Y-29274628D01*
X72264503Y-29347540D01*
X72264505Y-29347544D01*
X72319760Y-29430239D01*
X72402455Y-29485494D01*
X72402459Y-29485496D01*
X72475371Y-29499999D01*
X72475374Y-29500000D01*
X72875000Y-29500000D01*
X73125000Y-29500000D01*
X73524626Y-29500000D01*
X73524628Y-29499999D01*
X73597540Y-29485496D01*
X73597544Y-29485494D01*
X73680239Y-29430239D01*
X73735494Y-29347544D01*
X73735496Y-29347540D01*
X73749999Y-29274628D01*
X73750000Y-29274626D01*
X73750000Y-29000000D01*
X73125000Y-29000000D01*
X73125000Y-29500000D01*
X72875000Y-29500000D01*
X72875000Y-29000000D01*
X72250000Y-29000000D01*
X72250000Y-29274628D01*
X69125500Y-29274628D01*
X69125500Y-28475371D01*
X72250000Y-28475371D01*
X72250000Y-28750000D01*
X72875000Y-28750000D01*
X73125000Y-28750000D01*
X73750000Y-28750000D01*
X73750000Y-28475373D01*
X73749999Y-28475371D01*
X73735496Y-28402459D01*
X73735494Y-28402455D01*
X73680239Y-28319760D01*
X73597544Y-28264505D01*
X73597540Y-28264503D01*
X73524627Y-28250000D01*
X73125000Y-28250000D01*
X73125000Y-28750000D01*
X72875000Y-28750000D01*
X72875000Y-28250000D01*
X72475373Y-28250000D01*
X72402459Y-28264503D01*
X72402455Y-28264505D01*
X72319760Y-28319760D01*
X72264505Y-28402455D01*
X72264503Y-28402459D01*
X72250000Y-28475371D01*
X69125500Y-28475371D01*
X69125500Y-27438393D01*
X69125499Y-27438389D01*
X69110448Y-27362720D01*
X69101463Y-27317548D01*
X69054311Y-27203714D01*
X69054310Y-27203713D01*
X69054307Y-27203707D01*
X68985858Y-27101267D01*
X68985855Y-27101263D01*
X68898736Y-27014144D01*
X68898732Y-27014141D01*
X68802590Y-26949900D01*
X68757785Y-26896287D01*
X68749078Y-26826962D01*
X68779233Y-26763935D01*
X68824028Y-26732238D01*
X68879179Y-26709394D01*
X69010289Y-26621789D01*
X69121789Y-26510289D01*
X69209394Y-26379179D01*
X69216212Y-26362720D01*
X69269735Y-26233501D01*
X69269737Y-26233497D01*
X69300500Y-26078842D01*
X69300500Y-25921158D01*
X69300500Y-25921155D01*
X69300499Y-25921153D01*
X69300457Y-25920943D01*
X69269737Y-25766503D01*
X69261037Y-25745500D01*
X69209397Y-25620827D01*
X69209390Y-25620814D01*
X69121789Y-25489711D01*
X69121786Y-25489707D01*
X69010292Y-25378213D01*
X69010288Y-25378210D01*
X68879185Y-25290609D01*
X68879172Y-25290602D01*
X68733501Y-25230264D01*
X68733489Y-25230261D01*
X68578845Y-25199500D01*
X68578842Y-25199500D01*
X68421158Y-25199500D01*
X68421155Y-25199500D01*
X68266510Y-25230261D01*
X68266498Y-25230264D01*
X68131282Y-25286272D01*
X68061813Y-25293741D01*
X67999334Y-25262465D01*
X67963682Y-25202376D01*
X67966176Y-25132551D01*
X67967649Y-25128377D01*
X67968723Y-25125499D01*
X67994091Y-25057483D01*
X68000500Y-24997873D01*
X68000499Y-24002128D01*
X67994091Y-23942517D01*
X67943796Y-23807669D01*
X67943794Y-23807666D01*
X67940696Y-23799360D01*
X67942426Y-23798714D01*
X67929902Y-23741163D01*
X67941691Y-23701011D01*
X67940696Y-23700640D01*
X67943794Y-23692333D01*
X67943796Y-23692331D01*
X67994091Y-23557483D01*
X68000500Y-23497873D01*
X68000499Y-22931938D01*
X68006737Y-22910693D01*
X68008317Y-22888606D01*
X68016388Y-22877823D01*
X68020183Y-22864901D01*
X68036919Y-22850399D01*
X68050189Y-22832673D01*
X68062807Y-22827966D01*
X68072987Y-22819146D01*
X68094905Y-22815994D01*
X68115653Y-22808256D01*
X68128813Y-22811118D01*
G37*
G04 #@! TD.AperFunction*
G04 #@! TA.AperFunction,Conductor*
G36*
X34609984Y-29334919D02*
G01*
X34645644Y-29395003D01*
X34649500Y-29425685D01*
X34649500Y-30275500D01*
X34629815Y-30342539D01*
X34577011Y-30388294D01*
X34525500Y-30399500D01*
X33970943Y-30399500D01*
X33818216Y-30440423D01*
X33818209Y-30440426D01*
X33681290Y-30519475D01*
X33681282Y-30519481D01*
X33569481Y-30631282D01*
X33569475Y-30631290D01*
X33490426Y-30768209D01*
X33490421Y-30768220D01*
X33482001Y-30799644D01*
X33445635Y-30859303D01*
X33427324Y-30873086D01*
X33331347Y-30932285D01*
X33331343Y-30932288D01*
X33207289Y-31056342D01*
X33115187Y-31205663D01*
X33115185Y-31205668D01*
X33093956Y-31269735D01*
X33060001Y-31372203D01*
X33060001Y-31372204D01*
X33060000Y-31372204D01*
X33049500Y-31474983D01*
X33049500Y-32525001D01*
X33049501Y-32525019D01*
X33060000Y-32627796D01*
X33060001Y-32627799D01*
X33102091Y-32754815D01*
X33115186Y-32794334D01*
X33207288Y-32943656D01*
X33331344Y-33067712D01*
X33480666Y-33159814D01*
X33647203Y-33214999D01*
X33749991Y-33225500D01*
X34350008Y-33225499D01*
X34350016Y-33225498D01*
X34350019Y-33225498D01*
X34406302Y-33219748D01*
X34452797Y-33214999D01*
X34619334Y-33159814D01*
X34755681Y-33075714D01*
X34823069Y-33057276D01*
X34889733Y-33078198D01*
X34934503Y-33131840D01*
X34943164Y-33201171D01*
X34935335Y-33228707D01*
X34898539Y-33317541D01*
X34898535Y-33317555D01*
X34874500Y-33438389D01*
X34874500Y-33500500D01*
X34854815Y-33567539D01*
X34802011Y-33613294D01*
X34750500Y-33624500D01*
X32542350Y-33624500D01*
X32475311Y-33604815D01*
X32473459Y-33603602D01*
X32379184Y-33540609D01*
X32379172Y-33540602D01*
X32233501Y-33480264D01*
X32233489Y-33480261D01*
X32078845Y-33449500D01*
X32078842Y-33449500D01*
X31921158Y-33449500D01*
X31898690Y-33453969D01*
X31829099Y-33447740D01*
X31773922Y-33404877D01*
X31750678Y-33338987D01*
X31750500Y-33332351D01*
X31750500Y-29474500D01*
X31770185Y-29407461D01*
X31822989Y-29361706D01*
X31874500Y-29350500D01*
X34329055Y-29350500D01*
X34329057Y-29350500D01*
X34481784Y-29309577D01*
X34481785Y-29309576D01*
X34489635Y-29307473D01*
X34490262Y-29309813D01*
X34547500Y-29303652D01*
X34609984Y-29334919D01*
G37*
G04 #@! TD.AperFunction*
G04 #@! TA.AperFunction,Conductor*
G36*
X48002898Y-26620185D02*
G01*
X48048653Y-26672989D01*
X48052030Y-26681140D01*
X48056204Y-26692331D01*
X48056205Y-26692333D01*
X48059305Y-26700643D01*
X48057576Y-26701287D01*
X48070094Y-26758859D01*
X48058311Y-26798989D01*
X48059303Y-26799359D01*
X48005908Y-26942517D01*
X47999501Y-27002116D01*
X47999500Y-27002135D01*
X47999500Y-27997870D01*
X47999501Y-27997876D01*
X48005908Y-28057483D01*
X48059303Y-28200641D01*
X48057575Y-28201285D01*
X48070095Y-28258853D01*
X48058310Y-28298988D01*
X48059303Y-28299359D01*
X48005908Y-28442517D01*
X47999501Y-28502116D01*
X47999500Y-28502135D01*
X47999500Y-29497870D01*
X47999501Y-29497876D01*
X48005908Y-29557483D01*
X48059303Y-29700641D01*
X48057575Y-29701285D01*
X48070095Y-29758853D01*
X48058310Y-29798988D01*
X48059303Y-29799359D01*
X48005908Y-29942517D01*
X47999501Y-30002116D01*
X47999500Y-30002135D01*
X47999500Y-30997870D01*
X47999501Y-30997876D01*
X48005908Y-31057483D01*
X48056202Y-31192328D01*
X48056206Y-31192335D01*
X48142452Y-31307544D01*
X48142455Y-31307547D01*
X48211224Y-31359028D01*
X48253095Y-31414962D01*
X48258531Y-31482483D01*
X48250000Y-31525374D01*
X48250000Y-31875000D01*
X50250000Y-31875000D01*
X50250000Y-31525373D01*
X50241469Y-31482486D01*
X50247696Y-31412894D01*
X50288773Y-31359029D01*
X50357546Y-31307546D01*
X50443796Y-31192331D01*
X50443798Y-31192323D01*
X50445027Y-31190076D01*
X50446849Y-31188253D01*
X50449112Y-31185231D01*
X50449546Y-31185556D01*
X50494431Y-31140669D01*
X50553861Y-31125500D01*
X56207650Y-31125500D01*
X56274689Y-31145185D01*
X56276541Y-31146398D01*
X56370821Y-31209394D01*
X56370823Y-31209395D01*
X56370827Y-31209397D01*
X56468853Y-31250000D01*
X56516503Y-31269737D01*
X56663557Y-31298988D01*
X56671153Y-31300499D01*
X56671156Y-31300500D01*
X56671158Y-31300500D01*
X56828844Y-31300500D01*
X56976308Y-31271167D01*
X57045900Y-31277394D01*
X57101077Y-31320257D01*
X57124322Y-31386146D01*
X57124500Y-31392784D01*
X57124500Y-31825500D01*
X57104815Y-31892539D01*
X57052011Y-31938294D01*
X57000500Y-31949500D01*
X56921155Y-31949500D01*
X56766510Y-31980261D01*
X56766498Y-31980264D01*
X56620827Y-32040602D01*
X56620815Y-32040609D01*
X56526541Y-32103602D01*
X56459864Y-32124480D01*
X56457650Y-32124500D01*
X52311606Y-32124500D01*
X52188394Y-32124500D01*
X52097240Y-32142631D01*
X52027649Y-32136402D01*
X52004159Y-32124115D01*
X51879185Y-32040609D01*
X51879172Y-32040602D01*
X51733501Y-31980264D01*
X51733489Y-31980261D01*
X51578845Y-31949500D01*
X51578842Y-31949500D01*
X51421158Y-31949500D01*
X51421155Y-31949500D01*
X51266510Y-31980261D01*
X51266498Y-31980264D01*
X51120827Y-32040602D01*
X51120815Y-32040609D01*
X51026541Y-32103602D01*
X50959864Y-32124480D01*
X50957650Y-32124500D01*
X50688389Y-32124500D01*
X50567555Y-32148535D01*
X50567545Y-32148538D01*
X50453716Y-32195687D01*
X50453707Y-32195692D01*
X50442891Y-32202920D01*
X50376213Y-32223798D01*
X50308833Y-32205313D01*
X50262143Y-32153334D01*
X50257390Y-32132390D01*
X50250000Y-32125000D01*
X48250000Y-32125000D01*
X48250000Y-32474626D01*
X48249999Y-32474626D01*
X48250336Y-32476316D01*
X48250255Y-32477218D01*
X48250597Y-32480689D01*
X48249938Y-32480753D01*
X48244104Y-32545907D01*
X48201238Y-32601082D01*
X48135347Y-32624323D01*
X48128717Y-32624500D01*
X37188389Y-32624500D01*
X37067555Y-32648535D01*
X37067545Y-32648538D01*
X36953716Y-32695687D01*
X36953707Y-32695692D01*
X36870216Y-32751480D01*
X36803538Y-32772358D01*
X36736158Y-32753873D01*
X36689468Y-32701895D01*
X36678292Y-32632925D01*
X36685143Y-32605044D01*
X36693597Y-32582376D01*
X36693598Y-32582372D01*
X36699999Y-32522844D01*
X36700000Y-32522827D01*
X36700000Y-32125000D01*
X36074000Y-32125000D01*
X36065314Y-32122449D01*
X36056353Y-32123738D01*
X36032312Y-32112759D01*
X36006961Y-32105315D01*
X36001033Y-32098474D01*
X35992797Y-32094713D01*
X35978507Y-32072478D01*
X35961206Y-32052511D01*
X35958918Y-32041996D01*
X35955023Y-32035935D01*
X35950000Y-32001000D01*
X35950000Y-32000000D01*
X35949000Y-32000000D01*
X35881961Y-31980315D01*
X35836206Y-31927511D01*
X35825000Y-31876000D01*
X35825000Y-31190549D01*
X35829225Y-31158455D01*
X35831225Y-31150991D01*
X35867590Y-31091331D01*
X35926408Y-31062758D01*
X35875233Y-31024448D01*
X35850816Y-30958984D01*
X35850500Y-30950138D01*
X35850500Y-28974083D01*
X35859744Y-28942601D01*
X35867860Y-28910807D01*
X35869539Y-28909243D01*
X35870185Y-28907044D01*
X35894973Y-28885564D01*
X35918998Y-28863198D01*
X35921255Y-28862790D01*
X35922989Y-28861289D01*
X35955468Y-28856618D01*
X35987758Y-28850794D01*
X35990720Y-28851550D01*
X35992147Y-28851345D01*
X36021949Y-28859521D01*
X36024764Y-28860687D01*
X36137280Y-28875500D01*
X36137287Y-28875500D01*
X36275500Y-28875500D01*
X36342539Y-28895185D01*
X36388294Y-28947989D01*
X36399500Y-28999500D01*
X36399500Y-30579056D01*
X36440423Y-30731783D01*
X36440426Y-30731790D01*
X36523543Y-30875755D01*
X36521258Y-30877073D01*
X36541743Y-30930081D01*
X36527696Y-30998524D01*
X36478876Y-31048507D01*
X36410782Y-31064162D01*
X36374839Y-31056564D01*
X36307379Y-31031403D01*
X36307372Y-31031401D01*
X36247844Y-31025000D01*
X36075000Y-31025000D01*
X36062181Y-31037819D01*
X36001837Y-31070768D01*
X36053691Y-31113582D01*
X36074965Y-31180135D01*
X36075000Y-31183085D01*
X36075000Y-31875000D01*
X36700000Y-31875000D01*
X36700000Y-31477172D01*
X36699999Y-31477155D01*
X36693598Y-31417627D01*
X36693596Y-31417620D01*
X36643354Y-31282913D01*
X36643352Y-31282910D01*
X36615783Y-31246083D01*
X36591365Y-31180619D01*
X36606216Y-31112346D01*
X36655620Y-31062940D01*
X36723893Y-31048087D01*
X36762501Y-31057209D01*
X36768208Y-31059572D01*
X36768216Y-31059577D01*
X36920943Y-31100500D01*
X36920945Y-31100500D01*
X45079055Y-31100500D01*
X45079057Y-31100500D01*
X45231784Y-31059577D01*
X45368716Y-30980520D01*
X45480520Y-30868716D01*
X45559577Y-30731784D01*
X45600500Y-30579057D01*
X45600500Y-26724500D01*
X45620185Y-26657461D01*
X45672989Y-26611706D01*
X45724500Y-26600500D01*
X47935859Y-26600500D01*
X48002898Y-26620185D01*
G37*
G04 #@! TD.AperFunction*
G04 #@! TA.AperFunction,Conductor*
G36*
X40774689Y-16645185D02*
G01*
X40776541Y-16646398D01*
X40870821Y-16709394D01*
X40870823Y-16709395D01*
X40870827Y-16709397D01*
X40967646Y-16749500D01*
X41016503Y-16769737D01*
X41171153Y-16800499D01*
X41171156Y-16800500D01*
X41250500Y-16800500D01*
X41317539Y-16820185D01*
X41363294Y-16872989D01*
X41374500Y-16924500D01*
X41374500Y-20561610D01*
X41398535Y-20682444D01*
X41398537Y-20682452D01*
X41401765Y-20690244D01*
X41445687Y-20796283D01*
X41445692Y-20796292D01*
X41514141Y-20898732D01*
X41514144Y-20898736D01*
X41601263Y-20985855D01*
X41601267Y-20985858D01*
X41703707Y-21054307D01*
X41703713Y-21054310D01*
X41703714Y-21054311D01*
X41817548Y-21101463D01*
X41938389Y-21125499D01*
X41938393Y-21125500D01*
X41938394Y-21125500D01*
X42500500Y-21125500D01*
X42567539Y-21145185D01*
X42613294Y-21197989D01*
X42624500Y-21249500D01*
X42624500Y-24561610D01*
X42648535Y-24682444D01*
X42648538Y-24682454D01*
X42695687Y-24796283D01*
X42695692Y-24796292D01*
X42764141Y-24898732D01*
X42764144Y-24898736D01*
X42851263Y-24985855D01*
X42851267Y-24985858D01*
X42953707Y-25054307D01*
X42953713Y-25054310D01*
X42953714Y-25054311D01*
X43067548Y-25101463D01*
X43169722Y-25121786D01*
X43188389Y-25125499D01*
X43188393Y-25125500D01*
X43188394Y-25125500D01*
X43311606Y-25125500D01*
X47946139Y-25125500D01*
X47959064Y-25129295D01*
X47972501Y-25128335D01*
X47991933Y-25138946D01*
X48013178Y-25145185D01*
X48023335Y-25156094D01*
X48033823Y-25161822D01*
X48054973Y-25190077D01*
X48055246Y-25190577D01*
X48070096Y-25258850D01*
X48058311Y-25298986D01*
X48059305Y-25299357D01*
X48056205Y-25307666D01*
X48056204Y-25307669D01*
X48052039Y-25318834D01*
X48010171Y-25374766D01*
X47944707Y-25399184D01*
X47935859Y-25399500D01*
X44920943Y-25399500D01*
X44768216Y-25440423D01*
X44768209Y-25440426D01*
X44631290Y-25519475D01*
X44631282Y-25519481D01*
X44519481Y-25631282D01*
X44519475Y-25631290D01*
X44440426Y-25768209D01*
X44440423Y-25768216D01*
X44399500Y-25920943D01*
X44399500Y-29775500D01*
X44379815Y-29842539D01*
X44327011Y-29888294D01*
X44275500Y-29899500D01*
X37724500Y-29899500D01*
X37657461Y-29879815D01*
X37611706Y-29827011D01*
X37600500Y-29775500D01*
X37600500Y-27974500D01*
X37620185Y-27907461D01*
X37672989Y-27861706D01*
X37724500Y-27850500D01*
X38159906Y-27850500D01*
X38207356Y-27859938D01*
X38302964Y-27899540D01*
X38302968Y-27899540D01*
X38302969Y-27899541D01*
X38433466Y-27925500D01*
X38433469Y-27925500D01*
X38782480Y-27925500D01*
X38849519Y-27945185D01*
X38851372Y-27946399D01*
X38870813Y-27959389D01*
X38870815Y-27959390D01*
X38870821Y-27959394D01*
X38870823Y-27959395D01*
X38870827Y-27959397D01*
X38963725Y-27997876D01*
X39016503Y-28019737D01*
X39171153Y-28050499D01*
X39171156Y-28050500D01*
X39171158Y-28050500D01*
X39328844Y-28050500D01*
X39328845Y-28050499D01*
X39483497Y-28019737D01*
X39629179Y-27959394D01*
X39760289Y-27871789D01*
X39871789Y-27760289D01*
X39959394Y-27629179D01*
X40019737Y-27483497D01*
X40050500Y-27328842D01*
X40050500Y-27171158D01*
X40050500Y-27171155D01*
X40050499Y-27171153D01*
X40021380Y-27024764D01*
X40019737Y-27016503D01*
X40002644Y-26975236D01*
X39959397Y-26870827D01*
X39959390Y-26870814D01*
X39946398Y-26851370D01*
X39925520Y-26784692D01*
X39925500Y-26782479D01*
X39925500Y-23349499D01*
X39945185Y-23282460D01*
X39997989Y-23236705D01*
X40049500Y-23225499D01*
X40350002Y-23225499D01*
X40350008Y-23225499D01*
X40452797Y-23214999D01*
X40619334Y-23159814D01*
X40768656Y-23067712D01*
X40892712Y-22943656D01*
X40984814Y-22794334D01*
X41039999Y-22627797D01*
X41050500Y-22525009D01*
X41050499Y-21474992D01*
X41046760Y-21438394D01*
X41039999Y-21372203D01*
X41039998Y-21372200D01*
X40999339Y-21249500D01*
X40984814Y-21205666D01*
X40892712Y-21056344D01*
X40768656Y-20932288D01*
X40643052Y-20854815D01*
X40619336Y-20840187D01*
X40619331Y-20840185D01*
X40617862Y-20839698D01*
X40452797Y-20785001D01*
X40452795Y-20785000D01*
X40350016Y-20774500D01*
X40350009Y-20774500D01*
X40049500Y-20774500D01*
X39982461Y-20754815D01*
X39936706Y-20702011D01*
X39925500Y-20650500D01*
X39925500Y-17626613D01*
X39945185Y-17559574D01*
X39997989Y-17513819D01*
X40001975Y-17512083D01*
X40129179Y-17459394D01*
X40260289Y-17371789D01*
X40371789Y-17260289D01*
X40459394Y-17129179D01*
X40519737Y-16983497D01*
X40550500Y-16828842D01*
X40550500Y-16749500D01*
X40553050Y-16740814D01*
X40551762Y-16731853D01*
X40562740Y-16707812D01*
X40570185Y-16682461D01*
X40577025Y-16676533D01*
X40580787Y-16668297D01*
X40603021Y-16654007D01*
X40622989Y-16636706D01*
X40633503Y-16634418D01*
X40639565Y-16630523D01*
X40674500Y-16625500D01*
X40707650Y-16625500D01*
X40774689Y-16645185D01*
G37*
G04 #@! TD.AperFunction*
G04 #@! TA.AperFunction,Conductor*
G36*
X38493834Y-22407916D02*
G01*
X38549767Y-22449788D01*
X38574184Y-22515252D01*
X38574500Y-22524098D01*
X38574500Y-26450500D01*
X38554815Y-26517539D01*
X38502011Y-26563294D01*
X38450500Y-26574500D01*
X38433467Y-26574500D01*
X38302969Y-26600458D01*
X38302963Y-26600460D01*
X38256374Y-26619757D01*
X38207356Y-26640061D01*
X38199181Y-26641687D01*
X38194841Y-26644477D01*
X38159906Y-26649500D01*
X37985854Y-26649500D01*
X37918815Y-26629815D01*
X37873060Y-26577011D01*
X37862915Y-26541687D01*
X37859626Y-26516707D01*
X37862689Y-26516303D01*
X37862689Y-26483698D01*
X37859626Y-26483295D01*
X37860687Y-26475236D01*
X37875500Y-26362720D01*
X37875500Y-26137280D01*
X37860687Y-26024764D01*
X37860686Y-26024763D01*
X37859626Y-26016705D01*
X37862689Y-26016301D01*
X37862689Y-25983698D01*
X37859626Y-25983295D01*
X37862604Y-25960672D01*
X37875500Y-25862720D01*
X37875500Y-25637280D01*
X37860687Y-25524764D01*
X37860686Y-25524763D01*
X37859626Y-25516705D01*
X37862689Y-25516301D01*
X37862689Y-25483698D01*
X37859626Y-25483295D01*
X37864994Y-25442518D01*
X37875500Y-25362720D01*
X37875500Y-25137280D01*
X37860687Y-25024764D01*
X37802698Y-24884767D01*
X37710451Y-24764549D01*
X37710449Y-24764547D01*
X37710448Y-24764546D01*
X37674836Y-24737220D01*
X37633633Y-24680792D01*
X37627384Y-24655029D01*
X37618769Y-24589586D01*
X37618768Y-24589585D01*
X37570331Y-24485711D01*
X37489288Y-24404668D01*
X37385417Y-24356232D01*
X37385409Y-24356230D01*
X37338095Y-24350001D01*
X37338078Y-24350000D01*
X37075000Y-24350000D01*
X37075000Y-24475500D01*
X37072449Y-24484185D01*
X37073738Y-24493147D01*
X37062759Y-24517187D01*
X37055315Y-24542539D01*
X37048474Y-24548466D01*
X37044713Y-24556703D01*
X37022478Y-24570992D01*
X37002511Y-24588294D01*
X36991996Y-24590581D01*
X36985935Y-24594477D01*
X36951000Y-24599500D01*
X36949000Y-24599500D01*
X36881961Y-24579815D01*
X36836206Y-24527011D01*
X36825000Y-24475500D01*
X36825000Y-24350000D01*
X36773999Y-24350000D01*
X36706960Y-24330315D01*
X36661205Y-24277511D01*
X36649999Y-24226000D01*
X36649999Y-24175000D01*
X36524500Y-24175000D01*
X36515814Y-24172449D01*
X36506853Y-24173738D01*
X36482812Y-24162759D01*
X36457461Y-24155315D01*
X36451533Y-24148474D01*
X36443297Y-24144713D01*
X36429007Y-24122478D01*
X36411706Y-24102511D01*
X36409418Y-24091996D01*
X36405523Y-24085935D01*
X36400500Y-24051000D01*
X36400500Y-24049000D01*
X36420185Y-23981961D01*
X36472989Y-23936206D01*
X36524500Y-23925000D01*
X36649999Y-23925000D01*
X36649999Y-23661922D01*
X36643767Y-23614583D01*
X36643767Y-23614582D01*
X36595331Y-23510711D01*
X36514289Y-23429669D01*
X36422094Y-23386677D01*
X36369655Y-23340504D01*
X36350500Y-23274295D01*
X36350500Y-22724500D01*
X36370185Y-22657461D01*
X36422989Y-22611706D01*
X36474500Y-22600500D01*
X38029055Y-22600500D01*
X38029057Y-22600500D01*
X38181784Y-22559577D01*
X38318716Y-22480520D01*
X38362819Y-22436417D01*
X38424142Y-22402932D01*
X38493834Y-22407916D01*
G37*
G04 #@! TD.AperFunction*
G04 #@! TA.AperFunction,Conductor*
G36*
X35134103Y-21645185D02*
G01*
X35179858Y-21697989D01*
X35189802Y-21767147D01*
X35186840Y-21781587D01*
X35160845Y-21878602D01*
X35149500Y-21920943D01*
X35149500Y-23274296D01*
X35144612Y-23290940D01*
X35144750Y-23308289D01*
X35134972Y-23323770D01*
X35129815Y-23341335D01*
X35116576Y-23352898D01*
X35107441Y-23367364D01*
X35077902Y-23386680D01*
X35052402Y-23398570D01*
X34983324Y-23409060D01*
X34947595Y-23398568D01*
X34922095Y-23386677D01*
X34869656Y-23340504D01*
X34850500Y-23274295D01*
X34850500Y-21749500D01*
X34870185Y-21682461D01*
X34922989Y-21636706D01*
X34974500Y-21625500D01*
X35061606Y-21625500D01*
X35067064Y-21625500D01*
X35134103Y-21645185D01*
G37*
G04 #@! TD.AperFunction*
G04 #@! TA.AperFunction,Conductor*
G36*
X35285154Y-17195185D02*
G01*
X35330909Y-17247989D01*
X35340853Y-17317147D01*
X35334297Y-17342833D01*
X35306403Y-17417620D01*
X35306401Y-17417627D01*
X35300000Y-17477155D01*
X35300000Y-17875000D01*
X35926000Y-17875000D01*
X35934685Y-17877550D01*
X35943647Y-17876262D01*
X35967687Y-17887240D01*
X35993039Y-17894685D01*
X35998966Y-17901525D01*
X36007203Y-17905287D01*
X36021492Y-17927521D01*
X36038794Y-17947489D01*
X36041081Y-17958003D01*
X36044977Y-17964065D01*
X36050000Y-17999000D01*
X36050000Y-18000000D01*
X36051000Y-18000000D01*
X36118039Y-18019685D01*
X36163794Y-18072489D01*
X36175000Y-18124000D01*
X36175000Y-18975000D01*
X36347828Y-18975000D01*
X36347844Y-18974999D01*
X36407372Y-18968598D01*
X36407379Y-18968596D01*
X36542086Y-18918354D01*
X36542093Y-18918350D01*
X36657187Y-18832190D01*
X36657190Y-18832187D01*
X36743350Y-18717093D01*
X36743354Y-18717086D01*
X36750650Y-18697524D01*
X36792520Y-18641589D01*
X36857983Y-18617170D01*
X36926257Y-18632020D01*
X36975663Y-18681424D01*
X36984539Y-18701849D01*
X36992877Y-18727011D01*
X37015186Y-18794334D01*
X37107288Y-18943656D01*
X37231344Y-19067712D01*
X37290596Y-19104258D01*
X37337321Y-19156204D01*
X37349500Y-19209797D01*
X37349500Y-20075500D01*
X37329815Y-20142539D01*
X37277011Y-20188294D01*
X37225500Y-20199500D01*
X37171155Y-20199500D01*
X37016510Y-20230261D01*
X37016498Y-20230264D01*
X36870827Y-20290602D01*
X36870815Y-20290609D01*
X36776541Y-20353602D01*
X36709864Y-20374480D01*
X36707650Y-20374500D01*
X35749500Y-20374500D01*
X35682461Y-20354815D01*
X35636706Y-20302011D01*
X35625500Y-20250500D01*
X35625500Y-20188393D01*
X35625499Y-20188389D01*
X35616379Y-20142539D01*
X35601463Y-20067548D01*
X35554311Y-19953714D01*
X35554310Y-19953713D01*
X35554307Y-19953707D01*
X35485858Y-19851267D01*
X35485855Y-19851263D01*
X35398736Y-19764144D01*
X35398732Y-19764141D01*
X35296292Y-19695692D01*
X35296283Y-19695687D01*
X35182454Y-19648538D01*
X35182455Y-19648538D01*
X35182452Y-19648537D01*
X35182448Y-19648536D01*
X35182444Y-19648535D01*
X35061610Y-19624500D01*
X35061606Y-19624500D01*
X26311606Y-19624500D01*
X26188394Y-19624500D01*
X26188389Y-19624500D01*
X26073690Y-19647315D01*
X26004098Y-19641088D01*
X25948921Y-19598224D01*
X25925677Y-19532334D01*
X25925499Y-19525698D01*
X25925499Y-19499998D01*
X25925498Y-19499981D01*
X25914999Y-19397203D01*
X25914998Y-19397200D01*
X25895548Y-19338505D01*
X25859814Y-19230666D01*
X25767712Y-19081344D01*
X25643656Y-18957288D01*
X25494334Y-18865186D01*
X25327797Y-18810001D01*
X25327795Y-18810000D01*
X25225016Y-18799500D01*
X25225009Y-18799500D01*
X24999500Y-18799500D01*
X24932461Y-18779815D01*
X24886706Y-18727011D01*
X24875500Y-18675500D01*
X24875500Y-18522844D01*
X35300000Y-18522844D01*
X35306401Y-18582372D01*
X35306403Y-18582379D01*
X35356645Y-18717086D01*
X35356649Y-18717093D01*
X35442809Y-18832187D01*
X35442812Y-18832190D01*
X35557906Y-18918350D01*
X35557913Y-18918354D01*
X35692620Y-18968596D01*
X35692627Y-18968598D01*
X35752155Y-18974999D01*
X35752172Y-18975000D01*
X35925000Y-18975000D01*
X35925000Y-18125000D01*
X35300000Y-18125000D01*
X35300000Y-18522844D01*
X24875500Y-18522844D01*
X24875500Y-18438393D01*
X24875499Y-18438389D01*
X24851464Y-18317555D01*
X24851463Y-18317548D01*
X24804311Y-18203714D01*
X24804310Y-18203713D01*
X24804307Y-18203707D01*
X24735858Y-18101267D01*
X24735855Y-18101263D01*
X24648736Y-18014144D01*
X24648732Y-18014141D01*
X24546292Y-17945692D01*
X24546280Y-17945686D01*
X24526282Y-17937402D01*
X24471879Y-17893560D01*
X24462366Y-17876137D01*
X24462264Y-17876192D01*
X24459396Y-17870827D01*
X24459394Y-17870821D01*
X24445788Y-17850458D01*
X24371789Y-17739710D01*
X24260292Y-17628213D01*
X24260288Y-17628210D01*
X24129185Y-17540609D01*
X24129172Y-17540602D01*
X23983501Y-17480264D01*
X23983489Y-17480261D01*
X23828845Y-17449500D01*
X23828842Y-17449500D01*
X23799500Y-17449500D01*
X23790814Y-17446949D01*
X23781853Y-17448238D01*
X23757812Y-17437259D01*
X23732461Y-17429815D01*
X23726533Y-17422974D01*
X23718297Y-17419213D01*
X23704007Y-17396978D01*
X23686706Y-17377011D01*
X23684418Y-17366496D01*
X23680523Y-17360435D01*
X23675500Y-17325500D01*
X23675500Y-17299500D01*
X23695185Y-17232461D01*
X23747989Y-17186706D01*
X23799500Y-17175500D01*
X35218115Y-17175500D01*
X35285154Y-17195185D01*
G37*
G04 #@! TD.AperFunction*
G04 #@! TD*
M02*
