G04 #@! TF.GenerationSoftware,KiCad,Pcbnew,9.0.2+dfsg-1*
G04 #@! TF.CreationDate,2026-09-14T12:34:58+07:00*
G04 #@! TF.ProjectId,esp32c3_controller,65737033-3263-4335-9f63-6f6e74726f6c,rev?*
G04 #@! TF.SameCoordinates,Original*
G04 #@! TF.FileFunction,Soldermask,Bot*
G04 #@! TF.FilePolarity,Negative*
%FSLAX46Y46*%
G04 Gerber Fmt 4.6, Leading zero omitted, Abs format (unit mm)*
G04 Created by KiCad (PCBNEW 9.0.2+dfsg-1) date 2026-09-14 12:34:58*
%MOMM*%
%LPD*%
G01*
G04 APERTURE LIST*
G04 APERTURE END LIST*
G36*
X38371342Y-51288060D02*
G01*
X38484381Y-51353323D01*
X38576677Y-51445619D01*
X38641940Y-51558658D01*
X38675722Y-51684737D01*
X38680000Y-51750000D01*
X38680000Y-52350000D01*
X38675722Y-52415263D01*
X38641940Y-52541342D01*
X38576677Y-52654381D01*
X38484381Y-52746677D01*
X38371342Y-52811940D01*
X38245263Y-52845722D01*
X38114737Y-52845722D01*
X37988658Y-52811940D01*
X37875619Y-52746677D01*
X37783323Y-52654381D01*
X37718060Y-52541342D01*
X37684278Y-52415263D01*
X37680000Y-52350000D01*
X37680000Y-51750000D01*
X37684278Y-51684737D01*
X37718060Y-51558658D01*
X37783323Y-51445619D01*
X37875619Y-51353323D01*
X37988658Y-51288060D01*
X38114737Y-51254278D01*
X38245263Y-51254278D01*
X38371342Y-51288060D01*
G37*
G36*
X47011342Y-51288060D02*
G01*
X47124381Y-51353323D01*
X47216677Y-51445619D01*
X47281940Y-51558658D01*
X47315722Y-51684737D01*
X47320000Y-51750000D01*
X47320000Y-52350000D01*
X47315722Y-52415263D01*
X47281940Y-52541342D01*
X47216677Y-52654381D01*
X47124381Y-52746677D01*
X47011342Y-52811940D01*
X46885263Y-52845722D01*
X46754737Y-52845722D01*
X46628658Y-52811940D01*
X46515619Y-52746677D01*
X46423323Y-52654381D01*
X46358060Y-52541342D01*
X46324278Y-52415263D01*
X46320000Y-52350000D01*
X46320000Y-51750000D01*
X46324278Y-51684737D01*
X46358060Y-51558658D01*
X46423323Y-51445619D01*
X46515619Y-51353323D01*
X46628658Y-51288060D01*
X46754737Y-51254278D01*
X46885263Y-51254278D01*
X47011342Y-51288060D01*
G37*
G36*
X4373513Y-49444208D02*
G01*
X4612293Y-49521793D01*
X4835998Y-49635776D01*
X5039117Y-49783350D01*
X5216650Y-49960883D01*
X5364224Y-50164002D01*
X5478207Y-50387707D01*
X5555792Y-50626487D01*
X5595068Y-50874465D01*
X5595068Y-51125535D01*
X5555792Y-51373513D01*
X5478207Y-51612293D01*
X5364224Y-51835998D01*
X5216650Y-52039117D01*
X5039117Y-52216650D01*
X4835998Y-52364224D01*
X4612293Y-52478207D01*
X4373513Y-52555792D01*
X4125535Y-52595068D01*
X3874465Y-52595068D01*
X3626487Y-52555792D01*
X3387707Y-52478207D01*
X3164002Y-52364224D01*
X2960883Y-52216650D01*
X2783350Y-52039117D01*
X2635776Y-51835998D01*
X2521793Y-51612293D01*
X2444208Y-51373513D01*
X2404932Y-51125535D01*
X2404932Y-50874465D01*
X2444208Y-50626487D01*
X2521793Y-50387707D01*
X2635776Y-50164002D01*
X2783350Y-49960883D01*
X2960883Y-49783350D01*
X3164002Y-49635776D01*
X3387707Y-49521793D01*
X3626487Y-49444208D01*
X3874465Y-49404932D01*
X4125535Y-49404932D01*
X4373513Y-49444208D01*
G37*
G36*
X81373513Y-49444208D02*
G01*
X81612293Y-49521793D01*
X81835998Y-49635776D01*
X82039117Y-49783350D01*
X82216650Y-49960883D01*
X82364224Y-50164002D01*
X82478207Y-50387707D01*
X82555792Y-50626487D01*
X82595068Y-50874465D01*
X82595068Y-51125535D01*
X82555792Y-51373513D01*
X82478207Y-51612293D01*
X82364224Y-51835998D01*
X82216650Y-52039117D01*
X82039117Y-52216650D01*
X81835998Y-52364224D01*
X81612293Y-52478207D01*
X81373513Y-52555792D01*
X81125535Y-52595068D01*
X80874465Y-52595068D01*
X80626487Y-52555792D01*
X80387707Y-52478207D01*
X80164002Y-52364224D01*
X79960883Y-52216650D01*
X79783350Y-52039117D01*
X79635776Y-51835998D01*
X79521793Y-51612293D01*
X79444208Y-51373513D01*
X79404932Y-51125535D01*
X79404932Y-50874465D01*
X79444208Y-50626487D01*
X79521793Y-50387707D01*
X79635776Y-50164002D01*
X79783350Y-49960883D01*
X79960883Y-49783350D01*
X80164002Y-49635776D01*
X80387707Y-49521793D01*
X80626487Y-49444208D01*
X80874465Y-49404932D01*
X81125535Y-49404932D01*
X81373513Y-49444208D01*
G37*
G36*
X38371342Y-46858060D02*
G01*
X38484381Y-46923323D01*
X38576677Y-47015619D01*
X38641940Y-47128658D01*
X38675722Y-47254737D01*
X38680000Y-47320000D01*
X38680000Y-48420000D01*
X38675722Y-48485263D01*
X38641940Y-48611342D01*
X38576677Y-48724381D01*
X38484381Y-48816677D01*
X38371342Y-48881940D01*
X38245263Y-48915722D01*
X38114737Y-48915722D01*
X37988658Y-48881940D01*
X37875619Y-48816677D01*
X37783323Y-48724381D01*
X37718060Y-48611342D01*
X37684278Y-48485263D01*
X37680000Y-48420000D01*
X37680000Y-47320000D01*
X37684278Y-47254737D01*
X37718060Y-47128658D01*
X37783323Y-47015619D01*
X37875619Y-46923323D01*
X37988658Y-46858060D01*
X38114737Y-46824278D01*
X38245263Y-46824278D01*
X38371342Y-46858060D01*
G37*
G36*
X47011342Y-46858060D02*
G01*
X47124381Y-46923323D01*
X47216677Y-47015619D01*
X47281940Y-47128658D01*
X47315722Y-47254737D01*
X47320000Y-47320000D01*
X47320000Y-48420000D01*
X47315722Y-48485263D01*
X47281940Y-48611342D01*
X47216677Y-48724381D01*
X47124381Y-48816677D01*
X47011342Y-48881940D01*
X46885263Y-48915722D01*
X46754737Y-48915722D01*
X46628658Y-48881940D01*
X46515619Y-48816677D01*
X46423323Y-48724381D01*
X46358060Y-48611342D01*
X46324278Y-48485263D01*
X46320000Y-48420000D01*
X46320000Y-47320000D01*
X46324278Y-47254737D01*
X46358060Y-47128658D01*
X46423323Y-47015619D01*
X46515619Y-46923323D01*
X46628658Y-46858060D01*
X46754737Y-46824278D01*
X46885263Y-46824278D01*
X47011342Y-46858060D01*
G37*
G36*
X39734372Y-48099739D02*
G01*
X39807847Y-48142160D01*
X39867840Y-48202153D01*
X39910261Y-48275628D01*
X39932220Y-48357579D01*
X39932220Y-48442421D01*
X39910261Y-48524372D01*
X39867840Y-48597847D01*
X39807847Y-48657840D01*
X39734372Y-48700261D01*
X39652421Y-48722220D01*
X39567579Y-48722220D01*
X39485628Y-48700261D01*
X39412153Y-48657840D01*
X39352160Y-48597847D01*
X39309739Y-48524372D01*
X39287780Y-48442421D01*
X39287780Y-48357579D01*
X39309739Y-48275628D01*
X39352160Y-48202153D01*
X39412153Y-48142160D01*
X39485628Y-48099739D01*
X39567579Y-48077780D01*
X39652421Y-48077780D01*
X39734372Y-48099739D01*
G37*
G36*
X45514372Y-48099739D02*
G01*
X45587847Y-48142160D01*
X45647840Y-48202153D01*
X45690261Y-48275628D01*
X45712220Y-48357579D01*
X45712220Y-48442421D01*
X45690261Y-48524372D01*
X45647840Y-48597847D01*
X45587847Y-48657840D01*
X45514372Y-48700261D01*
X45432421Y-48722220D01*
X45347579Y-48722220D01*
X45265628Y-48700261D01*
X45192153Y-48657840D01*
X45132160Y-48597847D01*
X45089739Y-48524372D01*
X45067780Y-48442421D01*
X45067780Y-48357579D01*
X45089739Y-48275628D01*
X45132160Y-48202153D01*
X45192153Y-48142160D01*
X45265628Y-48099739D01*
X45347579Y-48077780D01*
X45432421Y-48077780D01*
X45514372Y-48099739D01*
G37*
G36*
X35246742Y-13806601D02*
G01*
X35400687Y-13870367D01*
X35539234Y-13962941D01*
X35657059Y-14080766D01*
X35749633Y-14219313D01*
X35813399Y-14373258D01*
X35845907Y-14536685D01*
X35845907Y-14703315D01*
X35813399Y-14866742D01*
X35749633Y-15020687D01*
X35657059Y-15159234D01*
X35539234Y-15277059D01*
X35400687Y-15369633D01*
X35246742Y-15433399D01*
X35083315Y-15465907D01*
X34916685Y-15465907D01*
X34753258Y-15433399D01*
X34599313Y-15369633D01*
X34460766Y-15277059D01*
X34342941Y-15159234D01*
X34250367Y-15020687D01*
X34186601Y-14866742D01*
X34154093Y-14703315D01*
X34154093Y-14536685D01*
X34186601Y-14373258D01*
X34250367Y-14219313D01*
X34342941Y-14080766D01*
X34460766Y-13962941D01*
X34599313Y-13870367D01*
X34753258Y-13806601D01*
X34916685Y-13774093D01*
X35083315Y-13774093D01*
X35246742Y-13806601D01*
G37*
G36*
X35246742Y-11266601D02*
G01*
X35400687Y-11330367D01*
X35539234Y-11422941D01*
X35657059Y-11540766D01*
X35749633Y-11679313D01*
X35813399Y-11833258D01*
X35845907Y-11996685D01*
X35845907Y-12163315D01*
X35813399Y-12326742D01*
X35749633Y-12480687D01*
X35657059Y-12619234D01*
X35539234Y-12737059D01*
X35400687Y-12829633D01*
X35246742Y-12893399D01*
X35083315Y-12925907D01*
X34916685Y-12925907D01*
X34753258Y-12893399D01*
X34599313Y-12829633D01*
X34460766Y-12737059D01*
X34342941Y-12619234D01*
X34250367Y-12480687D01*
X34186601Y-12326742D01*
X34154093Y-12163315D01*
X34154093Y-11996685D01*
X34186601Y-11833258D01*
X34250367Y-11679313D01*
X34342941Y-11540766D01*
X34460766Y-11422941D01*
X34599313Y-11330367D01*
X34753258Y-11266601D01*
X34916685Y-11234093D01*
X35083315Y-11234093D01*
X35246742Y-11266601D01*
G37*
G36*
X35246742Y-8726601D02*
G01*
X35400687Y-8790367D01*
X35539234Y-8882941D01*
X35657059Y-9000766D01*
X35749633Y-9139313D01*
X35813399Y-9293258D01*
X35845907Y-9456685D01*
X35845907Y-9623315D01*
X35813399Y-9786742D01*
X35749633Y-9940687D01*
X35657059Y-10079234D01*
X35539234Y-10197059D01*
X35400687Y-10289633D01*
X35246742Y-10353399D01*
X35083315Y-10385907D01*
X34916685Y-10385907D01*
X34753258Y-10353399D01*
X34599313Y-10289633D01*
X34460766Y-10197059D01*
X34342941Y-10079234D01*
X34250367Y-9940687D01*
X34186601Y-9786742D01*
X34154093Y-9623315D01*
X34154093Y-9456685D01*
X34186601Y-9293258D01*
X34250367Y-9139313D01*
X34342941Y-9000766D01*
X34460766Y-8882941D01*
X34599313Y-8790367D01*
X34753258Y-8726601D01*
X34916685Y-8694093D01*
X35083315Y-8694093D01*
X35246742Y-8726601D01*
G37*
G36*
X35850000Y-7850000D02*
G01*
X34150000Y-7850000D01*
X34150000Y-6150000D01*
X35850000Y-6150000D01*
X35850000Y-7850000D01*
G37*
G36*
X4373513Y-2444208D02*
G01*
X4612293Y-2521793D01*
X4835998Y-2635776D01*
X5039117Y-2783350D01*
X5216650Y-2960883D01*
X5364224Y-3164002D01*
X5478207Y-3387707D01*
X5555792Y-3626487D01*
X5595068Y-3874465D01*
X5595068Y-4125535D01*
X5555792Y-4373513D01*
X5478207Y-4612293D01*
X5364224Y-4835998D01*
X5216650Y-5039117D01*
X5039117Y-5216650D01*
X4835998Y-5364224D01*
X4612293Y-5478207D01*
X4373513Y-5555792D01*
X4125535Y-5595068D01*
X3874465Y-5595068D01*
X3626487Y-5555792D01*
X3387707Y-5478207D01*
X3164002Y-5364224D01*
X2960883Y-5216650D01*
X2783350Y-5039117D01*
X2635776Y-4835998D01*
X2521793Y-4612293D01*
X2444208Y-4373513D01*
X2404932Y-4125535D01*
X2404932Y-3874465D01*
X2444208Y-3626487D01*
X2521793Y-3387707D01*
X2635776Y-3164002D01*
X2783350Y-2960883D01*
X2960883Y-2783350D01*
X3164002Y-2635776D01*
X3387707Y-2521793D01*
X3626487Y-2444208D01*
X3874465Y-2404932D01*
X4125535Y-2404932D01*
X4373513Y-2444208D01*
G37*
G36*
X81373513Y-2444208D02*
G01*
X81612293Y-2521793D01*
X81835998Y-2635776D01*
X82039117Y-2783350D01*
X82216650Y-2960883D01*
X82364224Y-3164002D01*
X82478207Y-3387707D01*
X82555792Y-3626487D01*
X82595068Y-3874465D01*
X82595068Y-4125535D01*
X82555792Y-4373513D01*
X82478207Y-4612293D01*
X82364224Y-4835998D01*
X82216650Y-5039117D01*
X82039117Y-5216650D01*
X81835998Y-5364224D01*
X81612293Y-5478207D01*
X81373513Y-5555792D01*
X81125535Y-5595068D01*
X80874465Y-5595068D01*
X80626487Y-5555792D01*
X80387707Y-5478207D01*
X80164002Y-5364224D01*
X79960883Y-5216650D01*
X79783350Y-5039117D01*
X79635776Y-4835998D01*
X79521793Y-4612293D01*
X79444208Y-4373513D01*
X79404932Y-4125535D01*
X79404932Y-3874465D01*
X79444208Y-3626487D01*
X79521793Y-3387707D01*
X79635776Y-3164002D01*
X79783350Y-2960883D01*
X79960883Y-2783350D01*
X80164002Y-2635776D01*
X80387707Y-2521793D01*
X80626487Y-2444208D01*
X80874465Y-2404932D01*
X81125535Y-2404932D01*
X81373513Y-2444208D01*
G37*
M02*
