M48
; DRILL file {KiCad 9.0.2+dfsg-1} date 2026-09-14T12:34:59+0700
; FORMAT={-:-/ absolute / metric / decimal}
; #@! TF.CreationDate,2026-09-14T12:34:59+07:00
; #@! TF.GenerationSoftware,Kicad,Pcbnew,9.0.2+dfsg-1
; #@! TF.FileFunction,Plated,1,2,PTH
FMAT,2
METRIC
; #@! TA.AperFunction,Plated,PTH,ComponentDrill
T1C0.200
; #@! TA.AperFunction,Plated,PTH,ViaDrill
T2C0.300
; #@! TA.AperFunction,Plated,PTH,ComponentDrill
T3C0.600
; #@! TA.AperFunction,Plated,PTH,ComponentDrill
T4C1.000
%
G90
G05
T1
X57.86Y-25.65
X57.86Y-26.75
X58.41Y-25.1
X58.41Y-26.2
X58.41Y-27.3
X58.96Y-25.65
X58.96Y-26.75
X59.51Y-25.1
X59.51Y-26.2
X59.51Y-27.3
X60.06Y-25.65
X60.06Y-26.75
T2
X10.0Y-10.0
X10.0Y-48.0
X14.75Y-8.75
X14.75Y-20.0
X20.0Y-42.0
X23.75Y-18.25
X23.75Y-24.25
X24.85Y-46.3
X26.5Y-34.0
X30.5Y-32.5
X30.5Y-35.75
X31.5Y-24.75
X32.0Y-22.5
X32.0Y-34.25
X32.5Y-30.0
X32.75Y-35.0
X34.25Y-21.0
X34.75Y-33.5
X35.0Y-23.3
X36.5Y-38.0
X37.0Y-20.0
X37.25Y-21.0
X37.5Y-11.5
X37.5Y-48.0
X38.0Y-10.0
X38.25Y-14.75
X38.5Y-24.75
X39.25Y-27.25
X39.25Y-39.75
X39.75Y-16.75
X40.0Y-32.5
X40.05Y-47.0
X41.25Y-16.0
X42.5Y-22.0
X43.0Y-27.0
X44.0Y-28.5
X44.5Y-20.25
X44.95Y-47.0
X46.0Y-37.5
X47.5Y-48.0
X48.5Y-52.5
X50.0Y-36.5
X50.75Y-44.0
X51.0Y-37.0
X51.5Y-20.0
X51.5Y-21.5
X51.5Y-32.75
X52.25Y-23.0
X52.5Y-31.2
X55.0Y-36.0
X56.75Y-30.5
X57.0Y-32.75
X57.75Y-34.25
X57.75Y-42.5
X58.96Y-26.2
X61.5Y-24.5
X64.0Y-20.75
X64.75Y-22.25
X68.5Y-26.0
X68.75Y-22.25
X69.25Y-40.0
X70.0Y-24.0
X72.5Y-10.0
X75.0Y-48.0
T4
X35.0Y-7.0
X35.0Y-9.54
X35.0Y-12.08
X35.0Y-14.62
T3
X38.18Y-47.32G85X38.18Y-48.42
G05
X38.18Y-51.75G85X38.18Y-52.35
G05
X46.82Y-47.32G85X46.82Y-48.42
G05
X46.82Y-51.75G85X46.82Y-52.35
G05
M30
