G04 #@! TF.GenerationSoftware,KiCad,Pcbnew,9.0.2+dfsg-1*
G04 #@! TF.CreationDate,2026-09-14T12:34:58+07:00*
G04 #@! TF.ProjectId,esp32c3_controller,65737033-3263-4335-9f63-6f6e74726f6c,rev?*
G04 #@! TF.SameCoordinates,Original*
G04 #@! TF.FileFunction,Other,User*
%FSLAX46Y46*%
G04 Gerber Fmt 4.6, Leading zero omitted, Abs format (unit mm)*
G04 Created by KiCad (PCBNEW 9.0.2+dfsg-1) date 2026-09-14 12:34:58*
%MOMM*%
%LPD*%
G01*
G04 APERTURE LIST*
%ADD10C,0.050000*%
G04 APERTURE END LIST*
D10*
G04 #@! TO.C,C1*
X28300000Y-49020000D02*
X31700000Y-49020000D01*
X28300000Y-50980000D02*
X28300000Y-49020000D01*
X31700000Y-49020000D02*
X31700000Y-50980000D01*
X31700000Y-50980000D02*
X28300000Y-50980000D01*
G04 #@! TO.C,C4*
X68300000Y-47020000D02*
X71700000Y-47020000D01*
X68300000Y-48980000D02*
X68300000Y-47020000D01*
X71700000Y-47020000D02*
X71700000Y-48980000D01*
X71700000Y-48980000D02*
X68300000Y-48980000D01*
G04 #@! TO.C,U2*
X32350000Y-23350000D02*
X32350000Y-28650000D01*
X32350000Y-23350000D02*
X37650000Y-23350000D01*
X32350000Y-28650000D02*
X37650000Y-28650000D01*
X37650000Y-23350000D02*
X37650000Y-28650000D01*
G04 #@! TO.C,R1*
X33320000Y-50050000D02*
X36680000Y-50050000D01*
X33320000Y-51950000D02*
X33320000Y-50050000D01*
X36680000Y-50050000D02*
X36680000Y-51950000D01*
X36680000Y-51950000D02*
X33320000Y-51950000D01*
G04 #@! TO.C,D2*
X58320000Y-43050000D02*
X61680000Y-43050000D01*
X58320000Y-44950000D02*
X58320000Y-43050000D01*
X61680000Y-43050000D02*
X61680000Y-44950000D01*
X61680000Y-44950000D02*
X58320000Y-44950000D01*
G04 #@! TO.C,SW_RST*
X72250000Y-39200000D02*
X79750000Y-39200000D01*
X72250000Y-44800000D02*
X72250000Y-39200000D01*
X79750000Y-39200000D02*
X79750000Y-44800000D01*
X79750000Y-44800000D02*
X72250000Y-44800000D01*
G04 #@! TO.C,H4*
X7450000Y-51000000D02*
G75*
G02*
X550000Y-51000000I-3450000J0D01*
G01*
X550000Y-51000000D02*
G75*
G02*
X7450000Y-51000000I3450000J0D01*
G01*
G04 #@! TO.C,R7*
X13320000Y-6050000D02*
X16680000Y-6050000D01*
X13320000Y-7950000D02*
X13320000Y-6050000D01*
X16680000Y-6050000D02*
X16680000Y-7950000D01*
X16680000Y-7950000D02*
X13320000Y-7950000D01*
G04 #@! TO.C,C10*
X74300000Y-19020000D02*
X77700000Y-19020000D01*
X74300000Y-20980000D02*
X74300000Y-19020000D01*
X77700000Y-19020000D02*
X77700000Y-20980000D01*
X77700000Y-20980000D02*
X74300000Y-20980000D01*
G04 #@! TO.C,SW2*
X11250000Y-37200000D02*
X18750000Y-37200000D01*
X11250000Y-42800000D02*
X11250000Y-37200000D01*
X18750000Y-37200000D02*
X18750000Y-42800000D01*
X18750000Y-42800000D02*
X11250000Y-42800000D01*
G04 #@! TO.C,C6*
X7300000Y-13020000D02*
X10700000Y-13020000D01*
X7300000Y-14980000D02*
X7300000Y-13020000D01*
X10700000Y-13020000D02*
X10700000Y-14980000D01*
X10700000Y-14980000D02*
X7300000Y-14980000D01*
G04 #@! TO.C,C9*
X22300000Y-33020000D02*
X25700000Y-33020000D01*
X22300000Y-34980000D02*
X22300000Y-33020000D01*
X25700000Y-33020000D02*
X25700000Y-34980000D01*
X25700000Y-34980000D02*
X22300000Y-34980000D01*
G04 #@! TO.C,SW3*
X2250000Y-24200000D02*
X9750000Y-24200000D01*
X2250000Y-29800000D02*
X2250000Y-24200000D01*
X9750000Y-24200000D02*
X9750000Y-29800000D01*
X9750000Y-29800000D02*
X2250000Y-29800000D01*
G04 #@! TO.C,SW5*
X72250000Y-24200000D02*
X79750000Y-24200000D01*
X72250000Y-29800000D02*
X72250000Y-24200000D01*
X79750000Y-24200000D02*
X79750000Y-29800000D01*
X79750000Y-29800000D02*
X72250000Y-29800000D01*
G04 #@! TO.C,C2*
X24300000Y-37020000D02*
X27700000Y-37020000D01*
X24300000Y-38980000D02*
X24300000Y-37020000D01*
X27700000Y-37020000D02*
X27700000Y-38980000D01*
X27700000Y-38980000D02*
X24300000Y-38980000D01*
G04 #@! TO.C,J1*
X37180000Y-45730000D02*
X37180000Y-55150000D01*
X37180000Y-45730000D02*
X47820000Y-45730000D01*
X37180000Y-55150000D02*
X47820000Y-55150000D01*
X47820000Y-45730000D02*
X47820000Y-55150000D01*
G04 #@! TO.C,H2*
X84450000Y-4000000D02*
G75*
G02*
X77550000Y-4000000I-3450000J0D01*
G01*
X77550000Y-4000000D02*
G75*
G02*
X84450000Y-4000000I3450000J0D01*
G01*
G04 #@! TO.C,R6*
X72320000Y-5050000D02*
X75680000Y-5050000D01*
X72320000Y-6950000D02*
X72320000Y-5050000D01*
X75680000Y-5050000D02*
X75680000Y-6950000D01*
X75680000Y-6950000D02*
X72320000Y-6950000D01*
G04 #@! TO.C,R13*
X63320000Y-43050000D02*
X66680000Y-43050000D01*
X63320000Y-44950000D02*
X63320000Y-43050000D01*
X66680000Y-43050000D02*
X66680000Y-44950000D01*
X66680000Y-44950000D02*
X63320000Y-44950000D01*
G04 #@! TO.C,D1*
X32320000Y-37050000D02*
X35680000Y-37050000D01*
X32320000Y-38950000D02*
X32320000Y-37050000D01*
X35680000Y-37050000D02*
X35680000Y-38950000D01*
X35680000Y-38950000D02*
X32320000Y-38950000D01*
G04 #@! TO.C,C11*
X35300000Y-17020000D02*
X38700000Y-17020000D01*
X35300000Y-18980000D02*
X35300000Y-17020000D01*
X38700000Y-17020000D02*
X38700000Y-18980000D01*
X38700000Y-18980000D02*
X35300000Y-18980000D01*
G04 #@! TO.C,SW1*
X11250000Y-11200000D02*
X18750000Y-11200000D01*
X11250000Y-16800000D02*
X11250000Y-11200000D01*
X18750000Y-11200000D02*
X18750000Y-16800000D01*
X18750000Y-16800000D02*
X11250000Y-16800000D01*
G04 #@! TO.C,C3*
X33300000Y-31020000D02*
X36700000Y-31020000D01*
X33300000Y-32980000D02*
X33300000Y-31020000D01*
X36700000Y-31020000D02*
X36700000Y-32980000D01*
X36700000Y-32980000D02*
X33300000Y-32980000D01*
G04 #@! TO.C,R10*
X22320000Y-19050000D02*
X25680000Y-19050000D01*
X22320000Y-20950000D02*
X22320000Y-19050000D01*
X25680000Y-19050000D02*
X25680000Y-20950000D01*
X25680000Y-20950000D02*
X22320000Y-20950000D01*
G04 #@! TO.C,R2*
X48320000Y-50050000D02*
X51680000Y-50050000D01*
X48320000Y-51950000D02*
X48320000Y-50050000D01*
X51680000Y-50050000D02*
X51680000Y-51950000D01*
X51680000Y-51950000D02*
X48320000Y-51950000D01*
G04 #@! TO.C,R8*
X13320000Y-46050000D02*
X16680000Y-46050000D01*
X13320000Y-47950000D02*
X13320000Y-46050000D01*
X16680000Y-46050000D02*
X16680000Y-47950000D01*
X16680000Y-47950000D02*
X13320000Y-47950000D01*
G04 #@! TO.C,C12*
X53300000Y-43020000D02*
X56700000Y-43020000D01*
X53300000Y-44980000D02*
X53300000Y-43020000D01*
X56700000Y-43020000D02*
X56700000Y-44980000D01*
X56700000Y-44980000D02*
X53300000Y-44980000D01*
G04 #@! TO.C,C5*
X39300000Y-21020000D02*
X42700000Y-21020000D01*
X39300000Y-22980000D02*
X39300000Y-21020000D01*
X42700000Y-21020000D02*
X42700000Y-22980000D01*
X42700000Y-22980000D02*
X39300000Y-22980000D01*
G04 #@! TO.C,H1*
X7450000Y-4000000D02*
G75*
G02*
X550000Y-4000000I-3450000J0D01*
G01*
X550000Y-4000000D02*
G75*
G02*
X7450000Y-4000000I3450000J0D01*
G01*
G04 #@! TO.C,SW_BOOT*
X74250000Y-9200000D02*
X81750000Y-9200000D01*
X74250000Y-14800000D02*
X74250000Y-9200000D01*
X81750000Y-9200000D02*
X81750000Y-14800000D01*
X81750000Y-14800000D02*
X74250000Y-14800000D01*
G04 #@! TO.C,J2*
X33230000Y-5230000D02*
X33230000Y-16390000D01*
X33230000Y-16390000D02*
X36770000Y-16390000D01*
X36770000Y-5230000D02*
X33230000Y-5230000D01*
X36770000Y-16390000D02*
X36770000Y-5230000D01*
G04 #@! TO.C,R4*
X39320000Y-13050000D02*
X42680000Y-13050000D01*
X39320000Y-14950000D02*
X39320000Y-13050000D01*
X42680000Y-13050000D02*
X42680000Y-14950000D01*
X42680000Y-14950000D02*
X39320000Y-14950000D01*
G04 #@! TO.C,H3*
X84450000Y-51000000D02*
G75*
G02*
X77550000Y-51000000I-3450000J0D01*
G01*
X77550000Y-51000000D02*
G75*
G02*
X84450000Y-51000000I3450000J0D01*
G01*
G04 #@! TO.C,R3*
X39320000Y-9050000D02*
X42680000Y-9050000D01*
X39320000Y-10950000D02*
X39320000Y-9050000D01*
X42680000Y-9050000D02*
X42680000Y-10950000D01*
X42680000Y-10950000D02*
X39320000Y-10950000D01*
G04 #@! TO.C,U3*
X23600000Y-40400000D02*
X23600000Y-47600000D01*
X23600000Y-47600000D02*
X32400000Y-47600000D01*
X32400000Y-40400000D02*
X23600000Y-40400000D01*
X32400000Y-47600000D02*
X32400000Y-40400000D01*
G04 #@! TO.C,C8*
X4300000Y-33020000D02*
X7700000Y-33020000D01*
X4300000Y-34980000D02*
X4300000Y-33020000D01*
X7700000Y-33020000D02*
X7700000Y-34980000D01*
X7700000Y-34980000D02*
X4300000Y-34980000D01*
G04 #@! TO.C,SW4*
X20250000Y-24200000D02*
X27750000Y-24200000D01*
X20250000Y-29800000D02*
X20250000Y-24200000D01*
X27750000Y-24200000D02*
X27750000Y-29800000D01*
X27750000Y-29800000D02*
X20250000Y-29800000D01*
G04 #@! TO.C,C7*
X7300000Y-39020000D02*
X10700000Y-39020000D01*
X7300000Y-40980000D02*
X7300000Y-39020000D01*
X10700000Y-39020000D02*
X10700000Y-40980000D01*
X10700000Y-40980000D02*
X7300000Y-40980000D01*
G04 #@! TO.C,R11*
X74320000Y-33050000D02*
X77680000Y-33050000D01*
X74320000Y-34950000D02*
X74320000Y-33050000D01*
X77680000Y-33050000D02*
X77680000Y-34950000D01*
X77680000Y-34950000D02*
X74320000Y-34950000D01*
G04 #@! TO.C,R9*
X4320000Y-19050000D02*
X7680000Y-19050000D01*
X4320000Y-20950000D02*
X4320000Y-19050000D01*
X7680000Y-19050000D02*
X7680000Y-20950000D01*
X7680000Y-20950000D02*
X4320000Y-20950000D01*
G04 #@! TO.C,R5*
X69320000Y-36050000D02*
X72680000Y-36050000D01*
X69320000Y-37950000D02*
X69320000Y-36050000D01*
X72680000Y-36050000D02*
X72680000Y-37950000D01*
X72680000Y-37950000D02*
X69320000Y-37950000D01*
G04 #@! TO.C,U1*
X43750000Y-7650000D02*
X43750000Y-19150000D01*
X43750000Y-7650000D02*
X72250000Y-7650000D01*
X43750000Y-19150000D02*
X48250000Y-19150000D01*
X48250000Y-33150000D02*
X48250000Y-19150000D01*
X48250000Y-33150000D02*
X67750000Y-33150000D01*
X67750000Y-19150000D02*
X67750000Y-33150000D01*
X67750000Y-19150000D02*
X72250000Y-19150000D01*
X72250000Y-7650000D02*
X72250000Y-19150000D01*
G04 #@! TO.C,R12*
X37320000Y-37050000D02*
X40680000Y-37050000D01*
X37320000Y-38950000D02*
X37320000Y-37050000D01*
X40680000Y-37050000D02*
X40680000Y-38950000D01*
X40680000Y-38950000D02*
X37320000Y-38950000D01*
G04 #@! TD*
M02*
