G04 #@! TF.GenerationSoftware,KiCad,Pcbnew,9.0.2+dfsg-1*
G04 #@! TF.CreationDate,2026-09-14T13:27:15+07:00*
G04 #@! TF.ProjectId,keyboard_555,6b657962-6f61-4726-945f-3535352e6b69,rev?*
G04 #@! TF.SameCoordinates,Original*
G04 #@! TF.FileFunction,Copper,L2,Bot*
G04 #@! TF.FilePolarity,Positive*
%FSLAX46Y46*%
G04 Gerber Fmt 4.6, Leading zero omitted, Abs format (unit mm)*
G04 Created by KiCad (PCBNEW 9.0.2+dfsg-1) date 2026-09-14 13:27:15*
%MOMM*%
%LPD*%
G01*
G04 APERTURE LIST*
G04 Aperture macros list*
%AMRoundRect*
0 Rectangle with rounded corners*
0 $1 Rounding radius*
0 $2 $3 $4 $5 $6 $7 $8 $9 X,Y pos of 4 corners*
0 Add a 4 corners polygon primitive as box body*
4,1,4,$2,$3,$4,$5,$6,$7,$8,$9,$2,$3,0*
0 Add four circle primitives for the rounded corners*
1,1,$1+$1,$2,$3*
1,1,$1+$1,$4,$5*
1,1,$1+$1,$6,$7*
1,1,$1+$1,$8,$9*
0 Add four rect primitives between the rounded corners*
20,1,$1+$1,$2,$3,$4,$5,0*
20,1,$1+$1,$4,$5,$6,$7,0*
20,1,$1+$1,$6,$7,$8,$9,0*
20,1,$1+$1,$8,$9,$2,$3,0*%
G04 Aperture macros list end*
G04 #@! TA.AperFunction,ComponentPad*
%ADD10C,1.600000*%
G04 #@! TD*
G04 #@! TA.AperFunction,ComponentPad*
%ADD11C,2.000000*%
G04 #@! TD*
G04 #@! TA.AperFunction,ComponentPad*
%ADD12R,2.000000X2.000000*%
G04 #@! TD*
G04 #@! TA.AperFunction,ComponentPad*
%ADD13C,1.440000*%
G04 #@! TD*
G04 #@! TA.AperFunction,ComponentPad*
%ADD14R,1.800000X1.800000*%
G04 #@! TD*
G04 #@! TA.AperFunction,ComponentPad*
%ADD15C,1.800000*%
G04 #@! TD*
G04 #@! TA.AperFunction,ComponentPad*
%ADD16O,2.200000X3.500000*%
G04 #@! TD*
G04 #@! TA.AperFunction,ComponentPad*
%ADD17R,1.500000X2.500000*%
G04 #@! TD*
G04 #@! TA.AperFunction,ComponentPad*
%ADD18O,1.500000X2.500000*%
G04 #@! TD*
G04 #@! TA.AperFunction,HeatsinkPad*
%ADD19O,2.100000X1.000000*%
G04 #@! TD*
G04 #@! TA.AperFunction,HeatsinkPad*
%ADD20O,1.600000X1.000000*%
G04 #@! TD*
G04 #@! TA.AperFunction,ComponentPad*
%ADD21RoundRect,0.250000X-0.550000X-0.550000X0.550000X-0.550000X0.550000X0.550000X-0.550000X0.550000X0*%
G04 #@! TD*
G04 #@! TA.AperFunction,ViaPad*
%ADD22C,0.600000*%
G04 #@! TD*
G04 #@! TA.AperFunction,Conductor*
%ADD23C,0.350000*%
G04 #@! TD*
G04 #@! TA.AperFunction,Conductor*
%ADD24C,0.250000*%
G04 #@! TD*
G04 #@! TA.AperFunction,Conductor*
%ADD25C,0.300000*%
G04 #@! TD*
G04 APERTURE END LIST*
D10*
G04 #@! TO.P,R4,1*
G04 #@! TO.N,DISCH*
X46190000Y-24500000D03*
G04 #@! TO.P,R4,2*
G04 #@! TO.N,NOTE_F*
X53810000Y-24500000D03*
G04 #@! TD*
G04 #@! TO.P,C1,1*
G04 #@! TO.N,TRIG_THRES*
X39500000Y-14000000D03*
G04 #@! TO.P,C1,2*
G04 #@! TO.N,GND*
X37000000Y-14000000D03*
G04 #@! TD*
G04 #@! TO.P,R1,1*
G04 #@! TO.N,DISCH*
X10190000Y-24500000D03*
G04 #@! TO.P,R1,2*
G04 #@! TO.N,NOTE_C*
X17810000Y-24500000D03*
G04 #@! TD*
D11*
G04 #@! TO.P,SW1,1*
G04 #@! TO.N,NOTE_C*
X10750000Y-35000000D03*
X17250000Y-35000000D03*
G04 #@! TO.P,SW1,2*
G04 #@! TO.N,TRIG_THRES*
X10750000Y-39500000D03*
X17250000Y-39500000D03*
G04 #@! TD*
D12*
G04 #@! TO.P,BZ1,1*
G04 #@! TO.N,AUDIO_VOL*
X73500000Y-10500000D03*
D11*
G04 #@! TO.P,BZ1,2*
G04 #@! TO.N,GND*
X81100000Y-10500000D03*
G04 #@! TD*
G04 #@! TO.P,SW5,1*
G04 #@! TO.N,NOTE_G*
X58750000Y-35000000D03*
X65250000Y-35000000D03*
G04 #@! TO.P,SW5,2*
G04 #@! TO.N,TRIG_THRES*
X58750000Y-39500000D03*
X65250000Y-39500000D03*
G04 #@! TD*
G04 #@! TO.P,SW2,1*
G04 #@! TO.N,NOTE_D*
X22750000Y-35000000D03*
X29250000Y-35000000D03*
G04 #@! TO.P,SW2,2*
G04 #@! TO.N,TRIG_THRES*
X22750000Y-39500000D03*
X29250000Y-39500000D03*
G04 #@! TD*
D10*
G04 #@! TO.P,R_PWR,1*
G04 #@! TO.N,+5V*
X25000000Y-13500000D03*
G04 #@! TO.P,R_PWR,2*
G04 #@! TO.N,PWR_LED*
X32620000Y-13500000D03*
G04 #@! TD*
G04 #@! TO.P,R_A,1*
G04 #@! TO.N,+5V*
X44500000Y-3500000D03*
G04 #@! TO.P,R_A,2*
G04 #@! TO.N,DISCH*
X52120000Y-3500000D03*
G04 #@! TD*
D13*
G04 #@! TO.P,RV1,1*
G04 #@! TO.N,AUDIO_AC*
X65500000Y-8150000D03*
G04 #@! TO.P,RV1,2*
G04 #@! TO.N,AUDIO_VOL*
X68040000Y-5610000D03*
G04 #@! TO.P,RV1,3*
G04 #@! TO.N,GND*
X65500000Y-3070000D03*
G04 #@! TD*
D14*
G04 #@! TO.P,D_PWR,1*
G04 #@! TO.N,GND*
X30000000Y-5000000D03*
D15*
G04 #@! TO.P,D_PWR,2*
G04 #@! TO.N,PWR_LED*
X32540000Y-5000000D03*
G04 #@! TD*
D16*
G04 #@! TO.P,SW_PWR,*
G04 #@! TO.N,*
X17900000Y-9000000D03*
X26100000Y-9000000D03*
D17*
G04 #@! TO.P,SW_PWR,1*
G04 #@! TO.N,N/C*
X20000000Y-9000000D03*
D18*
G04 #@! TO.P,SW_PWR,2*
G04 #@! TO.N,+5V*
X22000000Y-9000000D03*
G04 #@! TO.P,SW_PWR,3*
G04 #@! TO.N,+5V_RAW*
X24000000Y-9000000D03*
G04 #@! TD*
D19*
G04 #@! TO.P,J1,S1*
G04 #@! TO.N,GND*
X7430000Y-4680000D03*
D20*
X3250000Y-4680000D03*
D19*
X7430000Y-13320000D03*
D20*
X3250000Y-13320000D03*
G04 #@! TD*
D11*
G04 #@! TO.P,SW4,1*
G04 #@! TO.N,NOTE_F*
X46750000Y-35000000D03*
X53250000Y-35000000D03*
G04 #@! TO.P,SW4,2*
G04 #@! TO.N,TRIG_THRES*
X46750000Y-39500000D03*
X53250000Y-39500000D03*
G04 #@! TD*
G04 #@! TO.P,SW3,1*
G04 #@! TO.N,NOTE_E*
X34750000Y-35000000D03*
X41250000Y-35000000D03*
G04 #@! TO.P,SW3,2*
G04 #@! TO.N,TRIG_THRES*
X34750000Y-39500000D03*
X41250000Y-39500000D03*
G04 #@! TD*
D21*
G04 #@! TO.P,C_OUT,1*
G04 #@! TO.N,AUDIO_OUT*
X57000000Y-14500000D03*
D10*
G04 #@! TO.P,C_OUT,2*
G04 #@! TO.N,AUDIO_AC*
X59500000Y-14500000D03*
G04 #@! TD*
D11*
G04 #@! TO.P,SW6,1*
G04 #@! TO.N,NOTE_A*
X70750000Y-35000000D03*
X77250000Y-35000000D03*
G04 #@! TO.P,SW6,2*
G04 #@! TO.N,TRIG_THRES*
X70750000Y-39500000D03*
X77250000Y-39500000D03*
G04 #@! TD*
D10*
G04 #@! TO.P,R2,1*
G04 #@! TO.N,DISCH*
X22190000Y-24500000D03*
G04 #@! TO.P,R2,2*
G04 #@! TO.N,NOTE_D*
X29810000Y-24500000D03*
G04 #@! TD*
D21*
G04 #@! TO.P,C_PWR,1*
G04 #@! TO.N,+5V*
X37000000Y-6000000D03*
D10*
G04 #@! TO.P,C_PWR,2*
G04 #@! TO.N,GND*
X39500000Y-6000000D03*
G04 #@! TD*
G04 #@! TO.P,R3,1*
G04 #@! TO.N,DISCH*
X34190000Y-24500000D03*
G04 #@! TO.P,R3,2*
G04 #@! TO.N,NOTE_E*
X41810000Y-24500000D03*
G04 #@! TD*
G04 #@! TO.P,R6,1*
G04 #@! TO.N,DISCH*
X70190000Y-24500000D03*
G04 #@! TO.P,R6,2*
G04 #@! TO.N,NOTE_A*
X77810000Y-24500000D03*
G04 #@! TD*
G04 #@! TO.P,R7,1*
G04 #@! TO.N,DISCH*
X82190000Y-24500000D03*
G04 #@! TO.P,R7,2*
G04 #@! TO.N,NOTE_B*
X89810000Y-24500000D03*
G04 #@! TD*
D21*
G04 #@! TO.P,U1,1*
G04 #@! TO.N,GND*
X44500000Y-8500000D03*
D10*
G04 #@! TO.P,U1,2*
G04 #@! TO.N,TRIG_THRES*
X44500000Y-11040000D03*
G04 #@! TO.P,U1,3*
G04 #@! TO.N,AUDIO_OUT*
X44500000Y-13580000D03*
G04 #@! TO.P,U1,4*
G04 #@! TO.N,+5V*
X44500000Y-16120000D03*
G04 #@! TO.P,U1,5*
G04 #@! TO.N,CV*
X52120000Y-16120000D03*
G04 #@! TO.P,U1,6*
G04 #@! TO.N,TRIG_THRES*
X52120000Y-13580000D03*
G04 #@! TO.P,U1,7*
G04 #@! TO.N,DISCH*
X52120000Y-11040000D03*
G04 #@! TO.P,U1,8*
G04 #@! TO.N,+5V*
X52120000Y-8500000D03*
G04 #@! TD*
G04 #@! TO.P,C2,1*
G04 #@! TO.N,CV*
X54000000Y-19500000D03*
G04 #@! TO.P,C2,2*
G04 #@! TO.N,GND*
X56500000Y-19500000D03*
G04 #@! TD*
D11*
G04 #@! TO.P,SW7,1*
G04 #@! TO.N,NOTE_B*
X82750000Y-35000000D03*
X89250000Y-35000000D03*
G04 #@! TO.P,SW7,2*
G04 #@! TO.N,TRIG_THRES*
X82750000Y-39500000D03*
X89250000Y-39500000D03*
G04 #@! TD*
D10*
G04 #@! TO.P,R5,1*
G04 #@! TO.N,DISCH*
X58190000Y-24500000D03*
G04 #@! TO.P,R5,2*
G04 #@! TO.N,NOTE_G*
X65810000Y-24500000D03*
G04 #@! TD*
D22*
G04 #@! TO.N,GND*
X56000000Y-46500000D03*
X80000000Y-46500000D03*
X85000000Y-2500000D03*
X68000000Y-46500000D03*
X16500000Y-10750000D03*
X20000000Y-46500000D03*
X44000000Y-46500000D03*
X15000000Y-7750000D03*
X32000000Y-2500000D03*
X32000000Y-46500000D03*
X18000000Y-2500000D03*
G04 #@! TO.N,+5V_RAW*
X10000000Y-4000000D03*
X10000000Y-11450000D03*
G04 #@! TD*
D23*
G04 #@! TO.N,+5V_RAW*
X10000000Y-4000000D02*
X24000000Y-4000000D01*
X10000000Y-11450000D02*
X10000000Y-4000000D01*
X24000000Y-4000000D02*
X24000000Y-9000000D01*
G04 #@! TO.N,+5V*
X22000000Y-9000000D02*
X22000000Y-16120000D01*
X22000000Y-16120000D02*
X44500000Y-16120000D01*
D24*
G04 #@! TO.N,TRIG_THRES*
X48310000Y-13580000D02*
X52120000Y-13580000D01*
X44500000Y-11040000D02*
X48310000Y-11040000D01*
X48310000Y-11040000D02*
X48310000Y-13580000D01*
D25*
G04 #@! TO.N,AUDIO_OUT*
X57000000Y-1500000D02*
X57000000Y-14500000D01*
D24*
X43000000Y-1500000D02*
X57000000Y-1500000D01*
X43000000Y-13580000D02*
X43000000Y-1500000D01*
X44500000Y-13580000D02*
X43000000Y-13580000D01*
G04 #@! TD*
G04 #@! TA.AperFunction,Conductor*
G04 #@! TO.N,GND*
G36*
X42416857Y-1019685D02*
G01*
X42462612Y-1072489D01*
X42472556Y-1141647D01*
X42452920Y-1192891D01*
X42445692Y-1203707D01*
X42445687Y-1203716D01*
X42398538Y-1317545D01*
X42398535Y-1317555D01*
X42374500Y-1438389D01*
X42374500Y-13641610D01*
X42398535Y-13762444D01*
X42398538Y-13762454D01*
X42445687Y-13876283D01*
X42445692Y-13876292D01*
X42514141Y-13978732D01*
X42514144Y-13978736D01*
X42601263Y-14065855D01*
X42601267Y-14065858D01*
X42703707Y-14134307D01*
X42703713Y-14134310D01*
X42703714Y-14134311D01*
X42817548Y-14181463D01*
X42938389Y-14205499D01*
X42938393Y-14205500D01*
X42938394Y-14205500D01*
X43283885Y-14205500D01*
X43350924Y-14225185D01*
X43383606Y-14258571D01*
X43384849Y-14257669D01*
X43508028Y-14427213D01*
X43652786Y-14571971D01*
X43803335Y-14681349D01*
X43818390Y-14692287D01*
X43909840Y-14738883D01*
X43911080Y-14739515D01*
X43961876Y-14787490D01*
X43978671Y-14855311D01*
X43956134Y-14921446D01*
X43911080Y-14960485D01*
X43818386Y-15007715D01*
X43652786Y-15128028D01*
X43508030Y-15272784D01*
X43420412Y-15393384D01*
X43365082Y-15436051D01*
X43320093Y-15444500D01*
X40044936Y-15444500D01*
X39977897Y-15424815D01*
X39932142Y-15372011D01*
X39922198Y-15302853D01*
X39951223Y-15239297D01*
X39995022Y-15207715D01*
X39994878Y-15207432D01*
X39996709Y-15206498D01*
X39997490Y-15205936D01*
X39999212Y-15205222D01*
X39999219Y-15205220D01*
X40181610Y-15112287D01*
X40274590Y-15044732D01*
X40347213Y-14991971D01*
X40347215Y-14991968D01*
X40347219Y-14991966D01*
X40491966Y-14847219D01*
X40491968Y-14847215D01*
X40491971Y-14847213D01*
X40570217Y-14739515D01*
X40612287Y-14681610D01*
X40705220Y-14499219D01*
X40768477Y-14304534D01*
X40800500Y-14102352D01*
X40800500Y-13897648D01*
X40798423Y-13884534D01*
X40768477Y-13695465D01*
X40737458Y-13600000D01*
X40705220Y-13500781D01*
X40705218Y-13500778D01*
X40705218Y-13500776D01*
X40647610Y-13387715D01*
X40612287Y-13318390D01*
X40595134Y-13294781D01*
X40491971Y-13152786D01*
X40347213Y-13008028D01*
X40181613Y-12887715D01*
X40181612Y-12887714D01*
X40181610Y-12887713D01*
X40124653Y-12858691D01*
X39999223Y-12794781D01*
X39804534Y-12731522D01*
X39629995Y-12703878D01*
X39602352Y-12699500D01*
X39397648Y-12699500D01*
X39373329Y-12703351D01*
X39195465Y-12731522D01*
X39000776Y-12794781D01*
X38818386Y-12887715D01*
X38652786Y-13008028D01*
X38508028Y-13152786D01*
X38387714Y-13318386D01*
X38360203Y-13372379D01*
X38312227Y-13423174D01*
X38244406Y-13439968D01*
X38178272Y-13417429D01*
X38139234Y-13372376D01*
X38111861Y-13318652D01*
X38079474Y-13274077D01*
X38079474Y-13274076D01*
X37400000Y-13953551D01*
X37400000Y-13947339D01*
X37372741Y-13845606D01*
X37320080Y-13754394D01*
X37245606Y-13679920D01*
X37154394Y-13627259D01*
X37052661Y-13600000D01*
X37046446Y-13600000D01*
X37725922Y-12920524D01*
X37725921Y-12920523D01*
X37681359Y-12888147D01*
X37681350Y-12888141D01*
X37499031Y-12795244D01*
X37304417Y-12732009D01*
X37102317Y-12700000D01*
X36897683Y-12700000D01*
X36695582Y-12732009D01*
X36500968Y-12795244D01*
X36318644Y-12888143D01*
X36274077Y-12920523D01*
X36274077Y-12920524D01*
X36953554Y-13600000D01*
X36947339Y-13600000D01*
X36845606Y-13627259D01*
X36754394Y-13679920D01*
X36679920Y-13754394D01*
X36627259Y-13845606D01*
X36600000Y-13947339D01*
X36600000Y-13953553D01*
X35920524Y-13274077D01*
X35920523Y-13274077D01*
X35888143Y-13318644D01*
X35795244Y-13500968D01*
X35732009Y-13695582D01*
X35700000Y-13897682D01*
X35700000Y-14102317D01*
X35732009Y-14304417D01*
X35795244Y-14499031D01*
X35888141Y-14681350D01*
X35888147Y-14681359D01*
X35920523Y-14725921D01*
X35920524Y-14725922D01*
X36600000Y-14046446D01*
X36600000Y-14052661D01*
X36627259Y-14154394D01*
X36679920Y-14245606D01*
X36754394Y-14320080D01*
X36845606Y-14372741D01*
X36947339Y-14400000D01*
X36953553Y-14400000D01*
X36274076Y-15079474D01*
X36318650Y-15111859D01*
X36500970Y-15204756D01*
X36503820Y-15205936D01*
X36504737Y-15206675D01*
X36505314Y-15206969D01*
X36505252Y-15207090D01*
X36558226Y-15249774D01*
X36580295Y-15316066D01*
X36563020Y-15383767D01*
X36511885Y-15431380D01*
X36456374Y-15444500D01*
X22799500Y-15444500D01*
X22732461Y-15424815D01*
X22686706Y-15372011D01*
X22675500Y-15320500D01*
X22675500Y-13397648D01*
X23699500Y-13397648D01*
X23699500Y-13602351D01*
X23731522Y-13804534D01*
X23794781Y-13999223D01*
X23828734Y-14065858D01*
X23887638Y-14181463D01*
X23887715Y-14181613D01*
X24008028Y-14347213D01*
X24152786Y-14491971D01*
X24307749Y-14604556D01*
X24318390Y-14612287D01*
X24434607Y-14671503D01*
X24500776Y-14705218D01*
X24500778Y-14705218D01*
X24500781Y-14705220D01*
X24605137Y-14739127D01*
X24695465Y-14768477D01*
X24759095Y-14778555D01*
X24897648Y-14800500D01*
X24897649Y-14800500D01*
X25102351Y-14800500D01*
X25102352Y-14800500D01*
X25304534Y-14768477D01*
X25499219Y-14705220D01*
X25681610Y-14612287D01*
X25837231Y-14499223D01*
X25847213Y-14491971D01*
X25847215Y-14491968D01*
X25847219Y-14491966D01*
X25991966Y-14347219D01*
X25991968Y-14347215D01*
X25991971Y-14347213D01*
X26057027Y-14257669D01*
X26112287Y-14181610D01*
X26205220Y-13999219D01*
X26268477Y-13804534D01*
X26300500Y-13602352D01*
X26300500Y-13397648D01*
X31319500Y-13397648D01*
X31319500Y-13602351D01*
X31351522Y-13804534D01*
X31414781Y-13999223D01*
X31448734Y-14065858D01*
X31507638Y-14181463D01*
X31507715Y-14181613D01*
X31628028Y-14347213D01*
X31772786Y-14491971D01*
X31927749Y-14604556D01*
X31938390Y-14612287D01*
X32054607Y-14671503D01*
X32120776Y-14705218D01*
X32120778Y-14705218D01*
X32120781Y-14705220D01*
X32225137Y-14739127D01*
X32315465Y-14768477D01*
X32379095Y-14778555D01*
X32517648Y-14800500D01*
X32517649Y-14800500D01*
X32722351Y-14800500D01*
X32722352Y-14800500D01*
X32924534Y-14768477D01*
X33119219Y-14705220D01*
X33301610Y-14612287D01*
X33457231Y-14499223D01*
X33467213Y-14491971D01*
X33467215Y-14491968D01*
X33467219Y-14491966D01*
X33611966Y-14347219D01*
X33611968Y-14347215D01*
X33611971Y-14347213D01*
X33677027Y-14257669D01*
X33732287Y-14181610D01*
X33825220Y-13999219D01*
X33888477Y-13804534D01*
X33920500Y-13602352D01*
X33920500Y-13397648D01*
X33888477Y-13195466D01*
X33825220Y-13000781D01*
X33732287Y-12818390D01*
X33715134Y-12794781D01*
X33611971Y-12652786D01*
X33467213Y-12508028D01*
X33301613Y-12387715D01*
X33301612Y-12387714D01*
X33301610Y-12387713D01*
X33228599Y-12350512D01*
X33119223Y-12294781D01*
X32924534Y-12231522D01*
X32749995Y-12203878D01*
X32722352Y-12199500D01*
X32517648Y-12199500D01*
X32493329Y-12203351D01*
X32315465Y-12231522D01*
X32120776Y-12294781D01*
X31938386Y-12387715D01*
X31772786Y-12508028D01*
X31628028Y-12652786D01*
X31507715Y-12818386D01*
X31414781Y-13000776D01*
X31351522Y-13195465D01*
X31319500Y-13397648D01*
X26300500Y-13397648D01*
X26268477Y-13195466D01*
X26254609Y-13152786D01*
X26238475Y-13103130D01*
X26205220Y-13000781D01*
X26205218Y-13000777D01*
X26205218Y-13000776D01*
X26155057Y-12902331D01*
X26112287Y-12818390D01*
X26095134Y-12794781D01*
X25991971Y-12652786D01*
X25847213Y-12508028D01*
X25681613Y-12387715D01*
X25681612Y-12387714D01*
X25681610Y-12387713D01*
X25608599Y-12350512D01*
X25499223Y-12294781D01*
X25304534Y-12231522D01*
X25129995Y-12203878D01*
X25102352Y-12199500D01*
X24897648Y-12199500D01*
X24873329Y-12203351D01*
X24695465Y-12231522D01*
X24500776Y-12294781D01*
X24318386Y-12387715D01*
X24152786Y-12508028D01*
X24008028Y-12652786D01*
X23887715Y-12818386D01*
X23794781Y-13000776D01*
X23731522Y-13195465D01*
X23699500Y-13397648D01*
X22675500Y-13397648D01*
X22675500Y-10618105D01*
X22695185Y-10551066D01*
X22726614Y-10517787D01*
X22814646Y-10453828D01*
X22912319Y-10356155D01*
X22973642Y-10322670D01*
X23043334Y-10327654D01*
X23087681Y-10356155D01*
X23185354Y-10453828D01*
X23344595Y-10569524D01*
X23408869Y-10602273D01*
X23519970Y-10658882D01*
X23519972Y-10658882D01*
X23519975Y-10658884D01*
X23588373Y-10681108D01*
X23707173Y-10719709D01*
X23901578Y-10750500D01*
X23901583Y-10750500D01*
X24098422Y-10750500D01*
X24292826Y-10719709D01*
X24372574Y-10693797D01*
X24480025Y-10658884D01*
X24655405Y-10569524D01*
X24655409Y-10569520D01*
X24659087Y-10567647D01*
X24727756Y-10554751D01*
X24792497Y-10581027D01*
X24815699Y-10605245D01*
X24879207Y-10692656D01*
X24879209Y-10692658D01*
X25057345Y-10870794D01*
X25057350Y-10870798D01*
X25205443Y-10978393D01*
X25261155Y-11018870D01*
X25404184Y-11091747D01*
X25485616Y-11133239D01*
X25485618Y-11133239D01*
X25485621Y-11133241D01*
X25725215Y-11211090D01*
X25974038Y-11250500D01*
X25974039Y-11250500D01*
X26225961Y-11250500D01*
X26225962Y-11250500D01*
X26474785Y-11211090D01*
X26714379Y-11133241D01*
X26938845Y-11018870D01*
X27142656Y-10870793D01*
X27320793Y-10692656D01*
X27468870Y-10488845D01*
X27583241Y-10264379D01*
X27661090Y-10024785D01*
X27700500Y-9775962D01*
X27700500Y-8224038D01*
X27661090Y-7975215D01*
X27583241Y-7735621D01*
X27583239Y-7735618D01*
X27583239Y-7735616D01*
X27529870Y-7630875D01*
X27468870Y-7511155D01*
X27446426Y-7480263D01*
X27320798Y-7307350D01*
X27320794Y-7307345D01*
X27142654Y-7129205D01*
X27142649Y-7129201D01*
X26938848Y-6981132D01*
X26938847Y-6981131D01*
X26938845Y-6981130D01*
X26868747Y-6945413D01*
X26714383Y-6866760D01*
X26474785Y-6788910D01*
X26225962Y-6749500D01*
X25974038Y-6749500D01*
X25849626Y-6769205D01*
X25725214Y-6788910D01*
X25485616Y-6866760D01*
X25261151Y-6981132D01*
X25057350Y-7129201D01*
X25057345Y-7129205D01*
X24887181Y-7299370D01*
X24825858Y-7332855D01*
X24756166Y-7327871D01*
X24700233Y-7285999D01*
X24675816Y-7220535D01*
X24675500Y-7211689D01*
X24675500Y-4052155D01*
X28600000Y-4052155D01*
X28600000Y-4750000D01*
X29624722Y-4750000D01*
X29580667Y-4826306D01*
X29550000Y-4940756D01*
X29550000Y-5059244D01*
X29580667Y-5173694D01*
X29624722Y-5250000D01*
X28600000Y-5250000D01*
X28600000Y-5947844D01*
X28606401Y-6007372D01*
X28606403Y-6007379D01*
X28656645Y-6142086D01*
X28656649Y-6142093D01*
X28742809Y-6257187D01*
X28742812Y-6257190D01*
X28857906Y-6343350D01*
X28857913Y-6343354D01*
X28992620Y-6393596D01*
X28992627Y-6393598D01*
X29052155Y-6399999D01*
X29052172Y-6400000D01*
X29750000Y-6400000D01*
X29750000Y-5375277D01*
X29826306Y-5419333D01*
X29940756Y-5450000D01*
X30059244Y-5450000D01*
X30173694Y-5419333D01*
X30250000Y-5375277D01*
X30250000Y-6400000D01*
X30947828Y-6400000D01*
X30947844Y-6399999D01*
X31007372Y-6393598D01*
X31007379Y-6393596D01*
X31142086Y-6343354D01*
X31142093Y-6343350D01*
X31257187Y-6257190D01*
X31257190Y-6257187D01*
X31343350Y-6142093D01*
X31343354Y-6142086D01*
X31373213Y-6062031D01*
X31415084Y-6006097D01*
X31480548Y-5981680D01*
X31548821Y-5996531D01*
X31577076Y-6017683D01*
X31627636Y-6068243D01*
X31627641Y-6068247D01*
X31783192Y-6181260D01*
X31805978Y-6197815D01*
X31907770Y-6249681D01*
X32002393Y-6297895D01*
X32002396Y-6297896D01*
X32107221Y-6331955D01*
X32212049Y-6366015D01*
X32429778Y-6400500D01*
X32429779Y-6400500D01*
X32650221Y-6400500D01*
X32650222Y-6400500D01*
X32867951Y-6366015D01*
X33077606Y-6297895D01*
X33274022Y-6197815D01*
X33452365Y-6068242D01*
X33608242Y-5912365D01*
X33737815Y-5734022D01*
X33837895Y-5537606D01*
X33845583Y-5513945D01*
X33882611Y-5399983D01*
X35699500Y-5399983D01*
X35699500Y-6600001D01*
X35699501Y-6600018D01*
X35710000Y-6702796D01*
X35710001Y-6702799D01*
X35742359Y-6800447D01*
X35765186Y-6869334D01*
X35857288Y-7018656D01*
X35981344Y-7142712D01*
X36130666Y-7234814D01*
X36297203Y-7289999D01*
X36399991Y-7300500D01*
X37600008Y-7300499D01*
X37702797Y-7289999D01*
X37869334Y-7234814D01*
X38018656Y-7142712D01*
X38142712Y-7018656D01*
X38234814Y-6869334D01*
X38289999Y-6702797D01*
X38300500Y-6600009D01*
X38300499Y-5399992D01*
X38289999Y-5297203D01*
X38234814Y-5130666D01*
X38142712Y-4981344D01*
X38018656Y-4857288D01*
X37869334Y-4765186D01*
X37702797Y-4710001D01*
X37702795Y-4710000D01*
X37600010Y-4699500D01*
X36399998Y-4699500D01*
X36399981Y-4699501D01*
X36297203Y-4710000D01*
X36297200Y-4710001D01*
X36130668Y-4765185D01*
X36130663Y-4765187D01*
X35981342Y-4857289D01*
X35857289Y-4981342D01*
X35765187Y-5130663D01*
X35765186Y-5130666D01*
X35710001Y-5297203D01*
X35710001Y-5297204D01*
X35710000Y-5297204D01*
X35699500Y-5399983D01*
X33882611Y-5399983D01*
X33896084Y-5358517D01*
X33896084Y-5358515D01*
X33906015Y-5327950D01*
X33906610Y-5324197D01*
X33940500Y-5110222D01*
X33940500Y-4889778D01*
X33906015Y-4672049D01*
X33871602Y-4566135D01*
X33837896Y-4462396D01*
X33837895Y-4462393D01*
X33795492Y-4379174D01*
X33737815Y-4265978D01*
X33676521Y-4181613D01*
X33608247Y-4087641D01*
X33608243Y-4087636D01*
X33452363Y-3931756D01*
X33452358Y-3931752D01*
X33274025Y-3802187D01*
X33274024Y-3802186D01*
X33274022Y-3802185D01*
X33203983Y-3766498D01*
X33077606Y-3702104D01*
X33077603Y-3702103D01*
X32867952Y-3633985D01*
X32759086Y-3616742D01*
X32650222Y-3599500D01*
X32429778Y-3599500D01*
X32357201Y-3610995D01*
X32212047Y-3633985D01*
X32002396Y-3702103D01*
X32002393Y-3702104D01*
X31805974Y-3802187D01*
X31627641Y-3931752D01*
X31627636Y-3931756D01*
X31577075Y-3982317D01*
X31515752Y-4015801D01*
X31446060Y-4010816D01*
X31390127Y-3968945D01*
X31373213Y-3937968D01*
X31343354Y-3857913D01*
X31343350Y-3857906D01*
X31257190Y-3742812D01*
X31257187Y-3742809D01*
X31142093Y-3656649D01*
X31142086Y-3656645D01*
X31007379Y-3606403D01*
X31007372Y-3606401D01*
X30947844Y-3600000D01*
X30250000Y-3600000D01*
X30250000Y-4624722D01*
X30173694Y-4580667D01*
X30059244Y-4550000D01*
X29940756Y-4550000D01*
X29826306Y-4580667D01*
X29750000Y-4624722D01*
X29750000Y-3600000D01*
X29052155Y-3600000D01*
X28992627Y-3606401D01*
X28992620Y-3606403D01*
X28857913Y-3656645D01*
X28857906Y-3656649D01*
X28742812Y-3742809D01*
X28742809Y-3742812D01*
X28656649Y-3857906D01*
X28656645Y-3857913D01*
X28606403Y-3992620D01*
X28606401Y-3992627D01*
X28600000Y-4052155D01*
X24675500Y-4052155D01*
X24675500Y-3933466D01*
X24649541Y-3802969D01*
X24649540Y-3802968D01*
X24649540Y-3802964D01*
X24634438Y-3766503D01*
X24598623Y-3680038D01*
X24598622Y-3680037D01*
X24598620Y-3680031D01*
X24567853Y-3633985D01*
X24524698Y-3569398D01*
X24524692Y-3569390D01*
X24430609Y-3475307D01*
X24430601Y-3475301D01*
X24319979Y-3401386D01*
X24319972Y-3401382D01*
X24319969Y-3401380D01*
X24319965Y-3401378D01*
X24319961Y-3401376D01*
X24197040Y-3350461D01*
X24197030Y-3350458D01*
X24066533Y-3324500D01*
X24066531Y-3324500D01*
X10467520Y-3324500D01*
X10400481Y-3304815D01*
X10398628Y-3303601D01*
X10379186Y-3290610D01*
X10379172Y-3290602D01*
X10233501Y-3230264D01*
X10233489Y-3230261D01*
X10078845Y-3199500D01*
X10078842Y-3199500D01*
X9921158Y-3199500D01*
X9921155Y-3199500D01*
X9766510Y-3230261D01*
X9766498Y-3230264D01*
X9620827Y-3290602D01*
X9620814Y-3290609D01*
X9489711Y-3378210D01*
X9489707Y-3378213D01*
X9378213Y-3489707D01*
X9378210Y-3489711D01*
X9290609Y-3620814D01*
X9290602Y-3620827D01*
X9230264Y-3766498D01*
X9230261Y-3766510D01*
X9199500Y-3921153D01*
X9199500Y-4078846D01*
X9230261Y-4233489D01*
X9230264Y-4233501D01*
X9290603Y-4379174D01*
X9290604Y-4379175D01*
X9290606Y-4379179D01*
X9303602Y-4398628D01*
X9324480Y-4465305D01*
X9324500Y-4467519D01*
X9324500Y-10982479D01*
X9304815Y-11049518D01*
X9303602Y-11051370D01*
X9290609Y-11070814D01*
X9290602Y-11070827D01*
X9230264Y-11216498D01*
X9230261Y-11216510D01*
X9199500Y-11371153D01*
X9199500Y-11528846D01*
X9230261Y-11683489D01*
X9230264Y-11683501D01*
X9290602Y-11829172D01*
X9290609Y-11829185D01*
X9378210Y-11960288D01*
X9378213Y-11960292D01*
X9489707Y-12071786D01*
X9489711Y-12071789D01*
X9620814Y-12159390D01*
X9620827Y-12159397D01*
X9717646Y-12199500D01*
X9766503Y-12219737D01*
X9894614Y-12245220D01*
X9921153Y-12250499D01*
X9921156Y-12250500D01*
X9921158Y-12250500D01*
X10078844Y-12250500D01*
X10078845Y-12250499D01*
X10233497Y-12219737D01*
X10379179Y-12159394D01*
X10510289Y-12071789D01*
X10621789Y-11960289D01*
X10709394Y-11829179D01*
X10769737Y-11683497D01*
X10800500Y-11528842D01*
X10800500Y-11371158D01*
X10800500Y-11371155D01*
X10800499Y-11371153D01*
X10789230Y-11314500D01*
X10769737Y-11216503D01*
X10767495Y-11211090D01*
X10709397Y-11070827D01*
X10709390Y-11070814D01*
X10696398Y-11051370D01*
X10675520Y-10984692D01*
X10675500Y-10982479D01*
X10675500Y-4799500D01*
X10695185Y-4732461D01*
X10747989Y-4686706D01*
X10799500Y-4675500D01*
X23200500Y-4675500D01*
X23267539Y-4695185D01*
X23313294Y-4747989D01*
X23324500Y-4799500D01*
X23324500Y-7381894D01*
X23304815Y-7448933D01*
X23273387Y-7482211D01*
X23185354Y-7546171D01*
X23185351Y-7546174D01*
X23087681Y-7643845D01*
X23026358Y-7677330D01*
X22956666Y-7672346D01*
X22912319Y-7643845D01*
X22814648Y-7546174D01*
X22814646Y-7546172D01*
X22655405Y-7430476D01*
X22655403Y-7430475D01*
X22480029Y-7341117D01*
X22292826Y-7280290D01*
X22098422Y-7249500D01*
X22098417Y-7249500D01*
X21901583Y-7249500D01*
X21901578Y-7249500D01*
X21707173Y-7280290D01*
X21519970Y-7341117D01*
X21344595Y-7430475D01*
X21308385Y-7456784D01*
X21242578Y-7480263D01*
X21174524Y-7464437D01*
X21136235Y-7430778D01*
X21107546Y-7392454D01*
X21107544Y-7392452D01*
X21107543Y-7392451D01*
X20992335Y-7306206D01*
X20992328Y-7306202D01*
X20857482Y-7255908D01*
X20857483Y-7255908D01*
X20797883Y-7249501D01*
X20797881Y-7249500D01*
X20797873Y-7249500D01*
X20797864Y-7249500D01*
X19202129Y-7249500D01*
X19202123Y-7249501D01*
X19135443Y-7256669D01*
X19066683Y-7244262D01*
X19034509Y-7221060D01*
X18942654Y-7129205D01*
X18942649Y-7129201D01*
X18738848Y-6981132D01*
X18738847Y-6981131D01*
X18738845Y-6981130D01*
X18668747Y-6945413D01*
X18514383Y-6866760D01*
X18274785Y-6788910D01*
X18025962Y-6749500D01*
X17774038Y-6749500D01*
X17649626Y-6769205D01*
X17525214Y-6788910D01*
X17285616Y-6866760D01*
X17061151Y-6981132D01*
X16857350Y-7129201D01*
X16857345Y-7129205D01*
X16679205Y-7307345D01*
X16679201Y-7307350D01*
X16531132Y-7511151D01*
X16416760Y-7735616D01*
X16338910Y-7975214D01*
X16334861Y-8000781D01*
X16299500Y-8224038D01*
X16299500Y-9775962D01*
X16319377Y-9901459D01*
X16338910Y-10024785D01*
X16416760Y-10264383D01*
X16466668Y-10362331D01*
X16529523Y-10485692D01*
X16531132Y-10488848D01*
X16679201Y-10692649D01*
X16679205Y-10692654D01*
X16857345Y-10870794D01*
X16857350Y-10870798D01*
X17005443Y-10978393D01*
X17061155Y-11018870D01*
X17204184Y-11091747D01*
X17285616Y-11133239D01*
X17285618Y-11133239D01*
X17285621Y-11133241D01*
X17525215Y-11211090D01*
X17774038Y-11250500D01*
X17774039Y-11250500D01*
X18025961Y-11250500D01*
X18025962Y-11250500D01*
X18274785Y-11211090D01*
X18514379Y-11133241D01*
X18738845Y-11018870D01*
X18942656Y-10870793D01*
X19034511Y-10778937D01*
X19095831Y-10745454D01*
X19135445Y-10743330D01*
X19142514Y-10744089D01*
X19142517Y-10744091D01*
X19202127Y-10750500D01*
X20797872Y-10750499D01*
X20857483Y-10744091D01*
X20992331Y-10693796D01*
X21107546Y-10607546D01*
X21107548Y-10607542D01*
X21112819Y-10602273D01*
X21174142Y-10568788D01*
X21243834Y-10573772D01*
X21299767Y-10615644D01*
X21324184Y-10681108D01*
X21324500Y-10689954D01*
X21324500Y-16053469D01*
X21324500Y-16186531D01*
X21324500Y-16186533D01*
X21324499Y-16186533D01*
X21350458Y-16317030D01*
X21350461Y-16317040D01*
X21401376Y-16439961D01*
X21401386Y-16439979D01*
X21475301Y-16550601D01*
X21475307Y-16550609D01*
X21569390Y-16644692D01*
X21569398Y-16644698D01*
X21680020Y-16718613D01*
X21680023Y-16718614D01*
X21680031Y-16718620D01*
X21802964Y-16769540D01*
X21802968Y-16769540D01*
X21802969Y-16769541D01*
X21933466Y-16795500D01*
X21933469Y-16795500D01*
X43320093Y-16795500D01*
X43387132Y-16815185D01*
X43420412Y-16846616D01*
X43508030Y-16967215D01*
X43652786Y-17111971D01*
X43807749Y-17224556D01*
X43818390Y-17232287D01*
X43934607Y-17291503D01*
X44000776Y-17325218D01*
X44000778Y-17325218D01*
X44000781Y-17325220D01*
X44105137Y-17359127D01*
X44195465Y-17388477D01*
X44296557Y-17404488D01*
X44397648Y-17420500D01*
X44397649Y-17420500D01*
X44602351Y-17420500D01*
X44602352Y-17420500D01*
X44804534Y-17388477D01*
X44999219Y-17325220D01*
X45181610Y-17232287D01*
X45274590Y-17164732D01*
X45347213Y-17111971D01*
X45347215Y-17111968D01*
X45347219Y-17111966D01*
X45491966Y-16967219D01*
X45491968Y-16967215D01*
X45491971Y-16967213D01*
X45602424Y-16815185D01*
X45612287Y-16801610D01*
X45705220Y-16619219D01*
X45768477Y-16424534D01*
X45800500Y-16222352D01*
X45800500Y-16017648D01*
X45768477Y-15815466D01*
X45763614Y-15800500D01*
X45705218Y-15620776D01*
X45653185Y-15518657D01*
X45612287Y-15438390D01*
X45602424Y-15424815D01*
X45491971Y-15272786D01*
X45347213Y-15128028D01*
X45181614Y-15007715D01*
X45164947Y-14999223D01*
X45088917Y-14960483D01*
X45038123Y-14912511D01*
X45021328Y-14844690D01*
X45043865Y-14778555D01*
X45088917Y-14739516D01*
X45181610Y-14692287D01*
X45270616Y-14627621D01*
X45347213Y-14571971D01*
X45347215Y-14571968D01*
X45347219Y-14571966D01*
X45491966Y-14427219D01*
X45491968Y-14427215D01*
X45491971Y-14427213D01*
X45581186Y-14304417D01*
X45612287Y-14261610D01*
X45705220Y-14079219D01*
X45768477Y-13884534D01*
X45800500Y-13682352D01*
X45800500Y-13477648D01*
X45786256Y-13387715D01*
X45768477Y-13275465D01*
X45716841Y-13116547D01*
X45705220Y-13080781D01*
X45705218Y-13080778D01*
X45705218Y-13080776D01*
X45664455Y-13000776D01*
X45612287Y-12898390D01*
X45600387Y-12882011D01*
X45491971Y-12732786D01*
X45347213Y-12588028D01*
X45181614Y-12467715D01*
X45175006Y-12464348D01*
X45088917Y-12420483D01*
X45038123Y-12372511D01*
X45021328Y-12304690D01*
X45043865Y-12238555D01*
X45088917Y-12199516D01*
X45181610Y-12152287D01*
X45292407Y-12071789D01*
X45347213Y-12031971D01*
X45347215Y-12031968D01*
X45347219Y-12031966D01*
X45491966Y-11887219D01*
X45491968Y-11887215D01*
X45491971Y-11887213D01*
X45615151Y-11717669D01*
X45616823Y-11718884D01*
X45662208Y-11677831D01*
X45716115Y-11665500D01*
X47560500Y-11665500D01*
X47627539Y-11685185D01*
X47673294Y-11737989D01*
X47684500Y-11789500D01*
X47684500Y-13641610D01*
X47708535Y-13762444D01*
X47708538Y-13762454D01*
X47755687Y-13876283D01*
X47755692Y-13876292D01*
X47824141Y-13978732D01*
X47824144Y-13978736D01*
X47911263Y-14065855D01*
X47911267Y-14065858D01*
X48013707Y-14134307D01*
X48013713Y-14134310D01*
X48013714Y-14134311D01*
X48127548Y-14181463D01*
X48248389Y-14205499D01*
X48248393Y-14205500D01*
X48248394Y-14205500D01*
X48371606Y-14205500D01*
X50903885Y-14205500D01*
X50970924Y-14225185D01*
X51003606Y-14258571D01*
X51004849Y-14257669D01*
X51128028Y-14427213D01*
X51272786Y-14571971D01*
X51423335Y-14681349D01*
X51438390Y-14692287D01*
X51529840Y-14738883D01*
X51531080Y-14739515D01*
X51581876Y-14787490D01*
X51598671Y-14855311D01*
X51576134Y-14921446D01*
X51531080Y-14960485D01*
X51438386Y-15007715D01*
X51272786Y-15128028D01*
X51128028Y-15272786D01*
X51007715Y-15438386D01*
X50914781Y-15620776D01*
X50851522Y-15815465D01*
X50819500Y-16017648D01*
X50819500Y-16222351D01*
X50851522Y-16424534D01*
X50914781Y-16619223D01*
X50965424Y-16718613D01*
X50991372Y-16769540D01*
X51007715Y-16801613D01*
X51128028Y-16967213D01*
X51272786Y-17111971D01*
X51427749Y-17224556D01*
X51438390Y-17232287D01*
X51554607Y-17291503D01*
X51620776Y-17325218D01*
X51620778Y-17325218D01*
X51620781Y-17325220D01*
X51725137Y-17359127D01*
X51815465Y-17388477D01*
X51916557Y-17404488D01*
X52017648Y-17420500D01*
X52017649Y-17420500D01*
X52222351Y-17420500D01*
X52222352Y-17420500D01*
X52424534Y-17388477D01*
X52619219Y-17325220D01*
X52801610Y-17232287D01*
X52894590Y-17164732D01*
X52967213Y-17111971D01*
X52967215Y-17111968D01*
X52967219Y-17111966D01*
X53111966Y-16967219D01*
X53111968Y-16967215D01*
X53111971Y-16967213D01*
X53222424Y-16815185D01*
X53232287Y-16801610D01*
X53325220Y-16619219D01*
X53388477Y-16424534D01*
X53420500Y-16222352D01*
X53420500Y-16017648D01*
X53388477Y-15815466D01*
X53383614Y-15800500D01*
X53325218Y-15620776D01*
X53273185Y-15518657D01*
X53232287Y-15438390D01*
X53222424Y-15424815D01*
X53111971Y-15272786D01*
X52967213Y-15128028D01*
X52801614Y-15007715D01*
X52784947Y-14999223D01*
X52708917Y-14960483D01*
X52658123Y-14912511D01*
X52641328Y-14844690D01*
X52663865Y-14778555D01*
X52708917Y-14739516D01*
X52801610Y-14692287D01*
X52890616Y-14627621D01*
X52967213Y-14571971D01*
X52967215Y-14571968D01*
X52967219Y-14571966D01*
X53111966Y-14427219D01*
X53111968Y-14427215D01*
X53111971Y-14427213D01*
X53201186Y-14304417D01*
X53232287Y-14261610D01*
X53325220Y-14079219D01*
X53388477Y-13884534D01*
X53420500Y-13682352D01*
X53420500Y-13477648D01*
X53406256Y-13387715D01*
X53388477Y-13275465D01*
X53336841Y-13116547D01*
X53325220Y-13080781D01*
X53325218Y-13080778D01*
X53325218Y-13080776D01*
X53284455Y-13000776D01*
X53232287Y-12898390D01*
X53220387Y-12882011D01*
X53111971Y-12732786D01*
X52967213Y-12588028D01*
X52801614Y-12467715D01*
X52795006Y-12464348D01*
X52708917Y-12420483D01*
X52658123Y-12372511D01*
X52641328Y-12304690D01*
X52663865Y-12238555D01*
X52708917Y-12199516D01*
X52801610Y-12152287D01*
X52912407Y-12071789D01*
X52967213Y-12031971D01*
X52967215Y-12031968D01*
X52967219Y-12031966D01*
X53111966Y-11887219D01*
X53111968Y-11887215D01*
X53111971Y-11887213D01*
X53187747Y-11782914D01*
X53232287Y-11721610D01*
X53325220Y-11539219D01*
X53388477Y-11344534D01*
X53420500Y-11142352D01*
X53420500Y-10937648D01*
X53395363Y-10778939D01*
X53388477Y-10735465D01*
X53357869Y-10641263D01*
X53325220Y-10540781D01*
X53325218Y-10540778D01*
X53325218Y-10540776D01*
X53280915Y-10453828D01*
X53232287Y-10358390D01*
X53206335Y-10322670D01*
X53111971Y-10192786D01*
X52967213Y-10048028D01*
X52801614Y-9927715D01*
X52794708Y-9924196D01*
X52708917Y-9880483D01*
X52658123Y-9832511D01*
X52641328Y-9764690D01*
X52663865Y-9698555D01*
X52708917Y-9659516D01*
X52801610Y-9612287D01*
X52822770Y-9596913D01*
X52967213Y-9491971D01*
X52967215Y-9491968D01*
X52967219Y-9491966D01*
X53111966Y-9347219D01*
X53111968Y-9347215D01*
X53111971Y-9347213D01*
X53202315Y-9222863D01*
X53232287Y-9181610D01*
X53325220Y-8999219D01*
X53388477Y-8804534D01*
X53420500Y-8602352D01*
X53420500Y-8397648D01*
X53412257Y-8345606D01*
X53388477Y-8195465D01*
X53325218Y-8000776D01*
X53291503Y-7934607D01*
X53232287Y-7818390D01*
X53216966Y-7797302D01*
X53111971Y-7652786D01*
X52967213Y-7508028D01*
X52801613Y-7387715D01*
X52801612Y-7387714D01*
X52801610Y-7387713D01*
X52737201Y-7354895D01*
X52619223Y-7294781D01*
X52424534Y-7231522D01*
X52249995Y-7203878D01*
X52222352Y-7199500D01*
X52017648Y-7199500D01*
X51993329Y-7203351D01*
X51815465Y-7231522D01*
X51620776Y-7294781D01*
X51438386Y-7387715D01*
X51272786Y-7508028D01*
X51128028Y-7652786D01*
X51007715Y-7818386D01*
X50914781Y-8000776D01*
X50851522Y-8195465D01*
X50819500Y-8397648D01*
X50819500Y-8602351D01*
X50851522Y-8804534D01*
X50914781Y-8999223D01*
X51007715Y-9181613D01*
X51128028Y-9347213D01*
X51272786Y-9491971D01*
X51427749Y-9604556D01*
X51438390Y-9612287D01*
X51529840Y-9658883D01*
X51531080Y-9659515D01*
X51581876Y-9707490D01*
X51598671Y-9775311D01*
X51576134Y-9841446D01*
X51531080Y-9880485D01*
X51438386Y-9927715D01*
X51272786Y-10048028D01*
X51128028Y-10192786D01*
X51007715Y-10358386D01*
X50914781Y-10540776D01*
X50851522Y-10735465D01*
X50819500Y-10937648D01*
X50819500Y-11142351D01*
X50851522Y-11344534D01*
X50914781Y-11539223D01*
X50949561Y-11607481D01*
X50988295Y-11683501D01*
X51007715Y-11721613D01*
X51128028Y-11887213D01*
X51272786Y-12031971D01*
X51383125Y-12112135D01*
X51438390Y-12152287D01*
X51529840Y-12198883D01*
X51531080Y-12199515D01*
X51581876Y-12247490D01*
X51598671Y-12315311D01*
X51576134Y-12381446D01*
X51531080Y-12420485D01*
X51438386Y-12467715D01*
X51272786Y-12588028D01*
X51128028Y-12732786D01*
X51004849Y-12902331D01*
X51003176Y-12901115D01*
X50957792Y-12942169D01*
X50903885Y-12954500D01*
X49059500Y-12954500D01*
X48992461Y-12934815D01*
X48946706Y-12882011D01*
X48935500Y-12830500D01*
X48935500Y-10978393D01*
X48935499Y-10978389D01*
X48927395Y-10937648D01*
X48911463Y-10857548D01*
X48867122Y-10750500D01*
X48864312Y-10743716D01*
X48864307Y-10743707D01*
X48795858Y-10641267D01*
X48795855Y-10641263D01*
X48708736Y-10554144D01*
X48708732Y-10554141D01*
X48606292Y-10485692D01*
X48606283Y-10485687D01*
X48492454Y-10438538D01*
X48492455Y-10438538D01*
X48492452Y-10438537D01*
X48492448Y-10438536D01*
X48492444Y-10438535D01*
X48371610Y-10414500D01*
X48371606Y-10414500D01*
X45716115Y-10414500D01*
X45649076Y-10394815D01*
X45616393Y-10361428D01*
X45615151Y-10362331D01*
X45491971Y-10192786D01*
X45347217Y-10048032D01*
X45347212Y-10048028D01*
X45253051Y-9979616D01*
X45210385Y-9924286D01*
X45204406Y-9854673D01*
X45237012Y-9792878D01*
X45286933Y-9761592D01*
X45369117Y-9734359D01*
X45369124Y-9734356D01*
X45518345Y-9642315D01*
X45642315Y-9518345D01*
X45734356Y-9369124D01*
X45734358Y-9369119D01*
X45789505Y-9202697D01*
X45789506Y-9202690D01*
X45799999Y-9099986D01*
X45800000Y-9099973D01*
X45800000Y-8750000D01*
X44815686Y-8750000D01*
X44820080Y-8745606D01*
X44872741Y-8654394D01*
X44900000Y-8552661D01*
X44900000Y-8447339D01*
X44872741Y-8345606D01*
X44820080Y-8254394D01*
X44815686Y-8250000D01*
X45799999Y-8250000D01*
X45799999Y-7900028D01*
X45799998Y-7900013D01*
X45789505Y-7797302D01*
X45734358Y-7630880D01*
X45734356Y-7630875D01*
X45642315Y-7481654D01*
X45518345Y-7357684D01*
X45369124Y-7265643D01*
X45369119Y-7265641D01*
X45202697Y-7210494D01*
X45202690Y-7210493D01*
X45099986Y-7200000D01*
X44750000Y-7200000D01*
X44750000Y-8184314D01*
X44745606Y-8179920D01*
X44654394Y-8127259D01*
X44552661Y-8100000D01*
X44447339Y-8100000D01*
X44345606Y-8127259D01*
X44254394Y-8179920D01*
X44250000Y-8184314D01*
X44250000Y-7200000D01*
X43900028Y-7200000D01*
X43900012Y-7200001D01*
X43797302Y-7210494D01*
X43788499Y-7213411D01*
X43718670Y-7215809D01*
X43658630Y-7180075D01*
X43627440Y-7117553D01*
X43625500Y-7095703D01*
X43625500Y-4715502D01*
X43645185Y-4648463D01*
X43697989Y-4602708D01*
X43767147Y-4592764D01*
X43814289Y-4609774D01*
X43818388Y-4612285D01*
X43818390Y-4612287D01*
X43872603Y-4639910D01*
X44000776Y-4705218D01*
X44000778Y-4705218D01*
X44000781Y-4705220D01*
X44084620Y-4732461D01*
X44195465Y-4768477D01*
X44296557Y-4784488D01*
X44397648Y-4800500D01*
X44397649Y-4800500D01*
X44602351Y-4800500D01*
X44602352Y-4800500D01*
X44804534Y-4768477D01*
X44999219Y-4705220D01*
X45181610Y-4612287D01*
X45274590Y-4544732D01*
X45347213Y-4491971D01*
X45347215Y-4491968D01*
X45347219Y-4491966D01*
X45491966Y-4347219D01*
X45491968Y-4347215D01*
X45491971Y-4347213D01*
X45544732Y-4274590D01*
X45612287Y-4181610D01*
X45705220Y-3999219D01*
X45768477Y-3804534D01*
X45800500Y-3602352D01*
X45800500Y-3397648D01*
X45786192Y-3307314D01*
X45768477Y-3195465D01*
X45739127Y-3105137D01*
X45705220Y-3000781D01*
X45705218Y-3000778D01*
X45705218Y-3000776D01*
X45661821Y-2915606D01*
X45612287Y-2818390D01*
X45569266Y-2759176D01*
X45491971Y-2652786D01*
X45347213Y-2508028D01*
X45181613Y-2387715D01*
X45181612Y-2387714D01*
X45181610Y-2387713D01*
X45127191Y-2359985D01*
X45076395Y-2312010D01*
X45059600Y-2244189D01*
X45082138Y-2178054D01*
X45136853Y-2134603D01*
X45183486Y-2125500D01*
X51436514Y-2125500D01*
X51503553Y-2145185D01*
X51549308Y-2197989D01*
X51559252Y-2267147D01*
X51530227Y-2330703D01*
X51492809Y-2359985D01*
X51438386Y-2387715D01*
X51272786Y-2508028D01*
X51128028Y-2652786D01*
X51007715Y-2818386D01*
X50914781Y-3000776D01*
X50851522Y-3195465D01*
X50819500Y-3397648D01*
X50819500Y-3602351D01*
X50851522Y-3804534D01*
X50914781Y-3999223D01*
X51007715Y-4181613D01*
X51128028Y-4347213D01*
X51272786Y-4491971D01*
X51427749Y-4604556D01*
X51438390Y-4612287D01*
X51554607Y-4671503D01*
X51620776Y-4705218D01*
X51620778Y-4705218D01*
X51620781Y-4705220D01*
X51704620Y-4732461D01*
X51815465Y-4768477D01*
X51916557Y-4784488D01*
X52017648Y-4800500D01*
X52017649Y-4800500D01*
X52222351Y-4800500D01*
X52222352Y-4800500D01*
X52424534Y-4768477D01*
X52619219Y-4705220D01*
X52801610Y-4612287D01*
X52894590Y-4544732D01*
X52967213Y-4491971D01*
X52967215Y-4491968D01*
X52967219Y-4491966D01*
X53111966Y-4347219D01*
X53111968Y-4347215D01*
X53111971Y-4347213D01*
X53164732Y-4274590D01*
X53232287Y-4181610D01*
X53325220Y-3999219D01*
X53388477Y-3804534D01*
X53420500Y-3602352D01*
X53420500Y-3397648D01*
X53406192Y-3307314D01*
X53388477Y-3195465D01*
X53359127Y-3105137D01*
X53325220Y-3000781D01*
X53325218Y-3000778D01*
X53325218Y-3000776D01*
X53281821Y-2915606D01*
X53232287Y-2818390D01*
X53189266Y-2759176D01*
X53111971Y-2652786D01*
X52967213Y-2508028D01*
X52801613Y-2387715D01*
X52801612Y-2387714D01*
X52801610Y-2387713D01*
X52747191Y-2359985D01*
X52696395Y-2312010D01*
X52679600Y-2244189D01*
X52702138Y-2178054D01*
X52756853Y-2134603D01*
X52803486Y-2125500D01*
X56225500Y-2125500D01*
X56292539Y-2145185D01*
X56338294Y-2197989D01*
X56349500Y-2249500D01*
X56349500Y-13103130D01*
X56329815Y-13170169D01*
X56277011Y-13215924D01*
X56264505Y-13220836D01*
X56130666Y-13265186D01*
X56130663Y-13265187D01*
X55981342Y-13357289D01*
X55857289Y-13481342D01*
X55765187Y-13630663D01*
X55765185Y-13630668D01*
X55759957Y-13646446D01*
X55710001Y-13797203D01*
X55710001Y-13797204D01*
X55710000Y-13797204D01*
X55699500Y-13899983D01*
X55699500Y-15100001D01*
X55699501Y-15100018D01*
X55710000Y-15202796D01*
X55710001Y-15202799D01*
X55747535Y-15316067D01*
X55765186Y-15369334D01*
X55857288Y-15518656D01*
X55981344Y-15642712D01*
X56130666Y-15734814D01*
X56297203Y-15789999D01*
X56399991Y-15800500D01*
X57600008Y-15800499D01*
X57702797Y-15789999D01*
X57869334Y-15734814D01*
X58018656Y-15642712D01*
X58142712Y-15518656D01*
X58234814Y-15369334D01*
X58249426Y-15325237D01*
X58289195Y-15267796D01*
X58353711Y-15240972D01*
X58422487Y-15253286D01*
X58467448Y-15291358D01*
X58508032Y-15347217D01*
X58652786Y-15491971D01*
X58807749Y-15604556D01*
X58818390Y-15612287D01*
X58934607Y-15671503D01*
X59000776Y-15705218D01*
X59000778Y-15705218D01*
X59000781Y-15705220D01*
X59091856Y-15734812D01*
X59195465Y-15768477D01*
X59296557Y-15784488D01*
X59397648Y-15800500D01*
X59397649Y-15800500D01*
X59602351Y-15800500D01*
X59602352Y-15800500D01*
X59804534Y-15768477D01*
X59999219Y-15705220D01*
X60181610Y-15612287D01*
X60310482Y-15518657D01*
X60347213Y-15491971D01*
X60347215Y-15491968D01*
X60347219Y-15491966D01*
X60491966Y-15347219D01*
X60491968Y-15347215D01*
X60491971Y-15347213D01*
X60593213Y-15207863D01*
X60612287Y-15181610D01*
X60705220Y-14999219D01*
X60768477Y-14804534D01*
X60800500Y-14602352D01*
X60800500Y-14397648D01*
X60768477Y-14195466D01*
X60763927Y-14181464D01*
X60705218Y-14000776D01*
X60653865Y-13899991D01*
X60612287Y-13818390D01*
X60596894Y-13797203D01*
X60491971Y-13652786D01*
X60347213Y-13508028D01*
X60181613Y-13387715D01*
X60181612Y-13387714D01*
X60181610Y-13387713D01*
X60121898Y-13357288D01*
X59999223Y-13294781D01*
X59804534Y-13231522D01*
X59629995Y-13203878D01*
X59602352Y-13199500D01*
X59397648Y-13199500D01*
X59373329Y-13203351D01*
X59195465Y-13231522D01*
X59000776Y-13294781D01*
X58818386Y-13387715D01*
X58652786Y-13508028D01*
X58508032Y-13652782D01*
X58508031Y-13652784D01*
X58467447Y-13708642D01*
X58412117Y-13751307D01*
X58342503Y-13757285D01*
X58280709Y-13724678D01*
X58249425Y-13674760D01*
X58234814Y-13630666D01*
X58142712Y-13481344D01*
X58018656Y-13357288D01*
X57869334Y-13265186D01*
X57735495Y-13220836D01*
X57678051Y-13181063D01*
X57651228Y-13116547D01*
X57650500Y-13103130D01*
X57650500Y-9452135D01*
X71999500Y-9452135D01*
X71999500Y-11547870D01*
X71999501Y-11547876D01*
X72005908Y-11607483D01*
X72056202Y-11742328D01*
X72056206Y-11742335D01*
X72142452Y-11857544D01*
X72142455Y-11857547D01*
X72257664Y-11943793D01*
X72257671Y-11943797D01*
X72392517Y-11994091D01*
X72392516Y-11994091D01*
X72399444Y-11994835D01*
X72452127Y-12000500D01*
X74547872Y-12000499D01*
X74607483Y-11994091D01*
X74742331Y-11943796D01*
X74857546Y-11857546D01*
X74943796Y-11742331D01*
X74994091Y-11607483D01*
X75000500Y-11547873D01*
X75000499Y-10381947D01*
X79600000Y-10381947D01*
X79600000Y-10618052D01*
X79636934Y-10851247D01*
X79709897Y-11075802D01*
X79817087Y-11286174D01*
X79877338Y-11369104D01*
X79877340Y-11369105D01*
X80617037Y-10629408D01*
X80634075Y-10692993D01*
X80699901Y-10807007D01*
X80792993Y-10900099D01*
X80907007Y-10965925D01*
X80970590Y-10982962D01*
X80230893Y-11722658D01*
X80313828Y-11782914D01*
X80524197Y-11890102D01*
X80748752Y-11963065D01*
X80748751Y-11963065D01*
X80981948Y-12000000D01*
X81218052Y-12000000D01*
X81451247Y-11963065D01*
X81675802Y-11890102D01*
X81886163Y-11782918D01*
X81886169Y-11782914D01*
X81969104Y-11722658D01*
X81969105Y-11722658D01*
X81229408Y-10982962D01*
X81292993Y-10965925D01*
X81407007Y-10900099D01*
X81500099Y-10807007D01*
X81565925Y-10692993D01*
X81582962Y-10629409D01*
X82322658Y-11369105D01*
X82322658Y-11369104D01*
X82382914Y-11286169D01*
X82382918Y-11286163D01*
X82490102Y-11075802D01*
X82563065Y-10851247D01*
X82600000Y-10618052D01*
X82600000Y-10381947D01*
X82563065Y-10148751D01*
X82546751Y-10098543D01*
X87774499Y-10098543D01*
X87812947Y-10291829D01*
X87812950Y-10291839D01*
X87888364Y-10473907D01*
X87888371Y-10473920D01*
X87997860Y-10637781D01*
X87997863Y-10637785D01*
X88137214Y-10777136D01*
X88137218Y-10777139D01*
X88301079Y-10886628D01*
X88301092Y-10886635D01*
X88424250Y-10937648D01*
X88483165Y-10962051D01*
X88483169Y-10962051D01*
X88483170Y-10962052D01*
X88676456Y-11000500D01*
X88676459Y-11000500D01*
X88873543Y-11000500D01*
X89047359Y-10965925D01*
X89066835Y-10962051D01*
X89248914Y-10886632D01*
X89412782Y-10777139D01*
X89552139Y-10637782D01*
X89661632Y-10473914D01*
X89737051Y-10291835D01*
X89756754Y-10192781D01*
X89775500Y-10098543D01*
X94774499Y-10098543D01*
X94812947Y-10291829D01*
X94812950Y-10291839D01*
X94888364Y-10473907D01*
X94888371Y-10473920D01*
X94997860Y-10637781D01*
X94997863Y-10637785D01*
X95137214Y-10777136D01*
X95137218Y-10777139D01*
X95301079Y-10886628D01*
X95301092Y-10886635D01*
X95424250Y-10937648D01*
X95483165Y-10962051D01*
X95483169Y-10962051D01*
X95483170Y-10962052D01*
X95676456Y-11000500D01*
X95676459Y-11000500D01*
X95873543Y-11000500D01*
X96047359Y-10965925D01*
X96066835Y-10962051D01*
X96248914Y-10886632D01*
X96412782Y-10777139D01*
X96552139Y-10637782D01*
X96661632Y-10473914D01*
X96737051Y-10291835D01*
X96756754Y-10192781D01*
X96775500Y-10098543D01*
X96775500Y-9901456D01*
X96737052Y-9708170D01*
X96737051Y-9708169D01*
X96737051Y-9708165D01*
X96735831Y-9705220D01*
X96661635Y-9526092D01*
X96661628Y-9526079D01*
X96552139Y-9362218D01*
X96552136Y-9362214D01*
X96412785Y-9222863D01*
X96412781Y-9222860D01*
X96248920Y-9113371D01*
X96248907Y-9113364D01*
X96066839Y-9037950D01*
X96066829Y-9037947D01*
X95873543Y-8999500D01*
X95873541Y-8999500D01*
X95676459Y-8999500D01*
X95676457Y-8999500D01*
X95483170Y-9037947D01*
X95483160Y-9037950D01*
X95301092Y-9113364D01*
X95301079Y-9113371D01*
X95137218Y-9222860D01*
X95137214Y-9222863D01*
X94997863Y-9362214D01*
X94997860Y-9362218D01*
X94888371Y-9526079D01*
X94888364Y-9526092D01*
X94812950Y-9708160D01*
X94812947Y-9708170D01*
X94774500Y-9901456D01*
X94774500Y-9901459D01*
X94774500Y-10098541D01*
X94774500Y-10098543D01*
X94774499Y-10098543D01*
X89775500Y-10098543D01*
X89775500Y-9901456D01*
X89737052Y-9708170D01*
X89737051Y-9708169D01*
X89737051Y-9708165D01*
X89735831Y-9705220D01*
X89661635Y-9526092D01*
X89661628Y-9526079D01*
X89552139Y-9362218D01*
X89552136Y-9362214D01*
X89412785Y-9222863D01*
X89412781Y-9222860D01*
X89248920Y-9113371D01*
X89248907Y-9113364D01*
X89066839Y-9037950D01*
X89066829Y-9037947D01*
X88873543Y-8999500D01*
X88873541Y-8999500D01*
X88676459Y-8999500D01*
X88676457Y-8999500D01*
X88483170Y-9037947D01*
X88483160Y-9037950D01*
X88301092Y-9113364D01*
X88301079Y-9113371D01*
X88137218Y-9222860D01*
X88137214Y-9222863D01*
X87997863Y-9362214D01*
X87997860Y-9362218D01*
X87888371Y-9526079D01*
X87888364Y-9526092D01*
X87812950Y-9708160D01*
X87812947Y-9708170D01*
X87774500Y-9901456D01*
X87774500Y-9901459D01*
X87774500Y-10098541D01*
X87774500Y-10098543D01*
X87774499Y-10098543D01*
X82546751Y-10098543D01*
X82493186Y-9933685D01*
X82490102Y-9924196D01*
X82382914Y-9713828D01*
X82322658Y-9630894D01*
X82322658Y-9630893D01*
X81582962Y-10370590D01*
X81565925Y-10307007D01*
X81500099Y-10192993D01*
X81407007Y-10099901D01*
X81292993Y-10034075D01*
X81229409Y-10017037D01*
X81969105Y-9277340D01*
X81969104Y-9277338D01*
X81886174Y-9217087D01*
X81675802Y-9109897D01*
X81451247Y-9036934D01*
X81451248Y-9036934D01*
X81218052Y-9000000D01*
X80981948Y-9000000D01*
X80748752Y-9036934D01*
X80524197Y-9109897D01*
X80313830Y-9217084D01*
X80230894Y-9277340D01*
X80970591Y-10017037D01*
X80907007Y-10034075D01*
X80792993Y-10099901D01*
X80699901Y-10192993D01*
X80634075Y-10307007D01*
X80617037Y-10370591D01*
X79877340Y-9630894D01*
X79817084Y-9713830D01*
X79709897Y-9924197D01*
X79636934Y-10148752D01*
X79600000Y-10381947D01*
X75000499Y-10381947D01*
X75000499Y-9452128D01*
X74994091Y-9392517D01*
X74994090Y-9392514D01*
X74984922Y-9367931D01*
X74943797Y-9257671D01*
X74943793Y-9257664D01*
X74857547Y-9142455D01*
X74857544Y-9142452D01*
X74742335Y-9056206D01*
X74742328Y-9056202D01*
X74607482Y-9005908D01*
X74607483Y-9005908D01*
X74547883Y-8999501D01*
X74547881Y-8999500D01*
X74547873Y-8999500D01*
X74547864Y-8999500D01*
X72452129Y-8999500D01*
X72452123Y-8999501D01*
X72392516Y-9005908D01*
X72257671Y-9056202D01*
X72257664Y-9056206D01*
X72142455Y-9142452D01*
X72142452Y-9142455D01*
X72056206Y-9257664D01*
X72056202Y-9257671D01*
X72005908Y-9392517D01*
X71999501Y-9452116D01*
X71999501Y-9452123D01*
X71999500Y-9452135D01*
X57650500Y-9452135D01*
X57650500Y-8053945D01*
X64279500Y-8053945D01*
X64279500Y-8246054D01*
X64309553Y-8435802D01*
X64368916Y-8618506D01*
X64435916Y-8750000D01*
X64456135Y-8789681D01*
X64569055Y-8945102D01*
X64704898Y-9080945D01*
X64860319Y-9193865D01*
X64985531Y-9257664D01*
X65031493Y-9281083D01*
X65122845Y-9310764D01*
X65214199Y-9340447D01*
X65403945Y-9370500D01*
X65403946Y-9370500D01*
X65596054Y-9370500D01*
X65596055Y-9370500D01*
X65785801Y-9340447D01*
X65804471Y-9334380D01*
X65815262Y-9330875D01*
X65968506Y-9281083D01*
X65968506Y-9281082D01*
X65968509Y-9281082D01*
X66139681Y-9193865D01*
X66295102Y-9080945D01*
X66430945Y-8945102D01*
X66543865Y-8789681D01*
X66631082Y-8618509D01*
X66690447Y-8435801D01*
X66720500Y-8246055D01*
X66720500Y-8053945D01*
X66690447Y-7864199D01*
X66631082Y-7681491D01*
X66543865Y-7510319D01*
X66430945Y-7354898D01*
X66295102Y-7219055D01*
X66139681Y-7106135D01*
X66119207Y-7095703D01*
X65968506Y-7018916D01*
X65785802Y-6959553D01*
X65690928Y-6944526D01*
X65596055Y-6929500D01*
X65403945Y-6929500D01*
X65340696Y-6939517D01*
X65214197Y-6959553D01*
X65031493Y-7018916D01*
X64860318Y-7106135D01*
X64809975Y-7142712D01*
X64704898Y-7219055D01*
X64704896Y-7219057D01*
X64704895Y-7219057D01*
X64569057Y-7354895D01*
X64569057Y-7354896D01*
X64569055Y-7354898D01*
X64545212Y-7387715D01*
X64456135Y-7510318D01*
X64368916Y-7681493D01*
X64309553Y-7864197D01*
X64279500Y-8053945D01*
X57650500Y-8053945D01*
X57650500Y-5513945D01*
X66819500Y-5513945D01*
X66819500Y-5706054D01*
X66849553Y-5895802D01*
X66908916Y-6078506D01*
X66908918Y-6078509D01*
X66996135Y-6249681D01*
X67109055Y-6405102D01*
X67244898Y-6540945D01*
X67400319Y-6653865D01*
X67462404Y-6685499D01*
X67571493Y-6741083D01*
X67662845Y-6770764D01*
X67754199Y-6800447D01*
X67943945Y-6830500D01*
X67943946Y-6830500D01*
X68136054Y-6830500D01*
X68136055Y-6830500D01*
X68325801Y-6800447D01*
X68508509Y-6741082D01*
X68679681Y-6653865D01*
X68835102Y-6540945D01*
X68970945Y-6405102D01*
X69083865Y-6249681D01*
X69171082Y-6078509D01*
X69230447Y-5895801D01*
X69260500Y-5706055D01*
X69260500Y-5513945D01*
X69230447Y-5324199D01*
X69200764Y-5232845D01*
X69171083Y-5141493D01*
X69165565Y-5130663D01*
X69083865Y-4970319D01*
X68970945Y-4814898D01*
X68835102Y-4679055D01*
X68679681Y-4566135D01*
X68508506Y-4478916D01*
X68325802Y-4419553D01*
X68230928Y-4404526D01*
X68136055Y-4389500D01*
X67943945Y-4389500D01*
X67880696Y-4399517D01*
X67754197Y-4419553D01*
X67571493Y-4478916D01*
X67400318Y-4566135D01*
X67340255Y-4609774D01*
X67244898Y-4679055D01*
X67244896Y-4679057D01*
X67244895Y-4679057D01*
X67109057Y-4814895D01*
X67109057Y-4814896D01*
X67109055Y-4814898D01*
X67100767Y-4826306D01*
X66996135Y-4970318D01*
X66908916Y-5141493D01*
X66849553Y-5324197D01*
X66819500Y-5513945D01*
X57650500Y-5513945D01*
X57650500Y-2973984D01*
X64280000Y-2973984D01*
X64280000Y-3166015D01*
X64310040Y-3355684D01*
X64369383Y-3538321D01*
X64456561Y-3709415D01*
X64477798Y-3738646D01*
X65100000Y-3116445D01*
X65100000Y-3122661D01*
X65127259Y-3224394D01*
X65179920Y-3315606D01*
X65254394Y-3390080D01*
X65345606Y-3442741D01*
X65447339Y-3470000D01*
X65453554Y-3470000D01*
X64831351Y-4092200D01*
X64831352Y-4092201D01*
X64860577Y-4113434D01*
X65031678Y-4200616D01*
X65214315Y-4259959D01*
X65403985Y-4290000D01*
X65596015Y-4290000D01*
X65785684Y-4259959D01*
X65968321Y-4200616D01*
X66139419Y-4113436D01*
X66168646Y-4092201D01*
X66168646Y-4092200D01*
X65546447Y-3470000D01*
X65552661Y-3470000D01*
X65654394Y-3442741D01*
X65745606Y-3390080D01*
X65820080Y-3315606D01*
X65872741Y-3224394D01*
X65900000Y-3122661D01*
X65900000Y-3116446D01*
X66522200Y-3738646D01*
X66522201Y-3738646D01*
X66543436Y-3709419D01*
X66630616Y-3538321D01*
X66689959Y-3355684D01*
X66720000Y-3166015D01*
X66720000Y-2973984D01*
X66689959Y-2784315D01*
X66630616Y-2601678D01*
X66543434Y-2430577D01*
X66522201Y-2401352D01*
X66522200Y-2401351D01*
X65900000Y-3023552D01*
X65900000Y-3017339D01*
X65872741Y-2915606D01*
X65820080Y-2824394D01*
X65745606Y-2749920D01*
X65654394Y-2697259D01*
X65552661Y-2670000D01*
X65546447Y-2670000D01*
X66168646Y-2047798D01*
X66139415Y-2026561D01*
X65968321Y-1939383D01*
X65785684Y-1880040D01*
X65596015Y-1850000D01*
X65403985Y-1850000D01*
X65214315Y-1880040D01*
X65031678Y-1939383D01*
X64860578Y-2026564D01*
X64831352Y-2047798D01*
X64831351Y-2047798D01*
X65453554Y-2670000D01*
X65447339Y-2670000D01*
X65345606Y-2697259D01*
X65254394Y-2749920D01*
X65179920Y-2824394D01*
X65127259Y-2915606D01*
X65100000Y-3017339D01*
X65100000Y-3023553D01*
X64477798Y-2401351D01*
X64477798Y-2401352D01*
X64456564Y-2430578D01*
X64369383Y-2601678D01*
X64310040Y-2784315D01*
X64280000Y-2973984D01*
X57650500Y-2973984D01*
X57650500Y-1435928D01*
X57625502Y-1310261D01*
X57625501Y-1310260D01*
X57625501Y-1310256D01*
X57576465Y-1191873D01*
X57576464Y-1191872D01*
X57573592Y-1186498D01*
X57574920Y-1185787D01*
X57556268Y-1126211D01*
X57574754Y-1058831D01*
X57626734Y-1012142D01*
X57680248Y-1000000D01*
X97240824Y-1000000D01*
X97307863Y-1019685D01*
X97328505Y-1036319D01*
X98963681Y-2671495D01*
X98997166Y-2732818D01*
X99000000Y-2759176D01*
X99000000Y-45240824D01*
X98980315Y-45307863D01*
X98963681Y-45328505D01*
X97328505Y-46963681D01*
X97267182Y-46997166D01*
X97240824Y-47000000D01*
X2759176Y-47000000D01*
X2692137Y-46980315D01*
X2671495Y-46963681D01*
X1036319Y-45328505D01*
X1002834Y-45267182D01*
X1000000Y-45240824D01*
X1000000Y-43862332D01*
X1899500Y-43862332D01*
X1899500Y-44137667D01*
X1899501Y-44137684D01*
X1935438Y-44410655D01*
X1935439Y-44410660D01*
X1935440Y-44410666D01*
X1935441Y-44410668D01*
X2006704Y-44676630D01*
X2112075Y-44931017D01*
X2112080Y-44931028D01*
X2189945Y-45065892D01*
X2249751Y-45169479D01*
X2249753Y-45169482D01*
X2249754Y-45169483D01*
X2417370Y-45387926D01*
X2417376Y-45387933D01*
X2612066Y-45582623D01*
X2612072Y-45582628D01*
X2830521Y-45750249D01*
X2983778Y-45838732D01*
X3068971Y-45887919D01*
X3068976Y-45887921D01*
X3068979Y-45887923D01*
X3323368Y-45993295D01*
X3589334Y-46064560D01*
X3862326Y-46100500D01*
X3862333Y-46100500D01*
X4137667Y-46100500D01*
X4137674Y-46100500D01*
X4410666Y-46064560D01*
X4676632Y-45993295D01*
X4931021Y-45887923D01*
X5169479Y-45750249D01*
X5387928Y-45582628D01*
X5582628Y-45387928D01*
X5750249Y-45169479D01*
X5887923Y-44931021D01*
X5993295Y-44676632D01*
X6064560Y-44410666D01*
X6100500Y-44137674D01*
X6100500Y-43862332D01*
X93899500Y-43862332D01*
X93899500Y-44137667D01*
X93899501Y-44137684D01*
X93935438Y-44410655D01*
X93935439Y-44410660D01*
X93935440Y-44410666D01*
X93935441Y-44410668D01*
X94006704Y-44676630D01*
X94112075Y-44931017D01*
X94112080Y-44931028D01*
X94189945Y-45065892D01*
X94249751Y-45169479D01*
X94249753Y-45169482D01*
X94249754Y-45169483D01*
X94417370Y-45387926D01*
X94417376Y-45387933D01*
X94612066Y-45582623D01*
X94612072Y-45582628D01*
X94830521Y-45750249D01*
X94983778Y-45838732D01*
X95068971Y-45887919D01*
X95068976Y-45887921D01*
X95068979Y-45887923D01*
X95323368Y-45993295D01*
X95589334Y-46064560D01*
X95862326Y-46100500D01*
X95862333Y-46100500D01*
X96137667Y-46100500D01*
X96137674Y-46100500D01*
X96410666Y-46064560D01*
X96676632Y-45993295D01*
X96931021Y-45887923D01*
X97169479Y-45750249D01*
X97387928Y-45582628D01*
X97582628Y-45387928D01*
X97750249Y-45169479D01*
X97887923Y-44931021D01*
X97993295Y-44676632D01*
X98064560Y-44410666D01*
X98100500Y-44137674D01*
X98100500Y-43862326D01*
X98064560Y-43589334D01*
X97993295Y-43323368D01*
X97887923Y-43068979D01*
X97887921Y-43068976D01*
X97887919Y-43068971D01*
X97838732Y-42983778D01*
X97750249Y-42830521D01*
X97582628Y-42612072D01*
X97582623Y-42612066D01*
X97387933Y-42417376D01*
X97387926Y-42417370D01*
X97169483Y-42249754D01*
X97169482Y-42249753D01*
X97169479Y-42249751D01*
X97074407Y-42194861D01*
X96931028Y-42112080D01*
X96931017Y-42112075D01*
X96676630Y-42006704D01*
X96543649Y-41971072D01*
X96410666Y-41935440D01*
X96410660Y-41935439D01*
X96410655Y-41935438D01*
X96137684Y-41899501D01*
X96137679Y-41899500D01*
X96137674Y-41899500D01*
X95862326Y-41899500D01*
X95862320Y-41899500D01*
X95862315Y-41899501D01*
X95589344Y-41935438D01*
X95589337Y-41935439D01*
X95589334Y-41935440D01*
X95533125Y-41950500D01*
X95323369Y-42006704D01*
X95068982Y-42112075D01*
X95068971Y-42112080D01*
X94830516Y-42249754D01*
X94612073Y-42417370D01*
X94612066Y-42417376D01*
X94417376Y-42612066D01*
X94417370Y-42612073D01*
X94249754Y-42830516D01*
X94112080Y-43068971D01*
X94112075Y-43068982D01*
X94006704Y-43323369D01*
X93935441Y-43589331D01*
X93935438Y-43589344D01*
X93899501Y-43862315D01*
X93899500Y-43862332D01*
X6100500Y-43862332D01*
X6100500Y-43862326D01*
X6064560Y-43589334D01*
X5993295Y-43323368D01*
X5887923Y-43068979D01*
X5887921Y-43068976D01*
X5887919Y-43068971D01*
X5838732Y-42983778D01*
X5750249Y-42830521D01*
X5582628Y-42612072D01*
X5582623Y-42612066D01*
X5387933Y-42417376D01*
X5387926Y-42417370D01*
X5169483Y-42249754D01*
X5169482Y-42249753D01*
X5169479Y-42249751D01*
X5074407Y-42194861D01*
X4931028Y-42112080D01*
X4931017Y-42112075D01*
X4676630Y-42006704D01*
X4543649Y-41971072D01*
X4410666Y-41935440D01*
X4410660Y-41935439D01*
X4410655Y-41935438D01*
X4137684Y-41899501D01*
X4137679Y-41899500D01*
X4137674Y-41899500D01*
X3862326Y-41899500D01*
X3862320Y-41899500D01*
X3862315Y-41899501D01*
X3589344Y-41935438D01*
X3589337Y-41935439D01*
X3589334Y-41935440D01*
X3533125Y-41950500D01*
X3323369Y-42006704D01*
X3068982Y-42112075D01*
X3068971Y-42112080D01*
X2830516Y-42249754D01*
X2612073Y-42417370D01*
X2612066Y-42417376D01*
X2417376Y-42612066D01*
X2417370Y-42612073D01*
X2249754Y-42830516D01*
X2112080Y-43068971D01*
X2112075Y-43068982D01*
X2006704Y-43323369D01*
X1935441Y-43589331D01*
X1935438Y-43589344D01*
X1899501Y-43862315D01*
X1899500Y-43862332D01*
X1000000Y-43862332D01*
X1000000Y-39381902D01*
X9249500Y-39381902D01*
X9249500Y-39618097D01*
X9286446Y-39851368D01*
X9359433Y-40075996D01*
X9466657Y-40286433D01*
X9605483Y-40477510D01*
X9772490Y-40644517D01*
X9963567Y-40783343D01*
X10062991Y-40834002D01*
X10174003Y-40890566D01*
X10174005Y-40890566D01*
X10174008Y-40890568D01*
X10294412Y-40929689D01*
X10398631Y-40963553D01*
X10631903Y-41000500D01*
X10631908Y-41000500D01*
X10868097Y-41000500D01*
X11101368Y-40963553D01*
X11325992Y-40890568D01*
X11536433Y-40783343D01*
X11727510Y-40644517D01*
X11894517Y-40477510D01*
X12033343Y-40286433D01*
X12140568Y-40075992D01*
X12213553Y-39851368D01*
X12250500Y-39618097D01*
X12250500Y-39381902D01*
X15749500Y-39381902D01*
X15749500Y-39618097D01*
X15786446Y-39851368D01*
X15859433Y-40075996D01*
X15966657Y-40286433D01*
X16105483Y-40477510D01*
X16272490Y-40644517D01*
X16463567Y-40783343D01*
X16562991Y-40834002D01*
X16674003Y-40890566D01*
X16674005Y-40890566D01*
X16674008Y-40890568D01*
X16794412Y-40929689D01*
X16898631Y-40963553D01*
X17131903Y-41000500D01*
X17131908Y-41000500D01*
X17368097Y-41000500D01*
X17601368Y-40963553D01*
X17825992Y-40890568D01*
X18036433Y-40783343D01*
X18227510Y-40644517D01*
X18394517Y-40477510D01*
X18533343Y-40286433D01*
X18640568Y-40075992D01*
X18713553Y-39851368D01*
X18750500Y-39618097D01*
X18750500Y-39381902D01*
X21249500Y-39381902D01*
X21249500Y-39618097D01*
X21286446Y-39851368D01*
X21359433Y-40075996D01*
X21466657Y-40286433D01*
X21605483Y-40477510D01*
X21772490Y-40644517D01*
X21963567Y-40783343D01*
X22062991Y-40834002D01*
X22174003Y-40890566D01*
X22174005Y-40890566D01*
X22174008Y-40890568D01*
X22294412Y-40929689D01*
X22398631Y-40963553D01*
X22631903Y-41000500D01*
X22631908Y-41000500D01*
X22868097Y-41000500D01*
X23101368Y-40963553D01*
X23325992Y-40890568D01*
X23536433Y-40783343D01*
X23727510Y-40644517D01*
X23894517Y-40477510D01*
X24033343Y-40286433D01*
X24140568Y-40075992D01*
X24213553Y-39851368D01*
X24250500Y-39618097D01*
X24250500Y-39381902D01*
X27749500Y-39381902D01*
X27749500Y-39618097D01*
X27786446Y-39851368D01*
X27859433Y-40075996D01*
X27966657Y-40286433D01*
X28105483Y-40477510D01*
X28272490Y-40644517D01*
X28463567Y-40783343D01*
X28562991Y-40834002D01*
X28674003Y-40890566D01*
X28674005Y-40890566D01*
X28674008Y-40890568D01*
X28794412Y-40929689D01*
X28898631Y-40963553D01*
X29131903Y-41000500D01*
X29131908Y-41000500D01*
X29368097Y-41000500D01*
X29601368Y-40963553D01*
X29825992Y-40890568D01*
X30036433Y-40783343D01*
X30227510Y-40644517D01*
X30394517Y-40477510D01*
X30533343Y-40286433D01*
X30640568Y-40075992D01*
X30713553Y-39851368D01*
X30750500Y-39618097D01*
X30750500Y-39381902D01*
X33249500Y-39381902D01*
X33249500Y-39618097D01*
X33286446Y-39851368D01*
X33359433Y-40075996D01*
X33466657Y-40286433D01*
X33605483Y-40477510D01*
X33772490Y-40644517D01*
X33963567Y-40783343D01*
X34062991Y-40834002D01*
X34174003Y-40890566D01*
X34174005Y-40890566D01*
X34174008Y-40890568D01*
X34294412Y-40929689D01*
X34398631Y-40963553D01*
X34631903Y-41000500D01*
X34631908Y-41000500D01*
X34868097Y-41000500D01*
X35101368Y-40963553D01*
X35325992Y-40890568D01*
X35536433Y-40783343D01*
X35727510Y-40644517D01*
X35894517Y-40477510D01*
X36033343Y-40286433D01*
X36140568Y-40075992D01*
X36213553Y-39851368D01*
X36250500Y-39618097D01*
X36250500Y-39381902D01*
X39749500Y-39381902D01*
X39749500Y-39618097D01*
X39786446Y-39851368D01*
X39859433Y-40075996D01*
X39966657Y-40286433D01*
X40105483Y-40477510D01*
X40272490Y-40644517D01*
X40463567Y-40783343D01*
X40562991Y-40834002D01*
X40674003Y-40890566D01*
X40674005Y-40890566D01*
X40674008Y-40890568D01*
X40794412Y-40929689D01*
X40898631Y-40963553D01*
X41131903Y-41000500D01*
X41131908Y-41000500D01*
X41368097Y-41000500D01*
X41601368Y-40963553D01*
X41825992Y-40890568D01*
X42036433Y-40783343D01*
X42227510Y-40644517D01*
X42394517Y-40477510D01*
X42533343Y-40286433D01*
X42640568Y-40075992D01*
X42713553Y-39851368D01*
X42750500Y-39618097D01*
X42750500Y-39381902D01*
X45249500Y-39381902D01*
X45249500Y-39618097D01*
X45286446Y-39851368D01*
X45359433Y-40075996D01*
X45466657Y-40286433D01*
X45605483Y-40477510D01*
X45772490Y-40644517D01*
X45963567Y-40783343D01*
X46062991Y-40834002D01*
X46174003Y-40890566D01*
X46174005Y-40890566D01*
X46174008Y-40890568D01*
X46294412Y-40929689D01*
X46398631Y-40963553D01*
X46631903Y-41000500D01*
X46631908Y-41000500D01*
X46868097Y-41000500D01*
X47101368Y-40963553D01*
X47325992Y-40890568D01*
X47536433Y-40783343D01*
X47727510Y-40644517D01*
X47894517Y-40477510D01*
X48033343Y-40286433D01*
X48140568Y-40075992D01*
X48213553Y-39851368D01*
X48250500Y-39618097D01*
X48250500Y-39381902D01*
X51749500Y-39381902D01*
X51749500Y-39618097D01*
X51786446Y-39851368D01*
X51859433Y-40075996D01*
X51966657Y-40286433D01*
X52105483Y-40477510D01*
X52272490Y-40644517D01*
X52463567Y-40783343D01*
X52562991Y-40834002D01*
X52674003Y-40890566D01*
X52674005Y-40890566D01*
X52674008Y-40890568D01*
X52794412Y-40929689D01*
X52898631Y-40963553D01*
X53131903Y-41000500D01*
X53131908Y-41000500D01*
X53368097Y-41000500D01*
X53601368Y-40963553D01*
X53825992Y-40890568D01*
X54036433Y-40783343D01*
X54227510Y-40644517D01*
X54394517Y-40477510D01*
X54533343Y-40286433D01*
X54640568Y-40075992D01*
X54713553Y-39851368D01*
X54750500Y-39618097D01*
X54750500Y-39381902D01*
X57249500Y-39381902D01*
X57249500Y-39618097D01*
X57286446Y-39851368D01*
X57359433Y-40075996D01*
X57466657Y-40286433D01*
X57605483Y-40477510D01*
X57772490Y-40644517D01*
X57963567Y-40783343D01*
X58062991Y-40834002D01*
X58174003Y-40890566D01*
X58174005Y-40890566D01*
X58174008Y-40890568D01*
X58294412Y-40929689D01*
X58398631Y-40963553D01*
X58631903Y-41000500D01*
X58631908Y-41000500D01*
X58868097Y-41000500D01*
X59101368Y-40963553D01*
X59325992Y-40890568D01*
X59536433Y-40783343D01*
X59727510Y-40644517D01*
X59894517Y-40477510D01*
X60033343Y-40286433D01*
X60140568Y-40075992D01*
X60213553Y-39851368D01*
X60250500Y-39618097D01*
X60250500Y-39381902D01*
X63749500Y-39381902D01*
X63749500Y-39618097D01*
X63786446Y-39851368D01*
X63859433Y-40075996D01*
X63966657Y-40286433D01*
X64105483Y-40477510D01*
X64272490Y-40644517D01*
X64463567Y-40783343D01*
X64562991Y-40834002D01*
X64674003Y-40890566D01*
X64674005Y-40890566D01*
X64674008Y-40890568D01*
X64794412Y-40929689D01*
X64898631Y-40963553D01*
X65131903Y-41000500D01*
X65131908Y-41000500D01*
X65368097Y-41000500D01*
X65601368Y-40963553D01*
X65825992Y-40890568D01*
X66036433Y-40783343D01*
X66227510Y-40644517D01*
X66394517Y-40477510D01*
X66533343Y-40286433D01*
X66640568Y-40075992D01*
X66713553Y-39851368D01*
X66750500Y-39618097D01*
X66750500Y-39381902D01*
X69249500Y-39381902D01*
X69249500Y-39618097D01*
X69286446Y-39851368D01*
X69359433Y-40075996D01*
X69466657Y-40286433D01*
X69605483Y-40477510D01*
X69772490Y-40644517D01*
X69963567Y-40783343D01*
X70062991Y-40834002D01*
X70174003Y-40890566D01*
X70174005Y-40890566D01*
X70174008Y-40890568D01*
X70294412Y-40929689D01*
X70398631Y-40963553D01*
X70631903Y-41000500D01*
X70631908Y-41000500D01*
X70868097Y-41000500D01*
X71101368Y-40963553D01*
X71325992Y-40890568D01*
X71536433Y-40783343D01*
X71727510Y-40644517D01*
X71894517Y-40477510D01*
X72033343Y-40286433D01*
X72140568Y-40075992D01*
X72213553Y-39851368D01*
X72250500Y-39618097D01*
X72250500Y-39381902D01*
X75749500Y-39381902D01*
X75749500Y-39618097D01*
X75786446Y-39851368D01*
X75859433Y-40075996D01*
X75966657Y-40286433D01*
X76105483Y-40477510D01*
X76272490Y-40644517D01*
X76463567Y-40783343D01*
X76562991Y-40834002D01*
X76674003Y-40890566D01*
X76674005Y-40890566D01*
X76674008Y-40890568D01*
X76794412Y-40929689D01*
X76898631Y-40963553D01*
X77131903Y-41000500D01*
X77131908Y-41000500D01*
X77368097Y-41000500D01*
X77601368Y-40963553D01*
X77825992Y-40890568D01*
X78036433Y-40783343D01*
X78227510Y-40644517D01*
X78394517Y-40477510D01*
X78533343Y-40286433D01*
X78640568Y-40075992D01*
X78713553Y-39851368D01*
X78750500Y-39618097D01*
X78750500Y-39381902D01*
X81249500Y-39381902D01*
X81249500Y-39618097D01*
X81286446Y-39851368D01*
X81359433Y-40075996D01*
X81466657Y-40286433D01*
X81605483Y-40477510D01*
X81772490Y-40644517D01*
X81963567Y-40783343D01*
X82062991Y-40834002D01*
X82174003Y-40890566D01*
X82174005Y-40890566D01*
X82174008Y-40890568D01*
X82294412Y-40929689D01*
X82398631Y-40963553D01*
X82631903Y-41000500D01*
X82631908Y-41000500D01*
X82868097Y-41000500D01*
X83101368Y-40963553D01*
X83325992Y-40890568D01*
X83536433Y-40783343D01*
X83727510Y-40644517D01*
X83894517Y-40477510D01*
X84033343Y-40286433D01*
X84140568Y-40075992D01*
X84213553Y-39851368D01*
X84250500Y-39618097D01*
X84250500Y-39381902D01*
X87749500Y-39381902D01*
X87749500Y-39618097D01*
X87786446Y-39851368D01*
X87859433Y-40075996D01*
X87966657Y-40286433D01*
X88105483Y-40477510D01*
X88272490Y-40644517D01*
X88463567Y-40783343D01*
X88562991Y-40834002D01*
X88674003Y-40890566D01*
X88674005Y-40890566D01*
X88674008Y-40890568D01*
X88794412Y-40929689D01*
X88898631Y-40963553D01*
X89131903Y-41000500D01*
X89131908Y-41000500D01*
X89368097Y-41000500D01*
X89601368Y-40963553D01*
X89825992Y-40890568D01*
X90036433Y-40783343D01*
X90227510Y-40644517D01*
X90394517Y-40477510D01*
X90533343Y-40286433D01*
X90640568Y-40075992D01*
X90713553Y-39851368D01*
X90750500Y-39618097D01*
X90750500Y-39381902D01*
X90713553Y-39148631D01*
X90640566Y-38924003D01*
X90533342Y-38713566D01*
X90394517Y-38522490D01*
X90227510Y-38355483D01*
X90036433Y-38216657D01*
X89825996Y-38109433D01*
X89601368Y-38036446D01*
X89368097Y-37999500D01*
X89368092Y-37999500D01*
X89131908Y-37999500D01*
X89131903Y-37999500D01*
X88898631Y-38036446D01*
X88674003Y-38109433D01*
X88463566Y-38216657D01*
X88354550Y-38295862D01*
X88272490Y-38355483D01*
X88272488Y-38355485D01*
X88272487Y-38355485D01*
X88105485Y-38522487D01*
X88105485Y-38522488D01*
X88105483Y-38522490D01*
X88045862Y-38604550D01*
X87966657Y-38713566D01*
X87859433Y-38924003D01*
X87786446Y-39148631D01*
X87749500Y-39381902D01*
X84250500Y-39381902D01*
X84213553Y-39148631D01*
X84140566Y-38924003D01*
X84033342Y-38713566D01*
X83894517Y-38522490D01*
X83727510Y-38355483D01*
X83536433Y-38216657D01*
X83325996Y-38109433D01*
X83101368Y-38036446D01*
X82868097Y-37999500D01*
X82868092Y-37999500D01*
X82631908Y-37999500D01*
X82631903Y-37999500D01*
X82398631Y-38036446D01*
X82174003Y-38109433D01*
X81963566Y-38216657D01*
X81854550Y-38295862D01*
X81772490Y-38355483D01*
X81772488Y-38355485D01*
X81772487Y-38355485D01*
X81605485Y-38522487D01*
X81605485Y-38522488D01*
X81605483Y-38522490D01*
X81545862Y-38604550D01*
X81466657Y-38713566D01*
X81359433Y-38924003D01*
X81286446Y-39148631D01*
X81249500Y-39381902D01*
X78750500Y-39381902D01*
X78713553Y-39148631D01*
X78640566Y-38924003D01*
X78533342Y-38713566D01*
X78394517Y-38522490D01*
X78227510Y-38355483D01*
X78036433Y-38216657D01*
X77825996Y-38109433D01*
X77601368Y-38036446D01*
X77368097Y-37999500D01*
X77368092Y-37999500D01*
X77131908Y-37999500D01*
X77131903Y-37999500D01*
X76898631Y-38036446D01*
X76674003Y-38109433D01*
X76463566Y-38216657D01*
X76354550Y-38295862D01*
X76272490Y-38355483D01*
X76272488Y-38355485D01*
X76272487Y-38355485D01*
X76105485Y-38522487D01*
X76105485Y-38522488D01*
X76105483Y-38522490D01*
X76045862Y-38604550D01*
X75966657Y-38713566D01*
X75859433Y-38924003D01*
X75786446Y-39148631D01*
X75749500Y-39381902D01*
X72250500Y-39381902D01*
X72213553Y-39148631D01*
X72140566Y-38924003D01*
X72033342Y-38713566D01*
X71894517Y-38522490D01*
X71727510Y-38355483D01*
X71536433Y-38216657D01*
X71325996Y-38109433D01*
X71101368Y-38036446D01*
X70868097Y-37999500D01*
X70868092Y-37999500D01*
X70631908Y-37999500D01*
X70631903Y-37999500D01*
X70398631Y-38036446D01*
X70174003Y-38109433D01*
X69963566Y-38216657D01*
X69854550Y-38295862D01*
X69772490Y-38355483D01*
X69772488Y-38355485D01*
X69772487Y-38355485D01*
X69605485Y-38522487D01*
X69605485Y-38522488D01*
X69605483Y-38522490D01*
X69545862Y-38604550D01*
X69466657Y-38713566D01*
X69359433Y-38924003D01*
X69286446Y-39148631D01*
X69249500Y-39381902D01*
X66750500Y-39381902D01*
X66713553Y-39148631D01*
X66640566Y-38924003D01*
X66533342Y-38713566D01*
X66394517Y-38522490D01*
X66227510Y-38355483D01*
X66036433Y-38216657D01*
X65825996Y-38109433D01*
X65601368Y-38036446D01*
X65368097Y-37999500D01*
X65368092Y-37999500D01*
X65131908Y-37999500D01*
X65131903Y-37999500D01*
X64898631Y-38036446D01*
X64674003Y-38109433D01*
X64463566Y-38216657D01*
X64354550Y-38295862D01*
X64272490Y-38355483D01*
X64272488Y-38355485D01*
X64272487Y-38355485D01*
X64105485Y-38522487D01*
X64105485Y-38522488D01*
X64105483Y-38522490D01*
X64045862Y-38604550D01*
X63966657Y-38713566D01*
X63859433Y-38924003D01*
X63786446Y-39148631D01*
X63749500Y-39381902D01*
X60250500Y-39381902D01*
X60213553Y-39148631D01*
X60140566Y-38924003D01*
X60033342Y-38713566D01*
X59894517Y-38522490D01*
X59727510Y-38355483D01*
X59536433Y-38216657D01*
X59325996Y-38109433D01*
X59101368Y-38036446D01*
X58868097Y-37999500D01*
X58868092Y-37999500D01*
X58631908Y-37999500D01*
X58631903Y-37999500D01*
X58398631Y-38036446D01*
X58174003Y-38109433D01*
X57963566Y-38216657D01*
X57854550Y-38295862D01*
X57772490Y-38355483D01*
X57772488Y-38355485D01*
X57772487Y-38355485D01*
X57605485Y-38522487D01*
X57605485Y-38522488D01*
X57605483Y-38522490D01*
X57545862Y-38604550D01*
X57466657Y-38713566D01*
X57359433Y-38924003D01*
X57286446Y-39148631D01*
X57249500Y-39381902D01*
X54750500Y-39381902D01*
X54713553Y-39148631D01*
X54640566Y-38924003D01*
X54533342Y-38713566D01*
X54394517Y-38522490D01*
X54227510Y-38355483D01*
X54036433Y-38216657D01*
X53825996Y-38109433D01*
X53601368Y-38036446D01*
X53368097Y-37999500D01*
X53368092Y-37999500D01*
X53131908Y-37999500D01*
X53131903Y-37999500D01*
X52898631Y-38036446D01*
X52674003Y-38109433D01*
X52463566Y-38216657D01*
X52354550Y-38295862D01*
X52272490Y-38355483D01*
X52272488Y-38355485D01*
X52272487Y-38355485D01*
X52105485Y-38522487D01*
X52105485Y-38522488D01*
X52105483Y-38522490D01*
X52045862Y-38604550D01*
X51966657Y-38713566D01*
X51859433Y-38924003D01*
X51786446Y-39148631D01*
X51749500Y-39381902D01*
X48250500Y-39381902D01*
X48213553Y-39148631D01*
X48140566Y-38924003D01*
X48033342Y-38713566D01*
X47894517Y-38522490D01*
X47727510Y-38355483D01*
X47536433Y-38216657D01*
X47325996Y-38109433D01*
X47101368Y-38036446D01*
X46868097Y-37999500D01*
X46868092Y-37999500D01*
X46631908Y-37999500D01*
X46631903Y-37999500D01*
X46398631Y-38036446D01*
X46174003Y-38109433D01*
X45963566Y-38216657D01*
X45854550Y-38295862D01*
X45772490Y-38355483D01*
X45772488Y-38355485D01*
X45772487Y-38355485D01*
X45605485Y-38522487D01*
X45605485Y-38522488D01*
X45605483Y-38522490D01*
X45545862Y-38604550D01*
X45466657Y-38713566D01*
X45359433Y-38924003D01*
X45286446Y-39148631D01*
X45249500Y-39381902D01*
X42750500Y-39381902D01*
X42713553Y-39148631D01*
X42640566Y-38924003D01*
X42533342Y-38713566D01*
X42394517Y-38522490D01*
X42227510Y-38355483D01*
X42036433Y-38216657D01*
X41825996Y-38109433D01*
X41601368Y-38036446D01*
X41368097Y-37999500D01*
X41368092Y-37999500D01*
X41131908Y-37999500D01*
X41131903Y-37999500D01*
X40898631Y-38036446D01*
X40674003Y-38109433D01*
X40463566Y-38216657D01*
X40354550Y-38295862D01*
X40272490Y-38355483D01*
X40272488Y-38355485D01*
X40272487Y-38355485D01*
X40105485Y-38522487D01*
X40105485Y-38522488D01*
X40105483Y-38522490D01*
X40045862Y-38604550D01*
X39966657Y-38713566D01*
X39859433Y-38924003D01*
X39786446Y-39148631D01*
X39749500Y-39381902D01*
X36250500Y-39381902D01*
X36213553Y-39148631D01*
X36140566Y-38924003D01*
X36033342Y-38713566D01*
X35894517Y-38522490D01*
X35727510Y-38355483D01*
X35536433Y-38216657D01*
X35325996Y-38109433D01*
X35101368Y-38036446D01*
X34868097Y-37999500D01*
X34868092Y-37999500D01*
X34631908Y-37999500D01*
X34631903Y-37999500D01*
X34398631Y-38036446D01*
X34174003Y-38109433D01*
X33963566Y-38216657D01*
X33854550Y-38295862D01*
X33772490Y-38355483D01*
X33772488Y-38355485D01*
X33772487Y-38355485D01*
X33605485Y-38522487D01*
X33605485Y-38522488D01*
X33605483Y-38522490D01*
X33545862Y-38604550D01*
X33466657Y-38713566D01*
X33359433Y-38924003D01*
X33286446Y-39148631D01*
X33249500Y-39381902D01*
X30750500Y-39381902D01*
X30713553Y-39148631D01*
X30640566Y-38924003D01*
X30533342Y-38713566D01*
X30394517Y-38522490D01*
X30227510Y-38355483D01*
X30036433Y-38216657D01*
X29825996Y-38109433D01*
X29601368Y-38036446D01*
X29368097Y-37999500D01*
X29368092Y-37999500D01*
X29131908Y-37999500D01*
X29131903Y-37999500D01*
X28898631Y-38036446D01*
X28674003Y-38109433D01*
X28463566Y-38216657D01*
X28354550Y-38295862D01*
X28272490Y-38355483D01*
X28272488Y-38355485D01*
X28272487Y-38355485D01*
X28105485Y-38522487D01*
X28105485Y-38522488D01*
X28105483Y-38522490D01*
X28045862Y-38604550D01*
X27966657Y-38713566D01*
X27859433Y-38924003D01*
X27786446Y-39148631D01*
X27749500Y-39381902D01*
X24250500Y-39381902D01*
X24213553Y-39148631D01*
X24140566Y-38924003D01*
X24033342Y-38713566D01*
X23894517Y-38522490D01*
X23727510Y-38355483D01*
X23536433Y-38216657D01*
X23325996Y-38109433D01*
X23101368Y-38036446D01*
X22868097Y-37999500D01*
X22868092Y-37999500D01*
X22631908Y-37999500D01*
X22631903Y-37999500D01*
X22398631Y-38036446D01*
X22174003Y-38109433D01*
X21963566Y-38216657D01*
X21854550Y-38295862D01*
X21772490Y-38355483D01*
X21772488Y-38355485D01*
X21772487Y-38355485D01*
X21605485Y-38522487D01*
X21605485Y-38522488D01*
X21605483Y-38522490D01*
X21545862Y-38604550D01*
X21466657Y-38713566D01*
X21359433Y-38924003D01*
X21286446Y-39148631D01*
X21249500Y-39381902D01*
X18750500Y-39381902D01*
X18713553Y-39148631D01*
X18640566Y-38924003D01*
X18533342Y-38713566D01*
X18394517Y-38522490D01*
X18227510Y-38355483D01*
X18036433Y-38216657D01*
X17825996Y-38109433D01*
X17601368Y-38036446D01*
X17368097Y-37999500D01*
X17368092Y-37999500D01*
X17131908Y-37999500D01*
X17131903Y-37999500D01*
X16898631Y-38036446D01*
X16674003Y-38109433D01*
X16463566Y-38216657D01*
X16354550Y-38295862D01*
X16272490Y-38355483D01*
X16272488Y-38355485D01*
X16272487Y-38355485D01*
X16105485Y-38522487D01*
X16105485Y-38522488D01*
X16105483Y-38522490D01*
X16045862Y-38604550D01*
X15966657Y-38713566D01*
X15859433Y-38924003D01*
X15786446Y-39148631D01*
X15749500Y-39381902D01*
X12250500Y-39381902D01*
X12213553Y-39148631D01*
X12140566Y-38924003D01*
X12033342Y-38713566D01*
X11894517Y-38522490D01*
X11727510Y-38355483D01*
X11536433Y-38216657D01*
X11325996Y-38109433D01*
X11101368Y-38036446D01*
X10868097Y-37999500D01*
X10868092Y-37999500D01*
X10631908Y-37999500D01*
X10631903Y-37999500D01*
X10398631Y-38036446D01*
X10174003Y-38109433D01*
X9963566Y-38216657D01*
X9854550Y-38295862D01*
X9772490Y-38355483D01*
X9772488Y-38355485D01*
X9772487Y-38355485D01*
X9605485Y-38522487D01*
X9605485Y-38522488D01*
X9605483Y-38522490D01*
X9545862Y-38604550D01*
X9466657Y-38713566D01*
X9359433Y-38924003D01*
X9286446Y-39148631D01*
X9249500Y-39381902D01*
X1000000Y-39381902D01*
X1000000Y-34881902D01*
X9249500Y-34881902D01*
X9249500Y-35118097D01*
X9286446Y-35351368D01*
X9359433Y-35575996D01*
X9466657Y-35786433D01*
X9605483Y-35977510D01*
X9772490Y-36144517D01*
X9963567Y-36283343D01*
X10062991Y-36334002D01*
X10174003Y-36390566D01*
X10174005Y-36390566D01*
X10174008Y-36390568D01*
X10294412Y-36429689D01*
X10398631Y-36463553D01*
X10631903Y-36500500D01*
X10631908Y-36500500D01*
X10868097Y-36500500D01*
X11101368Y-36463553D01*
X11325992Y-36390568D01*
X11536433Y-36283343D01*
X11727510Y-36144517D01*
X11894517Y-35977510D01*
X12033343Y-35786433D01*
X12140568Y-35575992D01*
X12213553Y-35351368D01*
X12250500Y-35118097D01*
X12250500Y-34881902D01*
X15749500Y-34881902D01*
X15749500Y-35118097D01*
X15786446Y-35351368D01*
X15859433Y-35575996D01*
X15966657Y-35786433D01*
X16105483Y-35977510D01*
X16272490Y-36144517D01*
X16463567Y-36283343D01*
X16562991Y-36334002D01*
X16674003Y-36390566D01*
X16674005Y-36390566D01*
X16674008Y-36390568D01*
X16794412Y-36429689D01*
X16898631Y-36463553D01*
X17131903Y-36500500D01*
X17131908Y-36500500D01*
X17368097Y-36500500D01*
X17601368Y-36463553D01*
X17825992Y-36390568D01*
X18036433Y-36283343D01*
X18227510Y-36144517D01*
X18394517Y-35977510D01*
X18533343Y-35786433D01*
X18640568Y-35575992D01*
X18713553Y-35351368D01*
X18750500Y-35118097D01*
X18750500Y-34881902D01*
X21249500Y-34881902D01*
X21249500Y-35118097D01*
X21286446Y-35351368D01*
X21359433Y-35575996D01*
X21466657Y-35786433D01*
X21605483Y-35977510D01*
X21772490Y-36144517D01*
X21963567Y-36283343D01*
X22062991Y-36334002D01*
X22174003Y-36390566D01*
X22174005Y-36390566D01*
X22174008Y-36390568D01*
X22294412Y-36429689D01*
X22398631Y-36463553D01*
X22631903Y-36500500D01*
X22631908Y-36500500D01*
X22868097Y-36500500D01*
X23101368Y-36463553D01*
X23325992Y-36390568D01*
X23536433Y-36283343D01*
X23727510Y-36144517D01*
X23894517Y-35977510D01*
X24033343Y-35786433D01*
X24140568Y-35575992D01*
X24213553Y-35351368D01*
X24250500Y-35118097D01*
X24250500Y-34881902D01*
X27749500Y-34881902D01*
X27749500Y-35118097D01*
X27786446Y-35351368D01*
X27859433Y-35575996D01*
X27966657Y-35786433D01*
X28105483Y-35977510D01*
X28272490Y-36144517D01*
X28463567Y-36283343D01*
X28562991Y-36334002D01*
X28674003Y-36390566D01*
X28674005Y-36390566D01*
X28674008Y-36390568D01*
X28794412Y-36429689D01*
X28898631Y-36463553D01*
X29131903Y-36500500D01*
X29131908Y-36500500D01*
X29368097Y-36500500D01*
X29601368Y-36463553D01*
X29825992Y-36390568D01*
X30036433Y-36283343D01*
X30227510Y-36144517D01*
X30394517Y-35977510D01*
X30533343Y-35786433D01*
X30640568Y-35575992D01*
X30713553Y-35351368D01*
X30750500Y-35118097D01*
X30750500Y-34881902D01*
X33249500Y-34881902D01*
X33249500Y-35118097D01*
X33286446Y-35351368D01*
X33359433Y-35575996D01*
X33466657Y-35786433D01*
X33605483Y-35977510D01*
X33772490Y-36144517D01*
X33963567Y-36283343D01*
X34062991Y-36334002D01*
X34174003Y-36390566D01*
X34174005Y-36390566D01*
X34174008Y-36390568D01*
X34294412Y-36429689D01*
X34398631Y-36463553D01*
X34631903Y-36500500D01*
X34631908Y-36500500D01*
X34868097Y-36500500D01*
X35101368Y-36463553D01*
X35325992Y-36390568D01*
X35536433Y-36283343D01*
X35727510Y-36144517D01*
X35894517Y-35977510D01*
X36033343Y-35786433D01*
X36140568Y-35575992D01*
X36213553Y-35351368D01*
X36250500Y-35118097D01*
X36250500Y-34881902D01*
X39749500Y-34881902D01*
X39749500Y-35118097D01*
X39786446Y-35351368D01*
X39859433Y-35575996D01*
X39966657Y-35786433D01*
X40105483Y-35977510D01*
X40272490Y-36144517D01*
X40463567Y-36283343D01*
X40562991Y-36334002D01*
X40674003Y-36390566D01*
X40674005Y-36390566D01*
X40674008Y-36390568D01*
X40794412Y-36429689D01*
X40898631Y-36463553D01*
X41131903Y-36500500D01*
X41131908Y-36500500D01*
X41368097Y-36500500D01*
X41601368Y-36463553D01*
X41825992Y-36390568D01*
X42036433Y-36283343D01*
X42227510Y-36144517D01*
X42394517Y-35977510D01*
X42533343Y-35786433D01*
X42640568Y-35575992D01*
X42713553Y-35351368D01*
X42750500Y-35118097D01*
X42750500Y-34881902D01*
X45249500Y-34881902D01*
X45249500Y-35118097D01*
X45286446Y-35351368D01*
X45359433Y-35575996D01*
X45466657Y-35786433D01*
X45605483Y-35977510D01*
X45772490Y-36144517D01*
X45963567Y-36283343D01*
X46062991Y-36334002D01*
X46174003Y-36390566D01*
X46174005Y-36390566D01*
X46174008Y-36390568D01*
X46294412Y-36429689D01*
X46398631Y-36463553D01*
X46631903Y-36500500D01*
X46631908Y-36500500D01*
X46868097Y-36500500D01*
X47101368Y-36463553D01*
X47325992Y-36390568D01*
X47536433Y-36283343D01*
X47727510Y-36144517D01*
X47894517Y-35977510D01*
X48033343Y-35786433D01*
X48140568Y-35575992D01*
X48213553Y-35351368D01*
X48250500Y-35118097D01*
X48250500Y-34881902D01*
X51749500Y-34881902D01*
X51749500Y-35118097D01*
X51786446Y-35351368D01*
X51859433Y-35575996D01*
X51966657Y-35786433D01*
X52105483Y-35977510D01*
X52272490Y-36144517D01*
X52463567Y-36283343D01*
X52562991Y-36334002D01*
X52674003Y-36390566D01*
X52674005Y-36390566D01*
X52674008Y-36390568D01*
X52794412Y-36429689D01*
X52898631Y-36463553D01*
X53131903Y-36500500D01*
X53131908Y-36500500D01*
X53368097Y-36500500D01*
X53601368Y-36463553D01*
X53825992Y-36390568D01*
X54036433Y-36283343D01*
X54227510Y-36144517D01*
X54394517Y-35977510D01*
X54533343Y-35786433D01*
X54640568Y-35575992D01*
X54713553Y-35351368D01*
X54750500Y-35118097D01*
X54750500Y-34881902D01*
X57249500Y-34881902D01*
X57249500Y-35118097D01*
X57286446Y-35351368D01*
X57359433Y-35575996D01*
X57466657Y-35786433D01*
X57605483Y-35977510D01*
X57772490Y-36144517D01*
X57963567Y-36283343D01*
X58062991Y-36334002D01*
X58174003Y-36390566D01*
X58174005Y-36390566D01*
X58174008Y-36390568D01*
X58294412Y-36429689D01*
X58398631Y-36463553D01*
X58631903Y-36500500D01*
X58631908Y-36500500D01*
X58868097Y-36500500D01*
X59101368Y-36463553D01*
X59325992Y-36390568D01*
X59536433Y-36283343D01*
X59727510Y-36144517D01*
X59894517Y-35977510D01*
X60033343Y-35786433D01*
X60140568Y-35575992D01*
X60213553Y-35351368D01*
X60250500Y-35118097D01*
X60250500Y-34881902D01*
X63749500Y-34881902D01*
X63749500Y-35118097D01*
X63786446Y-35351368D01*
X63859433Y-35575996D01*
X63966657Y-35786433D01*
X64105483Y-35977510D01*
X64272490Y-36144517D01*
X64463567Y-36283343D01*
X64562991Y-36334002D01*
X64674003Y-36390566D01*
X64674005Y-36390566D01*
X64674008Y-36390568D01*
X64794412Y-36429689D01*
X64898631Y-36463553D01*
X65131903Y-36500500D01*
X65131908Y-36500500D01*
X65368097Y-36500500D01*
X65601368Y-36463553D01*
X65825992Y-36390568D01*
X66036433Y-36283343D01*
X66227510Y-36144517D01*
X66394517Y-35977510D01*
X66533343Y-35786433D01*
X66640568Y-35575992D01*
X66713553Y-35351368D01*
X66750500Y-35118097D01*
X66750500Y-34881902D01*
X69249500Y-34881902D01*
X69249500Y-35118097D01*
X69286446Y-35351368D01*
X69359433Y-35575996D01*
X69466657Y-35786433D01*
X69605483Y-35977510D01*
X69772490Y-36144517D01*
X69963567Y-36283343D01*
X70062991Y-36334002D01*
X70174003Y-36390566D01*
X70174005Y-36390566D01*
X70174008Y-36390568D01*
X70294412Y-36429689D01*
X70398631Y-36463553D01*
X70631903Y-36500500D01*
X70631908Y-36500500D01*
X70868097Y-36500500D01*
X71101368Y-36463553D01*
X71325992Y-36390568D01*
X71536433Y-36283343D01*
X71727510Y-36144517D01*
X71894517Y-35977510D01*
X72033343Y-35786433D01*
X72140568Y-35575992D01*
X72213553Y-35351368D01*
X72250500Y-35118097D01*
X72250500Y-34881902D01*
X75749500Y-34881902D01*
X75749500Y-35118097D01*
X75786446Y-35351368D01*
X75859433Y-35575996D01*
X75966657Y-35786433D01*
X76105483Y-35977510D01*
X76272490Y-36144517D01*
X76463567Y-36283343D01*
X76562991Y-36334002D01*
X76674003Y-36390566D01*
X76674005Y-36390566D01*
X76674008Y-36390568D01*
X76794412Y-36429689D01*
X76898631Y-36463553D01*
X77131903Y-36500500D01*
X77131908Y-36500500D01*
X77368097Y-36500500D01*
X77601368Y-36463553D01*
X77825992Y-36390568D01*
X78036433Y-36283343D01*
X78227510Y-36144517D01*
X78394517Y-35977510D01*
X78533343Y-35786433D01*
X78640568Y-35575992D01*
X78713553Y-35351368D01*
X78750500Y-35118097D01*
X78750500Y-34881902D01*
X81249500Y-34881902D01*
X81249500Y-35118097D01*
X81286446Y-35351368D01*
X81359433Y-35575996D01*
X81466657Y-35786433D01*
X81605483Y-35977510D01*
X81772490Y-36144517D01*
X81963567Y-36283343D01*
X82062991Y-36334002D01*
X82174003Y-36390566D01*
X82174005Y-36390566D01*
X82174008Y-36390568D01*
X82294412Y-36429689D01*
X82398631Y-36463553D01*
X82631903Y-36500500D01*
X82631908Y-36500500D01*
X82868097Y-36500500D01*
X83101368Y-36463553D01*
X83325992Y-36390568D01*
X83536433Y-36283343D01*
X83727510Y-36144517D01*
X83894517Y-35977510D01*
X84033343Y-35786433D01*
X84140568Y-35575992D01*
X84213553Y-35351368D01*
X84250500Y-35118097D01*
X84250500Y-34881902D01*
X87749500Y-34881902D01*
X87749500Y-35118097D01*
X87786446Y-35351368D01*
X87859433Y-35575996D01*
X87966657Y-35786433D01*
X88105483Y-35977510D01*
X88272490Y-36144517D01*
X88463567Y-36283343D01*
X88562991Y-36334002D01*
X88674003Y-36390566D01*
X88674005Y-36390566D01*
X88674008Y-36390568D01*
X88794412Y-36429689D01*
X88898631Y-36463553D01*
X89131903Y-36500500D01*
X89131908Y-36500500D01*
X89368097Y-36500500D01*
X89601368Y-36463553D01*
X89825992Y-36390568D01*
X90036433Y-36283343D01*
X90227510Y-36144517D01*
X90394517Y-35977510D01*
X90533343Y-35786433D01*
X90640568Y-35575992D01*
X90713553Y-35351368D01*
X90750500Y-35118097D01*
X90750500Y-34881902D01*
X90713553Y-34648631D01*
X90640566Y-34424003D01*
X90533342Y-34213566D01*
X90394517Y-34022490D01*
X90227510Y-33855483D01*
X90036433Y-33716657D01*
X89825996Y-33609433D01*
X89601368Y-33536446D01*
X89368097Y-33499500D01*
X89368092Y-33499500D01*
X89131908Y-33499500D01*
X89131903Y-33499500D01*
X88898631Y-33536446D01*
X88674003Y-33609433D01*
X88463566Y-33716657D01*
X88354550Y-33795862D01*
X88272490Y-33855483D01*
X88272488Y-33855485D01*
X88272487Y-33855485D01*
X88105485Y-34022487D01*
X88105485Y-34022488D01*
X88105483Y-34022490D01*
X88045862Y-34104550D01*
X87966657Y-34213566D01*
X87859433Y-34424003D01*
X87786446Y-34648631D01*
X87749500Y-34881902D01*
X84250500Y-34881902D01*
X84213553Y-34648631D01*
X84140566Y-34424003D01*
X84033342Y-34213566D01*
X83894517Y-34022490D01*
X83727510Y-33855483D01*
X83536433Y-33716657D01*
X83325996Y-33609433D01*
X83101368Y-33536446D01*
X82868097Y-33499500D01*
X82868092Y-33499500D01*
X82631908Y-33499500D01*
X82631903Y-33499500D01*
X82398631Y-33536446D01*
X82174003Y-33609433D01*
X81963566Y-33716657D01*
X81854550Y-33795862D01*
X81772490Y-33855483D01*
X81772488Y-33855485D01*
X81772487Y-33855485D01*
X81605485Y-34022487D01*
X81605485Y-34022488D01*
X81605483Y-34022490D01*
X81545862Y-34104550D01*
X81466657Y-34213566D01*
X81359433Y-34424003D01*
X81286446Y-34648631D01*
X81249500Y-34881902D01*
X78750500Y-34881902D01*
X78713553Y-34648631D01*
X78640566Y-34424003D01*
X78533342Y-34213566D01*
X78394517Y-34022490D01*
X78227510Y-33855483D01*
X78036433Y-33716657D01*
X77825996Y-33609433D01*
X77601368Y-33536446D01*
X77368097Y-33499500D01*
X77368092Y-33499500D01*
X77131908Y-33499500D01*
X77131903Y-33499500D01*
X76898631Y-33536446D01*
X76674003Y-33609433D01*
X76463566Y-33716657D01*
X76354550Y-33795862D01*
X76272490Y-33855483D01*
X76272488Y-33855485D01*
X76272487Y-33855485D01*
X76105485Y-34022487D01*
X76105485Y-34022488D01*
X76105483Y-34022490D01*
X76045862Y-34104550D01*
X75966657Y-34213566D01*
X75859433Y-34424003D01*
X75786446Y-34648631D01*
X75749500Y-34881902D01*
X72250500Y-34881902D01*
X72213553Y-34648631D01*
X72140566Y-34424003D01*
X72033342Y-34213566D01*
X71894517Y-34022490D01*
X71727510Y-33855483D01*
X71536433Y-33716657D01*
X71325996Y-33609433D01*
X71101368Y-33536446D01*
X70868097Y-33499500D01*
X70868092Y-33499500D01*
X70631908Y-33499500D01*
X70631903Y-33499500D01*
X70398631Y-33536446D01*
X70174003Y-33609433D01*
X69963566Y-33716657D01*
X69854550Y-33795862D01*
X69772490Y-33855483D01*
X69772488Y-33855485D01*
X69772487Y-33855485D01*
X69605485Y-34022487D01*
X69605485Y-34022488D01*
X69605483Y-34022490D01*
X69545862Y-34104550D01*
X69466657Y-34213566D01*
X69359433Y-34424003D01*
X69286446Y-34648631D01*
X69249500Y-34881902D01*
X66750500Y-34881902D01*
X66713553Y-34648631D01*
X66640566Y-34424003D01*
X66533342Y-34213566D01*
X66394517Y-34022490D01*
X66227510Y-33855483D01*
X66036433Y-33716657D01*
X65825996Y-33609433D01*
X65601368Y-33536446D01*
X65368097Y-33499500D01*
X65368092Y-33499500D01*
X65131908Y-33499500D01*
X65131903Y-33499500D01*
X64898631Y-33536446D01*
X64674003Y-33609433D01*
X64463566Y-33716657D01*
X64354550Y-33795862D01*
X64272490Y-33855483D01*
X64272488Y-33855485D01*
X64272487Y-33855485D01*
X64105485Y-34022487D01*
X64105485Y-34022488D01*
X64105483Y-34022490D01*
X64045862Y-34104550D01*
X63966657Y-34213566D01*
X63859433Y-34424003D01*
X63786446Y-34648631D01*
X63749500Y-34881902D01*
X60250500Y-34881902D01*
X60213553Y-34648631D01*
X60140566Y-34424003D01*
X60033342Y-34213566D01*
X59894517Y-34022490D01*
X59727510Y-33855483D01*
X59536433Y-33716657D01*
X59325996Y-33609433D01*
X59101368Y-33536446D01*
X58868097Y-33499500D01*
X58868092Y-33499500D01*
X58631908Y-33499500D01*
X58631903Y-33499500D01*
X58398631Y-33536446D01*
X58174003Y-33609433D01*
X57963566Y-33716657D01*
X57854550Y-33795862D01*
X57772490Y-33855483D01*
X57772488Y-33855485D01*
X57772487Y-33855485D01*
X57605485Y-34022487D01*
X57605485Y-34022488D01*
X57605483Y-34022490D01*
X57545862Y-34104550D01*
X57466657Y-34213566D01*
X57359433Y-34424003D01*
X57286446Y-34648631D01*
X57249500Y-34881902D01*
X54750500Y-34881902D01*
X54713553Y-34648631D01*
X54640566Y-34424003D01*
X54533342Y-34213566D01*
X54394517Y-34022490D01*
X54227510Y-33855483D01*
X54036433Y-33716657D01*
X53825996Y-33609433D01*
X53601368Y-33536446D01*
X53368097Y-33499500D01*
X53368092Y-33499500D01*
X53131908Y-33499500D01*
X53131903Y-33499500D01*
X52898631Y-33536446D01*
X52674003Y-33609433D01*
X52463566Y-33716657D01*
X52354550Y-33795862D01*
X52272490Y-33855483D01*
X52272488Y-33855485D01*
X52272487Y-33855485D01*
X52105485Y-34022487D01*
X52105485Y-34022488D01*
X52105483Y-34022490D01*
X52045862Y-34104550D01*
X51966657Y-34213566D01*
X51859433Y-34424003D01*
X51786446Y-34648631D01*
X51749500Y-34881902D01*
X48250500Y-34881902D01*
X48213553Y-34648631D01*
X48140566Y-34424003D01*
X48033342Y-34213566D01*
X47894517Y-34022490D01*
X47727510Y-33855483D01*
X47536433Y-33716657D01*
X47325996Y-33609433D01*
X47101368Y-33536446D01*
X46868097Y-33499500D01*
X46868092Y-33499500D01*
X46631908Y-33499500D01*
X46631903Y-33499500D01*
X46398631Y-33536446D01*
X46174003Y-33609433D01*
X45963566Y-33716657D01*
X45854550Y-33795862D01*
X45772490Y-33855483D01*
X45772488Y-33855485D01*
X45772487Y-33855485D01*
X45605485Y-34022487D01*
X45605485Y-34022488D01*
X45605483Y-34022490D01*
X45545862Y-34104550D01*
X45466657Y-34213566D01*
X45359433Y-34424003D01*
X45286446Y-34648631D01*
X45249500Y-34881902D01*
X42750500Y-34881902D01*
X42713553Y-34648631D01*
X42640566Y-34424003D01*
X42533342Y-34213566D01*
X42394517Y-34022490D01*
X42227510Y-33855483D01*
X42036433Y-33716657D01*
X41825996Y-33609433D01*
X41601368Y-33536446D01*
X41368097Y-33499500D01*
X41368092Y-33499500D01*
X41131908Y-33499500D01*
X41131903Y-33499500D01*
X40898631Y-33536446D01*
X40674003Y-33609433D01*
X40463566Y-33716657D01*
X40354550Y-33795862D01*
X40272490Y-33855483D01*
X40272488Y-33855485D01*
X40272487Y-33855485D01*
X40105485Y-34022487D01*
X40105485Y-34022488D01*
X40105483Y-34022490D01*
X40045862Y-34104550D01*
X39966657Y-34213566D01*
X39859433Y-34424003D01*
X39786446Y-34648631D01*
X39749500Y-34881902D01*
X36250500Y-34881902D01*
X36213553Y-34648631D01*
X36140566Y-34424003D01*
X36033342Y-34213566D01*
X35894517Y-34022490D01*
X35727510Y-33855483D01*
X35536433Y-33716657D01*
X35325996Y-33609433D01*
X35101368Y-33536446D01*
X34868097Y-33499500D01*
X34868092Y-33499500D01*
X34631908Y-33499500D01*
X34631903Y-33499500D01*
X34398631Y-33536446D01*
X34174003Y-33609433D01*
X33963566Y-33716657D01*
X33854550Y-33795862D01*
X33772490Y-33855483D01*
X33772488Y-33855485D01*
X33772487Y-33855485D01*
X33605485Y-34022487D01*
X33605485Y-34022488D01*
X33605483Y-34022490D01*
X33545862Y-34104550D01*
X33466657Y-34213566D01*
X33359433Y-34424003D01*
X33286446Y-34648631D01*
X33249500Y-34881902D01*
X30750500Y-34881902D01*
X30713553Y-34648631D01*
X30640566Y-34424003D01*
X30533342Y-34213566D01*
X30394517Y-34022490D01*
X30227510Y-33855483D01*
X30036433Y-33716657D01*
X29825996Y-33609433D01*
X29601368Y-33536446D01*
X29368097Y-33499500D01*
X29368092Y-33499500D01*
X29131908Y-33499500D01*
X29131903Y-33499500D01*
X28898631Y-33536446D01*
X28674003Y-33609433D01*
X28463566Y-33716657D01*
X28354550Y-33795862D01*
X28272490Y-33855483D01*
X28272488Y-33855485D01*
X28272487Y-33855485D01*
X28105485Y-34022487D01*
X28105485Y-34022488D01*
X28105483Y-34022490D01*
X28045862Y-34104550D01*
X27966657Y-34213566D01*
X27859433Y-34424003D01*
X27786446Y-34648631D01*
X27749500Y-34881902D01*
X24250500Y-34881902D01*
X24213553Y-34648631D01*
X24140566Y-34424003D01*
X24033342Y-34213566D01*
X23894517Y-34022490D01*
X23727510Y-33855483D01*
X23536433Y-33716657D01*
X23325996Y-33609433D01*
X23101368Y-33536446D01*
X22868097Y-33499500D01*
X22868092Y-33499500D01*
X22631908Y-33499500D01*
X22631903Y-33499500D01*
X22398631Y-33536446D01*
X22174003Y-33609433D01*
X21963566Y-33716657D01*
X21854550Y-33795862D01*
X21772490Y-33855483D01*
X21772488Y-33855485D01*
X21772487Y-33855485D01*
X21605485Y-34022487D01*
X21605485Y-34022488D01*
X21605483Y-34022490D01*
X21545862Y-34104550D01*
X21466657Y-34213566D01*
X21359433Y-34424003D01*
X21286446Y-34648631D01*
X21249500Y-34881902D01*
X18750500Y-34881902D01*
X18713553Y-34648631D01*
X18640566Y-34424003D01*
X18533342Y-34213566D01*
X18394517Y-34022490D01*
X18227510Y-33855483D01*
X18036433Y-33716657D01*
X17825996Y-33609433D01*
X17601368Y-33536446D01*
X17368097Y-33499500D01*
X17368092Y-33499500D01*
X17131908Y-33499500D01*
X17131903Y-33499500D01*
X16898631Y-33536446D01*
X16674003Y-33609433D01*
X16463566Y-33716657D01*
X16354550Y-33795862D01*
X16272490Y-33855483D01*
X16272488Y-33855485D01*
X16272487Y-33855485D01*
X16105485Y-34022487D01*
X16105485Y-34022488D01*
X16105483Y-34022490D01*
X16045862Y-34104550D01*
X15966657Y-34213566D01*
X15859433Y-34424003D01*
X15786446Y-34648631D01*
X15749500Y-34881902D01*
X12250500Y-34881902D01*
X12213553Y-34648631D01*
X12140566Y-34424003D01*
X12033342Y-34213566D01*
X11894517Y-34022490D01*
X11727510Y-33855483D01*
X11536433Y-33716657D01*
X11325996Y-33609433D01*
X11101368Y-33536446D01*
X10868097Y-33499500D01*
X10868092Y-33499500D01*
X10631908Y-33499500D01*
X10631903Y-33499500D01*
X10398631Y-33536446D01*
X10174003Y-33609433D01*
X9963566Y-33716657D01*
X9854550Y-33795862D01*
X9772490Y-33855483D01*
X9772488Y-33855485D01*
X9772487Y-33855485D01*
X9605485Y-34022487D01*
X9605485Y-34022488D01*
X9605483Y-34022490D01*
X9545862Y-34104550D01*
X9466657Y-34213566D01*
X9359433Y-34424003D01*
X9286446Y-34648631D01*
X9249500Y-34881902D01*
X1000000Y-34881902D01*
X1000000Y-23362332D01*
X1399500Y-23362332D01*
X1399500Y-23637667D01*
X1399501Y-23637684D01*
X1435438Y-23910655D01*
X1435439Y-23910660D01*
X1435440Y-23910666D01*
X1435441Y-23910668D01*
X1506704Y-24176630D01*
X1612075Y-24431017D01*
X1612080Y-24431028D01*
X1691809Y-24569121D01*
X1749751Y-24669479D01*
X1749753Y-24669482D01*
X1749754Y-24669483D01*
X1917370Y-24887926D01*
X1917376Y-24887933D01*
X2112066Y-25082623D01*
X2112072Y-25082628D01*
X2330521Y-25250249D01*
X2483778Y-25338732D01*
X2568971Y-25387919D01*
X2568976Y-25387921D01*
X2568979Y-25387923D01*
X2823368Y-25493295D01*
X3089334Y-25564560D01*
X3362326Y-25600500D01*
X3362333Y-25600500D01*
X3637667Y-25600500D01*
X3637674Y-25600500D01*
X3910666Y-25564560D01*
X4176632Y-25493295D01*
X4431021Y-25387923D01*
X4669479Y-25250249D01*
X4887928Y-25082628D01*
X5082628Y-24887928D01*
X5250249Y-24669479D01*
X5387923Y-24431021D01*
X5401747Y-24397648D01*
X8889500Y-24397648D01*
X8889500Y-24602351D01*
X8921522Y-24804534D01*
X8984781Y-24999223D01*
X9077715Y-25181613D01*
X9198028Y-25347213D01*
X9342786Y-25491971D01*
X9442700Y-25564561D01*
X9508390Y-25612287D01*
X9624607Y-25671503D01*
X9690776Y-25705218D01*
X9690778Y-25705218D01*
X9690781Y-25705220D01*
X9795137Y-25739127D01*
X9885465Y-25768477D01*
X9986557Y-25784488D01*
X10087648Y-25800500D01*
X10087649Y-25800500D01*
X10292351Y-25800500D01*
X10292352Y-25800500D01*
X10494534Y-25768477D01*
X10689219Y-25705220D01*
X10871610Y-25612287D01*
X10964590Y-25544732D01*
X11037213Y-25491971D01*
X11037215Y-25491968D01*
X11037219Y-25491966D01*
X11181966Y-25347219D01*
X11181968Y-25347215D01*
X11181971Y-25347213D01*
X11252421Y-25250245D01*
X11302287Y-25181610D01*
X11395220Y-24999219D01*
X11458477Y-24804534D01*
X11490500Y-24602352D01*
X11490500Y-24397648D01*
X16509500Y-24397648D01*
X16509500Y-24602351D01*
X16541522Y-24804534D01*
X16604781Y-24999223D01*
X16697715Y-25181613D01*
X16818028Y-25347213D01*
X16962786Y-25491971D01*
X17062700Y-25564561D01*
X17128390Y-25612287D01*
X17244607Y-25671503D01*
X17310776Y-25705218D01*
X17310778Y-25705218D01*
X17310781Y-25705220D01*
X17415137Y-25739127D01*
X17505465Y-25768477D01*
X17606557Y-25784488D01*
X17707648Y-25800500D01*
X17707649Y-25800500D01*
X17912351Y-25800500D01*
X17912352Y-25800500D01*
X18114534Y-25768477D01*
X18309219Y-25705220D01*
X18491610Y-25612287D01*
X18584590Y-25544732D01*
X18657213Y-25491971D01*
X18657215Y-25491968D01*
X18657219Y-25491966D01*
X18801966Y-25347219D01*
X18801968Y-25347215D01*
X18801971Y-25347213D01*
X18872421Y-25250245D01*
X18922287Y-25181610D01*
X19015220Y-24999219D01*
X19078477Y-24804534D01*
X19110500Y-24602352D01*
X19110500Y-24397648D01*
X20889500Y-24397648D01*
X20889500Y-24602351D01*
X20921522Y-24804534D01*
X20984781Y-24999223D01*
X21077715Y-25181613D01*
X21198028Y-25347213D01*
X21342786Y-25491971D01*
X21442700Y-25564561D01*
X21508390Y-25612287D01*
X21624607Y-25671503D01*
X21690776Y-25705218D01*
X21690778Y-25705218D01*
X21690781Y-25705220D01*
X21795137Y-25739127D01*
X21885465Y-25768477D01*
X21986557Y-25784488D01*
X22087648Y-25800500D01*
X22087649Y-25800500D01*
X22292351Y-25800500D01*
X22292352Y-25800500D01*
X22494534Y-25768477D01*
X22689219Y-25705220D01*
X22871610Y-25612287D01*
X22964590Y-25544732D01*
X23037213Y-25491971D01*
X23037215Y-25491968D01*
X23037219Y-25491966D01*
X23181966Y-25347219D01*
X23181968Y-25347215D01*
X23181971Y-25347213D01*
X23252421Y-25250245D01*
X23302287Y-25181610D01*
X23395220Y-24999219D01*
X23458477Y-24804534D01*
X23490500Y-24602352D01*
X23490500Y-24397648D01*
X28509500Y-24397648D01*
X28509500Y-24602351D01*
X28541522Y-24804534D01*
X28604781Y-24999223D01*
X28697715Y-25181613D01*
X28818028Y-25347213D01*
X28962786Y-25491971D01*
X29062700Y-25564561D01*
X29128390Y-25612287D01*
X29244607Y-25671503D01*
X29310776Y-25705218D01*
X29310778Y-25705218D01*
X29310781Y-25705220D01*
X29415137Y-25739127D01*
X29505465Y-25768477D01*
X29606557Y-25784488D01*
X29707648Y-25800500D01*
X29707649Y-25800500D01*
X29912351Y-25800500D01*
X29912352Y-25800500D01*
X30114534Y-25768477D01*
X30309219Y-25705220D01*
X30491610Y-25612287D01*
X30584590Y-25544732D01*
X30657213Y-25491971D01*
X30657215Y-25491968D01*
X30657219Y-25491966D01*
X30801966Y-25347219D01*
X30801968Y-25347215D01*
X30801971Y-25347213D01*
X30872421Y-25250245D01*
X30922287Y-25181610D01*
X31015220Y-24999219D01*
X31078477Y-24804534D01*
X31110500Y-24602352D01*
X31110500Y-24397648D01*
X32889500Y-24397648D01*
X32889500Y-24602351D01*
X32921522Y-24804534D01*
X32984781Y-24999223D01*
X33077715Y-25181613D01*
X33198028Y-25347213D01*
X33342786Y-25491971D01*
X33442700Y-25564561D01*
X33508390Y-25612287D01*
X33624607Y-25671503D01*
X33690776Y-25705218D01*
X33690778Y-25705218D01*
X33690781Y-25705220D01*
X33795137Y-25739127D01*
X33885465Y-25768477D01*
X33986557Y-25784488D01*
X34087648Y-25800500D01*
X34087649Y-25800500D01*
X34292351Y-25800500D01*
X34292352Y-25800500D01*
X34494534Y-25768477D01*
X34689219Y-25705220D01*
X34871610Y-25612287D01*
X34964590Y-25544732D01*
X35037213Y-25491971D01*
X35037215Y-25491968D01*
X35037219Y-25491966D01*
X35181966Y-25347219D01*
X35181968Y-25347215D01*
X35181971Y-25347213D01*
X35252421Y-25250245D01*
X35302287Y-25181610D01*
X35395220Y-24999219D01*
X35458477Y-24804534D01*
X35490500Y-24602352D01*
X35490500Y-24397648D01*
X40509500Y-24397648D01*
X40509500Y-24602351D01*
X40541522Y-24804534D01*
X40604781Y-24999223D01*
X40697715Y-25181613D01*
X40818028Y-25347213D01*
X40962786Y-25491971D01*
X41062700Y-25564561D01*
X41128390Y-25612287D01*
X41244607Y-25671503D01*
X41310776Y-25705218D01*
X41310778Y-25705218D01*
X41310781Y-25705220D01*
X41415137Y-25739127D01*
X41505465Y-25768477D01*
X41606557Y-25784488D01*
X41707648Y-25800500D01*
X41707649Y-25800500D01*
X41912351Y-25800500D01*
X41912352Y-25800500D01*
X42114534Y-25768477D01*
X42309219Y-25705220D01*
X42491610Y-25612287D01*
X42584590Y-25544732D01*
X42657213Y-25491971D01*
X42657215Y-25491968D01*
X42657219Y-25491966D01*
X42801966Y-25347219D01*
X42801968Y-25347215D01*
X42801971Y-25347213D01*
X42872421Y-25250245D01*
X42922287Y-25181610D01*
X43015220Y-24999219D01*
X43078477Y-24804534D01*
X43110500Y-24602352D01*
X43110500Y-24397648D01*
X44889500Y-24397648D01*
X44889500Y-24602351D01*
X44921522Y-24804534D01*
X44984781Y-24999223D01*
X45077715Y-25181613D01*
X45198028Y-25347213D01*
X45342786Y-25491971D01*
X45442700Y-25564561D01*
X45508390Y-25612287D01*
X45624607Y-25671503D01*
X45690776Y-25705218D01*
X45690778Y-25705218D01*
X45690781Y-25705220D01*
X45795137Y-25739127D01*
X45885465Y-25768477D01*
X45986557Y-25784488D01*
X46087648Y-25800500D01*
X46087649Y-25800500D01*
X46292351Y-25800500D01*
X46292352Y-25800500D01*
X46494534Y-25768477D01*
X46689219Y-25705220D01*
X46871610Y-25612287D01*
X46964590Y-25544732D01*
X47037213Y-25491971D01*
X47037215Y-25491968D01*
X47037219Y-25491966D01*
X47181966Y-25347219D01*
X47181968Y-25347215D01*
X47181971Y-25347213D01*
X47252421Y-25250245D01*
X47302287Y-25181610D01*
X47395220Y-24999219D01*
X47458477Y-24804534D01*
X47490500Y-24602352D01*
X47490500Y-24397648D01*
X52509500Y-24397648D01*
X52509500Y-24602351D01*
X52541522Y-24804534D01*
X52604781Y-24999223D01*
X52697715Y-25181613D01*
X52818028Y-25347213D01*
X52962786Y-25491971D01*
X53062700Y-25564561D01*
X53128390Y-25612287D01*
X53244607Y-25671503D01*
X53310776Y-25705218D01*
X53310778Y-25705218D01*
X53310781Y-25705220D01*
X53415137Y-25739127D01*
X53505465Y-25768477D01*
X53606557Y-25784488D01*
X53707648Y-25800500D01*
X53707649Y-25800500D01*
X53912351Y-25800500D01*
X53912352Y-25800500D01*
X54114534Y-25768477D01*
X54309219Y-25705220D01*
X54491610Y-25612287D01*
X54584590Y-25544732D01*
X54657213Y-25491971D01*
X54657215Y-25491968D01*
X54657219Y-25491966D01*
X54801966Y-25347219D01*
X54801968Y-25347215D01*
X54801971Y-25347213D01*
X54872421Y-25250245D01*
X54922287Y-25181610D01*
X55015220Y-24999219D01*
X55078477Y-24804534D01*
X55110500Y-24602352D01*
X55110500Y-24397648D01*
X56889500Y-24397648D01*
X56889500Y-24602351D01*
X56921522Y-24804534D01*
X56984781Y-24999223D01*
X57077715Y-25181613D01*
X57198028Y-25347213D01*
X57342786Y-25491971D01*
X57442700Y-25564561D01*
X57508390Y-25612287D01*
X57624607Y-25671503D01*
X57690776Y-25705218D01*
X57690778Y-25705218D01*
X57690781Y-25705220D01*
X57795137Y-25739127D01*
X57885465Y-25768477D01*
X57986557Y-25784488D01*
X58087648Y-25800500D01*
X58087649Y-25800500D01*
X58292351Y-25800500D01*
X58292352Y-25800500D01*
X58494534Y-25768477D01*
X58689219Y-25705220D01*
X58871610Y-25612287D01*
X58964590Y-25544732D01*
X59037213Y-25491971D01*
X59037215Y-25491968D01*
X59037219Y-25491966D01*
X59181966Y-25347219D01*
X59181968Y-25347215D01*
X59181971Y-25347213D01*
X59252421Y-25250245D01*
X59302287Y-25181610D01*
X59395220Y-24999219D01*
X59458477Y-24804534D01*
X59490500Y-24602352D01*
X59490500Y-24397648D01*
X64509500Y-24397648D01*
X64509500Y-24602351D01*
X64541522Y-24804534D01*
X64604781Y-24999223D01*
X64697715Y-25181613D01*
X64818028Y-25347213D01*
X64962786Y-25491971D01*
X65062700Y-25564561D01*
X65128390Y-25612287D01*
X65244607Y-25671503D01*
X65310776Y-25705218D01*
X65310778Y-25705218D01*
X65310781Y-25705220D01*
X65415137Y-25739127D01*
X65505465Y-25768477D01*
X65606557Y-25784488D01*
X65707648Y-25800500D01*
X65707649Y-25800500D01*
X65912351Y-25800500D01*
X65912352Y-25800500D01*
X66114534Y-25768477D01*
X66309219Y-25705220D01*
X66491610Y-25612287D01*
X66584590Y-25544732D01*
X66657213Y-25491971D01*
X66657215Y-25491968D01*
X66657219Y-25491966D01*
X66801966Y-25347219D01*
X66801968Y-25347215D01*
X66801971Y-25347213D01*
X66872421Y-25250245D01*
X66922287Y-25181610D01*
X67015220Y-24999219D01*
X67078477Y-24804534D01*
X67110500Y-24602352D01*
X67110500Y-24397648D01*
X68889500Y-24397648D01*
X68889500Y-24602351D01*
X68921522Y-24804534D01*
X68984781Y-24999223D01*
X69077715Y-25181613D01*
X69198028Y-25347213D01*
X69342786Y-25491971D01*
X69442700Y-25564561D01*
X69508390Y-25612287D01*
X69624607Y-25671503D01*
X69690776Y-25705218D01*
X69690778Y-25705218D01*
X69690781Y-25705220D01*
X69795137Y-25739127D01*
X69885465Y-25768477D01*
X69986557Y-25784488D01*
X70087648Y-25800500D01*
X70087649Y-25800500D01*
X70292351Y-25800500D01*
X70292352Y-25800500D01*
X70494534Y-25768477D01*
X70689219Y-25705220D01*
X70871610Y-25612287D01*
X70964590Y-25544732D01*
X71037213Y-25491971D01*
X71037215Y-25491968D01*
X71037219Y-25491966D01*
X71181966Y-25347219D01*
X71181968Y-25347215D01*
X71181971Y-25347213D01*
X71252421Y-25250245D01*
X71302287Y-25181610D01*
X71395220Y-24999219D01*
X71458477Y-24804534D01*
X71490500Y-24602352D01*
X71490500Y-24397648D01*
X76509500Y-24397648D01*
X76509500Y-24602351D01*
X76541522Y-24804534D01*
X76604781Y-24999223D01*
X76697715Y-25181613D01*
X76818028Y-25347213D01*
X76962786Y-25491971D01*
X77062700Y-25564561D01*
X77128390Y-25612287D01*
X77244607Y-25671503D01*
X77310776Y-25705218D01*
X77310778Y-25705218D01*
X77310781Y-25705220D01*
X77415137Y-25739127D01*
X77505465Y-25768477D01*
X77606557Y-25784488D01*
X77707648Y-25800500D01*
X77707649Y-25800500D01*
X77912351Y-25800500D01*
X77912352Y-25800500D01*
X78114534Y-25768477D01*
X78309219Y-25705220D01*
X78491610Y-25612287D01*
X78584590Y-25544732D01*
X78657213Y-25491971D01*
X78657215Y-25491968D01*
X78657219Y-25491966D01*
X78801966Y-25347219D01*
X78801968Y-25347215D01*
X78801971Y-25347213D01*
X78872421Y-25250245D01*
X78922287Y-25181610D01*
X79015220Y-24999219D01*
X79078477Y-24804534D01*
X79110500Y-24602352D01*
X79110500Y-24397648D01*
X80889500Y-24397648D01*
X80889500Y-24602351D01*
X80921522Y-24804534D01*
X80984781Y-24999223D01*
X81077715Y-25181613D01*
X81198028Y-25347213D01*
X81342786Y-25491971D01*
X81442700Y-25564561D01*
X81508390Y-25612287D01*
X81624607Y-25671503D01*
X81690776Y-25705218D01*
X81690778Y-25705218D01*
X81690781Y-25705220D01*
X81795137Y-25739127D01*
X81885465Y-25768477D01*
X81986557Y-25784488D01*
X82087648Y-25800500D01*
X82087649Y-25800500D01*
X82292351Y-25800500D01*
X82292352Y-25800500D01*
X82494534Y-25768477D01*
X82689219Y-25705220D01*
X82871610Y-25612287D01*
X82964590Y-25544732D01*
X83037213Y-25491971D01*
X83037215Y-25491968D01*
X83037219Y-25491966D01*
X83181966Y-25347219D01*
X83181968Y-25347215D01*
X83181971Y-25347213D01*
X83252421Y-25250245D01*
X83302287Y-25181610D01*
X83395220Y-24999219D01*
X83458477Y-24804534D01*
X83490500Y-24602352D01*
X83490500Y-24397648D01*
X88509500Y-24397648D01*
X88509500Y-24602351D01*
X88541522Y-24804534D01*
X88604781Y-24999223D01*
X88697715Y-25181613D01*
X88818028Y-25347213D01*
X88962786Y-25491971D01*
X89062700Y-25564561D01*
X89128390Y-25612287D01*
X89244607Y-25671503D01*
X89310776Y-25705218D01*
X89310778Y-25705218D01*
X89310781Y-25705220D01*
X89415137Y-25739127D01*
X89505465Y-25768477D01*
X89606557Y-25784488D01*
X89707648Y-25800500D01*
X89707649Y-25800500D01*
X89912351Y-25800500D01*
X89912352Y-25800500D01*
X90114534Y-25768477D01*
X90309219Y-25705220D01*
X90491610Y-25612287D01*
X90584590Y-25544732D01*
X90657213Y-25491971D01*
X90657215Y-25491968D01*
X90657219Y-25491966D01*
X90801966Y-25347219D01*
X90801968Y-25347215D01*
X90801971Y-25347213D01*
X90872421Y-25250245D01*
X90922287Y-25181610D01*
X91015220Y-24999219D01*
X91078477Y-24804534D01*
X91110500Y-24602352D01*
X91110500Y-24397648D01*
X91078477Y-24195466D01*
X91072357Y-24176632D01*
X91049127Y-24105137D01*
X91015220Y-24000781D01*
X91015218Y-24000778D01*
X91015218Y-24000776D01*
X90969298Y-23910655D01*
X90922287Y-23818390D01*
X90914556Y-23807749D01*
X90801971Y-23652786D01*
X90657213Y-23508028D01*
X90589159Y-23458585D01*
X90491613Y-23387715D01*
X90491612Y-23387714D01*
X90491610Y-23387713D01*
X90441799Y-23362332D01*
X94399500Y-23362332D01*
X94399500Y-23637667D01*
X94399501Y-23637684D01*
X94435438Y-23910655D01*
X94435439Y-23910660D01*
X94435440Y-23910666D01*
X94435441Y-23910668D01*
X94506704Y-24176630D01*
X94612075Y-24431017D01*
X94612080Y-24431028D01*
X94691809Y-24569121D01*
X94749751Y-24669479D01*
X94749753Y-24669482D01*
X94749754Y-24669483D01*
X94917370Y-24887926D01*
X94917376Y-24887933D01*
X95112066Y-25082623D01*
X95112072Y-25082628D01*
X95330521Y-25250249D01*
X95483778Y-25338732D01*
X95568971Y-25387919D01*
X95568976Y-25387921D01*
X95568979Y-25387923D01*
X95823368Y-25493295D01*
X96089334Y-25564560D01*
X96362326Y-25600500D01*
X96362333Y-25600500D01*
X96637667Y-25600500D01*
X96637674Y-25600500D01*
X96910666Y-25564560D01*
X97176632Y-25493295D01*
X97431021Y-25387923D01*
X97669479Y-25250249D01*
X97887928Y-25082628D01*
X98082628Y-24887928D01*
X98250249Y-24669479D01*
X98387923Y-24431021D01*
X98493295Y-24176632D01*
X98564560Y-23910666D01*
X98600500Y-23637674D01*
X98600500Y-23362326D01*
X98564560Y-23089334D01*
X98493295Y-22823368D01*
X98387923Y-22568979D01*
X98387921Y-22568976D01*
X98387919Y-22568971D01*
X98338732Y-22483778D01*
X98250249Y-22330521D01*
X98082628Y-22112072D01*
X98082623Y-22112066D01*
X97887933Y-21917376D01*
X97887926Y-21917370D01*
X97669483Y-21749754D01*
X97669482Y-21749753D01*
X97669479Y-21749751D01*
X97574407Y-21694861D01*
X97431028Y-21612080D01*
X97431017Y-21612075D01*
X97176630Y-21506704D01*
X97043649Y-21471072D01*
X96910666Y-21435440D01*
X96910660Y-21435439D01*
X96910655Y-21435438D01*
X96637684Y-21399501D01*
X96637679Y-21399500D01*
X96637674Y-21399500D01*
X96362326Y-21399500D01*
X96362320Y-21399500D01*
X96362315Y-21399501D01*
X96089344Y-21435438D01*
X96089337Y-21435439D01*
X96089334Y-21435440D01*
X96033125Y-21450500D01*
X95823369Y-21506704D01*
X95568982Y-21612075D01*
X95568971Y-21612080D01*
X95330516Y-21749754D01*
X95112073Y-21917370D01*
X95112066Y-21917376D01*
X94917376Y-22112066D01*
X94917370Y-22112073D01*
X94749754Y-22330516D01*
X94612080Y-22568971D01*
X94612075Y-22568982D01*
X94506704Y-22823369D01*
X94435441Y-23089331D01*
X94435438Y-23089344D01*
X94399501Y-23362315D01*
X94399500Y-23362332D01*
X90441799Y-23362332D01*
X90434653Y-23358691D01*
X90309223Y-23294781D01*
X90114534Y-23231522D01*
X89939995Y-23203878D01*
X89912352Y-23199500D01*
X89707648Y-23199500D01*
X89683329Y-23203351D01*
X89505465Y-23231522D01*
X89310776Y-23294781D01*
X89128386Y-23387715D01*
X88962786Y-23508028D01*
X88818028Y-23652786D01*
X88697715Y-23818386D01*
X88604781Y-24000776D01*
X88541522Y-24195465D01*
X88509500Y-24397648D01*
X83490500Y-24397648D01*
X83458477Y-24195466D01*
X83452357Y-24176632D01*
X83429127Y-24105137D01*
X83395220Y-24000781D01*
X83395218Y-24000778D01*
X83395218Y-24000776D01*
X83349298Y-23910655D01*
X83302287Y-23818390D01*
X83294556Y-23807749D01*
X83181971Y-23652786D01*
X83037213Y-23508028D01*
X82871613Y-23387715D01*
X82871612Y-23387714D01*
X82871610Y-23387713D01*
X82814653Y-23358691D01*
X82689223Y-23294781D01*
X82494534Y-23231522D01*
X82319995Y-23203878D01*
X82292352Y-23199500D01*
X82087648Y-23199500D01*
X82063329Y-23203351D01*
X81885465Y-23231522D01*
X81690776Y-23294781D01*
X81508386Y-23387715D01*
X81342786Y-23508028D01*
X81198028Y-23652786D01*
X81077715Y-23818386D01*
X80984781Y-24000776D01*
X80921522Y-24195465D01*
X80889500Y-24397648D01*
X79110500Y-24397648D01*
X79078477Y-24195466D01*
X79072357Y-24176632D01*
X79049127Y-24105137D01*
X79015220Y-24000781D01*
X79015218Y-24000778D01*
X79015218Y-24000776D01*
X78969298Y-23910655D01*
X78922287Y-23818390D01*
X78914556Y-23807749D01*
X78801971Y-23652786D01*
X78657213Y-23508028D01*
X78491613Y-23387715D01*
X78491612Y-23387714D01*
X78491610Y-23387713D01*
X78434653Y-23358691D01*
X78309223Y-23294781D01*
X78114534Y-23231522D01*
X77939995Y-23203878D01*
X77912352Y-23199500D01*
X77707648Y-23199500D01*
X77683329Y-23203351D01*
X77505465Y-23231522D01*
X77310776Y-23294781D01*
X77128386Y-23387715D01*
X76962786Y-23508028D01*
X76818028Y-23652786D01*
X76697715Y-23818386D01*
X76604781Y-24000776D01*
X76541522Y-24195465D01*
X76509500Y-24397648D01*
X71490500Y-24397648D01*
X71458477Y-24195466D01*
X71452357Y-24176632D01*
X71429127Y-24105137D01*
X71395220Y-24000781D01*
X71395218Y-24000778D01*
X71395218Y-24000776D01*
X71349298Y-23910655D01*
X71302287Y-23818390D01*
X71294556Y-23807749D01*
X71181971Y-23652786D01*
X71037213Y-23508028D01*
X70871613Y-23387715D01*
X70871612Y-23387714D01*
X70871610Y-23387713D01*
X70814653Y-23358691D01*
X70689223Y-23294781D01*
X70494534Y-23231522D01*
X70319995Y-23203878D01*
X70292352Y-23199500D01*
X70087648Y-23199500D01*
X70063329Y-23203351D01*
X69885465Y-23231522D01*
X69690776Y-23294781D01*
X69508386Y-23387715D01*
X69342786Y-23508028D01*
X69198028Y-23652786D01*
X69077715Y-23818386D01*
X68984781Y-24000776D01*
X68921522Y-24195465D01*
X68889500Y-24397648D01*
X67110500Y-24397648D01*
X67078477Y-24195466D01*
X67072357Y-24176632D01*
X67049127Y-24105137D01*
X67015220Y-24000781D01*
X67015218Y-24000778D01*
X67015218Y-24000776D01*
X66969298Y-23910655D01*
X66922287Y-23818390D01*
X66914556Y-23807749D01*
X66801971Y-23652786D01*
X66657213Y-23508028D01*
X66491613Y-23387715D01*
X66491612Y-23387714D01*
X66491610Y-23387713D01*
X66434653Y-23358691D01*
X66309223Y-23294781D01*
X66114534Y-23231522D01*
X65939995Y-23203878D01*
X65912352Y-23199500D01*
X65707648Y-23199500D01*
X65683329Y-23203351D01*
X65505465Y-23231522D01*
X65310776Y-23294781D01*
X65128386Y-23387715D01*
X64962786Y-23508028D01*
X64818028Y-23652786D01*
X64697715Y-23818386D01*
X64604781Y-24000776D01*
X64541522Y-24195465D01*
X64509500Y-24397648D01*
X59490500Y-24397648D01*
X59458477Y-24195466D01*
X59452357Y-24176632D01*
X59429127Y-24105137D01*
X59395220Y-24000781D01*
X59395218Y-24000778D01*
X59395218Y-24000776D01*
X59349298Y-23910655D01*
X59302287Y-23818390D01*
X59294556Y-23807749D01*
X59181971Y-23652786D01*
X59037213Y-23508028D01*
X58871613Y-23387715D01*
X58871612Y-23387714D01*
X58871610Y-23387713D01*
X58814653Y-23358691D01*
X58689223Y-23294781D01*
X58494534Y-23231522D01*
X58319995Y-23203878D01*
X58292352Y-23199500D01*
X58087648Y-23199500D01*
X58063329Y-23203351D01*
X57885465Y-23231522D01*
X57690776Y-23294781D01*
X57508386Y-23387715D01*
X57342786Y-23508028D01*
X57198028Y-23652786D01*
X57077715Y-23818386D01*
X56984781Y-24000776D01*
X56921522Y-24195465D01*
X56889500Y-24397648D01*
X55110500Y-24397648D01*
X55078477Y-24195466D01*
X55072357Y-24176632D01*
X55049127Y-24105137D01*
X55015220Y-24000781D01*
X55015218Y-24000778D01*
X55015218Y-24000776D01*
X54969298Y-23910655D01*
X54922287Y-23818390D01*
X54914556Y-23807749D01*
X54801971Y-23652786D01*
X54657213Y-23508028D01*
X54491613Y-23387715D01*
X54491612Y-23387714D01*
X54491610Y-23387713D01*
X54434653Y-23358691D01*
X54309223Y-23294781D01*
X54114534Y-23231522D01*
X53939995Y-23203878D01*
X53912352Y-23199500D01*
X53707648Y-23199500D01*
X53683329Y-23203351D01*
X53505465Y-23231522D01*
X53310776Y-23294781D01*
X53128386Y-23387715D01*
X52962786Y-23508028D01*
X52818028Y-23652786D01*
X52697715Y-23818386D01*
X52604781Y-24000776D01*
X52541522Y-24195465D01*
X52509500Y-24397648D01*
X47490500Y-24397648D01*
X47458477Y-24195466D01*
X47452357Y-24176632D01*
X47429127Y-24105137D01*
X47395220Y-24000781D01*
X47395218Y-24000778D01*
X47395218Y-24000776D01*
X47349298Y-23910655D01*
X47302287Y-23818390D01*
X47294556Y-23807749D01*
X47181971Y-23652786D01*
X47037213Y-23508028D01*
X46871613Y-23387715D01*
X46871612Y-23387714D01*
X46871610Y-23387713D01*
X46814653Y-23358691D01*
X46689223Y-23294781D01*
X46494534Y-23231522D01*
X46319995Y-23203878D01*
X46292352Y-23199500D01*
X46087648Y-23199500D01*
X46063329Y-23203351D01*
X45885465Y-23231522D01*
X45690776Y-23294781D01*
X45508386Y-23387715D01*
X45342786Y-23508028D01*
X45198028Y-23652786D01*
X45077715Y-23818386D01*
X44984781Y-24000776D01*
X44921522Y-24195465D01*
X44889500Y-24397648D01*
X43110500Y-24397648D01*
X43078477Y-24195466D01*
X43072357Y-24176632D01*
X43049127Y-24105137D01*
X43015220Y-24000781D01*
X43015218Y-24000778D01*
X43015218Y-24000776D01*
X42969298Y-23910655D01*
X42922287Y-23818390D01*
X42914556Y-23807749D01*
X42801971Y-23652786D01*
X42657213Y-23508028D01*
X42491613Y-23387715D01*
X42491612Y-23387714D01*
X42491610Y-23387713D01*
X42434653Y-23358691D01*
X42309223Y-23294781D01*
X42114534Y-23231522D01*
X41939995Y-23203878D01*
X41912352Y-23199500D01*
X41707648Y-23199500D01*
X41683329Y-23203351D01*
X41505465Y-23231522D01*
X41310776Y-23294781D01*
X41128386Y-23387715D01*
X40962786Y-23508028D01*
X40818028Y-23652786D01*
X40697715Y-23818386D01*
X40604781Y-24000776D01*
X40541522Y-24195465D01*
X40509500Y-24397648D01*
X35490500Y-24397648D01*
X35458477Y-24195466D01*
X35452357Y-24176632D01*
X35429127Y-24105137D01*
X35395220Y-24000781D01*
X35395218Y-24000778D01*
X35395218Y-24000776D01*
X35349298Y-23910655D01*
X35302287Y-23818390D01*
X35294556Y-23807749D01*
X35181971Y-23652786D01*
X35037213Y-23508028D01*
X34871613Y-23387715D01*
X34871612Y-23387714D01*
X34871610Y-23387713D01*
X34814653Y-23358691D01*
X34689223Y-23294781D01*
X34494534Y-23231522D01*
X34319995Y-23203878D01*
X34292352Y-23199500D01*
X34087648Y-23199500D01*
X34063329Y-23203351D01*
X33885465Y-23231522D01*
X33690776Y-23294781D01*
X33508386Y-23387715D01*
X33342786Y-23508028D01*
X33198028Y-23652786D01*
X33077715Y-23818386D01*
X32984781Y-24000776D01*
X32921522Y-24195465D01*
X32889500Y-24397648D01*
X31110500Y-24397648D01*
X31078477Y-24195466D01*
X31072357Y-24176632D01*
X31049127Y-24105137D01*
X31015220Y-24000781D01*
X31015218Y-24000778D01*
X31015218Y-24000776D01*
X30969298Y-23910655D01*
X30922287Y-23818390D01*
X30914556Y-23807749D01*
X30801971Y-23652786D01*
X30657213Y-23508028D01*
X30491613Y-23387715D01*
X30491612Y-23387714D01*
X30491610Y-23387713D01*
X30434653Y-23358691D01*
X30309223Y-23294781D01*
X30114534Y-23231522D01*
X29939995Y-23203878D01*
X29912352Y-23199500D01*
X29707648Y-23199500D01*
X29683329Y-23203351D01*
X29505465Y-23231522D01*
X29310776Y-23294781D01*
X29128386Y-23387715D01*
X28962786Y-23508028D01*
X28818028Y-23652786D01*
X28697715Y-23818386D01*
X28604781Y-24000776D01*
X28541522Y-24195465D01*
X28509500Y-24397648D01*
X23490500Y-24397648D01*
X23458477Y-24195466D01*
X23452357Y-24176632D01*
X23429127Y-24105137D01*
X23395220Y-24000781D01*
X23395218Y-24000778D01*
X23395218Y-24000776D01*
X23349298Y-23910655D01*
X23302287Y-23818390D01*
X23294556Y-23807749D01*
X23181971Y-23652786D01*
X23037213Y-23508028D01*
X22871613Y-23387715D01*
X22871612Y-23387714D01*
X22871610Y-23387713D01*
X22814653Y-23358691D01*
X22689223Y-23294781D01*
X22494534Y-23231522D01*
X22319995Y-23203878D01*
X22292352Y-23199500D01*
X22087648Y-23199500D01*
X22063329Y-23203351D01*
X21885465Y-23231522D01*
X21690776Y-23294781D01*
X21508386Y-23387715D01*
X21342786Y-23508028D01*
X21198028Y-23652786D01*
X21077715Y-23818386D01*
X20984781Y-24000776D01*
X20921522Y-24195465D01*
X20889500Y-24397648D01*
X19110500Y-24397648D01*
X19078477Y-24195466D01*
X19072357Y-24176632D01*
X19049127Y-24105137D01*
X19015220Y-24000781D01*
X19015218Y-24000778D01*
X19015218Y-24000776D01*
X18969298Y-23910655D01*
X18922287Y-23818390D01*
X18914556Y-23807749D01*
X18801971Y-23652786D01*
X18657213Y-23508028D01*
X18491613Y-23387715D01*
X18491612Y-23387714D01*
X18491610Y-23387713D01*
X18434653Y-23358691D01*
X18309223Y-23294781D01*
X18114534Y-23231522D01*
X17939995Y-23203878D01*
X17912352Y-23199500D01*
X17707648Y-23199500D01*
X17683329Y-23203351D01*
X17505465Y-23231522D01*
X17310776Y-23294781D01*
X17128386Y-23387715D01*
X16962786Y-23508028D01*
X16818028Y-23652786D01*
X16697715Y-23818386D01*
X16604781Y-24000776D01*
X16541522Y-24195465D01*
X16509500Y-24397648D01*
X11490500Y-24397648D01*
X11458477Y-24195466D01*
X11452357Y-24176632D01*
X11429127Y-24105137D01*
X11395220Y-24000781D01*
X11395218Y-24000778D01*
X11395218Y-24000776D01*
X11349298Y-23910655D01*
X11302287Y-23818390D01*
X11294556Y-23807749D01*
X11181971Y-23652786D01*
X11037213Y-23508028D01*
X10871613Y-23387715D01*
X10871612Y-23387714D01*
X10871610Y-23387713D01*
X10814653Y-23358691D01*
X10689223Y-23294781D01*
X10494534Y-23231522D01*
X10319995Y-23203878D01*
X10292352Y-23199500D01*
X10087648Y-23199500D01*
X10063329Y-23203351D01*
X9885465Y-23231522D01*
X9690776Y-23294781D01*
X9508386Y-23387715D01*
X9342786Y-23508028D01*
X9198028Y-23652786D01*
X9077715Y-23818386D01*
X8984781Y-24000776D01*
X8921522Y-24195465D01*
X8889500Y-24397648D01*
X5401747Y-24397648D01*
X5423421Y-24345323D01*
X5477788Y-24214068D01*
X5493295Y-24176632D01*
X5564560Y-23910666D01*
X5600500Y-23637674D01*
X5600500Y-23362326D01*
X5564560Y-23089334D01*
X5493295Y-22823368D01*
X5387923Y-22568979D01*
X5387921Y-22568976D01*
X5387919Y-22568971D01*
X5338732Y-22483778D01*
X5250249Y-22330521D01*
X5082628Y-22112072D01*
X5082623Y-22112066D01*
X4887933Y-21917376D01*
X4887926Y-21917370D01*
X4669483Y-21749754D01*
X4669482Y-21749753D01*
X4669479Y-21749751D01*
X4574407Y-21694861D01*
X4431028Y-21612080D01*
X4431017Y-21612075D01*
X4176630Y-21506704D01*
X4043649Y-21471072D01*
X3910666Y-21435440D01*
X3910660Y-21435439D01*
X3910655Y-21435438D01*
X3637684Y-21399501D01*
X3637679Y-21399500D01*
X3637674Y-21399500D01*
X3362326Y-21399500D01*
X3362320Y-21399500D01*
X3362315Y-21399501D01*
X3089344Y-21435438D01*
X3089337Y-21435439D01*
X3089334Y-21435440D01*
X3033125Y-21450500D01*
X2823369Y-21506704D01*
X2568982Y-21612075D01*
X2568971Y-21612080D01*
X2330516Y-21749754D01*
X2112073Y-21917370D01*
X2112066Y-21917376D01*
X1917376Y-22112066D01*
X1917370Y-22112073D01*
X1749754Y-22330516D01*
X1612080Y-22568971D01*
X1612075Y-22568982D01*
X1506704Y-22823369D01*
X1435441Y-23089331D01*
X1435438Y-23089344D01*
X1399501Y-23362315D01*
X1399500Y-23362332D01*
X1000000Y-23362332D01*
X1000000Y-19397648D01*
X52699500Y-19397648D01*
X52699500Y-19602351D01*
X52731522Y-19804534D01*
X52794781Y-19999223D01*
X52837248Y-20082567D01*
X52887585Y-20181359D01*
X52887715Y-20181613D01*
X53008028Y-20347213D01*
X53152786Y-20491971D01*
X53273226Y-20579474D01*
X53318390Y-20612287D01*
X53434607Y-20671503D01*
X53500776Y-20705218D01*
X53500778Y-20705218D01*
X53500781Y-20705220D01*
X53605137Y-20739127D01*
X53695465Y-20768477D01*
X53796557Y-20784488D01*
X53897648Y-20800500D01*
X53897649Y-20800500D01*
X54102351Y-20800500D01*
X54102352Y-20800500D01*
X54304534Y-20768477D01*
X54499219Y-20705220D01*
X54681610Y-20612287D01*
X54774590Y-20544732D01*
X54847213Y-20491971D01*
X54847215Y-20491968D01*
X54847219Y-20491966D01*
X54991966Y-20347219D01*
X54991968Y-20347215D01*
X54991971Y-20347213D01*
X55112286Y-20181611D01*
X55112415Y-20181359D01*
X55139795Y-20127621D01*
X55187769Y-20076826D01*
X55255589Y-20060030D01*
X55321725Y-20082567D01*
X55360765Y-20127621D01*
X55388141Y-20181350D01*
X55388147Y-20181359D01*
X55420523Y-20225921D01*
X55420524Y-20225922D01*
X56100000Y-19546446D01*
X56100000Y-19552661D01*
X56127259Y-19654394D01*
X56179920Y-19745606D01*
X56254394Y-19820080D01*
X56345606Y-19872741D01*
X56447339Y-19900000D01*
X56453553Y-19900000D01*
X55774076Y-20579474D01*
X55818650Y-20611859D01*
X56000968Y-20704755D01*
X56195582Y-20767990D01*
X56397683Y-20800000D01*
X56602317Y-20800000D01*
X56804417Y-20767990D01*
X56999031Y-20704755D01*
X57181349Y-20611859D01*
X57225921Y-20579474D01*
X56546447Y-19900000D01*
X56552661Y-19900000D01*
X56654394Y-19872741D01*
X56745606Y-19820080D01*
X56820080Y-19745606D01*
X56872741Y-19654394D01*
X56900000Y-19552661D01*
X56900000Y-19546447D01*
X57579474Y-20225921D01*
X57611859Y-20181349D01*
X57704755Y-19999031D01*
X57767990Y-19804417D01*
X57800000Y-19602317D01*
X57800000Y-19397682D01*
X57767990Y-19195582D01*
X57704755Y-19000968D01*
X57611859Y-18818650D01*
X57579474Y-18774077D01*
X57579474Y-18774076D01*
X56900000Y-19453551D01*
X56900000Y-19447339D01*
X56872741Y-19345606D01*
X56820080Y-19254394D01*
X56745606Y-19179920D01*
X56654394Y-19127259D01*
X56552661Y-19100000D01*
X56546446Y-19100000D01*
X57225922Y-18420524D01*
X57225921Y-18420523D01*
X57181359Y-18388147D01*
X57181350Y-18388141D01*
X56999031Y-18295244D01*
X56804417Y-18232009D01*
X56602317Y-18200000D01*
X56397683Y-18200000D01*
X56195582Y-18232009D01*
X56000968Y-18295244D01*
X55818644Y-18388143D01*
X55774077Y-18420523D01*
X55774077Y-18420524D01*
X56453554Y-19100000D01*
X56447339Y-19100000D01*
X56345606Y-19127259D01*
X56254394Y-19179920D01*
X56179920Y-19254394D01*
X56127259Y-19345606D01*
X56100000Y-19447339D01*
X56100000Y-19453553D01*
X55420524Y-18774077D01*
X55420523Y-18774077D01*
X55388143Y-18818644D01*
X55360765Y-18872378D01*
X55312790Y-18923174D01*
X55244969Y-18939969D01*
X55178834Y-18917431D01*
X55139795Y-18872378D01*
X55112284Y-18818385D01*
X54991971Y-18652786D01*
X54847213Y-18508028D01*
X54681613Y-18387715D01*
X54681612Y-18387714D01*
X54681610Y-18387713D01*
X54624653Y-18358691D01*
X54499223Y-18294781D01*
X54304534Y-18231522D01*
X54129995Y-18203878D01*
X54102352Y-18199500D01*
X53897648Y-18199500D01*
X53873329Y-18203351D01*
X53695465Y-18231522D01*
X53500776Y-18294781D01*
X53318386Y-18387715D01*
X53152786Y-18508028D01*
X53008028Y-18652786D01*
X52887715Y-18818386D01*
X52794781Y-19000776D01*
X52731522Y-19195465D01*
X52699500Y-19397648D01*
X1000000Y-19397648D01*
X1000000Y-11814234D01*
X6324500Y-11814234D01*
X6324500Y-11965765D01*
X6363719Y-12112136D01*
X6386899Y-12152284D01*
X6439485Y-12243365D01*
X6546635Y-12350515D01*
X6677865Y-12426281D01*
X6824234Y-12465500D01*
X6824236Y-12465500D01*
X6975764Y-12465500D01*
X6975766Y-12465500D01*
X7122135Y-12426281D01*
X7253365Y-12350515D01*
X7360515Y-12243365D01*
X7436281Y-12112135D01*
X7475500Y-11965766D01*
X7475500Y-11814234D01*
X7436281Y-11667865D01*
X7360515Y-11536635D01*
X7253365Y-11429485D01*
X7187750Y-11391602D01*
X7122136Y-11353719D01*
X7048950Y-11334109D01*
X6975766Y-11314500D01*
X6824234Y-11314500D01*
X6677863Y-11353719D01*
X6546635Y-11429485D01*
X6546632Y-11429487D01*
X6439487Y-11536632D01*
X6439485Y-11536635D01*
X6363719Y-11667863D01*
X6324500Y-11814234D01*
X1000000Y-11814234D01*
X1000000Y-6034234D01*
X6324500Y-6034234D01*
X6324500Y-6185766D01*
X6341626Y-6249681D01*
X6363719Y-6332136D01*
X6399204Y-6393596D01*
X6439485Y-6463365D01*
X6546635Y-6570515D01*
X6677865Y-6646281D01*
X6824234Y-6685500D01*
X6824236Y-6685500D01*
X6975764Y-6685500D01*
X6975766Y-6685500D01*
X7122135Y-6646281D01*
X7253365Y-6570515D01*
X7360515Y-6463365D01*
X7436281Y-6332135D01*
X7475500Y-6185766D01*
X7475500Y-6034234D01*
X7436281Y-5887865D01*
X7360515Y-5756635D01*
X7253365Y-5649485D01*
X7187750Y-5611602D01*
X7122136Y-5573719D01*
X7048950Y-5554109D01*
X6975766Y-5534500D01*
X6824234Y-5534500D01*
X6677863Y-5573719D01*
X6546635Y-5649485D01*
X6546632Y-5649487D01*
X6439487Y-5756632D01*
X6439485Y-5756635D01*
X6363719Y-5887863D01*
X6331696Y-6007379D01*
X6324500Y-6034234D01*
X1000000Y-6034234D01*
X1000000Y-2759176D01*
X1019685Y-2692137D01*
X1036319Y-2671495D01*
X2671495Y-1036319D01*
X2732818Y-1002834D01*
X2759176Y-1000000D01*
X42349818Y-1000000D01*
X42416857Y-1019685D01*
G37*
G04 #@! TD.AperFunction*
G04 #@! TA.AperFunction,Conductor*
G36*
X38079474Y-14725921D02*
G01*
X38111859Y-14681349D01*
X38139233Y-14627624D01*
X38187207Y-14576827D01*
X38255028Y-14560031D01*
X38321163Y-14582567D01*
X38360203Y-14627621D01*
X38387713Y-14681611D01*
X38508028Y-14847213D01*
X38652786Y-14991971D01*
X38773226Y-15079474D01*
X38818390Y-15112287D01*
X38954444Y-15181610D01*
X39000779Y-15205219D01*
X39002510Y-15205936D01*
X39003067Y-15206385D01*
X39005122Y-15207432D01*
X39004902Y-15207863D01*
X39056916Y-15249774D01*
X39078985Y-15316067D01*
X39061710Y-15383767D01*
X39010575Y-15431381D01*
X38955064Y-15444500D01*
X37543626Y-15444500D01*
X37476587Y-15424815D01*
X37430832Y-15372011D01*
X37420888Y-15302853D01*
X37449913Y-15239297D01*
X37494702Y-15207001D01*
X37494686Y-15206969D01*
X37494895Y-15206862D01*
X37496180Y-15205936D01*
X37499029Y-15204756D01*
X37681349Y-15111859D01*
X37725921Y-15079474D01*
X37046447Y-14400000D01*
X37052661Y-14400000D01*
X37154394Y-14372741D01*
X37245606Y-14320080D01*
X37320080Y-14245606D01*
X37372741Y-14154394D01*
X37400000Y-14052661D01*
X37400000Y-14046447D01*
X38079474Y-14725921D01*
G37*
G04 #@! TD.AperFunction*
G04 #@! TD*
M02*
