G04 #@! TF.GenerationSoftware,KiCad,Pcbnew,9.0.2+dfsg-1*
G04 #@! TF.CreationDate,2026-09-14T13:27:15+07:00*
G04 #@! TF.ProjectId,keyboard_555,6b657962-6f61-4726-945f-3535352e6b69,rev?*
G04 #@! TF.SameCoordinates,Original*
G04 #@! TF.FileFunction,Other,User*
%FSLAX46Y46*%
G04 Gerber Fmt 4.6, Leading zero omitted, Abs format (unit mm)*
G04 Created by KiCad (PCBNEW 9.0.2+dfsg-1) date 2026-09-14 13:27:15*
%MOMM*%
%LPD*%
G01*
G04 APERTURE LIST*
%ADD10C,0.050000*%
G04 APERTURE END LIST*
G04 #@! TO.C,R4*
D10*
X45140000Y-23000000D02*
X54860000Y-23000000D01*
X54860000Y-26000000D01*
X45140000Y-26000000D01*
X45140000Y-23000000D01*
G04 #@! TO.C,C1*
X41000000Y-15500000D02*
X35500000Y-15500000D01*
X35500000Y-12500000D01*
X41000000Y-12500000D01*
X41000000Y-15500000D01*
G04 #@! TO.C,R1*
X9140000Y-23000000D02*
X18860000Y-23000000D01*
X18860000Y-26000000D01*
X9140000Y-26000000D01*
X9140000Y-23000000D01*
G04 #@! TO.C,SW1*
X9250000Y-33500000D02*
X9500000Y-33500000D01*
X9250000Y-33750000D02*
X9250000Y-33500000D01*
X9250000Y-40750000D02*
X9250000Y-33750000D01*
X9250000Y-40750000D02*
X9250000Y-41000000D01*
X9250000Y-41000000D02*
X9500000Y-41000000D01*
X9500000Y-33500000D02*
X18500000Y-33500000D01*
X18500000Y-33500000D02*
X18750000Y-33500000D01*
X18500000Y-41000000D02*
X9500000Y-41000000D01*
X18500000Y-41000000D02*
X18750000Y-41000000D01*
X18750000Y-33500000D02*
X18750000Y-33750000D01*
X18750000Y-33750000D02*
X18750000Y-40750000D01*
X18750000Y-41000000D02*
X18750000Y-40750000D01*
G04 #@! TO.C,BZ1*
X83550000Y-10500000D02*
G75*
G02*
X71050000Y-10500000I-6250000J0D01*
G01*
X71050000Y-10500000D02*
G75*
G02*
X83550000Y-10500000I6250000J0D01*
G01*
G04 #@! TO.C,SW5*
X57250000Y-33500000D02*
X57500000Y-33500000D01*
X57250000Y-33750000D02*
X57250000Y-33500000D01*
X57250000Y-40750000D02*
X57250000Y-33750000D01*
X57250000Y-40750000D02*
X57250000Y-41000000D01*
X57250000Y-41000000D02*
X57500000Y-41000000D01*
X57500000Y-33500000D02*
X66500000Y-33500000D01*
X66500000Y-33500000D02*
X66750000Y-33500000D01*
X66500000Y-41000000D02*
X57500000Y-41000000D01*
X66500000Y-41000000D02*
X66750000Y-41000000D01*
X66750000Y-33500000D02*
X66750000Y-33750000D01*
X66750000Y-33750000D02*
X66750000Y-40750000D01*
X66750000Y-41000000D02*
X66750000Y-40750000D01*
G04 #@! TO.C,SW2*
X21250000Y-33500000D02*
X21500000Y-33500000D01*
X21250000Y-33750000D02*
X21250000Y-33500000D01*
X21250000Y-40750000D02*
X21250000Y-33750000D01*
X21250000Y-40750000D02*
X21250000Y-41000000D01*
X21250000Y-41000000D02*
X21500000Y-41000000D01*
X21500000Y-33500000D02*
X30500000Y-33500000D01*
X30500000Y-33500000D02*
X30750000Y-33500000D01*
X30500000Y-41000000D02*
X21500000Y-41000000D01*
X30500000Y-41000000D02*
X30750000Y-41000000D01*
X30750000Y-33500000D02*
X30750000Y-33750000D01*
X30750000Y-33750000D02*
X30750000Y-40750000D01*
X30750000Y-41000000D02*
X30750000Y-40750000D01*
G04 #@! TO.C,R_PWR*
X23950000Y-12000000D02*
X33670000Y-12000000D01*
X33670000Y-15000000D01*
X23950000Y-15000000D01*
X23950000Y-12000000D01*
G04 #@! TO.C,R_CC2*
X12320000Y-9800000D02*
X15680000Y-9800000D01*
X12320000Y-11700000D02*
X12320000Y-9800000D01*
X15680000Y-9800000D02*
X15680000Y-11700000D01*
X15680000Y-11700000D02*
X12320000Y-11700000D01*
G04 #@! TO.C,R_A*
X43450000Y-2000000D02*
X53170000Y-2000000D01*
X53170000Y-5000000D01*
X43450000Y-5000000D01*
X43450000Y-2000000D01*
G04 #@! TO.C,J2*
X84930000Y-5000000D02*
X84930000Y-15000000D01*
X99730000Y-5000000D02*
X84930000Y-5000000D01*
X99730000Y-5000000D02*
X99730000Y-15000000D01*
X99730000Y-15000000D02*
X84930000Y-15000000D01*
G04 #@! TO.C,RV1*
X60470000Y-590000D02*
X70500000Y-590000D01*
X70500000Y-10630000D01*
X60470000Y-10630000D01*
X60470000Y-590000D01*
G04 #@! TO.C,D_PWR*
X28850000Y-2790000D02*
X28850000Y-7210000D01*
X28850000Y-7210000D02*
X33690000Y-7210000D01*
X33690000Y-2790000D02*
X28850000Y-2790000D01*
X33690000Y-7210000D02*
X33690000Y-2790000D01*
G04 #@! TO.C,J1*
X150000Y-3680000D02*
X150000Y-14320000D01*
X9570000Y-3680000D02*
X150000Y-3680000D01*
X9570000Y-3680000D02*
X9570000Y-14320000D01*
X9570000Y-14320000D02*
X150000Y-14320000D01*
G04 #@! TO.C,SW4*
X45250000Y-33500000D02*
X45500000Y-33500000D01*
X45250000Y-33750000D02*
X45250000Y-33500000D01*
X45250000Y-40750000D02*
X45250000Y-33750000D01*
X45250000Y-40750000D02*
X45250000Y-41000000D01*
X45250000Y-41000000D02*
X45500000Y-41000000D01*
X45500000Y-33500000D02*
X54500000Y-33500000D01*
X54500000Y-33500000D02*
X54750000Y-33500000D01*
X54500000Y-41000000D02*
X45500000Y-41000000D01*
X54500000Y-41000000D02*
X54750000Y-41000000D01*
X54750000Y-33500000D02*
X54750000Y-33750000D01*
X54750000Y-33750000D02*
X54750000Y-40750000D01*
X54750000Y-41000000D02*
X54750000Y-40750000D01*
G04 #@! TO.C,SW3*
X33250000Y-33500000D02*
X33500000Y-33500000D01*
X33250000Y-33750000D02*
X33250000Y-33500000D01*
X33250000Y-40750000D02*
X33250000Y-33750000D01*
X33250000Y-40750000D02*
X33250000Y-41000000D01*
X33250000Y-41000000D02*
X33500000Y-41000000D01*
X33500000Y-33500000D02*
X42500000Y-33500000D01*
X42500000Y-33500000D02*
X42750000Y-33500000D01*
X42500000Y-41000000D02*
X33500000Y-41000000D01*
X42500000Y-41000000D02*
X42750000Y-41000000D01*
X42750000Y-33500000D02*
X42750000Y-33750000D01*
X42750000Y-33750000D02*
X42750000Y-40750000D01*
X42750000Y-41000000D02*
X42750000Y-40750000D01*
G04 #@! TO.C,C_OUT*
X61650000Y-14500000D02*
G75*
G02*
X54850000Y-14500000I-3400000J0D01*
G01*
X54850000Y-14500000D02*
G75*
G02*
X61650000Y-14500000I3400000J0D01*
G01*
G04 #@! TO.C,SW6*
X69250000Y-33500000D02*
X69500000Y-33500000D01*
X69250000Y-33750000D02*
X69250000Y-33500000D01*
X69250000Y-40750000D02*
X69250000Y-33750000D01*
X69250000Y-40750000D02*
X69250000Y-41000000D01*
X69250000Y-41000000D02*
X69500000Y-41000000D01*
X69500000Y-33500000D02*
X78500000Y-33500000D01*
X78500000Y-33500000D02*
X78750000Y-33500000D01*
X78500000Y-41000000D02*
X69500000Y-41000000D01*
X78500000Y-41000000D02*
X78750000Y-41000000D01*
X78750000Y-33500000D02*
X78750000Y-33750000D01*
X78750000Y-33750000D02*
X78750000Y-40750000D01*
X78750000Y-41000000D02*
X78750000Y-40750000D01*
G04 #@! TO.C,R2*
X21140000Y-23000000D02*
X30860000Y-23000000D01*
X30860000Y-26000000D01*
X21140000Y-26000000D01*
X21140000Y-23000000D01*
G04 #@! TO.C,C_PWR*
X41650000Y-6000000D02*
G75*
G02*
X34850000Y-6000000I-3400000J0D01*
G01*
X34850000Y-6000000D02*
G75*
G02*
X41650000Y-6000000I3400000J0D01*
G01*
G04 #@! TO.C,R3*
X33140000Y-23000000D02*
X42860000Y-23000000D01*
X42860000Y-26000000D01*
X33140000Y-26000000D01*
X33140000Y-23000000D01*
G04 #@! TO.C,R6*
X69140000Y-23000000D02*
X78860000Y-23000000D01*
X78860000Y-26000000D01*
X69140000Y-26000000D01*
X69140000Y-23000000D01*
G04 #@! TO.C,R7*
X81140000Y-23000000D02*
X90860000Y-23000000D01*
X90860000Y-26000000D01*
X81140000Y-26000000D01*
X81140000Y-23000000D01*
G04 #@! TO.C,U1*
X42980000Y-6920000D02*
X53640000Y-6920000D01*
X53640000Y-17700000D01*
X42980000Y-17700000D01*
X42980000Y-6920000D01*
G04 #@! TO.C,R_CC1*
X12320000Y-6800000D02*
X15680000Y-6800000D01*
X12320000Y-8700000D02*
X12320000Y-6800000D01*
X15680000Y-6800000D02*
X15680000Y-8700000D01*
X15680000Y-8700000D02*
X12320000Y-8700000D01*
G04 #@! TO.C,C2*
X52500000Y-18000000D02*
X58000000Y-18000000D01*
X58000000Y-21000000D01*
X52500000Y-21000000D01*
X52500000Y-18000000D01*
G04 #@! TO.C,SW7*
X81250000Y-33500000D02*
X81500000Y-33500000D01*
X81250000Y-33750000D02*
X81250000Y-33500000D01*
X81250000Y-40750000D02*
X81250000Y-33750000D01*
X81250000Y-40750000D02*
X81250000Y-41000000D01*
X81250000Y-41000000D02*
X81500000Y-41000000D01*
X81500000Y-33500000D02*
X90500000Y-33500000D01*
X90500000Y-33500000D02*
X90750000Y-33500000D01*
X90500000Y-41000000D02*
X81500000Y-41000000D01*
X90500000Y-41000000D02*
X90750000Y-41000000D01*
X90750000Y-33500000D02*
X90750000Y-33750000D01*
X90750000Y-33750000D02*
X90750000Y-40750000D01*
X90750000Y-41000000D02*
X90750000Y-40750000D01*
G04 #@! TO.C,R5*
X57140000Y-23000000D02*
X66860000Y-23000000D01*
X66860000Y-26000000D01*
X57140000Y-26000000D01*
X57140000Y-23000000D01*
G04 #@! TD*
M02*
