G04 #@! TF.GenerationSoftware,KiCad,Pcbnew,9.0.2+dfsg-1*
G04 #@! TF.CreationDate,2026-09-14T13:27:15+07:00*
G04 #@! TF.ProjectId,keyboard_555,6b657962-6f61-4726-945f-3535352e6b69,rev?*
G04 #@! TF.SameCoordinates,Original*
G04 #@! TF.FileFunction,AssemblyDrawing,Top*
%FSLAX46Y46*%
G04 Gerber Fmt 4.6, Leading zero omitted, Abs format (unit mm)*
G04 Created by KiCad (PCBNEW 9.0.2+dfsg-1) date 2026-09-14 13:27:15*
%MOMM*%
%LPD*%
G01*
G04 APERTURE LIST*
%ADD10C,0.150000*%
%ADD11C,0.080000*%
%ADD12C,0.120000*%
%ADD13C,0.100000*%
G04 APERTURE END LIST*
D10*
X49833333Y-24954819D02*
X49500000Y-24478628D01*
X49261905Y-24954819D02*
X49261905Y-23954819D01*
X49261905Y-23954819D02*
X49642857Y-23954819D01*
X49642857Y-23954819D02*
X49738095Y-24002438D01*
X49738095Y-24002438D02*
X49785714Y-24050057D01*
X49785714Y-24050057D02*
X49833333Y-24145295D01*
X49833333Y-24145295D02*
X49833333Y-24288152D01*
X49833333Y-24288152D02*
X49785714Y-24383390D01*
X49785714Y-24383390D02*
X49738095Y-24431009D01*
X49738095Y-24431009D02*
X49642857Y-24478628D01*
X49642857Y-24478628D02*
X49261905Y-24478628D01*
X50690476Y-24288152D02*
X50690476Y-24954819D01*
X50452381Y-23907200D02*
X50214286Y-24621485D01*
X50214286Y-24621485D02*
X50833333Y-24621485D01*
X38083333Y-14359580D02*
X38035714Y-14407200D01*
X38035714Y-14407200D02*
X37892857Y-14454819D01*
X37892857Y-14454819D02*
X37797619Y-14454819D01*
X37797619Y-14454819D02*
X37654762Y-14407200D01*
X37654762Y-14407200D02*
X37559524Y-14311961D01*
X37559524Y-14311961D02*
X37511905Y-14216723D01*
X37511905Y-14216723D02*
X37464286Y-14026247D01*
X37464286Y-14026247D02*
X37464286Y-13883390D01*
X37464286Y-13883390D02*
X37511905Y-13692914D01*
X37511905Y-13692914D02*
X37559524Y-13597676D01*
X37559524Y-13597676D02*
X37654762Y-13502438D01*
X37654762Y-13502438D02*
X37797619Y-13454819D01*
X37797619Y-13454819D02*
X37892857Y-13454819D01*
X37892857Y-13454819D02*
X38035714Y-13502438D01*
X38035714Y-13502438D02*
X38083333Y-13550057D01*
X39035714Y-14454819D02*
X38464286Y-14454819D01*
X38750000Y-14454819D02*
X38750000Y-13454819D01*
X38750000Y-13454819D02*
X38654762Y-13597676D01*
X38654762Y-13597676D02*
X38559524Y-13692914D01*
X38559524Y-13692914D02*
X38464286Y-13740533D01*
X13833333Y-24954819D02*
X13500000Y-24478628D01*
X13261905Y-24954819D02*
X13261905Y-23954819D01*
X13261905Y-23954819D02*
X13642857Y-23954819D01*
X13642857Y-23954819D02*
X13738095Y-24002438D01*
X13738095Y-24002438D02*
X13785714Y-24050057D01*
X13785714Y-24050057D02*
X13833333Y-24145295D01*
X13833333Y-24145295D02*
X13833333Y-24288152D01*
X13833333Y-24288152D02*
X13785714Y-24383390D01*
X13785714Y-24383390D02*
X13738095Y-24431009D01*
X13738095Y-24431009D02*
X13642857Y-24478628D01*
X13642857Y-24478628D02*
X13261905Y-24478628D01*
X14785714Y-24954819D02*
X14214286Y-24954819D01*
X14500000Y-24954819D02*
X14500000Y-23954819D01*
X14500000Y-23954819D02*
X14404762Y-24097676D01*
X14404762Y-24097676D02*
X14309524Y-24192914D01*
X14309524Y-24192914D02*
X14214286Y-24240533D01*
X12666667Y-37657200D02*
X12809524Y-37704819D01*
X12809524Y-37704819D02*
X13047619Y-37704819D01*
X13047619Y-37704819D02*
X13142857Y-37657200D01*
X13142857Y-37657200D02*
X13190476Y-37609580D01*
X13190476Y-37609580D02*
X13238095Y-37514342D01*
X13238095Y-37514342D02*
X13238095Y-37419104D01*
X13238095Y-37419104D02*
X13190476Y-37323866D01*
X13190476Y-37323866D02*
X13142857Y-37276247D01*
X13142857Y-37276247D02*
X13047619Y-37228628D01*
X13047619Y-37228628D02*
X12857143Y-37181009D01*
X12857143Y-37181009D02*
X12761905Y-37133390D01*
X12761905Y-37133390D02*
X12714286Y-37085771D01*
X12714286Y-37085771D02*
X12666667Y-36990533D01*
X12666667Y-36990533D02*
X12666667Y-36895295D01*
X12666667Y-36895295D02*
X12714286Y-36800057D01*
X12714286Y-36800057D02*
X12761905Y-36752438D01*
X12761905Y-36752438D02*
X12857143Y-36704819D01*
X12857143Y-36704819D02*
X13095238Y-36704819D01*
X13095238Y-36704819D02*
X13238095Y-36752438D01*
X13571429Y-36704819D02*
X13809524Y-37704819D01*
X13809524Y-37704819D02*
X14000000Y-36990533D01*
X14000000Y-36990533D02*
X14190476Y-37704819D01*
X14190476Y-37704819D02*
X14428572Y-36704819D01*
X15333333Y-37704819D02*
X14761905Y-37704819D01*
X15047619Y-37704819D02*
X15047619Y-36704819D01*
X15047619Y-36704819D02*
X14952381Y-36847676D01*
X14952381Y-36847676D02*
X14857143Y-36942914D01*
X14857143Y-36942914D02*
X14761905Y-36990533D01*
X73109048Y-8033866D02*
X73870953Y-8033866D01*
X73490000Y-8414819D02*
X73490000Y-7652914D01*
X76419047Y-6431009D02*
X76561904Y-6478628D01*
X76561904Y-6478628D02*
X76609523Y-6526247D01*
X76609523Y-6526247D02*
X76657142Y-6621485D01*
X76657142Y-6621485D02*
X76657142Y-6764342D01*
X76657142Y-6764342D02*
X76609523Y-6859580D01*
X76609523Y-6859580D02*
X76561904Y-6907200D01*
X76561904Y-6907200D02*
X76466666Y-6954819D01*
X76466666Y-6954819D02*
X76085714Y-6954819D01*
X76085714Y-6954819D02*
X76085714Y-5954819D01*
X76085714Y-5954819D02*
X76419047Y-5954819D01*
X76419047Y-5954819D02*
X76514285Y-6002438D01*
X76514285Y-6002438D02*
X76561904Y-6050057D01*
X76561904Y-6050057D02*
X76609523Y-6145295D01*
X76609523Y-6145295D02*
X76609523Y-6240533D01*
X76609523Y-6240533D02*
X76561904Y-6335771D01*
X76561904Y-6335771D02*
X76514285Y-6383390D01*
X76514285Y-6383390D02*
X76419047Y-6431009D01*
X76419047Y-6431009D02*
X76085714Y-6431009D01*
X76990476Y-5954819D02*
X77657142Y-5954819D01*
X77657142Y-5954819D02*
X76990476Y-6954819D01*
X76990476Y-6954819D02*
X77657142Y-6954819D01*
X78561904Y-6954819D02*
X77990476Y-6954819D01*
X78276190Y-6954819D02*
X78276190Y-5954819D01*
X78276190Y-5954819D02*
X78180952Y-6097676D01*
X78180952Y-6097676D02*
X78085714Y-6192914D01*
X78085714Y-6192914D02*
X77990476Y-6240533D01*
X60666667Y-37657200D02*
X60809524Y-37704819D01*
X60809524Y-37704819D02*
X61047619Y-37704819D01*
X61047619Y-37704819D02*
X61142857Y-37657200D01*
X61142857Y-37657200D02*
X61190476Y-37609580D01*
X61190476Y-37609580D02*
X61238095Y-37514342D01*
X61238095Y-37514342D02*
X61238095Y-37419104D01*
X61238095Y-37419104D02*
X61190476Y-37323866D01*
X61190476Y-37323866D02*
X61142857Y-37276247D01*
X61142857Y-37276247D02*
X61047619Y-37228628D01*
X61047619Y-37228628D02*
X60857143Y-37181009D01*
X60857143Y-37181009D02*
X60761905Y-37133390D01*
X60761905Y-37133390D02*
X60714286Y-37085771D01*
X60714286Y-37085771D02*
X60666667Y-36990533D01*
X60666667Y-36990533D02*
X60666667Y-36895295D01*
X60666667Y-36895295D02*
X60714286Y-36800057D01*
X60714286Y-36800057D02*
X60761905Y-36752438D01*
X60761905Y-36752438D02*
X60857143Y-36704819D01*
X60857143Y-36704819D02*
X61095238Y-36704819D01*
X61095238Y-36704819D02*
X61238095Y-36752438D01*
X61571429Y-36704819D02*
X61809524Y-37704819D01*
X61809524Y-37704819D02*
X62000000Y-36990533D01*
X62000000Y-36990533D02*
X62190476Y-37704819D01*
X62190476Y-37704819D02*
X62428572Y-36704819D01*
X63285714Y-36704819D02*
X62809524Y-36704819D01*
X62809524Y-36704819D02*
X62761905Y-37181009D01*
X62761905Y-37181009D02*
X62809524Y-37133390D01*
X62809524Y-37133390D02*
X62904762Y-37085771D01*
X62904762Y-37085771D02*
X63142857Y-37085771D01*
X63142857Y-37085771D02*
X63238095Y-37133390D01*
X63238095Y-37133390D02*
X63285714Y-37181009D01*
X63285714Y-37181009D02*
X63333333Y-37276247D01*
X63333333Y-37276247D02*
X63333333Y-37514342D01*
X63333333Y-37514342D02*
X63285714Y-37609580D01*
X63285714Y-37609580D02*
X63238095Y-37657200D01*
X63238095Y-37657200D02*
X63142857Y-37704819D01*
X63142857Y-37704819D02*
X62904762Y-37704819D01*
X62904762Y-37704819D02*
X62809524Y-37657200D01*
X62809524Y-37657200D02*
X62761905Y-37609580D01*
X24666667Y-37657200D02*
X24809524Y-37704819D01*
X24809524Y-37704819D02*
X25047619Y-37704819D01*
X25047619Y-37704819D02*
X25142857Y-37657200D01*
X25142857Y-37657200D02*
X25190476Y-37609580D01*
X25190476Y-37609580D02*
X25238095Y-37514342D01*
X25238095Y-37514342D02*
X25238095Y-37419104D01*
X25238095Y-37419104D02*
X25190476Y-37323866D01*
X25190476Y-37323866D02*
X25142857Y-37276247D01*
X25142857Y-37276247D02*
X25047619Y-37228628D01*
X25047619Y-37228628D02*
X24857143Y-37181009D01*
X24857143Y-37181009D02*
X24761905Y-37133390D01*
X24761905Y-37133390D02*
X24714286Y-37085771D01*
X24714286Y-37085771D02*
X24666667Y-36990533D01*
X24666667Y-36990533D02*
X24666667Y-36895295D01*
X24666667Y-36895295D02*
X24714286Y-36800057D01*
X24714286Y-36800057D02*
X24761905Y-36752438D01*
X24761905Y-36752438D02*
X24857143Y-36704819D01*
X24857143Y-36704819D02*
X25095238Y-36704819D01*
X25095238Y-36704819D02*
X25238095Y-36752438D01*
X25571429Y-36704819D02*
X25809524Y-37704819D01*
X25809524Y-37704819D02*
X26000000Y-36990533D01*
X26000000Y-36990533D02*
X26190476Y-37704819D01*
X26190476Y-37704819D02*
X26428572Y-36704819D01*
X26761905Y-36800057D02*
X26809524Y-36752438D01*
X26809524Y-36752438D02*
X26904762Y-36704819D01*
X26904762Y-36704819D02*
X27142857Y-36704819D01*
X27142857Y-36704819D02*
X27238095Y-36752438D01*
X27238095Y-36752438D02*
X27285714Y-36800057D01*
X27285714Y-36800057D02*
X27333333Y-36895295D01*
X27333333Y-36895295D02*
X27333333Y-36990533D01*
X27333333Y-36990533D02*
X27285714Y-37133390D01*
X27285714Y-37133390D02*
X26714286Y-37704819D01*
X26714286Y-37704819D02*
X27333333Y-37704819D01*
X27167142Y-13954819D02*
X26833809Y-13478628D01*
X26595714Y-13954819D02*
X26595714Y-12954819D01*
X26595714Y-12954819D02*
X26976666Y-12954819D01*
X26976666Y-12954819D02*
X27071904Y-13002438D01*
X27071904Y-13002438D02*
X27119523Y-13050057D01*
X27119523Y-13050057D02*
X27167142Y-13145295D01*
X27167142Y-13145295D02*
X27167142Y-13288152D01*
X27167142Y-13288152D02*
X27119523Y-13383390D01*
X27119523Y-13383390D02*
X27071904Y-13431009D01*
X27071904Y-13431009D02*
X26976666Y-13478628D01*
X26976666Y-13478628D02*
X26595714Y-13478628D01*
X27357619Y-14050057D02*
X28119523Y-14050057D01*
X28357619Y-13954819D02*
X28357619Y-12954819D01*
X28357619Y-12954819D02*
X28738571Y-12954819D01*
X28738571Y-12954819D02*
X28833809Y-13002438D01*
X28833809Y-13002438D02*
X28881428Y-13050057D01*
X28881428Y-13050057D02*
X28929047Y-13145295D01*
X28929047Y-13145295D02*
X28929047Y-13288152D01*
X28929047Y-13288152D02*
X28881428Y-13383390D01*
X28881428Y-13383390D02*
X28833809Y-13431009D01*
X28833809Y-13431009D02*
X28738571Y-13478628D01*
X28738571Y-13478628D02*
X28357619Y-13478628D01*
X29262381Y-12954819D02*
X29500476Y-13954819D01*
X29500476Y-13954819D02*
X29690952Y-13240533D01*
X29690952Y-13240533D02*
X29881428Y-13954819D01*
X29881428Y-13954819D02*
X30119524Y-12954819D01*
X31071904Y-13954819D02*
X30738571Y-13478628D01*
X30500476Y-13954819D02*
X30500476Y-12954819D01*
X30500476Y-12954819D02*
X30881428Y-12954819D01*
X30881428Y-12954819D02*
X30976666Y-13002438D01*
X30976666Y-13002438D02*
X31024285Y-13050057D01*
X31024285Y-13050057D02*
X31071904Y-13145295D01*
X31071904Y-13145295D02*
X31071904Y-13288152D01*
X31071904Y-13288152D02*
X31024285Y-13383390D01*
X31024285Y-13383390D02*
X30976666Y-13431009D01*
X30976666Y-13431009D02*
X30881428Y-13478628D01*
X30881428Y-13478628D02*
X30500476Y-13478628D01*
D11*
X13226190Y-10977149D02*
X13059524Y-10739054D01*
X12940476Y-10977149D02*
X12940476Y-10477149D01*
X12940476Y-10477149D02*
X13130952Y-10477149D01*
X13130952Y-10477149D02*
X13178571Y-10500959D01*
X13178571Y-10500959D02*
X13202381Y-10524768D01*
X13202381Y-10524768D02*
X13226190Y-10572387D01*
X13226190Y-10572387D02*
X13226190Y-10643816D01*
X13226190Y-10643816D02*
X13202381Y-10691435D01*
X13202381Y-10691435D02*
X13178571Y-10715244D01*
X13178571Y-10715244D02*
X13130952Y-10739054D01*
X13130952Y-10739054D02*
X12940476Y-10739054D01*
X13321429Y-11024768D02*
X13702381Y-11024768D01*
X14107142Y-10929530D02*
X14083333Y-10953340D01*
X14083333Y-10953340D02*
X14011904Y-10977149D01*
X14011904Y-10977149D02*
X13964285Y-10977149D01*
X13964285Y-10977149D02*
X13892857Y-10953340D01*
X13892857Y-10953340D02*
X13845238Y-10905720D01*
X13845238Y-10905720D02*
X13821428Y-10858101D01*
X13821428Y-10858101D02*
X13797619Y-10762863D01*
X13797619Y-10762863D02*
X13797619Y-10691435D01*
X13797619Y-10691435D02*
X13821428Y-10596197D01*
X13821428Y-10596197D02*
X13845238Y-10548578D01*
X13845238Y-10548578D02*
X13892857Y-10500959D01*
X13892857Y-10500959D02*
X13964285Y-10477149D01*
X13964285Y-10477149D02*
X14011904Y-10477149D01*
X14011904Y-10477149D02*
X14083333Y-10500959D01*
X14083333Y-10500959D02*
X14107142Y-10524768D01*
X14607142Y-10929530D02*
X14583333Y-10953340D01*
X14583333Y-10953340D02*
X14511904Y-10977149D01*
X14511904Y-10977149D02*
X14464285Y-10977149D01*
X14464285Y-10977149D02*
X14392857Y-10953340D01*
X14392857Y-10953340D02*
X14345238Y-10905720D01*
X14345238Y-10905720D02*
X14321428Y-10858101D01*
X14321428Y-10858101D02*
X14297619Y-10762863D01*
X14297619Y-10762863D02*
X14297619Y-10691435D01*
X14297619Y-10691435D02*
X14321428Y-10596197D01*
X14321428Y-10596197D02*
X14345238Y-10548578D01*
X14345238Y-10548578D02*
X14392857Y-10500959D01*
X14392857Y-10500959D02*
X14464285Y-10477149D01*
X14464285Y-10477149D02*
X14511904Y-10477149D01*
X14511904Y-10477149D02*
X14583333Y-10500959D01*
X14583333Y-10500959D02*
X14607142Y-10524768D01*
X14797619Y-10524768D02*
X14821428Y-10500959D01*
X14821428Y-10500959D02*
X14869047Y-10477149D01*
X14869047Y-10477149D02*
X14988095Y-10477149D01*
X14988095Y-10477149D02*
X15035714Y-10500959D01*
X15035714Y-10500959D02*
X15059523Y-10524768D01*
X15059523Y-10524768D02*
X15083333Y-10572387D01*
X15083333Y-10572387D02*
X15083333Y-10620006D01*
X15083333Y-10620006D02*
X15059523Y-10691435D01*
X15059523Y-10691435D02*
X14773809Y-10977149D01*
X14773809Y-10977149D02*
X15083333Y-10977149D01*
D10*
X47809999Y-3954819D02*
X47476666Y-3478628D01*
X47238571Y-3954819D02*
X47238571Y-2954819D01*
X47238571Y-2954819D02*
X47619523Y-2954819D01*
X47619523Y-2954819D02*
X47714761Y-3002438D01*
X47714761Y-3002438D02*
X47762380Y-3050057D01*
X47762380Y-3050057D02*
X47809999Y-3145295D01*
X47809999Y-3145295D02*
X47809999Y-3288152D01*
X47809999Y-3288152D02*
X47762380Y-3383390D01*
X47762380Y-3383390D02*
X47714761Y-3431009D01*
X47714761Y-3431009D02*
X47619523Y-3478628D01*
X47619523Y-3478628D02*
X47238571Y-3478628D01*
X48000476Y-4050057D02*
X48762380Y-4050057D01*
X48952857Y-3669104D02*
X49429047Y-3669104D01*
X48857619Y-3954819D02*
X49190952Y-2954819D01*
X49190952Y-2954819D02*
X49524285Y-3954819D01*
X91861666Y-9454819D02*
X91861666Y-10169104D01*
X91861666Y-10169104D02*
X91814047Y-10311961D01*
X91814047Y-10311961D02*
X91718809Y-10407200D01*
X91718809Y-10407200D02*
X91575952Y-10454819D01*
X91575952Y-10454819D02*
X91480714Y-10454819D01*
X92290238Y-9550057D02*
X92337857Y-9502438D01*
X92337857Y-9502438D02*
X92433095Y-9454819D01*
X92433095Y-9454819D02*
X92671190Y-9454819D01*
X92671190Y-9454819D02*
X92766428Y-9502438D01*
X92766428Y-9502438D02*
X92814047Y-9550057D01*
X92814047Y-9550057D02*
X92861666Y-9645295D01*
X92861666Y-9645295D02*
X92861666Y-9740533D01*
X92861666Y-9740533D02*
X92814047Y-9883390D01*
X92814047Y-9883390D02*
X92242619Y-10454819D01*
X92242619Y-10454819D02*
X92861666Y-10454819D01*
X62174819Y-6205238D02*
X61698628Y-6538571D01*
X62174819Y-6776666D02*
X61174819Y-6776666D01*
X61174819Y-6776666D02*
X61174819Y-6395714D01*
X61174819Y-6395714D02*
X61222438Y-6300476D01*
X61222438Y-6300476D02*
X61270057Y-6252857D01*
X61270057Y-6252857D02*
X61365295Y-6205238D01*
X61365295Y-6205238D02*
X61508152Y-6205238D01*
X61508152Y-6205238D02*
X61603390Y-6252857D01*
X61603390Y-6252857D02*
X61651009Y-6300476D01*
X61651009Y-6300476D02*
X61698628Y-6395714D01*
X61698628Y-6395714D02*
X61698628Y-6776666D01*
X61174819Y-5919523D02*
X62174819Y-5586190D01*
X62174819Y-5586190D02*
X61174819Y-5252857D01*
X62174819Y-4395714D02*
X62174819Y-4967142D01*
X62174819Y-4681428D02*
X61174819Y-4681428D01*
X61174819Y-4681428D02*
X61317676Y-4776666D01*
X61317676Y-4776666D02*
X61412914Y-4871904D01*
X61412914Y-4871904D02*
X61460533Y-4967142D01*
D12*
X29498571Y-5363855D02*
X29498571Y-4563855D01*
X29498571Y-4563855D02*
X29689047Y-4563855D01*
X29689047Y-4563855D02*
X29803333Y-4601950D01*
X29803333Y-4601950D02*
X29879523Y-4678140D01*
X29879523Y-4678140D02*
X29917618Y-4754331D01*
X29917618Y-4754331D02*
X29955714Y-4906712D01*
X29955714Y-4906712D02*
X29955714Y-5020998D01*
X29955714Y-5020998D02*
X29917618Y-5173379D01*
X29917618Y-5173379D02*
X29879523Y-5249569D01*
X29879523Y-5249569D02*
X29803333Y-5325760D01*
X29803333Y-5325760D02*
X29689047Y-5363855D01*
X29689047Y-5363855D02*
X29498571Y-5363855D01*
X30108095Y-5440045D02*
X30717618Y-5440045D01*
X30908095Y-5363855D02*
X30908095Y-4563855D01*
X30908095Y-4563855D02*
X31212857Y-4563855D01*
X31212857Y-4563855D02*
X31289047Y-4601950D01*
X31289047Y-4601950D02*
X31327142Y-4640045D01*
X31327142Y-4640045D02*
X31365238Y-4716236D01*
X31365238Y-4716236D02*
X31365238Y-4830521D01*
X31365238Y-4830521D02*
X31327142Y-4906712D01*
X31327142Y-4906712D02*
X31289047Y-4944807D01*
X31289047Y-4944807D02*
X31212857Y-4982902D01*
X31212857Y-4982902D02*
X30908095Y-4982902D01*
X31631904Y-4563855D02*
X31822380Y-5363855D01*
X31822380Y-5363855D02*
X31974761Y-4792426D01*
X31974761Y-4792426D02*
X32127142Y-5363855D01*
X32127142Y-5363855D02*
X32317619Y-4563855D01*
X33079524Y-5363855D02*
X32812857Y-4982902D01*
X32622381Y-5363855D02*
X32622381Y-4563855D01*
X32622381Y-4563855D02*
X32927143Y-4563855D01*
X32927143Y-4563855D02*
X33003333Y-4601950D01*
X33003333Y-4601950D02*
X33041428Y-4640045D01*
X33041428Y-4640045D02*
X33079524Y-4716236D01*
X33079524Y-4716236D02*
X33079524Y-4830521D01*
X33079524Y-4830521D02*
X33041428Y-4906712D01*
X33041428Y-4906712D02*
X33003333Y-4944807D01*
X33003333Y-4944807D02*
X32927143Y-4982902D01*
X32927143Y-4982902D02*
X32622381Y-4982902D01*
D10*
X21180476Y-6417200D02*
X21323333Y-6464819D01*
X21323333Y-6464819D02*
X21561428Y-6464819D01*
X21561428Y-6464819D02*
X21656666Y-6417200D01*
X21656666Y-6417200D02*
X21704285Y-6369580D01*
X21704285Y-6369580D02*
X21751904Y-6274342D01*
X21751904Y-6274342D02*
X21751904Y-6179104D01*
X21751904Y-6179104D02*
X21704285Y-6083866D01*
X21704285Y-6083866D02*
X21656666Y-6036247D01*
X21656666Y-6036247D02*
X21561428Y-5988628D01*
X21561428Y-5988628D02*
X21370952Y-5941009D01*
X21370952Y-5941009D02*
X21275714Y-5893390D01*
X21275714Y-5893390D02*
X21228095Y-5845771D01*
X21228095Y-5845771D02*
X21180476Y-5750533D01*
X21180476Y-5750533D02*
X21180476Y-5655295D01*
X21180476Y-5655295D02*
X21228095Y-5560057D01*
X21228095Y-5560057D02*
X21275714Y-5512438D01*
X21275714Y-5512438D02*
X21370952Y-5464819D01*
X21370952Y-5464819D02*
X21609047Y-5464819D01*
X21609047Y-5464819D02*
X21751904Y-5512438D01*
X22085238Y-5464819D02*
X22323333Y-6464819D01*
X22323333Y-6464819D02*
X22513809Y-5750533D01*
X22513809Y-5750533D02*
X22704285Y-6464819D01*
X22704285Y-6464819D02*
X22942381Y-5464819D01*
X23085238Y-6560057D02*
X23847142Y-6560057D01*
X24085238Y-6464819D02*
X24085238Y-5464819D01*
X24085238Y-5464819D02*
X24466190Y-5464819D01*
X24466190Y-5464819D02*
X24561428Y-5512438D01*
X24561428Y-5512438D02*
X24609047Y-5560057D01*
X24609047Y-5560057D02*
X24656666Y-5655295D01*
X24656666Y-5655295D02*
X24656666Y-5798152D01*
X24656666Y-5798152D02*
X24609047Y-5893390D01*
X24609047Y-5893390D02*
X24561428Y-5941009D01*
X24561428Y-5941009D02*
X24466190Y-5988628D01*
X24466190Y-5988628D02*
X24085238Y-5988628D01*
X24990000Y-5464819D02*
X25228095Y-6464819D01*
X25228095Y-6464819D02*
X25418571Y-5750533D01*
X25418571Y-5750533D02*
X25609047Y-6464819D01*
X25609047Y-6464819D02*
X25847143Y-5464819D01*
X26799523Y-6464819D02*
X26466190Y-5988628D01*
X26228095Y-6464819D02*
X26228095Y-5464819D01*
X26228095Y-5464819D02*
X26609047Y-5464819D01*
X26609047Y-5464819D02*
X26704285Y-5512438D01*
X26704285Y-5512438D02*
X26751904Y-5560057D01*
X26751904Y-5560057D02*
X26799523Y-5655295D01*
X26799523Y-5655295D02*
X26799523Y-5798152D01*
X26799523Y-5798152D02*
X26751904Y-5893390D01*
X26751904Y-5893390D02*
X26704285Y-5941009D01*
X26704285Y-5941009D02*
X26609047Y-5988628D01*
X26609047Y-5988628D02*
X26228095Y-5988628D01*
X3754819Y-9333333D02*
X4469104Y-9333333D01*
X4469104Y-9333333D02*
X4611961Y-9380952D01*
X4611961Y-9380952D02*
X4707200Y-9476190D01*
X4707200Y-9476190D02*
X4754819Y-9619047D01*
X4754819Y-9619047D02*
X4754819Y-9714285D01*
X4754819Y-8333333D02*
X4754819Y-8904761D01*
X4754819Y-8619047D02*
X3754819Y-8619047D01*
X3754819Y-8619047D02*
X3897676Y-8714285D01*
X3897676Y-8714285D02*
X3992914Y-8809523D01*
X3992914Y-8809523D02*
X4040533Y-8904761D01*
X48666667Y-37657200D02*
X48809524Y-37704819D01*
X48809524Y-37704819D02*
X49047619Y-37704819D01*
X49047619Y-37704819D02*
X49142857Y-37657200D01*
X49142857Y-37657200D02*
X49190476Y-37609580D01*
X49190476Y-37609580D02*
X49238095Y-37514342D01*
X49238095Y-37514342D02*
X49238095Y-37419104D01*
X49238095Y-37419104D02*
X49190476Y-37323866D01*
X49190476Y-37323866D02*
X49142857Y-37276247D01*
X49142857Y-37276247D02*
X49047619Y-37228628D01*
X49047619Y-37228628D02*
X48857143Y-37181009D01*
X48857143Y-37181009D02*
X48761905Y-37133390D01*
X48761905Y-37133390D02*
X48714286Y-37085771D01*
X48714286Y-37085771D02*
X48666667Y-36990533D01*
X48666667Y-36990533D02*
X48666667Y-36895295D01*
X48666667Y-36895295D02*
X48714286Y-36800057D01*
X48714286Y-36800057D02*
X48761905Y-36752438D01*
X48761905Y-36752438D02*
X48857143Y-36704819D01*
X48857143Y-36704819D02*
X49095238Y-36704819D01*
X49095238Y-36704819D02*
X49238095Y-36752438D01*
X49571429Y-36704819D02*
X49809524Y-37704819D01*
X49809524Y-37704819D02*
X50000000Y-36990533D01*
X50000000Y-36990533D02*
X50190476Y-37704819D01*
X50190476Y-37704819D02*
X50428572Y-36704819D01*
X51238095Y-37038152D02*
X51238095Y-37704819D01*
X51000000Y-36657200D02*
X50761905Y-37371485D01*
X50761905Y-37371485D02*
X51380952Y-37371485D01*
X36666667Y-37657200D02*
X36809524Y-37704819D01*
X36809524Y-37704819D02*
X37047619Y-37704819D01*
X37047619Y-37704819D02*
X37142857Y-37657200D01*
X37142857Y-37657200D02*
X37190476Y-37609580D01*
X37190476Y-37609580D02*
X37238095Y-37514342D01*
X37238095Y-37514342D02*
X37238095Y-37419104D01*
X37238095Y-37419104D02*
X37190476Y-37323866D01*
X37190476Y-37323866D02*
X37142857Y-37276247D01*
X37142857Y-37276247D02*
X37047619Y-37228628D01*
X37047619Y-37228628D02*
X36857143Y-37181009D01*
X36857143Y-37181009D02*
X36761905Y-37133390D01*
X36761905Y-37133390D02*
X36714286Y-37085771D01*
X36714286Y-37085771D02*
X36666667Y-36990533D01*
X36666667Y-36990533D02*
X36666667Y-36895295D01*
X36666667Y-36895295D02*
X36714286Y-36800057D01*
X36714286Y-36800057D02*
X36761905Y-36752438D01*
X36761905Y-36752438D02*
X36857143Y-36704819D01*
X36857143Y-36704819D02*
X37095238Y-36704819D01*
X37095238Y-36704819D02*
X37238095Y-36752438D01*
X37571429Y-36704819D02*
X37809524Y-37704819D01*
X37809524Y-37704819D02*
X38000000Y-36990533D01*
X38000000Y-36990533D02*
X38190476Y-37704819D01*
X38190476Y-37704819D02*
X38428572Y-36704819D01*
X38714286Y-36704819D02*
X39333333Y-36704819D01*
X39333333Y-36704819D02*
X39000000Y-37085771D01*
X39000000Y-37085771D02*
X39142857Y-37085771D01*
X39142857Y-37085771D02*
X39238095Y-37133390D01*
X39238095Y-37133390D02*
X39285714Y-37181009D01*
X39285714Y-37181009D02*
X39333333Y-37276247D01*
X39333333Y-37276247D02*
X39333333Y-37514342D01*
X39333333Y-37514342D02*
X39285714Y-37609580D01*
X39285714Y-37609580D02*
X39238095Y-37657200D01*
X39238095Y-37657200D02*
X39142857Y-37704819D01*
X39142857Y-37704819D02*
X38857143Y-37704819D01*
X38857143Y-37704819D02*
X38761905Y-37657200D01*
X38761905Y-37657200D02*
X38714286Y-37609580D01*
X56749999Y-14859580D02*
X56702380Y-14907200D01*
X56702380Y-14907200D02*
X56559523Y-14954819D01*
X56559523Y-14954819D02*
X56464285Y-14954819D01*
X56464285Y-14954819D02*
X56321428Y-14907200D01*
X56321428Y-14907200D02*
X56226190Y-14811961D01*
X56226190Y-14811961D02*
X56178571Y-14716723D01*
X56178571Y-14716723D02*
X56130952Y-14526247D01*
X56130952Y-14526247D02*
X56130952Y-14383390D01*
X56130952Y-14383390D02*
X56178571Y-14192914D01*
X56178571Y-14192914D02*
X56226190Y-14097676D01*
X56226190Y-14097676D02*
X56321428Y-14002438D01*
X56321428Y-14002438D02*
X56464285Y-13954819D01*
X56464285Y-13954819D02*
X56559523Y-13954819D01*
X56559523Y-13954819D02*
X56702380Y-14002438D01*
X56702380Y-14002438D02*
X56749999Y-14050057D01*
X56940476Y-15050057D02*
X57702380Y-15050057D01*
X58130952Y-13954819D02*
X58321428Y-13954819D01*
X58321428Y-13954819D02*
X58416666Y-14002438D01*
X58416666Y-14002438D02*
X58511904Y-14097676D01*
X58511904Y-14097676D02*
X58559523Y-14288152D01*
X58559523Y-14288152D02*
X58559523Y-14621485D01*
X58559523Y-14621485D02*
X58511904Y-14811961D01*
X58511904Y-14811961D02*
X58416666Y-14907200D01*
X58416666Y-14907200D02*
X58321428Y-14954819D01*
X58321428Y-14954819D02*
X58130952Y-14954819D01*
X58130952Y-14954819D02*
X58035714Y-14907200D01*
X58035714Y-14907200D02*
X57940476Y-14811961D01*
X57940476Y-14811961D02*
X57892857Y-14621485D01*
X57892857Y-14621485D02*
X57892857Y-14288152D01*
X57892857Y-14288152D02*
X57940476Y-14097676D01*
X57940476Y-14097676D02*
X58035714Y-14002438D01*
X58035714Y-14002438D02*
X58130952Y-13954819D01*
X58988095Y-13954819D02*
X58988095Y-14764342D01*
X58988095Y-14764342D02*
X59035714Y-14859580D01*
X59035714Y-14859580D02*
X59083333Y-14907200D01*
X59083333Y-14907200D02*
X59178571Y-14954819D01*
X59178571Y-14954819D02*
X59369047Y-14954819D01*
X59369047Y-14954819D02*
X59464285Y-14907200D01*
X59464285Y-14907200D02*
X59511904Y-14859580D01*
X59511904Y-14859580D02*
X59559523Y-14764342D01*
X59559523Y-14764342D02*
X59559523Y-13954819D01*
X59892857Y-13954819D02*
X60464285Y-13954819D01*
X60178571Y-14954819D02*
X60178571Y-13954819D01*
X72666667Y-37657200D02*
X72809524Y-37704819D01*
X72809524Y-37704819D02*
X73047619Y-37704819D01*
X73047619Y-37704819D02*
X73142857Y-37657200D01*
X73142857Y-37657200D02*
X73190476Y-37609580D01*
X73190476Y-37609580D02*
X73238095Y-37514342D01*
X73238095Y-37514342D02*
X73238095Y-37419104D01*
X73238095Y-37419104D02*
X73190476Y-37323866D01*
X73190476Y-37323866D02*
X73142857Y-37276247D01*
X73142857Y-37276247D02*
X73047619Y-37228628D01*
X73047619Y-37228628D02*
X72857143Y-37181009D01*
X72857143Y-37181009D02*
X72761905Y-37133390D01*
X72761905Y-37133390D02*
X72714286Y-37085771D01*
X72714286Y-37085771D02*
X72666667Y-36990533D01*
X72666667Y-36990533D02*
X72666667Y-36895295D01*
X72666667Y-36895295D02*
X72714286Y-36800057D01*
X72714286Y-36800057D02*
X72761905Y-36752438D01*
X72761905Y-36752438D02*
X72857143Y-36704819D01*
X72857143Y-36704819D02*
X73095238Y-36704819D01*
X73095238Y-36704819D02*
X73238095Y-36752438D01*
X73571429Y-36704819D02*
X73809524Y-37704819D01*
X73809524Y-37704819D02*
X74000000Y-36990533D01*
X74000000Y-36990533D02*
X74190476Y-37704819D01*
X74190476Y-37704819D02*
X74428572Y-36704819D01*
X75238095Y-36704819D02*
X75047619Y-36704819D01*
X75047619Y-36704819D02*
X74952381Y-36752438D01*
X74952381Y-36752438D02*
X74904762Y-36800057D01*
X74904762Y-36800057D02*
X74809524Y-36942914D01*
X74809524Y-36942914D02*
X74761905Y-37133390D01*
X74761905Y-37133390D02*
X74761905Y-37514342D01*
X74761905Y-37514342D02*
X74809524Y-37609580D01*
X74809524Y-37609580D02*
X74857143Y-37657200D01*
X74857143Y-37657200D02*
X74952381Y-37704819D01*
X74952381Y-37704819D02*
X75142857Y-37704819D01*
X75142857Y-37704819D02*
X75238095Y-37657200D01*
X75238095Y-37657200D02*
X75285714Y-37609580D01*
X75285714Y-37609580D02*
X75333333Y-37514342D01*
X75333333Y-37514342D02*
X75333333Y-37276247D01*
X75333333Y-37276247D02*
X75285714Y-37181009D01*
X75285714Y-37181009D02*
X75238095Y-37133390D01*
X75238095Y-37133390D02*
X75142857Y-37085771D01*
X75142857Y-37085771D02*
X74952381Y-37085771D01*
X74952381Y-37085771D02*
X74857143Y-37133390D01*
X74857143Y-37133390D02*
X74809524Y-37181009D01*
X74809524Y-37181009D02*
X74761905Y-37276247D01*
X25833333Y-24954819D02*
X25500000Y-24478628D01*
X25261905Y-24954819D02*
X25261905Y-23954819D01*
X25261905Y-23954819D02*
X25642857Y-23954819D01*
X25642857Y-23954819D02*
X25738095Y-24002438D01*
X25738095Y-24002438D02*
X25785714Y-24050057D01*
X25785714Y-24050057D02*
X25833333Y-24145295D01*
X25833333Y-24145295D02*
X25833333Y-24288152D01*
X25833333Y-24288152D02*
X25785714Y-24383390D01*
X25785714Y-24383390D02*
X25738095Y-24431009D01*
X25738095Y-24431009D02*
X25642857Y-24478628D01*
X25642857Y-24478628D02*
X25261905Y-24478628D01*
X26214286Y-24050057D02*
X26261905Y-24002438D01*
X26261905Y-24002438D02*
X26357143Y-23954819D01*
X26357143Y-23954819D02*
X26595238Y-23954819D01*
X26595238Y-23954819D02*
X26690476Y-24002438D01*
X26690476Y-24002438D02*
X26738095Y-24050057D01*
X26738095Y-24050057D02*
X26785714Y-24145295D01*
X26785714Y-24145295D02*
X26785714Y-24240533D01*
X26785714Y-24240533D02*
X26738095Y-24383390D01*
X26738095Y-24383390D02*
X26166667Y-24954819D01*
X26166667Y-24954819D02*
X26785714Y-24954819D01*
X36607142Y-6359580D02*
X36559523Y-6407200D01*
X36559523Y-6407200D02*
X36416666Y-6454819D01*
X36416666Y-6454819D02*
X36321428Y-6454819D01*
X36321428Y-6454819D02*
X36178571Y-6407200D01*
X36178571Y-6407200D02*
X36083333Y-6311961D01*
X36083333Y-6311961D02*
X36035714Y-6216723D01*
X36035714Y-6216723D02*
X35988095Y-6026247D01*
X35988095Y-6026247D02*
X35988095Y-5883390D01*
X35988095Y-5883390D02*
X36035714Y-5692914D01*
X36035714Y-5692914D02*
X36083333Y-5597676D01*
X36083333Y-5597676D02*
X36178571Y-5502438D01*
X36178571Y-5502438D02*
X36321428Y-5454819D01*
X36321428Y-5454819D02*
X36416666Y-5454819D01*
X36416666Y-5454819D02*
X36559523Y-5502438D01*
X36559523Y-5502438D02*
X36607142Y-5550057D01*
X36797619Y-6550057D02*
X37559523Y-6550057D01*
X37797619Y-6454819D02*
X37797619Y-5454819D01*
X37797619Y-5454819D02*
X38178571Y-5454819D01*
X38178571Y-5454819D02*
X38273809Y-5502438D01*
X38273809Y-5502438D02*
X38321428Y-5550057D01*
X38321428Y-5550057D02*
X38369047Y-5645295D01*
X38369047Y-5645295D02*
X38369047Y-5788152D01*
X38369047Y-5788152D02*
X38321428Y-5883390D01*
X38321428Y-5883390D02*
X38273809Y-5931009D01*
X38273809Y-5931009D02*
X38178571Y-5978628D01*
X38178571Y-5978628D02*
X37797619Y-5978628D01*
X38702381Y-5454819D02*
X38940476Y-6454819D01*
X38940476Y-6454819D02*
X39130952Y-5740533D01*
X39130952Y-5740533D02*
X39321428Y-6454819D01*
X39321428Y-6454819D02*
X39559524Y-5454819D01*
X40511904Y-6454819D02*
X40178571Y-5978628D01*
X39940476Y-6454819D02*
X39940476Y-5454819D01*
X39940476Y-5454819D02*
X40321428Y-5454819D01*
X40321428Y-5454819D02*
X40416666Y-5502438D01*
X40416666Y-5502438D02*
X40464285Y-5550057D01*
X40464285Y-5550057D02*
X40511904Y-5645295D01*
X40511904Y-5645295D02*
X40511904Y-5788152D01*
X40511904Y-5788152D02*
X40464285Y-5883390D01*
X40464285Y-5883390D02*
X40416666Y-5931009D01*
X40416666Y-5931009D02*
X40321428Y-5978628D01*
X40321428Y-5978628D02*
X39940476Y-5978628D01*
X37833333Y-24954819D02*
X37500000Y-24478628D01*
X37261905Y-24954819D02*
X37261905Y-23954819D01*
X37261905Y-23954819D02*
X37642857Y-23954819D01*
X37642857Y-23954819D02*
X37738095Y-24002438D01*
X37738095Y-24002438D02*
X37785714Y-24050057D01*
X37785714Y-24050057D02*
X37833333Y-24145295D01*
X37833333Y-24145295D02*
X37833333Y-24288152D01*
X37833333Y-24288152D02*
X37785714Y-24383390D01*
X37785714Y-24383390D02*
X37738095Y-24431009D01*
X37738095Y-24431009D02*
X37642857Y-24478628D01*
X37642857Y-24478628D02*
X37261905Y-24478628D01*
X38166667Y-23954819D02*
X38785714Y-23954819D01*
X38785714Y-23954819D02*
X38452381Y-24335771D01*
X38452381Y-24335771D02*
X38595238Y-24335771D01*
X38595238Y-24335771D02*
X38690476Y-24383390D01*
X38690476Y-24383390D02*
X38738095Y-24431009D01*
X38738095Y-24431009D02*
X38785714Y-24526247D01*
X38785714Y-24526247D02*
X38785714Y-24764342D01*
X38785714Y-24764342D02*
X38738095Y-24859580D01*
X38738095Y-24859580D02*
X38690476Y-24907200D01*
X38690476Y-24907200D02*
X38595238Y-24954819D01*
X38595238Y-24954819D02*
X38309524Y-24954819D01*
X38309524Y-24954819D02*
X38214286Y-24907200D01*
X38214286Y-24907200D02*
X38166667Y-24859580D01*
X73833333Y-24954819D02*
X73500000Y-24478628D01*
X73261905Y-24954819D02*
X73261905Y-23954819D01*
X73261905Y-23954819D02*
X73642857Y-23954819D01*
X73642857Y-23954819D02*
X73738095Y-24002438D01*
X73738095Y-24002438D02*
X73785714Y-24050057D01*
X73785714Y-24050057D02*
X73833333Y-24145295D01*
X73833333Y-24145295D02*
X73833333Y-24288152D01*
X73833333Y-24288152D02*
X73785714Y-24383390D01*
X73785714Y-24383390D02*
X73738095Y-24431009D01*
X73738095Y-24431009D02*
X73642857Y-24478628D01*
X73642857Y-24478628D02*
X73261905Y-24478628D01*
X74690476Y-23954819D02*
X74500000Y-23954819D01*
X74500000Y-23954819D02*
X74404762Y-24002438D01*
X74404762Y-24002438D02*
X74357143Y-24050057D01*
X74357143Y-24050057D02*
X74261905Y-24192914D01*
X74261905Y-24192914D02*
X74214286Y-24383390D01*
X74214286Y-24383390D02*
X74214286Y-24764342D01*
X74214286Y-24764342D02*
X74261905Y-24859580D01*
X74261905Y-24859580D02*
X74309524Y-24907200D01*
X74309524Y-24907200D02*
X74404762Y-24954819D01*
X74404762Y-24954819D02*
X74595238Y-24954819D01*
X74595238Y-24954819D02*
X74690476Y-24907200D01*
X74690476Y-24907200D02*
X74738095Y-24859580D01*
X74738095Y-24859580D02*
X74785714Y-24764342D01*
X74785714Y-24764342D02*
X74785714Y-24526247D01*
X74785714Y-24526247D02*
X74738095Y-24431009D01*
X74738095Y-24431009D02*
X74690476Y-24383390D01*
X74690476Y-24383390D02*
X74595238Y-24335771D01*
X74595238Y-24335771D02*
X74404762Y-24335771D01*
X74404762Y-24335771D02*
X74309524Y-24383390D01*
X74309524Y-24383390D02*
X74261905Y-24431009D01*
X74261905Y-24431009D02*
X74214286Y-24526247D01*
X85833333Y-24954819D02*
X85500000Y-24478628D01*
X85261905Y-24954819D02*
X85261905Y-23954819D01*
X85261905Y-23954819D02*
X85642857Y-23954819D01*
X85642857Y-23954819D02*
X85738095Y-24002438D01*
X85738095Y-24002438D02*
X85785714Y-24050057D01*
X85785714Y-24050057D02*
X85833333Y-24145295D01*
X85833333Y-24145295D02*
X85833333Y-24288152D01*
X85833333Y-24288152D02*
X85785714Y-24383390D01*
X85785714Y-24383390D02*
X85738095Y-24431009D01*
X85738095Y-24431009D02*
X85642857Y-24478628D01*
X85642857Y-24478628D02*
X85261905Y-24478628D01*
X86166667Y-23954819D02*
X86833333Y-23954819D01*
X86833333Y-23954819D02*
X86404762Y-24954819D01*
X47764819Y-13071904D02*
X48574342Y-13071904D01*
X48574342Y-13071904D02*
X48669580Y-13024285D01*
X48669580Y-13024285D02*
X48717200Y-12976666D01*
X48717200Y-12976666D02*
X48764819Y-12881428D01*
X48764819Y-12881428D02*
X48764819Y-12690952D01*
X48764819Y-12690952D02*
X48717200Y-12595714D01*
X48717200Y-12595714D02*
X48669580Y-12548095D01*
X48669580Y-12548095D02*
X48574342Y-12500476D01*
X48574342Y-12500476D02*
X47764819Y-12500476D01*
X48764819Y-11500476D02*
X48764819Y-12071904D01*
X48764819Y-11786190D02*
X47764819Y-11786190D01*
X47764819Y-11786190D02*
X47907676Y-11881428D01*
X47907676Y-11881428D02*
X48002914Y-11976666D01*
X48002914Y-11976666D02*
X48050533Y-12071904D01*
D11*
X13226190Y-7977149D02*
X13059524Y-7739054D01*
X12940476Y-7977149D02*
X12940476Y-7477149D01*
X12940476Y-7477149D02*
X13130952Y-7477149D01*
X13130952Y-7477149D02*
X13178571Y-7500959D01*
X13178571Y-7500959D02*
X13202381Y-7524768D01*
X13202381Y-7524768D02*
X13226190Y-7572387D01*
X13226190Y-7572387D02*
X13226190Y-7643816D01*
X13226190Y-7643816D02*
X13202381Y-7691435D01*
X13202381Y-7691435D02*
X13178571Y-7715244D01*
X13178571Y-7715244D02*
X13130952Y-7739054D01*
X13130952Y-7739054D02*
X12940476Y-7739054D01*
X13321429Y-8024768D02*
X13702381Y-8024768D01*
X14107142Y-7929530D02*
X14083333Y-7953340D01*
X14083333Y-7953340D02*
X14011904Y-7977149D01*
X14011904Y-7977149D02*
X13964285Y-7977149D01*
X13964285Y-7977149D02*
X13892857Y-7953340D01*
X13892857Y-7953340D02*
X13845238Y-7905720D01*
X13845238Y-7905720D02*
X13821428Y-7858101D01*
X13821428Y-7858101D02*
X13797619Y-7762863D01*
X13797619Y-7762863D02*
X13797619Y-7691435D01*
X13797619Y-7691435D02*
X13821428Y-7596197D01*
X13821428Y-7596197D02*
X13845238Y-7548578D01*
X13845238Y-7548578D02*
X13892857Y-7500959D01*
X13892857Y-7500959D02*
X13964285Y-7477149D01*
X13964285Y-7477149D02*
X14011904Y-7477149D01*
X14011904Y-7477149D02*
X14083333Y-7500959D01*
X14083333Y-7500959D02*
X14107142Y-7524768D01*
X14607142Y-7929530D02*
X14583333Y-7953340D01*
X14583333Y-7953340D02*
X14511904Y-7977149D01*
X14511904Y-7977149D02*
X14464285Y-7977149D01*
X14464285Y-7977149D02*
X14392857Y-7953340D01*
X14392857Y-7953340D02*
X14345238Y-7905720D01*
X14345238Y-7905720D02*
X14321428Y-7858101D01*
X14321428Y-7858101D02*
X14297619Y-7762863D01*
X14297619Y-7762863D02*
X14297619Y-7691435D01*
X14297619Y-7691435D02*
X14321428Y-7596197D01*
X14321428Y-7596197D02*
X14345238Y-7548578D01*
X14345238Y-7548578D02*
X14392857Y-7500959D01*
X14392857Y-7500959D02*
X14464285Y-7477149D01*
X14464285Y-7477149D02*
X14511904Y-7477149D01*
X14511904Y-7477149D02*
X14583333Y-7500959D01*
X14583333Y-7500959D02*
X14607142Y-7524768D01*
X15083333Y-7977149D02*
X14797619Y-7977149D01*
X14940476Y-7977149D02*
X14940476Y-7477149D01*
X14940476Y-7477149D02*
X14892857Y-7548578D01*
X14892857Y-7548578D02*
X14845238Y-7596197D01*
X14845238Y-7596197D02*
X14797619Y-7620006D01*
D10*
X55083333Y-19859580D02*
X55035714Y-19907200D01*
X55035714Y-19907200D02*
X54892857Y-19954819D01*
X54892857Y-19954819D02*
X54797619Y-19954819D01*
X54797619Y-19954819D02*
X54654762Y-19907200D01*
X54654762Y-19907200D02*
X54559524Y-19811961D01*
X54559524Y-19811961D02*
X54511905Y-19716723D01*
X54511905Y-19716723D02*
X54464286Y-19526247D01*
X54464286Y-19526247D02*
X54464286Y-19383390D01*
X54464286Y-19383390D02*
X54511905Y-19192914D01*
X54511905Y-19192914D02*
X54559524Y-19097676D01*
X54559524Y-19097676D02*
X54654762Y-19002438D01*
X54654762Y-19002438D02*
X54797619Y-18954819D01*
X54797619Y-18954819D02*
X54892857Y-18954819D01*
X54892857Y-18954819D02*
X55035714Y-19002438D01*
X55035714Y-19002438D02*
X55083333Y-19050057D01*
X55464286Y-19050057D02*
X55511905Y-19002438D01*
X55511905Y-19002438D02*
X55607143Y-18954819D01*
X55607143Y-18954819D02*
X55845238Y-18954819D01*
X55845238Y-18954819D02*
X55940476Y-19002438D01*
X55940476Y-19002438D02*
X55988095Y-19050057D01*
X55988095Y-19050057D02*
X56035714Y-19145295D01*
X56035714Y-19145295D02*
X56035714Y-19240533D01*
X56035714Y-19240533D02*
X55988095Y-19383390D01*
X55988095Y-19383390D02*
X55416667Y-19954819D01*
X55416667Y-19954819D02*
X56035714Y-19954819D01*
X84666667Y-37657200D02*
X84809524Y-37704819D01*
X84809524Y-37704819D02*
X85047619Y-37704819D01*
X85047619Y-37704819D02*
X85142857Y-37657200D01*
X85142857Y-37657200D02*
X85190476Y-37609580D01*
X85190476Y-37609580D02*
X85238095Y-37514342D01*
X85238095Y-37514342D02*
X85238095Y-37419104D01*
X85238095Y-37419104D02*
X85190476Y-37323866D01*
X85190476Y-37323866D02*
X85142857Y-37276247D01*
X85142857Y-37276247D02*
X85047619Y-37228628D01*
X85047619Y-37228628D02*
X84857143Y-37181009D01*
X84857143Y-37181009D02*
X84761905Y-37133390D01*
X84761905Y-37133390D02*
X84714286Y-37085771D01*
X84714286Y-37085771D02*
X84666667Y-36990533D01*
X84666667Y-36990533D02*
X84666667Y-36895295D01*
X84666667Y-36895295D02*
X84714286Y-36800057D01*
X84714286Y-36800057D02*
X84761905Y-36752438D01*
X84761905Y-36752438D02*
X84857143Y-36704819D01*
X84857143Y-36704819D02*
X85095238Y-36704819D01*
X85095238Y-36704819D02*
X85238095Y-36752438D01*
X85571429Y-36704819D02*
X85809524Y-37704819D01*
X85809524Y-37704819D02*
X86000000Y-36990533D01*
X86000000Y-36990533D02*
X86190476Y-37704819D01*
X86190476Y-37704819D02*
X86428572Y-36704819D01*
X86714286Y-36704819D02*
X87380952Y-36704819D01*
X87380952Y-36704819D02*
X86952381Y-37704819D01*
X61833333Y-24954819D02*
X61500000Y-24478628D01*
X61261905Y-24954819D02*
X61261905Y-23954819D01*
X61261905Y-23954819D02*
X61642857Y-23954819D01*
X61642857Y-23954819D02*
X61738095Y-24002438D01*
X61738095Y-24002438D02*
X61785714Y-24050057D01*
X61785714Y-24050057D02*
X61833333Y-24145295D01*
X61833333Y-24145295D02*
X61833333Y-24288152D01*
X61833333Y-24288152D02*
X61785714Y-24383390D01*
X61785714Y-24383390D02*
X61738095Y-24431009D01*
X61738095Y-24431009D02*
X61642857Y-24478628D01*
X61642857Y-24478628D02*
X61261905Y-24478628D01*
X62738095Y-23954819D02*
X62261905Y-23954819D01*
X62261905Y-23954819D02*
X62214286Y-24431009D01*
X62214286Y-24431009D02*
X62261905Y-24383390D01*
X62261905Y-24383390D02*
X62357143Y-24335771D01*
X62357143Y-24335771D02*
X62595238Y-24335771D01*
X62595238Y-24335771D02*
X62690476Y-24383390D01*
X62690476Y-24383390D02*
X62738095Y-24431009D01*
X62738095Y-24431009D02*
X62785714Y-24526247D01*
X62785714Y-24526247D02*
X62785714Y-24764342D01*
X62785714Y-24764342D02*
X62738095Y-24859580D01*
X62738095Y-24859580D02*
X62690476Y-24907200D01*
X62690476Y-24907200D02*
X62595238Y-24954819D01*
X62595238Y-24954819D02*
X62357143Y-24954819D01*
X62357143Y-24954819D02*
X62261905Y-24907200D01*
X62261905Y-24907200D02*
X62214286Y-24859580D01*
D13*
G04 #@! TO.C,R4*
X46190000Y-24500000D02*
X46850000Y-24500000D01*
X53810000Y-24500000D02*
X53150000Y-24500000D01*
X46850000Y-23250000D02*
X53150000Y-23250000D01*
X53150000Y-25750000D01*
X46850000Y-25750000D01*
X46850000Y-23250000D01*
G04 #@! TO.C,C1*
X40750000Y-15250000D02*
X35750000Y-15250000D01*
X35750000Y-12750000D01*
X40750000Y-12750000D01*
X40750000Y-15250000D01*
G04 #@! TO.C,R1*
X10190000Y-24500000D02*
X10850000Y-24500000D01*
X17810000Y-24500000D02*
X17150000Y-24500000D01*
X10850000Y-23250000D02*
X17150000Y-23250000D01*
X17150000Y-25750000D01*
X10850000Y-25750000D01*
X10850000Y-23250000D01*
G04 #@! TO.C,SW1*
X11000000Y-34250000D02*
X14000000Y-34250000D01*
X11000000Y-40250000D02*
X11000000Y-34250000D01*
X14000000Y-34250000D02*
X17000000Y-34250000D01*
X17000000Y-34250000D02*
X17000000Y-40250000D01*
X17000000Y-40250000D02*
X11000000Y-40250000D01*
X16015564Y-37250000D02*
G75*
G02*
X11984436Y-37250000I-2015564J0D01*
G01*
X11984436Y-37250000D02*
G75*
G02*
X16015564Y-37250000I2015564J0D01*
G01*
G04 #@! TO.C,BZ1*
X78300000Y-10500000D02*
G75*
G02*
X76300000Y-10500000I-1000000J0D01*
G01*
X76300000Y-10500000D02*
G75*
G02*
X78300000Y-10500000I1000000J0D01*
G01*
X83300000Y-10500000D02*
G75*
G02*
X71300000Y-10500000I-6000000J0D01*
G01*
X71300000Y-10500000D02*
G75*
G02*
X83300000Y-10500000I6000000J0D01*
G01*
G04 #@! TO.C,SW5*
X59000000Y-34250000D02*
X62000000Y-34250000D01*
X59000000Y-40250000D02*
X59000000Y-34250000D01*
X62000000Y-34250000D02*
X65000000Y-34250000D01*
X65000000Y-34250000D02*
X65000000Y-40250000D01*
X65000000Y-40250000D02*
X59000000Y-40250000D01*
X64015564Y-37250000D02*
G75*
G02*
X59984436Y-37250000I-2015564J0D01*
G01*
X59984436Y-37250000D02*
G75*
G02*
X64015564Y-37250000I2015564J0D01*
G01*
G04 #@! TO.C,SW2*
X23000000Y-34250000D02*
X26000000Y-34250000D01*
X23000000Y-40250000D02*
X23000000Y-34250000D01*
X26000000Y-34250000D02*
X29000000Y-34250000D01*
X29000000Y-34250000D02*
X29000000Y-40250000D01*
X29000000Y-40250000D02*
X23000000Y-40250000D01*
X28015564Y-37250000D02*
G75*
G02*
X23984436Y-37250000I-2015564J0D01*
G01*
X23984436Y-37250000D02*
G75*
G02*
X28015564Y-37250000I2015564J0D01*
G01*
G04 #@! TO.C,R_PWR*
X25000000Y-13500000D02*
X25660000Y-13500000D01*
X32620000Y-13500000D02*
X31960000Y-13500000D01*
X25660000Y-12250000D02*
X31960000Y-12250000D01*
X31960000Y-14750000D01*
X25660000Y-14750000D01*
X25660000Y-12250000D01*
G04 #@! TO.C,R_CC2*
X13000000Y-10125000D02*
X15000000Y-10125000D01*
X13000000Y-11375000D02*
X13000000Y-10125000D01*
X15000000Y-10125000D02*
X15000000Y-11375000D01*
X15000000Y-11375000D02*
X13000000Y-11375000D01*
G04 #@! TO.C,R_A*
X44500000Y-3500000D02*
X45160000Y-3500000D01*
X52120000Y-3500000D02*
X51460000Y-3500000D01*
X45160000Y-2250000D02*
X51460000Y-2250000D01*
X51460000Y-4750000D01*
X45160000Y-4750000D01*
X45160000Y-2250000D01*
G04 #@! TO.C,J2*
X85425000Y-7100000D02*
X97225000Y-7100000D01*
X85425000Y-12900000D02*
X85425000Y-7100000D01*
X97225000Y-7100000D02*
X97225000Y-7700000D01*
X97225000Y-7700000D02*
X99225000Y-7700000D01*
X97225000Y-12300000D02*
X97225000Y-12900000D01*
X97225000Y-12900000D02*
X85425000Y-12900000D01*
X99225000Y-7700000D02*
X99225000Y-12300000D01*
X99225000Y-12300000D02*
X97225000Y-12300000D01*
D12*
X87354951Y-12350000D02*
G75*
G02*
X86845049Y-12350000I-254951J0D01*
G01*
X86845049Y-12350000D02*
G75*
G02*
X87354951Y-12350000I254951J0D01*
G01*
D13*
G04 #@! TO.C,RV1*
X65612000Y-4416000D02*
X63416000Y-6612000D01*
X65804000Y-4608000D02*
X63608000Y-6804000D01*
X60720000Y-845000D02*
X70250000Y-845000D01*
X70250000Y-10375000D01*
X60720000Y-10375000D01*
X60720000Y-845000D01*
X66185000Y-5610000D02*
G75*
G02*
X63035000Y-5610000I-1575000J0D01*
G01*
X63035000Y-5610000D02*
G75*
G02*
X66185000Y-5610000I1575000J0D01*
G01*
G04 #@! TO.C,D_PWR*
X29770000Y-3833810D02*
X29770000Y-6166190D01*
X29770000Y-3833810D02*
G75*
G02*
X29770000Y-6166190I1500000J-1166190D01*
G01*
X32770000Y-5000000D02*
G75*
G02*
X29770000Y-5000000I-1500000J0D01*
G01*
X29770000Y-5000000D02*
G75*
G02*
X32770000Y-5000000I1500000J0D01*
G01*
G04 #@! TO.C,SW_PWR*
X17700000Y-6850000D02*
X19500000Y-6850000D01*
X17700000Y-11150000D02*
X17700000Y-6850000D01*
X19500000Y-6850000D02*
X20000000Y-7350000D01*
X20000000Y-7350000D02*
X20500000Y-6850000D01*
X20000000Y-8000000D02*
X20000000Y-10000000D01*
X20000000Y-8000000D02*
X24000000Y-8000000D01*
X20000000Y-10000000D02*
X24000000Y-10000000D01*
X20500000Y-6850000D02*
X26300000Y-6850000D01*
X20660000Y-8000000D02*
X20660000Y-10000000D01*
X21340000Y-8000000D02*
X21340000Y-10000000D01*
X22000000Y-8000000D02*
X22000000Y-10000000D01*
X24000000Y-8000000D02*
X24000000Y-10000000D01*
X26300000Y-6850000D02*
X26300000Y-11150000D01*
X26300000Y-11150000D02*
X17700000Y-11150000D01*
G04 #@! TO.C,J1*
X650000Y-4530000D02*
X650000Y-13470000D01*
X7950000Y-4530000D02*
X650000Y-4530000D01*
X7950000Y-4530000D02*
X7950000Y-13470000D01*
X7950000Y-13470000D02*
X650000Y-13470000D01*
G04 #@! TO.C,SW4*
X47000000Y-34250000D02*
X50000000Y-34250000D01*
X47000000Y-40250000D02*
X47000000Y-34250000D01*
X50000000Y-34250000D02*
X53000000Y-34250000D01*
X53000000Y-34250000D02*
X53000000Y-40250000D01*
X53000000Y-40250000D02*
X47000000Y-40250000D01*
X52015564Y-37250000D02*
G75*
G02*
X47984436Y-37250000I-2015564J0D01*
G01*
X47984436Y-37250000D02*
G75*
G02*
X52015564Y-37250000I2015564J0D01*
G01*
G04 #@! TO.C,SW3*
X35000000Y-34250000D02*
X38000000Y-34250000D01*
X35000000Y-40250000D02*
X35000000Y-34250000D01*
X38000000Y-34250000D02*
X41000000Y-34250000D01*
X41000000Y-34250000D02*
X41000000Y-40250000D01*
X41000000Y-40250000D02*
X35000000Y-40250000D01*
X40015564Y-37250000D02*
G75*
G02*
X35984436Y-37250000I-2015564J0D01*
G01*
X35984436Y-37250000D02*
G75*
G02*
X40015564Y-37250000I2015564J0D01*
G01*
G04 #@! TO.C,C_OUT*
X55556028Y-13126500D02*
X56186028Y-13126500D01*
X55871028Y-12811500D02*
X55871028Y-13441500D01*
X61400000Y-14500000D02*
G75*
G02*
X55100000Y-14500000I-3150000J0D01*
G01*
X55100000Y-14500000D02*
G75*
G02*
X61400000Y-14500000I3150000J0D01*
G01*
G04 #@! TO.C,SW6*
X71000000Y-34250000D02*
X74000000Y-34250000D01*
X71000000Y-40250000D02*
X71000000Y-34250000D01*
X74000000Y-34250000D02*
X77000000Y-34250000D01*
X77000000Y-34250000D02*
X77000000Y-40250000D01*
X77000000Y-40250000D02*
X71000000Y-40250000D01*
X76015564Y-37250000D02*
G75*
G02*
X71984436Y-37250000I-2015564J0D01*
G01*
X71984436Y-37250000D02*
G75*
G02*
X76015564Y-37250000I2015564J0D01*
G01*
G04 #@! TO.C,R2*
X22190000Y-24500000D02*
X22850000Y-24500000D01*
X29810000Y-24500000D02*
X29150000Y-24500000D01*
X22850000Y-23250000D02*
X29150000Y-23250000D01*
X29150000Y-25750000D01*
X22850000Y-25750000D01*
X22850000Y-23250000D01*
G04 #@! TO.C,C_PWR*
X35556028Y-4626500D02*
X36186028Y-4626500D01*
X35871028Y-4311500D02*
X35871028Y-4941500D01*
X41400000Y-6000000D02*
G75*
G02*
X35100000Y-6000000I-3150000J0D01*
G01*
X35100000Y-6000000D02*
G75*
G02*
X41400000Y-6000000I3150000J0D01*
G01*
G04 #@! TO.C,R3*
X34190000Y-24500000D02*
X34850000Y-24500000D01*
X41810000Y-24500000D02*
X41150000Y-24500000D01*
X34850000Y-23250000D02*
X41150000Y-23250000D01*
X41150000Y-25750000D01*
X34850000Y-25750000D01*
X34850000Y-23250000D01*
G04 #@! TO.C,R6*
X70190000Y-24500000D02*
X70850000Y-24500000D01*
X77810000Y-24500000D02*
X77150000Y-24500000D01*
X70850000Y-23250000D02*
X77150000Y-23250000D01*
X77150000Y-25750000D01*
X70850000Y-25750000D01*
X70850000Y-23250000D01*
G04 #@! TO.C,R7*
X82190000Y-24500000D02*
X82850000Y-24500000D01*
X89810000Y-24500000D02*
X89150000Y-24500000D01*
X82850000Y-23250000D02*
X89150000Y-23250000D01*
X89150000Y-25750000D01*
X82850000Y-25750000D01*
X82850000Y-23250000D01*
G04 #@! TO.C,U1*
X45135000Y-8230000D02*
X46135000Y-7230000D01*
X45135000Y-17390000D02*
X45135000Y-8230000D01*
X46135000Y-7230000D02*
X51485000Y-7230000D01*
X51485000Y-7230000D02*
X51485000Y-17390000D01*
X51485000Y-17390000D02*
X45135000Y-17390000D01*
X43230000Y-7170000D02*
X53390000Y-7170000D01*
X53390000Y-17450000D01*
X43230000Y-17450000D01*
X43230000Y-7170000D01*
G04 #@! TO.C,R_CC1*
X13000000Y-7125000D02*
X15000000Y-7125000D01*
X13000000Y-8375000D02*
X13000000Y-7125000D01*
X15000000Y-7125000D02*
X15000000Y-8375000D01*
X15000000Y-8375000D02*
X13000000Y-8375000D01*
G04 #@! TO.C,C2*
X52750000Y-18250000D02*
X57750000Y-18250000D01*
X57750000Y-20750000D01*
X52750000Y-20750000D01*
X52750000Y-18250000D01*
G04 #@! TO.C,SW7*
X83000000Y-34250000D02*
X86000000Y-34250000D01*
X83000000Y-40250000D02*
X83000000Y-34250000D01*
X86000000Y-34250000D02*
X89000000Y-34250000D01*
X89000000Y-34250000D02*
X89000000Y-40250000D01*
X89000000Y-40250000D02*
X83000000Y-40250000D01*
X88015564Y-37250000D02*
G75*
G02*
X83984436Y-37250000I-2015564J0D01*
G01*
X83984436Y-37250000D02*
G75*
G02*
X88015564Y-37250000I2015564J0D01*
G01*
G04 #@! TO.C,R5*
X58190000Y-24500000D02*
X58850000Y-24500000D01*
X65810000Y-24500000D02*
X65150000Y-24500000D01*
X58850000Y-23250000D02*
X65150000Y-23250000D01*
X65150000Y-25750000D01*
X58850000Y-25750000D01*
X58850000Y-23250000D01*
G04 #@! TD*
M02*
