G04 #@! TF.GenerationSoftware,KiCad,Pcbnew,9.0.2+dfsg-1*
G04 #@! TF.CreationDate,2026-09-14T13:27:15+07:00*
G04 #@! TF.ProjectId,keyboard_555,6b657962-6f61-4726-945f-3535352e6b69,rev?*
G04 #@! TF.SameCoordinates,Original*
G04 #@! TF.FileFunction,Soldermask,Bot*
G04 #@! TF.FilePolarity,Negative*
%FSLAX46Y46*%
G04 Gerber Fmt 4.6, Leading zero omitted, Abs format (unit mm)*
G04 Created by KiCad (PCBNEW 9.0.2+dfsg-1) date 2026-09-14 13:27:15*
%MOMM*%
%LPD*%
G01*
G04 APERTURE LIST*
G04 Aperture macros list*
%AMRoundRect*
0 Rectangle with rounded corners*
0 $1 Rounding radius*
0 $2 $3 $4 $5 $6 $7 $8 $9 X,Y pos of 4 corners*
0 Add a 4 corners polygon primitive as box body*
4,1,4,$2,$3,$4,$5,$6,$7,$8,$9,$2,$3,0*
0 Add four circle primitives for the rounded corners*
1,1,$1+$1,$2,$3*
1,1,$1+$1,$4,$5*
1,1,$1+$1,$6,$7*
1,1,$1+$1,$8,$9*
0 Add four rect primitives between the rounded corners*
20,1,$1+$1,$2,$3,$4,$5,0*
20,1,$1+$1,$4,$5,$6,$7,0*
20,1,$1+$1,$6,$7,$8,$9,0*
20,1,$1+$1,$8,$9,$2,$3,0*%
G04 Aperture macros list end*
%ADD10C,1.600000*%
%ADD11C,2.000000*%
%ADD12R,2.000000X2.000000*%
%ADD13C,1.500000*%
%ADD14C,1.440000*%
%ADD15R,1.800000X1.800000*%
%ADD16C,1.800000*%
%ADD17O,2.200000X3.500000*%
%ADD18R,1.500000X2.500000*%
%ADD19O,1.500000X2.500000*%
%ADD20C,0.650000*%
%ADD21O,2.100000X1.000000*%
%ADD22O,1.600000X1.000000*%
%ADD23RoundRect,0.250000X-0.550000X-0.550000X0.550000X-0.550000X0.550000X0.550000X-0.550000X0.550000X0*%
G04 APERTURE END LIST*
D10*
G04 #@! TO.C,R4*
X46190000Y-24500000D03*
X53810000Y-24500000D03*
G04 #@! TD*
G04 #@! TO.C,C1*
X39500000Y-14000000D03*
X37000000Y-14000000D03*
G04 #@! TD*
G04 #@! TO.C,R1*
X10190000Y-24500000D03*
X17810000Y-24500000D03*
G04 #@! TD*
D11*
G04 #@! TO.C,SW1*
X10750000Y-35000000D03*
X17250000Y-35000000D03*
X10750000Y-39500000D03*
X17250000Y-39500000D03*
G04 #@! TD*
D12*
G04 #@! TO.C,BZ1*
X73500000Y-10500000D03*
D11*
X81100000Y-10500000D03*
G04 #@! TD*
G04 #@! TO.C,SW5*
X58750000Y-35000000D03*
X65250000Y-35000000D03*
X58750000Y-39500000D03*
X65250000Y-39500000D03*
G04 #@! TD*
G04 #@! TO.C,SW2*
X22750000Y-35000000D03*
X29250000Y-35000000D03*
X22750000Y-39500000D03*
X29250000Y-39500000D03*
G04 #@! TD*
D10*
G04 #@! TO.C,R_PWR*
X25000000Y-13500000D03*
X32620000Y-13500000D03*
G04 #@! TD*
G04 #@! TO.C,R_A*
X44500000Y-3500000D03*
X52120000Y-3500000D03*
G04 #@! TD*
D13*
G04 #@! TO.C,J2*
X95775000Y-10000000D03*
X88775000Y-10000000D03*
G04 #@! TD*
D14*
G04 #@! TO.C,RV1*
X65500000Y-8150000D03*
X68040000Y-5610000D03*
X65500000Y-3070000D03*
G04 #@! TD*
D15*
G04 #@! TO.C,D_PWR*
X30000000Y-5000000D03*
D16*
X32540000Y-5000000D03*
G04 #@! TD*
D17*
G04 #@! TO.C,SW_PWR*
X17900000Y-9000000D03*
X26100000Y-9000000D03*
D18*
X20000000Y-9000000D03*
D19*
X22000000Y-9000000D03*
X24000000Y-9000000D03*
G04 #@! TD*
D20*
G04 #@! TO.C,J1*
X6900000Y-6110000D03*
X6900000Y-11890000D03*
D21*
X7430000Y-4680000D03*
D22*
X3250000Y-4680000D03*
D21*
X7430000Y-13320000D03*
D22*
X3250000Y-13320000D03*
G04 #@! TD*
D11*
G04 #@! TO.C,SW4*
X46750000Y-35000000D03*
X53250000Y-35000000D03*
X46750000Y-39500000D03*
X53250000Y-39500000D03*
G04 #@! TD*
G04 #@! TO.C,SW3*
X34750000Y-35000000D03*
X41250000Y-35000000D03*
X34750000Y-39500000D03*
X41250000Y-39500000D03*
G04 #@! TD*
D23*
G04 #@! TO.C,C_OUT*
X57000000Y-14500000D03*
D10*
X59500000Y-14500000D03*
G04 #@! TD*
D11*
G04 #@! TO.C,SW6*
X70750000Y-35000000D03*
X77250000Y-35000000D03*
X70750000Y-39500000D03*
X77250000Y-39500000D03*
G04 #@! TD*
D10*
G04 #@! TO.C,R2*
X22190000Y-24500000D03*
X29810000Y-24500000D03*
G04 #@! TD*
D23*
G04 #@! TO.C,C_PWR*
X37000000Y-6000000D03*
D10*
X39500000Y-6000000D03*
G04 #@! TD*
G04 #@! TO.C,R3*
X34190000Y-24500000D03*
X41810000Y-24500000D03*
G04 #@! TD*
G04 #@! TO.C,R6*
X70190000Y-24500000D03*
X77810000Y-24500000D03*
G04 #@! TD*
G04 #@! TO.C,R7*
X82190000Y-24500000D03*
X89810000Y-24500000D03*
G04 #@! TD*
D23*
G04 #@! TO.C,U1*
X44500000Y-8500000D03*
D10*
X44500000Y-11040000D03*
X44500000Y-13580000D03*
X44500000Y-16120000D03*
X52120000Y-16120000D03*
X52120000Y-13580000D03*
X52120000Y-11040000D03*
X52120000Y-8500000D03*
G04 #@! TD*
G04 #@! TO.C,C2*
X54000000Y-19500000D03*
X56500000Y-19500000D03*
G04 #@! TD*
D11*
G04 #@! TO.C,SW7*
X82750000Y-35000000D03*
X89250000Y-35000000D03*
X82750000Y-39500000D03*
X89250000Y-39500000D03*
G04 #@! TD*
D10*
G04 #@! TO.C,R5*
X58190000Y-24500000D03*
X65810000Y-24500000D03*
G04 #@! TD*
M02*
