M48
; DRILL file {KiCad 9.0.2+dfsg-1} date 2026-09-14T13:27:15+0700
; FORMAT={-:-/ absolute / metric / decimal}
; #@! TF.CreationDate,2026-09-14T13:27:15+07:00
; #@! TF.GenerationSoftware,Kicad,Pcbnew,9.0.2+dfsg-1
; #@! TF.FileFunction,Plated,1,2,PTH
FMAT,2
METRIC
; #@! TA.AperFunction,Plated,PTH,ViaDrill
T1C0.300
; #@! TA.AperFunction,Plated,PTH,ComponentDrill
T2C0.600
; #@! TA.AperFunction,Plated,PTH,ComponentDrill
T3C0.800
; #@! TA.AperFunction,Plated,PTH,ComponentDrill
T4C0.900
; #@! TA.AperFunction,Plated,PTH,ComponentDrill
T5C1.000
; #@! TA.AperFunction,Plated,PTH,ComponentDrill
T6C1.100
; #@! TA.AperFunction,Plated,PTH,ComponentDrill
T7C1.500
%
G90
G05
T1
X10.0Y-4.0
X10.0Y-11.45
X15.0Y-7.75
X16.5Y-10.75
X18.0Y-2.5
X20.0Y-46.5
X32.0Y-2.5
X32.0Y-46.5
X44.0Y-46.5
X56.0Y-46.5
X68.0Y-46.5
X80.0Y-46.5
X85.0Y-2.5
T3
X10.19Y-24.5
X17.81Y-24.5
X20.0Y-9.0
X22.0Y-9.0
X22.19Y-24.5
X24.0Y-9.0
X25.0Y-13.5
X29.81Y-24.5
X32.62Y-13.5
X34.19Y-24.5
X37.0Y-6.0
X37.0Y-14.0
X39.5Y-6.0
X39.5Y-14.0
X41.81Y-24.5
X44.5Y-3.5
X44.5Y-8.5
X44.5Y-11.04
X44.5Y-13.58
X44.5Y-16.12
X46.19Y-24.5
X52.12Y-3.5
X52.12Y-8.5
X52.12Y-11.04
X52.12Y-13.58
X52.12Y-16.12
X53.81Y-24.5
X54.0Y-19.5
X56.5Y-19.5
X57.0Y-14.5
X58.19Y-24.5
X59.5Y-14.5
X65.5Y-3.07
X65.5Y-8.15
X65.81Y-24.5
X68.04Y-5.61
X70.19Y-24.5
X77.81Y-24.5
X82.19Y-24.5
X89.81Y-24.5
T4
X30.0Y-5.0
X32.54Y-5.0
T5
X73.5Y-10.5
X81.1Y-10.5
T6
X10.75Y-35.0
X10.75Y-39.5
X17.25Y-35.0
X17.25Y-39.5
X22.75Y-35.0
X22.75Y-39.5
X29.25Y-35.0
X29.25Y-39.5
X34.75Y-35.0
X34.75Y-39.5
X41.25Y-35.0
X41.25Y-39.5
X46.75Y-35.0
X46.75Y-39.5
X53.25Y-35.0
X53.25Y-39.5
X58.75Y-35.0
X58.75Y-39.5
X65.25Y-35.0
X65.25Y-39.5
X70.75Y-35.0
X70.75Y-39.5
X77.25Y-35.0
X77.25Y-39.5
X82.75Y-35.0
X82.75Y-39.5
X89.25Y-35.0
X89.25Y-39.5
T7
X17.9Y-9.0
X26.1Y-9.0
T2
X3.55Y-4.68G85X2.95Y-4.68
G05
X3.55Y-13.32G85X2.95Y-13.32
G05
X7.98Y-4.68G85X6.88Y-4.68
G05
X7.98Y-13.32G85X6.88Y-13.32
G05
M30
