G04 #@! TF.GenerationSoftware,KiCad,Pcbnew,9.0.2+dfsg-1*
G04 #@! TF.CreationDate,2026-09-14T14:00:37+07:00*
G04 #@! TF.ProjectId,attiny85_timer,61747469-6e79-4383-955f-74696d65722e,rev?*
G04 #@! TF.SameCoordinates,Original*
G04 #@! TF.FileFunction,Copper,L2,Bot*
G04 #@! TF.FilePolarity,Positive*
%FSLAX46Y46*%
G04 Gerber Fmt 4.6, Leading zero omitted, Abs format (unit mm)*
G04 Created by KiCad (PCBNEW 9.0.2+dfsg-1) date 2026-09-14 14:00:37*
%MOMM*%
%LPD*%
G01*
G04 APERTURE LIST*
G04 #@! TA.AperFunction,HeatsinkPad*
%ADD10O,2.100000X1.000000*%
G04 #@! TD*
G04 #@! TA.AperFunction,HeatsinkPad*
%ADD11O,1.600000X1.000000*%
G04 #@! TD*
G04 #@! TA.AperFunction,ComponentPad*
%ADD12R,1.700000X1.700000*%
G04 #@! TD*
G04 #@! TA.AperFunction,ComponentPad*
%ADD13C,1.700000*%
G04 #@! TD*
G04 #@! TA.AperFunction,ViaPad*
%ADD14C,0.600000*%
G04 #@! TD*
G04 #@! TA.AperFunction,Conductor*
%ADD15C,0.350000*%
G04 #@! TD*
G04 #@! TA.AperFunction,Conductor*
%ADD16C,0.300000*%
G04 #@! TD*
G04 #@! TA.AperFunction,Conductor*
%ADD17C,0.250000*%
G04 #@! TD*
G04 APERTURE END LIST*
D10*
G04 #@! TO.P,J1,S1*
G04 #@! TO.N,GND*
X7430000Y-20680000D03*
D11*
X3250000Y-20680000D03*
D10*
X7430000Y-29320000D03*
D11*
X3250000Y-29320000D03*
G04 #@! TD*
D12*
G04 #@! TO.P,J3,1*
G04 #@! TO.N,+5V*
X24000000Y-44000000D03*
D13*
G04 #@! TO.P,J3,2*
G04 #@! TO.N,GND*
X26540000Y-44000000D03*
G04 #@! TO.P,J3,3*
G04 #@! TO.N,NE555_PULSE*
X29080000Y-44000000D03*
G04 #@! TO.P,J3,4*
G04 #@! TO.N,ATTINY_OUT*
X31620000Y-44000000D03*
G04 #@! TD*
D12*
G04 #@! TO.P,J2,1*
G04 #@! TO.N,MISO*
X37000000Y-11000000D03*
D13*
G04 #@! TO.P,J2,2*
G04 #@! TO.N,+5V*
X39540000Y-11000000D03*
G04 #@! TO.P,J2,3*
G04 #@! TO.N,NE555_PULSE*
X37000000Y-13540000D03*
G04 #@! TO.P,J2,4*
G04 #@! TO.N,MOSI*
X39540000Y-13540000D03*
G04 #@! TO.P,J2,5*
G04 #@! TO.N,RESET*
X37000000Y-16080000D03*
G04 #@! TO.P,J2,6*
G04 #@! TO.N,GND*
X39540000Y-16080000D03*
G04 #@! TD*
D14*
G04 #@! TO.N,GND*
X15412000Y-38500000D03*
X19525000Y-16500000D03*
X30500000Y-18000000D03*
X46000000Y-23500000D03*
X14950000Y-17800000D03*
X34525000Y-30500000D03*
X13500000Y-13000000D03*
X14912000Y-22200000D03*
X14912000Y-28300000D03*
X30500000Y-22000000D03*
X24913000Y-38500000D03*
X35913000Y-38500000D03*
G04 #@! TO.N,+5V*
X21000000Y-23000000D03*
X24475000Y-18095000D03*
X9562000Y-38500000D03*
X12000000Y-22550000D03*
X12000000Y-27450000D03*
X27050000Y-18000000D03*
G04 #@! TO.N,NE555_PULSE*
X19062000Y-38000000D03*
X17000000Y-20635000D03*
X41500000Y-25365000D03*
G04 #@! TO.N,ATTINY_OUT*
X31620000Y-26635000D03*
G04 #@! TO.N,MOSI*
X43500000Y-27905000D03*
G04 #@! TO.N,MISO*
X45000000Y-26635000D03*
G04 #@! TO.N,NE555_TRIG*
X23000000Y-20635000D03*
X21000000Y-19365000D03*
G04 #@! TD*
D15*
G04 #@! TO.N,+5V*
X9562000Y-47000000D02*
X24000000Y-47000000D01*
X24000000Y-47000000D02*
X24000000Y-44000000D01*
D16*
X27050000Y-23000000D02*
X27050000Y-18000000D01*
D15*
X9562000Y-38500000D02*
X9562000Y-47000000D01*
D16*
X21000000Y-23000000D02*
X27050000Y-23000000D01*
D15*
X24475000Y-18095000D02*
X27050000Y-18000000D01*
X12000000Y-22550000D02*
X12000000Y-27450000D01*
D17*
G04 #@! TO.N,NE555_PULSE*
X19062000Y-41000000D02*
X29080000Y-41000000D01*
X29080000Y-41000000D02*
X29080000Y-44000000D01*
X35500000Y-14500000D02*
X35500000Y-25365000D01*
X35500000Y-25365000D02*
X41500000Y-25365000D01*
X17000000Y-14500000D02*
X35500000Y-14500000D01*
X35500000Y-14500000D02*
X35500000Y-13540000D01*
X17000000Y-20635000D02*
X17000000Y-14500000D01*
X35500000Y-13540000D02*
X37000000Y-13540000D01*
X19062000Y-38000000D02*
X19062000Y-41000000D01*
G04 #@! TO.N,ATTINY_OUT*
X31620000Y-26635000D02*
X31620000Y-44000000D01*
G04 #@! TO.N,MOSI*
X43500000Y-13540000D02*
X39540000Y-13540000D01*
X43500000Y-27905000D02*
X43500000Y-13540000D01*
G04 #@! TO.N,MISO*
X37000000Y-9000000D02*
X37000000Y-11000000D01*
X45000000Y-9000000D02*
X37000000Y-9000000D01*
X45000000Y-26635000D02*
X45000000Y-9000000D01*
G04 #@! TO.N,NE555_TRIG*
X21000000Y-19365000D02*
X23000000Y-20635000D01*
G04 #@! TD*
G04 #@! TA.AperFunction,Conductor*
G04 #@! TO.N,GND*
G36*
X38341444Y-14193999D02*
G01*
X38380486Y-14239056D01*
X38384951Y-14247820D01*
X38509890Y-14419786D01*
X38660213Y-14570109D01*
X38832179Y-14695048D01*
X38832181Y-14695049D01*
X38832184Y-14695051D01*
X38841493Y-14699794D01*
X38892290Y-14747766D01*
X38909087Y-14815587D01*
X38886552Y-14881722D01*
X38841505Y-14920760D01*
X38832446Y-14925376D01*
X38832440Y-14925380D01*
X38778282Y-14964727D01*
X38778282Y-14964728D01*
X39410591Y-15597037D01*
X39347007Y-15614075D01*
X39232993Y-15679901D01*
X39139901Y-15772993D01*
X39074075Y-15887007D01*
X39057037Y-15950591D01*
X38424728Y-15318282D01*
X38424727Y-15318282D01*
X38385380Y-15372440D01*
X38385376Y-15372446D01*
X38380760Y-15381505D01*
X38332781Y-15432297D01*
X38264959Y-15449087D01*
X38198826Y-15426543D01*
X38159794Y-15381493D01*
X38155051Y-15372184D01*
X38155049Y-15372181D01*
X38155048Y-15372179D01*
X38030109Y-15200213D01*
X37879786Y-15049890D01*
X37707820Y-14924951D01*
X37699600Y-14920763D01*
X37699054Y-14920485D01*
X37648259Y-14872512D01*
X37631463Y-14804692D01*
X37653999Y-14738556D01*
X37699054Y-14699515D01*
X37707816Y-14695051D01*
X37729789Y-14679086D01*
X37879786Y-14570109D01*
X37879788Y-14570106D01*
X37879792Y-14570104D01*
X38030104Y-14419792D01*
X38030106Y-14419788D01*
X38030109Y-14419786D01*
X38155048Y-14247820D01*
X38155049Y-14247819D01*
X38155051Y-14247816D01*
X38159514Y-14239054D01*
X38207488Y-14188259D01*
X38275308Y-14171463D01*
X38341444Y-14193999D01*
G37*
G04 #@! TD.AperFunction*
G04 #@! TA.AperFunction,Conductor*
G36*
X48307863Y-1019685D02*
G01*
X48328505Y-1036319D01*
X48963681Y-1671495D01*
X48997166Y-1732818D01*
X49000000Y-1759176D01*
X49000000Y-48240824D01*
X48980315Y-48307863D01*
X48963681Y-48328505D01*
X48328505Y-48963681D01*
X48267182Y-48997166D01*
X48240824Y-49000000D01*
X1759176Y-49000000D01*
X1692137Y-48980315D01*
X1671495Y-48963681D01*
X1036319Y-48328505D01*
X1002834Y-48267182D01*
X1000000Y-48240824D01*
X1000000Y-45878711D01*
X2149500Y-45878711D01*
X2149500Y-46121288D01*
X2181161Y-46361785D01*
X2243947Y-46596104D01*
X2336773Y-46820205D01*
X2336776Y-46820212D01*
X2458064Y-47030289D01*
X2458066Y-47030292D01*
X2458067Y-47030293D01*
X2605733Y-47222736D01*
X2605739Y-47222743D01*
X2777256Y-47394260D01*
X2777263Y-47394266D01*
X2890321Y-47481018D01*
X2969711Y-47541936D01*
X3179788Y-47663224D01*
X3403900Y-47756054D01*
X3638211Y-47818838D01*
X3818586Y-47842584D01*
X3878711Y-47850500D01*
X3878712Y-47850500D01*
X4121289Y-47850500D01*
X4169388Y-47844167D01*
X4361789Y-47818838D01*
X4596100Y-47756054D01*
X4820212Y-47663224D01*
X5030289Y-47541936D01*
X5222738Y-47394265D01*
X5394265Y-47222738D01*
X5541936Y-47030289D01*
X5663224Y-46820212D01*
X5756054Y-46596100D01*
X5818838Y-46361789D01*
X5850500Y-46121288D01*
X5850500Y-45878712D01*
X5818838Y-45638211D01*
X5756054Y-45403900D01*
X5663224Y-45179788D01*
X5541936Y-44969711D01*
X5411432Y-44799634D01*
X5394266Y-44777263D01*
X5394260Y-44777256D01*
X5222743Y-44605739D01*
X5222736Y-44605733D01*
X5030293Y-44458067D01*
X5030292Y-44458066D01*
X5030289Y-44458064D01*
X4820212Y-44336776D01*
X4770641Y-44316243D01*
X4596104Y-44243947D01*
X4478944Y-44212554D01*
X4361789Y-44181162D01*
X4361788Y-44181161D01*
X4361785Y-44181161D01*
X4121289Y-44149500D01*
X4121288Y-44149500D01*
X3878712Y-44149500D01*
X3878711Y-44149500D01*
X3638214Y-44181161D01*
X3403895Y-44243947D01*
X3179794Y-44336773D01*
X3179785Y-44336777D01*
X2969706Y-44458067D01*
X2777263Y-44605733D01*
X2777256Y-44605739D01*
X2605739Y-44777256D01*
X2605733Y-44777263D01*
X2458067Y-44969706D01*
X2336777Y-45179785D01*
X2336773Y-45179794D01*
X2243947Y-45403895D01*
X2181161Y-45638214D01*
X2149500Y-45878711D01*
X1000000Y-45878711D01*
X1000000Y-38421153D01*
X8761500Y-38421153D01*
X8761500Y-38578846D01*
X8792261Y-38733489D01*
X8792264Y-38733501D01*
X8852603Y-38879174D01*
X8852604Y-38879175D01*
X8852606Y-38879179D01*
X8865602Y-38898628D01*
X8886480Y-38965305D01*
X8886500Y-38967519D01*
X8886500Y-47066531D01*
X8886500Y-47066533D01*
X8886499Y-47066533D01*
X8912458Y-47197030D01*
X8912461Y-47197040D01*
X8963376Y-47319961D01*
X8963386Y-47319979D01*
X9037301Y-47430601D01*
X9037307Y-47430609D01*
X9131390Y-47524692D01*
X9131398Y-47524698D01*
X9242020Y-47598613D01*
X9242023Y-47598614D01*
X9242031Y-47598620D01*
X9242037Y-47598622D01*
X9242038Y-47598623D01*
X9364959Y-47649538D01*
X9364964Y-47649540D01*
X9364968Y-47649540D01*
X9364969Y-47649541D01*
X9495466Y-47675500D01*
X9495469Y-47675500D01*
X24066533Y-47675500D01*
X24154325Y-47658035D01*
X24197036Y-47649540D01*
X24319969Y-47598620D01*
X24430606Y-47524695D01*
X24524695Y-47430606D01*
X24598620Y-47319969D01*
X24649540Y-47197036D01*
X24675500Y-47066531D01*
X24675500Y-45878711D01*
X44149500Y-45878711D01*
X44149500Y-46121288D01*
X44181161Y-46361785D01*
X44243947Y-46596104D01*
X44336773Y-46820205D01*
X44336776Y-46820212D01*
X44458064Y-47030289D01*
X44458066Y-47030292D01*
X44458067Y-47030293D01*
X44605733Y-47222736D01*
X44605739Y-47222743D01*
X44777256Y-47394260D01*
X44777263Y-47394266D01*
X44890321Y-47481018D01*
X44969711Y-47541936D01*
X45179788Y-47663224D01*
X45403900Y-47756054D01*
X45638211Y-47818838D01*
X45818586Y-47842584D01*
X45878711Y-47850500D01*
X45878712Y-47850500D01*
X46121289Y-47850500D01*
X46169388Y-47844167D01*
X46361789Y-47818838D01*
X46596100Y-47756054D01*
X46820212Y-47663224D01*
X47030289Y-47541936D01*
X47222738Y-47394265D01*
X47394265Y-47222738D01*
X47541936Y-47030289D01*
X47663224Y-46820212D01*
X47756054Y-46596100D01*
X47818838Y-46361789D01*
X47850500Y-46121288D01*
X47850500Y-45878712D01*
X47818838Y-45638211D01*
X47756054Y-45403900D01*
X47663224Y-45179788D01*
X47541936Y-44969711D01*
X47411432Y-44799634D01*
X47394266Y-44777263D01*
X47394260Y-44777256D01*
X47222743Y-44605739D01*
X47222736Y-44605733D01*
X47030293Y-44458067D01*
X47030292Y-44458066D01*
X47030289Y-44458064D01*
X46820212Y-44336776D01*
X46770641Y-44316243D01*
X46596104Y-44243947D01*
X46478944Y-44212554D01*
X46361789Y-44181162D01*
X46361788Y-44181161D01*
X46361785Y-44181161D01*
X46121289Y-44149500D01*
X46121288Y-44149500D01*
X45878712Y-44149500D01*
X45878711Y-44149500D01*
X45638214Y-44181161D01*
X45403895Y-44243947D01*
X45179794Y-44336773D01*
X45179785Y-44336777D01*
X44969706Y-44458067D01*
X44777263Y-44605733D01*
X44777256Y-44605739D01*
X44605739Y-44777256D01*
X44605733Y-44777263D01*
X44458067Y-44969706D01*
X44336777Y-45179785D01*
X44336773Y-45179794D01*
X44243947Y-45403895D01*
X44181161Y-45638214D01*
X44149500Y-45878711D01*
X24675500Y-45878711D01*
X24675500Y-45474499D01*
X24695185Y-45407460D01*
X24747989Y-45361705D01*
X24799500Y-45350499D01*
X24897871Y-45350499D01*
X24897872Y-45350499D01*
X24957483Y-45344091D01*
X25092331Y-45293796D01*
X25207546Y-45207546D01*
X25293796Y-45092331D01*
X25344091Y-44957483D01*
X25350500Y-44897873D01*
X25350499Y-44873979D01*
X25353330Y-44860963D01*
X25363940Y-44841525D01*
X25370179Y-44820275D01*
X25386803Y-44799643D01*
X25386808Y-44799636D01*
X25386811Y-44799634D01*
X25386818Y-44799626D01*
X26057037Y-44129408D01*
X26074075Y-44192993D01*
X26139901Y-44307007D01*
X26232993Y-44400099D01*
X26347007Y-44465925D01*
X26410590Y-44482962D01*
X25778282Y-45115269D01*
X25778282Y-45115270D01*
X25832449Y-45154624D01*
X26021782Y-45251095D01*
X26223870Y-45316757D01*
X26433754Y-45350000D01*
X26646246Y-45350000D01*
X26856127Y-45316757D01*
X26856130Y-45316757D01*
X27058217Y-45251095D01*
X27247554Y-45154622D01*
X27301716Y-45115270D01*
X27301717Y-45115270D01*
X26669408Y-44482962D01*
X26732993Y-44465925D01*
X26847007Y-44400099D01*
X26940099Y-44307007D01*
X27005925Y-44192993D01*
X27022962Y-44129409D01*
X27655270Y-44761717D01*
X27655270Y-44761716D01*
X27694622Y-44707555D01*
X27699232Y-44698507D01*
X27747205Y-44647709D01*
X27815025Y-44630912D01*
X27881161Y-44653447D01*
X27920204Y-44698504D01*
X27924949Y-44707817D01*
X28049890Y-44879786D01*
X28200213Y-45030109D01*
X28372179Y-45155048D01*
X28372181Y-45155049D01*
X28372184Y-45155051D01*
X28561588Y-45251557D01*
X28763757Y-45317246D01*
X28973713Y-45350500D01*
X28973714Y-45350500D01*
X29186286Y-45350500D01*
X29186287Y-45350500D01*
X29396243Y-45317246D01*
X29598412Y-45251557D01*
X29787816Y-45155051D01*
X29874138Y-45092335D01*
X29959786Y-45030109D01*
X29959788Y-45030106D01*
X29959792Y-45030104D01*
X30110104Y-44879792D01*
X30110106Y-44879788D01*
X30110109Y-44879786D01*
X30235048Y-44707820D01*
X30235050Y-44707817D01*
X30235051Y-44707816D01*
X30239514Y-44699054D01*
X30287488Y-44648259D01*
X30355308Y-44631463D01*
X30421444Y-44653999D01*
X30460486Y-44699056D01*
X30464951Y-44707820D01*
X30589890Y-44879786D01*
X30740213Y-45030109D01*
X30912179Y-45155048D01*
X30912181Y-45155049D01*
X30912184Y-45155051D01*
X31101588Y-45251557D01*
X31303757Y-45317246D01*
X31513713Y-45350500D01*
X31513714Y-45350500D01*
X31726286Y-45350500D01*
X31726287Y-45350500D01*
X31936243Y-45317246D01*
X32138412Y-45251557D01*
X32327816Y-45155051D01*
X32414138Y-45092335D01*
X32499786Y-45030109D01*
X32499788Y-45030106D01*
X32499792Y-45030104D01*
X32650104Y-44879792D01*
X32650106Y-44879788D01*
X32650109Y-44879786D01*
X32775048Y-44707820D01*
X32775050Y-44707817D01*
X32775051Y-44707816D01*
X32871557Y-44518412D01*
X32937246Y-44316243D01*
X32970500Y-44106287D01*
X32970500Y-43893713D01*
X32937246Y-43683757D01*
X32871557Y-43481588D01*
X32775051Y-43292184D01*
X32775049Y-43292181D01*
X32775048Y-43292179D01*
X32650109Y-43120213D01*
X32499786Y-42969890D01*
X32327819Y-42844950D01*
X32313203Y-42837503D01*
X32262408Y-42789527D01*
X32245500Y-42727019D01*
X32245500Y-27177350D01*
X32265185Y-27110311D01*
X32266398Y-27108459D01*
X32291547Y-27070821D01*
X32329394Y-27014179D01*
X32389737Y-26868497D01*
X32420500Y-26713842D01*
X32420500Y-26556158D01*
X32420500Y-26556155D01*
X32420499Y-26556153D01*
X32389738Y-26401510D01*
X32389737Y-26401503D01*
X32329397Y-26255828D01*
X32329397Y-26255827D01*
X32329390Y-26255814D01*
X32241789Y-26124711D01*
X32241786Y-26124707D01*
X32130292Y-26013213D01*
X32130288Y-26013210D01*
X31999185Y-25925609D01*
X31999172Y-25925602D01*
X31853501Y-25865264D01*
X31853489Y-25865261D01*
X31698845Y-25834500D01*
X31698842Y-25834500D01*
X31541158Y-25834500D01*
X31541155Y-25834500D01*
X31386510Y-25865261D01*
X31386498Y-25865264D01*
X31240827Y-25925602D01*
X31240814Y-25925609D01*
X31109711Y-26013210D01*
X31109707Y-26013213D01*
X30998213Y-26124707D01*
X30998210Y-26124711D01*
X30910609Y-26255814D01*
X30910602Y-26255827D01*
X30850264Y-26401498D01*
X30850261Y-26401510D01*
X30819500Y-26556153D01*
X30819500Y-26713846D01*
X30850261Y-26868489D01*
X30850264Y-26868501D01*
X30910602Y-27014172D01*
X30910609Y-27014184D01*
X30973602Y-27108459D01*
X30994480Y-27175136D01*
X30994500Y-27177350D01*
X30994500Y-42727019D01*
X30974815Y-42794058D01*
X30926797Y-42837503D01*
X30912180Y-42844950D01*
X30740213Y-42969890D01*
X30589890Y-43120213D01*
X30464949Y-43292182D01*
X30460484Y-43300946D01*
X30412509Y-43351742D01*
X30344688Y-43368536D01*
X30278553Y-43345998D01*
X30239516Y-43300946D01*
X30235050Y-43292182D01*
X30110109Y-43120213D01*
X29959786Y-42969890D01*
X29787819Y-42844950D01*
X29773203Y-42837503D01*
X29722408Y-42789527D01*
X29705500Y-42727019D01*
X29705500Y-40938393D01*
X29705499Y-40938389D01*
X29681464Y-40817555D01*
X29681463Y-40817548D01*
X29634311Y-40703714D01*
X29634310Y-40703713D01*
X29634307Y-40703707D01*
X29565858Y-40601267D01*
X29565855Y-40601263D01*
X29478736Y-40514144D01*
X29478732Y-40514141D01*
X29376292Y-40445692D01*
X29376283Y-40445687D01*
X29262454Y-40398538D01*
X29262455Y-40398538D01*
X29262452Y-40398537D01*
X29262448Y-40398536D01*
X29262444Y-40398535D01*
X29141610Y-40374500D01*
X29141606Y-40374500D01*
X19811500Y-40374500D01*
X19744461Y-40354815D01*
X19698706Y-40302011D01*
X19687500Y-40250500D01*
X19687500Y-38542350D01*
X19707185Y-38475311D01*
X19708398Y-38473459D01*
X19743346Y-38421155D01*
X19771394Y-38379179D01*
X19831737Y-38233497D01*
X19862500Y-38078842D01*
X19862500Y-37921158D01*
X19862500Y-37921155D01*
X19862499Y-37921153D01*
X19836531Y-37790606D01*
X19831737Y-37766503D01*
X19831735Y-37766498D01*
X19771397Y-37620827D01*
X19771390Y-37620814D01*
X19683789Y-37489711D01*
X19683786Y-37489707D01*
X19572292Y-37378213D01*
X19572288Y-37378210D01*
X19441185Y-37290609D01*
X19441172Y-37290602D01*
X19295501Y-37230264D01*
X19295489Y-37230261D01*
X19140845Y-37199500D01*
X19140842Y-37199500D01*
X18983158Y-37199500D01*
X18983155Y-37199500D01*
X18828510Y-37230261D01*
X18828498Y-37230264D01*
X18682827Y-37290602D01*
X18682814Y-37290609D01*
X18551711Y-37378210D01*
X18551707Y-37378213D01*
X18440213Y-37489707D01*
X18440210Y-37489711D01*
X18352609Y-37620814D01*
X18352602Y-37620827D01*
X18292264Y-37766498D01*
X18292261Y-37766510D01*
X18261500Y-37921153D01*
X18261500Y-38078846D01*
X18292261Y-38233489D01*
X18292264Y-38233501D01*
X18352602Y-38379172D01*
X18352609Y-38379184D01*
X18415602Y-38473459D01*
X18436480Y-38540136D01*
X18436500Y-38542350D01*
X18436500Y-41061610D01*
X18460535Y-41182444D01*
X18460538Y-41182454D01*
X18507687Y-41296283D01*
X18507692Y-41296292D01*
X18576141Y-41398732D01*
X18576144Y-41398736D01*
X18663263Y-41485855D01*
X18663267Y-41485858D01*
X18765707Y-41554307D01*
X18765713Y-41554310D01*
X18765714Y-41554311D01*
X18879548Y-41601463D01*
X19000389Y-41625499D01*
X19000393Y-41625500D01*
X19000394Y-41625500D01*
X19123606Y-41625500D01*
X28330500Y-41625500D01*
X28397539Y-41645185D01*
X28443294Y-41697989D01*
X28454500Y-41749500D01*
X28454500Y-42727019D01*
X28434815Y-42794058D01*
X28386797Y-42837503D01*
X28372180Y-42844950D01*
X28200213Y-42969890D01*
X28049890Y-43120213D01*
X27924949Y-43292182D01*
X27920202Y-43301499D01*
X27872227Y-43352293D01*
X27804405Y-43369087D01*
X27738271Y-43346548D01*
X27699234Y-43301495D01*
X27694626Y-43292452D01*
X27655270Y-43238282D01*
X27655269Y-43238282D01*
X27022962Y-43870590D01*
X27005925Y-43807007D01*
X26940099Y-43692993D01*
X26847007Y-43599901D01*
X26732993Y-43534075D01*
X26669409Y-43517037D01*
X27301716Y-42884728D01*
X27247550Y-42845375D01*
X27058217Y-42748904D01*
X26856129Y-42683242D01*
X26646246Y-42650000D01*
X26433754Y-42650000D01*
X26223872Y-42683242D01*
X26223869Y-42683242D01*
X26021782Y-42748904D01*
X25832439Y-42845380D01*
X25778282Y-42884727D01*
X25778282Y-42884728D01*
X26410591Y-43517037D01*
X26347007Y-43534075D01*
X26232993Y-43599901D01*
X26139901Y-43692993D01*
X26074075Y-43807007D01*
X26057037Y-43870591D01*
X25386818Y-43200372D01*
X25353333Y-43139049D01*
X25353330Y-43139036D01*
X25350499Y-43126015D01*
X25350499Y-43102128D01*
X25344091Y-43042517D01*
X25315926Y-42967002D01*
X25293798Y-42907673D01*
X25293793Y-42907664D01*
X25207547Y-42792455D01*
X25207544Y-42792452D01*
X25092335Y-42706206D01*
X25092328Y-42706202D01*
X24957482Y-42655908D01*
X24957483Y-42655908D01*
X24897883Y-42649501D01*
X24897881Y-42649500D01*
X24897873Y-42649500D01*
X24897864Y-42649500D01*
X23102129Y-42649500D01*
X23102123Y-42649501D01*
X23042516Y-42655908D01*
X22907671Y-42706202D01*
X22907664Y-42706206D01*
X22792455Y-42792452D01*
X22792452Y-42792455D01*
X22706206Y-42907664D01*
X22706202Y-42907671D01*
X22655908Y-43042517D01*
X22649501Y-43102116D01*
X22649500Y-43102135D01*
X22649500Y-44897870D01*
X22649501Y-44897876D01*
X22655908Y-44957483D01*
X22706202Y-45092328D01*
X22706206Y-45092335D01*
X22792452Y-45207544D01*
X22792455Y-45207547D01*
X22907664Y-45293793D01*
X22907671Y-45293797D01*
X22952618Y-45310561D01*
X23042517Y-45344091D01*
X23102127Y-45350500D01*
X23200500Y-45350499D01*
X23267538Y-45370183D01*
X23313294Y-45422986D01*
X23324500Y-45474499D01*
X23324500Y-46200500D01*
X23304815Y-46267539D01*
X23252011Y-46313294D01*
X23200500Y-46324500D01*
X10361500Y-46324500D01*
X10294461Y-46304815D01*
X10248706Y-46252011D01*
X10237500Y-46200500D01*
X10237500Y-38967519D01*
X10257185Y-38900480D01*
X10258398Y-38898628D01*
X10271394Y-38879179D01*
X10331737Y-38733497D01*
X10362500Y-38578842D01*
X10362500Y-38421158D01*
X10362500Y-38421155D01*
X10362499Y-38421153D01*
X10331738Y-38266510D01*
X10331737Y-38266503D01*
X10318062Y-38233489D01*
X10271397Y-38120827D01*
X10271390Y-38120814D01*
X10183790Y-37989712D01*
X10183784Y-37989705D01*
X10072292Y-37878213D01*
X10072288Y-37878210D01*
X9941185Y-37790609D01*
X9941172Y-37790602D01*
X9795501Y-37730264D01*
X9795489Y-37730261D01*
X9640845Y-37699500D01*
X9640842Y-37699500D01*
X9483158Y-37699500D01*
X9483155Y-37699500D01*
X9328510Y-37730261D01*
X9328498Y-37730264D01*
X9182827Y-37790602D01*
X9182814Y-37790609D01*
X9051711Y-37878210D01*
X9051707Y-37878213D01*
X8940213Y-37989707D01*
X8940210Y-37989711D01*
X8852609Y-38120814D01*
X8852602Y-38120827D01*
X8792264Y-38266498D01*
X8792261Y-38266510D01*
X8761500Y-38421153D01*
X1000000Y-38421153D01*
X1000000Y-29070000D01*
X1980138Y-29070000D01*
X2783012Y-29070000D01*
X2765795Y-29079940D01*
X2709940Y-29135795D01*
X2670444Y-29204204D01*
X2650000Y-29280504D01*
X2650000Y-29359496D01*
X2670444Y-29435796D01*
X2709940Y-29504205D01*
X2765795Y-29560060D01*
X2783012Y-29570000D01*
X1980138Y-29570000D01*
X1988430Y-29611690D01*
X1988430Y-29611692D01*
X2063807Y-29793671D01*
X2063814Y-29793684D01*
X2173248Y-29957462D01*
X2173251Y-29957466D01*
X2312533Y-30096748D01*
X2312537Y-30096751D01*
X2476315Y-30206185D01*
X2476328Y-30206192D01*
X2658306Y-30281569D01*
X2658318Y-30281572D01*
X2851504Y-30319999D01*
X2851508Y-30320000D01*
X3000000Y-30320000D01*
X3000000Y-29620000D01*
X3500000Y-29620000D01*
X3500000Y-30320000D01*
X3648492Y-30320000D01*
X3648495Y-30319999D01*
X3841681Y-30281572D01*
X3841693Y-30281569D01*
X4023671Y-30206192D01*
X4023684Y-30206185D01*
X4187462Y-30096751D01*
X4187466Y-30096748D01*
X4326748Y-29957466D01*
X4326751Y-29957462D01*
X4436185Y-29793684D01*
X4436192Y-29793671D01*
X4511569Y-29611692D01*
X4511569Y-29611690D01*
X4519862Y-29570000D01*
X3716988Y-29570000D01*
X3734205Y-29560060D01*
X3790060Y-29504205D01*
X3829556Y-29435796D01*
X3850000Y-29359496D01*
X3850000Y-29280504D01*
X3829556Y-29204204D01*
X3790060Y-29135795D01*
X3734205Y-29079940D01*
X3716988Y-29070000D01*
X4519862Y-29070000D01*
X5910138Y-29070000D01*
X6713012Y-29070000D01*
X6695795Y-29079940D01*
X6639940Y-29135795D01*
X6600444Y-29204204D01*
X6580000Y-29280504D01*
X6580000Y-29359496D01*
X6600444Y-29435796D01*
X6639940Y-29504205D01*
X6695795Y-29560060D01*
X6713012Y-29570000D01*
X5910138Y-29570000D01*
X5918430Y-29611690D01*
X5918430Y-29611692D01*
X5993807Y-29793671D01*
X5993814Y-29793684D01*
X6103248Y-29957462D01*
X6103251Y-29957466D01*
X6242533Y-30096748D01*
X6242537Y-30096751D01*
X6406315Y-30206185D01*
X6406328Y-30206192D01*
X6588306Y-30281569D01*
X6588318Y-30281572D01*
X6781504Y-30319999D01*
X6781508Y-30320000D01*
X7180000Y-30320000D01*
X7180000Y-29620000D01*
X7680000Y-29620000D01*
X7680000Y-30320000D01*
X8078492Y-30320000D01*
X8078495Y-30319999D01*
X8271681Y-30281572D01*
X8271693Y-30281569D01*
X8453671Y-30206192D01*
X8453684Y-30206185D01*
X8617462Y-30096751D01*
X8617466Y-30096748D01*
X8756748Y-29957466D01*
X8756751Y-29957462D01*
X8866185Y-29793684D01*
X8866192Y-29793671D01*
X8941569Y-29611692D01*
X8941569Y-29611690D01*
X8949862Y-29570000D01*
X8146988Y-29570000D01*
X8164205Y-29560060D01*
X8220060Y-29504205D01*
X8259556Y-29435796D01*
X8280000Y-29359496D01*
X8280000Y-29280504D01*
X8259556Y-29204204D01*
X8220060Y-29135795D01*
X8164205Y-29079940D01*
X8146988Y-29070000D01*
X8949862Y-29070000D01*
X8941569Y-29028309D01*
X8941569Y-29028307D01*
X8866192Y-28846328D01*
X8866185Y-28846315D01*
X8756751Y-28682537D01*
X8756748Y-28682533D01*
X8617466Y-28543251D01*
X8617462Y-28543248D01*
X8453684Y-28433814D01*
X8453671Y-28433807D01*
X8271693Y-28358430D01*
X8271681Y-28358427D01*
X8078495Y-28320000D01*
X7680000Y-28320000D01*
X7680000Y-29020000D01*
X7180000Y-29020000D01*
X7180000Y-28464463D01*
X7199685Y-28397424D01*
X7242000Y-28357076D01*
X7253365Y-28350515D01*
X7360515Y-28243365D01*
X7361372Y-28241879D01*
X7381721Y-28206637D01*
X7436279Y-28112138D01*
X7436281Y-28112135D01*
X7475500Y-27965766D01*
X7475500Y-27814234D01*
X7436281Y-27667865D01*
X7360515Y-27536635D01*
X7253365Y-27429485D01*
X7187750Y-27391602D01*
X7122136Y-27353719D01*
X7048950Y-27334109D01*
X6975766Y-27314500D01*
X6824234Y-27314500D01*
X6677863Y-27353719D01*
X6546635Y-27429485D01*
X6546632Y-27429487D01*
X6439487Y-27536632D01*
X6439485Y-27536635D01*
X6363719Y-27667863D01*
X6359530Y-27683497D01*
X6324500Y-27814234D01*
X6324500Y-27965766D01*
X6344109Y-28038950D01*
X6363719Y-28112136D01*
X6378939Y-28138497D01*
X6439485Y-28243365D01*
X6439487Y-28243367D01*
X6444432Y-28249811D01*
X6441612Y-28251974D01*
X6467302Y-28299020D01*
X6462318Y-28368712D01*
X6420446Y-28424645D01*
X6411379Y-28430416D01*
X6411387Y-28430427D01*
X6242536Y-28543248D01*
X6103251Y-28682533D01*
X6103248Y-28682537D01*
X5993814Y-28846315D01*
X5993807Y-28846328D01*
X5918430Y-29028307D01*
X5918430Y-29028309D01*
X5910138Y-29070000D01*
X4519862Y-29070000D01*
X4511569Y-29028309D01*
X4511569Y-29028307D01*
X4436192Y-28846328D01*
X4436185Y-28846315D01*
X4326751Y-28682537D01*
X4326748Y-28682533D01*
X4187466Y-28543251D01*
X4187462Y-28543248D01*
X4023684Y-28433814D01*
X4023671Y-28433807D01*
X3841693Y-28358430D01*
X3841681Y-28358427D01*
X3648495Y-28320000D01*
X3500000Y-28320000D01*
X3500000Y-29020000D01*
X3000000Y-29020000D01*
X3000000Y-28320000D01*
X2851504Y-28320000D01*
X2658318Y-28358427D01*
X2658306Y-28358430D01*
X2476328Y-28433807D01*
X2476315Y-28433814D01*
X2312537Y-28543248D01*
X2312533Y-28543251D01*
X2173251Y-28682533D01*
X2173248Y-28682537D01*
X2063814Y-28846315D01*
X2063807Y-28846328D01*
X1988430Y-29028307D01*
X1988430Y-29028309D01*
X1980138Y-29070000D01*
X1000000Y-29070000D01*
X1000000Y-20430000D01*
X1980138Y-20430000D01*
X2783012Y-20430000D01*
X2765795Y-20439940D01*
X2709940Y-20495795D01*
X2670444Y-20564204D01*
X2650000Y-20640504D01*
X2650000Y-20719496D01*
X2670444Y-20795796D01*
X2709940Y-20864205D01*
X2765795Y-20920060D01*
X2783012Y-20930000D01*
X1980138Y-20930000D01*
X1988430Y-20971690D01*
X1988430Y-20971692D01*
X2063807Y-21153671D01*
X2063814Y-21153684D01*
X2173248Y-21317462D01*
X2173251Y-21317466D01*
X2312533Y-21456748D01*
X2312537Y-21456751D01*
X2476315Y-21566185D01*
X2476328Y-21566192D01*
X2658306Y-21641569D01*
X2658318Y-21641572D01*
X2851504Y-21679999D01*
X2851508Y-21680000D01*
X3000000Y-21680000D01*
X3000000Y-20980000D01*
X3500000Y-20980000D01*
X3500000Y-21680000D01*
X3648492Y-21680000D01*
X3648495Y-21679999D01*
X3841681Y-21641572D01*
X3841693Y-21641569D01*
X4023671Y-21566192D01*
X4023684Y-21566185D01*
X4187462Y-21456751D01*
X4187466Y-21456748D01*
X4326748Y-21317466D01*
X4326751Y-21317462D01*
X4436185Y-21153684D01*
X4436192Y-21153671D01*
X4511569Y-20971692D01*
X4511569Y-20971690D01*
X4519862Y-20930000D01*
X3716988Y-20930000D01*
X3734205Y-20920060D01*
X3790060Y-20864205D01*
X3829556Y-20795796D01*
X3850000Y-20719496D01*
X3850000Y-20640504D01*
X3829556Y-20564204D01*
X3790060Y-20495795D01*
X3734205Y-20439940D01*
X3716988Y-20430000D01*
X4519862Y-20430000D01*
X5910138Y-20430000D01*
X6713012Y-20430000D01*
X6695795Y-20439940D01*
X6639940Y-20495795D01*
X6600444Y-20564204D01*
X6580000Y-20640504D01*
X6580000Y-20719496D01*
X6600444Y-20795796D01*
X6639940Y-20864205D01*
X6695795Y-20920060D01*
X6713012Y-20930000D01*
X5910138Y-20930000D01*
X5918430Y-20971690D01*
X5918430Y-20971692D01*
X5993807Y-21153671D01*
X5993814Y-21153684D01*
X6103248Y-21317462D01*
X6103251Y-21317466D01*
X6242533Y-21456748D01*
X6242537Y-21456751D01*
X6411387Y-21569574D01*
X6410430Y-21571005D01*
X6454425Y-21614211D01*
X6469895Y-21682346D01*
X6446072Y-21748029D01*
X6444309Y-21750094D01*
X6444432Y-21750189D01*
X6439485Y-21756635D01*
X6363719Y-21887863D01*
X6324500Y-22034234D01*
X6324500Y-22185765D01*
X6363719Y-22332136D01*
X6390321Y-22378211D01*
X6439485Y-22463365D01*
X6546635Y-22570515D01*
X6677865Y-22646281D01*
X6824234Y-22685500D01*
X6824236Y-22685500D01*
X6975764Y-22685500D01*
X6975766Y-22685500D01*
X7122135Y-22646281D01*
X7253365Y-22570515D01*
X7352727Y-22471153D01*
X11199500Y-22471153D01*
X11199500Y-22628846D01*
X11230261Y-22783489D01*
X11230264Y-22783501D01*
X11290603Y-22929174D01*
X11290604Y-22929175D01*
X11290606Y-22929179D01*
X11303602Y-22948628D01*
X11324480Y-23015305D01*
X11324500Y-23017519D01*
X11324500Y-26982479D01*
X11304815Y-27049518D01*
X11303602Y-27051370D01*
X11290609Y-27070814D01*
X11290602Y-27070827D01*
X11230264Y-27216498D01*
X11230261Y-27216510D01*
X11199500Y-27371153D01*
X11199500Y-27528846D01*
X11230261Y-27683489D01*
X11230264Y-27683501D01*
X11290602Y-27829172D01*
X11290609Y-27829185D01*
X11378210Y-27960288D01*
X11378213Y-27960292D01*
X11489707Y-28071786D01*
X11489711Y-28071789D01*
X11620814Y-28159390D01*
X11620827Y-28159397D01*
X11766498Y-28219735D01*
X11766503Y-28219737D01*
X11917694Y-28249811D01*
X11921153Y-28250499D01*
X11921156Y-28250500D01*
X11921158Y-28250500D01*
X12078844Y-28250500D01*
X12078845Y-28250499D01*
X12233497Y-28219737D01*
X12379179Y-28159394D01*
X12510289Y-28071789D01*
X12621789Y-27960289D01*
X12709394Y-27829179D01*
X12769737Y-27683497D01*
X12800500Y-27528842D01*
X12800500Y-27371158D01*
X12800500Y-27371155D01*
X12800499Y-27371153D01*
X12769738Y-27216510D01*
X12769737Y-27216503D01*
X12769735Y-27216498D01*
X12709397Y-27070827D01*
X12709390Y-27070814D01*
X12696398Y-27051370D01*
X12675520Y-26984692D01*
X12675500Y-26982479D01*
X12675500Y-23017519D01*
X12678276Y-23005491D01*
X12677247Y-22996775D01*
X12684492Y-22978558D01*
X12688044Y-22963173D01*
X12691728Y-22955617D01*
X12709394Y-22929179D01*
X12712718Y-22921153D01*
X20199500Y-22921153D01*
X20199500Y-23078846D01*
X20230261Y-23233489D01*
X20230264Y-23233501D01*
X20290602Y-23379172D01*
X20290609Y-23379185D01*
X20378210Y-23510288D01*
X20378213Y-23510292D01*
X20489707Y-23621786D01*
X20489711Y-23621789D01*
X20620814Y-23709390D01*
X20620827Y-23709397D01*
X20766498Y-23769735D01*
X20766503Y-23769737D01*
X20921153Y-23800499D01*
X20921156Y-23800500D01*
X20921158Y-23800500D01*
X21078844Y-23800500D01*
X21078845Y-23800499D01*
X21233497Y-23769737D01*
X21379179Y-23709394D01*
X21436044Y-23671397D01*
X21502721Y-23650520D01*
X21504935Y-23650500D01*
X27114071Y-23650500D01*
X27198615Y-23633682D01*
X27239744Y-23625501D01*
X27358127Y-23576465D01*
X27464669Y-23505276D01*
X27555276Y-23414669D01*
X27626465Y-23308127D01*
X27675501Y-23189744D01*
X27697561Y-23078846D01*
X27700500Y-23064071D01*
X27700500Y-18504935D01*
X27720185Y-18437896D01*
X27721366Y-18436090D01*
X27759394Y-18379179D01*
X27819737Y-18233497D01*
X27850500Y-18078842D01*
X27850500Y-17921158D01*
X27850500Y-17921155D01*
X27850499Y-17921153D01*
X27819738Y-17766510D01*
X27819737Y-17766503D01*
X27819735Y-17766498D01*
X27759397Y-17620827D01*
X27759390Y-17620814D01*
X27671789Y-17489711D01*
X27671786Y-17489707D01*
X27560292Y-17378213D01*
X27560288Y-17378210D01*
X27429185Y-17290609D01*
X27429172Y-17290602D01*
X27283501Y-17230264D01*
X27283489Y-17230261D01*
X27128845Y-17199500D01*
X27128842Y-17199500D01*
X26971158Y-17199500D01*
X26971155Y-17199500D01*
X26816510Y-17230261D01*
X26816498Y-17230264D01*
X26670828Y-17290602D01*
X26670812Y-17290611D01*
X26624909Y-17321282D01*
X26560592Y-17342095D01*
X24921687Y-17402559D01*
X24858667Y-17388004D01*
X24854179Y-17385605D01*
X24708501Y-17325264D01*
X24708489Y-17325261D01*
X24553845Y-17294500D01*
X24553842Y-17294500D01*
X24396158Y-17294500D01*
X24396155Y-17294500D01*
X24241510Y-17325261D01*
X24241498Y-17325264D01*
X24095827Y-17385602D01*
X24095814Y-17385609D01*
X23964711Y-17473210D01*
X23964707Y-17473213D01*
X23853213Y-17584707D01*
X23853210Y-17584711D01*
X23765609Y-17715814D01*
X23765602Y-17715827D01*
X23705264Y-17861498D01*
X23705261Y-17861510D01*
X23674500Y-18016153D01*
X23674500Y-18173846D01*
X23705261Y-18328489D01*
X23705264Y-18328501D01*
X23765602Y-18474172D01*
X23765609Y-18474185D01*
X23853210Y-18605288D01*
X23853213Y-18605292D01*
X23964707Y-18716786D01*
X23964711Y-18716789D01*
X24095814Y-18804390D01*
X24095827Y-18804397D01*
X24217288Y-18854707D01*
X24241503Y-18864737D01*
X24396153Y-18895499D01*
X24396156Y-18895500D01*
X24396158Y-18895500D01*
X24553844Y-18895500D01*
X24553845Y-18895499D01*
X24708497Y-18864737D01*
X24854179Y-18804394D01*
X24900089Y-18773717D01*
X24964404Y-18752903D01*
X26270929Y-18704701D01*
X26338648Y-18721901D01*
X26386319Y-18772982D01*
X26399500Y-18828617D01*
X26399500Y-22225500D01*
X26379815Y-22292539D01*
X26327011Y-22338294D01*
X26275500Y-22349500D01*
X21504935Y-22349500D01*
X21437896Y-22329815D01*
X21436090Y-22328633D01*
X21379179Y-22290606D01*
X21379172Y-22290602D01*
X21233501Y-22230264D01*
X21233489Y-22230261D01*
X21078845Y-22199500D01*
X21078842Y-22199500D01*
X20921158Y-22199500D01*
X20921155Y-22199500D01*
X20766510Y-22230261D01*
X20766498Y-22230264D01*
X20620827Y-22290602D01*
X20620814Y-22290609D01*
X20489711Y-22378210D01*
X20489707Y-22378213D01*
X20378213Y-22489707D01*
X20378210Y-22489711D01*
X20290609Y-22620814D01*
X20290602Y-22620827D01*
X20230264Y-22766498D01*
X20230261Y-22766510D01*
X20199500Y-22921153D01*
X12712718Y-22921153D01*
X12769737Y-22783497D01*
X12800500Y-22628842D01*
X12800500Y-22471158D01*
X12800500Y-22471155D01*
X12800499Y-22471153D01*
X12798949Y-22463361D01*
X12769737Y-22316503D01*
X12759811Y-22292539D01*
X12709397Y-22170827D01*
X12709390Y-22170814D01*
X12621789Y-22039711D01*
X12621786Y-22039707D01*
X12510292Y-21928213D01*
X12510288Y-21928210D01*
X12379185Y-21840609D01*
X12379172Y-21840602D01*
X12233501Y-21780264D01*
X12233489Y-21780261D01*
X12078845Y-21749500D01*
X12078842Y-21749500D01*
X11921158Y-21749500D01*
X11921155Y-21749500D01*
X11766510Y-21780261D01*
X11766498Y-21780264D01*
X11620827Y-21840602D01*
X11620814Y-21840609D01*
X11489711Y-21928210D01*
X11489707Y-21928213D01*
X11378213Y-22039707D01*
X11378210Y-22039711D01*
X11290609Y-22170814D01*
X11290602Y-22170827D01*
X11230264Y-22316498D01*
X11230261Y-22316510D01*
X11199500Y-22471153D01*
X7352727Y-22471153D01*
X7360515Y-22463365D01*
X7436281Y-22332135D01*
X7475500Y-22185766D01*
X7475500Y-22034234D01*
X7436281Y-21887865D01*
X7360515Y-21756635D01*
X7253365Y-21649485D01*
X7241998Y-21642922D01*
X7193783Y-21592354D01*
X7180000Y-21535536D01*
X7180000Y-20980000D01*
X7680000Y-20980000D01*
X7680000Y-21680000D01*
X8078492Y-21680000D01*
X8078495Y-21679999D01*
X8271681Y-21641572D01*
X8271693Y-21641569D01*
X8453671Y-21566192D01*
X8453684Y-21566185D01*
X8617462Y-21456751D01*
X8617466Y-21456748D01*
X8756748Y-21317466D01*
X8756751Y-21317462D01*
X8866185Y-21153684D01*
X8866192Y-21153671D01*
X8941569Y-20971692D01*
X8941569Y-20971690D01*
X8949862Y-20930000D01*
X8146988Y-20930000D01*
X8164205Y-20920060D01*
X8220060Y-20864205D01*
X8259556Y-20795796D01*
X8280000Y-20719496D01*
X8280000Y-20640504D01*
X8259556Y-20564204D01*
X8254908Y-20556153D01*
X16199500Y-20556153D01*
X16199500Y-20713846D01*
X16230261Y-20868489D01*
X16230264Y-20868501D01*
X16290602Y-21014172D01*
X16290609Y-21014185D01*
X16378210Y-21145288D01*
X16378213Y-21145292D01*
X16489707Y-21256786D01*
X16489711Y-21256789D01*
X16620814Y-21344390D01*
X16620827Y-21344397D01*
X16766498Y-21404735D01*
X16766503Y-21404737D01*
X16921153Y-21435499D01*
X16921156Y-21435500D01*
X16921158Y-21435500D01*
X17078844Y-21435500D01*
X17078845Y-21435499D01*
X17233497Y-21404737D01*
X17379179Y-21344394D01*
X17510289Y-21256789D01*
X17621789Y-21145289D01*
X17709394Y-21014179D01*
X17769737Y-20868497D01*
X17800500Y-20713842D01*
X17800500Y-20556158D01*
X17800500Y-20556155D01*
X17800499Y-20556153D01*
X17788493Y-20495795D01*
X17769737Y-20401503D01*
X17709394Y-20255821D01*
X17646397Y-20161539D01*
X17625520Y-20094863D01*
X17625500Y-20092650D01*
X17625500Y-19286153D01*
X20199500Y-19286153D01*
X20199500Y-19443846D01*
X20230261Y-19598489D01*
X20230264Y-19598501D01*
X20290602Y-19744172D01*
X20290609Y-19744185D01*
X20378210Y-19875288D01*
X20378213Y-19875292D01*
X20489707Y-19986786D01*
X20489711Y-19986789D01*
X20620814Y-20074390D01*
X20620827Y-20074397D01*
X20742288Y-20124707D01*
X20766503Y-20134737D01*
X20901255Y-20161541D01*
X20921153Y-20165499D01*
X20921156Y-20165500D01*
X21057730Y-20165500D01*
X21124201Y-20184821D01*
X22207668Y-20872822D01*
X22253709Y-20925377D01*
X22255758Y-20930048D01*
X22290607Y-21014182D01*
X22378210Y-21145288D01*
X22378213Y-21145292D01*
X22489707Y-21256786D01*
X22489711Y-21256789D01*
X22620814Y-21344390D01*
X22620827Y-21344397D01*
X22766498Y-21404735D01*
X22766503Y-21404737D01*
X22921153Y-21435499D01*
X22921156Y-21435500D01*
X22921158Y-21435500D01*
X23078844Y-21435500D01*
X23078845Y-21435499D01*
X23233497Y-21404737D01*
X23379179Y-21344394D01*
X23510289Y-21256789D01*
X23621789Y-21145289D01*
X23709394Y-21014179D01*
X23769737Y-20868497D01*
X23800500Y-20713842D01*
X23800500Y-20556158D01*
X23800500Y-20556155D01*
X23800499Y-20556153D01*
X23788493Y-20495795D01*
X23769737Y-20401503D01*
X23709397Y-20255828D01*
X23709397Y-20255827D01*
X23709390Y-20255814D01*
X23621789Y-20124711D01*
X23621786Y-20124707D01*
X23510292Y-20013213D01*
X23510288Y-20013210D01*
X23379185Y-19925609D01*
X23379172Y-19925602D01*
X23233501Y-19865264D01*
X23233489Y-19865261D01*
X23078845Y-19834500D01*
X23078842Y-19834500D01*
X22942271Y-19834500D01*
X22875800Y-19815179D01*
X21792330Y-19127176D01*
X21746289Y-19074621D01*
X21744252Y-19069979D01*
X21709394Y-18985821D01*
X21709389Y-18985814D01*
X21621789Y-18854710D01*
X21510292Y-18743213D01*
X21510288Y-18743210D01*
X21379185Y-18655609D01*
X21379172Y-18655602D01*
X21233501Y-18595264D01*
X21233489Y-18595261D01*
X21078845Y-18564500D01*
X21078842Y-18564500D01*
X20921158Y-18564500D01*
X20921155Y-18564500D01*
X20766510Y-18595261D01*
X20766498Y-18595264D01*
X20620827Y-18655602D01*
X20620814Y-18655609D01*
X20489711Y-18743210D01*
X20489707Y-18743213D01*
X20378213Y-18854707D01*
X20378210Y-18854711D01*
X20290609Y-18985814D01*
X20290602Y-18985827D01*
X20230264Y-19131498D01*
X20230261Y-19131510D01*
X20199500Y-19286153D01*
X17625500Y-19286153D01*
X17625500Y-15249500D01*
X17645185Y-15182461D01*
X17697989Y-15136706D01*
X17749500Y-15125500D01*
X34750500Y-15125500D01*
X34817539Y-15145185D01*
X34863294Y-15197989D01*
X34874500Y-15249500D01*
X34874500Y-25426610D01*
X34898535Y-25547444D01*
X34898538Y-25547454D01*
X34945687Y-25661283D01*
X34945692Y-25661292D01*
X35014141Y-25763732D01*
X35014144Y-25763736D01*
X35101263Y-25850855D01*
X35101267Y-25850858D01*
X35203707Y-25919307D01*
X35203716Y-25919312D01*
X35224739Y-25928020D01*
X35317548Y-25966463D01*
X35419722Y-25986786D01*
X35438389Y-25990499D01*
X35438393Y-25990500D01*
X35438394Y-25990500D01*
X40957650Y-25990500D01*
X41024689Y-26010185D01*
X41026541Y-26011398D01*
X41120821Y-26074394D01*
X41120823Y-26074395D01*
X41120827Y-26074397D01*
X41254403Y-26129725D01*
X41266503Y-26134737D01*
X41408871Y-26163056D01*
X41421153Y-26165499D01*
X41421156Y-26165500D01*
X41421158Y-26165500D01*
X41578844Y-26165500D01*
X41578845Y-26165499D01*
X41733497Y-26134737D01*
X41879179Y-26074394D01*
X42010289Y-25986789D01*
X42121789Y-25875289D01*
X42209394Y-25744179D01*
X42269737Y-25598497D01*
X42300500Y-25443842D01*
X42300500Y-25286158D01*
X42300500Y-25286155D01*
X42300499Y-25286153D01*
X42269738Y-25131510D01*
X42269737Y-25131503D01*
X42269735Y-25131498D01*
X42209397Y-24985827D01*
X42209390Y-24985814D01*
X42121789Y-24854711D01*
X42121786Y-24854707D01*
X42010292Y-24743213D01*
X42010288Y-24743210D01*
X41879185Y-24655609D01*
X41879172Y-24655602D01*
X41733501Y-24595264D01*
X41733489Y-24595261D01*
X41578845Y-24564500D01*
X41578842Y-24564500D01*
X41421158Y-24564500D01*
X41421155Y-24564500D01*
X41266510Y-24595261D01*
X41266498Y-24595264D01*
X41120827Y-24655602D01*
X41120815Y-24655609D01*
X41026541Y-24718602D01*
X40959864Y-24739480D01*
X40957650Y-24739500D01*
X36249500Y-24739500D01*
X36182461Y-24719815D01*
X36136706Y-24667011D01*
X36125500Y-24615500D01*
X36125500Y-17352471D01*
X36145185Y-17285432D01*
X36197989Y-17239677D01*
X36267147Y-17229733D01*
X36305794Y-17241985D01*
X36481588Y-17331557D01*
X36683757Y-17397246D01*
X36893713Y-17430500D01*
X36893714Y-17430500D01*
X37106286Y-17430500D01*
X37106287Y-17430500D01*
X37316243Y-17397246D01*
X37518412Y-17331557D01*
X37707816Y-17235051D01*
X37762572Y-17195269D01*
X37879786Y-17110109D01*
X37879788Y-17110106D01*
X37879792Y-17110104D01*
X38030104Y-16959792D01*
X38030106Y-16959788D01*
X38030109Y-16959786D01*
X38115890Y-16841717D01*
X38155051Y-16787816D01*
X38159793Y-16778508D01*
X38207763Y-16727711D01*
X38275583Y-16710911D01*
X38341719Y-16733445D01*
X38380763Y-16778500D01*
X38385373Y-16787547D01*
X38424728Y-16841716D01*
X39057037Y-16209408D01*
X39074075Y-16272993D01*
X39139901Y-16387007D01*
X39232993Y-16480099D01*
X39347007Y-16545925D01*
X39410590Y-16562962D01*
X38778282Y-17195269D01*
X38778282Y-17195270D01*
X38832449Y-17234624D01*
X39021782Y-17331095D01*
X39223870Y-17396757D01*
X39433754Y-17430000D01*
X39646246Y-17430000D01*
X39856127Y-17396757D01*
X39856130Y-17396757D01*
X40058217Y-17331095D01*
X40247554Y-17234622D01*
X40301716Y-17195270D01*
X40301717Y-17195270D01*
X39669408Y-16562962D01*
X39732993Y-16545925D01*
X39847007Y-16480099D01*
X39940099Y-16387007D01*
X40005925Y-16272993D01*
X40022962Y-16209408D01*
X40655270Y-16841717D01*
X40655270Y-16841716D01*
X40694622Y-16787554D01*
X40791095Y-16598217D01*
X40856757Y-16396130D01*
X40856757Y-16396127D01*
X40890000Y-16186246D01*
X40890000Y-15973753D01*
X40856757Y-15763872D01*
X40856757Y-15763869D01*
X40791095Y-15561782D01*
X40694624Y-15372449D01*
X40655270Y-15318282D01*
X40655269Y-15318282D01*
X40022962Y-15950590D01*
X40005925Y-15887007D01*
X39940099Y-15772993D01*
X39847007Y-15679901D01*
X39732993Y-15614075D01*
X39669409Y-15597037D01*
X40301716Y-14964728D01*
X40247547Y-14925373D01*
X40247547Y-14925372D01*
X40238500Y-14920763D01*
X40187706Y-14872788D01*
X40170912Y-14804966D01*
X40193451Y-14738832D01*
X40238508Y-14699793D01*
X40247816Y-14695051D01*
X40327007Y-14637515D01*
X40419786Y-14570109D01*
X40419788Y-14570106D01*
X40419792Y-14570104D01*
X40570104Y-14419792D01*
X40570106Y-14419788D01*
X40570109Y-14419786D01*
X40695049Y-14247819D01*
X40702497Y-14233203D01*
X40750473Y-14182408D01*
X40812981Y-14165500D01*
X42750500Y-14165500D01*
X42817539Y-14185185D01*
X42863294Y-14237989D01*
X42874500Y-14289500D01*
X42874500Y-27362650D01*
X42854815Y-27429689D01*
X42853626Y-27431503D01*
X42832802Y-27462668D01*
X42790609Y-27525815D01*
X42790602Y-27525828D01*
X42730264Y-27671498D01*
X42730261Y-27671510D01*
X42699500Y-27826153D01*
X42699500Y-27983846D01*
X42730261Y-28138489D01*
X42730264Y-28138501D01*
X42790602Y-28284172D01*
X42790609Y-28284185D01*
X42878210Y-28415288D01*
X42878213Y-28415292D01*
X42989707Y-28526786D01*
X42989711Y-28526789D01*
X43120814Y-28614390D01*
X43120827Y-28614397D01*
X43266498Y-28674735D01*
X43266503Y-28674737D01*
X43421153Y-28705499D01*
X43421156Y-28705500D01*
X43421158Y-28705500D01*
X43578844Y-28705500D01*
X43578845Y-28705499D01*
X43733497Y-28674737D01*
X43879179Y-28614394D01*
X44010289Y-28526789D01*
X44121789Y-28415289D01*
X44209394Y-28284179D01*
X44269737Y-28138497D01*
X44300500Y-27983842D01*
X44300500Y-27826158D01*
X44300500Y-27826155D01*
X44300499Y-27826153D01*
X44298128Y-27814234D01*
X44269737Y-27671503D01*
X44209394Y-27525821D01*
X44146397Y-27431539D01*
X44140747Y-27413494D01*
X44130523Y-27397585D01*
X44126071Y-27366623D01*
X44125520Y-27364863D01*
X44125500Y-27362650D01*
X44125500Y-27175854D01*
X44145185Y-27108815D01*
X44197989Y-27063060D01*
X44267147Y-27053116D01*
X44330703Y-27082141D01*
X44352602Y-27106963D01*
X44378210Y-27145288D01*
X44378213Y-27145292D01*
X44489707Y-27256786D01*
X44489711Y-27256789D01*
X44620814Y-27344390D01*
X44620827Y-27344397D01*
X44749236Y-27397585D01*
X44766503Y-27404737D01*
X44901255Y-27431541D01*
X44921153Y-27435499D01*
X44921156Y-27435500D01*
X44921158Y-27435500D01*
X45078844Y-27435500D01*
X45078845Y-27435499D01*
X45233497Y-27404737D01*
X45379179Y-27344394D01*
X45510289Y-27256789D01*
X45621789Y-27145289D01*
X45709394Y-27014179D01*
X45769737Y-26868497D01*
X45800500Y-26713842D01*
X45800500Y-26556158D01*
X45800500Y-26556155D01*
X45800499Y-26556153D01*
X45769738Y-26401510D01*
X45769737Y-26401503D01*
X45709394Y-26255821D01*
X45646397Y-26161539D01*
X45625520Y-26094863D01*
X45625500Y-26092650D01*
X45625500Y-8938393D01*
X45625499Y-8938389D01*
X45601464Y-8817555D01*
X45601463Y-8817548D01*
X45554311Y-8703714D01*
X45554310Y-8703713D01*
X45554307Y-8703707D01*
X45485858Y-8601267D01*
X45485855Y-8601263D01*
X45398736Y-8514144D01*
X45398732Y-8514141D01*
X45296292Y-8445692D01*
X45296283Y-8445687D01*
X45182454Y-8398538D01*
X45182455Y-8398538D01*
X45182452Y-8398537D01*
X45182448Y-8398536D01*
X45182444Y-8398535D01*
X45061610Y-8374500D01*
X45061606Y-8374500D01*
X37061606Y-8374500D01*
X36938394Y-8374500D01*
X36938389Y-8374500D01*
X36817555Y-8398535D01*
X36817545Y-8398538D01*
X36703716Y-8445687D01*
X36703707Y-8445692D01*
X36601267Y-8514141D01*
X36601263Y-8514144D01*
X36514144Y-8601263D01*
X36514141Y-8601267D01*
X36445692Y-8703707D01*
X36445687Y-8703716D01*
X36398538Y-8817545D01*
X36398535Y-8817555D01*
X36374500Y-8938389D01*
X36374500Y-9525500D01*
X36354815Y-9592539D01*
X36302011Y-9638294D01*
X36250501Y-9649500D01*
X36102130Y-9649500D01*
X36102123Y-9649501D01*
X36042516Y-9655908D01*
X35907671Y-9706202D01*
X35907664Y-9706206D01*
X35792455Y-9792452D01*
X35792452Y-9792455D01*
X35706206Y-9907664D01*
X35706202Y-9907671D01*
X35655908Y-10042517D01*
X35649501Y-10102116D01*
X35649500Y-10102135D01*
X35649500Y-11897870D01*
X35649501Y-11897876D01*
X35655908Y-11957483D01*
X35706202Y-12092328D01*
X35706206Y-12092335D01*
X35792452Y-12207544D01*
X35792455Y-12207547D01*
X35907664Y-12293793D01*
X35907671Y-12293797D01*
X36039082Y-12342810D01*
X36095016Y-12384681D01*
X36119433Y-12450145D01*
X36104582Y-12518418D01*
X36083431Y-12546673D01*
X35969889Y-12660215D01*
X35844950Y-12832180D01*
X35837503Y-12846797D01*
X35789527Y-12897592D01*
X35727019Y-12914500D01*
X35438389Y-12914500D01*
X35317555Y-12938535D01*
X35317545Y-12938538D01*
X35203716Y-12985687D01*
X35203707Y-12985692D01*
X35101267Y-13054141D01*
X35101263Y-13054144D01*
X35014144Y-13141263D01*
X35014141Y-13141267D01*
X34945692Y-13243707D01*
X34945687Y-13243716D01*
X34898538Y-13357545D01*
X34898535Y-13357555D01*
X34874500Y-13478389D01*
X34874500Y-13750500D01*
X34854815Y-13817539D01*
X34802011Y-13863294D01*
X34750500Y-13874500D01*
X16938389Y-13874500D01*
X16817555Y-13898535D01*
X16817545Y-13898538D01*
X16703716Y-13945687D01*
X16703707Y-13945692D01*
X16601267Y-14014141D01*
X16601263Y-14014144D01*
X16514144Y-14101263D01*
X16514141Y-14101267D01*
X16445692Y-14203707D01*
X16445687Y-14203716D01*
X16398538Y-14317545D01*
X16398535Y-14317555D01*
X16374500Y-14438389D01*
X16374500Y-20092650D01*
X16354815Y-20159689D01*
X16353626Y-20161503D01*
X16332802Y-20192668D01*
X16290609Y-20255815D01*
X16290602Y-20255828D01*
X16230264Y-20401498D01*
X16230261Y-20401510D01*
X16199500Y-20556153D01*
X8254908Y-20556153D01*
X8220060Y-20495795D01*
X8164205Y-20439940D01*
X8146988Y-20430000D01*
X8949862Y-20430000D01*
X8941569Y-20388309D01*
X8941569Y-20388307D01*
X8866192Y-20206328D01*
X8866185Y-20206315D01*
X8756751Y-20042537D01*
X8756748Y-20042533D01*
X8617466Y-19903251D01*
X8617462Y-19903248D01*
X8453684Y-19793814D01*
X8453671Y-19793807D01*
X8271693Y-19718430D01*
X8271681Y-19718427D01*
X8078495Y-19680000D01*
X7680000Y-19680000D01*
X7680000Y-20380000D01*
X7180000Y-20380000D01*
X7180000Y-19680000D01*
X6781504Y-19680000D01*
X6588318Y-19718427D01*
X6588306Y-19718430D01*
X6406328Y-19793807D01*
X6406315Y-19793814D01*
X6242537Y-19903248D01*
X6242533Y-19903251D01*
X6103251Y-20042533D01*
X6103248Y-20042537D01*
X5993814Y-20206315D01*
X5993807Y-20206328D01*
X5918430Y-20388307D01*
X5918430Y-20388309D01*
X5910138Y-20430000D01*
X4519862Y-20430000D01*
X4511569Y-20388309D01*
X4511569Y-20388307D01*
X4436192Y-20206328D01*
X4436185Y-20206315D01*
X4326751Y-20042537D01*
X4326748Y-20042533D01*
X4187466Y-19903251D01*
X4187462Y-19903248D01*
X4023684Y-19793814D01*
X4023671Y-19793807D01*
X3841693Y-19718430D01*
X3841681Y-19718427D01*
X3648495Y-19680000D01*
X3500000Y-19680000D01*
X3500000Y-20380000D01*
X3000000Y-20380000D01*
X3000000Y-19680000D01*
X2851504Y-19680000D01*
X2658318Y-19718427D01*
X2658306Y-19718430D01*
X2476328Y-19793807D01*
X2476315Y-19793814D01*
X2312537Y-19903248D01*
X2312533Y-19903251D01*
X2173251Y-20042533D01*
X2173248Y-20042537D01*
X2063814Y-20206315D01*
X2063807Y-20206328D01*
X1988430Y-20388307D01*
X1988430Y-20388309D01*
X1980138Y-20430000D01*
X1000000Y-20430000D01*
X1000000Y-3878711D01*
X2149500Y-3878711D01*
X2149500Y-4121288D01*
X2181161Y-4361785D01*
X2243947Y-4596104D01*
X2336773Y-4820205D01*
X2336776Y-4820212D01*
X2458064Y-5030289D01*
X2458066Y-5030292D01*
X2458067Y-5030293D01*
X2605733Y-5222736D01*
X2605739Y-5222743D01*
X2777256Y-5394260D01*
X2777262Y-5394265D01*
X2969711Y-5541936D01*
X3179788Y-5663224D01*
X3403900Y-5756054D01*
X3638211Y-5818838D01*
X3818586Y-5842584D01*
X3878711Y-5850500D01*
X3878712Y-5850500D01*
X4121289Y-5850500D01*
X4169388Y-5844167D01*
X4361789Y-5818838D01*
X4596100Y-5756054D01*
X4820212Y-5663224D01*
X5030289Y-5541936D01*
X5222738Y-5394265D01*
X5394265Y-5222738D01*
X5541936Y-5030289D01*
X5663224Y-4820212D01*
X5756054Y-4596100D01*
X5818838Y-4361789D01*
X5850500Y-4121288D01*
X5850500Y-3878712D01*
X5850500Y-3878711D01*
X44149500Y-3878711D01*
X44149500Y-4121288D01*
X44181161Y-4361785D01*
X44243947Y-4596104D01*
X44336773Y-4820205D01*
X44336776Y-4820212D01*
X44458064Y-5030289D01*
X44458066Y-5030292D01*
X44458067Y-5030293D01*
X44605733Y-5222736D01*
X44605739Y-5222743D01*
X44777256Y-5394260D01*
X44777262Y-5394265D01*
X44969711Y-5541936D01*
X45179788Y-5663224D01*
X45403900Y-5756054D01*
X45638211Y-5818838D01*
X45818586Y-5842584D01*
X45878711Y-5850500D01*
X45878712Y-5850500D01*
X46121289Y-5850500D01*
X46169388Y-5844167D01*
X46361789Y-5818838D01*
X46596100Y-5756054D01*
X46820212Y-5663224D01*
X47030289Y-5541936D01*
X47222738Y-5394265D01*
X47394265Y-5222738D01*
X47541936Y-5030289D01*
X47663224Y-4820212D01*
X47756054Y-4596100D01*
X47818838Y-4361789D01*
X47850500Y-4121288D01*
X47850500Y-3878712D01*
X47818838Y-3638211D01*
X47756054Y-3403900D01*
X47663224Y-3179788D01*
X47541936Y-2969711D01*
X47394265Y-2777262D01*
X47394260Y-2777256D01*
X47222743Y-2605739D01*
X47222736Y-2605733D01*
X47030293Y-2458067D01*
X47030292Y-2458066D01*
X47030289Y-2458064D01*
X46820212Y-2336776D01*
X46820205Y-2336773D01*
X46596104Y-2243947D01*
X46361785Y-2181161D01*
X46121289Y-2149500D01*
X46121288Y-2149500D01*
X45878712Y-2149500D01*
X45878711Y-2149500D01*
X45638214Y-2181161D01*
X45403895Y-2243947D01*
X45179794Y-2336773D01*
X45179785Y-2336777D01*
X44969706Y-2458067D01*
X44777263Y-2605733D01*
X44777256Y-2605739D01*
X44605739Y-2777256D01*
X44605733Y-2777263D01*
X44458067Y-2969706D01*
X44336777Y-3179785D01*
X44336773Y-3179794D01*
X44243947Y-3403895D01*
X44181161Y-3638214D01*
X44149500Y-3878711D01*
X5850500Y-3878711D01*
X5818838Y-3638211D01*
X5756054Y-3403900D01*
X5663224Y-3179788D01*
X5541936Y-2969711D01*
X5394265Y-2777262D01*
X5394260Y-2777256D01*
X5222743Y-2605739D01*
X5222736Y-2605733D01*
X5030293Y-2458067D01*
X5030292Y-2458066D01*
X5030289Y-2458064D01*
X4820212Y-2336776D01*
X4820205Y-2336773D01*
X4596104Y-2243947D01*
X4361785Y-2181161D01*
X4121289Y-2149500D01*
X4121288Y-2149500D01*
X3878712Y-2149500D01*
X3878711Y-2149500D01*
X3638214Y-2181161D01*
X3403895Y-2243947D01*
X3179794Y-2336773D01*
X3179785Y-2336777D01*
X2969706Y-2458067D01*
X2777263Y-2605733D01*
X2777256Y-2605739D01*
X2605739Y-2777256D01*
X2605733Y-2777263D01*
X2458067Y-2969706D01*
X2336777Y-3179785D01*
X2336773Y-3179794D01*
X2243947Y-3403895D01*
X2181161Y-3638214D01*
X2149500Y-3878711D01*
X1000000Y-3878711D01*
X1000000Y-1759176D01*
X1019685Y-1692137D01*
X1036319Y-1671495D01*
X1671495Y-1036319D01*
X1732818Y-1002834D01*
X1759176Y-1000000D01*
X48240824Y-1000000D01*
X48307863Y-1019685D01*
G37*
G04 #@! TD.AperFunction*
G04 #@! TD*
M02*
