G04 #@! TF.GenerationSoftware,KiCad,Pcbnew,9.0.2+dfsg-1*
G04 #@! TF.CreationDate,2026-09-14T04:58:19+07:00*
G04 #@! TF.ProjectId,attiny85_timer,61747469-6e79-4383-955f-74696d65722e,rev?*
G04 #@! TF.SameCoordinates,Original*
G04 #@! TF.FileFunction,Paste,Top*
G04 #@! TF.FilePolarity,Positive*
%FSLAX46Y46*%
G04 Gerber Fmt 4.6, Leading zero omitted, Abs format (unit mm)*
G04 Created by KiCad (PCBNEW 9.0.2+dfsg-1) date 2026-09-14 04:58:19*
%MOMM*%
%LPD*%
G01*
G04 APERTURE LIST*
G04 Aperture macros list*
%AMRoundRect*
0 Rectangle with rounded corners*
0 $1 Rounding radius*
0 $2 $3 $4 $5 $6 $7 $8 $9 X,Y pos of 4 corners*
0 Add a 4 corners polygon primitive as box body*
4,1,4,$2,$3,$4,$5,$6,$7,$8,$9,$2,$3,0*
0 Add four circle primitives for the rounded corners*
1,1,$1+$1,$2,$3*
1,1,$1+$1,$4,$5*
1,1,$1+$1,$6,$7*
1,1,$1+$1,$8,$9*
0 Add four rect primitives between the rounded corners*
20,1,$1+$1,$2,$3,$4,$5,0*
20,1,$1+$1,$4,$5,$6,$7,0*
20,1,$1+$1,$6,$7,$8,$9,0*
20,1,$1+$1,$8,$9,$2,$3,0*%
G04 Aperture macros list end*
%ADD10RoundRect,0.250000X-0.250000X-0.475000X0.250000X-0.475000X0.250000X0.475000X-0.250000X0.475000X0*%
%ADD11R,1.450000X0.600000*%
%ADD12R,1.450000X0.300000*%
%ADD13RoundRect,0.243750X-0.243750X-0.456250X0.243750X-0.456250X0.243750X0.456250X-0.243750X0.456250X0*%
%ADD14RoundRect,0.250000X-0.262500X-0.450000X0.262500X-0.450000X0.262500X0.450000X-0.262500X0.450000X0*%
%ADD15RoundRect,0.250000X-0.450000X0.262500X-0.450000X-0.262500X0.450000X-0.262500X0.450000X0.262500X0*%
%ADD16RoundRect,0.250000X0.250000X0.475000X-0.250000X0.475000X-0.250000X-0.475000X0.250000X-0.475000X0*%
%ADD17RoundRect,0.150000X-0.825000X-0.150000X0.825000X-0.150000X0.825000X0.150000X-0.825000X0.150000X0*%
G04 APERTURE END LIST*
D10*
G04 #@! TO.C,C1*
X13050000Y-16000000D03*
X14950000Y-16000000D03*
G04 #@! TD*
D11*
G04 #@! TO.C,J1*
X10545000Y-21750000D03*
X10545000Y-22550000D03*
D12*
X10545000Y-23750000D03*
X10545000Y-24750000D03*
X10545000Y-25250000D03*
X10545000Y-26250000D03*
D11*
X10545000Y-27450000D03*
X10545000Y-28250000D03*
X10545000Y-28250000D03*
X10545000Y-27450000D03*
D12*
X10545000Y-26750000D03*
X10545000Y-25750000D03*
X10545000Y-24250000D03*
X10545000Y-23250000D03*
D11*
X10545000Y-22550000D03*
X10545000Y-21750000D03*
G04 #@! TD*
D13*
G04 #@! TO.C,D2*
X19062500Y-36000000D03*
X20937500Y-36000000D03*
G04 #@! TD*
D14*
G04 #@! TO.C,R2*
X13087500Y-26750000D03*
X14912500Y-26750000D03*
G04 #@! TD*
G04 #@! TO.C,R4*
X23087500Y-36000000D03*
X24912500Y-36000000D03*
G04 #@! TD*
D15*
G04 #@! TO.C,R7*
X34525000Y-19887500D03*
X34525000Y-21712500D03*
G04 #@! TD*
D16*
G04 #@! TO.C,C2*
X16950000Y-13000000D03*
X15050000Y-13000000D03*
G04 #@! TD*
D13*
G04 #@! TO.C,D3*
X30062500Y-36000000D03*
X31937500Y-36000000D03*
G04 #@! TD*
D10*
G04 #@! TO.C,C3*
X27050000Y-22000000D03*
X28950000Y-22000000D03*
G04 #@! TD*
G04 #@! TO.C,C4*
X27050000Y-18000000D03*
X28950000Y-18000000D03*
G04 #@! TD*
D14*
G04 #@! TO.C,R3*
X13587500Y-36000000D03*
X15412500Y-36000000D03*
G04 #@! TD*
D10*
G04 #@! TO.C,C5*
X42550000Y-23500000D03*
X44450000Y-23500000D03*
G04 #@! TD*
D14*
G04 #@! TO.C,R8*
X34087500Y-36000000D03*
X35912500Y-36000000D03*
G04 #@! TD*
G04 #@! TO.C,R5*
X21087500Y-9000000D03*
X22912500Y-9000000D03*
G04 #@! TD*
G04 #@! TO.C,R1*
X13087500Y-23750000D03*
X14912500Y-23750000D03*
G04 #@! TD*
D13*
G04 #@! TO.C,D1*
X9562500Y-36000000D03*
X11437500Y-36000000D03*
G04 #@! TD*
D17*
G04 #@! TO.C,U1*
X19525000Y-18095000D03*
X19525000Y-19365000D03*
X19525000Y-20635000D03*
X19525000Y-21905000D03*
X24475000Y-21905000D03*
X24475000Y-20635000D03*
X24475000Y-19365000D03*
X24475000Y-18095000D03*
G04 #@! TD*
G04 #@! TO.C,U2*
X34525000Y-24095000D03*
X34525000Y-25365000D03*
X34525000Y-26635000D03*
X34525000Y-27905000D03*
X39475000Y-27905000D03*
X39475000Y-26635000D03*
X39475000Y-25365000D03*
X39475000Y-24095000D03*
G04 #@! TD*
D14*
G04 #@! TO.C,R6*
X21087500Y-13000000D03*
X22912500Y-13000000D03*
G04 #@! TD*
M02*
