G04 #@! TF.GenerationSoftware,KiCad,Pcbnew,9.0.2+dfsg-1*
G04 #@! TF.CreationDate,2026-09-14T14:00:37+07:00*
G04 #@! TF.ProjectId,attiny85_timer,61747469-6e79-4383-955f-74696d65722e,rev?*
G04 #@! TF.SameCoordinates,Original*
G04 #@! TF.FileFunction,AssemblyDrawing,Top*
%FSLAX46Y46*%
G04 Gerber Fmt 4.6, Leading zero omitted, Abs format (unit mm)*
G04 Created by KiCad (PCBNEW 9.0.2+dfsg-1) date 2026-09-14 14:00:37*
%MOMM*%
%LPD*%
G01*
G04 APERTURE LIST*
%ADD10C,0.150000*%
%ADD11C,0.080000*%
%ADD12C,0.100000*%
G04 APERTURE END LIST*
D10*
X12928571Y-18134819D02*
X12357143Y-18134819D01*
X12642857Y-18134819D02*
X12642857Y-17134819D01*
X12642857Y-17134819D02*
X12547619Y-17277676D01*
X12547619Y-17277676D02*
X12452381Y-17372914D01*
X12452381Y-17372914D02*
X12357143Y-17420533D01*
X13547619Y-17134819D02*
X13642857Y-17134819D01*
X13642857Y-17134819D02*
X13738095Y-17182438D01*
X13738095Y-17182438D02*
X13785714Y-17230057D01*
X13785714Y-17230057D02*
X13833333Y-17325295D01*
X13833333Y-17325295D02*
X13880952Y-17515771D01*
X13880952Y-17515771D02*
X13880952Y-17753866D01*
X13880952Y-17753866D02*
X13833333Y-17944342D01*
X13833333Y-17944342D02*
X13785714Y-18039580D01*
X13785714Y-18039580D02*
X13738095Y-18087200D01*
X13738095Y-18087200D02*
X13642857Y-18134819D01*
X13642857Y-18134819D02*
X13547619Y-18134819D01*
X13547619Y-18134819D02*
X13452381Y-18087200D01*
X13452381Y-18087200D02*
X13404762Y-18039580D01*
X13404762Y-18039580D02*
X13357143Y-17944342D01*
X13357143Y-17944342D02*
X13309524Y-17753866D01*
X13309524Y-17753866D02*
X13309524Y-17515771D01*
X13309524Y-17515771D02*
X13357143Y-17325295D01*
X13357143Y-17325295D02*
X13404762Y-17230057D01*
X13404762Y-17230057D02*
X13452381Y-17182438D01*
X13452381Y-17182438D02*
X13547619Y-17134819D01*
X14738095Y-17468152D02*
X14738095Y-18134819D01*
X14309524Y-17468152D02*
X14309524Y-17991961D01*
X14309524Y-17991961D02*
X14357143Y-18087200D01*
X14357143Y-18087200D02*
X14452381Y-18134819D01*
X14452381Y-18134819D02*
X14595238Y-18134819D01*
X14595238Y-18134819D02*
X14690476Y-18087200D01*
X14690476Y-18087200D02*
X14738095Y-18039580D01*
X15547619Y-17611009D02*
X15214286Y-17611009D01*
X15214286Y-18134819D02*
X15214286Y-17134819D01*
X15214286Y-17134819D02*
X15690476Y-17134819D01*
D11*
X13916666Y-16179530D02*
X13892857Y-16203340D01*
X13892857Y-16203340D02*
X13821428Y-16227149D01*
X13821428Y-16227149D02*
X13773809Y-16227149D01*
X13773809Y-16227149D02*
X13702381Y-16203340D01*
X13702381Y-16203340D02*
X13654762Y-16155720D01*
X13654762Y-16155720D02*
X13630952Y-16108101D01*
X13630952Y-16108101D02*
X13607143Y-16012863D01*
X13607143Y-16012863D02*
X13607143Y-15941435D01*
X13607143Y-15941435D02*
X13630952Y-15846197D01*
X13630952Y-15846197D02*
X13654762Y-15798578D01*
X13654762Y-15798578D02*
X13702381Y-15750959D01*
X13702381Y-15750959D02*
X13773809Y-15727149D01*
X13773809Y-15727149D02*
X13821428Y-15727149D01*
X13821428Y-15727149D02*
X13892857Y-15750959D01*
X13892857Y-15750959D02*
X13916666Y-15774768D01*
X14392857Y-16227149D02*
X14107143Y-16227149D01*
X14250000Y-16227149D02*
X14250000Y-15727149D01*
X14250000Y-15727149D02*
X14202381Y-15798578D01*
X14202381Y-15798578D02*
X14154762Y-15846197D01*
X14154762Y-15846197D02*
X14107143Y-15870006D01*
D10*
X41214285Y-50604819D02*
X41214285Y-49604819D01*
X41214285Y-49604819D02*
X41547618Y-50319104D01*
X41547618Y-50319104D02*
X41880951Y-49604819D01*
X41880951Y-49604819D02*
X41880951Y-50604819D01*
X42499999Y-50604819D02*
X42404761Y-50557200D01*
X42404761Y-50557200D02*
X42357142Y-50509580D01*
X42357142Y-50509580D02*
X42309523Y-50414342D01*
X42309523Y-50414342D02*
X42309523Y-50128628D01*
X42309523Y-50128628D02*
X42357142Y-50033390D01*
X42357142Y-50033390D02*
X42404761Y-49985771D01*
X42404761Y-49985771D02*
X42499999Y-49938152D01*
X42499999Y-49938152D02*
X42642856Y-49938152D01*
X42642856Y-49938152D02*
X42738094Y-49985771D01*
X42738094Y-49985771D02*
X42785713Y-50033390D01*
X42785713Y-50033390D02*
X42833332Y-50128628D01*
X42833332Y-50128628D02*
X42833332Y-50414342D01*
X42833332Y-50414342D02*
X42785713Y-50509580D01*
X42785713Y-50509580D02*
X42738094Y-50557200D01*
X42738094Y-50557200D02*
X42642856Y-50604819D01*
X42642856Y-50604819D02*
X42499999Y-50604819D01*
X43690475Y-49938152D02*
X43690475Y-50604819D01*
X43261904Y-49938152D02*
X43261904Y-50461961D01*
X43261904Y-50461961D02*
X43309523Y-50557200D01*
X43309523Y-50557200D02*
X43404761Y-50604819D01*
X43404761Y-50604819D02*
X43547618Y-50604819D01*
X43547618Y-50604819D02*
X43642856Y-50557200D01*
X43642856Y-50557200D02*
X43690475Y-50509580D01*
X44166666Y-49938152D02*
X44166666Y-50604819D01*
X44166666Y-50033390D02*
X44214285Y-49985771D01*
X44214285Y-49985771D02*
X44309523Y-49938152D01*
X44309523Y-49938152D02*
X44452380Y-49938152D01*
X44452380Y-49938152D02*
X44547618Y-49985771D01*
X44547618Y-49985771D02*
X44595237Y-50081009D01*
X44595237Y-50081009D02*
X44595237Y-50604819D01*
X44928571Y-49938152D02*
X45309523Y-49938152D01*
X45071428Y-49604819D02*
X45071428Y-50461961D01*
X45071428Y-50461961D02*
X45119047Y-50557200D01*
X45119047Y-50557200D02*
X45214285Y-50604819D01*
X45214285Y-50604819D02*
X45309523Y-50604819D01*
X45642857Y-50604819D02*
X45642857Y-49938152D01*
X45642857Y-49604819D02*
X45595238Y-49652438D01*
X45595238Y-49652438D02*
X45642857Y-49700057D01*
X45642857Y-49700057D02*
X45690476Y-49652438D01*
X45690476Y-49652438D02*
X45642857Y-49604819D01*
X45642857Y-49604819D02*
X45642857Y-49700057D01*
X46119047Y-49938152D02*
X46119047Y-50604819D01*
X46119047Y-50033390D02*
X46166666Y-49985771D01*
X46166666Y-49985771D02*
X46261904Y-49938152D01*
X46261904Y-49938152D02*
X46404761Y-49938152D01*
X46404761Y-49938152D02*
X46499999Y-49985771D01*
X46499999Y-49985771D02*
X46547618Y-50081009D01*
X46547618Y-50081009D02*
X46547618Y-50604819D01*
X47452380Y-49938152D02*
X47452380Y-50747676D01*
X47452380Y-50747676D02*
X47404761Y-50842914D01*
X47404761Y-50842914D02*
X47357142Y-50890533D01*
X47357142Y-50890533D02*
X47261904Y-50938152D01*
X47261904Y-50938152D02*
X47119047Y-50938152D01*
X47119047Y-50938152D02*
X47023809Y-50890533D01*
X47452380Y-50557200D02*
X47357142Y-50604819D01*
X47357142Y-50604819D02*
X47166666Y-50604819D01*
X47166666Y-50604819D02*
X47071428Y-50557200D01*
X47071428Y-50557200D02*
X47023809Y-50509580D01*
X47023809Y-50509580D02*
X46976190Y-50414342D01*
X46976190Y-50414342D02*
X46976190Y-50128628D01*
X46976190Y-50128628D02*
X47023809Y-50033390D01*
X47023809Y-50033390D02*
X47071428Y-49985771D01*
X47071428Y-49985771D02*
X47166666Y-49938152D01*
X47166666Y-49938152D02*
X47357142Y-49938152D01*
X47357142Y-49938152D02*
X47452380Y-49985771D01*
X47928571Y-50604819D02*
X47928571Y-49604819D01*
X47928571Y-50081009D02*
X48499999Y-50081009D01*
X48499999Y-50604819D02*
X48499999Y-49604819D01*
X49119047Y-50604819D02*
X49023809Y-50557200D01*
X49023809Y-50557200D02*
X48976190Y-50509580D01*
X48976190Y-50509580D02*
X48928571Y-50414342D01*
X48928571Y-50414342D02*
X48928571Y-50128628D01*
X48928571Y-50128628D02*
X48976190Y-50033390D01*
X48976190Y-50033390D02*
X49023809Y-49985771D01*
X49023809Y-49985771D02*
X49119047Y-49938152D01*
X49119047Y-49938152D02*
X49261904Y-49938152D01*
X49261904Y-49938152D02*
X49357142Y-49985771D01*
X49357142Y-49985771D02*
X49404761Y-50033390D01*
X49404761Y-50033390D02*
X49452380Y-50128628D01*
X49452380Y-50128628D02*
X49452380Y-50414342D01*
X49452380Y-50414342D02*
X49404761Y-50509580D01*
X49404761Y-50509580D02*
X49357142Y-50557200D01*
X49357142Y-50557200D02*
X49261904Y-50604819D01*
X49261904Y-50604819D02*
X49119047Y-50604819D01*
X50023809Y-50604819D02*
X49928571Y-50557200D01*
X49928571Y-50557200D02*
X49880952Y-50461961D01*
X49880952Y-50461961D02*
X49880952Y-49604819D01*
X50785714Y-50557200D02*
X50690476Y-50604819D01*
X50690476Y-50604819D02*
X50500000Y-50604819D01*
X50500000Y-50604819D02*
X50404762Y-50557200D01*
X50404762Y-50557200D02*
X50357143Y-50461961D01*
X50357143Y-50461961D02*
X50357143Y-50081009D01*
X50357143Y-50081009D02*
X50404762Y-49985771D01*
X50404762Y-49985771D02*
X50500000Y-49938152D01*
X50500000Y-49938152D02*
X50690476Y-49938152D01*
X50690476Y-49938152D02*
X50785714Y-49985771D01*
X50785714Y-49985771D02*
X50833333Y-50081009D01*
X50833333Y-50081009D02*
X50833333Y-50176247D01*
X50833333Y-50176247D02*
X50357143Y-50271485D01*
X45238095Y-46454819D02*
X45238095Y-45454819D01*
X45238095Y-45931009D02*
X45809523Y-45931009D01*
X45809523Y-46454819D02*
X45809523Y-45454819D01*
X46190476Y-45454819D02*
X46809523Y-45454819D01*
X46809523Y-45454819D02*
X46476190Y-45835771D01*
X46476190Y-45835771D02*
X46619047Y-45835771D01*
X46619047Y-45835771D02*
X46714285Y-45883390D01*
X46714285Y-45883390D02*
X46761904Y-45931009D01*
X46761904Y-45931009D02*
X46809523Y-46026247D01*
X46809523Y-46026247D02*
X46809523Y-46264342D01*
X46809523Y-46264342D02*
X46761904Y-46359580D01*
X46761904Y-46359580D02*
X46714285Y-46407200D01*
X46714285Y-46407200D02*
X46619047Y-46454819D01*
X46619047Y-46454819D02*
X46333333Y-46454819D01*
X46333333Y-46454819D02*
X46238095Y-46407200D01*
X46238095Y-46407200D02*
X46190476Y-46359580D01*
X-1345180Y-27380951D02*
X-535657Y-27380951D01*
X-535657Y-27380951D02*
X-440419Y-27333332D01*
X-440419Y-27333332D02*
X-392800Y-27285713D01*
X-392800Y-27285713D02*
X-345180Y-27190475D01*
X-345180Y-27190475D02*
X-345180Y-26999999D01*
X-345180Y-26999999D02*
X-392800Y-26904761D01*
X-392800Y-26904761D02*
X-440419Y-26857142D01*
X-440419Y-26857142D02*
X-535657Y-26809523D01*
X-535657Y-26809523D02*
X-1345180Y-26809523D01*
X-392800Y-26380951D02*
X-345180Y-26238094D01*
X-345180Y-26238094D02*
X-345180Y-25999999D01*
X-345180Y-25999999D02*
X-392800Y-25904761D01*
X-392800Y-25904761D02*
X-440419Y-25857142D01*
X-440419Y-25857142D02*
X-535657Y-25809523D01*
X-535657Y-25809523D02*
X-630895Y-25809523D01*
X-630895Y-25809523D02*
X-726133Y-25857142D01*
X-726133Y-25857142D02*
X-773752Y-25904761D01*
X-773752Y-25904761D02*
X-821371Y-25999999D01*
X-821371Y-25999999D02*
X-868990Y-26190475D01*
X-868990Y-26190475D02*
X-916609Y-26285713D01*
X-916609Y-26285713D02*
X-964228Y-26333332D01*
X-964228Y-26333332D02*
X-1059466Y-26380951D01*
X-1059466Y-26380951D02*
X-1154704Y-26380951D01*
X-1154704Y-26380951D02*
X-1249942Y-26333332D01*
X-1249942Y-26333332D02*
X-1297561Y-26285713D01*
X-1297561Y-26285713D02*
X-1345180Y-26190475D01*
X-1345180Y-26190475D02*
X-1345180Y-25952380D01*
X-1345180Y-25952380D02*
X-1297561Y-25809523D01*
X-868990Y-25047618D02*
X-821371Y-24904761D01*
X-821371Y-24904761D02*
X-773752Y-24857142D01*
X-773752Y-24857142D02*
X-678514Y-24809523D01*
X-678514Y-24809523D02*
X-535657Y-24809523D01*
X-535657Y-24809523D02*
X-440419Y-24857142D01*
X-440419Y-24857142D02*
X-392800Y-24904761D01*
X-392800Y-24904761D02*
X-345180Y-24999999D01*
X-345180Y-24999999D02*
X-345180Y-25380951D01*
X-345180Y-25380951D02*
X-1345180Y-25380951D01*
X-1345180Y-25380951D02*
X-1345180Y-25047618D01*
X-1345180Y-25047618D02*
X-1297561Y-24952380D01*
X-1297561Y-24952380D02*
X-1249942Y-24904761D01*
X-1249942Y-24904761D02*
X-1154704Y-24857142D01*
X-1154704Y-24857142D02*
X-1059466Y-24857142D01*
X-1059466Y-24857142D02*
X-964228Y-24904761D01*
X-964228Y-24904761D02*
X-916609Y-24952380D01*
X-916609Y-24952380D02*
X-868990Y-25047618D01*
X-868990Y-25047618D02*
X-868990Y-25380951D01*
X-726133Y-24380951D02*
X-726133Y-23619047D01*
X-440419Y-22571428D02*
X-392800Y-22619047D01*
X-392800Y-22619047D02*
X-345180Y-22761904D01*
X-345180Y-22761904D02*
X-345180Y-22857142D01*
X-345180Y-22857142D02*
X-392800Y-22999999D01*
X-392800Y-22999999D02*
X-488038Y-23095237D01*
X-488038Y-23095237D02*
X-583276Y-23142856D01*
X-583276Y-23142856D02*
X-773752Y-23190475D01*
X-773752Y-23190475D02*
X-916609Y-23190475D01*
X-916609Y-23190475D02*
X-1107085Y-23142856D01*
X-1107085Y-23142856D02*
X-1202323Y-23095237D01*
X-1202323Y-23095237D02*
X-1297561Y-22999999D01*
X-1297561Y-22999999D02*
X-1345180Y-22857142D01*
X-1345180Y-22857142D02*
X-1345180Y-22761904D01*
X-1345180Y-22761904D02*
X-1297561Y-22619047D01*
X-1297561Y-22619047D02*
X-1249942Y-22571428D01*
X3754819Y-25333333D02*
X4469104Y-25333333D01*
X4469104Y-25333333D02*
X4611961Y-25380952D01*
X4611961Y-25380952D02*
X4707200Y-25476190D01*
X4707200Y-25476190D02*
X4754819Y-25619047D01*
X4754819Y-25619047D02*
X4754819Y-25714285D01*
X4754819Y-24333333D02*
X4754819Y-24904761D01*
X4754819Y-24619047D02*
X3754819Y-24619047D01*
X3754819Y-24619047D02*
X3897676Y-24714285D01*
X3897676Y-24714285D02*
X3992914Y-24809523D01*
X3992914Y-24809523D02*
X4040533Y-24904761D01*
X14666665Y-37628628D02*
X14666665Y-38104819D01*
X14333332Y-37104819D02*
X14666665Y-37628628D01*
X14666665Y-37628628D02*
X14999998Y-37104819D01*
X15714284Y-38057200D02*
X15619046Y-38104819D01*
X15619046Y-38104819D02*
X15428570Y-38104819D01*
X15428570Y-38104819D02*
X15333332Y-38057200D01*
X15333332Y-38057200D02*
X15285713Y-37961961D01*
X15285713Y-37961961D02*
X15285713Y-37581009D01*
X15285713Y-37581009D02*
X15333332Y-37485771D01*
X15333332Y-37485771D02*
X15428570Y-37438152D01*
X15428570Y-37438152D02*
X15619046Y-37438152D01*
X15619046Y-37438152D02*
X15714284Y-37485771D01*
X15714284Y-37485771D02*
X15761903Y-37581009D01*
X15761903Y-37581009D02*
X15761903Y-37676247D01*
X15761903Y-37676247D02*
X15285713Y-37771485D01*
X16333332Y-38104819D02*
X16238094Y-38057200D01*
X16238094Y-38057200D02*
X16190475Y-37961961D01*
X16190475Y-37961961D02*
X16190475Y-37104819D01*
X16857142Y-38104819D02*
X16761904Y-38057200D01*
X16761904Y-38057200D02*
X16714285Y-37961961D01*
X16714285Y-37961961D02*
X16714285Y-37104819D01*
X17380952Y-38104819D02*
X17285714Y-38057200D01*
X17285714Y-38057200D02*
X17238095Y-38009580D01*
X17238095Y-38009580D02*
X17190476Y-37914342D01*
X17190476Y-37914342D02*
X17190476Y-37628628D01*
X17190476Y-37628628D02*
X17238095Y-37533390D01*
X17238095Y-37533390D02*
X17285714Y-37485771D01*
X17285714Y-37485771D02*
X17380952Y-37438152D01*
X17380952Y-37438152D02*
X17523809Y-37438152D01*
X17523809Y-37438152D02*
X17619047Y-37485771D01*
X17619047Y-37485771D02*
X17666666Y-37533390D01*
X17666666Y-37533390D02*
X17714285Y-37628628D01*
X17714285Y-37628628D02*
X17714285Y-37914342D01*
X17714285Y-37914342D02*
X17666666Y-38009580D01*
X17666666Y-38009580D02*
X17619047Y-38057200D01*
X17619047Y-38057200D02*
X17523809Y-38104819D01*
X17523809Y-38104819D02*
X17380952Y-38104819D01*
X18047619Y-37438152D02*
X18238095Y-38104819D01*
X18238095Y-38104819D02*
X18428571Y-37628628D01*
X18428571Y-37628628D02*
X18619047Y-38104819D01*
X18619047Y-38104819D02*
X18809523Y-37438152D01*
X20238095Y-38485771D02*
X20190476Y-38438152D01*
X20190476Y-38438152D02*
X20095238Y-38295295D01*
X20095238Y-38295295D02*
X20047619Y-38200057D01*
X20047619Y-38200057D02*
X20000000Y-38057200D01*
X20000000Y-38057200D02*
X19952381Y-37819104D01*
X19952381Y-37819104D02*
X19952381Y-37628628D01*
X19952381Y-37628628D02*
X20000000Y-37390533D01*
X20000000Y-37390533D02*
X20047619Y-37247676D01*
X20047619Y-37247676D02*
X20095238Y-37152438D01*
X20095238Y-37152438D02*
X20190476Y-37009580D01*
X20190476Y-37009580D02*
X20238095Y-36961961D01*
X20619048Y-38104819D02*
X20619048Y-37104819D01*
X20619048Y-37104819D02*
X21000000Y-37104819D01*
X21000000Y-37104819D02*
X21095238Y-37152438D01*
X21095238Y-37152438D02*
X21142857Y-37200057D01*
X21142857Y-37200057D02*
X21190476Y-37295295D01*
X21190476Y-37295295D02*
X21190476Y-37438152D01*
X21190476Y-37438152D02*
X21142857Y-37533390D01*
X21142857Y-37533390D02*
X21095238Y-37581009D01*
X21095238Y-37581009D02*
X21000000Y-37628628D01*
X21000000Y-37628628D02*
X20619048Y-37628628D01*
X21619048Y-37104819D02*
X21619048Y-37914342D01*
X21619048Y-37914342D02*
X21666667Y-38009580D01*
X21666667Y-38009580D02*
X21714286Y-38057200D01*
X21714286Y-38057200D02*
X21809524Y-38104819D01*
X21809524Y-38104819D02*
X22000000Y-38104819D01*
X22000000Y-38104819D02*
X22095238Y-38057200D01*
X22095238Y-38057200D02*
X22142857Y-38009580D01*
X22142857Y-38009580D02*
X22190476Y-37914342D01*
X22190476Y-37914342D02*
X22190476Y-37104819D01*
X23142857Y-38104819D02*
X22666667Y-38104819D01*
X22666667Y-38104819D02*
X22666667Y-37104819D01*
X23428572Y-38057200D02*
X23571429Y-38104819D01*
X23571429Y-38104819D02*
X23809524Y-38104819D01*
X23809524Y-38104819D02*
X23904762Y-38057200D01*
X23904762Y-38057200D02*
X23952381Y-38009580D01*
X23952381Y-38009580D02*
X24000000Y-37914342D01*
X24000000Y-37914342D02*
X24000000Y-37819104D01*
X24000000Y-37819104D02*
X23952381Y-37723866D01*
X23952381Y-37723866D02*
X23904762Y-37676247D01*
X23904762Y-37676247D02*
X23809524Y-37628628D01*
X23809524Y-37628628D02*
X23619048Y-37581009D01*
X23619048Y-37581009D02*
X23523810Y-37533390D01*
X23523810Y-37533390D02*
X23476191Y-37485771D01*
X23476191Y-37485771D02*
X23428572Y-37390533D01*
X23428572Y-37390533D02*
X23428572Y-37295295D01*
X23428572Y-37295295D02*
X23476191Y-37200057D01*
X23476191Y-37200057D02*
X23523810Y-37152438D01*
X23523810Y-37152438D02*
X23619048Y-37104819D01*
X23619048Y-37104819D02*
X23857143Y-37104819D01*
X23857143Y-37104819D02*
X24000000Y-37152438D01*
X24428572Y-37581009D02*
X24761905Y-37581009D01*
X24904762Y-38104819D02*
X24428572Y-38104819D01*
X24428572Y-38104819D02*
X24428572Y-37104819D01*
X24428572Y-37104819D02*
X24904762Y-37104819D01*
X25238096Y-38485771D02*
X25285715Y-38438152D01*
X25285715Y-38438152D02*
X25380953Y-38295295D01*
X25380953Y-38295295D02*
X25428572Y-38200057D01*
X25428572Y-38200057D02*
X25476191Y-38057200D01*
X25476191Y-38057200D02*
X25523810Y-37819104D01*
X25523810Y-37819104D02*
X25523810Y-37628628D01*
X25523810Y-37628628D02*
X25476191Y-37390533D01*
X25476191Y-37390533D02*
X25428572Y-37247676D01*
X25428572Y-37247676D02*
X25380953Y-37152438D01*
X25380953Y-37152438D02*
X25285715Y-37009580D01*
X25285715Y-37009580D02*
X25238096Y-36961961D01*
D11*
X19630952Y-36227149D02*
X19630952Y-35727149D01*
X19630952Y-35727149D02*
X19750000Y-35727149D01*
X19750000Y-35727149D02*
X19821428Y-35750959D01*
X19821428Y-35750959D02*
X19869047Y-35798578D01*
X19869047Y-35798578D02*
X19892857Y-35846197D01*
X19892857Y-35846197D02*
X19916666Y-35941435D01*
X19916666Y-35941435D02*
X19916666Y-36012863D01*
X19916666Y-36012863D02*
X19892857Y-36108101D01*
X19892857Y-36108101D02*
X19869047Y-36155720D01*
X19869047Y-36155720D02*
X19821428Y-36203340D01*
X19821428Y-36203340D02*
X19750000Y-36227149D01*
X19750000Y-36227149D02*
X19630952Y-36227149D01*
X20107143Y-35774768D02*
X20130952Y-35750959D01*
X20130952Y-35750959D02*
X20178571Y-35727149D01*
X20178571Y-35727149D02*
X20297619Y-35727149D01*
X20297619Y-35727149D02*
X20345238Y-35750959D01*
X20345238Y-35750959D02*
X20369047Y-35774768D01*
X20369047Y-35774768D02*
X20392857Y-35822387D01*
X20392857Y-35822387D02*
X20392857Y-35870006D01*
X20392857Y-35870006D02*
X20369047Y-35941435D01*
X20369047Y-35941435D02*
X20083333Y-36227149D01*
X20083333Y-36227149D02*
X20392857Y-36227149D01*
D10*
X34169104Y-47047618D02*
X34169104Y-46571428D01*
X34454819Y-47142856D02*
X33454819Y-46809523D01*
X33454819Y-46809523D02*
X34454819Y-46476190D01*
X33454819Y-46142856D02*
X34264342Y-46142856D01*
X34264342Y-46142856D02*
X34359580Y-46095237D01*
X34359580Y-46095237D02*
X34407200Y-46047618D01*
X34407200Y-46047618D02*
X34454819Y-45952380D01*
X34454819Y-45952380D02*
X34454819Y-45761904D01*
X34454819Y-45761904D02*
X34407200Y-45666666D01*
X34407200Y-45666666D02*
X34359580Y-45619047D01*
X34359580Y-45619047D02*
X34264342Y-45571428D01*
X34264342Y-45571428D02*
X33454819Y-45571428D01*
X33454819Y-45190475D02*
X34454819Y-44523809D01*
X33454819Y-44523809D02*
X34454819Y-45190475D01*
X34550057Y-44380952D02*
X34550057Y-43619047D01*
X33454819Y-43190475D02*
X33454819Y-42999999D01*
X33454819Y-42999999D02*
X33502438Y-42904761D01*
X33502438Y-42904761D02*
X33597676Y-42809523D01*
X33597676Y-42809523D02*
X33788152Y-42761904D01*
X33788152Y-42761904D02*
X34121485Y-42761904D01*
X34121485Y-42761904D02*
X34311961Y-42809523D01*
X34311961Y-42809523D02*
X34407200Y-42904761D01*
X34407200Y-42904761D02*
X34454819Y-42999999D01*
X34454819Y-42999999D02*
X34454819Y-43190475D01*
X34454819Y-43190475D02*
X34407200Y-43285713D01*
X34407200Y-43285713D02*
X34311961Y-43380951D01*
X34311961Y-43380951D02*
X34121485Y-43428570D01*
X34121485Y-43428570D02*
X33788152Y-43428570D01*
X33788152Y-43428570D02*
X33597676Y-43380951D01*
X33597676Y-43380951D02*
X33502438Y-43285713D01*
X33502438Y-43285713D02*
X33454819Y-43190475D01*
X33454819Y-42333332D02*
X34264342Y-42333332D01*
X34264342Y-42333332D02*
X34359580Y-42285713D01*
X34359580Y-42285713D02*
X34407200Y-42238094D01*
X34407200Y-42238094D02*
X34454819Y-42142856D01*
X34454819Y-42142856D02*
X34454819Y-41952380D01*
X34454819Y-41952380D02*
X34407200Y-41857142D01*
X34407200Y-41857142D02*
X34359580Y-41809523D01*
X34359580Y-41809523D02*
X34264342Y-41761904D01*
X34264342Y-41761904D02*
X33454819Y-41761904D01*
X33454819Y-41428570D02*
X33454819Y-40857142D01*
X34454819Y-41142856D02*
X33454819Y-41142856D01*
X27476666Y-43454819D02*
X27476666Y-44169104D01*
X27476666Y-44169104D02*
X27429047Y-44311961D01*
X27429047Y-44311961D02*
X27333809Y-44407200D01*
X27333809Y-44407200D02*
X27190952Y-44454819D01*
X27190952Y-44454819D02*
X27095714Y-44454819D01*
X27857619Y-43454819D02*
X28476666Y-43454819D01*
X28476666Y-43454819D02*
X28143333Y-43835771D01*
X28143333Y-43835771D02*
X28286190Y-43835771D01*
X28286190Y-43835771D02*
X28381428Y-43883390D01*
X28381428Y-43883390D02*
X28429047Y-43931009D01*
X28429047Y-43931009D02*
X28476666Y-44026247D01*
X28476666Y-44026247D02*
X28476666Y-44264342D01*
X28476666Y-44264342D02*
X28429047Y-44359580D01*
X28429047Y-44359580D02*
X28381428Y-44407200D01*
X28381428Y-44407200D02*
X28286190Y-44454819D01*
X28286190Y-44454819D02*
X28000476Y-44454819D01*
X28000476Y-44454819D02*
X27905238Y-44407200D01*
X27905238Y-44407200D02*
X27857619Y-44359580D01*
X41214285Y-8604819D02*
X41214285Y-7604819D01*
X41214285Y-7604819D02*
X41547618Y-8319104D01*
X41547618Y-8319104D02*
X41880951Y-7604819D01*
X41880951Y-7604819D02*
X41880951Y-8604819D01*
X42499999Y-8604819D02*
X42404761Y-8557200D01*
X42404761Y-8557200D02*
X42357142Y-8509580D01*
X42357142Y-8509580D02*
X42309523Y-8414342D01*
X42309523Y-8414342D02*
X42309523Y-8128628D01*
X42309523Y-8128628D02*
X42357142Y-8033390D01*
X42357142Y-8033390D02*
X42404761Y-7985771D01*
X42404761Y-7985771D02*
X42499999Y-7938152D01*
X42499999Y-7938152D02*
X42642856Y-7938152D01*
X42642856Y-7938152D02*
X42738094Y-7985771D01*
X42738094Y-7985771D02*
X42785713Y-8033390D01*
X42785713Y-8033390D02*
X42833332Y-8128628D01*
X42833332Y-8128628D02*
X42833332Y-8414342D01*
X42833332Y-8414342D02*
X42785713Y-8509580D01*
X42785713Y-8509580D02*
X42738094Y-8557200D01*
X42738094Y-8557200D02*
X42642856Y-8604819D01*
X42642856Y-8604819D02*
X42499999Y-8604819D01*
X43690475Y-7938152D02*
X43690475Y-8604819D01*
X43261904Y-7938152D02*
X43261904Y-8461961D01*
X43261904Y-8461961D02*
X43309523Y-8557200D01*
X43309523Y-8557200D02*
X43404761Y-8604819D01*
X43404761Y-8604819D02*
X43547618Y-8604819D01*
X43547618Y-8604819D02*
X43642856Y-8557200D01*
X43642856Y-8557200D02*
X43690475Y-8509580D01*
X44166666Y-7938152D02*
X44166666Y-8604819D01*
X44166666Y-8033390D02*
X44214285Y-7985771D01*
X44214285Y-7985771D02*
X44309523Y-7938152D01*
X44309523Y-7938152D02*
X44452380Y-7938152D01*
X44452380Y-7938152D02*
X44547618Y-7985771D01*
X44547618Y-7985771D02*
X44595237Y-8081009D01*
X44595237Y-8081009D02*
X44595237Y-8604819D01*
X44928571Y-7938152D02*
X45309523Y-7938152D01*
X45071428Y-7604819D02*
X45071428Y-8461961D01*
X45071428Y-8461961D02*
X45119047Y-8557200D01*
X45119047Y-8557200D02*
X45214285Y-8604819D01*
X45214285Y-8604819D02*
X45309523Y-8604819D01*
X45642857Y-8604819D02*
X45642857Y-7938152D01*
X45642857Y-7604819D02*
X45595238Y-7652438D01*
X45595238Y-7652438D02*
X45642857Y-7700057D01*
X45642857Y-7700057D02*
X45690476Y-7652438D01*
X45690476Y-7652438D02*
X45642857Y-7604819D01*
X45642857Y-7604819D02*
X45642857Y-7700057D01*
X46119047Y-7938152D02*
X46119047Y-8604819D01*
X46119047Y-8033390D02*
X46166666Y-7985771D01*
X46166666Y-7985771D02*
X46261904Y-7938152D01*
X46261904Y-7938152D02*
X46404761Y-7938152D01*
X46404761Y-7938152D02*
X46499999Y-7985771D01*
X46499999Y-7985771D02*
X46547618Y-8081009D01*
X46547618Y-8081009D02*
X46547618Y-8604819D01*
X47452380Y-7938152D02*
X47452380Y-8747676D01*
X47452380Y-8747676D02*
X47404761Y-8842914D01*
X47404761Y-8842914D02*
X47357142Y-8890533D01*
X47357142Y-8890533D02*
X47261904Y-8938152D01*
X47261904Y-8938152D02*
X47119047Y-8938152D01*
X47119047Y-8938152D02*
X47023809Y-8890533D01*
X47452380Y-8557200D02*
X47357142Y-8604819D01*
X47357142Y-8604819D02*
X47166666Y-8604819D01*
X47166666Y-8604819D02*
X47071428Y-8557200D01*
X47071428Y-8557200D02*
X47023809Y-8509580D01*
X47023809Y-8509580D02*
X46976190Y-8414342D01*
X46976190Y-8414342D02*
X46976190Y-8128628D01*
X46976190Y-8128628D02*
X47023809Y-8033390D01*
X47023809Y-8033390D02*
X47071428Y-7985771D01*
X47071428Y-7985771D02*
X47166666Y-7938152D01*
X47166666Y-7938152D02*
X47357142Y-7938152D01*
X47357142Y-7938152D02*
X47452380Y-7985771D01*
X47928571Y-8604819D02*
X47928571Y-7604819D01*
X47928571Y-8081009D02*
X48499999Y-8081009D01*
X48499999Y-8604819D02*
X48499999Y-7604819D01*
X49119047Y-8604819D02*
X49023809Y-8557200D01*
X49023809Y-8557200D02*
X48976190Y-8509580D01*
X48976190Y-8509580D02*
X48928571Y-8414342D01*
X48928571Y-8414342D02*
X48928571Y-8128628D01*
X48928571Y-8128628D02*
X48976190Y-8033390D01*
X48976190Y-8033390D02*
X49023809Y-7985771D01*
X49023809Y-7985771D02*
X49119047Y-7938152D01*
X49119047Y-7938152D02*
X49261904Y-7938152D01*
X49261904Y-7938152D02*
X49357142Y-7985771D01*
X49357142Y-7985771D02*
X49404761Y-8033390D01*
X49404761Y-8033390D02*
X49452380Y-8128628D01*
X49452380Y-8128628D02*
X49452380Y-8414342D01*
X49452380Y-8414342D02*
X49404761Y-8509580D01*
X49404761Y-8509580D02*
X49357142Y-8557200D01*
X49357142Y-8557200D02*
X49261904Y-8604819D01*
X49261904Y-8604819D02*
X49119047Y-8604819D01*
X50023809Y-8604819D02*
X49928571Y-8557200D01*
X49928571Y-8557200D02*
X49880952Y-8461961D01*
X49880952Y-8461961D02*
X49880952Y-7604819D01*
X50785714Y-8557200D02*
X50690476Y-8604819D01*
X50690476Y-8604819D02*
X50500000Y-8604819D01*
X50500000Y-8604819D02*
X50404762Y-8557200D01*
X50404762Y-8557200D02*
X50357143Y-8461961D01*
X50357143Y-8461961D02*
X50357143Y-8081009D01*
X50357143Y-8081009D02*
X50404762Y-7985771D01*
X50404762Y-7985771D02*
X50500000Y-7938152D01*
X50500000Y-7938152D02*
X50690476Y-7938152D01*
X50690476Y-7938152D02*
X50785714Y-7985771D01*
X50785714Y-7985771D02*
X50833333Y-8081009D01*
X50833333Y-8081009D02*
X50833333Y-8176247D01*
X50833333Y-8176247D02*
X50357143Y-8271485D01*
X45238095Y-4454819D02*
X45238095Y-3454819D01*
X45238095Y-3931009D02*
X45809523Y-3931009D01*
X45809523Y-4454819D02*
X45809523Y-3454819D01*
X46238095Y-3550057D02*
X46285714Y-3502438D01*
X46285714Y-3502438D02*
X46380952Y-3454819D01*
X46380952Y-3454819D02*
X46619047Y-3454819D01*
X46619047Y-3454819D02*
X46714285Y-3502438D01*
X46714285Y-3502438D02*
X46761904Y-3550057D01*
X46761904Y-3550057D02*
X46809523Y-3645295D01*
X46809523Y-3645295D02*
X46809523Y-3740533D01*
X46809523Y-3740533D02*
X46761904Y-3883390D01*
X46761904Y-3883390D02*
X46190476Y-4454819D01*
X46190476Y-4454819D02*
X46809523Y-4454819D01*
X-785714Y-50604819D02*
X-785714Y-49604819D01*
X-785714Y-49604819D02*
X-452381Y-50319104D01*
X-452381Y-50319104D02*
X-119048Y-49604819D01*
X-119048Y-49604819D02*
X-119048Y-50604819D01*
X499999Y-50604819D02*
X404761Y-50557200D01*
X404761Y-50557200D02*
X357142Y-50509580D01*
X357142Y-50509580D02*
X309523Y-50414342D01*
X309523Y-50414342D02*
X309523Y-50128628D01*
X309523Y-50128628D02*
X357142Y-50033390D01*
X357142Y-50033390D02*
X404761Y-49985771D01*
X404761Y-49985771D02*
X499999Y-49938152D01*
X499999Y-49938152D02*
X642856Y-49938152D01*
X642856Y-49938152D02*
X738094Y-49985771D01*
X738094Y-49985771D02*
X785713Y-50033390D01*
X785713Y-50033390D02*
X833332Y-50128628D01*
X833332Y-50128628D02*
X833332Y-50414342D01*
X833332Y-50414342D02*
X785713Y-50509580D01*
X785713Y-50509580D02*
X738094Y-50557200D01*
X738094Y-50557200D02*
X642856Y-50604819D01*
X642856Y-50604819D02*
X499999Y-50604819D01*
X1690475Y-49938152D02*
X1690475Y-50604819D01*
X1261904Y-49938152D02*
X1261904Y-50461961D01*
X1261904Y-50461961D02*
X1309523Y-50557200D01*
X1309523Y-50557200D02*
X1404761Y-50604819D01*
X1404761Y-50604819D02*
X1547618Y-50604819D01*
X1547618Y-50604819D02*
X1642856Y-50557200D01*
X1642856Y-50557200D02*
X1690475Y-50509580D01*
X2166666Y-49938152D02*
X2166666Y-50604819D01*
X2166666Y-50033390D02*
X2214285Y-49985771D01*
X2214285Y-49985771D02*
X2309523Y-49938152D01*
X2309523Y-49938152D02*
X2452380Y-49938152D01*
X2452380Y-49938152D02*
X2547618Y-49985771D01*
X2547618Y-49985771D02*
X2595237Y-50081009D01*
X2595237Y-50081009D02*
X2595237Y-50604819D01*
X2928571Y-49938152D02*
X3309523Y-49938152D01*
X3071428Y-49604819D02*
X3071428Y-50461961D01*
X3071428Y-50461961D02*
X3119047Y-50557200D01*
X3119047Y-50557200D02*
X3214285Y-50604819D01*
X3214285Y-50604819D02*
X3309523Y-50604819D01*
X3642857Y-50604819D02*
X3642857Y-49938152D01*
X3642857Y-49604819D02*
X3595238Y-49652438D01*
X3595238Y-49652438D02*
X3642857Y-49700057D01*
X3642857Y-49700057D02*
X3690476Y-49652438D01*
X3690476Y-49652438D02*
X3642857Y-49604819D01*
X3642857Y-49604819D02*
X3642857Y-49700057D01*
X4119047Y-49938152D02*
X4119047Y-50604819D01*
X4119047Y-50033390D02*
X4166666Y-49985771D01*
X4166666Y-49985771D02*
X4261904Y-49938152D01*
X4261904Y-49938152D02*
X4404761Y-49938152D01*
X4404761Y-49938152D02*
X4499999Y-49985771D01*
X4499999Y-49985771D02*
X4547618Y-50081009D01*
X4547618Y-50081009D02*
X4547618Y-50604819D01*
X5452380Y-49938152D02*
X5452380Y-50747676D01*
X5452380Y-50747676D02*
X5404761Y-50842914D01*
X5404761Y-50842914D02*
X5357142Y-50890533D01*
X5357142Y-50890533D02*
X5261904Y-50938152D01*
X5261904Y-50938152D02*
X5119047Y-50938152D01*
X5119047Y-50938152D02*
X5023809Y-50890533D01*
X5452380Y-50557200D02*
X5357142Y-50604819D01*
X5357142Y-50604819D02*
X5166666Y-50604819D01*
X5166666Y-50604819D02*
X5071428Y-50557200D01*
X5071428Y-50557200D02*
X5023809Y-50509580D01*
X5023809Y-50509580D02*
X4976190Y-50414342D01*
X4976190Y-50414342D02*
X4976190Y-50128628D01*
X4976190Y-50128628D02*
X5023809Y-50033390D01*
X5023809Y-50033390D02*
X5071428Y-49985771D01*
X5071428Y-49985771D02*
X5166666Y-49938152D01*
X5166666Y-49938152D02*
X5357142Y-49938152D01*
X5357142Y-49938152D02*
X5452380Y-49985771D01*
X5928571Y-50604819D02*
X5928571Y-49604819D01*
X5928571Y-50081009D02*
X6499999Y-50081009D01*
X6499999Y-50604819D02*
X6499999Y-49604819D01*
X7119047Y-50604819D02*
X7023809Y-50557200D01*
X7023809Y-50557200D02*
X6976190Y-50509580D01*
X6976190Y-50509580D02*
X6928571Y-50414342D01*
X6928571Y-50414342D02*
X6928571Y-50128628D01*
X6928571Y-50128628D02*
X6976190Y-50033390D01*
X6976190Y-50033390D02*
X7023809Y-49985771D01*
X7023809Y-49985771D02*
X7119047Y-49938152D01*
X7119047Y-49938152D02*
X7261904Y-49938152D01*
X7261904Y-49938152D02*
X7357142Y-49985771D01*
X7357142Y-49985771D02*
X7404761Y-50033390D01*
X7404761Y-50033390D02*
X7452380Y-50128628D01*
X7452380Y-50128628D02*
X7452380Y-50414342D01*
X7452380Y-50414342D02*
X7404761Y-50509580D01*
X7404761Y-50509580D02*
X7357142Y-50557200D01*
X7357142Y-50557200D02*
X7261904Y-50604819D01*
X7261904Y-50604819D02*
X7119047Y-50604819D01*
X8023809Y-50604819D02*
X7928571Y-50557200D01*
X7928571Y-50557200D02*
X7880952Y-50461961D01*
X7880952Y-50461961D02*
X7880952Y-49604819D01*
X8785714Y-50557200D02*
X8690476Y-50604819D01*
X8690476Y-50604819D02*
X8500000Y-50604819D01*
X8500000Y-50604819D02*
X8404762Y-50557200D01*
X8404762Y-50557200D02*
X8357143Y-50461961D01*
X8357143Y-50461961D02*
X8357143Y-50081009D01*
X8357143Y-50081009D02*
X8404762Y-49985771D01*
X8404762Y-49985771D02*
X8500000Y-49938152D01*
X8500000Y-49938152D02*
X8690476Y-49938152D01*
X8690476Y-49938152D02*
X8785714Y-49985771D01*
X8785714Y-49985771D02*
X8833333Y-50081009D01*
X8833333Y-50081009D02*
X8833333Y-50176247D01*
X8833333Y-50176247D02*
X8357143Y-50271485D01*
X3238095Y-46454819D02*
X3238095Y-45454819D01*
X3238095Y-45931009D02*
X3809523Y-45931009D01*
X3809523Y-46454819D02*
X3809523Y-45454819D01*
X4714285Y-45788152D02*
X4714285Y-46454819D01*
X4476190Y-45407200D02*
X4238095Y-46121485D01*
X4238095Y-46121485D02*
X4857142Y-46121485D01*
X13119047Y-27854819D02*
X12642857Y-27854819D01*
X12642857Y-27854819D02*
X12595238Y-28331009D01*
X12595238Y-28331009D02*
X12642857Y-28283390D01*
X12642857Y-28283390D02*
X12738095Y-28235771D01*
X12738095Y-28235771D02*
X12976190Y-28235771D01*
X12976190Y-28235771D02*
X13071428Y-28283390D01*
X13071428Y-28283390D02*
X13119047Y-28331009D01*
X13119047Y-28331009D02*
X13166666Y-28426247D01*
X13166666Y-28426247D02*
X13166666Y-28664342D01*
X13166666Y-28664342D02*
X13119047Y-28759580D01*
X13119047Y-28759580D02*
X13071428Y-28807200D01*
X13071428Y-28807200D02*
X12976190Y-28854819D01*
X12976190Y-28854819D02*
X12738095Y-28854819D01*
X12738095Y-28854819D02*
X12642857Y-28807200D01*
X12642857Y-28807200D02*
X12595238Y-28759580D01*
X13595238Y-28759580D02*
X13642857Y-28807200D01*
X13642857Y-28807200D02*
X13595238Y-28854819D01*
X13595238Y-28854819D02*
X13547619Y-28807200D01*
X13547619Y-28807200D02*
X13595238Y-28759580D01*
X13595238Y-28759580D02*
X13595238Y-28854819D01*
X14595237Y-28854819D02*
X14023809Y-28854819D01*
X14309523Y-28854819D02*
X14309523Y-27854819D01*
X14309523Y-27854819D02*
X14214285Y-27997676D01*
X14214285Y-27997676D02*
X14119047Y-28092914D01*
X14119047Y-28092914D02*
X14023809Y-28140533D01*
X15023809Y-28854819D02*
X15023809Y-27854819D01*
X15119047Y-28473866D02*
X15404761Y-28854819D01*
X15404761Y-28188152D02*
X15023809Y-28569104D01*
D11*
X13916666Y-26977149D02*
X13750000Y-26739054D01*
X13630952Y-26977149D02*
X13630952Y-26477149D01*
X13630952Y-26477149D02*
X13821428Y-26477149D01*
X13821428Y-26477149D02*
X13869047Y-26500959D01*
X13869047Y-26500959D02*
X13892857Y-26524768D01*
X13892857Y-26524768D02*
X13916666Y-26572387D01*
X13916666Y-26572387D02*
X13916666Y-26643816D01*
X13916666Y-26643816D02*
X13892857Y-26691435D01*
X13892857Y-26691435D02*
X13869047Y-26715244D01*
X13869047Y-26715244D02*
X13821428Y-26739054D01*
X13821428Y-26739054D02*
X13630952Y-26739054D01*
X14107143Y-26524768D02*
X14130952Y-26500959D01*
X14130952Y-26500959D02*
X14178571Y-26477149D01*
X14178571Y-26477149D02*
X14297619Y-26477149D01*
X14297619Y-26477149D02*
X14345238Y-26500959D01*
X14345238Y-26500959D02*
X14369047Y-26524768D01*
X14369047Y-26524768D02*
X14392857Y-26572387D01*
X14392857Y-26572387D02*
X14392857Y-26620006D01*
X14392857Y-26620006D02*
X14369047Y-26691435D01*
X14369047Y-26691435D02*
X14083333Y-26977149D01*
X14083333Y-26977149D02*
X14392857Y-26977149D01*
D10*
X23880952Y-38104819D02*
X23309524Y-38104819D01*
X23595238Y-38104819D02*
X23595238Y-37104819D01*
X23595238Y-37104819D02*
X23500000Y-37247676D01*
X23500000Y-37247676D02*
X23404762Y-37342914D01*
X23404762Y-37342914D02*
X23309524Y-37390533D01*
X24309524Y-38104819D02*
X24309524Y-37104819D01*
X24404762Y-37723866D02*
X24690476Y-38104819D01*
X24690476Y-37438152D02*
X24309524Y-37819104D01*
D11*
X23916666Y-36227149D02*
X23750000Y-35989054D01*
X23630952Y-36227149D02*
X23630952Y-35727149D01*
X23630952Y-35727149D02*
X23821428Y-35727149D01*
X23821428Y-35727149D02*
X23869047Y-35750959D01*
X23869047Y-35750959D02*
X23892857Y-35774768D01*
X23892857Y-35774768D02*
X23916666Y-35822387D01*
X23916666Y-35822387D02*
X23916666Y-35893816D01*
X23916666Y-35893816D02*
X23892857Y-35941435D01*
X23892857Y-35941435D02*
X23869047Y-35965244D01*
X23869047Y-35965244D02*
X23821428Y-35989054D01*
X23821428Y-35989054D02*
X23630952Y-35989054D01*
X24345238Y-35893816D02*
X24345238Y-36227149D01*
X24226190Y-35703340D02*
X24107143Y-36060482D01*
X24107143Y-36060482D02*
X24416666Y-36060482D01*
D10*
X33329819Y-21395238D02*
X33329819Y-21966666D01*
X33329819Y-21680952D02*
X32329819Y-21680952D01*
X32329819Y-21680952D02*
X32472676Y-21776190D01*
X32472676Y-21776190D02*
X32567914Y-21871428D01*
X32567914Y-21871428D02*
X32615533Y-21966666D01*
X32329819Y-20776190D02*
X32329819Y-20680952D01*
X32329819Y-20680952D02*
X32377438Y-20585714D01*
X32377438Y-20585714D02*
X32425057Y-20538095D01*
X32425057Y-20538095D02*
X32520295Y-20490476D01*
X32520295Y-20490476D02*
X32710771Y-20442857D01*
X32710771Y-20442857D02*
X32948866Y-20442857D01*
X32948866Y-20442857D02*
X33139342Y-20490476D01*
X33139342Y-20490476D02*
X33234580Y-20538095D01*
X33234580Y-20538095D02*
X33282200Y-20585714D01*
X33282200Y-20585714D02*
X33329819Y-20680952D01*
X33329819Y-20680952D02*
X33329819Y-20776190D01*
X33329819Y-20776190D02*
X33282200Y-20871428D01*
X33282200Y-20871428D02*
X33234580Y-20919047D01*
X33234580Y-20919047D02*
X33139342Y-20966666D01*
X33139342Y-20966666D02*
X32948866Y-21014285D01*
X32948866Y-21014285D02*
X32710771Y-21014285D01*
X32710771Y-21014285D02*
X32520295Y-20966666D01*
X32520295Y-20966666D02*
X32425057Y-20919047D01*
X32425057Y-20919047D02*
X32377438Y-20871428D01*
X32377438Y-20871428D02*
X32329819Y-20776190D01*
X33329819Y-20014285D02*
X32329819Y-20014285D01*
X32948866Y-19919047D02*
X33329819Y-19633333D01*
X32663152Y-19633333D02*
X33044104Y-20014285D01*
D11*
X34752149Y-20883333D02*
X34514054Y-21049999D01*
X34752149Y-21169047D02*
X34252149Y-21169047D01*
X34252149Y-21169047D02*
X34252149Y-20978571D01*
X34252149Y-20978571D02*
X34275959Y-20930952D01*
X34275959Y-20930952D02*
X34299768Y-20907142D01*
X34299768Y-20907142D02*
X34347387Y-20883333D01*
X34347387Y-20883333D02*
X34418816Y-20883333D01*
X34418816Y-20883333D02*
X34466435Y-20907142D01*
X34466435Y-20907142D02*
X34490244Y-20930952D01*
X34490244Y-20930952D02*
X34514054Y-20978571D01*
X34514054Y-20978571D02*
X34514054Y-21169047D01*
X34252149Y-20716666D02*
X34252149Y-20383333D01*
X34252149Y-20383333D02*
X34752149Y-20597618D01*
D10*
X15404761Y-11774819D02*
X14833333Y-11774819D01*
X15119047Y-11774819D02*
X15119047Y-10774819D01*
X15119047Y-10774819D02*
X15023809Y-10917676D01*
X15023809Y-10917676D02*
X14928571Y-11012914D01*
X14928571Y-11012914D02*
X14833333Y-11060533D01*
X16261904Y-11108152D02*
X16261904Y-11774819D01*
X15833333Y-11108152D02*
X15833333Y-11631961D01*
X15833333Y-11631961D02*
X15880952Y-11727200D01*
X15880952Y-11727200D02*
X15976190Y-11774819D01*
X15976190Y-11774819D02*
X16119047Y-11774819D01*
X16119047Y-11774819D02*
X16214285Y-11727200D01*
X16214285Y-11727200D02*
X16261904Y-11679580D01*
X17071428Y-11251009D02*
X16738095Y-11251009D01*
X16738095Y-11774819D02*
X16738095Y-10774819D01*
X16738095Y-10774819D02*
X17214285Y-10774819D01*
D11*
X15916666Y-13179530D02*
X15892857Y-13203340D01*
X15892857Y-13203340D02*
X15821428Y-13227149D01*
X15821428Y-13227149D02*
X15773809Y-13227149D01*
X15773809Y-13227149D02*
X15702381Y-13203340D01*
X15702381Y-13203340D02*
X15654762Y-13155720D01*
X15654762Y-13155720D02*
X15630952Y-13108101D01*
X15630952Y-13108101D02*
X15607143Y-13012863D01*
X15607143Y-13012863D02*
X15607143Y-12941435D01*
X15607143Y-12941435D02*
X15630952Y-12846197D01*
X15630952Y-12846197D02*
X15654762Y-12798578D01*
X15654762Y-12798578D02*
X15702381Y-12750959D01*
X15702381Y-12750959D02*
X15773809Y-12727149D01*
X15773809Y-12727149D02*
X15821428Y-12727149D01*
X15821428Y-12727149D02*
X15892857Y-12750959D01*
X15892857Y-12750959D02*
X15916666Y-12774768D01*
X16107143Y-12774768D02*
X16130952Y-12750959D01*
X16130952Y-12750959D02*
X16178571Y-12727149D01*
X16178571Y-12727149D02*
X16297619Y-12727149D01*
X16297619Y-12727149D02*
X16345238Y-12750959D01*
X16345238Y-12750959D02*
X16369047Y-12774768D01*
X16369047Y-12774768D02*
X16392857Y-12822387D01*
X16392857Y-12822387D02*
X16392857Y-12870006D01*
X16392857Y-12870006D02*
X16369047Y-12941435D01*
X16369047Y-12941435D02*
X16083333Y-13227149D01*
X16083333Y-13227149D02*
X16392857Y-13227149D01*
D10*
X26214284Y-37581009D02*
X26357141Y-37628628D01*
X26357141Y-37628628D02*
X26404760Y-37676247D01*
X26404760Y-37676247D02*
X26452379Y-37771485D01*
X26452379Y-37771485D02*
X26452379Y-37914342D01*
X26452379Y-37914342D02*
X26404760Y-38009580D01*
X26404760Y-38009580D02*
X26357141Y-38057200D01*
X26357141Y-38057200D02*
X26261903Y-38104819D01*
X26261903Y-38104819D02*
X25880951Y-38104819D01*
X25880951Y-38104819D02*
X25880951Y-37104819D01*
X25880951Y-37104819D02*
X26214284Y-37104819D01*
X26214284Y-37104819D02*
X26309522Y-37152438D01*
X26309522Y-37152438D02*
X26357141Y-37200057D01*
X26357141Y-37200057D02*
X26404760Y-37295295D01*
X26404760Y-37295295D02*
X26404760Y-37390533D01*
X26404760Y-37390533D02*
X26357141Y-37485771D01*
X26357141Y-37485771D02*
X26309522Y-37533390D01*
X26309522Y-37533390D02*
X26214284Y-37581009D01*
X26214284Y-37581009D02*
X25880951Y-37581009D01*
X27023808Y-38104819D02*
X26928570Y-38057200D01*
X26928570Y-38057200D02*
X26880951Y-37961961D01*
X26880951Y-37961961D02*
X26880951Y-37104819D01*
X27833332Y-37438152D02*
X27833332Y-38104819D01*
X27404761Y-37438152D02*
X27404761Y-37961961D01*
X27404761Y-37961961D02*
X27452380Y-38057200D01*
X27452380Y-38057200D02*
X27547618Y-38104819D01*
X27547618Y-38104819D02*
X27690475Y-38104819D01*
X27690475Y-38104819D02*
X27785713Y-38057200D01*
X27785713Y-38057200D02*
X27833332Y-38009580D01*
X28690475Y-38057200D02*
X28595237Y-38104819D01*
X28595237Y-38104819D02*
X28404761Y-38104819D01*
X28404761Y-38104819D02*
X28309523Y-38057200D01*
X28309523Y-38057200D02*
X28261904Y-37961961D01*
X28261904Y-37961961D02*
X28261904Y-37581009D01*
X28261904Y-37581009D02*
X28309523Y-37485771D01*
X28309523Y-37485771D02*
X28404761Y-37438152D01*
X28404761Y-37438152D02*
X28595237Y-37438152D01*
X28595237Y-37438152D02*
X28690475Y-37485771D01*
X28690475Y-37485771D02*
X28738094Y-37581009D01*
X28738094Y-37581009D02*
X28738094Y-37676247D01*
X28738094Y-37676247D02*
X28261904Y-37771485D01*
X30214285Y-38485771D02*
X30166666Y-38438152D01*
X30166666Y-38438152D02*
X30071428Y-38295295D01*
X30071428Y-38295295D02*
X30023809Y-38200057D01*
X30023809Y-38200057D02*
X29976190Y-38057200D01*
X29976190Y-38057200D02*
X29928571Y-37819104D01*
X29928571Y-37819104D02*
X29928571Y-37628628D01*
X29928571Y-37628628D02*
X29976190Y-37390533D01*
X29976190Y-37390533D02*
X30023809Y-37247676D01*
X30023809Y-37247676D02*
X30071428Y-37152438D01*
X30071428Y-37152438D02*
X30166666Y-37009580D01*
X30166666Y-37009580D02*
X30214285Y-36961961D01*
X30547619Y-38057200D02*
X30690476Y-38104819D01*
X30690476Y-38104819D02*
X30928571Y-38104819D01*
X30928571Y-38104819D02*
X31023809Y-38057200D01*
X31023809Y-38057200D02*
X31071428Y-38009580D01*
X31071428Y-38009580D02*
X31119047Y-37914342D01*
X31119047Y-37914342D02*
X31119047Y-37819104D01*
X31119047Y-37819104D02*
X31071428Y-37723866D01*
X31071428Y-37723866D02*
X31023809Y-37676247D01*
X31023809Y-37676247D02*
X30928571Y-37628628D01*
X30928571Y-37628628D02*
X30738095Y-37581009D01*
X30738095Y-37581009D02*
X30642857Y-37533390D01*
X30642857Y-37533390D02*
X30595238Y-37485771D01*
X30595238Y-37485771D02*
X30547619Y-37390533D01*
X30547619Y-37390533D02*
X30547619Y-37295295D01*
X30547619Y-37295295D02*
X30595238Y-37200057D01*
X30595238Y-37200057D02*
X30642857Y-37152438D01*
X30642857Y-37152438D02*
X30738095Y-37104819D01*
X30738095Y-37104819D02*
X30976190Y-37104819D01*
X30976190Y-37104819D02*
X31119047Y-37152438D01*
X31404762Y-37104819D02*
X31976190Y-37104819D01*
X31690476Y-38104819D02*
X31690476Y-37104819D01*
X32261905Y-37819104D02*
X32738095Y-37819104D01*
X32166667Y-38104819D02*
X32500000Y-37104819D01*
X32500000Y-37104819D02*
X32833333Y-38104819D01*
X33023810Y-37104819D02*
X33595238Y-37104819D01*
X33309524Y-38104819D02*
X33309524Y-37104819D01*
X33928572Y-37104819D02*
X33928572Y-37914342D01*
X33928572Y-37914342D02*
X33976191Y-38009580D01*
X33976191Y-38009580D02*
X34023810Y-38057200D01*
X34023810Y-38057200D02*
X34119048Y-38104819D01*
X34119048Y-38104819D02*
X34309524Y-38104819D01*
X34309524Y-38104819D02*
X34404762Y-38057200D01*
X34404762Y-38057200D02*
X34452381Y-38009580D01*
X34452381Y-38009580D02*
X34500000Y-37914342D01*
X34500000Y-37914342D02*
X34500000Y-37104819D01*
X34928572Y-38057200D02*
X35071429Y-38104819D01*
X35071429Y-38104819D02*
X35309524Y-38104819D01*
X35309524Y-38104819D02*
X35404762Y-38057200D01*
X35404762Y-38057200D02*
X35452381Y-38009580D01*
X35452381Y-38009580D02*
X35500000Y-37914342D01*
X35500000Y-37914342D02*
X35500000Y-37819104D01*
X35500000Y-37819104D02*
X35452381Y-37723866D01*
X35452381Y-37723866D02*
X35404762Y-37676247D01*
X35404762Y-37676247D02*
X35309524Y-37628628D01*
X35309524Y-37628628D02*
X35119048Y-37581009D01*
X35119048Y-37581009D02*
X35023810Y-37533390D01*
X35023810Y-37533390D02*
X34976191Y-37485771D01*
X34976191Y-37485771D02*
X34928572Y-37390533D01*
X34928572Y-37390533D02*
X34928572Y-37295295D01*
X34928572Y-37295295D02*
X34976191Y-37200057D01*
X34976191Y-37200057D02*
X35023810Y-37152438D01*
X35023810Y-37152438D02*
X35119048Y-37104819D01*
X35119048Y-37104819D02*
X35357143Y-37104819D01*
X35357143Y-37104819D02*
X35500000Y-37152438D01*
X35833334Y-38485771D02*
X35880953Y-38438152D01*
X35880953Y-38438152D02*
X35976191Y-38295295D01*
X35976191Y-38295295D02*
X36023810Y-38200057D01*
X36023810Y-38200057D02*
X36071429Y-38057200D01*
X36071429Y-38057200D02*
X36119048Y-37819104D01*
X36119048Y-37819104D02*
X36119048Y-37628628D01*
X36119048Y-37628628D02*
X36071429Y-37390533D01*
X36071429Y-37390533D02*
X36023810Y-37247676D01*
X36023810Y-37247676D02*
X35976191Y-37152438D01*
X35976191Y-37152438D02*
X35880953Y-37009580D01*
X35880953Y-37009580D02*
X35833334Y-36961961D01*
D11*
X30630952Y-36227149D02*
X30630952Y-35727149D01*
X30630952Y-35727149D02*
X30750000Y-35727149D01*
X30750000Y-35727149D02*
X30821428Y-35750959D01*
X30821428Y-35750959D02*
X30869047Y-35798578D01*
X30869047Y-35798578D02*
X30892857Y-35846197D01*
X30892857Y-35846197D02*
X30916666Y-35941435D01*
X30916666Y-35941435D02*
X30916666Y-36012863D01*
X30916666Y-36012863D02*
X30892857Y-36108101D01*
X30892857Y-36108101D02*
X30869047Y-36155720D01*
X30869047Y-36155720D02*
X30821428Y-36203340D01*
X30821428Y-36203340D02*
X30750000Y-36227149D01*
X30750000Y-36227149D02*
X30630952Y-36227149D01*
X31083333Y-35727149D02*
X31392857Y-35727149D01*
X31392857Y-35727149D02*
X31226190Y-35917625D01*
X31226190Y-35917625D02*
X31297619Y-35917625D01*
X31297619Y-35917625D02*
X31345238Y-35941435D01*
X31345238Y-35941435D02*
X31369047Y-35965244D01*
X31369047Y-35965244D02*
X31392857Y-36012863D01*
X31392857Y-36012863D02*
X31392857Y-36131911D01*
X31392857Y-36131911D02*
X31369047Y-36179530D01*
X31369047Y-36179530D02*
X31345238Y-36203340D01*
X31345238Y-36203340D02*
X31297619Y-36227149D01*
X31297619Y-36227149D02*
X31154762Y-36227149D01*
X31154762Y-36227149D02*
X31107143Y-36203340D01*
X31107143Y-36203340D02*
X31083333Y-36179530D01*
D10*
X26928571Y-24134819D02*
X26357143Y-24134819D01*
X26642857Y-24134819D02*
X26642857Y-23134819D01*
X26642857Y-23134819D02*
X26547619Y-23277676D01*
X26547619Y-23277676D02*
X26452381Y-23372914D01*
X26452381Y-23372914D02*
X26357143Y-23420533D01*
X27547619Y-23134819D02*
X27642857Y-23134819D01*
X27642857Y-23134819D02*
X27738095Y-23182438D01*
X27738095Y-23182438D02*
X27785714Y-23230057D01*
X27785714Y-23230057D02*
X27833333Y-23325295D01*
X27833333Y-23325295D02*
X27880952Y-23515771D01*
X27880952Y-23515771D02*
X27880952Y-23753866D01*
X27880952Y-23753866D02*
X27833333Y-23944342D01*
X27833333Y-23944342D02*
X27785714Y-24039580D01*
X27785714Y-24039580D02*
X27738095Y-24087200D01*
X27738095Y-24087200D02*
X27642857Y-24134819D01*
X27642857Y-24134819D02*
X27547619Y-24134819D01*
X27547619Y-24134819D02*
X27452381Y-24087200D01*
X27452381Y-24087200D02*
X27404762Y-24039580D01*
X27404762Y-24039580D02*
X27357143Y-23944342D01*
X27357143Y-23944342D02*
X27309524Y-23753866D01*
X27309524Y-23753866D02*
X27309524Y-23515771D01*
X27309524Y-23515771D02*
X27357143Y-23325295D01*
X27357143Y-23325295D02*
X27404762Y-23230057D01*
X27404762Y-23230057D02*
X27452381Y-23182438D01*
X27452381Y-23182438D02*
X27547619Y-23134819D01*
X28309524Y-23468152D02*
X28309524Y-24134819D01*
X28309524Y-23563390D02*
X28357143Y-23515771D01*
X28357143Y-23515771D02*
X28452381Y-23468152D01*
X28452381Y-23468152D02*
X28595238Y-23468152D01*
X28595238Y-23468152D02*
X28690476Y-23515771D01*
X28690476Y-23515771D02*
X28738095Y-23611009D01*
X28738095Y-23611009D02*
X28738095Y-24134819D01*
X29547619Y-23611009D02*
X29214286Y-23611009D01*
X29214286Y-24134819D02*
X29214286Y-23134819D01*
X29214286Y-23134819D02*
X29690476Y-23134819D01*
D11*
X27916666Y-22179530D02*
X27892857Y-22203340D01*
X27892857Y-22203340D02*
X27821428Y-22227149D01*
X27821428Y-22227149D02*
X27773809Y-22227149D01*
X27773809Y-22227149D02*
X27702381Y-22203340D01*
X27702381Y-22203340D02*
X27654762Y-22155720D01*
X27654762Y-22155720D02*
X27630952Y-22108101D01*
X27630952Y-22108101D02*
X27607143Y-22012863D01*
X27607143Y-22012863D02*
X27607143Y-21941435D01*
X27607143Y-21941435D02*
X27630952Y-21846197D01*
X27630952Y-21846197D02*
X27654762Y-21798578D01*
X27654762Y-21798578D02*
X27702381Y-21750959D01*
X27702381Y-21750959D02*
X27773809Y-21727149D01*
X27773809Y-21727149D02*
X27821428Y-21727149D01*
X27821428Y-21727149D02*
X27892857Y-21750959D01*
X27892857Y-21750959D02*
X27916666Y-21774768D01*
X28083333Y-21727149D02*
X28392857Y-21727149D01*
X28392857Y-21727149D02*
X28226190Y-21917625D01*
X28226190Y-21917625D02*
X28297619Y-21917625D01*
X28297619Y-21917625D02*
X28345238Y-21941435D01*
X28345238Y-21941435D02*
X28369047Y-21965244D01*
X28369047Y-21965244D02*
X28392857Y-22012863D01*
X28392857Y-22012863D02*
X28392857Y-22131911D01*
X28392857Y-22131911D02*
X28369047Y-22179530D01*
X28369047Y-22179530D02*
X28345238Y-22203340D01*
X28345238Y-22203340D02*
X28297619Y-22227149D01*
X28297619Y-22227149D02*
X28154762Y-22227149D01*
X28154762Y-22227149D02*
X28107143Y-22203340D01*
X28107143Y-22203340D02*
X28083333Y-22179530D01*
D10*
X26452380Y-20134819D02*
X25880952Y-20134819D01*
X26166666Y-20134819D02*
X26166666Y-19134819D01*
X26166666Y-19134819D02*
X26071428Y-19277676D01*
X26071428Y-19277676D02*
X25976190Y-19372914D01*
X25976190Y-19372914D02*
X25880952Y-19420533D01*
X27071428Y-19134819D02*
X27166666Y-19134819D01*
X27166666Y-19134819D02*
X27261904Y-19182438D01*
X27261904Y-19182438D02*
X27309523Y-19230057D01*
X27309523Y-19230057D02*
X27357142Y-19325295D01*
X27357142Y-19325295D02*
X27404761Y-19515771D01*
X27404761Y-19515771D02*
X27404761Y-19753866D01*
X27404761Y-19753866D02*
X27357142Y-19944342D01*
X27357142Y-19944342D02*
X27309523Y-20039580D01*
X27309523Y-20039580D02*
X27261904Y-20087200D01*
X27261904Y-20087200D02*
X27166666Y-20134819D01*
X27166666Y-20134819D02*
X27071428Y-20134819D01*
X27071428Y-20134819D02*
X26976190Y-20087200D01*
X26976190Y-20087200D02*
X26928571Y-20039580D01*
X26928571Y-20039580D02*
X26880952Y-19944342D01*
X26880952Y-19944342D02*
X26833333Y-19753866D01*
X26833333Y-19753866D02*
X26833333Y-19515771D01*
X26833333Y-19515771D02*
X26880952Y-19325295D01*
X26880952Y-19325295D02*
X26928571Y-19230057D01*
X26928571Y-19230057D02*
X26976190Y-19182438D01*
X26976190Y-19182438D02*
X27071428Y-19134819D01*
X28023809Y-19134819D02*
X28119047Y-19134819D01*
X28119047Y-19134819D02*
X28214285Y-19182438D01*
X28214285Y-19182438D02*
X28261904Y-19230057D01*
X28261904Y-19230057D02*
X28309523Y-19325295D01*
X28309523Y-19325295D02*
X28357142Y-19515771D01*
X28357142Y-19515771D02*
X28357142Y-19753866D01*
X28357142Y-19753866D02*
X28309523Y-19944342D01*
X28309523Y-19944342D02*
X28261904Y-20039580D01*
X28261904Y-20039580D02*
X28214285Y-20087200D01*
X28214285Y-20087200D02*
X28119047Y-20134819D01*
X28119047Y-20134819D02*
X28023809Y-20134819D01*
X28023809Y-20134819D02*
X27928571Y-20087200D01*
X27928571Y-20087200D02*
X27880952Y-20039580D01*
X27880952Y-20039580D02*
X27833333Y-19944342D01*
X27833333Y-19944342D02*
X27785714Y-19753866D01*
X27785714Y-19753866D02*
X27785714Y-19515771D01*
X27785714Y-19515771D02*
X27833333Y-19325295D01*
X27833333Y-19325295D02*
X27880952Y-19230057D01*
X27880952Y-19230057D02*
X27928571Y-19182438D01*
X27928571Y-19182438D02*
X28023809Y-19134819D01*
X28785714Y-19468152D02*
X28785714Y-20134819D01*
X28785714Y-19563390D02*
X28833333Y-19515771D01*
X28833333Y-19515771D02*
X28928571Y-19468152D01*
X28928571Y-19468152D02*
X29071428Y-19468152D01*
X29071428Y-19468152D02*
X29166666Y-19515771D01*
X29166666Y-19515771D02*
X29214285Y-19611009D01*
X29214285Y-19611009D02*
X29214285Y-20134819D01*
X30023809Y-19611009D02*
X29690476Y-19611009D01*
X29690476Y-20134819D02*
X29690476Y-19134819D01*
X29690476Y-19134819D02*
X30166666Y-19134819D01*
D11*
X27916666Y-18179530D02*
X27892857Y-18203340D01*
X27892857Y-18203340D02*
X27821428Y-18227149D01*
X27821428Y-18227149D02*
X27773809Y-18227149D01*
X27773809Y-18227149D02*
X27702381Y-18203340D01*
X27702381Y-18203340D02*
X27654762Y-18155720D01*
X27654762Y-18155720D02*
X27630952Y-18108101D01*
X27630952Y-18108101D02*
X27607143Y-18012863D01*
X27607143Y-18012863D02*
X27607143Y-17941435D01*
X27607143Y-17941435D02*
X27630952Y-17846197D01*
X27630952Y-17846197D02*
X27654762Y-17798578D01*
X27654762Y-17798578D02*
X27702381Y-17750959D01*
X27702381Y-17750959D02*
X27773809Y-17727149D01*
X27773809Y-17727149D02*
X27821428Y-17727149D01*
X27821428Y-17727149D02*
X27892857Y-17750959D01*
X27892857Y-17750959D02*
X27916666Y-17774768D01*
X28345238Y-17893816D02*
X28345238Y-18227149D01*
X28226190Y-17703340D02*
X28107143Y-18060482D01*
X28107143Y-18060482D02*
X28416666Y-18060482D01*
D10*
X14380952Y-38104819D02*
X13809524Y-38104819D01*
X14095238Y-38104819D02*
X14095238Y-37104819D01*
X14095238Y-37104819D02*
X14000000Y-37247676D01*
X14000000Y-37247676D02*
X13904762Y-37342914D01*
X13904762Y-37342914D02*
X13809524Y-37390533D01*
X14809524Y-38104819D02*
X14809524Y-37104819D01*
X14904762Y-37723866D02*
X15190476Y-38104819D01*
X15190476Y-37438152D02*
X14809524Y-37819104D01*
D11*
X14416666Y-36227149D02*
X14250000Y-35989054D01*
X14130952Y-36227149D02*
X14130952Y-35727149D01*
X14130952Y-35727149D02*
X14321428Y-35727149D01*
X14321428Y-35727149D02*
X14369047Y-35750959D01*
X14369047Y-35750959D02*
X14392857Y-35774768D01*
X14392857Y-35774768D02*
X14416666Y-35822387D01*
X14416666Y-35822387D02*
X14416666Y-35893816D01*
X14416666Y-35893816D02*
X14392857Y-35941435D01*
X14392857Y-35941435D02*
X14369047Y-35965244D01*
X14369047Y-35965244D02*
X14321428Y-35989054D01*
X14321428Y-35989054D02*
X14130952Y-35989054D01*
X14583333Y-35727149D02*
X14892857Y-35727149D01*
X14892857Y-35727149D02*
X14726190Y-35917625D01*
X14726190Y-35917625D02*
X14797619Y-35917625D01*
X14797619Y-35917625D02*
X14845238Y-35941435D01*
X14845238Y-35941435D02*
X14869047Y-35965244D01*
X14869047Y-35965244D02*
X14892857Y-36012863D01*
X14892857Y-36012863D02*
X14892857Y-36131911D01*
X14892857Y-36131911D02*
X14869047Y-36179530D01*
X14869047Y-36179530D02*
X14845238Y-36203340D01*
X14845238Y-36203340D02*
X14797619Y-36227149D01*
X14797619Y-36227149D02*
X14654762Y-36227149D01*
X14654762Y-36227149D02*
X14607143Y-36203340D01*
X14607143Y-36203340D02*
X14583333Y-36179530D01*
D10*
X41952380Y-25634819D02*
X41380952Y-25634819D01*
X41666666Y-25634819D02*
X41666666Y-24634819D01*
X41666666Y-24634819D02*
X41571428Y-24777676D01*
X41571428Y-24777676D02*
X41476190Y-24872914D01*
X41476190Y-24872914D02*
X41380952Y-24920533D01*
X42571428Y-24634819D02*
X42666666Y-24634819D01*
X42666666Y-24634819D02*
X42761904Y-24682438D01*
X42761904Y-24682438D02*
X42809523Y-24730057D01*
X42809523Y-24730057D02*
X42857142Y-24825295D01*
X42857142Y-24825295D02*
X42904761Y-25015771D01*
X42904761Y-25015771D02*
X42904761Y-25253866D01*
X42904761Y-25253866D02*
X42857142Y-25444342D01*
X42857142Y-25444342D02*
X42809523Y-25539580D01*
X42809523Y-25539580D02*
X42761904Y-25587200D01*
X42761904Y-25587200D02*
X42666666Y-25634819D01*
X42666666Y-25634819D02*
X42571428Y-25634819D01*
X42571428Y-25634819D02*
X42476190Y-25587200D01*
X42476190Y-25587200D02*
X42428571Y-25539580D01*
X42428571Y-25539580D02*
X42380952Y-25444342D01*
X42380952Y-25444342D02*
X42333333Y-25253866D01*
X42333333Y-25253866D02*
X42333333Y-25015771D01*
X42333333Y-25015771D02*
X42380952Y-24825295D01*
X42380952Y-24825295D02*
X42428571Y-24730057D01*
X42428571Y-24730057D02*
X42476190Y-24682438D01*
X42476190Y-24682438D02*
X42571428Y-24634819D01*
X43523809Y-24634819D02*
X43619047Y-24634819D01*
X43619047Y-24634819D02*
X43714285Y-24682438D01*
X43714285Y-24682438D02*
X43761904Y-24730057D01*
X43761904Y-24730057D02*
X43809523Y-24825295D01*
X43809523Y-24825295D02*
X43857142Y-25015771D01*
X43857142Y-25015771D02*
X43857142Y-25253866D01*
X43857142Y-25253866D02*
X43809523Y-25444342D01*
X43809523Y-25444342D02*
X43761904Y-25539580D01*
X43761904Y-25539580D02*
X43714285Y-25587200D01*
X43714285Y-25587200D02*
X43619047Y-25634819D01*
X43619047Y-25634819D02*
X43523809Y-25634819D01*
X43523809Y-25634819D02*
X43428571Y-25587200D01*
X43428571Y-25587200D02*
X43380952Y-25539580D01*
X43380952Y-25539580D02*
X43333333Y-25444342D01*
X43333333Y-25444342D02*
X43285714Y-25253866D01*
X43285714Y-25253866D02*
X43285714Y-25015771D01*
X43285714Y-25015771D02*
X43333333Y-24825295D01*
X43333333Y-24825295D02*
X43380952Y-24730057D01*
X43380952Y-24730057D02*
X43428571Y-24682438D01*
X43428571Y-24682438D02*
X43523809Y-24634819D01*
X44285714Y-24968152D02*
X44285714Y-25634819D01*
X44285714Y-25063390D02*
X44333333Y-25015771D01*
X44333333Y-25015771D02*
X44428571Y-24968152D01*
X44428571Y-24968152D02*
X44571428Y-24968152D01*
X44571428Y-24968152D02*
X44666666Y-25015771D01*
X44666666Y-25015771D02*
X44714285Y-25111009D01*
X44714285Y-25111009D02*
X44714285Y-25634819D01*
X45523809Y-25111009D02*
X45190476Y-25111009D01*
X45190476Y-25634819D02*
X45190476Y-24634819D01*
X45190476Y-24634819D02*
X45666666Y-24634819D01*
D11*
X43416666Y-23679530D02*
X43392857Y-23703340D01*
X43392857Y-23703340D02*
X43321428Y-23727149D01*
X43321428Y-23727149D02*
X43273809Y-23727149D01*
X43273809Y-23727149D02*
X43202381Y-23703340D01*
X43202381Y-23703340D02*
X43154762Y-23655720D01*
X43154762Y-23655720D02*
X43130952Y-23608101D01*
X43130952Y-23608101D02*
X43107143Y-23512863D01*
X43107143Y-23512863D02*
X43107143Y-23441435D01*
X43107143Y-23441435D02*
X43130952Y-23346197D01*
X43130952Y-23346197D02*
X43154762Y-23298578D01*
X43154762Y-23298578D02*
X43202381Y-23250959D01*
X43202381Y-23250959D02*
X43273809Y-23227149D01*
X43273809Y-23227149D02*
X43321428Y-23227149D01*
X43321428Y-23227149D02*
X43392857Y-23250959D01*
X43392857Y-23250959D02*
X43416666Y-23274768D01*
X43869047Y-23227149D02*
X43630952Y-23227149D01*
X43630952Y-23227149D02*
X43607143Y-23465244D01*
X43607143Y-23465244D02*
X43630952Y-23441435D01*
X43630952Y-23441435D02*
X43678571Y-23417625D01*
X43678571Y-23417625D02*
X43797619Y-23417625D01*
X43797619Y-23417625D02*
X43845238Y-23441435D01*
X43845238Y-23441435D02*
X43869047Y-23465244D01*
X43869047Y-23465244D02*
X43892857Y-23512863D01*
X43892857Y-23512863D02*
X43892857Y-23631911D01*
X43892857Y-23631911D02*
X43869047Y-23679530D01*
X43869047Y-23679530D02*
X43845238Y-23703340D01*
X43845238Y-23703340D02*
X43797619Y-23727149D01*
X43797619Y-23727149D02*
X43678571Y-23727149D01*
X43678571Y-23727149D02*
X43630952Y-23703340D01*
X43630952Y-23703340D02*
X43607143Y-23679530D01*
D10*
X34880952Y-38104819D02*
X34309524Y-38104819D01*
X34595238Y-38104819D02*
X34595238Y-37104819D01*
X34595238Y-37104819D02*
X34500000Y-37247676D01*
X34500000Y-37247676D02*
X34404762Y-37342914D01*
X34404762Y-37342914D02*
X34309524Y-37390533D01*
X35309524Y-38104819D02*
X35309524Y-37104819D01*
X35404762Y-37723866D02*
X35690476Y-38104819D01*
X35690476Y-37438152D02*
X35309524Y-37819104D01*
D11*
X34916666Y-36227149D02*
X34750000Y-35989054D01*
X34630952Y-36227149D02*
X34630952Y-35727149D01*
X34630952Y-35727149D02*
X34821428Y-35727149D01*
X34821428Y-35727149D02*
X34869047Y-35750959D01*
X34869047Y-35750959D02*
X34892857Y-35774768D01*
X34892857Y-35774768D02*
X34916666Y-35822387D01*
X34916666Y-35822387D02*
X34916666Y-35893816D01*
X34916666Y-35893816D02*
X34892857Y-35941435D01*
X34892857Y-35941435D02*
X34869047Y-35965244D01*
X34869047Y-35965244D02*
X34821428Y-35989054D01*
X34821428Y-35989054D02*
X34630952Y-35989054D01*
X35202381Y-35941435D02*
X35154762Y-35917625D01*
X35154762Y-35917625D02*
X35130952Y-35893816D01*
X35130952Y-35893816D02*
X35107143Y-35846197D01*
X35107143Y-35846197D02*
X35107143Y-35822387D01*
X35107143Y-35822387D02*
X35130952Y-35774768D01*
X35130952Y-35774768D02*
X35154762Y-35750959D01*
X35154762Y-35750959D02*
X35202381Y-35727149D01*
X35202381Y-35727149D02*
X35297619Y-35727149D01*
X35297619Y-35727149D02*
X35345238Y-35750959D01*
X35345238Y-35750959D02*
X35369047Y-35774768D01*
X35369047Y-35774768D02*
X35392857Y-35822387D01*
X35392857Y-35822387D02*
X35392857Y-35846197D01*
X35392857Y-35846197D02*
X35369047Y-35893816D01*
X35369047Y-35893816D02*
X35345238Y-35917625D01*
X35345238Y-35917625D02*
X35297619Y-35941435D01*
X35297619Y-35941435D02*
X35202381Y-35941435D01*
X35202381Y-35941435D02*
X35154762Y-35965244D01*
X35154762Y-35965244D02*
X35130952Y-35989054D01*
X35130952Y-35989054D02*
X35107143Y-36036673D01*
X35107143Y-36036673D02*
X35107143Y-36131911D01*
X35107143Y-36131911D02*
X35130952Y-36179530D01*
X35130952Y-36179530D02*
X35154762Y-36203340D01*
X35154762Y-36203340D02*
X35202381Y-36227149D01*
X35202381Y-36227149D02*
X35297619Y-36227149D01*
X35297619Y-36227149D02*
X35345238Y-36203340D01*
X35345238Y-36203340D02*
X35369047Y-36179530D01*
X35369047Y-36179530D02*
X35392857Y-36131911D01*
X35392857Y-36131911D02*
X35392857Y-36036673D01*
X35392857Y-36036673D02*
X35369047Y-35989054D01*
X35369047Y-35989054D02*
X35345238Y-35965244D01*
X35345238Y-35965244D02*
X35297619Y-35941435D01*
D10*
X35270000Y-18629104D02*
X35746190Y-18629104D01*
X35174762Y-18914819D02*
X35508095Y-17914819D01*
X35508095Y-17914819D02*
X35841428Y-18914819D01*
X36031905Y-17914819D02*
X36365238Y-18914819D01*
X36365238Y-18914819D02*
X36698571Y-17914819D01*
X37603333Y-18914819D02*
X37270000Y-18438628D01*
X37031905Y-18914819D02*
X37031905Y-17914819D01*
X37031905Y-17914819D02*
X37412857Y-17914819D01*
X37412857Y-17914819D02*
X37508095Y-17962438D01*
X37508095Y-17962438D02*
X37555714Y-18010057D01*
X37555714Y-18010057D02*
X37603333Y-18105295D01*
X37603333Y-18105295D02*
X37603333Y-18248152D01*
X37603333Y-18248152D02*
X37555714Y-18343390D01*
X37555714Y-18343390D02*
X37508095Y-18391009D01*
X37508095Y-18391009D02*
X37412857Y-18438628D01*
X37412857Y-18438628D02*
X37031905Y-18438628D01*
X38031905Y-18533866D02*
X38793810Y-18533866D01*
X39270000Y-18914819D02*
X39270000Y-17914819D01*
X39698571Y-18867200D02*
X39841428Y-18914819D01*
X39841428Y-18914819D02*
X40079523Y-18914819D01*
X40079523Y-18914819D02*
X40174761Y-18867200D01*
X40174761Y-18867200D02*
X40222380Y-18819580D01*
X40222380Y-18819580D02*
X40269999Y-18724342D01*
X40269999Y-18724342D02*
X40269999Y-18629104D01*
X40269999Y-18629104D02*
X40222380Y-18533866D01*
X40222380Y-18533866D02*
X40174761Y-18486247D01*
X40174761Y-18486247D02*
X40079523Y-18438628D01*
X40079523Y-18438628D02*
X39889047Y-18391009D01*
X39889047Y-18391009D02*
X39793809Y-18343390D01*
X39793809Y-18343390D02*
X39746190Y-18295771D01*
X39746190Y-18295771D02*
X39698571Y-18200533D01*
X39698571Y-18200533D02*
X39698571Y-18105295D01*
X39698571Y-18105295D02*
X39746190Y-18010057D01*
X39746190Y-18010057D02*
X39793809Y-17962438D01*
X39793809Y-17962438D02*
X39889047Y-17914819D01*
X39889047Y-17914819D02*
X40127142Y-17914819D01*
X40127142Y-17914819D02*
X40269999Y-17962438D01*
X40698571Y-18914819D02*
X40698571Y-17914819D01*
X40698571Y-17914819D02*
X41079523Y-17914819D01*
X41079523Y-17914819D02*
X41174761Y-17962438D01*
X41174761Y-17962438D02*
X41222380Y-18010057D01*
X41222380Y-18010057D02*
X41269999Y-18105295D01*
X41269999Y-18105295D02*
X41269999Y-18248152D01*
X41269999Y-18248152D02*
X41222380Y-18343390D01*
X41222380Y-18343390D02*
X41174761Y-18391009D01*
X41174761Y-18391009D02*
X41079523Y-18438628D01*
X41079523Y-18438628D02*
X40698571Y-18438628D01*
X37724819Y-13873333D02*
X38439104Y-13873333D01*
X38439104Y-13873333D02*
X38581961Y-13920952D01*
X38581961Y-13920952D02*
X38677200Y-14016190D01*
X38677200Y-14016190D02*
X38724819Y-14159047D01*
X38724819Y-14159047D02*
X38724819Y-14254285D01*
X37820057Y-13444761D02*
X37772438Y-13397142D01*
X37772438Y-13397142D02*
X37724819Y-13301904D01*
X37724819Y-13301904D02*
X37724819Y-13063809D01*
X37724819Y-13063809D02*
X37772438Y-12968571D01*
X37772438Y-12968571D02*
X37820057Y-12920952D01*
X37820057Y-12920952D02*
X37915295Y-12873333D01*
X37915295Y-12873333D02*
X38010533Y-12873333D01*
X38010533Y-12873333D02*
X38153390Y-12920952D01*
X38153390Y-12920952D02*
X38724819Y-13492380D01*
X38724819Y-13492380D02*
X38724819Y-12873333D01*
X21404761Y-11104819D02*
X20833333Y-11104819D01*
X21119047Y-11104819D02*
X21119047Y-10104819D01*
X21119047Y-10104819D02*
X21023809Y-10247676D01*
X21023809Y-10247676D02*
X20928571Y-10342914D01*
X20928571Y-10342914D02*
X20833333Y-10390533D01*
X22023809Y-10104819D02*
X22119047Y-10104819D01*
X22119047Y-10104819D02*
X22214285Y-10152438D01*
X22214285Y-10152438D02*
X22261904Y-10200057D01*
X22261904Y-10200057D02*
X22309523Y-10295295D01*
X22309523Y-10295295D02*
X22357142Y-10485771D01*
X22357142Y-10485771D02*
X22357142Y-10723866D01*
X22357142Y-10723866D02*
X22309523Y-10914342D01*
X22309523Y-10914342D02*
X22261904Y-11009580D01*
X22261904Y-11009580D02*
X22214285Y-11057200D01*
X22214285Y-11057200D02*
X22119047Y-11104819D01*
X22119047Y-11104819D02*
X22023809Y-11104819D01*
X22023809Y-11104819D02*
X21928571Y-11057200D01*
X21928571Y-11057200D02*
X21880952Y-11009580D01*
X21880952Y-11009580D02*
X21833333Y-10914342D01*
X21833333Y-10914342D02*
X21785714Y-10723866D01*
X21785714Y-10723866D02*
X21785714Y-10485771D01*
X21785714Y-10485771D02*
X21833333Y-10295295D01*
X21833333Y-10295295D02*
X21880952Y-10200057D01*
X21880952Y-10200057D02*
X21928571Y-10152438D01*
X21928571Y-10152438D02*
X22023809Y-10104819D01*
X22785714Y-11104819D02*
X22785714Y-10104819D01*
X22880952Y-10723866D02*
X23166666Y-11104819D01*
X23166666Y-10438152D02*
X22785714Y-10819104D01*
D11*
X21916666Y-9227149D02*
X21750000Y-8989054D01*
X21630952Y-9227149D02*
X21630952Y-8727149D01*
X21630952Y-8727149D02*
X21821428Y-8727149D01*
X21821428Y-8727149D02*
X21869047Y-8750959D01*
X21869047Y-8750959D02*
X21892857Y-8774768D01*
X21892857Y-8774768D02*
X21916666Y-8822387D01*
X21916666Y-8822387D02*
X21916666Y-8893816D01*
X21916666Y-8893816D02*
X21892857Y-8941435D01*
X21892857Y-8941435D02*
X21869047Y-8965244D01*
X21869047Y-8965244D02*
X21821428Y-8989054D01*
X21821428Y-8989054D02*
X21630952Y-8989054D01*
X22369047Y-8727149D02*
X22130952Y-8727149D01*
X22130952Y-8727149D02*
X22107143Y-8965244D01*
X22107143Y-8965244D02*
X22130952Y-8941435D01*
X22130952Y-8941435D02*
X22178571Y-8917625D01*
X22178571Y-8917625D02*
X22297619Y-8917625D01*
X22297619Y-8917625D02*
X22345238Y-8941435D01*
X22345238Y-8941435D02*
X22369047Y-8965244D01*
X22369047Y-8965244D02*
X22392857Y-9012863D01*
X22392857Y-9012863D02*
X22392857Y-9131911D01*
X22392857Y-9131911D02*
X22369047Y-9179530D01*
X22369047Y-9179530D02*
X22345238Y-9203340D01*
X22345238Y-9203340D02*
X22297619Y-9227149D01*
X22297619Y-9227149D02*
X22178571Y-9227149D01*
X22178571Y-9227149D02*
X22130952Y-9203340D01*
X22130952Y-9203340D02*
X22107143Y-9179530D01*
D10*
X13119047Y-24854819D02*
X12642857Y-24854819D01*
X12642857Y-24854819D02*
X12595238Y-25331009D01*
X12595238Y-25331009D02*
X12642857Y-25283390D01*
X12642857Y-25283390D02*
X12738095Y-25235771D01*
X12738095Y-25235771D02*
X12976190Y-25235771D01*
X12976190Y-25235771D02*
X13071428Y-25283390D01*
X13071428Y-25283390D02*
X13119047Y-25331009D01*
X13119047Y-25331009D02*
X13166666Y-25426247D01*
X13166666Y-25426247D02*
X13166666Y-25664342D01*
X13166666Y-25664342D02*
X13119047Y-25759580D01*
X13119047Y-25759580D02*
X13071428Y-25807200D01*
X13071428Y-25807200D02*
X12976190Y-25854819D01*
X12976190Y-25854819D02*
X12738095Y-25854819D01*
X12738095Y-25854819D02*
X12642857Y-25807200D01*
X12642857Y-25807200D02*
X12595238Y-25759580D01*
X13595238Y-25759580D02*
X13642857Y-25807200D01*
X13642857Y-25807200D02*
X13595238Y-25854819D01*
X13595238Y-25854819D02*
X13547619Y-25807200D01*
X13547619Y-25807200D02*
X13595238Y-25759580D01*
X13595238Y-25759580D02*
X13595238Y-25854819D01*
X14595237Y-25854819D02*
X14023809Y-25854819D01*
X14309523Y-25854819D02*
X14309523Y-24854819D01*
X14309523Y-24854819D02*
X14214285Y-24997676D01*
X14214285Y-24997676D02*
X14119047Y-25092914D01*
X14119047Y-25092914D02*
X14023809Y-25140533D01*
X15023809Y-25854819D02*
X15023809Y-24854819D01*
X15119047Y-25473866D02*
X15404761Y-25854819D01*
X15404761Y-25188152D02*
X15023809Y-25569104D01*
D11*
X13916666Y-23977149D02*
X13750000Y-23739054D01*
X13630952Y-23977149D02*
X13630952Y-23477149D01*
X13630952Y-23477149D02*
X13821428Y-23477149D01*
X13821428Y-23477149D02*
X13869047Y-23500959D01*
X13869047Y-23500959D02*
X13892857Y-23524768D01*
X13892857Y-23524768D02*
X13916666Y-23572387D01*
X13916666Y-23572387D02*
X13916666Y-23643816D01*
X13916666Y-23643816D02*
X13892857Y-23691435D01*
X13892857Y-23691435D02*
X13869047Y-23715244D01*
X13869047Y-23715244D02*
X13821428Y-23739054D01*
X13821428Y-23739054D02*
X13630952Y-23739054D01*
X14392857Y-23977149D02*
X14107143Y-23977149D01*
X14250000Y-23977149D02*
X14250000Y-23477149D01*
X14250000Y-23477149D02*
X14202381Y-23548578D01*
X14202381Y-23548578D02*
X14154762Y-23596197D01*
X14154762Y-23596197D02*
X14107143Y-23620006D01*
D10*
X-785714Y-8604819D02*
X-785714Y-7604819D01*
X-785714Y-7604819D02*
X-452381Y-8319104D01*
X-452381Y-8319104D02*
X-119048Y-7604819D01*
X-119048Y-7604819D02*
X-119048Y-8604819D01*
X499999Y-8604819D02*
X404761Y-8557200D01*
X404761Y-8557200D02*
X357142Y-8509580D01*
X357142Y-8509580D02*
X309523Y-8414342D01*
X309523Y-8414342D02*
X309523Y-8128628D01*
X309523Y-8128628D02*
X357142Y-8033390D01*
X357142Y-8033390D02*
X404761Y-7985771D01*
X404761Y-7985771D02*
X499999Y-7938152D01*
X499999Y-7938152D02*
X642856Y-7938152D01*
X642856Y-7938152D02*
X738094Y-7985771D01*
X738094Y-7985771D02*
X785713Y-8033390D01*
X785713Y-8033390D02*
X833332Y-8128628D01*
X833332Y-8128628D02*
X833332Y-8414342D01*
X833332Y-8414342D02*
X785713Y-8509580D01*
X785713Y-8509580D02*
X738094Y-8557200D01*
X738094Y-8557200D02*
X642856Y-8604819D01*
X642856Y-8604819D02*
X499999Y-8604819D01*
X1690475Y-7938152D02*
X1690475Y-8604819D01*
X1261904Y-7938152D02*
X1261904Y-8461961D01*
X1261904Y-8461961D02*
X1309523Y-8557200D01*
X1309523Y-8557200D02*
X1404761Y-8604819D01*
X1404761Y-8604819D02*
X1547618Y-8604819D01*
X1547618Y-8604819D02*
X1642856Y-8557200D01*
X1642856Y-8557200D02*
X1690475Y-8509580D01*
X2166666Y-7938152D02*
X2166666Y-8604819D01*
X2166666Y-8033390D02*
X2214285Y-7985771D01*
X2214285Y-7985771D02*
X2309523Y-7938152D01*
X2309523Y-7938152D02*
X2452380Y-7938152D01*
X2452380Y-7938152D02*
X2547618Y-7985771D01*
X2547618Y-7985771D02*
X2595237Y-8081009D01*
X2595237Y-8081009D02*
X2595237Y-8604819D01*
X2928571Y-7938152D02*
X3309523Y-7938152D01*
X3071428Y-7604819D02*
X3071428Y-8461961D01*
X3071428Y-8461961D02*
X3119047Y-8557200D01*
X3119047Y-8557200D02*
X3214285Y-8604819D01*
X3214285Y-8604819D02*
X3309523Y-8604819D01*
X3642857Y-8604819D02*
X3642857Y-7938152D01*
X3642857Y-7604819D02*
X3595238Y-7652438D01*
X3595238Y-7652438D02*
X3642857Y-7700057D01*
X3642857Y-7700057D02*
X3690476Y-7652438D01*
X3690476Y-7652438D02*
X3642857Y-7604819D01*
X3642857Y-7604819D02*
X3642857Y-7700057D01*
X4119047Y-7938152D02*
X4119047Y-8604819D01*
X4119047Y-8033390D02*
X4166666Y-7985771D01*
X4166666Y-7985771D02*
X4261904Y-7938152D01*
X4261904Y-7938152D02*
X4404761Y-7938152D01*
X4404761Y-7938152D02*
X4499999Y-7985771D01*
X4499999Y-7985771D02*
X4547618Y-8081009D01*
X4547618Y-8081009D02*
X4547618Y-8604819D01*
X5452380Y-7938152D02*
X5452380Y-8747676D01*
X5452380Y-8747676D02*
X5404761Y-8842914D01*
X5404761Y-8842914D02*
X5357142Y-8890533D01*
X5357142Y-8890533D02*
X5261904Y-8938152D01*
X5261904Y-8938152D02*
X5119047Y-8938152D01*
X5119047Y-8938152D02*
X5023809Y-8890533D01*
X5452380Y-8557200D02*
X5357142Y-8604819D01*
X5357142Y-8604819D02*
X5166666Y-8604819D01*
X5166666Y-8604819D02*
X5071428Y-8557200D01*
X5071428Y-8557200D02*
X5023809Y-8509580D01*
X5023809Y-8509580D02*
X4976190Y-8414342D01*
X4976190Y-8414342D02*
X4976190Y-8128628D01*
X4976190Y-8128628D02*
X5023809Y-8033390D01*
X5023809Y-8033390D02*
X5071428Y-7985771D01*
X5071428Y-7985771D02*
X5166666Y-7938152D01*
X5166666Y-7938152D02*
X5357142Y-7938152D01*
X5357142Y-7938152D02*
X5452380Y-7985771D01*
X5928571Y-8604819D02*
X5928571Y-7604819D01*
X5928571Y-8081009D02*
X6499999Y-8081009D01*
X6499999Y-8604819D02*
X6499999Y-7604819D01*
X7119047Y-8604819D02*
X7023809Y-8557200D01*
X7023809Y-8557200D02*
X6976190Y-8509580D01*
X6976190Y-8509580D02*
X6928571Y-8414342D01*
X6928571Y-8414342D02*
X6928571Y-8128628D01*
X6928571Y-8128628D02*
X6976190Y-8033390D01*
X6976190Y-8033390D02*
X7023809Y-7985771D01*
X7023809Y-7985771D02*
X7119047Y-7938152D01*
X7119047Y-7938152D02*
X7261904Y-7938152D01*
X7261904Y-7938152D02*
X7357142Y-7985771D01*
X7357142Y-7985771D02*
X7404761Y-8033390D01*
X7404761Y-8033390D02*
X7452380Y-8128628D01*
X7452380Y-8128628D02*
X7452380Y-8414342D01*
X7452380Y-8414342D02*
X7404761Y-8509580D01*
X7404761Y-8509580D02*
X7357142Y-8557200D01*
X7357142Y-8557200D02*
X7261904Y-8604819D01*
X7261904Y-8604819D02*
X7119047Y-8604819D01*
X8023809Y-8604819D02*
X7928571Y-8557200D01*
X7928571Y-8557200D02*
X7880952Y-8461961D01*
X7880952Y-8461961D02*
X7880952Y-7604819D01*
X8785714Y-8557200D02*
X8690476Y-8604819D01*
X8690476Y-8604819D02*
X8500000Y-8604819D01*
X8500000Y-8604819D02*
X8404762Y-8557200D01*
X8404762Y-8557200D02*
X8357143Y-8461961D01*
X8357143Y-8461961D02*
X8357143Y-8081009D01*
X8357143Y-8081009D02*
X8404762Y-7985771D01*
X8404762Y-7985771D02*
X8500000Y-7938152D01*
X8500000Y-7938152D02*
X8690476Y-7938152D01*
X8690476Y-7938152D02*
X8785714Y-7985771D01*
X8785714Y-7985771D02*
X8833333Y-8081009D01*
X8833333Y-8081009D02*
X8833333Y-8176247D01*
X8833333Y-8176247D02*
X8357143Y-8271485D01*
X3238095Y-4454819D02*
X3238095Y-3454819D01*
X3238095Y-3931009D02*
X3809523Y-3931009D01*
X3809523Y-4454819D02*
X3809523Y-3454819D01*
X4809523Y-4454819D02*
X4238095Y-4454819D01*
X4523809Y-4454819D02*
X4523809Y-3454819D01*
X4523809Y-3454819D02*
X4428571Y-3597676D01*
X4428571Y-3597676D02*
X4333333Y-3692914D01*
X4333333Y-3692914D02*
X4238095Y-3740533D01*
X6523808Y-37152438D02*
X6428570Y-37104819D01*
X6428570Y-37104819D02*
X6285713Y-37104819D01*
X6285713Y-37104819D02*
X6142856Y-37152438D01*
X6142856Y-37152438D02*
X6047618Y-37247676D01*
X6047618Y-37247676D02*
X5999999Y-37342914D01*
X5999999Y-37342914D02*
X5952380Y-37533390D01*
X5952380Y-37533390D02*
X5952380Y-37676247D01*
X5952380Y-37676247D02*
X5999999Y-37866723D01*
X5999999Y-37866723D02*
X6047618Y-37961961D01*
X6047618Y-37961961D02*
X6142856Y-38057200D01*
X6142856Y-38057200D02*
X6285713Y-38104819D01*
X6285713Y-38104819D02*
X6380951Y-38104819D01*
X6380951Y-38104819D02*
X6523808Y-38057200D01*
X6523808Y-38057200D02*
X6571427Y-38009580D01*
X6571427Y-38009580D02*
X6571427Y-37676247D01*
X6571427Y-37676247D02*
X6380951Y-37676247D01*
X6999999Y-38104819D02*
X6999999Y-37438152D01*
X6999999Y-37628628D02*
X7047618Y-37533390D01*
X7047618Y-37533390D02*
X7095237Y-37485771D01*
X7095237Y-37485771D02*
X7190475Y-37438152D01*
X7190475Y-37438152D02*
X7285713Y-37438152D01*
X7999999Y-38057200D02*
X7904761Y-38104819D01*
X7904761Y-38104819D02*
X7714285Y-38104819D01*
X7714285Y-38104819D02*
X7619047Y-38057200D01*
X7619047Y-38057200D02*
X7571428Y-37961961D01*
X7571428Y-37961961D02*
X7571428Y-37581009D01*
X7571428Y-37581009D02*
X7619047Y-37485771D01*
X7619047Y-37485771D02*
X7714285Y-37438152D01*
X7714285Y-37438152D02*
X7904761Y-37438152D01*
X7904761Y-37438152D02*
X7999999Y-37485771D01*
X7999999Y-37485771D02*
X8047618Y-37581009D01*
X8047618Y-37581009D02*
X8047618Y-37676247D01*
X8047618Y-37676247D02*
X7571428Y-37771485D01*
X8857142Y-38057200D02*
X8761904Y-38104819D01*
X8761904Y-38104819D02*
X8571428Y-38104819D01*
X8571428Y-38104819D02*
X8476190Y-38057200D01*
X8476190Y-38057200D02*
X8428571Y-37961961D01*
X8428571Y-37961961D02*
X8428571Y-37581009D01*
X8428571Y-37581009D02*
X8476190Y-37485771D01*
X8476190Y-37485771D02*
X8571428Y-37438152D01*
X8571428Y-37438152D02*
X8761904Y-37438152D01*
X8761904Y-37438152D02*
X8857142Y-37485771D01*
X8857142Y-37485771D02*
X8904761Y-37581009D01*
X8904761Y-37581009D02*
X8904761Y-37676247D01*
X8904761Y-37676247D02*
X8428571Y-37771485D01*
X9333333Y-37438152D02*
X9333333Y-38104819D01*
X9333333Y-37533390D02*
X9380952Y-37485771D01*
X9380952Y-37485771D02*
X9476190Y-37438152D01*
X9476190Y-37438152D02*
X9619047Y-37438152D01*
X9619047Y-37438152D02*
X9714285Y-37485771D01*
X9714285Y-37485771D02*
X9761904Y-37581009D01*
X9761904Y-37581009D02*
X9761904Y-38104819D01*
X11285714Y-38485771D02*
X11238095Y-38438152D01*
X11238095Y-38438152D02*
X11142857Y-38295295D01*
X11142857Y-38295295D02*
X11095238Y-38200057D01*
X11095238Y-38200057D02*
X11047619Y-38057200D01*
X11047619Y-38057200D02*
X11000000Y-37819104D01*
X11000000Y-37819104D02*
X11000000Y-37628628D01*
X11000000Y-37628628D02*
X11047619Y-37390533D01*
X11047619Y-37390533D02*
X11095238Y-37247676D01*
X11095238Y-37247676D02*
X11142857Y-37152438D01*
X11142857Y-37152438D02*
X11238095Y-37009580D01*
X11238095Y-37009580D02*
X11285714Y-36961961D01*
X11666667Y-38104819D02*
X11666667Y-37104819D01*
X11666667Y-37104819D02*
X12047619Y-37104819D01*
X12047619Y-37104819D02*
X12142857Y-37152438D01*
X12142857Y-37152438D02*
X12190476Y-37200057D01*
X12190476Y-37200057D02*
X12238095Y-37295295D01*
X12238095Y-37295295D02*
X12238095Y-37438152D01*
X12238095Y-37438152D02*
X12190476Y-37533390D01*
X12190476Y-37533390D02*
X12142857Y-37581009D01*
X12142857Y-37581009D02*
X12047619Y-37628628D01*
X12047619Y-37628628D02*
X11666667Y-37628628D01*
X12571429Y-37104819D02*
X12809524Y-38104819D01*
X12809524Y-38104819D02*
X13000000Y-37390533D01*
X13000000Y-37390533D02*
X13190476Y-38104819D01*
X13190476Y-38104819D02*
X13428572Y-37104819D01*
X14380952Y-38104819D02*
X14047619Y-37628628D01*
X13809524Y-38104819D02*
X13809524Y-37104819D01*
X13809524Y-37104819D02*
X14190476Y-37104819D01*
X14190476Y-37104819D02*
X14285714Y-37152438D01*
X14285714Y-37152438D02*
X14333333Y-37200057D01*
X14333333Y-37200057D02*
X14380952Y-37295295D01*
X14380952Y-37295295D02*
X14380952Y-37438152D01*
X14380952Y-37438152D02*
X14333333Y-37533390D01*
X14333333Y-37533390D02*
X14285714Y-37581009D01*
X14285714Y-37581009D02*
X14190476Y-37628628D01*
X14190476Y-37628628D02*
X13809524Y-37628628D01*
X14714286Y-38485771D02*
X14761905Y-38438152D01*
X14761905Y-38438152D02*
X14857143Y-38295295D01*
X14857143Y-38295295D02*
X14904762Y-38200057D01*
X14904762Y-38200057D02*
X14952381Y-38057200D01*
X14952381Y-38057200D02*
X15000000Y-37819104D01*
X15000000Y-37819104D02*
X15000000Y-37628628D01*
X15000000Y-37628628D02*
X14952381Y-37390533D01*
X14952381Y-37390533D02*
X14904762Y-37247676D01*
X14904762Y-37247676D02*
X14857143Y-37152438D01*
X14857143Y-37152438D02*
X14761905Y-37009580D01*
X14761905Y-37009580D02*
X14714286Y-36961961D01*
D11*
X10130952Y-36227149D02*
X10130952Y-35727149D01*
X10130952Y-35727149D02*
X10250000Y-35727149D01*
X10250000Y-35727149D02*
X10321428Y-35750959D01*
X10321428Y-35750959D02*
X10369047Y-35798578D01*
X10369047Y-35798578D02*
X10392857Y-35846197D01*
X10392857Y-35846197D02*
X10416666Y-35941435D01*
X10416666Y-35941435D02*
X10416666Y-36012863D01*
X10416666Y-36012863D02*
X10392857Y-36108101D01*
X10392857Y-36108101D02*
X10369047Y-36155720D01*
X10369047Y-36155720D02*
X10321428Y-36203340D01*
X10321428Y-36203340D02*
X10250000Y-36227149D01*
X10250000Y-36227149D02*
X10130952Y-36227149D01*
X10892857Y-36227149D02*
X10607143Y-36227149D01*
X10750000Y-36227149D02*
X10750000Y-35727149D01*
X10750000Y-35727149D02*
X10702381Y-35798578D01*
X10702381Y-35798578D02*
X10654762Y-35846197D01*
X10654762Y-35846197D02*
X10607143Y-35870006D01*
D10*
X19333333Y-23854819D02*
X19333333Y-22854819D01*
X19333333Y-22854819D02*
X19904761Y-23854819D01*
X19904761Y-23854819D02*
X19904761Y-22854819D01*
X20380952Y-23331009D02*
X20714285Y-23331009D01*
X20857142Y-23854819D02*
X20380952Y-23854819D01*
X20380952Y-23854819D02*
X20380952Y-22854819D01*
X20380952Y-22854819D02*
X20857142Y-22854819D01*
X21761904Y-22854819D02*
X21285714Y-22854819D01*
X21285714Y-22854819D02*
X21238095Y-23331009D01*
X21238095Y-23331009D02*
X21285714Y-23283390D01*
X21285714Y-23283390D02*
X21380952Y-23235771D01*
X21380952Y-23235771D02*
X21619047Y-23235771D01*
X21619047Y-23235771D02*
X21714285Y-23283390D01*
X21714285Y-23283390D02*
X21761904Y-23331009D01*
X21761904Y-23331009D02*
X21809523Y-23426247D01*
X21809523Y-23426247D02*
X21809523Y-23664342D01*
X21809523Y-23664342D02*
X21761904Y-23759580D01*
X21761904Y-23759580D02*
X21714285Y-23807200D01*
X21714285Y-23807200D02*
X21619047Y-23854819D01*
X21619047Y-23854819D02*
X21380952Y-23854819D01*
X21380952Y-23854819D02*
X21285714Y-23807200D01*
X21285714Y-23807200D02*
X21238095Y-23759580D01*
X22714285Y-22854819D02*
X22238095Y-22854819D01*
X22238095Y-22854819D02*
X22190476Y-23331009D01*
X22190476Y-23331009D02*
X22238095Y-23283390D01*
X22238095Y-23283390D02*
X22333333Y-23235771D01*
X22333333Y-23235771D02*
X22571428Y-23235771D01*
X22571428Y-23235771D02*
X22666666Y-23283390D01*
X22666666Y-23283390D02*
X22714285Y-23331009D01*
X22714285Y-23331009D02*
X22761904Y-23426247D01*
X22761904Y-23426247D02*
X22761904Y-23664342D01*
X22761904Y-23664342D02*
X22714285Y-23759580D01*
X22714285Y-23759580D02*
X22666666Y-23807200D01*
X22666666Y-23807200D02*
X22571428Y-23854819D01*
X22571428Y-23854819D02*
X22333333Y-23854819D01*
X22333333Y-23854819D02*
X22238095Y-23807200D01*
X22238095Y-23807200D02*
X22190476Y-23759580D01*
X23666666Y-22854819D02*
X23190476Y-22854819D01*
X23190476Y-22854819D02*
X23142857Y-23331009D01*
X23142857Y-23331009D02*
X23190476Y-23283390D01*
X23190476Y-23283390D02*
X23285714Y-23235771D01*
X23285714Y-23235771D02*
X23523809Y-23235771D01*
X23523809Y-23235771D02*
X23619047Y-23283390D01*
X23619047Y-23283390D02*
X23666666Y-23331009D01*
X23666666Y-23331009D02*
X23714285Y-23426247D01*
X23714285Y-23426247D02*
X23714285Y-23664342D01*
X23714285Y-23664342D02*
X23666666Y-23759580D01*
X23666666Y-23759580D02*
X23619047Y-23807200D01*
X23619047Y-23807200D02*
X23523809Y-23854819D01*
X23523809Y-23854819D02*
X23285714Y-23854819D01*
X23285714Y-23854819D02*
X23190476Y-23807200D01*
X23190476Y-23807200D02*
X23142857Y-23759580D01*
X24142857Y-23854819D02*
X24142857Y-22854819D01*
X24142857Y-22854819D02*
X24380952Y-22854819D01*
X24380952Y-22854819D02*
X24523809Y-22902438D01*
X24523809Y-22902438D02*
X24619047Y-22997676D01*
X24619047Y-22997676D02*
X24666666Y-23092914D01*
X24666666Y-23092914D02*
X24714285Y-23283390D01*
X24714285Y-23283390D02*
X24714285Y-23426247D01*
X24714285Y-23426247D02*
X24666666Y-23616723D01*
X24666666Y-23616723D02*
X24619047Y-23711961D01*
X24619047Y-23711961D02*
X24523809Y-23807200D01*
X24523809Y-23807200D02*
X24380952Y-23854819D01*
X24380952Y-23854819D02*
X24142857Y-23854819D01*
X21253333Y-19465566D02*
X21253333Y-20258900D01*
X21253333Y-20258900D02*
X21300000Y-20352233D01*
X21300000Y-20352233D02*
X21346666Y-20398900D01*
X21346666Y-20398900D02*
X21440000Y-20445566D01*
X21440000Y-20445566D02*
X21626666Y-20445566D01*
X21626666Y-20445566D02*
X21720000Y-20398900D01*
X21720000Y-20398900D02*
X21766666Y-20352233D01*
X21766666Y-20352233D02*
X21813333Y-20258900D01*
X21813333Y-20258900D02*
X21813333Y-19465566D01*
X22793333Y-20445566D02*
X22233333Y-20445566D01*
X22513333Y-20445566D02*
X22513333Y-19465566D01*
X22513333Y-19465566D02*
X22420000Y-19605566D01*
X22420000Y-19605566D02*
X22326667Y-19698900D01*
X22326667Y-19698900D02*
X22233333Y-19745566D01*
X31500000Y-29569104D02*
X31976190Y-29569104D01*
X31404762Y-29854819D02*
X31738095Y-28854819D01*
X31738095Y-28854819D02*
X32071428Y-29854819D01*
X32261905Y-28854819D02*
X32833333Y-28854819D01*
X32547619Y-29854819D02*
X32547619Y-28854819D01*
X33023810Y-29188152D02*
X33404762Y-29188152D01*
X33166667Y-28854819D02*
X33166667Y-29711961D01*
X33166667Y-29711961D02*
X33214286Y-29807200D01*
X33214286Y-29807200D02*
X33309524Y-29854819D01*
X33309524Y-29854819D02*
X33404762Y-29854819D01*
X33738096Y-29854819D02*
X33738096Y-29188152D01*
X33738096Y-28854819D02*
X33690477Y-28902438D01*
X33690477Y-28902438D02*
X33738096Y-28950057D01*
X33738096Y-28950057D02*
X33785715Y-28902438D01*
X33785715Y-28902438D02*
X33738096Y-28854819D01*
X33738096Y-28854819D02*
X33738096Y-28950057D01*
X34214286Y-29188152D02*
X34214286Y-29854819D01*
X34214286Y-29283390D02*
X34261905Y-29235771D01*
X34261905Y-29235771D02*
X34357143Y-29188152D01*
X34357143Y-29188152D02*
X34500000Y-29188152D01*
X34500000Y-29188152D02*
X34595238Y-29235771D01*
X34595238Y-29235771D02*
X34642857Y-29331009D01*
X34642857Y-29331009D02*
X34642857Y-29854819D01*
X35023810Y-29188152D02*
X35261905Y-29854819D01*
X35500000Y-29188152D02*
X35261905Y-29854819D01*
X35261905Y-29854819D02*
X35166667Y-30092914D01*
X35166667Y-30092914D02*
X35119048Y-30140533D01*
X35119048Y-30140533D02*
X35023810Y-30188152D01*
X36023810Y-29283390D02*
X35928572Y-29235771D01*
X35928572Y-29235771D02*
X35880953Y-29188152D01*
X35880953Y-29188152D02*
X35833334Y-29092914D01*
X35833334Y-29092914D02*
X35833334Y-29045295D01*
X35833334Y-29045295D02*
X35880953Y-28950057D01*
X35880953Y-28950057D02*
X35928572Y-28902438D01*
X35928572Y-28902438D02*
X36023810Y-28854819D01*
X36023810Y-28854819D02*
X36214286Y-28854819D01*
X36214286Y-28854819D02*
X36309524Y-28902438D01*
X36309524Y-28902438D02*
X36357143Y-28950057D01*
X36357143Y-28950057D02*
X36404762Y-29045295D01*
X36404762Y-29045295D02*
X36404762Y-29092914D01*
X36404762Y-29092914D02*
X36357143Y-29188152D01*
X36357143Y-29188152D02*
X36309524Y-29235771D01*
X36309524Y-29235771D02*
X36214286Y-29283390D01*
X36214286Y-29283390D02*
X36023810Y-29283390D01*
X36023810Y-29283390D02*
X35928572Y-29331009D01*
X35928572Y-29331009D02*
X35880953Y-29378628D01*
X35880953Y-29378628D02*
X35833334Y-29473866D01*
X35833334Y-29473866D02*
X35833334Y-29664342D01*
X35833334Y-29664342D02*
X35880953Y-29759580D01*
X35880953Y-29759580D02*
X35928572Y-29807200D01*
X35928572Y-29807200D02*
X36023810Y-29854819D01*
X36023810Y-29854819D02*
X36214286Y-29854819D01*
X36214286Y-29854819D02*
X36309524Y-29807200D01*
X36309524Y-29807200D02*
X36357143Y-29759580D01*
X36357143Y-29759580D02*
X36404762Y-29664342D01*
X36404762Y-29664342D02*
X36404762Y-29473866D01*
X36404762Y-29473866D02*
X36357143Y-29378628D01*
X36357143Y-29378628D02*
X36309524Y-29331009D01*
X36309524Y-29331009D02*
X36214286Y-29283390D01*
X37309524Y-28854819D02*
X36833334Y-28854819D01*
X36833334Y-28854819D02*
X36785715Y-29331009D01*
X36785715Y-29331009D02*
X36833334Y-29283390D01*
X36833334Y-29283390D02*
X36928572Y-29235771D01*
X36928572Y-29235771D02*
X37166667Y-29235771D01*
X37166667Y-29235771D02*
X37261905Y-29283390D01*
X37261905Y-29283390D02*
X37309524Y-29331009D01*
X37309524Y-29331009D02*
X37357143Y-29426247D01*
X37357143Y-29426247D02*
X37357143Y-29664342D01*
X37357143Y-29664342D02*
X37309524Y-29759580D01*
X37309524Y-29759580D02*
X37261905Y-29807200D01*
X37261905Y-29807200D02*
X37166667Y-29854819D01*
X37166667Y-29854819D02*
X36928572Y-29854819D01*
X36928572Y-29854819D02*
X36833334Y-29807200D01*
X36833334Y-29807200D02*
X36785715Y-29759580D01*
X37785715Y-29473866D02*
X38547620Y-29473866D01*
X38976191Y-28950057D02*
X39023810Y-28902438D01*
X39023810Y-28902438D02*
X39119048Y-28854819D01*
X39119048Y-28854819D02*
X39357143Y-28854819D01*
X39357143Y-28854819D02*
X39452381Y-28902438D01*
X39452381Y-28902438D02*
X39500000Y-28950057D01*
X39500000Y-28950057D02*
X39547619Y-29045295D01*
X39547619Y-29045295D02*
X39547619Y-29140533D01*
X39547619Y-29140533D02*
X39500000Y-29283390D01*
X39500000Y-29283390D02*
X38928572Y-29854819D01*
X38928572Y-29854819D02*
X39547619Y-29854819D01*
X40166667Y-28854819D02*
X40261905Y-28854819D01*
X40261905Y-28854819D02*
X40357143Y-28902438D01*
X40357143Y-28902438D02*
X40404762Y-28950057D01*
X40404762Y-28950057D02*
X40452381Y-29045295D01*
X40452381Y-29045295D02*
X40500000Y-29235771D01*
X40500000Y-29235771D02*
X40500000Y-29473866D01*
X40500000Y-29473866D02*
X40452381Y-29664342D01*
X40452381Y-29664342D02*
X40404762Y-29759580D01*
X40404762Y-29759580D02*
X40357143Y-29807200D01*
X40357143Y-29807200D02*
X40261905Y-29854819D01*
X40261905Y-29854819D02*
X40166667Y-29854819D01*
X40166667Y-29854819D02*
X40071429Y-29807200D01*
X40071429Y-29807200D02*
X40023810Y-29759580D01*
X40023810Y-29759580D02*
X39976191Y-29664342D01*
X39976191Y-29664342D02*
X39928572Y-29473866D01*
X39928572Y-29473866D02*
X39928572Y-29235771D01*
X39928572Y-29235771D02*
X39976191Y-29045295D01*
X39976191Y-29045295D02*
X40023810Y-28950057D01*
X40023810Y-28950057D02*
X40071429Y-28902438D01*
X40071429Y-28902438D02*
X40166667Y-28854819D01*
X40880953Y-29807200D02*
X41023810Y-29854819D01*
X41023810Y-29854819D02*
X41261905Y-29854819D01*
X41261905Y-29854819D02*
X41357143Y-29807200D01*
X41357143Y-29807200D02*
X41404762Y-29759580D01*
X41404762Y-29759580D02*
X41452381Y-29664342D01*
X41452381Y-29664342D02*
X41452381Y-29569104D01*
X41452381Y-29569104D02*
X41404762Y-29473866D01*
X41404762Y-29473866D02*
X41357143Y-29426247D01*
X41357143Y-29426247D02*
X41261905Y-29378628D01*
X41261905Y-29378628D02*
X41071429Y-29331009D01*
X41071429Y-29331009D02*
X40976191Y-29283390D01*
X40976191Y-29283390D02*
X40928572Y-29235771D01*
X40928572Y-29235771D02*
X40880953Y-29140533D01*
X40880953Y-29140533D02*
X40880953Y-29045295D01*
X40880953Y-29045295D02*
X40928572Y-28950057D01*
X40928572Y-28950057D02*
X40976191Y-28902438D01*
X40976191Y-28902438D02*
X41071429Y-28854819D01*
X41071429Y-28854819D02*
X41309524Y-28854819D01*
X41309524Y-28854819D02*
X41452381Y-28902438D01*
X41880953Y-28854819D02*
X41880953Y-29664342D01*
X41880953Y-29664342D02*
X41928572Y-29759580D01*
X41928572Y-29759580D02*
X41976191Y-29807200D01*
X41976191Y-29807200D02*
X42071429Y-29854819D01*
X42071429Y-29854819D02*
X42261905Y-29854819D01*
X42261905Y-29854819D02*
X42357143Y-29807200D01*
X42357143Y-29807200D02*
X42404762Y-29759580D01*
X42404762Y-29759580D02*
X42452381Y-29664342D01*
X42452381Y-29664342D02*
X42452381Y-28854819D01*
X36253333Y-25465566D02*
X36253333Y-26258900D01*
X36253333Y-26258900D02*
X36300000Y-26352233D01*
X36300000Y-26352233D02*
X36346666Y-26398900D01*
X36346666Y-26398900D02*
X36440000Y-26445566D01*
X36440000Y-26445566D02*
X36626666Y-26445566D01*
X36626666Y-26445566D02*
X36720000Y-26398900D01*
X36720000Y-26398900D02*
X36766666Y-26352233D01*
X36766666Y-26352233D02*
X36813333Y-26258900D01*
X36813333Y-26258900D02*
X36813333Y-25465566D01*
X37233333Y-25558900D02*
X37280000Y-25512233D01*
X37280000Y-25512233D02*
X37373333Y-25465566D01*
X37373333Y-25465566D02*
X37606667Y-25465566D01*
X37606667Y-25465566D02*
X37700000Y-25512233D01*
X37700000Y-25512233D02*
X37746667Y-25558900D01*
X37746667Y-25558900D02*
X37793333Y-25652233D01*
X37793333Y-25652233D02*
X37793333Y-25745566D01*
X37793333Y-25745566D02*
X37746667Y-25885566D01*
X37746667Y-25885566D02*
X37186667Y-26445566D01*
X37186667Y-26445566D02*
X37793333Y-26445566D01*
X21309523Y-14438152D02*
X21309523Y-15104819D01*
X21071428Y-14057200D02*
X20833333Y-14771485D01*
X20833333Y-14771485D02*
X21452380Y-14771485D01*
X21738095Y-14104819D02*
X22404761Y-14104819D01*
X22404761Y-14104819D02*
X21976190Y-15104819D01*
X22785714Y-15104819D02*
X22785714Y-14104819D01*
X22880952Y-14723866D02*
X23166666Y-15104819D01*
X23166666Y-14438152D02*
X22785714Y-14819104D01*
D11*
X21916666Y-13227149D02*
X21750000Y-12989054D01*
X21630952Y-13227149D02*
X21630952Y-12727149D01*
X21630952Y-12727149D02*
X21821428Y-12727149D01*
X21821428Y-12727149D02*
X21869047Y-12750959D01*
X21869047Y-12750959D02*
X21892857Y-12774768D01*
X21892857Y-12774768D02*
X21916666Y-12822387D01*
X21916666Y-12822387D02*
X21916666Y-12893816D01*
X21916666Y-12893816D02*
X21892857Y-12941435D01*
X21892857Y-12941435D02*
X21869047Y-12965244D01*
X21869047Y-12965244D02*
X21821428Y-12989054D01*
X21821428Y-12989054D02*
X21630952Y-12989054D01*
X22345238Y-12727149D02*
X22250000Y-12727149D01*
X22250000Y-12727149D02*
X22202381Y-12750959D01*
X22202381Y-12750959D02*
X22178571Y-12774768D01*
X22178571Y-12774768D02*
X22130952Y-12846197D01*
X22130952Y-12846197D02*
X22107143Y-12941435D01*
X22107143Y-12941435D02*
X22107143Y-13131911D01*
X22107143Y-13131911D02*
X22130952Y-13179530D01*
X22130952Y-13179530D02*
X22154762Y-13203340D01*
X22154762Y-13203340D02*
X22202381Y-13227149D01*
X22202381Y-13227149D02*
X22297619Y-13227149D01*
X22297619Y-13227149D02*
X22345238Y-13203340D01*
X22345238Y-13203340D02*
X22369047Y-13179530D01*
X22369047Y-13179530D02*
X22392857Y-13131911D01*
X22392857Y-13131911D02*
X22392857Y-13012863D01*
X22392857Y-13012863D02*
X22369047Y-12965244D01*
X22369047Y-12965244D02*
X22345238Y-12941435D01*
X22345238Y-12941435D02*
X22297619Y-12917625D01*
X22297619Y-12917625D02*
X22202381Y-12917625D01*
X22202381Y-12917625D02*
X22154762Y-12941435D01*
X22154762Y-12941435D02*
X22130952Y-12965244D01*
X22130952Y-12965244D02*
X22107143Y-13012863D01*
D12*
G04 #@! TO.C,C1*
X13000000Y-15375000D02*
X15000000Y-15375000D01*
X13000000Y-16625000D02*
X13000000Y-15375000D01*
X15000000Y-15375000D02*
X15000000Y-16625000D01*
X15000000Y-16625000D02*
X13000000Y-16625000D01*
G04 #@! TO.C,J1*
X650000Y-20530000D02*
X650000Y-29470000D01*
X7950000Y-20530000D02*
X650000Y-20530000D01*
X7950000Y-20530000D02*
X7950000Y-29470000D01*
X7950000Y-29470000D02*
X650000Y-29470000D01*
G04 #@! TO.C,D2*
X19000000Y-35700000D02*
X19000000Y-36600000D01*
X19000000Y-36600000D02*
X21000000Y-36600000D01*
X19300000Y-35400000D02*
X19000000Y-35700000D01*
X21000000Y-35400000D02*
X19300000Y-35400000D01*
X21000000Y-36600000D02*
X21000000Y-35400000D01*
G04 #@! TO.C,J3*
X22730000Y-42730000D02*
X32890000Y-42730000D01*
X22730000Y-44635000D02*
X22730000Y-42730000D01*
X23365000Y-45270000D02*
X22730000Y-44635000D01*
X32890000Y-42730000D02*
X32890000Y-45270000D01*
X32890000Y-45270000D02*
X23365000Y-45270000D01*
G04 #@! TO.C,R2*
X13000000Y-26125000D02*
X15000000Y-26125000D01*
X13000000Y-27375000D02*
X13000000Y-26125000D01*
X15000000Y-26125000D02*
X15000000Y-27375000D01*
X15000000Y-27375000D02*
X13000000Y-27375000D01*
G04 #@! TO.C,R4*
X23000000Y-35375000D02*
X25000000Y-35375000D01*
X23000000Y-36625000D02*
X23000000Y-35375000D01*
X25000000Y-35375000D02*
X25000000Y-36625000D01*
X25000000Y-36625000D02*
X23000000Y-36625000D01*
G04 #@! TO.C,R7*
X33900000Y-19800000D02*
X35150000Y-19800000D01*
X33900000Y-21800000D02*
X33900000Y-19800000D01*
X35150000Y-19800000D02*
X35150000Y-21800000D01*
X35150000Y-21800000D02*
X33900000Y-21800000D01*
G04 #@! TO.C,C2*
X15000000Y-12375000D02*
X17000000Y-12375000D01*
X15000000Y-13625000D02*
X15000000Y-12375000D01*
X17000000Y-12375000D02*
X17000000Y-13625000D01*
X17000000Y-13625000D02*
X15000000Y-13625000D01*
G04 #@! TO.C,D3*
X30000000Y-35700000D02*
X30000000Y-36600000D01*
X30000000Y-36600000D02*
X32000000Y-36600000D01*
X30300000Y-35400000D02*
X30000000Y-35700000D01*
X32000000Y-35400000D02*
X30300000Y-35400000D01*
X32000000Y-36600000D02*
X32000000Y-35400000D01*
G04 #@! TO.C,C3*
X27000000Y-21375000D02*
X29000000Y-21375000D01*
X27000000Y-22625000D02*
X27000000Y-21375000D01*
X29000000Y-21375000D02*
X29000000Y-22625000D01*
X29000000Y-22625000D02*
X27000000Y-22625000D01*
G04 #@! TO.C,C4*
X27000000Y-17375000D02*
X29000000Y-17375000D01*
X27000000Y-18625000D02*
X27000000Y-17375000D01*
X29000000Y-17375000D02*
X29000000Y-18625000D01*
X29000000Y-18625000D02*
X27000000Y-18625000D01*
G04 #@! TO.C,R3*
X13500000Y-35375000D02*
X15500000Y-35375000D01*
X13500000Y-36625000D02*
X13500000Y-35375000D01*
X15500000Y-35375000D02*
X15500000Y-36625000D01*
X15500000Y-36625000D02*
X13500000Y-36625000D01*
G04 #@! TO.C,C5*
X42500000Y-22875000D02*
X44500000Y-22875000D01*
X42500000Y-24125000D02*
X42500000Y-22875000D01*
X44500000Y-22875000D02*
X44500000Y-24125000D01*
X44500000Y-24125000D02*
X42500000Y-24125000D01*
G04 #@! TO.C,R8*
X34000000Y-35375000D02*
X36000000Y-35375000D01*
X34000000Y-36625000D02*
X34000000Y-35375000D01*
X36000000Y-35375000D02*
X36000000Y-36625000D01*
X36000000Y-36625000D02*
X34000000Y-36625000D01*
G04 #@! TO.C,J2*
X35730000Y-11000000D02*
X37000000Y-9730000D01*
X35730000Y-17350000D02*
X35730000Y-11000000D01*
X37000000Y-9730000D02*
X40810000Y-9730000D01*
X40810000Y-9730000D02*
X40810000Y-17350000D01*
X40810000Y-17350000D02*
X35730000Y-17350000D01*
G04 #@! TO.C,R5*
X21000000Y-8375000D02*
X23000000Y-8375000D01*
X21000000Y-9625000D02*
X21000000Y-8375000D01*
X23000000Y-8375000D02*
X23000000Y-9625000D01*
X23000000Y-9625000D02*
X21000000Y-9625000D01*
G04 #@! TO.C,R1*
X13000000Y-23125000D02*
X15000000Y-23125000D01*
X13000000Y-24375000D02*
X13000000Y-23125000D01*
X15000000Y-23125000D02*
X15000000Y-24375000D01*
X15000000Y-24375000D02*
X13000000Y-24375000D01*
G04 #@! TO.C,D1*
X9500000Y-35700000D02*
X9500000Y-36600000D01*
X9500000Y-36600000D02*
X11500000Y-36600000D01*
X9800000Y-35400000D02*
X9500000Y-35700000D01*
X11500000Y-35400000D02*
X9800000Y-35400000D01*
X11500000Y-36600000D02*
X11500000Y-35400000D01*
G04 #@! TO.C,U1*
X20050000Y-18525000D02*
X21025000Y-17550000D01*
X20050000Y-22450000D02*
X20050000Y-18525000D01*
X21025000Y-17550000D02*
X23950000Y-17550000D01*
X23950000Y-17550000D02*
X23950000Y-22450000D01*
X23950000Y-22450000D02*
X20050000Y-22450000D01*
G04 #@! TO.C,U2*
X35050000Y-24525000D02*
X36025000Y-23550000D01*
X35050000Y-28450000D02*
X35050000Y-24525000D01*
X36025000Y-23550000D02*
X38950000Y-23550000D01*
X38950000Y-23550000D02*
X38950000Y-28450000D01*
X38950000Y-28450000D02*
X35050000Y-28450000D01*
G04 #@! TO.C,R6*
X21000000Y-12375000D02*
X23000000Y-12375000D01*
X21000000Y-13625000D02*
X21000000Y-12375000D01*
X23000000Y-12375000D02*
X23000000Y-13625000D01*
X23000000Y-13625000D02*
X21000000Y-13625000D01*
G04 #@! TD*
M02*
