G04 #@! TF.GenerationSoftware,KiCad,Pcbnew,9.0.2+dfsg-1*
G04 #@! TF.CreationDate,2026-09-14T04:58:19+07:00*
G04 #@! TF.ProjectId,attiny85_timer,61747469-6e79-4383-955f-74696d65722e,rev?*
G04 #@! TF.SameCoordinates,Original*
G04 #@! TF.FileFunction,Soldermask,Top*
G04 #@! TF.FilePolarity,Negative*
%FSLAX46Y46*%
G04 Gerber Fmt 4.6, Leading zero omitted, Abs format (unit mm)*
G04 Created by KiCad (PCBNEW 9.0.2+dfsg-1) date 2026-09-14 04:58:19*
%MOMM*%
%LPD*%
G01*
G04 APERTURE LIST*
G04 APERTURE END LIST*
G36*
X4373513Y-44444208D02*
G01*
X4612293Y-44521793D01*
X4835998Y-44635776D01*
X5039117Y-44783350D01*
X5216650Y-44960883D01*
X5364224Y-45164002D01*
X5478207Y-45387707D01*
X5555792Y-45626487D01*
X5595068Y-45874465D01*
X5595068Y-46125535D01*
X5555792Y-46373513D01*
X5478207Y-46612293D01*
X5364224Y-46835998D01*
X5216650Y-47039117D01*
X5039117Y-47216650D01*
X4835998Y-47364224D01*
X4612293Y-47478207D01*
X4373513Y-47555792D01*
X4125535Y-47595068D01*
X3874465Y-47595068D01*
X3626487Y-47555792D01*
X3387707Y-47478207D01*
X3164002Y-47364224D01*
X2960883Y-47216650D01*
X2783350Y-47039117D01*
X2635776Y-46835998D01*
X2521793Y-46612293D01*
X2444208Y-46373513D01*
X2404932Y-46125535D01*
X2404932Y-45874465D01*
X2444208Y-45626487D01*
X2521793Y-45387707D01*
X2635776Y-45164002D01*
X2783350Y-44960883D01*
X2960883Y-44783350D01*
X3164002Y-44635776D01*
X3387707Y-44521793D01*
X3626487Y-44444208D01*
X3874465Y-44404932D01*
X4125535Y-44404932D01*
X4373513Y-44444208D01*
G37*
G36*
X46373513Y-44444208D02*
G01*
X46612293Y-44521793D01*
X46835998Y-44635776D01*
X47039117Y-44783350D01*
X47216650Y-44960883D01*
X47364224Y-45164002D01*
X47478207Y-45387707D01*
X47555792Y-45626487D01*
X47595068Y-45874465D01*
X47595068Y-46125535D01*
X47555792Y-46373513D01*
X47478207Y-46612293D01*
X47364224Y-46835998D01*
X47216650Y-47039117D01*
X47039117Y-47216650D01*
X46835998Y-47364224D01*
X46612293Y-47478207D01*
X46373513Y-47555792D01*
X46125535Y-47595068D01*
X45874465Y-47595068D01*
X45626487Y-47555792D01*
X45387707Y-47478207D01*
X45164002Y-47364224D01*
X44960883Y-47216650D01*
X44783350Y-47039117D01*
X44635776Y-46835998D01*
X44521793Y-46612293D01*
X44444208Y-46373513D01*
X44404932Y-46125535D01*
X44404932Y-45874465D01*
X44444208Y-45626487D01*
X44521793Y-45387707D01*
X44635776Y-45164002D01*
X44783350Y-44960883D01*
X44960883Y-44783350D01*
X45164002Y-44635776D01*
X45387707Y-44521793D01*
X45626487Y-44444208D01*
X45874465Y-44404932D01*
X46125535Y-44404932D01*
X46373513Y-44444208D01*
G37*
G36*
X24850000Y-44850000D02*
G01*
X23150000Y-44850000D01*
X23150000Y-43150000D01*
X24850000Y-43150000D01*
X24850000Y-44850000D01*
G37*
G36*
X26786742Y-43186601D02*
G01*
X26940687Y-43250367D01*
X27079234Y-43342941D01*
X27197059Y-43460766D01*
X27289633Y-43599313D01*
X27353399Y-43753258D01*
X27385907Y-43916685D01*
X27385907Y-44083315D01*
X27353399Y-44246742D01*
X27289633Y-44400687D01*
X27197059Y-44539234D01*
X27079234Y-44657059D01*
X26940687Y-44749633D01*
X26786742Y-44813399D01*
X26623315Y-44845907D01*
X26456685Y-44845907D01*
X26293258Y-44813399D01*
X26139313Y-44749633D01*
X26000766Y-44657059D01*
X25882941Y-44539234D01*
X25790367Y-44400687D01*
X25726601Y-44246742D01*
X25694093Y-44083315D01*
X25694093Y-43916685D01*
X25726601Y-43753258D01*
X25790367Y-43599313D01*
X25882941Y-43460766D01*
X26000766Y-43342941D01*
X26139313Y-43250367D01*
X26293258Y-43186601D01*
X26456685Y-43154093D01*
X26623315Y-43154093D01*
X26786742Y-43186601D01*
G37*
G36*
X29326742Y-43186601D02*
G01*
X29480687Y-43250367D01*
X29619234Y-43342941D01*
X29737059Y-43460766D01*
X29829633Y-43599313D01*
X29893399Y-43753258D01*
X29925907Y-43916685D01*
X29925907Y-44083315D01*
X29893399Y-44246742D01*
X29829633Y-44400687D01*
X29737059Y-44539234D01*
X29619234Y-44657059D01*
X29480687Y-44749633D01*
X29326742Y-44813399D01*
X29163315Y-44845907D01*
X28996685Y-44845907D01*
X28833258Y-44813399D01*
X28679313Y-44749633D01*
X28540766Y-44657059D01*
X28422941Y-44539234D01*
X28330367Y-44400687D01*
X28266601Y-44246742D01*
X28234093Y-44083315D01*
X28234093Y-43916685D01*
X28266601Y-43753258D01*
X28330367Y-43599313D01*
X28422941Y-43460766D01*
X28540766Y-43342941D01*
X28679313Y-43250367D01*
X28833258Y-43186601D01*
X28996685Y-43154093D01*
X29163315Y-43154093D01*
X29326742Y-43186601D01*
G37*
G36*
X31866742Y-43186601D02*
G01*
X32020687Y-43250367D01*
X32159234Y-43342941D01*
X32277059Y-43460766D01*
X32369633Y-43599313D01*
X32433399Y-43753258D01*
X32465907Y-43916685D01*
X32465907Y-44083315D01*
X32433399Y-44246742D01*
X32369633Y-44400687D01*
X32277059Y-44539234D01*
X32159234Y-44657059D01*
X32020687Y-44749633D01*
X31866742Y-44813399D01*
X31703315Y-44845907D01*
X31536685Y-44845907D01*
X31373258Y-44813399D01*
X31219313Y-44749633D01*
X31080766Y-44657059D01*
X30962941Y-44539234D01*
X30870367Y-44400687D01*
X30806601Y-44246742D01*
X30774093Y-44083315D01*
X30774093Y-43916685D01*
X30806601Y-43753258D01*
X30870367Y-43599313D01*
X30962941Y-43460766D01*
X31080766Y-43342941D01*
X31219313Y-43250367D01*
X31373258Y-43186601D01*
X31536685Y-43154093D01*
X31703315Y-43154093D01*
X31866742Y-43186601D01*
G37*
G36*
X9809481Y-35300642D02*
G01*
X9860592Y-35306572D01*
X9878054Y-35314282D01*
X9899529Y-35318554D01*
X9922517Y-35333914D01*
X9943608Y-35343227D01*
X9958013Y-35357632D01*
X9978607Y-35371393D01*
X9992367Y-35391986D01*
X10006772Y-35406391D01*
X10016083Y-35427480D01*
X10031446Y-35450471D01*
X10035717Y-35471946D01*
X10043426Y-35489404D01*
X10049353Y-35540497D01*
X10050000Y-35543750D01*
X10050000Y-36456250D01*
X10049354Y-36459493D01*
X10043427Y-36510592D01*
X10035718Y-36528050D01*
X10031446Y-36549529D01*
X10016082Y-36572522D01*
X10006772Y-36593608D01*
X9992369Y-36608010D01*
X9978607Y-36628607D01*
X9958010Y-36642369D01*
X9943608Y-36656772D01*
X9922521Y-36666082D01*
X9899529Y-36681446D01*
X9878051Y-36685717D01*
X9860595Y-36693426D01*
X9809504Y-36699352D01*
X9806250Y-36700000D01*
X9318750Y-36700000D01*
X9315508Y-36699355D01*
X9264407Y-36693427D01*
X9246947Y-36685717D01*
X9225471Y-36681446D01*
X9202479Y-36666083D01*
X9181391Y-36656772D01*
X9166986Y-36642367D01*
X9146393Y-36628607D01*
X9132632Y-36608013D01*
X9118227Y-36593608D01*
X9108914Y-36572517D01*
X9093554Y-36549529D01*
X9089282Y-36528056D01*
X9081573Y-36510595D01*
X9075644Y-36459492D01*
X9075000Y-36456250D01*
X9075000Y-35543750D01*
X9075642Y-35540520D01*
X9081572Y-35489407D01*
X9089282Y-35471943D01*
X9093554Y-35450471D01*
X9108913Y-35427484D01*
X9118227Y-35406391D01*
X9132635Y-35391982D01*
X9146393Y-35371393D01*
X9166982Y-35357635D01*
X9181391Y-35343227D01*
X9202484Y-35333913D01*
X9225471Y-35318554D01*
X9246942Y-35314283D01*
X9264404Y-35306573D01*
X9315509Y-35300644D01*
X9318750Y-35300000D01*
X9806250Y-35300000D01*
X9809481Y-35300642D01*
G37*
G36*
X11684481Y-35300642D02*
G01*
X11735592Y-35306572D01*
X11753054Y-35314282D01*
X11774529Y-35318554D01*
X11797517Y-35333914D01*
X11818608Y-35343227D01*
X11833013Y-35357632D01*
X11853607Y-35371393D01*
X11867367Y-35391986D01*
X11881772Y-35406391D01*
X11891083Y-35427480D01*
X11906446Y-35450471D01*
X11910717Y-35471946D01*
X11918426Y-35489404D01*
X11924353Y-35540497D01*
X11925000Y-35543750D01*
X11925000Y-36456250D01*
X11924354Y-36459493D01*
X11918427Y-36510592D01*
X11910718Y-36528050D01*
X11906446Y-36549529D01*
X11891082Y-36572522D01*
X11881772Y-36593608D01*
X11867369Y-36608010D01*
X11853607Y-36628607D01*
X11833010Y-36642369D01*
X11818608Y-36656772D01*
X11797521Y-36666082D01*
X11774529Y-36681446D01*
X11753051Y-36685717D01*
X11735595Y-36693426D01*
X11684504Y-36699352D01*
X11681250Y-36700000D01*
X11193750Y-36700000D01*
X11190508Y-36699355D01*
X11139407Y-36693427D01*
X11121947Y-36685717D01*
X11100471Y-36681446D01*
X11077479Y-36666083D01*
X11056391Y-36656772D01*
X11041986Y-36642367D01*
X11021393Y-36628607D01*
X11007632Y-36608013D01*
X10993227Y-36593608D01*
X10983914Y-36572517D01*
X10968554Y-36549529D01*
X10964282Y-36528056D01*
X10956573Y-36510595D01*
X10950644Y-36459492D01*
X10950000Y-36456250D01*
X10950000Y-35543750D01*
X10950642Y-35540520D01*
X10956572Y-35489407D01*
X10964282Y-35471943D01*
X10968554Y-35450471D01*
X10983913Y-35427484D01*
X10993227Y-35406391D01*
X11007635Y-35391982D01*
X11021393Y-35371393D01*
X11041982Y-35357635D01*
X11056391Y-35343227D01*
X11077484Y-35333913D01*
X11100471Y-35318554D01*
X11121942Y-35314283D01*
X11139404Y-35306573D01*
X11190509Y-35300644D01*
X11193750Y-35300000D01*
X11681250Y-35300000D01*
X11684481Y-35300642D01*
G37*
G36*
X13853231Y-35300642D02*
G01*
X13905772Y-35306738D01*
X13923723Y-35314664D01*
X13945671Y-35319030D01*
X13969166Y-35334729D01*
X13990890Y-35344321D01*
X14005726Y-35359157D01*
X14026777Y-35373223D01*
X14040842Y-35394273D01*
X14055678Y-35409109D01*
X14065269Y-35430830D01*
X14080970Y-35454329D01*
X14085335Y-35476277D01*
X14093260Y-35494224D01*
X14099352Y-35546747D01*
X14100000Y-35550000D01*
X14100000Y-36450000D01*
X14099354Y-36453243D01*
X14093261Y-36505772D01*
X14085336Y-36523719D01*
X14080970Y-36545671D01*
X14065267Y-36569171D01*
X14055678Y-36590890D01*
X14040844Y-36605723D01*
X14026777Y-36626777D01*
X14005723Y-36640844D01*
X13990890Y-36655678D01*
X13969170Y-36665267D01*
X13945671Y-36680970D01*
X13923720Y-36685336D01*
X13905775Y-36693260D01*
X13853254Y-36699352D01*
X13850000Y-36700000D01*
X13325000Y-36700000D01*
X13321758Y-36699355D01*
X13269227Y-36693261D01*
X13251278Y-36685335D01*
X13229329Y-36680970D01*
X13205830Y-36665268D01*
X13184109Y-36655678D01*
X13169273Y-36640842D01*
X13148223Y-36626777D01*
X13134157Y-36605726D01*
X13119321Y-36590890D01*
X13109729Y-36569166D01*
X13094030Y-36545671D01*
X13089664Y-36523724D01*
X13081739Y-36505775D01*
X13075644Y-36453242D01*
X13075000Y-36450000D01*
X13075000Y-35550000D01*
X13075642Y-35546770D01*
X13081738Y-35494227D01*
X13089664Y-35476274D01*
X13094030Y-35454329D01*
X13109728Y-35430835D01*
X13119321Y-35409109D01*
X13134159Y-35394270D01*
X13148223Y-35373223D01*
X13169270Y-35359159D01*
X13184109Y-35344321D01*
X13205835Y-35334727D01*
X13229329Y-35319030D01*
X13251273Y-35314665D01*
X13269224Y-35306739D01*
X13321759Y-35300644D01*
X13325000Y-35300000D01*
X13850000Y-35300000D01*
X13853231Y-35300642D01*
G37*
G36*
X15678231Y-35300642D02*
G01*
X15730772Y-35306738D01*
X15748723Y-35314664D01*
X15770671Y-35319030D01*
X15794166Y-35334729D01*
X15815890Y-35344321D01*
X15830726Y-35359157D01*
X15851777Y-35373223D01*
X15865842Y-35394273D01*
X15880678Y-35409109D01*
X15890269Y-35430830D01*
X15905970Y-35454329D01*
X15910335Y-35476277D01*
X15918260Y-35494224D01*
X15924352Y-35546747D01*
X15925000Y-35550000D01*
X15925000Y-36450000D01*
X15924354Y-36453243D01*
X15918261Y-36505772D01*
X15910336Y-36523719D01*
X15905970Y-36545671D01*
X15890267Y-36569171D01*
X15880678Y-36590890D01*
X15865844Y-36605723D01*
X15851777Y-36626777D01*
X15830723Y-36640844D01*
X15815890Y-36655678D01*
X15794170Y-36665267D01*
X15770671Y-36680970D01*
X15748720Y-36685336D01*
X15730775Y-36693260D01*
X15678254Y-36699352D01*
X15675000Y-36700000D01*
X15150000Y-36700000D01*
X15146758Y-36699355D01*
X15094227Y-36693261D01*
X15076278Y-36685335D01*
X15054329Y-36680970D01*
X15030830Y-36665268D01*
X15009109Y-36655678D01*
X14994273Y-36640842D01*
X14973223Y-36626777D01*
X14959157Y-36605726D01*
X14944321Y-36590890D01*
X14934729Y-36569166D01*
X14919030Y-36545671D01*
X14914664Y-36523724D01*
X14906739Y-36505775D01*
X14900644Y-36453242D01*
X14900000Y-36450000D01*
X14900000Y-35550000D01*
X14900642Y-35546770D01*
X14906738Y-35494227D01*
X14914664Y-35476274D01*
X14919030Y-35454329D01*
X14934728Y-35430835D01*
X14944321Y-35409109D01*
X14959159Y-35394270D01*
X14973223Y-35373223D01*
X14994270Y-35359159D01*
X15009109Y-35344321D01*
X15030835Y-35334727D01*
X15054329Y-35319030D01*
X15076273Y-35314665D01*
X15094224Y-35306739D01*
X15146759Y-35300644D01*
X15150000Y-35300000D01*
X15675000Y-35300000D01*
X15678231Y-35300642D01*
G37*
G36*
X19309481Y-35300642D02*
G01*
X19360592Y-35306572D01*
X19378054Y-35314282D01*
X19399529Y-35318554D01*
X19422517Y-35333914D01*
X19443608Y-35343227D01*
X19458013Y-35357632D01*
X19478607Y-35371393D01*
X19492367Y-35391986D01*
X19506772Y-35406391D01*
X19516083Y-35427480D01*
X19531446Y-35450471D01*
X19535717Y-35471946D01*
X19543426Y-35489404D01*
X19549353Y-35540497D01*
X19550000Y-35543750D01*
X19550000Y-36456250D01*
X19549354Y-36459493D01*
X19543427Y-36510592D01*
X19535718Y-36528050D01*
X19531446Y-36549529D01*
X19516082Y-36572522D01*
X19506772Y-36593608D01*
X19492369Y-36608010D01*
X19478607Y-36628607D01*
X19458010Y-36642369D01*
X19443608Y-36656772D01*
X19422521Y-36666082D01*
X19399529Y-36681446D01*
X19378051Y-36685717D01*
X19360595Y-36693426D01*
X19309504Y-36699352D01*
X19306250Y-36700000D01*
X18818750Y-36700000D01*
X18815508Y-36699355D01*
X18764407Y-36693427D01*
X18746947Y-36685717D01*
X18725471Y-36681446D01*
X18702479Y-36666083D01*
X18681391Y-36656772D01*
X18666986Y-36642367D01*
X18646393Y-36628607D01*
X18632632Y-36608013D01*
X18618227Y-36593608D01*
X18608914Y-36572517D01*
X18593554Y-36549529D01*
X18589282Y-36528056D01*
X18581573Y-36510595D01*
X18575644Y-36459492D01*
X18575000Y-36456250D01*
X18575000Y-35543750D01*
X18575642Y-35540520D01*
X18581572Y-35489407D01*
X18589282Y-35471943D01*
X18593554Y-35450471D01*
X18608913Y-35427484D01*
X18618227Y-35406391D01*
X18632635Y-35391982D01*
X18646393Y-35371393D01*
X18666982Y-35357635D01*
X18681391Y-35343227D01*
X18702484Y-35333913D01*
X18725471Y-35318554D01*
X18746942Y-35314283D01*
X18764404Y-35306573D01*
X18815509Y-35300644D01*
X18818750Y-35300000D01*
X19306250Y-35300000D01*
X19309481Y-35300642D01*
G37*
G36*
X21184481Y-35300642D02*
G01*
X21235592Y-35306572D01*
X21253054Y-35314282D01*
X21274529Y-35318554D01*
X21297517Y-35333914D01*
X21318608Y-35343227D01*
X21333013Y-35357632D01*
X21353607Y-35371393D01*
X21367367Y-35391986D01*
X21381772Y-35406391D01*
X21391083Y-35427480D01*
X21406446Y-35450471D01*
X21410717Y-35471946D01*
X21418426Y-35489404D01*
X21424353Y-35540497D01*
X21425000Y-35543750D01*
X21425000Y-36456250D01*
X21424354Y-36459493D01*
X21418427Y-36510592D01*
X21410718Y-36528050D01*
X21406446Y-36549529D01*
X21391082Y-36572522D01*
X21381772Y-36593608D01*
X21367369Y-36608010D01*
X21353607Y-36628607D01*
X21333010Y-36642369D01*
X21318608Y-36656772D01*
X21297521Y-36666082D01*
X21274529Y-36681446D01*
X21253051Y-36685717D01*
X21235595Y-36693426D01*
X21184504Y-36699352D01*
X21181250Y-36700000D01*
X20693750Y-36700000D01*
X20690508Y-36699355D01*
X20639407Y-36693427D01*
X20621947Y-36685717D01*
X20600471Y-36681446D01*
X20577479Y-36666083D01*
X20556391Y-36656772D01*
X20541986Y-36642367D01*
X20521393Y-36628607D01*
X20507632Y-36608013D01*
X20493227Y-36593608D01*
X20483914Y-36572517D01*
X20468554Y-36549529D01*
X20464282Y-36528056D01*
X20456573Y-36510595D01*
X20450644Y-36459492D01*
X20450000Y-36456250D01*
X20450000Y-35543750D01*
X20450642Y-35540520D01*
X20456572Y-35489407D01*
X20464282Y-35471943D01*
X20468554Y-35450471D01*
X20483913Y-35427484D01*
X20493227Y-35406391D01*
X20507635Y-35391982D01*
X20521393Y-35371393D01*
X20541982Y-35357635D01*
X20556391Y-35343227D01*
X20577484Y-35333913D01*
X20600471Y-35318554D01*
X20621942Y-35314283D01*
X20639404Y-35306573D01*
X20690509Y-35300644D01*
X20693750Y-35300000D01*
X21181250Y-35300000D01*
X21184481Y-35300642D01*
G37*
G36*
X23353231Y-35300642D02*
G01*
X23405772Y-35306738D01*
X23423723Y-35314664D01*
X23445671Y-35319030D01*
X23469166Y-35334729D01*
X23490890Y-35344321D01*
X23505726Y-35359157D01*
X23526777Y-35373223D01*
X23540842Y-35394273D01*
X23555678Y-35409109D01*
X23565269Y-35430830D01*
X23580970Y-35454329D01*
X23585335Y-35476277D01*
X23593260Y-35494224D01*
X23599352Y-35546747D01*
X23600000Y-35550000D01*
X23600000Y-36450000D01*
X23599354Y-36453243D01*
X23593261Y-36505772D01*
X23585336Y-36523719D01*
X23580970Y-36545671D01*
X23565267Y-36569171D01*
X23555678Y-36590890D01*
X23540844Y-36605723D01*
X23526777Y-36626777D01*
X23505723Y-36640844D01*
X23490890Y-36655678D01*
X23469170Y-36665267D01*
X23445671Y-36680970D01*
X23423720Y-36685336D01*
X23405775Y-36693260D01*
X23353254Y-36699352D01*
X23350000Y-36700000D01*
X22825000Y-36700000D01*
X22821758Y-36699355D01*
X22769227Y-36693261D01*
X22751278Y-36685335D01*
X22729329Y-36680970D01*
X22705830Y-36665268D01*
X22684109Y-36655678D01*
X22669273Y-36640842D01*
X22648223Y-36626777D01*
X22634157Y-36605726D01*
X22619321Y-36590890D01*
X22609729Y-36569166D01*
X22594030Y-36545671D01*
X22589664Y-36523724D01*
X22581739Y-36505775D01*
X22575644Y-36453242D01*
X22575000Y-36450000D01*
X22575000Y-35550000D01*
X22575642Y-35546770D01*
X22581738Y-35494227D01*
X22589664Y-35476274D01*
X22594030Y-35454329D01*
X22609728Y-35430835D01*
X22619321Y-35409109D01*
X22634159Y-35394270D01*
X22648223Y-35373223D01*
X22669270Y-35359159D01*
X22684109Y-35344321D01*
X22705835Y-35334727D01*
X22729329Y-35319030D01*
X22751273Y-35314665D01*
X22769224Y-35306739D01*
X22821759Y-35300644D01*
X22825000Y-35300000D01*
X23350000Y-35300000D01*
X23353231Y-35300642D01*
G37*
G36*
X25178231Y-35300642D02*
G01*
X25230772Y-35306738D01*
X25248723Y-35314664D01*
X25270671Y-35319030D01*
X25294166Y-35334729D01*
X25315890Y-35344321D01*
X25330726Y-35359157D01*
X25351777Y-35373223D01*
X25365842Y-35394273D01*
X25380678Y-35409109D01*
X25390269Y-35430830D01*
X25405970Y-35454329D01*
X25410335Y-35476277D01*
X25418260Y-35494224D01*
X25424352Y-35546747D01*
X25425000Y-35550000D01*
X25425000Y-36450000D01*
X25424354Y-36453243D01*
X25418261Y-36505772D01*
X25410336Y-36523719D01*
X25405970Y-36545671D01*
X25390267Y-36569171D01*
X25380678Y-36590890D01*
X25365844Y-36605723D01*
X25351777Y-36626777D01*
X25330723Y-36640844D01*
X25315890Y-36655678D01*
X25294170Y-36665267D01*
X25270671Y-36680970D01*
X25248720Y-36685336D01*
X25230775Y-36693260D01*
X25178254Y-36699352D01*
X25175000Y-36700000D01*
X24650000Y-36700000D01*
X24646758Y-36699355D01*
X24594227Y-36693261D01*
X24576278Y-36685335D01*
X24554329Y-36680970D01*
X24530830Y-36665268D01*
X24509109Y-36655678D01*
X24494273Y-36640842D01*
X24473223Y-36626777D01*
X24459157Y-36605726D01*
X24444321Y-36590890D01*
X24434729Y-36569166D01*
X24419030Y-36545671D01*
X24414664Y-36523724D01*
X24406739Y-36505775D01*
X24400644Y-36453242D01*
X24400000Y-36450000D01*
X24400000Y-35550000D01*
X24400642Y-35546770D01*
X24406738Y-35494227D01*
X24414664Y-35476274D01*
X24419030Y-35454329D01*
X24434728Y-35430835D01*
X24444321Y-35409109D01*
X24459159Y-35394270D01*
X24473223Y-35373223D01*
X24494270Y-35359159D01*
X24509109Y-35344321D01*
X24530835Y-35334727D01*
X24554329Y-35319030D01*
X24576273Y-35314665D01*
X24594224Y-35306739D01*
X24646759Y-35300644D01*
X24650000Y-35300000D01*
X25175000Y-35300000D01*
X25178231Y-35300642D01*
G37*
G36*
X30309481Y-35300642D02*
G01*
X30360592Y-35306572D01*
X30378054Y-35314282D01*
X30399529Y-35318554D01*
X30422517Y-35333914D01*
X30443608Y-35343227D01*
X30458013Y-35357632D01*
X30478607Y-35371393D01*
X30492367Y-35391986D01*
X30506772Y-35406391D01*
X30516083Y-35427480D01*
X30531446Y-35450471D01*
X30535717Y-35471946D01*
X30543426Y-35489404D01*
X30549353Y-35540497D01*
X30550000Y-35543750D01*
X30550000Y-36456250D01*
X30549354Y-36459493D01*
X30543427Y-36510592D01*
X30535718Y-36528050D01*
X30531446Y-36549529D01*
X30516082Y-36572522D01*
X30506772Y-36593608D01*
X30492369Y-36608010D01*
X30478607Y-36628607D01*
X30458010Y-36642369D01*
X30443608Y-36656772D01*
X30422521Y-36666082D01*
X30399529Y-36681446D01*
X30378051Y-36685717D01*
X30360595Y-36693426D01*
X30309504Y-36699352D01*
X30306250Y-36700000D01*
X29818750Y-36700000D01*
X29815508Y-36699355D01*
X29764407Y-36693427D01*
X29746947Y-36685717D01*
X29725471Y-36681446D01*
X29702479Y-36666083D01*
X29681391Y-36656772D01*
X29666986Y-36642367D01*
X29646393Y-36628607D01*
X29632632Y-36608013D01*
X29618227Y-36593608D01*
X29608914Y-36572517D01*
X29593554Y-36549529D01*
X29589282Y-36528056D01*
X29581573Y-36510595D01*
X29575644Y-36459492D01*
X29575000Y-36456250D01*
X29575000Y-35543750D01*
X29575642Y-35540520D01*
X29581572Y-35489407D01*
X29589282Y-35471943D01*
X29593554Y-35450471D01*
X29608913Y-35427484D01*
X29618227Y-35406391D01*
X29632635Y-35391982D01*
X29646393Y-35371393D01*
X29666982Y-35357635D01*
X29681391Y-35343227D01*
X29702484Y-35333913D01*
X29725471Y-35318554D01*
X29746942Y-35314283D01*
X29764404Y-35306573D01*
X29815509Y-35300644D01*
X29818750Y-35300000D01*
X30306250Y-35300000D01*
X30309481Y-35300642D01*
G37*
G36*
X32184481Y-35300642D02*
G01*
X32235592Y-35306572D01*
X32253054Y-35314282D01*
X32274529Y-35318554D01*
X32297517Y-35333914D01*
X32318608Y-35343227D01*
X32333013Y-35357632D01*
X32353607Y-35371393D01*
X32367367Y-35391986D01*
X32381772Y-35406391D01*
X32391083Y-35427480D01*
X32406446Y-35450471D01*
X32410717Y-35471946D01*
X32418426Y-35489404D01*
X32424353Y-35540497D01*
X32425000Y-35543750D01*
X32425000Y-36456250D01*
X32424354Y-36459493D01*
X32418427Y-36510592D01*
X32410718Y-36528050D01*
X32406446Y-36549529D01*
X32391082Y-36572522D01*
X32381772Y-36593608D01*
X32367369Y-36608010D01*
X32353607Y-36628607D01*
X32333010Y-36642369D01*
X32318608Y-36656772D01*
X32297521Y-36666082D01*
X32274529Y-36681446D01*
X32253051Y-36685717D01*
X32235595Y-36693426D01*
X32184504Y-36699352D01*
X32181250Y-36700000D01*
X31693750Y-36700000D01*
X31690508Y-36699355D01*
X31639407Y-36693427D01*
X31621947Y-36685717D01*
X31600471Y-36681446D01*
X31577479Y-36666083D01*
X31556391Y-36656772D01*
X31541986Y-36642367D01*
X31521393Y-36628607D01*
X31507632Y-36608013D01*
X31493227Y-36593608D01*
X31483914Y-36572517D01*
X31468554Y-36549529D01*
X31464282Y-36528056D01*
X31456573Y-36510595D01*
X31450644Y-36459492D01*
X31450000Y-36456250D01*
X31450000Y-35543750D01*
X31450642Y-35540520D01*
X31456572Y-35489407D01*
X31464282Y-35471943D01*
X31468554Y-35450471D01*
X31483913Y-35427484D01*
X31493227Y-35406391D01*
X31507635Y-35391982D01*
X31521393Y-35371393D01*
X31541982Y-35357635D01*
X31556391Y-35343227D01*
X31577484Y-35333913D01*
X31600471Y-35318554D01*
X31621942Y-35314283D01*
X31639404Y-35306573D01*
X31690509Y-35300644D01*
X31693750Y-35300000D01*
X32181250Y-35300000D01*
X32184481Y-35300642D01*
G37*
G36*
X34353231Y-35300642D02*
G01*
X34405772Y-35306738D01*
X34423723Y-35314664D01*
X34445671Y-35319030D01*
X34469166Y-35334729D01*
X34490890Y-35344321D01*
X34505726Y-35359157D01*
X34526777Y-35373223D01*
X34540842Y-35394273D01*
X34555678Y-35409109D01*
X34565269Y-35430830D01*
X34580970Y-35454329D01*
X34585335Y-35476277D01*
X34593260Y-35494224D01*
X34599352Y-35546747D01*
X34600000Y-35550000D01*
X34600000Y-36450000D01*
X34599354Y-36453243D01*
X34593261Y-36505772D01*
X34585336Y-36523719D01*
X34580970Y-36545671D01*
X34565267Y-36569171D01*
X34555678Y-36590890D01*
X34540844Y-36605723D01*
X34526777Y-36626777D01*
X34505723Y-36640844D01*
X34490890Y-36655678D01*
X34469170Y-36665267D01*
X34445671Y-36680970D01*
X34423720Y-36685336D01*
X34405775Y-36693260D01*
X34353254Y-36699352D01*
X34350000Y-36700000D01*
X33825000Y-36700000D01*
X33821758Y-36699355D01*
X33769227Y-36693261D01*
X33751278Y-36685335D01*
X33729329Y-36680970D01*
X33705830Y-36665268D01*
X33684109Y-36655678D01*
X33669273Y-36640842D01*
X33648223Y-36626777D01*
X33634157Y-36605726D01*
X33619321Y-36590890D01*
X33609729Y-36569166D01*
X33594030Y-36545671D01*
X33589664Y-36523724D01*
X33581739Y-36505775D01*
X33575644Y-36453242D01*
X33575000Y-36450000D01*
X33575000Y-35550000D01*
X33575642Y-35546770D01*
X33581738Y-35494227D01*
X33589664Y-35476274D01*
X33594030Y-35454329D01*
X33609728Y-35430835D01*
X33619321Y-35409109D01*
X33634159Y-35394270D01*
X33648223Y-35373223D01*
X33669270Y-35359159D01*
X33684109Y-35344321D01*
X33705835Y-35334727D01*
X33729329Y-35319030D01*
X33751273Y-35314665D01*
X33769224Y-35306739D01*
X33821759Y-35300644D01*
X33825000Y-35300000D01*
X34350000Y-35300000D01*
X34353231Y-35300642D01*
G37*
G36*
X36178231Y-35300642D02*
G01*
X36230772Y-35306738D01*
X36248723Y-35314664D01*
X36270671Y-35319030D01*
X36294166Y-35334729D01*
X36315890Y-35344321D01*
X36330726Y-35359157D01*
X36351777Y-35373223D01*
X36365842Y-35394273D01*
X36380678Y-35409109D01*
X36390269Y-35430830D01*
X36405970Y-35454329D01*
X36410335Y-35476277D01*
X36418260Y-35494224D01*
X36424352Y-35546747D01*
X36425000Y-35550000D01*
X36425000Y-36450000D01*
X36424354Y-36453243D01*
X36418261Y-36505772D01*
X36410336Y-36523719D01*
X36405970Y-36545671D01*
X36390267Y-36569171D01*
X36380678Y-36590890D01*
X36365844Y-36605723D01*
X36351777Y-36626777D01*
X36330723Y-36640844D01*
X36315890Y-36655678D01*
X36294170Y-36665267D01*
X36270671Y-36680970D01*
X36248720Y-36685336D01*
X36230775Y-36693260D01*
X36178254Y-36699352D01*
X36175000Y-36700000D01*
X35650000Y-36700000D01*
X35646758Y-36699355D01*
X35594227Y-36693261D01*
X35576278Y-36685335D01*
X35554329Y-36680970D01*
X35530830Y-36665268D01*
X35509109Y-36655678D01*
X35494273Y-36640842D01*
X35473223Y-36626777D01*
X35459157Y-36605726D01*
X35444321Y-36590890D01*
X35434729Y-36569166D01*
X35419030Y-36545671D01*
X35414664Y-36523724D01*
X35406739Y-36505775D01*
X35400644Y-36453242D01*
X35400000Y-36450000D01*
X35400000Y-35550000D01*
X35400642Y-35546770D01*
X35406738Y-35494227D01*
X35414664Y-35476274D01*
X35419030Y-35454329D01*
X35434728Y-35430835D01*
X35444321Y-35409109D01*
X35459159Y-35394270D01*
X35473223Y-35373223D01*
X35494270Y-35359159D01*
X35509109Y-35344321D01*
X35530835Y-35334727D01*
X35554329Y-35319030D01*
X35576273Y-35314665D01*
X35594224Y-35306739D01*
X35646759Y-35300644D01*
X35650000Y-35300000D01*
X36175000Y-35300000D01*
X36178231Y-35300642D01*
G37*
G36*
X5815263Y-28824278D02*
G01*
X5941342Y-28858060D01*
X6054381Y-28923323D01*
X6146677Y-29015619D01*
X6211940Y-29128658D01*
X6245722Y-29254737D01*
X6245722Y-29385263D01*
X6211940Y-29511342D01*
X6146677Y-29624381D01*
X6054381Y-29716677D01*
X5941342Y-29781940D01*
X5815263Y-29815722D01*
X5750000Y-29820000D01*
X5748696Y-29820000D01*
X5151304Y-29820000D01*
X5150000Y-29820000D01*
X5084737Y-29815722D01*
X4958658Y-29781940D01*
X4845619Y-29716677D01*
X4753323Y-29624381D01*
X4688060Y-29511342D01*
X4654278Y-29385263D01*
X4654278Y-29254737D01*
X4688060Y-29128658D01*
X4753323Y-29015619D01*
X4845619Y-28923323D01*
X4958658Y-28858060D01*
X5084737Y-28824278D01*
X5150000Y-28820000D01*
X5750000Y-28820000D01*
X5815263Y-28824278D01*
G37*
G36*
X10245263Y-28824278D02*
G01*
X10371342Y-28858060D01*
X10484381Y-28923323D01*
X10576677Y-29015619D01*
X10641940Y-29128658D01*
X10675722Y-29254737D01*
X10675722Y-29385263D01*
X10641940Y-29511342D01*
X10576677Y-29624381D01*
X10484381Y-29716677D01*
X10371342Y-29781940D01*
X10245263Y-29815722D01*
X10180000Y-29820000D01*
X10178696Y-29820000D01*
X9081304Y-29820000D01*
X9080000Y-29820000D01*
X9014737Y-29815722D01*
X8888658Y-29781940D01*
X8775619Y-29716677D01*
X8683323Y-29624381D01*
X8618060Y-29511342D01*
X8584278Y-29385263D01*
X8584278Y-29254737D01*
X8618060Y-29128658D01*
X8683323Y-29015619D01*
X8775619Y-28923323D01*
X8888658Y-28858060D01*
X9014737Y-28824278D01*
X9080000Y-28820000D01*
X10180000Y-28820000D01*
X10245263Y-28824278D01*
G37*
G36*
X11270000Y-28550000D02*
G01*
X9820000Y-28550000D01*
X9820000Y-27950000D01*
X11270000Y-27950000D01*
X11270000Y-28550000D01*
G37*
G36*
X9224372Y-27589739D02*
G01*
X9297847Y-27632160D01*
X9357840Y-27692153D01*
X9400261Y-27765628D01*
X9422220Y-27847579D01*
X9422220Y-27932421D01*
X9400261Y-28014372D01*
X9357840Y-28087847D01*
X9297847Y-28147840D01*
X9224372Y-28190261D01*
X9142421Y-28212220D01*
X9057579Y-28212220D01*
X8975628Y-28190261D01*
X8902153Y-28147840D01*
X8842160Y-28087847D01*
X8799739Y-28014372D01*
X8777780Y-27932421D01*
X8777780Y-27847579D01*
X8799739Y-27765628D01*
X8842160Y-27692153D01*
X8902153Y-27632160D01*
X8975628Y-27589739D01*
X9057579Y-27567780D01*
X9142421Y-27567780D01*
X9224372Y-27589739D01*
G37*
G36*
X35407403Y-27616418D02*
G01*
X35456066Y-27648934D01*
X35488582Y-27697597D01*
X35500000Y-27755000D01*
X35500000Y-28055000D01*
X35488582Y-28112403D01*
X35456066Y-28161066D01*
X35407403Y-28193582D01*
X35350000Y-28205000D01*
X33700000Y-28205000D01*
X33642597Y-28193582D01*
X33593934Y-28161066D01*
X33561418Y-28112403D01*
X33550000Y-28055000D01*
X33550000Y-27755000D01*
X33561418Y-27697597D01*
X33593934Y-27648934D01*
X33642597Y-27616418D01*
X33700000Y-27605000D01*
X35350000Y-27605000D01*
X35407403Y-27616418D01*
G37*
G36*
X40357403Y-27616418D02*
G01*
X40406066Y-27648934D01*
X40438582Y-27697597D01*
X40450000Y-27755000D01*
X40450000Y-28055000D01*
X40438582Y-28112403D01*
X40406066Y-28161066D01*
X40357403Y-28193582D01*
X40300000Y-28205000D01*
X38650000Y-28205000D01*
X38592597Y-28193582D01*
X38543934Y-28161066D01*
X38511418Y-28112403D01*
X38500000Y-28055000D01*
X38500000Y-27755000D01*
X38511418Y-27697597D01*
X38543934Y-27648934D01*
X38592597Y-27616418D01*
X38650000Y-27605000D01*
X40300000Y-27605000D01*
X40357403Y-27616418D01*
G37*
G36*
X11270000Y-27750000D02*
G01*
X9820000Y-27750000D01*
X9820000Y-27150000D01*
X11270000Y-27150000D01*
X11270000Y-27750000D01*
G37*
G36*
X13353231Y-26050642D02*
G01*
X13405772Y-26056738D01*
X13423723Y-26064664D01*
X13445671Y-26069030D01*
X13469166Y-26084729D01*
X13490890Y-26094321D01*
X13505726Y-26109157D01*
X13526777Y-26123223D01*
X13540842Y-26144273D01*
X13555678Y-26159109D01*
X13565269Y-26180830D01*
X13580970Y-26204329D01*
X13585335Y-26226277D01*
X13593260Y-26244224D01*
X13599352Y-26296747D01*
X13600000Y-26300000D01*
X13600000Y-27200000D01*
X13599354Y-27203243D01*
X13593261Y-27255772D01*
X13585336Y-27273719D01*
X13580970Y-27295671D01*
X13565267Y-27319171D01*
X13555678Y-27340890D01*
X13540844Y-27355723D01*
X13526777Y-27376777D01*
X13505723Y-27390844D01*
X13490890Y-27405678D01*
X13469170Y-27415267D01*
X13445671Y-27430970D01*
X13423720Y-27435336D01*
X13405775Y-27443260D01*
X13353254Y-27449352D01*
X13350000Y-27450000D01*
X12825000Y-27450000D01*
X12821758Y-27449355D01*
X12769227Y-27443261D01*
X12751278Y-27435335D01*
X12729329Y-27430970D01*
X12705830Y-27415268D01*
X12684109Y-27405678D01*
X12669273Y-27390842D01*
X12648223Y-27376777D01*
X12634157Y-27355726D01*
X12619321Y-27340890D01*
X12609729Y-27319166D01*
X12594030Y-27295671D01*
X12589664Y-27273724D01*
X12581739Y-27255775D01*
X12575644Y-27203242D01*
X12575000Y-27200000D01*
X12575000Y-26300000D01*
X12575642Y-26296770D01*
X12581738Y-26244227D01*
X12589664Y-26226274D01*
X12594030Y-26204329D01*
X12609728Y-26180835D01*
X12619321Y-26159109D01*
X12634159Y-26144270D01*
X12648223Y-26123223D01*
X12669270Y-26109159D01*
X12684109Y-26094321D01*
X12705835Y-26084727D01*
X12729329Y-26069030D01*
X12751273Y-26064665D01*
X12769224Y-26056739D01*
X12821759Y-26050644D01*
X12825000Y-26050000D01*
X13350000Y-26050000D01*
X13353231Y-26050642D01*
G37*
G36*
X15178231Y-26050642D02*
G01*
X15230772Y-26056738D01*
X15248723Y-26064664D01*
X15270671Y-26069030D01*
X15294166Y-26084729D01*
X15315890Y-26094321D01*
X15330726Y-26109157D01*
X15351777Y-26123223D01*
X15365842Y-26144273D01*
X15380678Y-26159109D01*
X15390269Y-26180830D01*
X15405970Y-26204329D01*
X15410335Y-26226277D01*
X15418260Y-26244224D01*
X15424352Y-26296747D01*
X15425000Y-26300000D01*
X15425000Y-27200000D01*
X15424354Y-27203243D01*
X15418261Y-27255772D01*
X15410336Y-27273719D01*
X15405970Y-27295671D01*
X15390267Y-27319171D01*
X15380678Y-27340890D01*
X15365844Y-27355723D01*
X15351777Y-27376777D01*
X15330723Y-27390844D01*
X15315890Y-27405678D01*
X15294170Y-27415267D01*
X15270671Y-27430970D01*
X15248720Y-27435336D01*
X15230775Y-27443260D01*
X15178254Y-27449352D01*
X15175000Y-27450000D01*
X14650000Y-27450000D01*
X14646758Y-27449355D01*
X14594227Y-27443261D01*
X14576278Y-27435335D01*
X14554329Y-27430970D01*
X14530830Y-27415268D01*
X14509109Y-27405678D01*
X14494273Y-27390842D01*
X14473223Y-27376777D01*
X14459157Y-27355726D01*
X14444321Y-27340890D01*
X14434729Y-27319166D01*
X14419030Y-27295671D01*
X14414664Y-27273724D01*
X14406739Y-27255775D01*
X14400644Y-27203242D01*
X14400000Y-27200000D01*
X14400000Y-26300000D01*
X14400642Y-26296770D01*
X14406738Y-26244227D01*
X14414664Y-26226274D01*
X14419030Y-26204329D01*
X14434728Y-26180835D01*
X14444321Y-26159109D01*
X14459159Y-26144270D01*
X14473223Y-26123223D01*
X14494270Y-26109159D01*
X14509109Y-26094321D01*
X14530835Y-26084727D01*
X14554329Y-26069030D01*
X14576273Y-26064665D01*
X14594224Y-26056739D01*
X14646759Y-26050644D01*
X14650000Y-26050000D01*
X15175000Y-26050000D01*
X15178231Y-26050642D01*
G37*
G36*
X35407403Y-26346418D02*
G01*
X35456066Y-26378934D01*
X35488582Y-26427597D01*
X35500000Y-26485000D01*
X35500000Y-26785000D01*
X35488582Y-26842403D01*
X35456066Y-26891066D01*
X35407403Y-26923582D01*
X35350000Y-26935000D01*
X33700000Y-26935000D01*
X33642597Y-26923582D01*
X33593934Y-26891066D01*
X33561418Y-26842403D01*
X33550000Y-26785000D01*
X33550000Y-26485000D01*
X33561418Y-26427597D01*
X33593934Y-26378934D01*
X33642597Y-26346418D01*
X33700000Y-26335000D01*
X35350000Y-26335000D01*
X35407403Y-26346418D01*
G37*
G36*
X40357403Y-26346418D02*
G01*
X40406066Y-26378934D01*
X40438582Y-26427597D01*
X40450000Y-26485000D01*
X40450000Y-26785000D01*
X40438582Y-26842403D01*
X40406066Y-26891066D01*
X40357403Y-26923582D01*
X40300000Y-26935000D01*
X38650000Y-26935000D01*
X38592597Y-26923582D01*
X38543934Y-26891066D01*
X38511418Y-26842403D01*
X38500000Y-26785000D01*
X38500000Y-26485000D01*
X38511418Y-26427597D01*
X38543934Y-26378934D01*
X38592597Y-26346418D01*
X38650000Y-26335000D01*
X40300000Y-26335000D01*
X40357403Y-26346418D01*
G37*
G36*
X11270000Y-26900000D02*
G01*
X9820000Y-26900000D01*
X9820000Y-26600000D01*
X11270000Y-26600000D01*
X11270000Y-26900000D01*
G37*
G36*
X11270000Y-26400000D02*
G01*
X9820000Y-26400000D01*
X9820000Y-26100000D01*
X11270000Y-26100000D01*
X11270000Y-26400000D01*
G37*
G36*
X11270000Y-25900000D02*
G01*
X9820000Y-25900000D01*
X9820000Y-25600000D01*
X11270000Y-25600000D01*
X11270000Y-25900000D01*
G37*
G36*
X35407403Y-25076418D02*
G01*
X35456066Y-25108934D01*
X35488582Y-25157597D01*
X35500000Y-25215000D01*
X35500000Y-25515000D01*
X35488582Y-25572403D01*
X35456066Y-25621066D01*
X35407403Y-25653582D01*
X35350000Y-25665000D01*
X33700000Y-25665000D01*
X33642597Y-25653582D01*
X33593934Y-25621066D01*
X33561418Y-25572403D01*
X33550000Y-25515000D01*
X33550000Y-25215000D01*
X33561418Y-25157597D01*
X33593934Y-25108934D01*
X33642597Y-25076418D01*
X33700000Y-25065000D01*
X35350000Y-25065000D01*
X35407403Y-25076418D01*
G37*
G36*
X40357403Y-25076418D02*
G01*
X40406066Y-25108934D01*
X40438582Y-25157597D01*
X40450000Y-25215000D01*
X40450000Y-25515000D01*
X40438582Y-25572403D01*
X40406066Y-25621066D01*
X40357403Y-25653582D01*
X40300000Y-25665000D01*
X38650000Y-25665000D01*
X38592597Y-25653582D01*
X38543934Y-25621066D01*
X38511418Y-25572403D01*
X38500000Y-25515000D01*
X38500000Y-25215000D01*
X38511418Y-25157597D01*
X38543934Y-25108934D01*
X38592597Y-25076418D01*
X38650000Y-25065000D01*
X40300000Y-25065000D01*
X40357403Y-25076418D01*
G37*
G36*
X11270000Y-25400000D02*
G01*
X9820000Y-25400000D01*
X9820000Y-25100000D01*
X11270000Y-25100000D01*
X11270000Y-25400000D01*
G37*
G36*
X11270000Y-24900000D02*
G01*
X9820000Y-24900000D01*
X9820000Y-24600000D01*
X11270000Y-24600000D01*
X11270000Y-24900000D01*
G37*
G36*
X13353231Y-23050642D02*
G01*
X13405772Y-23056738D01*
X13423723Y-23064664D01*
X13445671Y-23069030D01*
X13469166Y-23084729D01*
X13490890Y-23094321D01*
X13505726Y-23109157D01*
X13526777Y-23123223D01*
X13540842Y-23144273D01*
X13555678Y-23159109D01*
X13565269Y-23180830D01*
X13580970Y-23204329D01*
X13585335Y-23226277D01*
X13593260Y-23244224D01*
X13599352Y-23296747D01*
X13600000Y-23300000D01*
X13600000Y-24200000D01*
X13599354Y-24203243D01*
X13593261Y-24255772D01*
X13585336Y-24273719D01*
X13580970Y-24295671D01*
X13565267Y-24319171D01*
X13555678Y-24340890D01*
X13540844Y-24355723D01*
X13526777Y-24376777D01*
X13505723Y-24390844D01*
X13490890Y-24405678D01*
X13469170Y-24415267D01*
X13445671Y-24430970D01*
X13423720Y-24435336D01*
X13405775Y-24443260D01*
X13353254Y-24449352D01*
X13350000Y-24450000D01*
X12825000Y-24450000D01*
X12821758Y-24449355D01*
X12769227Y-24443261D01*
X12751278Y-24435335D01*
X12729329Y-24430970D01*
X12705830Y-24415268D01*
X12684109Y-24405678D01*
X12669273Y-24390842D01*
X12648223Y-24376777D01*
X12634157Y-24355726D01*
X12619321Y-24340890D01*
X12609729Y-24319166D01*
X12594030Y-24295671D01*
X12589664Y-24273724D01*
X12581739Y-24255775D01*
X12575644Y-24203242D01*
X12575000Y-24200000D01*
X12575000Y-23300000D01*
X12575642Y-23296770D01*
X12581738Y-23244227D01*
X12589664Y-23226274D01*
X12594030Y-23204329D01*
X12609728Y-23180835D01*
X12619321Y-23159109D01*
X12634159Y-23144270D01*
X12648223Y-23123223D01*
X12669270Y-23109159D01*
X12684109Y-23094321D01*
X12705835Y-23084727D01*
X12729329Y-23069030D01*
X12751273Y-23064665D01*
X12769224Y-23056739D01*
X12821759Y-23050644D01*
X12825000Y-23050000D01*
X13350000Y-23050000D01*
X13353231Y-23050642D01*
G37*
G36*
X15178231Y-23050642D02*
G01*
X15230772Y-23056738D01*
X15248723Y-23064664D01*
X15270671Y-23069030D01*
X15294166Y-23084729D01*
X15315890Y-23094321D01*
X15330726Y-23109157D01*
X15351777Y-23123223D01*
X15365842Y-23144273D01*
X15380678Y-23159109D01*
X15390269Y-23180830D01*
X15405970Y-23204329D01*
X15410335Y-23226277D01*
X15418260Y-23244224D01*
X15424352Y-23296747D01*
X15425000Y-23300000D01*
X15425000Y-24200000D01*
X15424354Y-24203243D01*
X15418261Y-24255772D01*
X15410336Y-24273719D01*
X15405970Y-24295671D01*
X15390267Y-24319171D01*
X15380678Y-24340890D01*
X15365844Y-24355723D01*
X15351777Y-24376777D01*
X15330723Y-24390844D01*
X15315890Y-24405678D01*
X15294170Y-24415267D01*
X15270671Y-24430970D01*
X15248720Y-24435336D01*
X15230775Y-24443260D01*
X15178254Y-24449352D01*
X15175000Y-24450000D01*
X14650000Y-24450000D01*
X14646758Y-24449355D01*
X14594227Y-24443261D01*
X14576278Y-24435335D01*
X14554329Y-24430970D01*
X14530830Y-24415268D01*
X14509109Y-24405678D01*
X14494273Y-24390842D01*
X14473223Y-24376777D01*
X14459157Y-24355726D01*
X14444321Y-24340890D01*
X14434729Y-24319166D01*
X14419030Y-24295671D01*
X14414664Y-24273724D01*
X14406739Y-24255775D01*
X14400644Y-24203242D01*
X14400000Y-24200000D01*
X14400000Y-23300000D01*
X14400642Y-23296770D01*
X14406738Y-23244227D01*
X14414664Y-23226274D01*
X14419030Y-23204329D01*
X14434728Y-23180835D01*
X14444321Y-23159109D01*
X14459159Y-23144270D01*
X14473223Y-23123223D01*
X14494270Y-23109159D01*
X14509109Y-23094321D01*
X14530835Y-23084727D01*
X14554329Y-23069030D01*
X14576273Y-23064665D01*
X14594224Y-23056739D01*
X14646759Y-23050644D01*
X14650000Y-23050000D01*
X15175000Y-23050000D01*
X15178231Y-23050642D01*
G37*
G36*
X11270000Y-24400000D02*
G01*
X9820000Y-24400000D01*
X9820000Y-24100000D01*
X11270000Y-24100000D01*
X11270000Y-24400000D01*
G37*
G36*
X35407403Y-23806418D02*
G01*
X35456066Y-23838934D01*
X35488582Y-23887597D01*
X35500000Y-23945000D01*
X35500000Y-24245000D01*
X35488582Y-24302403D01*
X35456066Y-24351066D01*
X35407403Y-24383582D01*
X35350000Y-24395000D01*
X33700000Y-24395000D01*
X33642597Y-24383582D01*
X33593934Y-24351066D01*
X33561418Y-24302403D01*
X33550000Y-24245000D01*
X33550000Y-23945000D01*
X33561418Y-23887597D01*
X33593934Y-23838934D01*
X33642597Y-23806418D01*
X33700000Y-23795000D01*
X35350000Y-23795000D01*
X35407403Y-23806418D01*
G37*
G36*
X40357403Y-23806418D02*
G01*
X40406066Y-23838934D01*
X40438582Y-23887597D01*
X40450000Y-23945000D01*
X40450000Y-24245000D01*
X40438582Y-24302403D01*
X40406066Y-24351066D01*
X40357403Y-24383582D01*
X40300000Y-24395000D01*
X38650000Y-24395000D01*
X38592597Y-24383582D01*
X38543934Y-24351066D01*
X38511418Y-24302403D01*
X38500000Y-24245000D01*
X38500000Y-23945000D01*
X38511418Y-23887597D01*
X38543934Y-23838934D01*
X38592597Y-23806418D01*
X38650000Y-23795000D01*
X40300000Y-23795000D01*
X40357403Y-23806418D01*
G37*
G36*
X42803231Y-22775642D02*
G01*
X42855772Y-22781738D01*
X42873723Y-22789664D01*
X42895671Y-22794030D01*
X42919166Y-22809729D01*
X42940890Y-22819321D01*
X42955726Y-22834157D01*
X42976777Y-22848223D01*
X42990842Y-22869273D01*
X43005678Y-22884109D01*
X43015269Y-22905830D01*
X43030970Y-22929329D01*
X43035335Y-22951277D01*
X43043260Y-22969224D01*
X43049352Y-23021747D01*
X43050000Y-23025000D01*
X43050000Y-23975000D01*
X43049354Y-23978243D01*
X43043261Y-24030772D01*
X43035336Y-24048719D01*
X43030970Y-24070671D01*
X43015267Y-24094171D01*
X43005678Y-24115890D01*
X42990844Y-24130723D01*
X42976777Y-24151777D01*
X42955723Y-24165844D01*
X42940890Y-24180678D01*
X42919170Y-24190267D01*
X42895671Y-24205970D01*
X42873720Y-24210336D01*
X42855775Y-24218260D01*
X42803254Y-24224352D01*
X42800000Y-24225000D01*
X42300000Y-24225000D01*
X42296758Y-24224355D01*
X42244227Y-24218261D01*
X42226278Y-24210335D01*
X42204329Y-24205970D01*
X42180830Y-24190268D01*
X42159109Y-24180678D01*
X42144273Y-24165842D01*
X42123223Y-24151777D01*
X42109157Y-24130726D01*
X42094321Y-24115890D01*
X42084729Y-24094166D01*
X42069030Y-24070671D01*
X42064664Y-24048724D01*
X42056739Y-24030775D01*
X42050644Y-23978242D01*
X42050000Y-23975000D01*
X42050000Y-23025000D01*
X42050642Y-23021770D01*
X42056738Y-22969227D01*
X42064664Y-22951274D01*
X42069030Y-22929329D01*
X42084728Y-22905835D01*
X42094321Y-22884109D01*
X42109159Y-22869270D01*
X42123223Y-22848223D01*
X42144270Y-22834159D01*
X42159109Y-22819321D01*
X42180835Y-22809727D01*
X42204329Y-22794030D01*
X42226273Y-22789665D01*
X42244224Y-22781739D01*
X42296759Y-22775644D01*
X42300000Y-22775000D01*
X42800000Y-22775000D01*
X42803231Y-22775642D01*
G37*
G36*
X44703231Y-22775642D02*
G01*
X44755772Y-22781738D01*
X44773723Y-22789664D01*
X44795671Y-22794030D01*
X44819166Y-22809729D01*
X44840890Y-22819321D01*
X44855726Y-22834157D01*
X44876777Y-22848223D01*
X44890842Y-22869273D01*
X44905678Y-22884109D01*
X44915269Y-22905830D01*
X44930970Y-22929329D01*
X44935335Y-22951277D01*
X44943260Y-22969224D01*
X44949352Y-23021747D01*
X44950000Y-23025000D01*
X44950000Y-23975000D01*
X44949354Y-23978243D01*
X44943261Y-24030772D01*
X44935336Y-24048719D01*
X44930970Y-24070671D01*
X44915267Y-24094171D01*
X44905678Y-24115890D01*
X44890844Y-24130723D01*
X44876777Y-24151777D01*
X44855723Y-24165844D01*
X44840890Y-24180678D01*
X44819170Y-24190267D01*
X44795671Y-24205970D01*
X44773720Y-24210336D01*
X44755775Y-24218260D01*
X44703254Y-24224352D01*
X44700000Y-24225000D01*
X44200000Y-24225000D01*
X44196758Y-24224355D01*
X44144227Y-24218261D01*
X44126278Y-24210335D01*
X44104329Y-24205970D01*
X44080830Y-24190268D01*
X44059109Y-24180678D01*
X44044273Y-24165842D01*
X44023223Y-24151777D01*
X44009157Y-24130726D01*
X43994321Y-24115890D01*
X43984729Y-24094166D01*
X43969030Y-24070671D01*
X43964664Y-24048724D01*
X43956739Y-24030775D01*
X43950644Y-23978242D01*
X43950000Y-23975000D01*
X43950000Y-23025000D01*
X43950642Y-23021770D01*
X43956738Y-22969227D01*
X43964664Y-22951274D01*
X43969030Y-22929329D01*
X43984728Y-22905835D01*
X43994321Y-22884109D01*
X44009159Y-22869270D01*
X44023223Y-22848223D01*
X44044270Y-22834159D01*
X44059109Y-22819321D01*
X44080835Y-22809727D01*
X44104329Y-22794030D01*
X44126273Y-22789665D01*
X44144224Y-22781739D01*
X44196759Y-22775644D01*
X44200000Y-22775000D01*
X44700000Y-22775000D01*
X44703231Y-22775642D01*
G37*
G36*
X11270000Y-23900000D02*
G01*
X9820000Y-23900000D01*
X9820000Y-23600000D01*
X11270000Y-23600000D01*
X11270000Y-23900000D01*
G37*
G36*
X11270000Y-23400000D02*
G01*
X9820000Y-23400000D01*
X9820000Y-23100000D01*
X11270000Y-23100000D01*
X11270000Y-23400000D01*
G37*
G36*
X11270000Y-22850000D02*
G01*
X9820000Y-22850000D01*
X9820000Y-22250000D01*
X11270000Y-22250000D01*
X11270000Y-22850000D01*
G37*
G36*
X27303231Y-21275642D02*
G01*
X27355772Y-21281738D01*
X27373723Y-21289664D01*
X27395671Y-21294030D01*
X27419166Y-21309729D01*
X27440890Y-21319321D01*
X27455726Y-21334157D01*
X27476777Y-21348223D01*
X27490842Y-21369273D01*
X27505678Y-21384109D01*
X27515269Y-21405830D01*
X27530970Y-21429329D01*
X27535335Y-21451277D01*
X27543260Y-21469224D01*
X27549352Y-21521747D01*
X27550000Y-21525000D01*
X27550000Y-22475000D01*
X27549354Y-22478243D01*
X27543261Y-22530772D01*
X27535336Y-22548719D01*
X27530970Y-22570671D01*
X27515267Y-22594171D01*
X27505678Y-22615890D01*
X27490844Y-22630723D01*
X27476777Y-22651777D01*
X27455723Y-22665844D01*
X27440890Y-22680678D01*
X27419170Y-22690267D01*
X27395671Y-22705970D01*
X27373720Y-22710336D01*
X27355775Y-22718260D01*
X27303254Y-22724352D01*
X27300000Y-22725000D01*
X26800000Y-22725000D01*
X26796758Y-22724355D01*
X26744227Y-22718261D01*
X26726278Y-22710335D01*
X26704329Y-22705970D01*
X26680830Y-22690268D01*
X26659109Y-22680678D01*
X26644273Y-22665842D01*
X26623223Y-22651777D01*
X26609157Y-22630726D01*
X26594321Y-22615890D01*
X26584729Y-22594166D01*
X26569030Y-22570671D01*
X26564664Y-22548724D01*
X26556739Y-22530775D01*
X26550644Y-22478242D01*
X26550000Y-22475000D01*
X26550000Y-21525000D01*
X26550642Y-21521770D01*
X26556738Y-21469227D01*
X26564664Y-21451274D01*
X26569030Y-21429329D01*
X26584728Y-21405835D01*
X26594321Y-21384109D01*
X26609159Y-21369270D01*
X26623223Y-21348223D01*
X26644270Y-21334159D01*
X26659109Y-21319321D01*
X26680835Y-21309727D01*
X26704329Y-21294030D01*
X26726273Y-21289665D01*
X26744224Y-21281739D01*
X26796759Y-21275644D01*
X26800000Y-21275000D01*
X27300000Y-21275000D01*
X27303231Y-21275642D01*
G37*
G36*
X29203231Y-21275642D02*
G01*
X29255772Y-21281738D01*
X29273723Y-21289664D01*
X29295671Y-21294030D01*
X29319166Y-21309729D01*
X29340890Y-21319321D01*
X29355726Y-21334157D01*
X29376777Y-21348223D01*
X29390842Y-21369273D01*
X29405678Y-21384109D01*
X29415269Y-21405830D01*
X29430970Y-21429329D01*
X29435335Y-21451277D01*
X29443260Y-21469224D01*
X29449352Y-21521747D01*
X29450000Y-21525000D01*
X29450000Y-22475000D01*
X29449354Y-22478243D01*
X29443261Y-22530772D01*
X29435336Y-22548719D01*
X29430970Y-22570671D01*
X29415267Y-22594171D01*
X29405678Y-22615890D01*
X29390844Y-22630723D01*
X29376777Y-22651777D01*
X29355723Y-22665844D01*
X29340890Y-22680678D01*
X29319170Y-22690267D01*
X29295671Y-22705970D01*
X29273720Y-22710336D01*
X29255775Y-22718260D01*
X29203254Y-22724352D01*
X29200000Y-22725000D01*
X28700000Y-22725000D01*
X28696758Y-22724355D01*
X28644227Y-22718261D01*
X28626278Y-22710335D01*
X28604329Y-22705970D01*
X28580830Y-22690268D01*
X28559109Y-22680678D01*
X28544273Y-22665842D01*
X28523223Y-22651777D01*
X28509157Y-22630726D01*
X28494321Y-22615890D01*
X28484729Y-22594166D01*
X28469030Y-22570671D01*
X28464664Y-22548724D01*
X28456739Y-22530775D01*
X28450644Y-22478242D01*
X28450000Y-22475000D01*
X28450000Y-21525000D01*
X28450642Y-21521770D01*
X28456738Y-21469227D01*
X28464664Y-21451274D01*
X28469030Y-21429329D01*
X28484728Y-21405835D01*
X28494321Y-21384109D01*
X28509159Y-21369270D01*
X28523223Y-21348223D01*
X28544270Y-21334159D01*
X28559109Y-21319321D01*
X28580835Y-21309727D01*
X28604329Y-21294030D01*
X28626273Y-21289665D01*
X28644224Y-21281739D01*
X28696759Y-21275644D01*
X28700000Y-21275000D01*
X29200000Y-21275000D01*
X29203231Y-21275642D01*
G37*
G36*
X9224372Y-21809739D02*
G01*
X9297847Y-21852160D01*
X9357840Y-21912153D01*
X9400261Y-21985628D01*
X9422220Y-22067579D01*
X9422220Y-22152421D01*
X9400261Y-22234372D01*
X9357840Y-22307847D01*
X9297847Y-22367840D01*
X9224372Y-22410261D01*
X9142421Y-22432220D01*
X9057579Y-22432220D01*
X8975628Y-22410261D01*
X8902153Y-22367840D01*
X8842160Y-22307847D01*
X8799739Y-22234372D01*
X8777780Y-22152421D01*
X8777780Y-22067579D01*
X8799739Y-21985628D01*
X8842160Y-21912153D01*
X8902153Y-21852160D01*
X8975628Y-21809739D01*
X9057579Y-21787780D01*
X9142421Y-21787780D01*
X9224372Y-21809739D01*
G37*
G36*
X34978231Y-21200642D02*
G01*
X35030772Y-21206738D01*
X35048723Y-21214664D01*
X35070671Y-21219030D01*
X35094166Y-21234729D01*
X35115890Y-21244321D01*
X35130726Y-21259157D01*
X35151777Y-21273223D01*
X35165842Y-21294273D01*
X35180678Y-21309109D01*
X35190269Y-21330830D01*
X35205970Y-21354329D01*
X35210335Y-21376277D01*
X35218260Y-21394224D01*
X35224352Y-21446747D01*
X35225000Y-21450000D01*
X35225000Y-21975000D01*
X35224354Y-21978243D01*
X35218261Y-22030772D01*
X35210336Y-22048719D01*
X35205970Y-22070671D01*
X35190267Y-22094171D01*
X35180678Y-22115890D01*
X35165844Y-22130723D01*
X35151777Y-22151777D01*
X35130723Y-22165844D01*
X35115890Y-22180678D01*
X35094170Y-22190267D01*
X35070671Y-22205970D01*
X35048720Y-22210336D01*
X35030775Y-22218260D01*
X34978254Y-22224352D01*
X34975000Y-22225000D01*
X34075000Y-22225000D01*
X34071758Y-22224355D01*
X34019227Y-22218261D01*
X34001278Y-22210335D01*
X33979329Y-22205970D01*
X33955830Y-22190268D01*
X33934109Y-22180678D01*
X33919273Y-22165842D01*
X33898223Y-22151777D01*
X33884157Y-22130726D01*
X33869321Y-22115890D01*
X33859729Y-22094166D01*
X33844030Y-22070671D01*
X33839664Y-22048724D01*
X33831739Y-22030775D01*
X33825644Y-21978242D01*
X33825000Y-21975000D01*
X33825000Y-21450000D01*
X33825642Y-21446770D01*
X33831738Y-21394227D01*
X33839664Y-21376274D01*
X33844030Y-21354329D01*
X33859728Y-21330835D01*
X33869321Y-21309109D01*
X33884159Y-21294270D01*
X33898223Y-21273223D01*
X33919270Y-21259159D01*
X33934109Y-21244321D01*
X33955835Y-21234727D01*
X33979329Y-21219030D01*
X34001273Y-21214665D01*
X34019224Y-21206739D01*
X34071759Y-21200644D01*
X34075000Y-21200000D01*
X34975000Y-21200000D01*
X34978231Y-21200642D01*
G37*
G36*
X20407403Y-21616418D02*
G01*
X20456066Y-21648934D01*
X20488582Y-21697597D01*
X20500000Y-21755000D01*
X20500000Y-22055000D01*
X20488582Y-22112403D01*
X20456066Y-22161066D01*
X20407403Y-22193582D01*
X20350000Y-22205000D01*
X18700000Y-22205000D01*
X18642597Y-22193582D01*
X18593934Y-22161066D01*
X18561418Y-22112403D01*
X18550000Y-22055000D01*
X18550000Y-21755000D01*
X18561418Y-21697597D01*
X18593934Y-21648934D01*
X18642597Y-21616418D01*
X18700000Y-21605000D01*
X20350000Y-21605000D01*
X20407403Y-21616418D01*
G37*
G36*
X25357403Y-21616418D02*
G01*
X25406066Y-21648934D01*
X25438582Y-21697597D01*
X25450000Y-21755000D01*
X25450000Y-22055000D01*
X25438582Y-22112403D01*
X25406066Y-22161066D01*
X25357403Y-22193582D01*
X25300000Y-22205000D01*
X23650000Y-22205000D01*
X23592597Y-22193582D01*
X23543934Y-22161066D01*
X23511418Y-22112403D01*
X23500000Y-22055000D01*
X23500000Y-21755000D01*
X23511418Y-21697597D01*
X23543934Y-21648934D01*
X23592597Y-21616418D01*
X23650000Y-21605000D01*
X25300000Y-21605000D01*
X25357403Y-21616418D01*
G37*
G36*
X11270000Y-22050000D02*
G01*
X9820000Y-22050000D01*
X9820000Y-21450000D01*
X11270000Y-21450000D01*
X11270000Y-22050000D01*
G37*
G36*
X5815263Y-20184278D02*
G01*
X5941342Y-20218060D01*
X6054381Y-20283323D01*
X6146677Y-20375619D01*
X6211940Y-20488658D01*
X6245722Y-20614737D01*
X6245722Y-20745263D01*
X6211940Y-20871342D01*
X6146677Y-20984381D01*
X6054381Y-21076677D01*
X5941342Y-21141940D01*
X5815263Y-21175722D01*
X5750000Y-21180000D01*
X5748696Y-21180000D01*
X5151304Y-21180000D01*
X5150000Y-21180000D01*
X5084737Y-21175722D01*
X4958658Y-21141940D01*
X4845619Y-21076677D01*
X4753323Y-20984381D01*
X4688060Y-20871342D01*
X4654278Y-20745263D01*
X4654278Y-20614737D01*
X4688060Y-20488658D01*
X4753323Y-20375619D01*
X4845619Y-20283323D01*
X4958658Y-20218060D01*
X5084737Y-20184278D01*
X5150000Y-20180000D01*
X5750000Y-20180000D01*
X5815263Y-20184278D01*
G37*
G36*
X10245263Y-20184278D02*
G01*
X10371342Y-20218060D01*
X10484381Y-20283323D01*
X10576677Y-20375619D01*
X10641940Y-20488658D01*
X10675722Y-20614737D01*
X10675722Y-20745263D01*
X10641940Y-20871342D01*
X10576677Y-20984381D01*
X10484381Y-21076677D01*
X10371342Y-21141940D01*
X10245263Y-21175722D01*
X10180000Y-21180000D01*
X10178696Y-21180000D01*
X9081304Y-21180000D01*
X9080000Y-21180000D01*
X9014737Y-21175722D01*
X8888658Y-21141940D01*
X8775619Y-21076677D01*
X8683323Y-20984381D01*
X8618060Y-20871342D01*
X8584278Y-20745263D01*
X8584278Y-20614737D01*
X8618060Y-20488658D01*
X8683323Y-20375619D01*
X8775619Y-20283323D01*
X8888658Y-20218060D01*
X9014737Y-20184278D01*
X9080000Y-20180000D01*
X10180000Y-20180000D01*
X10245263Y-20184278D01*
G37*
G36*
X20407403Y-20346418D02*
G01*
X20456066Y-20378934D01*
X20488582Y-20427597D01*
X20500000Y-20485000D01*
X20500000Y-20785000D01*
X20488582Y-20842403D01*
X20456066Y-20891066D01*
X20407403Y-20923582D01*
X20350000Y-20935000D01*
X18700000Y-20935000D01*
X18642597Y-20923582D01*
X18593934Y-20891066D01*
X18561418Y-20842403D01*
X18550000Y-20785000D01*
X18550000Y-20485000D01*
X18561418Y-20427597D01*
X18593934Y-20378934D01*
X18642597Y-20346418D01*
X18700000Y-20335000D01*
X20350000Y-20335000D01*
X20407403Y-20346418D01*
G37*
G36*
X25357403Y-20346418D02*
G01*
X25406066Y-20378934D01*
X25438582Y-20427597D01*
X25450000Y-20485000D01*
X25450000Y-20785000D01*
X25438582Y-20842403D01*
X25406066Y-20891066D01*
X25357403Y-20923582D01*
X25300000Y-20935000D01*
X23650000Y-20935000D01*
X23592597Y-20923582D01*
X23543934Y-20891066D01*
X23511418Y-20842403D01*
X23500000Y-20785000D01*
X23500000Y-20485000D01*
X23511418Y-20427597D01*
X23543934Y-20378934D01*
X23592597Y-20346418D01*
X23650000Y-20335000D01*
X25300000Y-20335000D01*
X25357403Y-20346418D01*
G37*
G36*
X34978231Y-19375642D02*
G01*
X35030772Y-19381738D01*
X35048723Y-19389664D01*
X35070671Y-19394030D01*
X35094166Y-19409729D01*
X35115890Y-19419321D01*
X35130726Y-19434157D01*
X35151777Y-19448223D01*
X35165842Y-19469273D01*
X35180678Y-19484109D01*
X35190269Y-19505830D01*
X35205970Y-19529329D01*
X35210335Y-19551277D01*
X35218260Y-19569224D01*
X35224352Y-19621747D01*
X35225000Y-19625000D01*
X35225000Y-20150000D01*
X35224354Y-20153243D01*
X35218261Y-20205772D01*
X35210336Y-20223719D01*
X35205970Y-20245671D01*
X35190267Y-20269171D01*
X35180678Y-20290890D01*
X35165844Y-20305723D01*
X35151777Y-20326777D01*
X35130723Y-20340844D01*
X35115890Y-20355678D01*
X35094170Y-20365267D01*
X35070671Y-20380970D01*
X35048720Y-20385336D01*
X35030775Y-20393260D01*
X34978254Y-20399352D01*
X34975000Y-20400000D01*
X34075000Y-20400000D01*
X34071758Y-20399355D01*
X34019227Y-20393261D01*
X34001278Y-20385335D01*
X33979329Y-20380970D01*
X33955830Y-20365268D01*
X33934109Y-20355678D01*
X33919273Y-20340842D01*
X33898223Y-20326777D01*
X33884157Y-20305726D01*
X33869321Y-20290890D01*
X33859729Y-20269166D01*
X33844030Y-20245671D01*
X33839664Y-20223724D01*
X33831739Y-20205775D01*
X33825644Y-20153242D01*
X33825000Y-20150000D01*
X33825000Y-19625000D01*
X33825642Y-19621770D01*
X33831738Y-19569227D01*
X33839664Y-19551274D01*
X33844030Y-19529329D01*
X33859728Y-19505835D01*
X33869321Y-19484109D01*
X33884159Y-19469270D01*
X33898223Y-19448223D01*
X33919270Y-19434159D01*
X33934109Y-19419321D01*
X33955835Y-19409727D01*
X33979329Y-19394030D01*
X34001273Y-19389665D01*
X34019224Y-19381739D01*
X34071759Y-19375644D01*
X34075000Y-19375000D01*
X34975000Y-19375000D01*
X34978231Y-19375642D01*
G37*
G36*
X20407403Y-19076418D02*
G01*
X20456066Y-19108934D01*
X20488582Y-19157597D01*
X20500000Y-19215000D01*
X20500000Y-19515000D01*
X20488582Y-19572403D01*
X20456066Y-19621066D01*
X20407403Y-19653582D01*
X20350000Y-19665000D01*
X18700000Y-19665000D01*
X18642597Y-19653582D01*
X18593934Y-19621066D01*
X18561418Y-19572403D01*
X18550000Y-19515000D01*
X18550000Y-19215000D01*
X18561418Y-19157597D01*
X18593934Y-19108934D01*
X18642597Y-19076418D01*
X18700000Y-19065000D01*
X20350000Y-19065000D01*
X20407403Y-19076418D01*
G37*
G36*
X25357403Y-19076418D02*
G01*
X25406066Y-19108934D01*
X25438582Y-19157597D01*
X25450000Y-19215000D01*
X25450000Y-19515000D01*
X25438582Y-19572403D01*
X25406066Y-19621066D01*
X25357403Y-19653582D01*
X25300000Y-19665000D01*
X23650000Y-19665000D01*
X23592597Y-19653582D01*
X23543934Y-19621066D01*
X23511418Y-19572403D01*
X23500000Y-19515000D01*
X23500000Y-19215000D01*
X23511418Y-19157597D01*
X23543934Y-19108934D01*
X23592597Y-19076418D01*
X23650000Y-19065000D01*
X25300000Y-19065000D01*
X25357403Y-19076418D01*
G37*
G36*
X27303231Y-17275642D02*
G01*
X27355772Y-17281738D01*
X27373723Y-17289664D01*
X27395671Y-17294030D01*
X27419166Y-17309729D01*
X27440890Y-17319321D01*
X27455726Y-17334157D01*
X27476777Y-17348223D01*
X27490842Y-17369273D01*
X27505678Y-17384109D01*
X27515269Y-17405830D01*
X27530970Y-17429329D01*
X27535335Y-17451277D01*
X27543260Y-17469224D01*
X27549352Y-17521747D01*
X27550000Y-17525000D01*
X27550000Y-18475000D01*
X27549354Y-18478243D01*
X27543261Y-18530772D01*
X27535336Y-18548719D01*
X27530970Y-18570671D01*
X27515267Y-18594171D01*
X27505678Y-18615890D01*
X27490844Y-18630723D01*
X27476777Y-18651777D01*
X27455723Y-18665844D01*
X27440890Y-18680678D01*
X27419170Y-18690267D01*
X27395671Y-18705970D01*
X27373720Y-18710336D01*
X27355775Y-18718260D01*
X27303254Y-18724352D01*
X27300000Y-18725000D01*
X26800000Y-18725000D01*
X26796758Y-18724355D01*
X26744227Y-18718261D01*
X26726278Y-18710335D01*
X26704329Y-18705970D01*
X26680830Y-18690268D01*
X26659109Y-18680678D01*
X26644273Y-18665842D01*
X26623223Y-18651777D01*
X26609157Y-18630726D01*
X26594321Y-18615890D01*
X26584729Y-18594166D01*
X26569030Y-18570671D01*
X26564664Y-18548724D01*
X26556739Y-18530775D01*
X26550644Y-18478242D01*
X26550000Y-18475000D01*
X26550000Y-17525000D01*
X26550642Y-17521770D01*
X26556738Y-17469227D01*
X26564664Y-17451274D01*
X26569030Y-17429329D01*
X26584728Y-17405835D01*
X26594321Y-17384109D01*
X26609159Y-17369270D01*
X26623223Y-17348223D01*
X26644270Y-17334159D01*
X26659109Y-17319321D01*
X26680835Y-17309727D01*
X26704329Y-17294030D01*
X26726273Y-17289665D01*
X26744224Y-17281739D01*
X26796759Y-17275644D01*
X26800000Y-17275000D01*
X27300000Y-17275000D01*
X27303231Y-17275642D01*
G37*
G36*
X29203231Y-17275642D02*
G01*
X29255772Y-17281738D01*
X29273723Y-17289664D01*
X29295671Y-17294030D01*
X29319166Y-17309729D01*
X29340890Y-17319321D01*
X29355726Y-17334157D01*
X29376777Y-17348223D01*
X29390842Y-17369273D01*
X29405678Y-17384109D01*
X29415269Y-17405830D01*
X29430970Y-17429329D01*
X29435335Y-17451277D01*
X29443260Y-17469224D01*
X29449352Y-17521747D01*
X29450000Y-17525000D01*
X29450000Y-18475000D01*
X29449354Y-18478243D01*
X29443261Y-18530772D01*
X29435336Y-18548719D01*
X29430970Y-18570671D01*
X29415267Y-18594171D01*
X29405678Y-18615890D01*
X29390844Y-18630723D01*
X29376777Y-18651777D01*
X29355723Y-18665844D01*
X29340890Y-18680678D01*
X29319170Y-18690267D01*
X29295671Y-18705970D01*
X29273720Y-18710336D01*
X29255775Y-18718260D01*
X29203254Y-18724352D01*
X29200000Y-18725000D01*
X28700000Y-18725000D01*
X28696758Y-18724355D01*
X28644227Y-18718261D01*
X28626278Y-18710335D01*
X28604329Y-18705970D01*
X28580830Y-18690268D01*
X28559109Y-18680678D01*
X28544273Y-18665842D01*
X28523223Y-18651777D01*
X28509157Y-18630726D01*
X28494321Y-18615890D01*
X28484729Y-18594166D01*
X28469030Y-18570671D01*
X28464664Y-18548724D01*
X28456739Y-18530775D01*
X28450644Y-18478242D01*
X28450000Y-18475000D01*
X28450000Y-17525000D01*
X28450642Y-17521770D01*
X28456738Y-17469227D01*
X28464664Y-17451274D01*
X28469030Y-17429329D01*
X28484728Y-17405835D01*
X28494321Y-17384109D01*
X28509159Y-17369270D01*
X28523223Y-17348223D01*
X28544270Y-17334159D01*
X28559109Y-17319321D01*
X28580835Y-17309727D01*
X28604329Y-17294030D01*
X28626273Y-17289665D01*
X28644224Y-17281739D01*
X28696759Y-17275644D01*
X28700000Y-17275000D01*
X29200000Y-17275000D01*
X29203231Y-17275642D01*
G37*
G36*
X20407403Y-17806418D02*
G01*
X20456066Y-17838934D01*
X20488582Y-17887597D01*
X20500000Y-17945000D01*
X20500000Y-18245000D01*
X20488582Y-18302403D01*
X20456066Y-18351066D01*
X20407403Y-18383582D01*
X20350000Y-18395000D01*
X18700000Y-18395000D01*
X18642597Y-18383582D01*
X18593934Y-18351066D01*
X18561418Y-18302403D01*
X18550000Y-18245000D01*
X18550000Y-17945000D01*
X18561418Y-17887597D01*
X18593934Y-17838934D01*
X18642597Y-17806418D01*
X18700000Y-17795000D01*
X20350000Y-17795000D01*
X20407403Y-17806418D01*
G37*
G36*
X25357403Y-17806418D02*
G01*
X25406066Y-17838934D01*
X25438582Y-17887597D01*
X25450000Y-17945000D01*
X25450000Y-18245000D01*
X25438582Y-18302403D01*
X25406066Y-18351066D01*
X25357403Y-18383582D01*
X25300000Y-18395000D01*
X23650000Y-18395000D01*
X23592597Y-18383582D01*
X23543934Y-18351066D01*
X23511418Y-18302403D01*
X23500000Y-18245000D01*
X23500000Y-17945000D01*
X23511418Y-17887597D01*
X23543934Y-17838934D01*
X23592597Y-17806418D01*
X23650000Y-17795000D01*
X25300000Y-17795000D01*
X25357403Y-17806418D01*
G37*
G36*
X37246742Y-15266601D02*
G01*
X37400687Y-15330367D01*
X37539234Y-15422941D01*
X37657059Y-15540766D01*
X37749633Y-15679313D01*
X37813399Y-15833258D01*
X37845907Y-15996685D01*
X37845907Y-16163315D01*
X37813399Y-16326742D01*
X37749633Y-16480687D01*
X37657059Y-16619234D01*
X37539234Y-16737059D01*
X37400687Y-16829633D01*
X37246742Y-16893399D01*
X37083315Y-16925907D01*
X36916685Y-16925907D01*
X36753258Y-16893399D01*
X36599313Y-16829633D01*
X36460766Y-16737059D01*
X36342941Y-16619234D01*
X36250367Y-16480687D01*
X36186601Y-16326742D01*
X36154093Y-16163315D01*
X36154093Y-15996685D01*
X36186601Y-15833258D01*
X36250367Y-15679313D01*
X36342941Y-15540766D01*
X36460766Y-15422941D01*
X36599313Y-15330367D01*
X36753258Y-15266601D01*
X36916685Y-15234093D01*
X37083315Y-15234093D01*
X37246742Y-15266601D01*
G37*
G36*
X39786742Y-15266601D02*
G01*
X39940687Y-15330367D01*
X40079234Y-15422941D01*
X40197059Y-15540766D01*
X40289633Y-15679313D01*
X40353399Y-15833258D01*
X40385907Y-15996685D01*
X40385907Y-16163315D01*
X40353399Y-16326742D01*
X40289633Y-16480687D01*
X40197059Y-16619234D01*
X40079234Y-16737059D01*
X39940687Y-16829633D01*
X39786742Y-16893399D01*
X39623315Y-16925907D01*
X39456685Y-16925907D01*
X39293258Y-16893399D01*
X39139313Y-16829633D01*
X39000766Y-16737059D01*
X38882941Y-16619234D01*
X38790367Y-16480687D01*
X38726601Y-16326742D01*
X38694093Y-16163315D01*
X38694093Y-15996685D01*
X38726601Y-15833258D01*
X38790367Y-15679313D01*
X38882941Y-15540766D01*
X39000766Y-15422941D01*
X39139313Y-15330367D01*
X39293258Y-15266601D01*
X39456685Y-15234093D01*
X39623315Y-15234093D01*
X39786742Y-15266601D01*
G37*
G36*
X13303231Y-15275642D02*
G01*
X13355772Y-15281738D01*
X13373723Y-15289664D01*
X13395671Y-15294030D01*
X13419166Y-15309729D01*
X13440890Y-15319321D01*
X13455726Y-15334157D01*
X13476777Y-15348223D01*
X13490842Y-15369273D01*
X13505678Y-15384109D01*
X13515269Y-15405830D01*
X13530970Y-15429329D01*
X13535335Y-15451277D01*
X13543260Y-15469224D01*
X13549352Y-15521747D01*
X13550000Y-15525000D01*
X13550000Y-16475000D01*
X13549354Y-16478243D01*
X13543261Y-16530772D01*
X13535336Y-16548719D01*
X13530970Y-16570671D01*
X13515267Y-16594171D01*
X13505678Y-16615890D01*
X13490844Y-16630723D01*
X13476777Y-16651777D01*
X13455723Y-16665844D01*
X13440890Y-16680678D01*
X13419170Y-16690267D01*
X13395671Y-16705970D01*
X13373720Y-16710336D01*
X13355775Y-16718260D01*
X13303254Y-16724352D01*
X13300000Y-16725000D01*
X12800000Y-16725000D01*
X12796758Y-16724355D01*
X12744227Y-16718261D01*
X12726278Y-16710335D01*
X12704329Y-16705970D01*
X12680830Y-16690268D01*
X12659109Y-16680678D01*
X12644273Y-16665842D01*
X12623223Y-16651777D01*
X12609157Y-16630726D01*
X12594321Y-16615890D01*
X12584729Y-16594166D01*
X12569030Y-16570671D01*
X12564664Y-16548724D01*
X12556739Y-16530775D01*
X12550644Y-16478242D01*
X12550000Y-16475000D01*
X12550000Y-15525000D01*
X12550642Y-15521770D01*
X12556738Y-15469227D01*
X12564664Y-15451274D01*
X12569030Y-15429329D01*
X12584728Y-15405835D01*
X12594321Y-15384109D01*
X12609159Y-15369270D01*
X12623223Y-15348223D01*
X12644270Y-15334159D01*
X12659109Y-15319321D01*
X12680835Y-15309727D01*
X12704329Y-15294030D01*
X12726273Y-15289665D01*
X12744224Y-15281739D01*
X12796759Y-15275644D01*
X12800000Y-15275000D01*
X13300000Y-15275000D01*
X13303231Y-15275642D01*
G37*
G36*
X15203231Y-15275642D02*
G01*
X15255772Y-15281738D01*
X15273723Y-15289664D01*
X15295671Y-15294030D01*
X15319166Y-15309729D01*
X15340890Y-15319321D01*
X15355726Y-15334157D01*
X15376777Y-15348223D01*
X15390842Y-15369273D01*
X15405678Y-15384109D01*
X15415269Y-15405830D01*
X15430970Y-15429329D01*
X15435335Y-15451277D01*
X15443260Y-15469224D01*
X15449352Y-15521747D01*
X15450000Y-15525000D01*
X15450000Y-16475000D01*
X15449354Y-16478243D01*
X15443261Y-16530772D01*
X15435336Y-16548719D01*
X15430970Y-16570671D01*
X15415267Y-16594171D01*
X15405678Y-16615890D01*
X15390844Y-16630723D01*
X15376777Y-16651777D01*
X15355723Y-16665844D01*
X15340890Y-16680678D01*
X15319170Y-16690267D01*
X15295671Y-16705970D01*
X15273720Y-16710336D01*
X15255775Y-16718260D01*
X15203254Y-16724352D01*
X15200000Y-16725000D01*
X14700000Y-16725000D01*
X14696758Y-16724355D01*
X14644227Y-16718261D01*
X14626278Y-16710335D01*
X14604329Y-16705970D01*
X14580830Y-16690268D01*
X14559109Y-16680678D01*
X14544273Y-16665842D01*
X14523223Y-16651777D01*
X14509157Y-16630726D01*
X14494321Y-16615890D01*
X14484729Y-16594166D01*
X14469030Y-16570671D01*
X14464664Y-16548724D01*
X14456739Y-16530775D01*
X14450644Y-16478242D01*
X14450000Y-16475000D01*
X14450000Y-15525000D01*
X14450642Y-15521770D01*
X14456738Y-15469227D01*
X14464664Y-15451274D01*
X14469030Y-15429329D01*
X14484728Y-15405835D01*
X14494321Y-15384109D01*
X14509159Y-15369270D01*
X14523223Y-15348223D01*
X14544270Y-15334159D01*
X14559109Y-15319321D01*
X14580835Y-15309727D01*
X14604329Y-15294030D01*
X14626273Y-15289665D01*
X14644224Y-15281739D01*
X14696759Y-15275644D01*
X14700000Y-15275000D01*
X15200000Y-15275000D01*
X15203231Y-15275642D01*
G37*
G36*
X37246742Y-12726601D02*
G01*
X37400687Y-12790367D01*
X37539234Y-12882941D01*
X37657059Y-13000766D01*
X37749633Y-13139313D01*
X37813399Y-13293258D01*
X37845907Y-13456685D01*
X37845907Y-13623315D01*
X37813399Y-13786742D01*
X37749633Y-13940687D01*
X37657059Y-14079234D01*
X37539234Y-14197059D01*
X37400687Y-14289633D01*
X37246742Y-14353399D01*
X37083315Y-14385907D01*
X36916685Y-14385907D01*
X36753258Y-14353399D01*
X36599313Y-14289633D01*
X36460766Y-14197059D01*
X36342941Y-14079234D01*
X36250367Y-13940687D01*
X36186601Y-13786742D01*
X36154093Y-13623315D01*
X36154093Y-13456685D01*
X36186601Y-13293258D01*
X36250367Y-13139313D01*
X36342941Y-13000766D01*
X36460766Y-12882941D01*
X36599313Y-12790367D01*
X36753258Y-12726601D01*
X36916685Y-12694093D01*
X37083315Y-12694093D01*
X37246742Y-12726601D01*
G37*
G36*
X39786742Y-12726601D02*
G01*
X39940687Y-12790367D01*
X40079234Y-12882941D01*
X40197059Y-13000766D01*
X40289633Y-13139313D01*
X40353399Y-13293258D01*
X40385907Y-13456685D01*
X40385907Y-13623315D01*
X40353399Y-13786742D01*
X40289633Y-13940687D01*
X40197059Y-14079234D01*
X40079234Y-14197059D01*
X39940687Y-14289633D01*
X39786742Y-14353399D01*
X39623315Y-14385907D01*
X39456685Y-14385907D01*
X39293258Y-14353399D01*
X39139313Y-14289633D01*
X39000766Y-14197059D01*
X38882941Y-14079234D01*
X38790367Y-13940687D01*
X38726601Y-13786742D01*
X38694093Y-13623315D01*
X38694093Y-13456685D01*
X38726601Y-13293258D01*
X38790367Y-13139313D01*
X38882941Y-13000766D01*
X39000766Y-12882941D01*
X39139313Y-12790367D01*
X39293258Y-12726601D01*
X39456685Y-12694093D01*
X39623315Y-12694093D01*
X39786742Y-12726601D01*
G37*
G36*
X15303231Y-12275642D02*
G01*
X15355772Y-12281738D01*
X15373723Y-12289664D01*
X15395671Y-12294030D01*
X15419166Y-12309729D01*
X15440890Y-12319321D01*
X15455726Y-12334157D01*
X15476777Y-12348223D01*
X15490842Y-12369273D01*
X15505678Y-12384109D01*
X15515269Y-12405830D01*
X15530970Y-12429329D01*
X15535335Y-12451277D01*
X15543260Y-12469224D01*
X15549352Y-12521747D01*
X15550000Y-12525000D01*
X15550000Y-13475000D01*
X15549354Y-13478243D01*
X15543261Y-13530772D01*
X15535336Y-13548719D01*
X15530970Y-13570671D01*
X15515267Y-13594171D01*
X15505678Y-13615890D01*
X15490844Y-13630723D01*
X15476777Y-13651777D01*
X15455723Y-13665844D01*
X15440890Y-13680678D01*
X15419170Y-13690267D01*
X15395671Y-13705970D01*
X15373720Y-13710336D01*
X15355775Y-13718260D01*
X15303254Y-13724352D01*
X15300000Y-13725000D01*
X14800000Y-13725000D01*
X14796758Y-13724355D01*
X14744227Y-13718261D01*
X14726278Y-13710335D01*
X14704329Y-13705970D01*
X14680830Y-13690268D01*
X14659109Y-13680678D01*
X14644273Y-13665842D01*
X14623223Y-13651777D01*
X14609157Y-13630726D01*
X14594321Y-13615890D01*
X14584729Y-13594166D01*
X14569030Y-13570671D01*
X14564664Y-13548724D01*
X14556739Y-13530775D01*
X14550644Y-13478242D01*
X14550000Y-13475000D01*
X14550000Y-12525000D01*
X14550642Y-12521770D01*
X14556738Y-12469227D01*
X14564664Y-12451274D01*
X14569030Y-12429329D01*
X14584728Y-12405835D01*
X14594321Y-12384109D01*
X14609159Y-12369270D01*
X14623223Y-12348223D01*
X14644270Y-12334159D01*
X14659109Y-12319321D01*
X14680835Y-12309727D01*
X14704329Y-12294030D01*
X14726273Y-12289665D01*
X14744224Y-12281739D01*
X14796759Y-12275644D01*
X14800000Y-12275000D01*
X15300000Y-12275000D01*
X15303231Y-12275642D01*
G37*
G36*
X17203231Y-12275642D02*
G01*
X17255772Y-12281738D01*
X17273723Y-12289664D01*
X17295671Y-12294030D01*
X17319166Y-12309729D01*
X17340890Y-12319321D01*
X17355726Y-12334157D01*
X17376777Y-12348223D01*
X17390842Y-12369273D01*
X17405678Y-12384109D01*
X17415269Y-12405830D01*
X17430970Y-12429329D01*
X17435335Y-12451277D01*
X17443260Y-12469224D01*
X17449352Y-12521747D01*
X17450000Y-12525000D01*
X17450000Y-13475000D01*
X17449354Y-13478243D01*
X17443261Y-13530772D01*
X17435336Y-13548719D01*
X17430970Y-13570671D01*
X17415267Y-13594171D01*
X17405678Y-13615890D01*
X17390844Y-13630723D01*
X17376777Y-13651777D01*
X17355723Y-13665844D01*
X17340890Y-13680678D01*
X17319170Y-13690267D01*
X17295671Y-13705970D01*
X17273720Y-13710336D01*
X17255775Y-13718260D01*
X17203254Y-13724352D01*
X17200000Y-13725000D01*
X16700000Y-13725000D01*
X16696758Y-13724355D01*
X16644227Y-13718261D01*
X16626278Y-13710335D01*
X16604329Y-13705970D01*
X16580830Y-13690268D01*
X16559109Y-13680678D01*
X16544273Y-13665842D01*
X16523223Y-13651777D01*
X16509157Y-13630726D01*
X16494321Y-13615890D01*
X16484729Y-13594166D01*
X16469030Y-13570671D01*
X16464664Y-13548724D01*
X16456739Y-13530775D01*
X16450644Y-13478242D01*
X16450000Y-13475000D01*
X16450000Y-12525000D01*
X16450642Y-12521770D01*
X16456738Y-12469227D01*
X16464664Y-12451274D01*
X16469030Y-12429329D01*
X16484728Y-12405835D01*
X16494321Y-12384109D01*
X16509159Y-12369270D01*
X16523223Y-12348223D01*
X16544270Y-12334159D01*
X16559109Y-12319321D01*
X16580835Y-12309727D01*
X16604329Y-12294030D01*
X16626273Y-12289665D01*
X16644224Y-12281739D01*
X16696759Y-12275644D01*
X16700000Y-12275000D01*
X17200000Y-12275000D01*
X17203231Y-12275642D01*
G37*
G36*
X21353231Y-12300642D02*
G01*
X21405772Y-12306738D01*
X21423723Y-12314664D01*
X21445671Y-12319030D01*
X21469166Y-12334729D01*
X21490890Y-12344321D01*
X21505726Y-12359157D01*
X21526777Y-12373223D01*
X21540842Y-12394273D01*
X21555678Y-12409109D01*
X21565269Y-12430830D01*
X21580970Y-12454329D01*
X21585335Y-12476277D01*
X21593260Y-12494224D01*
X21599352Y-12546747D01*
X21600000Y-12550000D01*
X21600000Y-13450000D01*
X21599354Y-13453243D01*
X21593261Y-13505772D01*
X21585336Y-13523719D01*
X21580970Y-13545671D01*
X21565267Y-13569171D01*
X21555678Y-13590890D01*
X21540844Y-13605723D01*
X21526777Y-13626777D01*
X21505723Y-13640844D01*
X21490890Y-13655678D01*
X21469170Y-13665267D01*
X21445671Y-13680970D01*
X21423720Y-13685336D01*
X21405775Y-13693260D01*
X21353254Y-13699352D01*
X21350000Y-13700000D01*
X20825000Y-13700000D01*
X20821758Y-13699355D01*
X20769227Y-13693261D01*
X20751278Y-13685335D01*
X20729329Y-13680970D01*
X20705830Y-13665268D01*
X20684109Y-13655678D01*
X20669273Y-13640842D01*
X20648223Y-13626777D01*
X20634157Y-13605726D01*
X20619321Y-13590890D01*
X20609729Y-13569166D01*
X20594030Y-13545671D01*
X20589664Y-13523724D01*
X20581739Y-13505775D01*
X20575644Y-13453242D01*
X20575000Y-13450000D01*
X20575000Y-12550000D01*
X20575642Y-12546770D01*
X20581738Y-12494227D01*
X20589664Y-12476274D01*
X20594030Y-12454329D01*
X20609728Y-12430835D01*
X20619321Y-12409109D01*
X20634159Y-12394270D01*
X20648223Y-12373223D01*
X20669270Y-12359159D01*
X20684109Y-12344321D01*
X20705835Y-12334727D01*
X20729329Y-12319030D01*
X20751273Y-12314665D01*
X20769224Y-12306739D01*
X20821759Y-12300644D01*
X20825000Y-12300000D01*
X21350000Y-12300000D01*
X21353231Y-12300642D01*
G37*
G36*
X23178231Y-12300642D02*
G01*
X23230772Y-12306738D01*
X23248723Y-12314664D01*
X23270671Y-12319030D01*
X23294166Y-12334729D01*
X23315890Y-12344321D01*
X23330726Y-12359157D01*
X23351777Y-12373223D01*
X23365842Y-12394273D01*
X23380678Y-12409109D01*
X23390269Y-12430830D01*
X23405970Y-12454329D01*
X23410335Y-12476277D01*
X23418260Y-12494224D01*
X23424352Y-12546747D01*
X23425000Y-12550000D01*
X23425000Y-13450000D01*
X23424354Y-13453243D01*
X23418261Y-13505772D01*
X23410336Y-13523719D01*
X23405970Y-13545671D01*
X23390267Y-13569171D01*
X23380678Y-13590890D01*
X23365844Y-13605723D01*
X23351777Y-13626777D01*
X23330723Y-13640844D01*
X23315890Y-13655678D01*
X23294170Y-13665267D01*
X23270671Y-13680970D01*
X23248720Y-13685336D01*
X23230775Y-13693260D01*
X23178254Y-13699352D01*
X23175000Y-13700000D01*
X22650000Y-13700000D01*
X22646758Y-13699355D01*
X22594227Y-13693261D01*
X22576278Y-13685335D01*
X22554329Y-13680970D01*
X22530830Y-13665268D01*
X22509109Y-13655678D01*
X22494273Y-13640842D01*
X22473223Y-13626777D01*
X22459157Y-13605726D01*
X22444321Y-13590890D01*
X22434729Y-13569166D01*
X22419030Y-13545671D01*
X22414664Y-13523724D01*
X22406739Y-13505775D01*
X22400644Y-13453242D01*
X22400000Y-13450000D01*
X22400000Y-12550000D01*
X22400642Y-12546770D01*
X22406738Y-12494227D01*
X22414664Y-12476274D01*
X22419030Y-12454329D01*
X22434728Y-12430835D01*
X22444321Y-12409109D01*
X22459159Y-12394270D01*
X22473223Y-12373223D01*
X22494270Y-12359159D01*
X22509109Y-12344321D01*
X22530835Y-12334727D01*
X22554329Y-12319030D01*
X22576273Y-12314665D01*
X22594224Y-12306739D01*
X22646759Y-12300644D01*
X22650000Y-12300000D01*
X23175000Y-12300000D01*
X23178231Y-12300642D01*
G37*
G36*
X37850000Y-11850000D02*
G01*
X36150000Y-11850000D01*
X36150000Y-10150000D01*
X37850000Y-10150000D01*
X37850000Y-11850000D01*
G37*
G36*
X39786742Y-10186601D02*
G01*
X39940687Y-10250367D01*
X40079234Y-10342941D01*
X40197059Y-10460766D01*
X40289633Y-10599313D01*
X40353399Y-10753258D01*
X40385907Y-10916685D01*
X40385907Y-11083315D01*
X40353399Y-11246742D01*
X40289633Y-11400687D01*
X40197059Y-11539234D01*
X40079234Y-11657059D01*
X39940687Y-11749633D01*
X39786742Y-11813399D01*
X39623315Y-11845907D01*
X39456685Y-11845907D01*
X39293258Y-11813399D01*
X39139313Y-11749633D01*
X39000766Y-11657059D01*
X38882941Y-11539234D01*
X38790367Y-11400687D01*
X38726601Y-11246742D01*
X38694093Y-11083315D01*
X38694093Y-10916685D01*
X38726601Y-10753258D01*
X38790367Y-10599313D01*
X38882941Y-10460766D01*
X39000766Y-10342941D01*
X39139313Y-10250367D01*
X39293258Y-10186601D01*
X39456685Y-10154093D01*
X39623315Y-10154093D01*
X39786742Y-10186601D01*
G37*
G36*
X21353231Y-8300642D02*
G01*
X21405772Y-8306738D01*
X21423723Y-8314664D01*
X21445671Y-8319030D01*
X21469166Y-8334729D01*
X21490890Y-8344321D01*
X21505726Y-8359157D01*
X21526777Y-8373223D01*
X21540842Y-8394273D01*
X21555678Y-8409109D01*
X21565269Y-8430830D01*
X21580970Y-8454329D01*
X21585335Y-8476277D01*
X21593260Y-8494224D01*
X21599352Y-8546747D01*
X21600000Y-8550000D01*
X21600000Y-9450000D01*
X21599354Y-9453243D01*
X21593261Y-9505772D01*
X21585336Y-9523719D01*
X21580970Y-9545671D01*
X21565267Y-9569171D01*
X21555678Y-9590890D01*
X21540844Y-9605723D01*
X21526777Y-9626777D01*
X21505723Y-9640844D01*
X21490890Y-9655678D01*
X21469170Y-9665267D01*
X21445671Y-9680970D01*
X21423720Y-9685336D01*
X21405775Y-9693260D01*
X21353254Y-9699352D01*
X21350000Y-9700000D01*
X20825000Y-9700000D01*
X20821758Y-9699355D01*
X20769227Y-9693261D01*
X20751278Y-9685335D01*
X20729329Y-9680970D01*
X20705830Y-9665268D01*
X20684109Y-9655678D01*
X20669273Y-9640842D01*
X20648223Y-9626777D01*
X20634157Y-9605726D01*
X20619321Y-9590890D01*
X20609729Y-9569166D01*
X20594030Y-9545671D01*
X20589664Y-9523724D01*
X20581739Y-9505775D01*
X20575644Y-9453242D01*
X20575000Y-9450000D01*
X20575000Y-8550000D01*
X20575642Y-8546770D01*
X20581738Y-8494227D01*
X20589664Y-8476274D01*
X20594030Y-8454329D01*
X20609728Y-8430835D01*
X20619321Y-8409109D01*
X20634159Y-8394270D01*
X20648223Y-8373223D01*
X20669270Y-8359159D01*
X20684109Y-8344321D01*
X20705835Y-8334727D01*
X20729329Y-8319030D01*
X20751273Y-8314665D01*
X20769224Y-8306739D01*
X20821759Y-8300644D01*
X20825000Y-8300000D01*
X21350000Y-8300000D01*
X21353231Y-8300642D01*
G37*
G36*
X23178231Y-8300642D02*
G01*
X23230772Y-8306738D01*
X23248723Y-8314664D01*
X23270671Y-8319030D01*
X23294166Y-8334729D01*
X23315890Y-8344321D01*
X23330726Y-8359157D01*
X23351777Y-8373223D01*
X23365842Y-8394273D01*
X23380678Y-8409109D01*
X23390269Y-8430830D01*
X23405970Y-8454329D01*
X23410335Y-8476277D01*
X23418260Y-8494224D01*
X23424352Y-8546747D01*
X23425000Y-8550000D01*
X23425000Y-9450000D01*
X23424354Y-9453243D01*
X23418261Y-9505772D01*
X23410336Y-9523719D01*
X23405970Y-9545671D01*
X23390267Y-9569171D01*
X23380678Y-9590890D01*
X23365844Y-9605723D01*
X23351777Y-9626777D01*
X23330723Y-9640844D01*
X23315890Y-9655678D01*
X23294170Y-9665267D01*
X23270671Y-9680970D01*
X23248720Y-9685336D01*
X23230775Y-9693260D01*
X23178254Y-9699352D01*
X23175000Y-9700000D01*
X22650000Y-9700000D01*
X22646758Y-9699355D01*
X22594227Y-9693261D01*
X22576278Y-9685335D01*
X22554329Y-9680970D01*
X22530830Y-9665268D01*
X22509109Y-9655678D01*
X22494273Y-9640842D01*
X22473223Y-9626777D01*
X22459157Y-9605726D01*
X22444321Y-9590890D01*
X22434729Y-9569166D01*
X22419030Y-9545671D01*
X22414664Y-9523724D01*
X22406739Y-9505775D01*
X22400644Y-9453242D01*
X22400000Y-9450000D01*
X22400000Y-8550000D01*
X22400642Y-8546770D01*
X22406738Y-8494227D01*
X22414664Y-8476274D01*
X22419030Y-8454329D01*
X22434728Y-8430835D01*
X22444321Y-8409109D01*
X22459159Y-8394270D01*
X22473223Y-8373223D01*
X22494270Y-8359159D01*
X22509109Y-8344321D01*
X22530835Y-8334727D01*
X22554329Y-8319030D01*
X22576273Y-8314665D01*
X22594224Y-8306739D01*
X22646759Y-8300644D01*
X22650000Y-8300000D01*
X23175000Y-8300000D01*
X23178231Y-8300642D01*
G37*
G36*
X4373513Y-2444208D02*
G01*
X4612293Y-2521793D01*
X4835998Y-2635776D01*
X5039117Y-2783350D01*
X5216650Y-2960883D01*
X5364224Y-3164002D01*
X5478207Y-3387707D01*
X5555792Y-3626487D01*
X5595068Y-3874465D01*
X5595068Y-4125535D01*
X5555792Y-4373513D01*
X5478207Y-4612293D01*
X5364224Y-4835998D01*
X5216650Y-5039117D01*
X5039117Y-5216650D01*
X4835998Y-5364224D01*
X4612293Y-5478207D01*
X4373513Y-5555792D01*
X4125535Y-5595068D01*
X3874465Y-5595068D01*
X3626487Y-5555792D01*
X3387707Y-5478207D01*
X3164002Y-5364224D01*
X2960883Y-5216650D01*
X2783350Y-5039117D01*
X2635776Y-4835998D01*
X2521793Y-4612293D01*
X2444208Y-4373513D01*
X2404932Y-4125535D01*
X2404932Y-3874465D01*
X2444208Y-3626487D01*
X2521793Y-3387707D01*
X2635776Y-3164002D01*
X2783350Y-2960883D01*
X2960883Y-2783350D01*
X3164002Y-2635776D01*
X3387707Y-2521793D01*
X3626487Y-2444208D01*
X3874465Y-2404932D01*
X4125535Y-2404932D01*
X4373513Y-2444208D01*
G37*
G36*
X46373513Y-2444208D02*
G01*
X46612293Y-2521793D01*
X46835998Y-2635776D01*
X47039117Y-2783350D01*
X47216650Y-2960883D01*
X47364224Y-3164002D01*
X47478207Y-3387707D01*
X47555792Y-3626487D01*
X47595068Y-3874465D01*
X47595068Y-4125535D01*
X47555792Y-4373513D01*
X47478207Y-4612293D01*
X47364224Y-4835998D01*
X47216650Y-5039117D01*
X47039117Y-5216650D01*
X46835998Y-5364224D01*
X46612293Y-5478207D01*
X46373513Y-5555792D01*
X46125535Y-5595068D01*
X45874465Y-5595068D01*
X45626487Y-5555792D01*
X45387707Y-5478207D01*
X45164002Y-5364224D01*
X44960883Y-5216650D01*
X44783350Y-5039117D01*
X44635776Y-4835998D01*
X44521793Y-4612293D01*
X44444208Y-4373513D01*
X44404932Y-4125535D01*
X44404932Y-3874465D01*
X44444208Y-3626487D01*
X44521793Y-3387707D01*
X44635776Y-3164002D01*
X44783350Y-2960883D01*
X44960883Y-2783350D01*
X45164002Y-2635776D01*
X45387707Y-2521793D01*
X45626487Y-2444208D01*
X45874465Y-2404932D01*
X46125535Y-2404932D01*
X46373513Y-2444208D01*
G37*
M02*
