G04 #@! TF.GenerationSoftware,KiCad,Pcbnew,9.0.2+dfsg-1*
G04 #@! TF.CreationDate,2026-09-14T14:00:37+07:00*
G04 #@! TF.ProjectId,attiny85_timer,61747469-6e79-4383-955f-74696d65722e,rev?*
G04 #@! TF.SameCoordinates,Original*
G04 #@! TF.FileFunction,Copper,L1,Top*
G04 #@! TF.FilePolarity,Positive*
%FSLAX46Y46*%
G04 Gerber Fmt 4.6, Leading zero omitted, Abs format (unit mm)*
G04 Created by KiCad (PCBNEW 9.0.2+dfsg-1) date 2026-09-14 14:00:37*
%MOMM*%
%LPD*%
G01*
G04 APERTURE LIST*
G04 Aperture macros list*
%AMRoundRect*
0 Rectangle with rounded corners*
0 $1 Rounding radius*
0 $2 $3 $4 $5 $6 $7 $8 $9 X,Y pos of 4 corners*
0 Add a 4 corners polygon primitive as box body*
4,1,4,$2,$3,$4,$5,$6,$7,$8,$9,$2,$3,0*
0 Add four circle primitives for the rounded corners*
1,1,$1+$1,$2,$3*
1,1,$1+$1,$4,$5*
1,1,$1+$1,$6,$7*
1,1,$1+$1,$8,$9*
0 Add four rect primitives between the rounded corners*
20,1,$1+$1,$2,$3,$4,$5,0*
20,1,$1+$1,$4,$5,$6,$7,0*
20,1,$1+$1,$6,$7,$8,$9,0*
20,1,$1+$1,$8,$9,$2,$3,0*%
G04 Aperture macros list end*
G04 #@! TA.AperFunction,SMDPad,CuDef*
%ADD10RoundRect,0.250000X-0.250000X-0.475000X0.250000X-0.475000X0.250000X0.475000X-0.250000X0.475000X0*%
G04 #@! TD*
G04 #@! TA.AperFunction,SMDPad,CuDef*
%ADD11R,1.450000X0.600000*%
G04 #@! TD*
G04 #@! TA.AperFunction,SMDPad,CuDef*
%ADD12R,1.450000X0.300000*%
G04 #@! TD*
G04 #@! TA.AperFunction,HeatsinkPad*
%ADD13O,2.100000X1.000000*%
G04 #@! TD*
G04 #@! TA.AperFunction,HeatsinkPad*
%ADD14O,1.600000X1.000000*%
G04 #@! TD*
G04 #@! TA.AperFunction,SMDPad,CuDef*
%ADD15RoundRect,0.243750X-0.243750X-0.456250X0.243750X-0.456250X0.243750X0.456250X-0.243750X0.456250X0*%
G04 #@! TD*
G04 #@! TA.AperFunction,ComponentPad*
%ADD16R,1.700000X1.700000*%
G04 #@! TD*
G04 #@! TA.AperFunction,ComponentPad*
%ADD17C,1.700000*%
G04 #@! TD*
G04 #@! TA.AperFunction,SMDPad,CuDef*
%ADD18RoundRect,0.250000X-0.262500X-0.450000X0.262500X-0.450000X0.262500X0.450000X-0.262500X0.450000X0*%
G04 #@! TD*
G04 #@! TA.AperFunction,SMDPad,CuDef*
%ADD19RoundRect,0.250000X-0.450000X0.262500X-0.450000X-0.262500X0.450000X-0.262500X0.450000X0.262500X0*%
G04 #@! TD*
G04 #@! TA.AperFunction,SMDPad,CuDef*
%ADD20RoundRect,0.250000X0.250000X0.475000X-0.250000X0.475000X-0.250000X-0.475000X0.250000X-0.475000X0*%
G04 #@! TD*
G04 #@! TA.AperFunction,SMDPad,CuDef*
%ADD21RoundRect,0.150000X-0.825000X-0.150000X0.825000X-0.150000X0.825000X0.150000X-0.825000X0.150000X0*%
G04 #@! TD*
G04 #@! TA.AperFunction,ViaPad*
%ADD22C,0.600000*%
G04 #@! TD*
G04 #@! TA.AperFunction,Conductor*
%ADD23C,0.250000*%
G04 #@! TD*
G04 #@! TA.AperFunction,Conductor*
%ADD24C,0.350000*%
G04 #@! TD*
G04 #@! TA.AperFunction,Conductor*
%ADD25C,0.400000*%
G04 #@! TD*
G04 #@! TA.AperFunction,Conductor*
%ADD26C,0.300000*%
G04 #@! TD*
G04 APERTURE END LIST*
D10*
G04 #@! TO.P,C1,1*
G04 #@! TO.N,+5V*
X13050000Y-16000000D03*
G04 #@! TO.P,C1,2*
G04 #@! TO.N,GND*
X14950000Y-16000000D03*
G04 #@! TD*
D11*
G04 #@! TO.P,J1,A1*
G04 #@! TO.N,GND*
X8345000Y-21750000D03*
G04 #@! TO.P,J1,A4*
G04 #@! TO.N,+5V*
X8345000Y-22550000D03*
D12*
G04 #@! TO.P,J1,A5*
G04 #@! TO.N,CC1*
X8345000Y-23750000D03*
G04 #@! TO.P,J1,A6*
G04 #@! TO.N,N/C*
X8345000Y-24750000D03*
G04 #@! TO.P,J1,A7*
X8345000Y-25250000D03*
G04 #@! TO.P,J1,A8*
X8345000Y-26250000D03*
D11*
G04 #@! TO.P,J1,A9*
G04 #@! TO.N,+5V*
X8345000Y-27450000D03*
G04 #@! TO.P,J1,A12*
G04 #@! TO.N,GND*
X8345000Y-28250000D03*
G04 #@! TO.P,J1,B1*
X8345000Y-28250000D03*
G04 #@! TO.P,J1,B4*
G04 #@! TO.N,+5V*
X8345000Y-27450000D03*
D12*
G04 #@! TO.P,J1,B5*
G04 #@! TO.N,CC2*
X8345000Y-26750000D03*
G04 #@! TO.P,J1,B6*
G04 #@! TO.N,N/C*
X8345000Y-25750000D03*
G04 #@! TO.P,J1,B7*
X8345000Y-24250000D03*
G04 #@! TO.P,J1,B8*
X8345000Y-23250000D03*
D11*
G04 #@! TO.P,J1,B9*
G04 #@! TO.N,+5V*
X8345000Y-22550000D03*
G04 #@! TO.P,J1,B12*
G04 #@! TO.N,GND*
X8345000Y-21750000D03*
D13*
G04 #@! TO.P,J1,S1*
X7430000Y-20680000D03*
D14*
X3250000Y-20680000D03*
D13*
X7430000Y-29320000D03*
D14*
X3250000Y-29320000D03*
G04 #@! TD*
D15*
G04 #@! TO.P,D2,1*
G04 #@! TO.N,NE555_PULSE*
X19062500Y-36000000D03*
G04 #@! TO.P,D2,2*
G04 #@! TO.N,PULSE_LED_R*
X20937500Y-36000000D03*
G04 #@! TD*
D16*
G04 #@! TO.P,J3,1*
G04 #@! TO.N,+5V*
X24000000Y-44000000D03*
D17*
G04 #@! TO.P,J3,2*
G04 #@! TO.N,GND*
X26540000Y-44000000D03*
G04 #@! TO.P,J3,3*
G04 #@! TO.N,NE555_PULSE*
X29080000Y-44000000D03*
G04 #@! TO.P,J3,4*
G04 #@! TO.N,ATTINY_OUT*
X31620000Y-44000000D03*
G04 #@! TD*
D18*
G04 #@! TO.P,R2,1*
G04 #@! TO.N,CC2*
X13087500Y-26750000D03*
G04 #@! TO.P,R2,2*
G04 #@! TO.N,GND*
X14912500Y-26750000D03*
G04 #@! TD*
G04 #@! TO.P,R4,1*
G04 #@! TO.N,PULSE_LED_R*
X23087500Y-36000000D03*
G04 #@! TO.P,R4,2*
G04 #@! TO.N,GND*
X24912500Y-36000000D03*
G04 #@! TD*
D19*
G04 #@! TO.P,R7,1*
G04 #@! TO.N,+5V*
X34525000Y-19887500D03*
G04 #@! TO.P,R7,2*
G04 #@! TO.N,RESET*
X34525000Y-21712500D03*
G04 #@! TD*
D20*
G04 #@! TO.P,C2,1*
G04 #@! TO.N,NE555_TRIG*
X16950000Y-13000000D03*
G04 #@! TO.P,C2,2*
G04 #@! TO.N,GND*
X15050000Y-13000000D03*
G04 #@! TD*
D15*
G04 #@! TO.P,D3,1*
G04 #@! TO.N,STATUS_LED*
X30062500Y-36000000D03*
G04 #@! TO.P,D3,2*
G04 #@! TO.N,STATUS_LED_R*
X31937500Y-36000000D03*
G04 #@! TD*
D10*
G04 #@! TO.P,C3,1*
G04 #@! TO.N,NE555_CV*
X27050000Y-22000000D03*
G04 #@! TO.P,C3,2*
G04 #@! TO.N,GND*
X28950000Y-22000000D03*
G04 #@! TD*
G04 #@! TO.P,C4,1*
G04 #@! TO.N,+5V*
X27050000Y-18000000D03*
G04 #@! TO.P,C4,2*
G04 #@! TO.N,GND*
X28950000Y-18000000D03*
G04 #@! TD*
D18*
G04 #@! TO.P,R3,1*
G04 #@! TO.N,PWR_LED_R*
X13587500Y-36000000D03*
G04 #@! TO.P,R3,2*
G04 #@! TO.N,GND*
X15412500Y-36000000D03*
G04 #@! TD*
D10*
G04 #@! TO.P,C5,1*
G04 #@! TO.N,+5V*
X42550000Y-23500000D03*
G04 #@! TO.P,C5,2*
G04 #@! TO.N,GND*
X44450000Y-23500000D03*
G04 #@! TD*
D18*
G04 #@! TO.P,R8,1*
G04 #@! TO.N,STATUS_LED_R*
X34087500Y-36000000D03*
G04 #@! TO.P,R8,2*
G04 #@! TO.N,GND*
X35912500Y-36000000D03*
G04 #@! TD*
D16*
G04 #@! TO.P,J2,1*
G04 #@! TO.N,MISO*
X37000000Y-11000000D03*
D17*
G04 #@! TO.P,J2,2*
G04 #@! TO.N,+5V*
X39540000Y-11000000D03*
G04 #@! TO.P,J2,3*
G04 #@! TO.N,NE555_PULSE*
X37000000Y-13540000D03*
G04 #@! TO.P,J2,4*
G04 #@! TO.N,MOSI*
X39540000Y-13540000D03*
G04 #@! TO.P,J2,5*
G04 #@! TO.N,RESET*
X37000000Y-16080000D03*
G04 #@! TO.P,J2,6*
G04 #@! TO.N,GND*
X39540000Y-16080000D03*
G04 #@! TD*
D18*
G04 #@! TO.P,R5,1*
G04 #@! TO.N,+5V*
X21087500Y-9000000D03*
G04 #@! TO.P,R5,2*
G04 #@! TO.N,NE555_DISCH*
X22912500Y-9000000D03*
G04 #@! TD*
G04 #@! TO.P,R1,1*
G04 #@! TO.N,CC1*
X13087500Y-23750000D03*
G04 #@! TO.P,R1,2*
G04 #@! TO.N,GND*
X14912500Y-23750000D03*
G04 #@! TD*
D15*
G04 #@! TO.P,D1,1*
G04 #@! TO.N,+5V*
X9562500Y-36000000D03*
G04 #@! TO.P,D1,2*
G04 #@! TO.N,PWR_LED_R*
X11437500Y-36000000D03*
G04 #@! TD*
D21*
G04 #@! TO.P,U1,1*
G04 #@! TO.N,GND*
X19525000Y-18095000D03*
G04 #@! TO.P,U1,2*
G04 #@! TO.N,NE555_TRIG*
X19525000Y-19365000D03*
G04 #@! TO.P,U1,3*
G04 #@! TO.N,NE555_PULSE*
X19525000Y-20635000D03*
G04 #@! TO.P,U1,4*
G04 #@! TO.N,+5V*
X19525000Y-21905000D03*
G04 #@! TO.P,U1,5*
G04 #@! TO.N,NE555_CV*
X24475000Y-21905000D03*
G04 #@! TO.P,U1,6*
G04 #@! TO.N,NE555_TRIG*
X24475000Y-20635000D03*
G04 #@! TO.P,U1,7*
G04 #@! TO.N,NE555_DISCH*
X24475000Y-19365000D03*
G04 #@! TO.P,U1,8*
G04 #@! TO.N,+5V*
X24475000Y-18095000D03*
G04 #@! TD*
G04 #@! TO.P,U2,1*
G04 #@! TO.N,RESET*
X34525000Y-24095000D03*
G04 #@! TO.P,U2,2*
G04 #@! TO.N,STATUS_LED*
X34525000Y-25365000D03*
G04 #@! TO.P,U2,3*
G04 #@! TO.N,ATTINY_OUT*
X34525000Y-26635000D03*
G04 #@! TO.P,U2,4*
G04 #@! TO.N,GND*
X34525000Y-27905000D03*
G04 #@! TO.P,U2,5*
G04 #@! TO.N,MOSI*
X39475000Y-27905000D03*
G04 #@! TO.P,U2,6*
G04 #@! TO.N,MISO*
X39475000Y-26635000D03*
G04 #@! TO.P,U2,7*
G04 #@! TO.N,NE555_PULSE*
X39475000Y-25365000D03*
G04 #@! TO.P,U2,8*
G04 #@! TO.N,+5V*
X39475000Y-24095000D03*
G04 #@! TD*
D18*
G04 #@! TO.P,R6,1*
G04 #@! TO.N,NE555_TRIG*
X21087500Y-13000000D03*
G04 #@! TO.P,R6,2*
G04 #@! TO.N,NE555_DISCH*
X22912500Y-13000000D03*
G04 #@! TD*
D22*
G04 #@! TO.N,GND*
X15412000Y-38500000D03*
X19525000Y-16500000D03*
X30500000Y-18000000D03*
X46000000Y-23500000D03*
X14950000Y-17800000D03*
X34525000Y-30500000D03*
X13500000Y-13000000D03*
X14912000Y-22200000D03*
X14912000Y-28300000D03*
X30500000Y-22000000D03*
X24913000Y-38500000D03*
X35913000Y-38500000D03*
G04 #@! TO.N,+5V*
X21000000Y-23000000D03*
X24475000Y-18095000D03*
X9562000Y-38500000D03*
X12000000Y-22550000D03*
X12000000Y-27450000D03*
X27050000Y-18000000D03*
G04 #@! TO.N,NE555_PULSE*
X19062000Y-38000000D03*
X17000000Y-20635000D03*
X41500000Y-25365000D03*
G04 #@! TO.N,ATTINY_OUT*
X31620000Y-26635000D03*
G04 #@! TO.N,MOSI*
X43500000Y-27905000D03*
G04 #@! TO.N,MISO*
X45000000Y-26635000D03*
G04 #@! TO.N,NE555_TRIG*
X23000000Y-20635000D03*
X21000000Y-19365000D03*
G04 #@! TD*
D23*
G04 #@! TO.N,GND*
X15412000Y-36000000D02*
X15412000Y-38500000D01*
X8345000Y-28250000D02*
X7430000Y-29320000D01*
X35913000Y-36000000D02*
X35913000Y-38500000D01*
X28950000Y-22000000D02*
X30500000Y-22000000D01*
X34525000Y-27905000D02*
X34525000Y-30500000D01*
X14912000Y-26750000D02*
X14912000Y-28300000D01*
X8345000Y-21750000D02*
X7430000Y-20680000D01*
X24913000Y-36000000D02*
X24913000Y-38500000D01*
X44450000Y-23500000D02*
X46000000Y-23500000D01*
X14950000Y-16000000D02*
X14950000Y-17800000D01*
X19525000Y-18095000D02*
X19525000Y-16500000D01*
X14912000Y-23750000D02*
X14912000Y-22200000D01*
X28950000Y-18000000D02*
X30500000Y-18000000D01*
X15050000Y-13000000D02*
X13500000Y-13000000D01*
D24*
G04 #@! TO.N,+5V*
X27050000Y-6000000D02*
X27050000Y-18000000D01*
D23*
X21000000Y-21905000D02*
X21000000Y-23000000D01*
D24*
X11800000Y-22550000D02*
X11800000Y-16000000D01*
X11800000Y-16000000D02*
X13050000Y-16000000D01*
X21087000Y-6000000D02*
X21087000Y-9000000D01*
X8345000Y-22550000D02*
X11800000Y-22550000D01*
D25*
X11500000Y-16000000D02*
X11500000Y-6000000D01*
D23*
X19525000Y-21905000D02*
X21000000Y-21905000D01*
D25*
X11500000Y-6000000D02*
X41500000Y-6000000D01*
D24*
X11800000Y-27450000D02*
X12000000Y-27450000D01*
X9562000Y-33000000D02*
X9562000Y-36000000D01*
X41500000Y-11000000D02*
X39540000Y-11000000D01*
D25*
X13050000Y-16000000D02*
X11500000Y-16000000D01*
D24*
X41500000Y-11000000D02*
X41500000Y-24095000D01*
X11800000Y-22550000D02*
X12000000Y-22550000D01*
D26*
X41500000Y-19887000D02*
X34525000Y-19887000D01*
D24*
X9562000Y-36000000D02*
X9562000Y-38500000D01*
X41500000Y-24095000D02*
X39475000Y-24095000D01*
X8345000Y-27450000D02*
X11800000Y-27450000D01*
X41500000Y-24095000D02*
X42550000Y-24095000D01*
X11800000Y-33000000D02*
X9562000Y-33000000D01*
X41500000Y-6000000D02*
X41500000Y-11000000D01*
X42550000Y-24095000D02*
X42550000Y-23500000D01*
X11800000Y-27450000D02*
X11800000Y-33000000D01*
D23*
G04 #@! TO.N,NE555_PULSE*
X19525000Y-20635000D02*
X17000000Y-20635000D01*
X17000000Y-20635000D02*
X17000000Y-34000000D01*
X19062000Y-36000000D02*
X19062000Y-38000000D01*
X19062000Y-34000000D02*
X19062000Y-36000000D01*
X17000000Y-34000000D02*
X19062000Y-34000000D01*
X41500000Y-25365000D02*
X39475000Y-25365000D01*
G04 #@! TO.N,ATTINY_OUT*
X34525000Y-26635000D02*
X31620000Y-26635000D01*
G04 #@! TO.N,STATUS_LED*
X30062000Y-25365000D02*
X30062000Y-36000000D01*
X34525000Y-25365000D02*
X30062000Y-25365000D01*
G04 #@! TO.N,STATUS_LED_R*
X31938000Y-36000000D02*
X34087000Y-36000000D01*
G04 #@! TO.N,PULSE_LED_R*
X20938000Y-36000000D02*
X23087000Y-36000000D01*
G04 #@! TO.N,PWR_LED_R*
X11438000Y-36000000D02*
X13588000Y-36000000D01*
G04 #@! TO.N,RESET*
X33000000Y-21713000D02*
X33000000Y-16079999D01*
X34525000Y-21713000D02*
X33000000Y-21713000D01*
X34525000Y-24095000D02*
X34525000Y-21713000D01*
X33000000Y-16079999D02*
X37000000Y-16079999D01*
G04 #@! TO.N,MOSI*
X39475000Y-27905000D02*
X43500000Y-27905000D01*
G04 #@! TO.N,MISO*
X39475000Y-26635000D02*
X45000000Y-26635000D01*
G04 #@! TO.N,CC1*
X8345000Y-23750000D02*
X13088000Y-23750000D01*
G04 #@! TO.N,CC2*
X8345000Y-26750000D02*
X13088000Y-26750000D01*
G04 #@! TO.N,NE555_DISCH*
X26000000Y-19365000D02*
X24475000Y-19365000D01*
X22913000Y-13000000D02*
X26000000Y-13000000D01*
X22913000Y-9000000D02*
X22913000Y-13000000D01*
X26000000Y-13000000D02*
X26000000Y-19365000D01*
G04 #@! TO.N,NE555_TRIG*
X19525000Y-19365000D02*
X21000000Y-19365000D01*
X23000000Y-20635000D02*
X24475000Y-20635000D01*
X17500000Y-13000000D02*
X17500000Y-19365000D01*
X16950000Y-13000000D02*
X21087000Y-13000000D01*
X17500000Y-19365000D02*
X19525000Y-19365000D01*
G04 #@! TO.N,NE555_CV*
X24475000Y-21905000D02*
X27050000Y-22000000D01*
G04 #@! TD*
M02*
