M48
; DRILL file {KiCad 9.0.2+dfsg-1} date 2026-09-14T04:58:20+0700
; FORMAT={-:-/ absolute / metric / decimal}
; #@! TF.CreationDate,2026-09-14T04:58:20+07:00
; #@! TF.GenerationSoftware,Kicad,Pcbnew,9.0.2+dfsg-1
; #@! TF.FileFunction,Plated,1,2,PTH
FMAT,2
METRIC
; #@! TA.AperFunction,Plated,PTH,ViaDrill
T1C0.300
; #@! TA.AperFunction,Plated,PTH,ComponentDrill
T2C0.600
; #@! TA.AperFunction,Plated,PTH,ComponentDrill
T3C1.000
%
G90
G05
T1
X9.562Y-38.5
X12.0Y-22.55
X12.0Y-27.45
X13.5Y-13.0
X14.912Y-22.2
X14.912Y-28.3
X14.95Y-17.8
X15.412Y-38.5
X17.0Y-20.635
X19.062Y-38.0
X19.525Y-16.5
X21.0Y-19.365
X21.0Y-23.0
X23.0Y-20.635
X24.475Y-18.095
X24.913Y-38.5
X27.05Y-18.0
X30.5Y-18.0
X30.5Y-22.0
X31.62Y-26.635
X34.525Y-30.5
X35.913Y-38.5
X41.5Y-25.365
X43.5Y-27.905
X45.0Y-26.635
X46.0Y-23.5
T3
X24.0Y-44.0
X26.54Y-44.0
X29.08Y-44.0
X31.62Y-44.0
X37.0Y-11.0
X37.0Y-13.54
X37.0Y-16.08
X39.54Y-11.0
X39.54Y-13.54
X39.54Y-16.08
T2
X5.75Y-20.68G85X5.15Y-20.68
G05
X5.75Y-29.32G85X5.15Y-29.32
G05
X10.18Y-20.68G85X9.08Y-20.68
G05
X10.18Y-29.32G85X9.08Y-29.32
G05
M30
